<svg
  xmlns="http://www.w3.org/2000/svg"
  xmlns:xlink="http://www.w3.org/1999/xlink"
  width="40"
  zoomAndPan="magnify"
  viewBox="0 0 30 30.000001"
  height="40"
  preserveAspectRatio="xMidYMid meet"
  version="1.0"
  fill="currentColor"
>
  <path
    d="M 10.242188 6.363281 C 8.445312 6.363281 6.980469 7.828125 6.980469 9.625 C 6.980469 11.421875 8.445312 12.882812 10.242188 12.882812 C 12.050781 12.882812 13.5 11.421875 13.5 9.625 C 13.5 7.828125 12.050781 6.363281 10.242188 6.363281 M 3.320312 8.71875 L 1.351562 7.175781 C 1.179688 7.03125 1.125 6.789062 1.246094 6.578125 L 3.109375 3.355469 C 3.230469 3.15625 3.457031 3.078125 3.679688 3.15625 L 5.996094 4.089844 C 6.476562 3.714844 7.007812 3.410156 7.566406 3.171875 L 7.925781 0.710938 C 7.953125 0.484375 8.152344 0.308594 8.378906 0.308594 L 12.105469 0.308594 C 12.34375 0.308594 12.53125 0.484375 12.570312 0.710938 L 12.917969 3.171875 C 13.488281 3.410156 14.007812 3.714844 14.484375 4.089844 L 16.816406 3.15625 C 17.015625 3.078125 17.265625 3.15625 17.375 3.355469 L 19.238281 6.578125 C 19.355469 6.789062 19.304688 7.03125 19.128906 7.175781 L 17.160156 8.71875 L 17.226562 9.625 L 17.160156 10.542969 L 19.128906 12.074219 C 19.304688 12.21875 19.355469 12.472656 19.238281 12.671875 L 17.375 15.890625 C 17.265625 16.105469 17.015625 16.183594 16.816406 16.105469 L 14.484375 15.160156 C 14.007812 15.53125 13.488281 15.851562 12.917969 16.078125 L 12.570312 18.554688 C 12.53125 18.765625 12.34375 18.9375 12.105469 18.9375 L 8.378906 18.9375 C 8.152344 18.9375 7.953125 18.765625 7.925781 18.554688 L 7.566406 16.078125 C 7.007812 15.851562 6.476562 15.53125 5.996094 15.160156 L 3.679688 16.105469 C 3.457031 16.183594 3.230469 16.105469 3.109375 15.890625 L 1.246094 12.671875 C 1.125 12.472656 1.179688 12.21875 1.351562 12.074219 L 3.320312 10.542969 L 3.253906 9.625 Z M 22.496094 20.175781 C 21.339844 20.175781 20.40625 21.109375 20.40625 22.265625 C 20.40625 23.421875 21.339844 24.367188 22.496094 24.367188 C 22.777344 24.367188 23.042969 24.316406 23.300781 24.207031 C 23.558594 24.101562 23.785156 23.949219 23.984375 23.753906 C 24.179688 23.554688 24.332031 23.328125 24.4375 23.070312 C 24.546875 22.8125 24.597656 22.542969 24.597656 22.265625 C 24.597656 21.109375 23.65625 20.175781 22.496094 20.175781 M 18.050781 21.679688 L 16.761719 20.695312 C 16.667969 20.601562 16.640625 20.441406 16.722656 20.308594 L 17.917969 18.234375 C 17.984375 18.101562 18.144531 18.046875 18.277344 18.101562 L 19.769531 18.699219 L 20.753906 18.113281 L 21.007812 16.53125 C 21.03125 16.382812 21.152344 16.277344 21.300781 16.277344 L 23.695312 16.277344 C 23.855469 16.277344 23.972656 16.382812 24 16.53125 L 24.214844 18.113281 L 25.222656 18.699219 L 26.742188 18.101562 C 26.859375 18.046875 27.007812 18.101562 27.085938 18.234375 L 28.285156 20.308594 C 28.363281 20.441406 28.324219 20.601562 28.21875 20.695312 L 26.953125 21.679688 L 26.996094 22.265625 L 26.953125 22.851562 L 28.21875 23.835938 C 28.324219 23.929688 28.363281 24.089844 28.285156 24.222656 L 27.085938 26.296875 C 27.007812 26.429688 26.859375 26.484375 26.742188 26.429688 L 25.238281 25.832031 L 24.214844 26.417969 L 24 28 C 23.972656 28.148438 23.855469 28.253906 23.695312 28.253906 L 21.300781 28.253906 C 21.152344 28.253906 21.03125 28.148438 21.007812 28 L 20.753906 26.417969 L 19.769531 25.832031 L 18.277344 26.429688 C 18.144531 26.484375 17.984375 26.429688 17.917969 26.296875 L 16.722656 24.222656 C 16.640625 24.089844 16.667969 23.929688 16.761719 23.835938 L 18.050781 22.851562 L 18.011719 22.265625 Z M 18.050781 21.679688 "
    fill-opacity="1" fill-rule="nonzero"/>
</svg>
