<svg height="24" viewBox="0 0 24 24" width="24" xmlns="http://www.w3.org/2000/svg" fill="currentColor">
  <path
    d="m4.24887642 13.9952964 5.87640928-.000219c-.34917317.4226787-.57444518.9514847-.62019485 1.530797l-.00863238.219501v4.5c0 .6649535.23600742 1.2747845.62882723 1.750298l-.12882723.0007732c-3.42096815 0-5.94393034-1.0721565-7.48609064-3.2365015-.33196256-.4659006-.51036783-1.0237281-.51036783-1.5957952v-.919977c0-1.2420202 1.00685627-2.2488765 2.24887642-2.2488765zm10.49758208-2.499921h3c.6472087 0 1.1795339.4918747 1.2435464 1.1221948l.0064536.1278052-.0004585 1.2496246 1.2504585.0003754c.9664983 0 1.75.7835017 1.75 1.75v4.5c0 .9664983-.7835017 1.75-1.75 1.75h-8c-.9664983 0-1.75-.7835017-1.75-1.75v-4.5c0-.9664983.7835017-1.75 1.75-1.75l1.2495415-.0003754.0004585-1.2496246c0-.6472087.4918746-1.1795339 1.1221947-1.2435464l.1278053-.0064536h3zm2.75 1.5h-2.5l-.0004585.9996246h2.5zm-7.50000003-10.9953754c2.76142373 0 5.00000003 2.23857625 5.00000003 5s-2.2385763 5-5.00000003 5c-2.76142374 0-5-2.23857625-5-5s2.23857626-5 5-5z"/>
</svg>
