<svg height="32" viewBox="0 0 32 32" width="32" xmlns="http://www.w3.org/2000/svg" fill="currentColor">
  <path
    d="m27 19.001a4.0056 4.0056 0 0 0 -4.0009-4.001h-13.998a2.0031 2.0031 0 0 1 -2.0011-2.0009v-3.1411a3.9949 3.9949 0 0 0 2.8581-2.858h12.284a4 4 0 1 0 0-2h-12.284a3.9916 3.9916 0 1 0 -4.8581 4.858v3.1411a4.0057 4.0057 0 0 0 4.0011 4.0009h13.998a2.003 2.003 0 0 1 2.0009 2.001v2.999h-3v3h-12.1419a4 4 0 1 0 0 2h12.1419v3h8v-8h-3zm-1-15.001a2 2 0 1 1 -2 2 2.0019 2.0019 0 0 1 2-2zm-22 2a2 2 0 1 1 2 2 2.0019 2.0019 0 0 1 -2-2zm2 22a2 2 0 1 1 2-2 2.002 2.002 0 0 1 -2 2zm22-4v4h-4v-4z"/>
  <path d="m0 0h32v32h-32z" fill="none"/>
</svg>
