<svg enable-background="new 0 0 1200 1200" width="33" height="33" viewBox="0 0 1200 1200"
     xmlns="http://www.w3.org/2000/svg" fill="currentColor">
  <path
    d="m910.143 91.119-16.916 81.053c-17.338 2.724-34.037 7.74-49.691 14.743l-58.229-58.825-66.309 53.661 45.354 69.303c-10.104 13.862-18.357 29.104-24.623 45.503l-82.85-.374-8.906 84.87 81.055 16.914c2.723 17.329 7.746 33.897 14.742 49.545l-58.824 58.376 53.66 66.31 69.303-45.43c13.852 10.098 29.119 18.435 45.504 24.698l-.375 82.774 84.871 8.904 16.838-81.053c17.346-2.722 34.035-7.666 49.695-14.669l58.301 58.825 66.309-53.735-45.428-69.229c10.104-13.857 18.43-29.108 24.697-45.503l82.773.3 8.906-84.87-81.053-16.765c-2.725-17.354-7.66-34.103-14.67-49.77l58.824-58.227-53.734-66.309-69.229 45.354c-13.869-10.111-29.17-18.428-45.578-24.697l.373-82.774zm14.068 197.131c2.668.009 5.373.09 8.084.374 43.355 4.555 74.756 43.384 70.201 86.741-4.555 43.355-43.385 74.83-86.742 70.274-43.355-4.555-74.83-43.384-70.275-86.739 4.269-40.647 38.724-70.789 78.732-70.65zm-608.981 6.96-11.375 112.711c-23.205 6.187-45.185 15.324-65.486 27.092l-87.714-71.696-82.55 82.55 71.698 87.788c-11.768 20.308-20.91 42.272-27.092 65.484l-112.711 11.301v116.751l112.71 11.376c6.182 23.191 15.334 45.118 27.092 65.41l-71.698 87.789 82.55 82.55 87.789-71.697c20.292 11.758 42.219 20.91 65.411 27.093l11.375 112.71h116.752l11.301-112.71c23.212-6.183 45.178-15.325 65.484-27.093l87.788 71.697 82.55-82.55-71.697-87.714c11.768-20.302 20.906-42.281 27.092-65.485l112.711-11.376v-116.751l-112.71-11.302c-6.186-23.225-15.314-45.243-27.092-65.561l71.697-87.714-82.55-82.549-87.713 71.696c-20.316-11.775-42.336-20.905-65.562-27.093l-11.301-112.71h-116.749zm58.376 265.61c59.649 0 107.996 48.348 107.996 107.996 0 59.647-48.347 107.994-107.996 107.994-59.648 0-107.996-48.347-107.996-107.994 0-59.648 48.348-107.996 107.996-107.996zm495.673 144.219-11.9 59.273c-12.188 1.993-23.873 5.653-34.877 10.776l-41.012-43.033-46.553 39.292 31.883 50.667c-7.102 10.143-12.959 21.308-17.363 33.306l-58.15-.301-6.287 62.118 56.955 12.35c1.912 12.678 5.41 24.851 10.328 36.298l-41.312 42.659 37.721 48.497 48.721-33.229c9.736 7.386 20.441 13.454 31.957 18.037l-.225 60.621 59.648 6.511 11.824-59.349c12.189-1.991 23.869-5.579 34.875-10.702l41.014 43.033 46.625-39.291-31.957-50.668c7.104-10.139 12.959-21.312 17.363-33.306l58.229.226 6.211-62.043-56.953-12.35c-1.914-12.695-5.402-24.911-10.328-36.372l41.311-42.585-37.719-48.572-48.646 33.229c-9.746-7.396-20.498-13.449-32.031-18.036l.299-60.546zm9.879 144.144c1.873.009 3.783.092 5.688.301 30.473 3.331 52.521 31.745 49.32 63.465-3.201 31.719-30.449 54.748-60.922 51.416s-52.596-31.746-49.395-63.466c3.001-29.738 27.19-51.818 55.309-51.716z"/>
</svg>
