<svg height="24" viewBox="0 0 24 24" width="24" xmlns="http://www.w3.org/2000/svg" fill="currentColor">
  <path
    d="m11.9092353 13.9995832 7.8438158.0003378c1.2426407 0 2.25 1.0073594 2.25 2.25v.9050798c0 1.0936778-.4774554 2.1328571-1.3072718 2.8452725-1.5654478 1.3439707-3.8057831 2.0007979-6.6957793 2.0007979l-.1790477-.0011338c.3021859-.6085142.2282171-1.3561766-.2214927-1.896439l-.110449-.1208365-2.2299332-2.2239399c.4803693-.8270791.7409226-1.7736251.7409226-2.758722 0-.3416428-.03115-.6760101-.0907647-1.0004168zm-5.4092353-3.4995832c2.48528137 0 4.5 2.0147186 4.5 4.5 0 1.093806-.3902508 2.0964639-1.03911328 2.8763348l2.82186128 2.8142771c.2932425.2925435.2938091.7674169.0012656 1.0606594-.2659487.2665841-.6825832.2912873-.9764544.0737833l-.084205-.0725178-2.90310224-2.8960504c-.67751587.4085031-1.4714391.6435136-2.32025196.6435136-2.48528137 0-4.5-2.0147186-4.5-4.5s2.01471863-4.5 4.5-4.5zm0 1.5c-1.65685425 0-3 1.3431458-3 3s1.34314575 3 3 3 3-1.3431458 3-3-1.34314575-3-3-3zm7.5-9.9953754c2.7614237 0 5 2.23857625 5 5s-2.2385763 5-5 5-5-2.23857625-5-5 2.2385763-5 5-5z"/>
</svg>
