<svg xmlns="http://www.w3.org/2000/svg" xmlns:xlink="http://www.w3.org/1999/xlink" width="40" zoomAndPan="magnify"
     viewBox="0 0 30 30.000001" height="40" preserveAspectRatio="xMidYMid meet" version="1.0" fill="currentColor">
  <defs>
    <clipPath id="id1">
      <path d="M 1.277344 0 L 28.855469 0 L 28.855469 29.03125 L 1.277344 29.03125 Z M 1.277344 0 "
            clip-rule="nonzero"/>
    </clipPath>
  </defs>
  <g clip-path="url(#id1)">
    <path
      d="M 27.710938 11.601562 L 18.546875 11.601562 C 18.320312 11.601562 18.121094 11.523438 17.960938 11.359375 C 17.796875 11.199219 17.714844 11.003906 17.714844 10.773438 L 17.714844 1.273438 C 17.714844 0.570312 17.144531 0 16.4375 0 L 13.164062 0 C 12.457031 0 11.886719 0.570312 11.886719 1.273438 L 11.886719 10.71875 C 11.886719 11.207031 11.488281 11.605469 10.996094 11.605469 L 7.992188 11.621094 C 7.496094 11.625 7.09375 11.222656 7.09375 10.730469 L 7.113281 1.277344 C 7.113281 0.570312 6.542969 0 5.832031 0 L 2.566406 0 C 1.859375 0 1.285156 0.570312 1.285156 1.273438 L 1.285156 27.875 C 1.285156 28.5 1.792969 29.007812 2.421875 29.007812 L 27.710938 29.007812 C 28.335938 29.007812 28.847656 28.5 28.847656 27.875 L 28.847656 12.734375 C 28.847656 12.109375 28.335938 11.601562 27.710938 11.601562 Z M 23.414062 21.589844 C 23.414062 22.410156 22.746094 23.074219 21.921875 23.074219 L 19.339844 23.074219 C 18.515625 23.074219 17.847656 22.410156 17.847656 21.589844 L 17.847656 19.019531 C 17.847656 18.199219 18.515625 17.535156 19.339844 17.535156 L 21.921875 17.535156 C 22.746094 17.535156 23.414062 18.199219 23.414062 19.019531 Z M 23.414062 21.589844 "
      fill-opacity="1" fill-rule="nonzero"/>
  </g>
</svg>
