<svg xmlns="http://www.w3.org/2000/svg" xmlns:xlink="http://www.w3.org/1999/xlink" width="40" zoomAndPan="magnify"
     viewBox="0 0 30 30.000001" height="40" preserveAspectRatio="xMidYMid meet" version="1.0" fill="currentColor">
  <defs>
    <clipPath id="id2">
      <path
        d="M 0.484375 2.054688 L 29.515625 2.054688 L 29.515625 27.460938 L 0.484375 27.460938 Z M 0.484375 2.054688 "
        clip-rule="nonzero"/>
    </clipPath>
  </defs>
  <g clip-path="url(#id2)">
    <path
      d="M 1.925781 12.003906 C 3.421875 12.722656 11.777344 16.089844 13.089844 16.714844 C 14.398438 17.339844 15.335938 17.339844 17.019531 16.496094 C 18.671875 15.621094 26.53125 12.410156 28.027344 11.632812 C 28.808594 11.226562 29.148438 10.914062 29.148438 10.632812 L 29.148438 7.792969 C 29.148438 7.515625 28.777344 7.265625 28.027344 6.984375 L 17.269531 2.804688 C 15.769531 2.242188 15.179688 2.273438 13.433594 2.898438 C 11.652344 3.523438 3.359375 6.796875 1.894531 7.359375 C 1.175781 7.640625 0.769531 7.917969 0.769531 8.199219 L 0.738281 8.199219 L 0.738281 11.039062 C 0.738281 11.351562 1.175781 11.660156 1.925781 12.003906 Z M 15.519531 12.410156 L 10.9375 10.507812 L 17.515625 9.511719 Z M 25.46875 7.886719 L 21.570312 9.417969 L 21.167969 9.574219 L 17.300781 8.042969 L 21.601562 6.328125 Z M 14.085938 5.082031 L 13.464844 3.898438 L 15.429688 4.675781 L 17.300781 4.050781 L 16.800781 5.269531 L 18.703125 5.984375 L 16.238281 6.234375 L 15.675781 7.546875 L 14.804688 6.109375 L 11.964844 5.859375 Z M 9.191406 6.734375 C 11.125 6.734375 12.714844 7.359375 12.714844 8.105469 C 12.714844 8.855469 11.15625 9.480469 9.191406 9.480469 C 7.257812 9.480469 5.667969 8.855469 5.667969 8.105469 C 5.667969 7.359375 7.257812 6.734375 9.191406 6.734375 Z M 1.925781 16.871094 C 3.421875 17.585938 11.777344 20.957031 13.089844 21.578125 C 14.398438 22.203125 15.335938 22.203125 17.019531 21.359375 C 18.671875 20.488281 26.53125 17.277344 28.027344 16.496094 C 28.808594 16.089844 29.148438 15.777344 29.148438 15.5 L 29.148438 12.660156 C 29.148438 12.941406 28.777344 13.222656 28.058594 13.625 C 26.5625 14.40625 18.703125 17.648438 17.050781 18.492188 C 15.398438 19.363281 14.460938 19.363281 13.152344 18.710938 C 11.839844 18.085938 3.453125 14.71875 1.957031 14 C 1.207031 13.65625 0.769531 13.347656 0.769531 13.066406 L 0.769531 15.933594 C 0.738281 16.214844 1.175781 16.496094 1.925781 16.871094 Z M 1.925781 21.546875 C 3.421875 22.265625 11.777344 25.632812 13.089844 26.257812 C 14.398438 26.882812 15.335938 26.882812 17.019531 26.039062 C 18.671875 25.167969 26.53125 21.953125 28.027344 21.175781 C 28.808594 20.769531 29.148438 20.457031 29.148438 20.175781 L 29.148438 17.339844 C 29.148438 17.617188 28.777344 17.898438 28.058594 18.304688 C 26.5625 19.085938 18.703125 22.328125 17.050781 23.171875 C 15.398438 24.042969 14.460938 24.042969 13.152344 23.386719 C 11.839844 22.765625 3.453125 19.394531 1.957031 18.679688 C 1.207031 18.335938 0.769531 18.023438 0.769531 17.742188 L 0.769531 20.613281 C 0.738281 20.863281 1.175781 21.175781 1.925781 21.546875 Z M 1.800781 32.496094 C 1.800781 31.902344 1.332031 31.433594 0.707031 31.433594 C -0.320312 31.402344 -1.226562 31.777344 -1.910156 32.246094 C -2.066406 32.308594 -2.066406 32.496094 -2.378906 32.621094 L -2.378906 32.464844 C -2.378906 31.871094 -2.878906 31.402344 -3.503906 31.402344 C -4.09375 31.402344 -4.5625 31.871094 -4.5625 32.464844 L -4.5625 40.542969 C -4.5625 41.132812 -4.09375 41.632812 -3.503906 41.632812 C -2.878906 41.632812 -2.378906 41.132812 -2.378906 40.542969 L -2.378906 36.675781 C -2.066406 36.394531 -2.003906 35.613281 -1.507812 34.957031 C -1.257812 34.554688 -0.945312 34.210938 -0.539062 33.960938 C -0.195312 33.679688 0.238281 33.554688 0.707031 33.554688 C 1.332031 33.585938 1.800781 33.054688 1.800781 32.496094 Z M 6.132812 31.402344 C 3.328125 31.402344 1.175781 33.742188 1.144531 36.550781 C 1.175781 39.355469 3.359375 41.664062 6.164062 41.695312 C 7.632812 41.695312 8.847656 41.257812 9.84375 40.355469 C 10.3125 39.917969 10.125 39.292969 9.84375 39.011719 C 9.566406 38.671875 8.753906 38.609375 8.316406 39.074219 C 7.816406 39.480469 6.914062 39.636719 6.195312 39.574219 C 5.480469 39.511719 4.667969 39.167969 4.230469 38.671875 C 3.859375 38.328125 3.640625 37.640625 3.546875 37.328125 L 10.0625 37.328125 C 10.625 37.328125 11 36.984375 11.0625 36.488281 C 11.09375 36.457031 11.03125 36.332031 11.03125 36.300781 L 11.03125 36.207031 C 11.03125 33.398438 8.816406 31.402344 6.132812 31.402344 Z M 3.421875 35.425781 C 3.578125 34.804688 4.449219 33.335938 6.195312 33.242188 C 7.972656 33.398438 9.035156 34.804688 9.222656 35.425781 Z M 21.632812 36.550781 L 21.632812 28.410156 C 21.632812 27.816406 21.167969 27.285156 20.542969 27.285156 C 19.917969 27.285156 19.449219 27.785156 19.449219 28.410156 L 19.449219 32.277344 C 18.515625 31.746094 17.671875 31.402344 16.675781 31.402344 C 13.898438 31.402344 11.652344 33.742188 11.652344 36.550781 C 11.652344 39.324219 13.867188 41.664062 16.644531 41.664062 C 17.671875 41.664062 18.640625 41.320312 19.417969 40.789062 C 19.511719 41.289062 19.949219 41.664062 20.511719 41.664062 C 21.136719 41.664062 21.632812 41.164062 21.632812 40.542969 Z M 18.546875 38.578125 C 18.046875 39.105469 17.363281 39.417969 16.613281 39.417969 C 15.863281 39.417969 15.210938 39.105469 14.679688 38.578125 C 14.179688 38.078125 13.867188 37.328125 13.867188 36.550781 C 13.867188 35.738281 14.179688 34.988281 14.679688 34.492188 C 15.179688 33.960938 15.863281 33.648438 16.613281 33.648438 C 17.363281 33.648438 18.015625 33.960938 18.546875 34.492188 C 19.046875 34.988281 19.359375 35.738281 19.359375 36.550781 C 19.386719 37.328125 19.078125 38.078125 18.546875 38.578125 Z M 24.285156 27.285156 C 23.660156 27.285156 23.195312 27.785156 23.195312 28.410156 L 23.195312 28.847656 C 23.195312 29.46875 23.660156 29.96875 24.285156 29.96875 C 24.910156 29.96875 25.375 29.46875 25.375 28.847656 L 25.375 28.410156 C 25.375 27.785156 24.910156 27.285156 24.285156 27.285156 Z M 24.285156 31.402344 C 23.660156 31.402344 23.195312 31.871094 23.195312 32.527344 L 23.195312 40.542969 C 23.195312 41.164062 23.660156 41.664062 24.285156 41.664062 C 24.910156 41.664062 25.375 41.164062 25.375 40.542969 L 25.375 32.558594 C 25.375 31.902344 24.910156 31.402344 24.285156 31.402344 Z M 34.296875 37.109375 C 33.953125 36.550781 33.390625 36.207031 32.832031 35.957031 C 32.238281 35.675781 31.613281 35.425781 30.929688 35.425781 L 30.898438 35.425781 L 30.867188 35.332031 C 30.179688 35.207031 29.648438 34.988281 29.367188 34.804688 C 29.210938 34.710938 29.148438 34.617188 29.148438 34.585938 C 29.117188 34.523438 29.117188 34.492188 29.117188 34.398438 C 29.117188 34.304688 29.179688 34.117188 29.460938 33.929688 C 29.742188 33.710938 30.179688 33.554688 30.710938 33.554688 C 31.363281 33.554688 31.957031 33.898438 32.613281 34.304688 C 33.109375 34.648438 33.796875 34.523438 34.140625 34.023438 C 34.453125 33.523438 34.296875 32.839844 33.796875 32.496094 C 33.140625 32.058594 32.144531 31.371094 30.710938 31.371094 C 29.773438 31.371094 28.902344 31.652344 28.183594 32.121094 C 27.496094 32.621094 26.96875 33.429688 26.96875 34.367188 C 26.96875 34.835938 27.09375 35.300781 27.308594 35.644531 C 27.683594 36.207031 28.183594 36.488281 28.714844 36.769531 C 29.242188 37.015625 29.867188 37.234375 30.492188 37.234375 L 30.523438 37.234375 C 31.269531 37.546875 31.863281 37.671875 32.175781 37.890625 C 32.332031 37.984375 32.425781 38.109375 32.457031 38.171875 C 32.488281 38.234375 32.519531 38.296875 32.519531 38.390625 C 32.519531 38.546875 32.425781 38.761719 32.144531 39.011719 C 31.800781 39.230469 31.300781 39.417969 30.742188 39.417969 C 29.929688 39.449219 29.027344 38.980469 28.496094 38.515625 C 28.058594 38.109375 27.308594 38.203125 26.96875 38.671875 C 26.59375 39.105469 26.65625 39.824219 27.121094 40.199219 C 27.933594 40.851562 29.179688 41.601562 30.773438 41.601562 C 31.769531 41.601562 32.707031 41.289062 33.453125 40.789062 C 34.203125 40.261719 34.734375 39.417969 34.734375 38.421875 C 34.703125 37.984375 34.546875 37.515625 34.296875 37.109375 Z M 34.296875 37.109375"
      fill-opacity="1" fill-rule="nonzero"/>
  </g>
</svg>
