<svg fill="currentColor" height="16" viewBox="0 0 16 16" width="16" xmlns="http://www.w3.org/2000/svg">
  <g>
    <path
      d="m3 3c0-1.10457.89543-2 2-2s2 .89543 2 2c0 .64476-.3051 1.21826-.7788 1.584-.01425.01051-.02841.02115-.04247.0319-.33054.24153-.73799.3841-1.17873.3841-1.10457 0-2-.89543-2-2z"/>
    <path
      d="m9.7788 4.584c.01425.01051.02841.02115.04247.03191.33053.24153.73803.38409 1.17873.38409 1.1046 0 2-.89543 2-2s-.8954-2-2-2c-1.10457 0-2 .89543-2 2 0 .64476.3051 1.21826.7788 1.584z"/>
    <path
      d="m6.26756 6c.34581-.5978.99216-1 1.73244-1s1.38663.4022 1.73244 1c.17017.29417.26756.63571.26756 1 0 1.10457-.89543 2-2 2s-2-.89543-2-2c0-.36429.09739-.70583.26756-1z"/>
    <path
      d="m2.49998 6h2.67073c-.11056.31278-.17071.64936-.17071 1 0 .76835.28885 1.46924.76389 2h-.26391c-1.08514 0-2.00878.69139-2.35451 1.6576-.33996-.1383-.65449-.319-.93332-.5428-.75318-.60453-1.21215-1.49872-1.21215-2.6148 0-.82839.67156-1.5 1.49998-1.5z"/>
    <path
      d="m10.5 9c1.0851 0 2.0088.69137 2.3545 1.6576.34-.1383.6545-.319.9334-.5428.7531-.60453 1.2121-1.49872 1.2121-2.6148 0-.82843-.6716-1.5-1.5-1.5h-2.6707c.1105.31278.1707.64936.1707 1 0 .76835-.2889 1.46924-.7639 2z"/>
    <path
      d="m11.8871 10.928c.0727.1763.1129.3695.1129.572 0 1.1161-.459 2.0103-1.2121 2.6148-.7413.595-1.73482.8852-2.7879.8852s-2.04658-.2902-2.78785-.8852c-.75318-.6045-1.21215-1.4987-1.21215-2.6148 0-.2025.04015-.3957.11292-.572.22486-.5447.76119-.928 1.38706-.928h5.00002c.6259 0 1.1622.3833 1.3871.928z"/>
  </g>
</svg>
