<?xml version="1.0" encoding="utf-8"?>
<svg contentScriptType="text/ecmascript" xmlns:xlink="http://www.w3.org/1999/xlink" zoomAndPan="magnify" contentStyleType="text/css" viewBox="311.23333333333323 110.66666666666667 801.7666666666668 453.033333333333" xmlns:cacoo="http://cacoo.com/" preserveAspectRatio="xMidYMin meet" xmlns="http://www.w3.org/2000/svg" version="1.1"><defs><filter xlink:actuate="onLoad" xlink:type="simple" id="id0" xlink:show="other" filterUnits="userSpaceOnUse" xmlns:xlink="http://www.w3.org/1999/xlink"><feGaussianBlur stdDeviation="3.0" result="blur" in="SourceAlpha"/><feOffset dx="4.0" dy="4.0" result="offsetBlur" in="blur"/><feComponentTransfer result="componentOffsetBlur" in="offsetBlur"><feFuncR type="linear" intercept="0.0" slope="0"/><feFuncG type="linear" intercept="0.0" slope="0"/><feFuncB type="linear" intercept="0.0" slope="0"/><feFuncA type="linear" intercept="0" slope="0.4"/></feComponentTransfer></filter><filter xlink:actuate="onLoad" xlink:type="simple" id="id2" xlink:show="other" filterUnits="userSpaceOnUse" xmlns:xlink="http://www.w3.org/1999/xlink"><feGaussianBlur stdDeviation="3.0" result="blur" in="SourceAlpha"/><feOffset dx="4.0" dy="4.0" result="offsetBlur" in="blur"/><feComponentTransfer result="componentOffsetBlur" in="offsetBlur"><feFuncR type="linear" intercept="0.0" slope="0"/><feFuncG type="linear" intercept="0.0" slope="0"/><feFuncB type="linear" intercept="0.0" slope="0"/><feFuncA type="linear" intercept="0" slope="0.4"/></feComponentTransfer></filter><filter xlink:actuate="onLoad" xlink:type="simple" id="id4" xlink:show="other" filterUnits="userSpaceOnUse" xmlns:xlink="http://www.w3.org/1999/xlink"><feGaussianBlur stdDeviation="3.0" result="blur" in="SourceAlpha"/><feOffset dx="4.0" dy="4.0" result="offsetBlur" in="blur"/><feComponentTransfer result="componentOffsetBlur" in="offsetBlur"><feFuncR type="linear" intercept="0.0" slope="0"/><feFuncG type="linear" intercept="0.0" slope="0"/><feFuncB type="linear" intercept="0.0" slope="0"/><feFuncA type="linear" intercept="0" slope="0.4"/></feComponentTransfer></filter><filter xlink:actuate="onLoad" xlink:type="simple" id="id7" xlink:show="other" filterUnits="userSpaceOnUse" xmlns:xlink="http://www.w3.org/1999/xlink"><feGaussianBlur stdDeviation="3.0" result="blur" in="SourceAlpha"/><feOffset dx="4.0" dy="4.0" result="offsetBlur" in="blur"/><feComponentTransfer result="componentOffsetBlur" in="offsetBlur"><feFuncR type="linear" intercept="0.0" slope="0"/><feFuncG type="linear" intercept="0.0" slope="0"/><feFuncB type="linear" intercept="0.0" slope="0"/><feFuncA type="linear" intercept="0" slope="0.4"/></feComponentTransfer></filter><filter xlink:actuate="onLoad" xlink:type="simple" id="id9" xlink:show="other" filterUnits="userSpaceOnUse" xmlns:xlink="http://www.w3.org/1999/xlink"><feGaussianBlur stdDeviation="3.0" result="blur" in="SourceAlpha"/><feOffset dx="4.0" dy="4.0" result="offsetBlur" in="blur"/><feComponentTransfer result="componentOffsetBlur" in="offsetBlur"><feFuncR type="linear" intercept="0.0" slope="0"/><feFuncG type="linear" intercept="0.0" slope="0"/><feFuncB type="linear" intercept="0.0" slope="0"/><feFuncA type="linear" intercept="0" slope="0.4"/></feComponentTransfer></filter><filter xlink:actuate="onLoad" xlink:type="simple" id="id12" xlink:show="other" filterUnits="userSpaceOnUse" xmlns:xlink="http://www.w3.org/1999/xlink"><feGaussianBlur stdDeviation="3.0" result="blur" in="SourceAlpha"/><feOffset dx="4.0" dy="4.0" result="offsetBlur" in="blur"/><feComponentTransfer result="componentOffsetBlur" in="offsetBlur"><feFuncR type="linear" intercept="0.0" slope="0"/><feFuncG type="linear" intercept="0.0" slope="0"/><feFuncB type="linear" intercept="0.0" slope="0"/><feFuncA type="linear" intercept="0" slope="0.4"/></feComponentTransfer></filter><filter xlink:actuate="onLoad" xlink:type="simple" id="id14" xlink:show="other" filterUnits="userSpaceOnUse" xmlns:xlink="http://www.w3.org/1999/xlink"><feGaussianBlur stdDeviation="3.0" result="blur" in="SourceAlpha"/><feOffset dx="4.0" dy="4.0" result="offsetBlur" in="blur"/><feComponentTransfer result="componentOffsetBlur" in="offsetBlur"><feFuncR type="linear" intercept="0.0" slope="0"/><feFuncG type="linear" intercept="0.0" slope="0"/><feFuncB type="linear" intercept="0.0" slope="0"/><feFuncA type="linear" intercept="0" slope="0.4"/></feComponentTransfer></filter><filter xlink:actuate="onLoad" xlink:type="simple" id="id17" xlink:show="other" filterUnits="userSpaceOnUse" xmlns:xlink="http://www.w3.org/1999/xlink"><feGaussianBlur stdDeviation="3.0" result="blur" in="SourceAlpha"/><feOffset dx="4.0" dy="4.0" result="offsetBlur" in="blur"/><feComponentTransfer result="componentOffsetBlur" in="offsetBlur"><feFuncR type="linear" intercept="0.0" slope="0"/><feFuncG type="linear" intercept="0.0" slope="0"/><feFuncB type="linear" intercept="0.0" slope="0"/><feFuncA type="linear" intercept="0" slope="0.4"/></feComponentTransfer></filter><filter xlink:actuate="onLoad" xlink:type="simple" id="id19" xlink:show="other" filterUnits="userSpaceOnUse" xmlns:xlink="http://www.w3.org/1999/xlink"><feGaussianBlur stdDeviation="3.0" result="blur" in="SourceAlpha"/><feOffset dx="4.0" dy="4.0" result="offsetBlur" in="blur"/><feComponentTransfer result="componentOffsetBlur" in="offsetBlur"><feFuncR type="linear" intercept="0.0" slope="0"/><feFuncG type="linear" intercept="0.0" slope="0"/><feFuncB type="linear" intercept="0.0" slope="0"/><feFuncA type="linear" intercept="0" slope="0.4"/></feComponentTransfer></filter><filter xlink:actuate="onLoad" xlink:type="simple" id="id22" xlink:show="other" filterUnits="userSpaceOnUse" xmlns:xlink="http://www.w3.org/1999/xlink"><feGaussianBlur stdDeviation="3.0" result="blur" in="SourceAlpha"/><feOffset dx="4.0" dy="4.0" result="offsetBlur" in="blur"/><feComponentTransfer result="componentOffsetBlur" in="offsetBlur"><feFuncR type="linear" intercept="0.0" slope="0"/><feFuncG type="linear" intercept="0.0" slope="0"/><feFuncB type="linear" intercept="0.0" slope="0"/><feFuncA type="linear" intercept="0" slope="0.4"/></feComponentTransfer></filter><filter xlink:actuate="onLoad" xlink:type="simple" id="id25" xlink:show="other" filterUnits="userSpaceOnUse" xmlns:xlink="http://www.w3.org/1999/xlink"><feGaussianBlur stdDeviation="3.0" result="blur" in="SourceAlpha"/><feOffset dx="4.0" dy="4.0" result="offsetBlur" in="blur"/><feComponentTransfer result="componentOffsetBlur" in="offsetBlur"><feFuncR type="linear" intercept="0.0" slope="0"/><feFuncG type="linear" intercept="0.0" slope="0"/><feFuncB type="linear" intercept="0.0" slope="0"/><feFuncA type="linear" intercept="0" slope="0.4"/></feComponentTransfer></filter><marker refX="14.0" refY="7.0" markerUnits="userSpaceOnUse" orient="auto" id="id27" markerHeight="14.0" viewBox="0 0 14.0 14.0" preserveAspectRatio="xMidYMid meet" markerWidth="14.0" overflow="visible"><path fill="#000000" d="M7.0 3.5 L14.0 7.0 L7.0 10.5z" stroke-width="1.0" stroke-linejoin="round" stroke-linecap="round" stroke="#000000"/></marker><marker refX="14.0" refY="7.0" markerUnits="userSpaceOnUse" orient="auto" id="id28" markerHeight="14.0" viewBox="0 0 14.0 14.0" preserveAspectRatio="xMidYMid meet" markerWidth="14.0" overflow="visible"><path fill="#000000" d="M7.0 3.5 L14.0 7.0 L7.0 10.5z" stroke-width="1.0" stroke-linejoin="round" stroke-linecap="round" stroke="#000000"/></marker><marker refX="14.0" refY="7.0" markerUnits="userSpaceOnUse" orient="auto" id="id29" markerHeight="14.0" viewBox="0 0 14.0 14.0" preserveAspectRatio="xMidYMid meet" markerWidth="14.0" overflow="visible"><path fill="#000000" d="M7.0 3.5 L14.0 7.0 L7.0 10.5z" stroke-width="1.0" stroke-linejoin="round" stroke-linecap="round" stroke="#000000"/></marker><marker refX="14.0" refY="7.0" markerUnits="userSpaceOnUse" orient="auto" id="id30" markerHeight="14.0" viewBox="0 0 14.0 14.0" preserveAspectRatio="xMidYMid meet" markerWidth="14.0" overflow="visible"><path fill="#000000" d="M7.0 3.5 L14.0 7.0 L7.0 10.5z" stroke-width="1.0" stroke-linejoin="round" stroke-linecap="round" stroke="#000000"/></marker><marker refX="14.0" refY="7.0" markerUnits="userSpaceOnUse" orient="auto" id="id31" markerHeight="14.0" viewBox="0 0 14.0 14.0" preserveAspectRatio="xMidYMid meet" markerWidth="14.0" overflow="visible"><path fill="#000000" d="M7.0 3.5 L14.0 7.0 L7.0 10.5z" stroke-width="1.0" stroke-linejoin="round" stroke-linecap="round" stroke="#000000"/></marker><filter xlink:actuate="onLoad" xlink:type="simple" id="id32" xlink:show="other" filterUnits="userSpaceOnUse" xmlns:xlink="http://www.w3.org/1999/xlink"><feGaussianBlur stdDeviation="3.0" result="blur" in="SourceAlpha"/><feOffset dx="4.0" dy="4.0" result="offsetBlur" in="blur"/><feComponentTransfer result="componentOffsetBlur" in="offsetBlur"><feFuncR type="linear" intercept="0.0" slope="0"/><feFuncG type="linear" intercept="0.0" slope="0"/><feFuncB type="linear" intercept="0.0" slope="0"/><feFuncA type="linear" intercept="0" slope="0.4"/></feComponentTransfer></filter><filter xlink:actuate="onLoad" xlink:type="simple" id="id35" xlink:show="other" filterUnits="userSpaceOnUse" xmlns:xlink="http://www.w3.org/1999/xlink"><feGaussianBlur stdDeviation="3.0" result="blur" in="SourceAlpha"/><feOffset dx="4.0" dy="4.0" result="offsetBlur" in="blur"/><feComponentTransfer result="componentOffsetBlur" in="offsetBlur"><feFuncR type="linear" intercept="0.0" slope="0"/><feFuncG type="linear" intercept="0.0" slope="0"/><feFuncB type="linear" intercept="0.0" slope="0"/><feFuncA type="linear" intercept="0" slope="0.4"/></feComponentTransfer></filter><filter xlink:actuate="onLoad" xlink:type="simple" id="id38" xlink:show="other" filterUnits="userSpaceOnUse" xmlns:xlink="http://www.w3.org/1999/xlink"><feGaussianBlur stdDeviation="3.0" result="blur" in="SourceAlpha"/><feOffset dx="4.0" dy="4.0" result="offsetBlur" in="blur"/><feComponentTransfer result="componentOffsetBlur" in="offsetBlur"><feFuncR type="linear" intercept="0.0" slope="0"/><feFuncG type="linear" intercept="0.0" slope="0"/><feFuncB type="linear" intercept="0.0" slope="0"/><feFuncA type="linear" intercept="0" slope="0.4"/></feComponentTransfer></filter><filter xlink:actuate="onLoad" xlink:type="simple" id="id41" xlink:show="other" filterUnits="userSpaceOnUse" xmlns:xlink="http://www.w3.org/1999/xlink"><feGaussianBlur stdDeviation="3.0" result="blur" in="SourceAlpha"/><feOffset dx="4.0" dy="4.0" result="offsetBlur" in="blur"/><feComponentTransfer result="componentOffsetBlur" in="offsetBlur"><feFuncR type="linear" intercept="0.0" slope="0"/><feFuncG type="linear" intercept="0.0" slope="0"/><feFuncB type="linear" intercept="0.0" slope="0"/><feFuncA type="linear" intercept="0" slope="0.4"/></feComponentTransfer></filter></defs><g><g transform="translate(608.0 125.66666666666667)"><use xlink:href="#id1" xlink:actuate="onLoad" xlink:type="simple" xlink:show="embed" xmlns:xlink="http://www.w3.org/1999/xlink" filter="url(#id0)"/></g><g transform="translate(603.0 198.33333333333337)"><use xlink:href="#id3" xlink:actuate="onLoad" xlink:type="simple" xlink:show="embed" xmlns:xlink="http://www.w3.org/1999/xlink" filter="url(#id2)"/></g><g transform="translate(722.3333333333333 193.33333333333337)"><use xlink:href="#id5" xlink:actuate="onLoad" xlink:type="simple" xlink:show="embed" xmlns:xlink="http://www.w3.org/1999/xlink" filter="url(#id4)"/></g><g transform="translate(603.0 275.9999999999999)"><use xlink:href="#id8" xlink:actuate="onLoad" xlink:type="simple" xlink:show="embed" xmlns:xlink="http://www.w3.org/1999/xlink" filter="url(#id7)"/></g><g transform="translate(722.3333333333333 270.9999999999999)"><use xlink:href="#id10" xlink:actuate="onLoad" xlink:type="simple" xlink:show="embed" xmlns:xlink="http://www.w3.org/1999/xlink" filter="url(#id9)"/></g><g transform="translate(603.0 353.6666666666664)"><use xlink:href="#id13" xlink:actuate="onLoad" xlink:type="simple" xlink:show="embed" xmlns:xlink="http://www.w3.org/1999/xlink" filter="url(#id12)"/></g><g transform="translate(722.3333333333333 348.6666666666664)"><use xlink:href="#id15" xlink:actuate="onLoad" xlink:type="simple" xlink:show="embed" xmlns:xlink="http://www.w3.org/1999/xlink" filter="url(#id14)"/></g><g transform="translate(603.0 430.0)"><use xlink:href="#id18" xlink:actuate="onLoad" xlink:type="simple" xlink:show="embed" xmlns:xlink="http://www.w3.org/1999/xlink" filter="url(#id17)"/></g><g transform="translate(722.3333333333333 425.0)"><use xlink:href="#id20" xlink:actuate="onLoad" xlink:type="simple" xlink:show="embed" xmlns:xlink="http://www.w3.org/1999/xlink" filter="url(#id19)"/></g><g transform="translate(722.3333333333333 508.6999999999997)"><use xlink:href="#id23" xlink:actuate="onLoad" xlink:type="simple" xlink:show="embed" xmlns:xlink="http://www.w3.org/1999/xlink" filter="url(#id22)"/></g><g transform="translate(1068.0 353.6666666666664)"><use xlink:href="#id26" xlink:actuate="onLoad" xlink:type="simple" xlink:show="embed" xmlns:xlink="http://www.w3.org/1999/xlink" filter="url(#id25)"/></g><g transform="translate(326.23333333333323 183.33333333333337)"><use xlink:href="#id33" xlink:actuate="onLoad" xlink:type="simple" xlink:show="embed" xmlns:xlink="http://www.w3.org/1999/xlink" filter="url(#id32)"/></g><g transform="translate(326.23333333333323 260.9999999999999)"><use xlink:href="#id36" xlink:actuate="onLoad" xlink:type="simple" xlink:show="embed" xmlns:xlink="http://www.w3.org/1999/xlink" filter="url(#id35)"/></g><g transform="translate(326.23333333333323 338.6666666666664)"><use xlink:href="#id39" xlink:actuate="onLoad" xlink:type="simple" xlink:show="embed" xmlns:xlink="http://www.w3.org/1999/xlink" filter="url(#id38)"/></g><g transform="translate(326.23333333333323 415.0)"><use xlink:href="#id42" xlink:actuate="onLoad" xlink:type="simple" xlink:show="embed" xmlns:xlink="http://www.w3.org/1999/xlink" filter="url(#id41)"/></g></g><g><g transform="translate(608.0 125.66666666666667)"><path fill-opacity="1.0" fill="#000000" stroke-linejoin="round" id="id1" d="M20.0 10.0 Q20.0 11.98912367379658 19.238795325112868 13.826834323650898 Q18.477590650225736 15.664544973505215 17.071067811865476 17.071067811865476 Q15.664544973505215 18.477590650225736 13.826834323650898 19.238795325112868 Q11.98912367379658 20.0 10.0 20.0 Q8.01087632620342 20.0 6.173165676349103 19.238795325112868 Q4.335455026494785 18.477590650225736 2.9289321881345254 17.071067811865476 Q1.5224093497742643 15.664544973505215 0.7612046748871322 13.8268343236509 Q0.0 11.98912367379658 0.0 10.000000000000002 Q0.0 8.010876326203423 0.7612046748871322 6.173165676349104 Q1.5224093497742643 4.335455026494786 2.9289321881345227 2.9289321881345254 Q4.335455026494783 1.522409349774268 6.173165676349097 0.7612046748871357 Q8.010876326203416 0.0 9.999999999999998 0.0 Q11.98912367379658 0.0 13.8268343236509 0.761204674887134 Q15.664544973505215 1.522409349774266 17.071067811865476 2.9289321881345227 Q18.47759065022573 4.335455026494781 19.238795325112864 6.173165676349096 Q20.0 8.010876326203416 20.0 10.0z" stroke="#000000" stroke-width="1.0"/></g><g transform="translate(603.0 198.33333333333337)"><path fill-opacity="1.0" fill="#ffffff" stroke-linejoin="round" id="id3" d="M15.0 0.0 L30.0 15.0 L15.0 30.0 L0.0 15.0 L15.0 0.0z" stroke="#000000" stroke-width="1.0"/></g><path fill="none" d="M618.0 145.66666666666669 L618.0 198.33333333333337" stroke-width="1.0" stroke-linejoin="round" stroke="#000000"/><g transform="translate(722.3333333333333 193.33333333333337)"><path fill-opacity="1.0" fill="#ffffff" stroke-linejoin="round" id="id5" d="M15.0 0.0 L105.0 0.0 Q120.0 0.0 120.0 15.0 L120.0 25.0 Q120.0 40.0 105.0 40.0 L15.0 40.0 Q0.0 40.0 0.0 25.0 L0.0 15.0 Q0.0 0.0 15.0 0.0z" stroke="#000000" stroke-width="1.0"/><g transform="translate(0.0 0.0)"><defs><clipPath id="id6"><path d="M0 0 L120.0 0 L120.0 40.0 L0 40.0z"/></clipPath></defs><text font-size="12" clip-path="url(#id6)" text-decoration="none" fill="#000000" font-family="Arial,Arial" font-style="normal" font-weight="bold"><tspan x="29.0" xml:space="preserve" y="24.0" textLength="61.0">CANCELED</tspan></text></g></g><path fill="none" d="M633.0 213.33333333333337 L722.3333333333333 213.33333333333337" stroke-width="1.0" stroke-linejoin="round" stroke="#000000"/><g transform="translate(603.0 275.9999999999999)"><path fill-opacity="1.0" fill="#ffffff" stroke-linejoin="round" id="id8" d="M15.0 0.0 L30.0 15.0 L15.0 30.0 L0.0 15.0 L15.0 0.0z" stroke="#000000" stroke-width="1.0"/></g><g transform="translate(722.3333333333333 270.9999999999999)"><path fill-opacity="1.0" fill="#ffffff" stroke-linejoin="round" id="id10" d="M15.0 0.0 L105.0 0.0 Q120.0 0.0 120.0 15.0 L120.0 25.0 Q120.0 40.0 105.0 40.0 L15.0 40.0 Q0.0 40.0 0.0 25.0 L0.0 15.0 Q0.0 0.0 15.0 0.0z" stroke="#000000" stroke-width="1.0"/><g transform="translate(0.0 0.0)"><defs><clipPath id="id11"><path d="M0 0 L120.0 0 L120.0 40.0 L0 40.0z"/></clipPath></defs><text font-size="12" clip-path="url(#id11)" text-decoration="none" fill="#000000" font-family="Arial,Arial" font-style="normal" font-weight="bold"><tspan x="32.0" xml:space="preserve" y="24.0" textLength="56.0">FLAPPING</tspan></text></g></g><path fill="none" d="M618.0 228.33333333333337 L618.0 275.9999999999999" stroke-width="1.0" stroke-linejoin="round" stroke="#000000"/><path fill="none" d="M633.0 290.9999999999999 L722.3333333333333 290.9999999999999" stroke-width="1.0" stroke-linejoin="round" stroke="#000000"/><g transform="translate(603.0 353.6666666666664)"><path fill-opacity="1.0" fill="#ffffff" stroke-linejoin="round" id="id13" d="M15.0 0.0 L30.0 15.0 L15.0 30.0 L0.0 15.0 L15.0 0.0z" stroke="#000000" stroke-width="1.0"/></g><g transform="translate(722.3333333333333 348.6666666666664)"><path fill-opacity="1.0" fill="#ffffff" stroke-linejoin="round" id="id15" d="M15.0 0.0 L105.0 0.0 Q120.0 0.0 120.0 15.0 L120.0 25.0 Q120.0 40.0 105.0 40.0 L15.0 40.0 Q0.0 40.0 0.0 25.0 L0.0 15.0 Q0.0 0.0 15.0 0.0z" stroke="#000000" stroke-width="1.0"/><g transform="translate(0.0 0.0)"><defs><clipPath id="id16"><path d="M0 0 L120.0 0 L120.0 40.0 L0 40.0z"/></clipPath></defs><text font-size="12" clip-path="url(#id16)" text-decoration="none" fill="#000000" font-family="Arial,Arial" font-style="normal" font-weight="bold"><tspan x="30.0" xml:space="preserve" y="24.0" textLength="59.0">STEALTHY</tspan></text></g></g><path fill="none" d="M618.0 305.9999999999999 L618.0 353.6666666666664" stroke-width="1.0" stroke-linejoin="round" stroke="#000000"/><path fill="none" d="M633.0 368.6666666666664 L722.3333333333333 368.6666666666664" stroke-width="1.0" stroke-linejoin="round" stroke="#000000"/><g transform="translate(603.0 430.0)"><path fill-opacity="1.0" fill="#ffffff" stroke-linejoin="round" id="id18" d="M15.0 0.0 L30.0 15.0 L15.0 30.0 L0.0 15.0 L15.0 0.0z" stroke="#000000" stroke-width="1.0"/></g><g transform="translate(722.3333333333333 425.0)"><path fill-opacity="1.0" fill="#ffffff" stroke-linejoin="round" id="id20" d="M15.0 0.0 L105.0 0.0 Q120.0 0.0 120.0 15.0 L120.0 25.0 Q120.0 40.0 105.0 40.0 L15.0 40.0 Q0.0 40.0 0.0 25.0 L0.0 15.0 Q0.0 0.0 15.0 0.0z" stroke="#000000" stroke-width="1.0"/><g transform="translate(0.0 0.0)"><defs><clipPath id="id21"><path d="M0 0 L120.0 0 L120.0 40.0 L0 40.0z"/></clipPath></defs><text font-size="12" clip-path="url(#id21)" text-decoration="none" fill="#000000" font-family="Arial,Arial" font-style="normal" font-weight="bold"><tspan x="33.0" xml:space="preserve" y="24.0" textLength="53.0">ONGOING</tspan></text></g></g><path fill="none" d="M618.0 383.6666666666664 L618.0 430.0" stroke-width="1.0" stroke-linejoin="round" stroke="#000000"/><path fill="none" d="M633.0 445.0 L722.3333333333333 445.0" stroke-width="1.0" stroke-linejoin="round" stroke="#000000"/><g transform="translate(722.3333333333333 508.6999999999997)"><path fill-opacity="1.0" fill="#ffffff" stroke-linejoin="round" id="id23" d="M15.0 0.0 L105.0 0.0 Q120.0 0.0 120.0 15.0 L120.0 25.0 Q120.0 40.0 105.0 40.0 L15.0 40.0 Q0.0 40.0 0.0 25.0 L0.0 15.0 Q0.0 0.0 15.0 0.0z" stroke="#000000" stroke-width="1.0"/><g transform="translate(0.0 0.0)"><defs><clipPath id="id24"><path d="M0 0 L120.0 0 L120.0 40.0 L0 40.0z"/></clipPath></defs><text font-size="12" clip-path="url(#id24)" text-decoration="none" fill="#000000" font-family="Arial,Arial" font-style="normal" font-weight="bold"><tspan x="49.0" xml:space="preserve" y="24.0" textLength="21.0">OFF</tspan></text></g></g><path fill="none" d="M618.0 460.0 L618.0 528.6999999999997 L722.3333333333333 528.6999999999997" stroke-width="1.0" stroke-linejoin="round" stroke="#000000"/><g transform="translate(1068.0 353.6666666666664)"><path fill-opacity="1.0" fill="#ffffff" stroke-linejoin="round" id="id26" d="M30.0 15.0 Q30.0 17.98368551069487 28.8581929876693 20.740251485476342 Q27.716385975338603 23.496817460257823 25.606601717798213 25.606601717798213 Q23.496817460257823 27.716385975338603 20.74025148547635 28.8581929876693 Q17.98368551069487 30.0 15.000000000000002 30.0 Q12.01631448930513 30.0 9.259748514523654 28.8581929876693 Q6.503182539742177 27.716385975338603 4.3933982822017885 25.606601717798213 Q2.2836140246613983 23.496817460257823 1.1418070123306985 20.74025148547635 Q0.0 17.98368551069487 0.0 15.000000000000002 Q0.0 12.016314489305136 1.1418070123306965 9.259748514523654 Q2.2836140246613965 6.5031825397421805 4.393398282201785 4.3933982822017885 Q6.503182539742175 2.283614024661402 9.259748514523643 1.1418070123307018 Q12.016314489305124 0.0 14.999999999999996 0.0 Q17.983685510694873 0.0 20.74025148547635 1.1418070123307 Q23.496817460257823 2.2836140246614 25.60660171779821 4.393398282201785 Q27.716385975338596 6.503182539742172 28.858192987669295 9.259748514523643 Q30.0 12.016314489305126 30.0 15.0z" stroke="#000000" stroke-width="1.0"/><path fill="#000000" fill-opacity="1.0" d="M25.0 15.0 Q25.0 16.98912367379658 24.238795325112868 18.8268343236509 Q23.477590650225736 20.664544973505215 22.071067811865476 22.071067811865476 Q20.664544973505215 23.477590650225736 18.8268343236509 24.238795325112868 Q16.98912367379658 25.0 15.0 25.0 Q13.01087632620342 25.0 11.173165676349104 24.238795325112868 Q9.335455026494785 23.477590650225736 7.928932188134525 22.071067811865476 Q6.522409349774264 20.664544973505215 5.761204674887132 18.8268343236509 Q5.0 16.98912367379658 5.0 15.000000000000002 Q5.0 13.010876326203423 5.761204674887132 11.173165676349104 Q6.522409349774264 9.335455026494786 7.928932188134523 7.928932188134525 Q9.335455026494783 6.522409349774268 11.173165676349097 5.761204674887136 Q13.010876326203416 5.0 14.999999999999998 5.0 Q16.98912367379658 5.0 18.8268343236509 5.761204674887134 Q20.664544973505215 6.522409349774266 22.071067811865476 7.928932188134523 Q23.47759065022573 9.335455026494781 24.238795325112864 11.173165676349097 Q25.0 13.010876326203416 25.0 15.0z" stroke-width="1.0" stroke-linejoin="round" stroke="#000000"/></g><path fill="none" marker-end="url(#id27)" d="M842.3333333333333 213.33333333333337 L955.1666666666666 213.33333333333337 L955.1666666666666 368.6666666666664 L1068.0 368.6666666666664" stroke-width="1.0" stroke-linejoin="round" stroke="#000000"/><path fill="none" marker-end="url(#id28)" d="M842.3333333333333 290.9999999999999 L955.1666666666666 290.9999999999999 L955.1666666666666 368.6666666666664 L1068.0 368.6666666666664" stroke-width="1.0" stroke-linejoin="round" stroke="#000000"/><path fill="none" marker-end="url(#id29)" d="M842.3333333333333 368.6666666666664 L1068.0 368.6666666666664" stroke-width="1.0" stroke-linejoin="round" stroke="#000000"/><path fill="none" marker-end="url(#id30)" d="M842.3333333333333 445.0 L955.1666666666666 445.0 L955.1666666666666 368.6666666666664 L1068.0 368.6666666666664" stroke-width="1.0" stroke-linejoin="round" stroke="#000000"/><path fill="none" marker-end="url(#id31)" d="M842.3333333333333 528.6999999999997 L955.1666666666666 528.6999999999997 L955.1666666666666 368.6666666666664 L1068.0 368.6666666666664" stroke-width="1.0" stroke-linejoin="round" stroke="#000000"/><g transform="translate(326.23333333333323 183.33333333333337)"><path fill-opacity="1.0" fill="#ffffff" stroke-linejoin="round" id="id33" d="M0.0 0.0 L146.66666666666652 0.0 L156.66666666666652 10.0 L156.66666666666652 60.0 L0.0 60.0 L0.0 0.0z" stroke="#000000" stroke-width="1.0"/><path fill="#ffffff" fill-opacity="1.0" d="M146.66666666666652 0.0 L156.66666666666652 10.0 L146.66666666666652 10.0 L146.66666666666652 0.0z" stroke-width="1.0" stroke-linejoin="round" stroke="#000000"/><g transform="translate(5.0 0.0)"><defs><clipPath id="id34"><path d="M0 0 L146.66666666666652 0 L146.66666666666652 60.0 L0 60.0z"/></clipPath></defs><text font-size="10" clip-path="url(#id34)" text-decoration="none" fill="#000000" font-family="Arial,Arial" font-style="normal" font-weight="normal"><tspan x="2.0" xml:space="preserve" y="11.0" textLength="143.0">Is alarm step &quot;cancel&quot; present </tspan><tspan x="2.0" xml:space="preserve" y="22.0" textLength="6.0">?</tspan></text></g></g><g transform="translate(326.23333333333323 260.9999999999999)"><path fill-opacity="1.0" fill="#ffffff" stroke-linejoin="round" id="id36" d="M0.0 0.0 L146.66666666666663 0.0 L156.66666666666663 10.0 L156.66666666666663 60.0 L0.0 60.0 L0.0 0.0z" stroke="#000000" stroke-width="1.0"/><path fill="#ffffff" fill-opacity="1.0" d="M146.66666666666663 0.0 L156.66666666666663 10.0 L146.66666666666663 10.0 L146.66666666666663 0.0z" stroke-width="1.0" stroke-linejoin="round" stroke="#000000"/><g transform="translate(5.0 0.0)"><defs><clipPath id="id37"><path d="M0 0 L146.66666666666663 0 L146.66666666666663 60.0 L0 60.0z"/></clipPath></defs><text font-size="10" clip-path="url(#id37)" text-decoration="none" fill="#000000" font-family="Arial,Arial" font-style="normal" font-weight="normal"><tspan x="2.0" xml:space="preserve" y="11.0" textLength="88.0">Is there more than </tspan></text><text font-size="10" clip-path="url(#id37)" text-decoration="none" fill="#000000" font-family="Arial,Arial" font-style="normal" font-weight="bold"><tspan x="90.0" xml:space="preserve" y="11.0" textLength="19.0">freq</tspan></text><text font-size="10" clip-path="url(#id37)" text-decoration="none" fill="#000000" font-family="Arial,Arial" font-style="normal" font-weight="normal"><tspan x="109.0" xml:space="preserve" y="11.0" textLength="28.0"> state </tspan><tspan x="2.0" xml:space="preserve" y="22.0" textLength="75.0">change, during </tspan></text><text font-size="10" clip-path="url(#id37)" text-decoration="none" fill="#000000" font-family="Arial,Arial" font-style="normal" font-weight="bold"><tspan x="77.0" xml:space="preserve" y="22.0" textLength="38.0">interval</tspan></text><text font-size="10" clip-path="url(#id37)" text-decoration="none" fill="#000000" font-family="Arial,Arial" font-style="normal" font-weight="normal"><tspan x="115.0" xml:space="preserve" y="22.0" textLength="6.0"> :</tspan><tspan x="2.0" xml:space="preserve" y="33.0" textLength="98.0"> - increase, decrease</tspan><tspan x="2.0" xml:space="preserve" y="44.0" textLength="98.0"> - decrease, increase</tspan></text></g></g><g transform="translate(326.23333333333323 338.6666666666664)"><path fill-opacity="1.0" fill="#ffffff" stroke-linejoin="round" id="id39" d="M0.0 0.0 L146.66666666666657 0.0 L156.66666666666657 10.0 L156.66666666666657 60.0 L0.0 60.0 L0.0 0.0z" stroke="#000000" stroke-width="1.0"/><path fill="#ffffff" fill-opacity="1.0" d="M146.66666666666657 0.0 L156.66666666666657 10.0 L146.66666666666657 10.0 L146.66666666666657 0.0z" stroke-width="1.0" stroke-linejoin="round" stroke="#000000"/><g transform="translate(5.0 0.0)"><defs><clipPath id="id40"><path d="M0 0 L146.66666666666657 0 L146.66666666666657 60.0 L0 60.0z"/></clipPath></defs><text font-size="10" clip-path="url(#id40)" text-decoration="none" fill="#000000" font-family="Arial,Arial" font-style="normal" font-weight="normal"><tspan x="2.0" xml:space="preserve" y="11.0" textLength="126.0">If previous state step is not </tspan></text><text font-size="10" clip-path="url(#id40)" text-decoration="none" fill="#000000" font-family="Arial,Arial" font-style="italic" font-weight="normal"><tspan x="128.0" xml:space="preserve" y="11.0" textLength="15.0">OK</tspan></text><text font-size="10" clip-path="url(#id40)" text-decoration="none" fill="#000000" font-family="Arial,Arial" font-style="normal" font-weight="normal"><tspan x="143.0" xml:space="preserve" y="11.0" textLength="3.0"> </tspan><tspan x="2.0" xml:space="preserve" y="22.0" textLength="126.0">and time interval between </tspan><tspan x="2.0" xml:space="preserve" y="33.0" textLength="142.0">current step and previous one </tspan><tspan x="2.0" xml:space="preserve" y="44.0" textLength="70.0">is greater than </tspan></text><text font-size="10" clip-path="url(#id40)" text-decoration="none" fill="#000000" font-family="Arial,Arial" font-style="normal" font-weight="bold"><tspan x="72.0" xml:space="preserve" y="44.0" textLength="38.0">interval</tspan></text></g></g><g transform="translate(326.23333333333323 415.0)"><path fill-opacity="1.0" fill="#ffffff" stroke-linejoin="round" id="id42" d="M0.0 0.0 L146.66666666666652 0.0 L156.66666666666652 10.0 L156.66666666666652 60.0 L0.0 60.0 L0.0 0.0z" stroke="#000000" stroke-width="1.0"/><path fill="#ffffff" fill-opacity="1.0" d="M146.66666666666652 0.0 L156.66666666666652 10.0 L146.66666666666652 10.0 L146.66666666666652 0.0z" stroke-width="1.0" stroke-linejoin="round" stroke="#000000"/><g transform="translate(5.0 0.0)"><defs><clipPath id="id43"><path d="M0 0 L146.66666666666652 0 L146.66666666666652 60.0 L0 60.0z"/></clipPath></defs><text font-size="10" clip-path="url(#id43)" text-decoration="none" fill="#000000" font-family="Arial,Arial" font-style="normal" font-weight="normal"><tspan x="2.0" xml:space="preserve" y="11.0" textLength="113.0">Is current state not OK ?</tspan></text></g></g><path fill="none" d="M482.89999999999986 213.33333333333337 L603.0 213.33333333333337" stroke-dasharray="3.0 3.0" stroke-width="1.0" stroke-linejoin="round" stroke="#000000"/><path fill="none" d="M482.89999999999986 290.9999999999999 L603.0 290.9999999999999" stroke-dasharray="3.0 3.0" stroke-width="1.0" stroke-linejoin="round" stroke="#000000"/><path fill="none" d="M482.8999999999998 368.6666666666664 L603.0 368.6666666666664" stroke-dasharray="3.0 3.0" stroke-width="1.0" stroke-linejoin="round" stroke="#000000"/><path fill="none" d="M482.89999999999975 445.0 L603.0 445.0" stroke-dasharray="3.0 3.0" stroke-width="1.0" stroke-linejoin="round" stroke="#000000"/><g transform="translate(640.6666666666666 195.0)"><defs><clipPath id="id44"><path d="M0 0 L150.0 0 L150.0 40.0 L0 40.0z"/></clipPath></defs><text font-size="12" clip-path="url(#id44)" text-decoration="none" fill="#000000" font-family="Arial,Arial" font-style="normal" font-weight="normal"><tspan x="2.0" xml:space="preserve" y="13.0" textLength="19.0">yes</tspan></text></g><g transform="translate(640.6666666666666 270.9999999999999)"><defs><clipPath id="id45"><path d="M0 0 L150.0 0 L150.0 40.0 L0 40.0z"/></clipPath></defs><text font-size="12" clip-path="url(#id45)" text-decoration="none" fill="#000000" font-family="Arial,Arial" font-style="normal" font-weight="normal"><tspan x="2.0" xml:space="preserve" y="13.0" textLength="19.0">yes</tspan></text></g><g transform="translate(640.6666666666666 348.6666666666664)"><defs><clipPath id="id46"><path d="M0 0 L150.0 0 L150.0 40.0 L0 40.0z"/></clipPath></defs><text font-size="12" clip-path="url(#id46)" text-decoration="none" fill="#000000" font-family="Arial,Arial" font-style="normal" font-weight="normal"><tspan x="2.0" xml:space="preserve" y="13.0" textLength="19.0">yes</tspan></text></g><g transform="translate(637.6666666666666 425.0)"><defs><clipPath id="id47"><path d="M0 0 L150.0 0 L150.0 40.0 L0 40.0z"/></clipPath></defs><text font-size="12" clip-path="url(#id47)" text-decoration="none" fill="#000000" font-family="Arial,Arial" font-style="normal" font-weight="normal"><tspan x="2.0" xml:space="preserve" y="13.0" textLength="19.0">yes</tspan></text></g><g transform="translate(598.3333333333335 228.33333333333337)"><defs><clipPath id="id48"><path d="M0 0 L150.0 0 L150.0 40.0 L0 40.0z"/></clipPath></defs><text font-size="12" clip-path="url(#id48)" text-decoration="none" fill="#000000" font-family="Arial,Arial" font-style="normal" font-weight="normal"><tspan x="2.0" xml:space="preserve" y="13.0" textLength="14.0">no</tspan></text></g><g transform="translate(598.3333333333335 305.9999999999999)"><defs><clipPath id="id49"><path d="M0 0 L150.0 0 L150.0 40.0 L0 40.0z"/></clipPath></defs><text font-size="12" clip-path="url(#id49)" text-decoration="none" fill="#000000" font-family="Arial,Arial" font-style="normal" font-weight="normal"><tspan x="2.0" xml:space="preserve" y="13.0" textLength="14.0">no</tspan></text></g><g transform="translate(598.3333333333335 385.0)"><defs><clipPath id="id50"><path d="M0 0 L150.0 0 L150.0 40.0 L0 40.0z"/></clipPath></defs><text font-size="12" clip-path="url(#id50)" text-decoration="none" fill="#000000" font-family="Arial,Arial" font-style="normal" font-weight="normal"><tspan x="2.0" xml:space="preserve" y="13.0" textLength="14.0">no</tspan></text></g><g transform="translate(598.3333333333335 465.0)"><defs><clipPath id="id51"><path d="M0 0 L150.0 0 L150.0 40.0 L0 40.0z"/></clipPath></defs><text font-size="12" clip-path="url(#id51)" text-decoration="none" fill="#000000" font-family="Arial,Arial" font-style="normal" font-weight="normal"><tspan x="2.0" xml:space="preserve" y="13.0" textLength="14.0">no</tspan></text></g></g></svg>