<svg width="28" height="28" viewBox="0 0 28 28" fill="none" xmlns="http://www.w3.org/2000/svg">
<path fill-rule="evenodd" clip-rule="evenodd" d="M21 23V9.782L19 8.452V23H21ZM18 23V7.787L16 6.457V23H18ZM15 23V5.792L14 5.127L13 5.792V23H15ZM12 23V6.457L10 7.787V23H12ZM9 23V8.452L7 9.782V23H9ZM25 24H3V23H6V10.447L3.754 11.94L3.2 11.107L13.723 4.11C13.891 3.999 14.109 3.999 14.277 4.11L24.8 11.107L24.246 11.94L22 10.447V23H25V24ZM2 26H7V25H2V26ZM9 26H19V25H9V26ZM21 26H26V25H21V26ZM0 28H13V27H0V28ZM15 28H28V27H15V28ZM1.277 10.083L0.723 9.25L13.723 0.584C13.891 0.472 14.109 0.472 14.277 0.584L27.277 9.25L26.723 10.083L14 1.601L1.277 10.083Z" fill="currentColor"/>
</svg>
