<svg width="28" height="27" viewBox="0 0 28 27" fill="none" xmlns="http://www.w3.org/2000/svg">
<path fill-rule="evenodd" clip-rule="evenodd" d="M3 4.5C3 3.673 3.673 3 4.5 3C5.327 3 6 3.673 6 4.5C6 5.327 5.327 6 4.5 6C3.673 6 3 5.327 3 4.5ZM7 4.5C7 3.122 5.879 2 4.5 2C3.121 2 2 3.122 2 4.5C2 5.878 3.121 7 4.5 7C5.879 7 7 5.878 7 4.5ZM22.5 26C21.121 26 20 24.878 20 23.5C20 22.122 21.121 21 22.5 21C23.879 21 25 22.122 25 23.5C25 24.878 23.879 26 22.5 26ZM15 12.5C15.827 12.5 16.5 13.173 16.5 14C16.5 14.827 15.827 15.5 15 15.5C14.173 15.5 13.5 14.827 13.5 14C13.5 13.173 14.173 12.5 15 12.5ZM12.909 12.637C12.652 13.029 12.5 13.497 12.5 14C12.5 15.378 13.621 16.5 15 16.5C16.379 16.5 17.5 15.378 17.5 14C17.5 12.622 16.379 11.5 15 11.5C14.486 11.5 14.009 11.656 13.611 11.923L11.758 10.225C12.634 9.472 13.758 9 15 9C17.757 9 20 11.243 20 14C20 16.757 17.757 19 15 19C12.243 19 10 16.757 10 14C10 12.846 10.408 11.796 11.067 10.949L12.909 12.637ZM15 26C8.383 26 3 20.617 3 14C3 12.236 3.384 10.544 4.119 8.961C4.246 8.973 4.369 9 4.5 9C5.697 9 6.779 8.523 7.587 7.758L10.316 10.26C9.494 11.287 9 12.586 9 14C9 17.309 11.691 20 15 20C18.309 20 21 17.309 21 14C21 10.691 18.309 8 15 8C13.465 8 12.068 8.584 11.006 9.535L8.238 6.999C8.719 6.283 9 5.424 9 4.5C9 4.215 8.967 3.938 8.916 3.667C12.318 1.665 16.699 1.517 20.246 3.233C20.092 3.627 20 4.052 20 4.5C20 6.43 21.57 8 23.5 8C24.092 8 24.641 7.839 25.13 7.579C26.35 9.499 27 11.708 27 14C27 16.495 26.239 18.867 24.812 20.894C24.194 20.344 23.39 20 22.5 20C20.57 20 19 21.57 19 23.5C19 24.096 19.163 24.648 19.427 25.14C18.021 25.7 16.54 26 15 26ZM1 4.5C1 2.57 2.57 1 4.5 1C6.43 1 8 2.57 8 4.5C8 6.43 6.43 8 4.5 8C2.57 8 1 6.43 1 4.5ZM23.5 2C24.879 2 26 3.122 26 4.5C26 5.878 24.879 7 23.5 7C22.121 7 21 5.878 21 4.5C21 3.122 22.121 2 23.5 2ZM28 14C28 11.5 27.286 9.088 25.945 6.998C26.594 6.361 27 5.479 27 4.5C27 2.57 25.43 1 23.5 1C22.377 1 21.388 1.541 20.746 2.366C16.964 0.507 12.296 0.628 8.617 2.698C7.921 1.113 6.34 0 4.5 0C2.019 0 0 2.019 0 4.5C0 6.497 1.315 8.174 3.119 8.761C2.389 10.413 2 12.169 2 14C2 21.168 7.832 27 15 27C16.751 27 18.434 26.641 20.024 25.971C20.658 26.606 21.534 27 22.5 27C24.43 27 26 25.43 26 23.5C26 22.834 25.803 22.217 25.479 21.687C27.126 19.445 28 16.792 28 14Z" fill="currentColor"/>
</svg>
