<svg width="28" height="28" viewBox="0 0 28 28" fill="none" xmlns="http://www.w3.org/2000/svg">
<path fill-rule="evenodd" clip-rule="evenodd" d="M24.5 24C23.121 24 22 22.878 22 21.5C22 20.122 23.121 19 24.5 19C25.879 19 27 20.122 27 21.5C27 22.878 25.879 24 24.5 24ZM24.5 18C22.57 18 21 19.57 21 21.5C21 23.43 22.57 25 24.5 25C26.43 25 28 23.43 28 21.5C28 19.57 26.43 18 24.5 18ZM24.5 16C23.121 16 22 14.878 22 13.5C22 12.122 23.121 11 24.5 11C25.879 11 27 12.122 27 13.5C27 14.878 25.879 16 24.5 16ZM24.5 10C22.57 10 21 11.57 21 13.5C21 15.43 22.57 17 24.5 17C26.43 17 28 15.43 28 13.5C28 11.57 26.43 10 24.5 10ZM24.5 8C23.121 8 22 6.878 22 5.5C22 4.122 23.121 3 24.5 3C25.879 3 27 4.122 27 5.5C27 6.878 25.879 8 24.5 8ZM24.5 2C22.57 2 21 3.57 21 5.5C21 7.43 22.57 9 24.5 9C26.43 9 28 7.43 28 5.5C28 3.57 26.43 2 24.5 2ZM28 0V1H19V27H28V28H18.5C18.224 28 18 27.776 18 27.5V14H11V13H18V0.5C18 0.224 18.224 0 18.5 0H28ZM1 16.691V10.309L7.382 13.5L1 16.691ZM8.724 13.053L0.724 9.053C0.569 8.975 0.384 8.983 0.237 9.075C0.09 9.166 0 9.327 0 9.5V17.5C0 17.673 0.09 17.834 0.237 17.925C0.317 17.975 0.408 18 0.5 18C0.576 18 0.653 17.982 0.724 17.947L8.724 13.947C8.893 13.862 9 13.689 9 13.5C9 13.311 8.893 13.138 8.724 13.053ZM4.5 27C2.57 27 1 25.43 1 23.5C1 21.57 2.57 20 4.5 20C6.43 20 8 21.57 8 23.5C8 25.43 6.43 27 4.5 27ZM4.5 19C2.019 19 0 21.019 0 23.5C0 25.981 2.019 28 4.5 28C6.981 28 9 25.981 9 23.5C9 21.019 6.981 19 4.5 19ZM1 7H7V1H1V7ZM0.5 8H7.5C7.776 8 8 7.776 8 7.5V0.5C8 0.224 7.776 0 7.5 0H0.5C0.224 0 0 0.224 0 0.5V7.5C0 7.776 0.224 8 0.5 8Z" fill="currentColor"/>
</svg>
