<?xml version="1.0" encoding="UTF-8" standalone="no"?>
<!-- Created with Inkscape (http://www.inkscape.org/) -->
<svg
   xmlns:dc="http://purl.org/dc/elements/1.1/"
   xmlns:cc="http://web.resource.org/cc/"
   xmlns:rdf="http://www.w3.org/1999/02/22-rdf-syntax-ns#"
   xmlns:svg="http://www.w3.org/2000/svg"
   xmlns="http://www.w3.org/2000/svg"
   xmlns:xlink="http://www.w3.org/1999/xlink"
   xmlns:sodipodi="http://inkscape.sourceforge.net/DTD/sodipodi-0.dtd"
   xmlns:inkscape="http://www.inkscape.org/namespaces/inkscape"
   width="32"
   height="32"
   id="svg1800"
   sodipodi:version="0.32"
   inkscape:version="0.43"
   sodipodi:docbase="/home/gabriev/Desktop/Linux/gtango/last/new emblems/sistemati"
   sodipodi:docname="ok.svg"
   version="1.0">
  <defs
     id="defs3">
    <linearGradient
       inkscape:collect="always"
       id="linearGradient3101">
      <stop
         style="stop-color:#000000;stop-opacity:1;"
         offset="0"
         id="stop3103" />
      <stop
         style="stop-color:#000000;stop-opacity:0;"
         offset="1"
         id="stop3105" />
    </linearGradient>
    <radialGradient
       inkscape:collect="always"
       xlink:href="#linearGradient3101"
       id="radialGradient3107"
       cx="17.3125"
       cy="25.53125"
       fx="17.3125"
       fy="25.53125"
       r="9.6875"
       gradientTransform="matrix(1,0,0,0.351613,9.933032e-15,16.55413)"
       gradientUnits="userSpaceOnUse" />
    <radialGradient
       gradientUnits="userSpaceOnUse"
       gradientTransform="matrix(1.000000,0.000000,0.000000,0.351613,1.292803e-15,16.55413)"
       r="9.6875"
       fy="25.53125"
       fx="17.3125"
       cy="25.53125"
       cx="17.3125"
       id="radialGradient1352"
       xlink:href="#linearGradient3101"
       inkscape:collect="always" />
    <radialGradient
       inkscape:collect="always"
       xlink:href="#linearGradient3101"
       id="radialGradient1366"
       gradientUnits="userSpaceOnUse"
       gradientTransform="matrix(1,0,0,0.351613,-1.211574e-14,16.55413)"
       cx="17.3125"
       cy="25.53125"
       fx="17.3125"
       fy="25.53125"
       r="9.6875" />
    <radialGradient
       gradientUnits="userSpaceOnUse"
       gradientTransform="matrix(1,0,0,0.351613,4.449133e-15,16.55413)"
       r="9.6875"
       fy="25.53125"
       fx="17.3125"
       cy="25.53125"
       cx="17.3125"
       id="radialGradient1337"
       xlink:href="#linearGradient3101"
       inkscape:collect="always" />
    <radialGradient
       gradientUnits="userSpaceOnUse"
       gradientTransform="matrix(1.000000,0.000000,0.000000,0.351613,1.292803e-15,16.55413)"
       r="9.6875"
       fy="25.53125"
       fx="17.3125"
       cy="25.53125"
       cx="17.3125"
       id="radialGradient1336"
       xlink:href="#linearGradient3101"
       inkscape:collect="always" />
  </defs>
  <sodipodi:namedview
     fill="#edd400"
     id="base"
     pagecolor="#ffffff"
     bordercolor="#666666"
     borderopacity="0.20392157"
     inkscape:pageopacity="0.0"
     inkscape:pageshadow="2"
     inkscape:zoom="1"
     inkscape:cx="15.007922"
     inkscape:cy="14.432424"
     inkscape:current-layer="layer1"
     showgrid="false"
     inkscape:grid-bbox="true"
     inkscape:document-units="px"
     inkscape:showpageshadow="false"
     inkscape:window-width="1014"
     inkscape:window-height="689"
     inkscape:window-x="0"
     inkscape:window-y="25"
     showborder="false" />
  <metadata
     id="metadata4">
    <rdf:RDF>
      <cc:Work
         rdf:about="">
        <dc:format>image/svg+xml</dc:format>
        <dc:type
           rdf:resource="http://purl.org/dc/dcmitype/StillImage" />
        <cc:license
           rdf:resource="http://creativecommons.org/licenses/by-sa/2.0/" />
        <dc:title>Emblem Generic</dc:title>
        <dc:creator>
          <cc:Agent>
            <dc:title>Sevenissimo</dc:title>
          </cc:Agent>
        </dc:creator>
        <dc:subject>
          <rdf:Bag>
            <rdf:li>emblem</rdf:li>
            <rdf:li>generic</rdf:li>
          </rdf:Bag>
        </dc:subject>
      </cc:Work>
      <cc:License
         rdf:about="http://creativecommons.org/licenses/by-sa/2.0/">
        <cc:permits
           rdf:resource="http://web.resource.org/cc/Reproduction" />
        <cc:permits
           rdf:resource="http://web.resource.org/cc/Distribution" />
        <cc:requires
           rdf:resource="http://web.resource.org/cc/Notice" />
        <cc:requires
           rdf:resource="http://web.resource.org/cc/Attribution" />
        <cc:permits
           rdf:resource="http://web.resource.org/cc/DerivativeWorks" />
        <cc:requires
           rdf:resource="http://web.resource.org/cc/ShareAlike" />
      </cc:License>
    </rdf:RDF>
  </metadata>
  <g
     id="layer1"
     inkscape:label="Layer 1"
     inkscape:groupmode="layer">
    <path
       sodipodi:type="arc"
       style="opacity:0.40909089;color:#000000;fill:url(#radialGradient1366);fill-opacity:1;fill-rule:nonzero;stroke:none;stroke-width:1.10533953;stroke-linecap:butt;stroke-linejoin:miter;marker:none;marker-start:none;marker-mid:none;marker-end:none;stroke-miterlimit:4;stroke-dasharray:none;stroke-dashoffset:0;stroke-opacity:1;visibility:visible;display:inline;overflow:visible"
       id="path1356"
       sodipodi:cx="17.3125"
       sodipodi:cy="25.53125"
       sodipodi:rx="9.6875"
       sodipodi:ry="3.40625"
       d="M 27 25.53125 A 9.6875 3.40625 0 1 1  7.625,25.53125 A 9.6875 3.40625 0 1 1  27 25.53125 z"
       transform="matrix(1.300509,0,0,1.300509,-6.353554,-6.633482)" />
    <path
       sodipodi:type="arc"
       style="fill:#3c75bd;fill-opacity:1;fill-rule:nonzero;stroke:#275490;stroke-width:3.48897117;stroke-linecap:round;stroke-linejoin:round;stroke-miterlimit:4;stroke-dasharray:none;stroke-dashoffset:0;stroke-opacity:1"
       id="path1358"
       sodipodi:cx="24.130018"
       sodipodi:cy="23.42804"
       sodipodi:rx="22.008699"
       sodipodi:ry="21.213203"
       d="M 46.138718 23.42804 A 22.008699 21.213203 0 1 1  2.1213188,23.42804 A 22.008699 21.213203 0 1 1  46.138718 23.42804 z"
       transform="matrix(0.56278,0,0,0.583884,2.587669,0.988302)" />
    <path
       sodipodi:type="arc"
       style="fill:none;fill-opacity:1;fill-rule:nonzero;stroke:#95b8e8;stroke-width:1.80277622;stroke-linecap:round;stroke-linejoin:round;stroke-miterlimit:4;stroke-dasharray:none;stroke-dashoffset:0;stroke-opacity:1"
       id="path1360"
       sodipodi:cx="24.130018"
       sodipodi:cy="23.42804"
       sodipodi:rx="22.008699"
       sodipodi:ry="21.213203"
       d="M 46.138718 23.42804 A 22.008699 21.213203 0 1 1  2.1213188,23.42804 A 22.008699 21.213203 0 1 1  46.138718 23.42804 z"
       transform="matrix(0.526783,0,0,0.546538,3.398713,1.8061)" />
    <path
       style="fill:#fffeff;fill-opacity:0.21390375;fill-rule:nonzero;stroke:none;stroke-width:1;stroke-linecap:round;stroke-linejoin:round;stroke-miterlimit:4;stroke-dashoffset:0;stroke-opacity:1"
       d="M 27.712547,14.11527 C 27.712547,20.567805 24.106858,11.549775 16.586736,14.345468 C 9.0070677,17.163298 4.333793,20.567805 4.333793,14.11527 C 4.333793,7.6627351 9.5706333,2.4258956 16.02317,2.4258956 C 22.475706,2.4258956 27.712547,7.6627351 27.712547,14.11527 z "
       id="path1364"
       sodipodi:nodetypes="czssc" />
    <path
       style="font-size:20.08316231px;font-style:normal;font-weight:normal;line-height:125%;opacity:1;fill:#ffffff;fill-opacity:1;stroke:none;stroke-width:1px;stroke-linecap:butt;stroke-linejoin:miter;stroke-opacity:1;font-family:Bitstream Vera Sans"
       d="M 10.455814,14.911526 C 9.9709869,15.154243 9.6975369,15.559651 9.6354647,16.127752 C 9.5710797,16.69125 9.7295879,17.35393 10.110989,18.115795 C 10.492388,18.877669 10.929094,19.403967 11.42111,19.69469 C 11.910811,19.980803 12.398075,20.002503 12.882904,19.759791 C 13.372344,19.514773 13.649259,19.110519 13.713647,18.547023 C 13.775715,17.978919 13.616052,17.313931 13.234657,16.552055 C 12.853253,15.790191 12.417702,15.266203 11.928002,14.980086 C 11.435985,14.689367 10.945257,14.666514 10.455814,14.911526 M 8.0816437,19.131705 C 7.4552247,17.880397 7.2826217,16.72816 7.5638357,15.674993 C 7.8473597,14.614913 8.5362817,13.810954 9.6306027,13.263116 C 10.729542,12.712986 11.785994,12.643193 12.799963,13.053735 C 13.81623,13.45737 14.637575,14.28484 15.264002,15.536144 C 15.890416,16.787465 16.061865,17.943165 15.778349,19.003249 C 15.497127,20.056413 14.80705,20.858063 13.708115,21.408201 C 12.61379,21.956031 11.558493,22.028133 10.542223,21.624506 C 9.5282567,21.213955 8.7080637,20.383022 8.0816437,19.131705 M 13.684103,7.6911987 L 15.713448,6.6752877 L 18.546209,12.333906 L 19.663163,8.4745847 L 22.121926,7.2437027 L 20.634582,11.608934 L 26.171497,14.917713 L 23.927443,16.041108 L 19.984282,13.476289 L 19.624531,14.48792 L 21.108524,17.452288 L 19.079178,18.468199 L 13.684103,7.6911987"
       id="text2187" />
  </g>
</svg>
