<svg width="28" height="28" viewBox="0 0 28 28" fill="none" xmlns="http://www.w3.org/2000/svg">
<path fill-rule="evenodd" clip-rule="evenodd" d="M6.854 13.1462C7.049 13.3412 7.049 13.6582 6.854 13.8532L3.354 17.3533L2.647 16.6462L5.293 14.0002H0V13.0002H5.293L2.647 10.3532L3.354 9.64625L6.854 13.1462ZM28 14.0002H22.708L25.354 16.6462L24.647 17.3533L21.147 13.8532C20.952 13.6582 20.952 13.3412 21.147 13.1462L24.647 9.64625L25.354 10.3532L22.708 13.0002H28V14.0002ZM17.647 23.6462L18.354 24.3533L14.854 27.8533C14.756 27.9513 14.628 28.0002 14.5 28.0002C14.373 28.0002 14.245 27.9513 14.147 27.8533L10.647 24.3533L11.354 23.6462L14 26.2922V22.0002H15V26.2922L17.647 23.6462ZM11.354 4.35325L10.647 3.64625L14.147 0.14625C14.342 -0.04875 14.659 -0.04875 14.854 0.14625L18.354 3.64625L17.647 4.35325L15 1.70725V6.00025H14V1.70725L11.354 4.35325ZM18 10.7933C17.524 10.6493 16.991 10.6862 16.494 10.9172C16.115 11.0952 15.809 11.3983 15.632 11.7723C15.317 12.4403 15.351 13.1643 15.726 13.7563C16.202 14.5073 17.169 14.8533 18 14.6003V17.0002H15.5C15.295 17.0002 15.112 17.1243 15.036 17.3143C14.96 17.5043 15.008 17.7222 15.157 17.8622C15.292 17.9922 15.717 18.4523 15.45 18.9513C15.379 19.0833 15.254 19.2602 15.06 19.3512C14.568 19.5812 14.198 19.4262 14.019 19.3132C13.731 19.1292 13.559 18.8172 13.559 18.4792C13.559 18.2242 13.634 18.0632 13.844 17.8622C13.993 17.7212 14.041 17.5043 13.965 17.3143C13.889 17.1243 13.706 17.0002 13.5 17.0002H10V9.50025C10 9.30725 10.274 9.00025 10.5 9.00025H18V10.7933ZM18.5 8.00025H10.5C9.744 8.00025 9 8.74325 9 9.50025V17.5002C9 17.7762 9.224 18.0002 9.5 18.0002H12.619C12.579 18.1502 12.559 18.3092 12.559 18.4792C12.559 19.1612 12.904 19.7882 13.482 20.1562C13.81 20.3653 14.178 20.4702 14.555 20.4702C14.864 20.4702 15.18 20.3992 15.485 20.2572C15.835 20.0922 16.128 19.8043 16.333 19.4223C16.57 18.9773 16.593 18.4732 16.422 18.0002H18.5C18.777 18.0002 19 17.7762 19 17.5002V13.7222C19 13.5182 18.876 13.3343 18.687 13.2583C18.498 13.1813 18.283 13.2282 18.14 13.3752C17.705 13.8292 16.902 13.7422 16.571 13.2222C16.46 13.0472 16.309 12.6823 16.537 12.1993C16.614 12.0363 16.75 11.9022 16.917 11.8232C17.368 11.6132 17.823 11.6853 18.14 12.0153C18.281 12.1623 18.498 12.2103 18.687 12.1333C18.876 12.0573 19 11.8732 19 11.6692V8.50025C19 8.22325 18.777 8.00025 18.5 8.00025Z" fill="currentColor"/>
</svg>
