<svg width="26" height="27" viewBox="0 0 26 27" fill="none" xmlns="http://www.w3.org/2000/svg">
<path fill-rule="evenodd" clip-rule="evenodd" d="M13.0004 20.957L1.65845 15.48L4.65545 14.058L12.7824 17.985C12.8524 18.019 12.9264 18.035 13.0004 18.035C13.0744 18.035 13.1484 18.019 13.2184 17.985L21.3444 14.059L24.3424 15.48L13.0004 20.957ZM24.2694 19.588L13.0004 25.049L1.73145 19.588L5.06845 18.238L12.7824 21.962C12.8524 21.996 12.9264 22.012 13.0004 22.012C13.0744 22.012 13.1484 21.996 13.2184 21.962L20.9324 18.238L24.2694 19.588ZM26.0007 15.475C25.9994 15.282 25.8894 15.107 25.7144 15.025L22.4994 13.5L25.7184 11.945C25.8914 11.861 26.0007 11.686 26.0007 11.495C26.0007 11.303 25.8914 11.128 25.7184 11.044L17.4534 7.05L17.4734 7.169C17.5274 7.496 17.4924 7.824 17.3904 8.131L24.3514 11.495L13.0004 16.98L1.64945 11.495L8.61145 8.13C8.50845 7.821 8.47345 7.492 8.52845 7.163L8.54845 7.05L0.28245 11.044C0.10945 11.128 0.000216165 11.303 0.000216165 11.495C0.000216165 11.686 0.10945 11.861 0.28245 11.945L3.50045 13.5L0.28645 15.025C0.11145 15.107 0.00144976 15.282 0.000216165 15.475C-0.000550235 15.667 0.10945 15.843 0.28245 15.927L3.85445 17.651L0.31245 19.084C0.12945 19.158 0.00744976 19.333 0.000216165 19.531C-0.00555024 19.728 0.10445 19.911 0.28245 19.997L12.7824 26.055C12.8514 26.088 12.9264 26.105 13.0004 26.105C13.0744 26.105 13.1494 26.088 13.2184 26.055L25.7184 19.997C25.8964 19.911 26.0064 19.728 26.0007 19.531C25.9934 19.333 25.8714 19.158 25.6884 19.084L22.1465 17.651L25.7184 15.927C25.8914 15.843 26.0014 15.667 26.0007 15.475ZM14.5535 4.301C14.5055 4.396 14.4894 4.503 14.5074 4.607L14.9094 7H11.0935L11.5055 4.597C11.5225 4.492 11.5074 4.383 11.4594 4.288L9.81145 1H16.1934L14.5535 4.301ZM17.4254 0.237C17.3344 0.09 17.1734 0 17.0004 0H9.00045C8.82645 0 8.66645 0.0899999 8.57445 0.238C8.48345 0.385 8.47645 0.57 8.55345 0.725L10.4915 4.589L10.0075 7.416C9.98245 7.561 10.0225 7.71 10.1185 7.823C10.2135 7.936 10.3535 8 10.5005 8H12.5005V12H13.5004V8H15.5004C15.6474 8 15.7874 7.936 15.8824 7.823C15.9774 7.711 16.0184 7.562 15.9934 7.417L15.5204 4.601L17.4474 0.723C17.5244 0.568 17.5174 0.384 17.4254 0.237Z" fill="#6A6A6A"/>
</svg>
