<svg width="27" height="28" viewBox="0 0 27 28" fill="none" xmlns="http://www.w3.org/2000/svg">
<path fill-rule="evenodd" clip-rule="evenodd" d="M23.5 21.0127H18V22.0109H23.5C24.879 22.0109 26 23.1309 26 24.5064C26 25.8819 24.879 27.0018 23.5 27.0018H3.5C2.121 27.0018 1 25.8819 1 24.5064C1 23.1309 2.121 22.0109 3.5 22.0109H8.992V21.0127H3.5C1.57 21.0127 0 22.5799 0 24.5064C0 26.4329 1.57 28 3.5 28H23.5C25.43 28 27 26.4329 27 24.5064C27 22.5799 25.43 21.0127 23.5 21.0127ZM5.5 7.03818C6.327 7.03818 7 6.3664 7 5.54091C7 4.71541 6.327 4.04363 5.5 4.04363C4.673 4.04363 4 4.71541 4 5.54091C4 6.3664 4.673 7.03818 5.5 7.03818ZM11 12.5282V25.0055H10V12.9374L5.402 12.0191C5.168 11.9722 5 11.7676 5 11.53V7.98546C3.86 7.75388 3 6.74571 3 5.54091C3 4.16541 4.121 3.04545 5.5 3.04545C6.879 3.04545 8 4.16541 8 5.54091C8 6.74571 7.14 7.75388 6 7.98546V11.1207L10.598 12.0391C10.832 12.086 11 12.2906 11 12.5282ZM15.1 2.49545C15.1 1.66996 14.427 0.998182 13.6 0.998182C12.772 0.998182 12.1 1.66996 12.1 2.49545C12.1 3.32095 12.772 3.99273 13.6 3.99273C14.427 3.99273 15.1 3.32095 15.1 2.49545ZM14 4.94998V22.0109H13V4.91006C11.911 4.64055 11.1 3.66433 11.1 2.49545C11.1 1.11896 12.221 0 13.6 0C14.979 0 16.1 1.11896 16.1 2.49545C16.1 3.7342 15.187 4.75733 14 4.94998ZM23 10.5318C23 9.70632 22.327 9.03454 21.5 9.03454C20.673 9.03454 20 9.70632 20 10.5318C20 11.3573 20.673 12.0291 21.5 12.0291C22.327 12.0291 23 11.3573 23 10.5318ZM24 10.5318C24 11.9073 22.879 13.0273 21.5 13.0273C20.292 13.0273 19.283 12.1688 19.051 11.0309H17V25.0055H16V10.5318C16 10.2563 16.224 10.0327 16.5 10.0327H19.051C19.283 8.8948 20.292 8.03636 21.5 8.03636C22.879 8.03636 24 9.15632 24 10.5318ZM19 25.0055H21V24.0073H19V25.0055ZM22 25.0055H24V24.0073H22V25.0055Z" fill="#6A6A6A"/>
</svg>
