<svg width="28" height="28" viewBox="0 0 28 28" fill="none" xmlns="http://www.w3.org/2000/svg">
<path fill-rule="evenodd" clip-rule="evenodd" d="M13 22H15V21H13V22ZM8 1.26213L1 4.30211V24.357L8 26.796V1.26213ZM9 7.0001V21H11V22H9V27.5C9 27.662 8.922 27.814 8.79 27.908C8.704 27.968 8.603 28 8.5 28C8.444 28 8.389 27.991 8.336 27.972L0.336 25.185C0.135 25.115 0 24.926 0 24.713V3.97411C0 3.77512 0.118 3.59512 0.301 3.51612L8.301 0.0421331C8.455 -0.0248666 8.634 -0.0098665 8.774 0.0821331C8.915 0.174133 9 0.332132 9 0.500131V6.0001H11V7.0001H9ZM27 4.30211L20 1.26213V6.0001V7.0001V21V22V26.796L27 24.357V4.30211ZM28 3.97411V24.713C28 24.926 27.865 25.115 27.664 25.185L19.664 27.972C19.611 27.991 19.556 28 19.5 28C19.397 28 19.296 27.968 19.21 27.908C19.078 27.814 19 27.662 19 27.5V22H17V21H19V7.0001H17V6.0001H19V0.500131C19 0.332132 19.085 0.174133 19.226 0.0821331C19.367 -0.0108665 19.546 -0.0258666 19.699 0.0421331L27.699 3.51612C27.882 3.59512 28 3.77512 28 3.97411ZM13 7.0001H15V6.0001H13V7.0001ZM17.975 9.65809L17.025 9.34209L14.025 18.342L14.975 18.658L17.975 9.65809ZM13.146 16.8541L10.146 13.8541C9.951 13.6581 9.951 13.3421 10.146 13.1461L13.146 10.1461L13.854 10.8541L11.207 13.5001L13.854 16.1461L13.146 16.8541Z" fill="#6A6A6A"/>
</svg>
