<svg width="26" height="27" viewBox="0 0 26 27" fill="none" xmlns="http://www.w3.org/2000/svg">
<path fill-rule="evenodd" clip-rule="evenodd" d="M8.259 10.285L12.259 6.285C12.454 6.09 12.771 6.09 12.966 6.285L16.966 10.285L16.259 10.992L12.613 7.346L8.966 10.992L8.259 10.285ZM12.966 12.285L16.966 16.285L16.259 16.992L12.613 13.346L8.966 16.992L8.259 16.285L12.259 12.285C12.454 12.09 12.771 12.09 12.966 12.285ZM16.966 13.285L16.259 13.992L12.613 10.346L8.966 13.992L8.259 13.285L12.259 9.285C12.454 9.09 12.771 9.09 12.966 9.285L16.966 13.285ZM19.728 21.31C19.236 21.803 18.438 21.801 17.946 21.31C17.454 20.819 17.454 20.019 17.946 19.528C18.192 19.282 18.514 19.16 18.836 19.16C19.159 19.16 19.482 19.283 19.728 19.528C20.219 20.019 20.219 20.819 19.728 21.31ZM13.504 25.332C13.012 25.823 12.213 25.823 11.721 25.332C11.483 25.094 11.352 24.777 11.352 24.441C11.352 24.104 11.483 23.787 11.721 23.55C11.967 23.304 12.289 23.181 12.613 23.181C12.936 23.181 13.258 23.304 13.504 23.55C13.742 23.787 13.873 24.104 13.873 24.441C13.873 24.777 13.742 25.094 13.504 25.332ZM5.432 21.313C4.941 20.822 4.941 20.022 5.432 19.531C5.678 19.285 6 19.162 6.323 19.162C6.646 19.162 6.968 19.285 7.214 19.531C7.705 20.022 7.705 20.822 7.214 21.313C6.721 21.806 5.923 21.804 5.432 21.313ZM17.238 18.821C16.489 19.569 16.384 20.713 16.906 21.581L14.34 22.999C14.296 22.948 14.26 22.891 14.211 22.843C13.33 21.961 11.895 21.961 11.014 22.843C10.975 22.882 10.946 22.928 10.909 22.97L8.336 21.427C8.757 20.581 8.624 19.528 7.921 18.824C7.041 17.944 5.607 17.943 4.725 18.824C3.844 19.705 3.844 21.139 4.725 22.02C5.165 22.461 5.744 22.681 6.322 22.681C6.808 22.681 7.289 22.516 7.693 22.206L10.439 23.853C10.388 24.043 10.352 24.238 10.352 24.441C10.352 25.044 10.587 25.612 11.014 26.039C11.454 26.48 12.033 26.7 12.613 26.7C13.192 26.7 13.771 26.48 14.211 26.039C14.638 25.612 14.873 25.044 14.873 24.441C14.873 24.251 14.842 24.068 14.797 23.889L17.628 22.325C17.996 22.558 18.415 22.679 18.836 22.679C19.415 22.679 19.994 22.458 20.435 22.017C21.317 21.136 21.317 19.702 20.435 18.821C19.553 17.939 18.118 17.94 17.238 18.821ZM22.672 17.156C21.977 17.156 21.411 16.591 21.411 15.896C21.411 15.201 21.977 14.635 22.672 14.635C23.366 14.635 23.932 15.201 23.932 15.896C23.932 16.591 23.366 17.156 22.672 17.156ZM21.704 7.346C21.704 6.65 22.27 6.085 22.964 6.085C23.659 6.085 24.225 6.65 24.225 7.346C24.225 8.04 23.659 8.606 22.964 8.606C22.27 8.606 21.704 8.04 21.704 7.346ZM15.807 4.097C15.112 4.097 14.546 3.531 14.546 2.836C14.546 2.141 15.112 1.576 15.807 1.576C16.501 1.576 17.067 2.141 17.067 2.836C17.067 3.531 16.501 4.097 15.807 4.097ZM23.613 13.847V9.5C24.541 9.219 25.225 8.365 25.225 7.346C25.225 6.099 24.21 5.085 22.964 5.085C22.382 5.085 21.857 5.312 21.456 5.674L17.947 3.525C18.019 3.307 18.067 3.078 18.067 2.836C18.067 1.59 17.053 0.576 15.807 0.576C14.561 0.576 13.546 1.59 13.546 2.836C13.546 4.082 14.561 5.097 15.807 5.097C16.451 5.097 17.03 4.822 17.443 4.388L20.874 6.49C20.767 6.755 20.704 7.043 20.704 7.346C20.704 8.471 21.534 9.4 22.613 9.57V13.641C21.395 13.674 20.411 14.67 20.411 15.896C20.411 17.142 21.426 18.156 22.672 18.156C23.918 18.156 24.932 17.142 24.932 15.896C24.932 14.986 24.389 14.205 23.613 13.847ZM2.553 17.156C1.859 17.156 1.293 16.591 1.293 15.896C1.293 15.201 1.859 14.635 2.553 14.635C3.248 14.635 3.814 15.201 3.814 15.896C3.814 16.591 3.248 17.156 2.553 17.156ZM1 7.346C1 6.65 1.566 6.085 2.261 6.085C2.955 6.085 3.521 6.65 3.521 7.346C3.521 8.04 2.955 8.606 2.261 8.606C1.566 8.606 1 8.04 1 7.346ZM9.397 1.5C10.092 1.5 10.657 2.066 10.657 2.761C10.657 3.455 10.092 4.021 9.397 4.021C8.702 4.021 8.137 3.455 8.137 2.761C8.137 2.066 8.702 1.5 9.397 1.5ZM4.814 15.896C4.814 14.67 3.83 13.674 2.613 13.641V9.57C3.691 9.4 4.521 8.472 4.521 7.346C4.521 7.043 4.458 6.754 4.351 6.49L7.806 4.364C8.215 4.769 8.777 5.021 9.397 5.021C10.643 5.021 11.657 4.007 11.657 2.761C11.657 1.514 10.643 0.5 9.397 0.5C8.151 0.5 7.137 1.514 7.137 2.761C7.137 3.027 7.192 3.279 7.277 3.516L3.769 5.674C3.368 5.312 2.843 5.085 2.261 5.085C1.015 5.085 0 6.099 0 7.346C0 8.365 0.684 9.219 1.613 9.5V13.847C0.836 14.205 0.293 14.986 0.293 15.896C0.293 17.142 1.307 18.156 2.553 18.156C3.799 18.156 4.814 17.142 4.814 15.896Z" fill="#6A6A6A"/>
</svg>
