<svg width="28" height="29" viewBox="0 0 28 29" fill="none" xmlns="http://www.w3.org/2000/svg">
<path fill-rule="evenodd" clip-rule="evenodd" d="M18 21.0722H27V7.07223H18V21.0722ZM17 21.0722V7.07223H15V9.07223H16V10.0722H15V13.0722H16V14.0722H15V17.0722H16V18.0722H15V21.0722H17ZM28 6.57223V21.5722C28 21.8482 27.776 22.0722 27.5 22.0722H14.5C14.224 22.0722 14 21.8482 14 21.5722V18.0722H13V17.0722H14V14.0722H13V13.0722H14V10.0722H13V9.07223H14V6.57223C14 6.29623 14.224 6.07223 14.5 6.07223H27.5C27.776 6.07223 28 6.29623 28 6.57223ZM14 23.0722H15V25.5722C15 25.7612 14.892 25.9342 14.724 26.0192L10.724 28.0192C10.653 28.0542 10.576 28.0722 10.5 28.0722C10.414 28.0722 10.329 28.0502 10.252 28.0062L3.252 24.0062C3.096 23.9172 3 23.7512 3 23.5722V18.9002L0.273 17.5182C0.105 17.4332 0 17.2602 0 17.0722V10.5722C0 10.4052 0.0840001 10.2492 0.223 10.1562L3 8.30423V4.07223C3 3.89023 3.1 3.72223 3.259 3.63423L9.745 0.0612264C9.885 -0.0137736 10.052 -0.0207736 10.195 0.0452264L14.709 2.11723C14.886 2.19923 15 2.37723 15 2.57223V5.07223H14V2.89323L10.007 1.05923L9 1.61323V6.07223H8V2.16423L4 4.36723V7.79523L7.478 9.96923L10 8.27823V6.07223H11V8.54523C11 8.71223 10.917 8.86723 10.778 8.96123L8 10.8222V13.0722H11V14.0722H7.5C7.224 14.0722 7 13.8482 7 13.5722V10.8492L3.879 8.89823C3.85 8.93223 3.815 8.96323 3.777 8.98823L1 10.8392V13.5782L4.199 11.1722L4.801 11.9712L1 14.8302V16.7652L3.726 18.1472C3.747 18.1572 3.756 18.1792 3.775 18.1922L6.18 16.1882L6.82 16.9562L4 19.3062V23.2822L6.655 24.7992L8 23.6992V18.0722H9V22.8802L11.684 20.6852L12.316 21.4592L7.585 25.3302L10.516 27.0052L14 25.2632V23.0722Z" fill="#6A6A6A"/>
</svg>
