<svg width="19" height="28" viewBox="0 0 19 28" fill="none" xmlns="http://www.w3.org/2000/svg">
<path fill-rule="evenodd" clip-rule="evenodd" d="M16.5 9C15.673 9 15 8.327 15 7.5C15 6.673 15.673 6 16.5 6C17.327 6 18 6.673 18 7.5C18 8.327 17.327 9 16.5 9ZM11.5 4C10.673 4 10 3.327 10 2.5C10 1.673 10.673 1 11.5 1C12.327 1 13 1.673 13 2.5C13 3.327 12.327 4 11.5 4ZM8.5 13C7.673 13 7 12.327 7 11.5C7 10.673 7.673 10 8.5 10C9.327 10 10 10.673 10 11.5C10 12.327 9.327 13 8.5 13ZM2.5 8C1.673 8 1 7.327 1 6.5C1 5.673 1.673 5 2.5 5C3.327 5 4 5.673 4 6.5C4 7.327 3.327 8 2.5 8ZM16.5 5C15.991 5 15.519 5.154 15.123 5.417L13.584 3.876C13.846 3.481 14 3.009 14 2.5C14 1.122 12.879 0 11.5 0C10.121 0 9 1.122 9 2.5C9 3.423 9.508 4.222 10.254 4.655L8.796 9.03C8.697 9.018 8.602 9 8.5 9C7.736 9 7.06 9.352 6.601 9.894L4.584 7.876C4.846 7.481 5 7.009 5 6.5C5 5.122 3.879 4 2.5 4C1.121 4 0 5.122 0 6.5C0 7.878 1.121 9 2.5 9C3.009 9 3.481 8.846 3.877 8.583L6.107 10.814C6.045 11.034 6 11.261 6 11.5C6 12.878 7.121 14 8.5 14C9.879 14 11 12.878 11 11.5C11 10.577 10.492 9.778 9.746 9.345L11.204 4.97C11.303 4.982 11.398 5 11.5 5C12.009 5 12.481 4.846 12.877 4.583L14.416 6.124C14.154 6.519 14 6.991 14 7.5C14 8.878 15.121 10 16.5 10C17.879 10 19 8.878 19 7.5C19 6.122 17.879 5 16.5 5ZM13.25 19H6.75L4.5 16H15.5L13.25 19ZM11.109 27H8.891L7.141 20H12.859L11.109 27ZM16.5 15H3.5C3.311 15 3.138 15.107 3.053 15.276C2.968 15.446 2.986 15.648 3.1 15.8L6.039 19.719L8.015 27.621C8.07 27.844 8.271 28 8.5 28H11.5C11.729 28 11.93 27.844 11.985 27.621L13.961 19.719L16.9 15.8C17.014 15.648 17.032 15.446 16.947 15.276C16.862 15.107 16.689 15 16.5 15Z" fill="#6A6A6A"/>
</svg>
