<svg width="28" height="16" viewBox="0 0 28 16" fill="none" xmlns="http://www.w3.org/2000/svg">
<path fill-rule="evenodd" clip-rule="evenodd" d="M22 9.99394V8.99394H17V9.99394H20.747L17 14.9939V15.9939H22V14.9939H18.25L22 9.99394ZM11.999 10.1789H13.307L15.128 7.51894L15.166 7.46494L14.568 6.62094L11.999 10.1789ZM9.929 5.24794L8.5 4.69994C8.038 4.52494 7.677 4.35994 7.427 4.20694C7.189 4.06094 7.016 3.89694 6.912 3.71894C6.809 3.54194 6.758 3.30494 6.758 3.01194C6.758 2.48494 6.926 2.09194 7.272 1.80994C7.617 1.52694 8.127 1.38394 8.788 1.38394C9.476 1.38394 10.279 1.54294 11.172 1.85894L11.298 1.90294V1.02794L11.242 1.00294C10.854 0.831937 10.438 0.696938 10.002 0.602938C9.567 0.508938 9.145 0.460938 8.747 0.460938C7.865 0.460938 7.141 0.699937 6.596 1.17194C6.047 1.64694 5.768 2.27494 5.768 3.03794C5.768 3.60194 5.938 4.08394 6.272 4.46894C6.601 4.84794 7.121 5.17794 7.819 5.44994L9.367 6.04994C9.887 6.24994 10.265 6.47594 10.494 6.72094C10.717 6.95994 10.829 7.25294 10.829 7.59194C10.829 8.16294 10.625 8.60194 10.204 8.93294C9.783 9.26494 9.208 9.43394 8.494 9.43394C7.724 9.43394 6.868 9.26494 5.948 8.93294L5.822 8.88694V9.75994L5.876 9.78594C6.66 10.1649 7.563 10.3569 8.56 10.3569C9.53 10.3569 10.327 10.1019 10.924 9.59994C11.527 9.09394 11.833 8.42294 11.833 7.60494C11.833 7.04294 11.677 6.56694 11.371 6.18994C11.068 5.81894 10.583 5.50194 9.929 5.24794ZM0 10.1299H0.976V5.82994H4.701V4.93394H0.976V1.58394H5.383V0.687938H0V10.1299ZM16.202 7.99394H17.554L16.206 6.07694L18.841 2.40294H17.548L15.493 5.33794L14.912 6.14494L16.202 7.99394ZM15.235 4.75294L13.589 2.40294H12.239L14.551 5.66294L15.235 4.75294ZM23 9.99394H26V8.99394H23V9.99394ZM23 15.9939H26V14.9939H23V15.9939ZM23 12.9939H28V11.9939H23V12.9939Z" fill="#6A6A6A"/>
</svg>
