<svg width="28" height="28" viewBox="0 0 28 28" fill="none" xmlns="http://www.w3.org/2000/svg">
<path fill-rule="evenodd" clip-rule="evenodd" d="M16.286 7.14433C15.172 7.30433 14.127 7.68633 13.18 8.27833L12.65 7.43033C13.716 6.76433 14.891 6.33433 16.143 6.15433L16.286 7.14433ZM12.326 8.89433C10.576 10.3423 9.517 12.4673 9.423 14.7243L8.423 14.6823C8.53 12.1433 9.721 9.75233 11.689 8.12433L12.326 8.89433ZM13.103 13.1603C12.837 13.8243 12.75 14.5523 12.852 15.2653L11.862 15.4073C11.735 14.5203 11.844 13.6153 12.176 12.7873L13.103 13.1603ZM12.649 11.8813C13.45 10.6653 14.736 9.84833 16.178 9.64133L16.32 10.6313C15.162 10.7973 14.129 11.4543 13.485 12.4313L12.649 11.8813ZM27.983 13.6953L26.985 13.6483C26.989 13.5563 26.986 13.1223 26.985 12.8583L26.984 12.6643C26.984 9.41733 24.213 8.60233 23.021 8.40133C22.887 8.37833 22.766 8.30233 22.69 8.18833C22.613 8.07533 22.587 7.93633 22.616 7.80233C22.615 6.41833 21.998 5.38533 20.923 5.02233C19.948 4.69533 18.83 5.03933 18.206 5.86033C18.095 6.00533 17.912 6.07833 17.733 6.05233C17.553 6.02533 17.401 5.90133 17.338 5.73033C16.924 4.59933 16.326 3.65033 15.564 2.91233C13.607 1.00833 10.933 0.491329 8.405 1.53233C6.305 2.39033 4.66 4.86533 4.66 7.16633L4.71 7.96433C4.724 8.20633 4.565 8.42333 4.331 8.48033C3.087 8.78833 1 9.73333 1 12.6203C1 14.7763 2.216 15.9753 3.236 16.6003C3.646 16.8533 3.952 16.9523 4.329 16.9523H12.978V17.9523H4.329C3.763 17.9523 3.279 17.8023 2.712 17.4523C1.7 16.8313 0 15.3773 0 12.6203C0 9.28133 2.328 8.05433 3.687 7.62333L3.661 7.19733C3.66 4.44333 5.537 1.62333 8.025 0.606329C10.933 -0.588671 14.01 0.0043292 16.261 2.19433C16.962 2.87433 17.538 3.70333 17.98 4.66533C18.881 3.93333 20.11 3.69433 21.242 4.07533C22.631 4.54233 23.497 5.80933 23.603 7.49833C25.022 7.82833 27.984 8.96133 27.984 12.6643L27.985 12.8533C27.9863 13.1343 27.988 13.5973 27.983 13.6953ZM21.397 26.0193H22.397C22.397 27.0733 21.54 27.9313 20.485 27.9313C19.431 27.9313 18.573 27.0733 18.573 26.0193H19.573C19.573 26.5213 19.982 26.9313 20.485 26.9313C20.988 26.9313 21.397 26.5213 21.397 26.0193ZM25.978 24.9363H14.978C14.427 24.9363 13.978 24.4883 13.978 23.9363C13.978 23.3853 14.427 22.9363 14.978 22.9363H25.978C26.53 22.9363 26.978 23.3853 26.978 23.9363C26.978 24.4883 26.53 24.9363 25.978 24.9363ZM19.062 13.1203C19.283 13.0623 19.436 12.8643 19.436 12.6363V11.2953C19.436 11.0003 19.587 10.7383 19.82 10.6273C20.134 10.4773 20.465 10.4853 20.727 10.6523C20.96 10.7983 21.098 11.0433 21.098 11.3063V12.5073C21.098 12.7423 21.262 12.9453 21.491 12.9953C23.529 13.4433 24.898 15.1893 24.898 17.3393V21.9363H15.919V17.2603C15.919 15.2743 17.182 13.6103 19.062 13.1203ZM25.978 21.9363H25.898V17.3393C25.898 14.8483 24.388 12.7983 22.098 12.1203V11.3063C22.098 10.6983 21.786 10.1373 21.262 9.80633C20.712 9.45933 20.013 9.42833 19.39 9.72433C18.81 9.99933 18.436 10.6173 18.436 11.2953V12.2643C16.317 12.9843 14.919 14.9453 14.919 17.2603V21.9423C13.845 21.9753 12.978 22.8543 12.978 23.9363C12.978 25.0403 13.876 25.9363 14.978 25.9363H25.978C27.081 25.9363 27.978 25.0403 27.978 23.9363C27.978 22.8333 27.081 21.9363 25.978 21.9363Z" fill="#6A6A6A"/>
</svg>
