<svg width="26" height="28" viewBox="0 0 26 28" fill="none" xmlns="http://www.w3.org/2000/svg">
<path fill-rule="evenodd" clip-rule="evenodd" d="M12.521 4.879C13.671 4.879 14.607 5.815 14.607 6.965C14.607 8.115 13.671 9.051 12.521 9.051C11.371 9.051 10.435 8.115 10.435 6.965C10.435 5.815 11.371 4.879 12.521 4.879ZM12.521 10.051C14.222 10.051 15.607 8.667 15.607 6.965C15.607 5.263 14.222 3.879 12.521 3.879C10.82 3.879 9.435 5.263 9.435 6.965C9.435 8.667 10.82 10.051 12.521 10.051ZM6.556 6.21L7.101 6.24C7.356 6.244 7.563 6.089 7.617 5.852C7.743 5.297 7.961 4.771 8.267 4.286C8.397 4.08 8.36 3.809 8.177 3.647L7.768 3.282L8.837 2.213L9.202 2.622C9.364 2.803 9.635 2.842 9.841 2.712C10.325 2.407 10.852 2.189 11.408 2.064C11.646 2.01 11.81 1.791 11.796 1.547L11.765 1H13.276L13.246 1.548C13.232 1.792 13.396 2.01 13.634 2.064C14.189 2.19 14.715 2.408 15.199 2.712C15.405 2.843 15.677 2.805 15.838 2.623L16.204 2.213L17.273 3.282L16.865 3.646C16.682 3.808 16.644 4.079 16.775 4.286C17.081 4.769 17.299 5.296 17.425 5.852C17.479 6.089 17.67 6.254 17.941 6.24L18.486 6.21V7.721L17.941 7.69C17.705 7.677 17.479 7.84 17.424 8.079C17.299 8.635 17.082 9.162 16.776 9.646C16.645 9.852 16.683 10.123 16.866 10.286L17.273 10.649L16.204 11.717L15.843 11.313C15.681 11.129 15.409 11.091 15.204 11.222C14.719 11.528 14.192 11.747 13.634 11.873C13.396 11.927 13.232 12.145 13.246 12.389L13.276 12.93H11.765L11.796 12.388C11.811 12.144 11.646 11.925 11.408 11.872C10.852 11.747 10.325 11.527 9.838 11.221C9.633 11.092 9.362 11.129 9.199 11.312L8.837 11.717L7.768 10.649L8.174 10.287C8.357 10.124 8.395 9.854 8.264 9.647C7.959 9.164 7.741 8.636 7.615 8.078C7.561 7.84 7.338 7.677 7.099 7.69L6.556 7.721V6.21ZM6.084 8.749L6.749 8.711C6.864 9.093 7.016 9.461 7.204 9.812L6.708 10.255C6.605 10.346 6.544 10.476 6.541 10.614C6.537 10.752 6.589 10.884 6.687 10.982L8.504 12.798C8.602 12.896 8.742 12.955 8.873 12.945C9.01 12.941 9.139 12.88 9.231 12.777L9.673 12.282C10.026 12.471 10.394 12.624 10.775 12.738L10.737 13.401C10.729 13.539 10.778 13.673 10.873 13.773C10.966 13.873 11.098 13.93 11.236 13.93H13.805C13.943 13.93 14.074 13.873 14.168 13.773C14.263 13.673 14.312 13.539 14.304 13.401L14.267 12.739C14.649 12.624 15.017 12.472 15.369 12.283L15.81 12.777C15.902 12.88 16.031 12.941 16.168 12.945C16.319 12.958 16.44 12.896 16.537 12.798L18.354 10.982C18.452 10.884 18.504 10.752 18.5 10.614C18.497 10.476 18.436 10.346 18.333 10.255L17.836 9.812C18.025 9.46 18.177 9.092 18.292 8.711L18.958 8.749C19.085 8.76 19.229 8.708 19.33 8.614C19.429 8.519 19.486 8.388 19.486 8.25V5.68C19.486 5.543 19.429 5.411 19.33 5.317C19.229 5.223 19.099 5.178 18.958 5.181L18.292 5.219C18.176 4.838 18.024 4.471 17.835 4.12L18.333 3.675C18.436 3.584 18.497 3.454 18.5 3.317C18.504 3.179 18.452 3.046 18.354 2.949L16.537 1.132C16.44 1.035 16.315 0.989 16.168 0.985C16.032 0.989 15.902 1.05 15.81 1.152L15.364 1.652C15.014 1.464 14.647 1.312 14.267 1.197L14.304 0.528C14.312 0.391 14.263 0.256 14.168 0.157C14.074 0.0570001 13.943 0 13.805 0H11.236C11.098 0 10.966 0.0570001 10.873 0.157C10.778 0.257 10.729 0.391 10.737 0.528L10.775 1.196C10.394 1.311 10.027 1.463 9.676 1.651L9.231 1.152C9.139 1.05 9.009 0.989 8.873 0.985C8.746 0.992 8.602 1.035 8.504 1.132L6.687 2.949C6.589 3.046 6.537 3.179 6.541 3.317C6.544 3.454 6.605 3.584 6.708 3.675L7.207 4.121C7.018 4.472 6.866 4.839 6.75 5.219L6.084 5.181C5.947 5.178 5.814 5.223 5.712 5.317C5.613 5.411 5.556 5.543 5.556 5.68V8.25C5.556 8.388 5.613 8.519 5.712 8.614C5.814 8.708 5.96 8.76 6.084 8.749ZM21.021 26.471H24.042V21.429H21.021V26.471ZM10.979 26.471H14.062V21.429H10.979V26.471ZM1 26.471H4.042V21.429H1V26.471ZM24.542 20.43H23.042V17.93C23.042 17.653 22.818 17.43 22.542 17.43H13.042V15.43H12.042V17.43H2.542C2.265 17.43 2.042 17.653 2.042 17.93V20.43H0.5C0.223 20.43 0 20.653 0 20.93V26.971C0 27.248 0.223 27.471 0.5 27.471H4.542C4.818 27.471 5.042 27.248 5.042 26.971V20.93C5.042 20.653 4.818 20.43 4.542 20.43H3.042V18.43H12.042V20.43H10.479C10.203 20.43 9.979 20.653 9.979 20.93V26.971C9.979 27.248 10.203 27.471 10.479 27.471H14.562C14.838 27.471 15.062 27.248 15.062 26.971V20.93C15.062 20.653 14.838 20.43 14.562 20.43H13.042V18.43H22.042V20.43H20.521C20.245 20.43 20.021 20.653 20.021 20.93V26.971C20.021 27.248 20.245 27.471 20.521 27.471H24.542C24.818 27.471 25.042 27.248 25.042 26.971V20.93C25.042 20.653 24.818 20.43 24.542 20.43Z" fill="#6A6A6A"/>
</svg>
