<svg width="24" height="28" viewBox="0 0 24 28" fill="none" xmlns="http://www.w3.org/2000/svg">
<path fill-rule="evenodd" clip-rule="evenodd" d="M15.772 4.785C15.772 5.336 16.22 5.785 16.772 5.785C17.324 5.785 17.772 5.336 17.772 4.785C17.772 4.234 17.324 3.785 16.772 3.785C16.22 3.785 15.772 4.234 15.772 4.785ZM14.772 4.785C14.772 3.682 15.669 2.785 16.772 2.785C17.875 2.785 18.772 3.682 18.772 4.785C18.772 5.888 17.875 6.785 16.772 6.785C15.669 6.785 14.772 5.888 14.772 4.785ZM23.544 15.936C23.544 22.428 18.263 27.708 11.772 27.708C5.281 27.708 0 22.428 0 15.936C0 12.713 1.277 9.705 3.596 7.466L11.398 0L12.089 0.723L4.29 8.187C2.168 10.234 1 12.987 1 15.936C1 21.876 5.832 26.708 11.772 26.708C17.712 26.708 22.544 21.876 22.544 15.936C22.544 12.957 21.355 10.185 19.196 8.131L19.885 7.406C22.245 9.651 23.544 12.681 23.544 15.936Z" fill="#6A6A6A"/>
</svg>
