<svg width="28" height="24" viewBox="0 0 28 24" fill="none" xmlns="http://www.w3.org/2000/svg">
<path fill-rule="evenodd" clip-rule="evenodd" d="M27 1H25.5C24.175 1 24.016 2.352 24 2.53V8H23V3H21V10H23.5C23.763 10 23.98 10.203 23.999 10.464C24.012 10.62 24.162 12 25.5 12H27V1ZM1 8H9V5H1V8ZM28 0.5V12.5C28 12.776 27.776 13 27.5 13H25.5C23.961 13 23.289 11.868 23.076 11H20.5H19V10H20V3H11.5C10.673 3 10 3.673 10 4.5V5V8V8.5C10 9.327 10.673 10 11.5 10H13V11H11.5C10.292 11 9.283 10.14 9.051 9H1V11H0V8.5V4.5V2H1V4H9.051C9.283 2.86 10.292 2 11.5 2H20.5H21H23.076C23.289 1.132 23.961 0 25.5 0H27.5C27.776 0 28 0.224 28 0.5ZM23.5 18H27V19H23.839L21.964 23.686C21.889 23.876 21.704 24 21.5 24H21.489C21.281 23.996 21.098 23.863 21.028 23.667L15.514 8.041L10.975 21.658C10.909 21.855 10.729 21.991 10.521 22C10.318 22.012 10.121 21.887 10.04 21.697L7.507 15.786L5.467 20.692C5.389 20.878 5.207 21 5.005 21H1V20H4.671L7.038 14.308C7.115 14.123 7.296 14.001 7.497 14H7.5C7.7 14 7.881 14.119 7.96 14.303L10.441 20.094L15.025 6.342C15.093 6.139 15.282 6.002 15.496 6C15.718 5.984 15.901 6.133 15.972 6.333L21.529 22.081L23.036 18.314C23.111 18.125 23.296 18 23.5 18Z" fill="#6A6A6A"/>
</svg>
