<svg width="27" height="26" viewBox="0 0 27 26" fill="none" xmlns="http://www.w3.org/2000/svg">
<path fill-rule="evenodd" clip-rule="evenodd" d="M3.84754 16.3403L6.0198 18.4125L6.73574 17.7139L4.56348 15.6417L3.84754 16.3403ZM8.91717 21.1765L11.0884 23.2488L11.8044 22.5502L9.63311 20.4779L8.91717 21.1765ZM21.1452 9.35316L23.2889 11.4529L24.015 10.7641L21.8713 8.66437L21.1452 9.35316ZM19.0137 5.86304L16.8699 3.76229L16.1438 4.45108L18.2875 6.55183L19.0137 5.86304ZM15.2394 22.5502L15.9554 23.2488L18.1266 21.1755L17.4107 20.4769L15.2394 22.5502ZM20.307 17.7129L21.023 18.4115L23.1952 16.3393L22.4793 15.6407L20.307 17.7129ZM5.19897 8.66929L3.04911 10.7632L3.7732 11.4549L5.92305 9.36102L5.19897 8.66929ZM10.9418 4.47466L10.2177 3.78293L8.0668 5.87778L8.79089 6.56952L10.9418 4.47466ZM16.0195 13.5802H13.9909V15.4373C14.4858 15.3439 14.9584 15.113 15.3413 14.7436C15.6794 14.4174 15.9045 14.0155 16.0195 13.5802ZM12.9725 15.4373V13.5802H10.9448C11.0579 14.0067 11.2758 14.4115 11.621 14.7436C12.004 15.113 12.4775 15.3439 12.9725 15.4373ZM10.8868 12.5976H12.9725V10.4605C12.4775 10.5539 12.004 10.7848 11.621 11.1542C11.2015 11.56 10.9621 12.07 10.8868 12.5976ZM13.9909 10.4605V12.5976H16.0766C15.9992 12.0543 15.7507 11.5492 15.3413 11.1542C14.9584 10.7858 14.4858 10.5539 13.9909 10.4605ZM22.3897 13.0909L19.9343 15.4058L19.2224 14.7033L20.414 13.5802H17.0665C16.9361 14.2798 16.5939 14.9254 16.0613 15.4383C15.4808 15.9993 14.7486 16.3187 13.9909 16.4208V19.8166L15.2415 18.6208L15.9584 19.3185L13.4745 21.6953L11.0813 19.3106L11.8125 18.6277L12.9725 19.7822V16.4208C12.2148 16.3187 11.4825 15.9993 10.901 15.4383C10.3572 14.9136 10.0242 14.2611 9.89688 13.5802H6.60029L7.85905 14.6915L7.17366 15.4176L4.52886 13.085L7.17773 10.8034L7.85599 11.5364L6.62372 12.5976H9.86938C9.94983 11.8175 10.2818 11.057 10.901 10.4595C11.4825 9.89849 12.2148 9.58014 12.9725 9.47697V6.40248L11.8298 7.55013L11.0955 6.86822L13.4715 4.4835L15.9727 6.85938L15.2588 7.55897L13.9909 6.35532V9.47697C14.7486 9.57915 15.4808 9.89849 16.0613 10.4595C16.6632 11.0402 17.0125 11.7919 17.095 12.5976H20.4191L19.2214 11.4588L19.9353 10.7582L22.3897 13.0909ZM12.3492 24.8769L13.5132 26L14.6783 24.8769L13.5132 23.7528L12.3492 24.8769ZM0 13.082L1.31985 14.3555L2.63971 13.082L1.31985 11.8076L0 13.082ZM25.7463 11.8715L24.4917 13.082L25.7463 14.2926L27 13.082L25.7463 11.8715ZM13.4817 2.42992L12.2229 1.21447L13.4817 0L14.7404 1.21447L13.4817 2.42992Z" fill="#6A6A6A"/>
</svg>
