<svg width="28" height="28" viewBox="0 0 28 28" fill="none" xmlns="http://www.w3.org/2000/svg">
<path fill-rule="evenodd" clip-rule="evenodd" d="M27.0008 21H24.5008C24.2248 21 24.0008 20.776 24.0008 20.5V18H21.0008V20.5C21.0008 20.776 20.7768 21 20.5008 21H18.0008V24H20.5008C20.7768 24 21.0008 24.224 21.0008 24.5V27H24.0008V24.5C24.0008 24.224 24.2248 24 24.5008 24H27.0008V21ZM28.0008 20.5V24.5C28.0008 24.776 27.7768 25 27.5008 25H25.0008V27.5C25.0008 27.776 24.7768 28 24.5008 28H20.5008C20.2248 28 20.0008 27.776 20.0008 27.5V25H17.5008C17.2248 25 17.0008 24.776 17.0008 24.5V20.5C17.0008 20.224 17.2248 20 17.5008 20H20.0008V17.5C20.0008 17.224 20.2248 17 20.5008 17H24.5008C24.7768 17 25.0008 17.224 25.0008 17.5V20H27.5008C27.7768 20 28.0008 20.224 28.0008 20.5ZM1.0968 3.986L5.0008 21.867V3.185L4.8758 3.208L1.0968 3.986ZM20.0008 1.174V4H23.1178L20.0008 1.174ZM6.0008 26H17.0008V27H5.5008C5.2618 27 5.0708 26.829 5.0218 26.604L5.0128 26.606L0.0117994 3.705C-0.0172006 3.574 0.0077994 3.438 0.0807994 3.326C0.152799 3.213 0.268799 3.135 0.398799 3.108L5.0008 2.177V0.5C5.0008 0.224 5.2248 0 5.5008 0H20.0008C20.1248 0 20.2448 0.046 20.3368 0.129L24.8368 4.208C24.9408 4.303 25.0008 4.438 25.0008 4.579V16H24.0008V5H19.5008C19.2248 5 19.0008 4.776 19.0008 4.5V1H6.0008V26ZM8.0008 19H16.0008V18H8.0008V19ZM8.0008 16H20.0008V15H8.0008V16ZM8.0008 7H17.0008V6H8.0008V7ZM8.0008 13H21.0008V12H8.0008V13ZM12.0008 10H21.0008V9H12.0008V10ZM8.0008 10H11.0008V9H8.0008V10Z" fill="#6A6A6A"/>
</svg>
