<svg width="27" height="27" viewBox="0 0 27 27" fill="none" xmlns="http://www.w3.org/2000/svg">
<path fill-rule="evenodd" clip-rule="evenodd" d="M24.921 8.83761C24.7341 8.91019 24.5422 8.94499 24.3354 8.94499C23.4147 8.94499 22.665 8.19535 22.665 7.2747C22.665 6.6901 22.9653 6.15819 23.4714 5.84998C23.7319 5.68793 24.0232 5.60541 24.3354 5.60541C25.2561 5.60541 26.0057 6.35405 26.0057 7.2747C26.0057 7.96668 25.5713 8.59303 24.921 8.83761ZM24.3354 4.61119C23.9954 4.61119 23.6712 4.69669 23.363 4.82097C23.0926 4.47498 22.8102 4.14092 22.5099 3.83669C20.1247 1.36208 16.9153 0 13.4722 0C10.0499 0 6.84843 1.35214 4.45824 3.80786L5.17112 4.50083C7.3724 2.23998 10.3204 0.994219 13.4722 0.994219C16.6428 0.994219 19.5978 2.24892 21.7971 4.53065C22.0496 4.78617 22.2743 5.07549 22.501 5.36083C21.98 5.85694 21.6708 6.535 21.6708 7.2747C21.6708 8.74415 22.8669 9.93921 24.3354 9.93921C24.6615 9.93921 24.9797 9.88055 25.274 9.76721C26.307 9.37946 27 8.37828 27 7.2747C27 5.80624 25.8049 4.61119 24.3354 4.61119ZM15.1385 24.4399C15.0829 25.3178 14.3521 26.0058 13.4722 26.0058C12.5932 26.0058 11.8615 25.3178 11.8078 24.4399C11.8068 24.428 11.8048 24.3474 11.8028 24.3355C11.8028 23.4148 12.5525 22.6652 13.4722 22.6652C14.3928 22.6652 15.1425 23.4148 15.1425 24.3355L15.1385 24.4399ZM24.9429 10.9772C25.0194 11.4912 25.0582 12.03 25.0582 12.5789C25.0582 17.6016 21.8577 22.0259 17.0863 23.5888C16.7721 23.6972 16.435 23.7857 16.089 23.8652C15.8663 22.6205 14.7806 21.671 13.4722 21.671C12.0036 21.671 10.8085 22.866 10.8085 24.3355C10.8085 24.4001 10.8105 24.4727 10.8145 24.5015C10.901 25.9024 12.0683 27 13.4722 27C14.7508 27 15.8236 26.0873 16.0711 24.8853C16.5365 24.7889 16.9878 24.6745 17.4025 24.5314C22.5766 22.8362 26.0525 18.0331 26.0525 12.5789C26.0525 11.9823 26.0107 11.3947 25.9282 10.832L24.9429 10.9772ZM2.66361 5.60541C2.95791 5.60541 3.24724 5.68395 3.50376 5.83606C4.02276 6.13731 4.33396 6.67519 4.33396 7.2747C4.33396 8.19535 3.58429 8.94499 2.66361 8.94499C2.44388 8.94499 2.23409 8.90422 2.03822 8.82469C1.40488 8.56519 0.994256 7.95773 0.994256 7.2747C0.994256 6.35405 1.74293 5.60541 2.66361 5.60541ZM1.88809 12.5789C1.88809 12.0201 1.92587 11.4753 2.00144 10.9573C2.05214 10.5934 2.14361 10.2464 2.22813 9.89745C2.37031 9.92131 2.51547 9.93921 2.66361 9.93921C4.13312 9.93921 5.32821 8.74415 5.32821 7.2747C5.32821 6.33119 4.82015 5.45031 4.00685 4.97805C3.60119 4.73745 3.13688 4.61119 2.66361 4.61119C1.1951 4.61119 0 5.80624 0 7.2747C0 8.21622 0.489174 9.06529 1.27364 9.54549C1.16825 9.96008 1.07877 10.3846 1.01712 10.8171C0.935594 11.3798 0.893836 11.9724 0.893836 12.5789C0.893836 18.0331 4.36876 22.8362 9.54187 24.5314L9.85108 23.5868C5.0886 22.0259 1.88809 17.6016 1.88809 12.5789ZM10.1315 18.7639V15.5277L13.0029 13.9012V17.1374L10.1315 18.7639ZM6.2648 13.9002L9.13721 15.5277V18.7639L6.2648 17.1374V13.9002ZM9.63433 11.4295L12.4908 13.0481L9.63433 14.6657L6.77684 13.0481L9.63433 11.4295ZM10.1315 7.33236L13.0029 8.95891V12.1951L10.1315 10.5685V7.33236ZM13.5 4.86074L16.3565 6.47932L13.5 8.09791L10.6435 6.47932L13.5 4.86074ZM16.8675 10.5685L13.9971 12.1951V8.95891L16.8675 7.33236V10.5685ZM20.2222 13.0481L17.3647 14.6657L14.5082 13.0481L17.3647 11.4295L20.2222 13.0481ZM20.7342 17.1374L17.8618 18.7639V15.5277L20.7342 13.9012V17.1374ZM16.8675 18.7639L13.9971 17.1374V13.9012L16.8675 15.5277V18.7639ZM17.1201 20.0494C17.1956 20.0922 17.2802 20.114 17.3647 20.114C17.4492 20.114 17.5337 20.0922 17.6093 20.0494L21.4759 17.8601C21.632 17.7717 21.7285 17.6066 21.7285 17.4277V13.0481C21.7285 12.8692 21.632 12.7041 21.4759 12.6156L17.8618 10.5685V6.47932C17.8618 6.30036 17.7663 6.13532 17.6093 6.04684L13.7446 3.85757C13.5925 3.77107 13.4065 3.77107 13.2554 3.85757L9.38975 6.04684C9.23365 6.13532 9.13721 6.30036 9.13721 6.47932V10.5685L5.52309 12.6156C5.36699 12.7041 5.27055 12.8692 5.27055 13.0481V17.4277C5.27055 17.6066 5.36699 17.7717 5.52309 17.8601L9.38975 20.0494C9.54087 20.1359 9.72779 20.1359 9.87892 20.0494L13.5 17.9983L17.1201 20.0494Z" fill="#6A6A6A"/>
</svg>
