<svg width="25" height="28" viewBox="0 0 25 28" fill="none" xmlns="http://www.w3.org/2000/svg">
<path fill-rule="evenodd" clip-rule="evenodd" d="M17.1324 19.6956L17.6391 20.5599L15.5861 21.7627L15.0793 20.8984L17.1324 19.6956ZM7.71342 19.6796L9.78448 20.8493L9.29175 21.7216L7.22069 20.5519L7.71342 19.6796ZM17.1324 8.07529L15.0793 6.8735L15.5861 6.00821L17.6391 7.211L17.1324 8.07529ZM7.71342 8.09232L7.22069 7.21902L9.29175 6.04927L9.78448 6.92157L7.71342 8.09232ZM20.0467 14.9746H21.0482V12.9976H20.0467V14.9746ZM4.00092 14.9746H5.0024V13.0096H4.00092V14.9746ZM23.9985 20.4568L12.5416 26.9244L1.00148 20.4558V7.5435L12.5416 1.07485L23.9985 7.5425V20.4568ZM24.7466 6.81441L12.7889 0.0643481C12.6377 -0.0207788 12.4494 -0.0217802 12.2982 0.0633467L0.255378 6.81341C0.0971436 6.90254 0 7.06879 0 7.25006V20.7492C0 20.9305 0.0971436 21.0967 0.255378 21.1858L12.2982 27.9359C12.3733 27.978 12.4584 28 12.5426 28C12.6277 28 12.7128 27.978 12.7889 27.9349L24.7466 21.1848C24.9039 21.0957 25 20.9295 25 20.7492V7.25006C25 7.06979 24.9039 6.90355 24.7466 6.81441ZM4.63386 19.4052C4.11209 19.4052 3.68846 18.9806 3.68846 18.4598C3.68846 17.938 4.11209 17.5144 4.63386 17.5144C5.15463 17.5144 5.57926 17.938 5.57926 18.4598C5.57926 18.9806 5.15463 19.4052 4.63386 19.4052ZM4.63386 16.5129C3.56027 16.5129 2.68698 17.3862 2.68698 18.4598C2.68698 19.5334 3.56027 20.4067 4.63386 20.4067C5.70745 20.4067 6.58074 19.5334 6.58074 18.4598C6.58074 17.3862 5.70745 16.5129 4.63386 16.5129ZM20.3381 19.4052C19.8173 19.4052 19.3927 18.9806 19.3927 18.4598C19.3927 17.938 19.8173 17.5144 20.3381 17.5144C20.8599 17.5144 21.2845 17.938 21.2845 18.4598C21.2845 18.9806 20.8599 19.4052 20.3381 19.4052ZM20.3381 16.5129C19.2645 16.5129 18.3912 17.3862 18.3912 18.4598C18.3912 19.5334 19.2645 20.4067 20.3381 20.4067C21.4117 20.4067 22.286 19.5334 22.286 18.4598C22.286 17.3862 21.4117 16.5129 20.3381 16.5129ZM13.4319 4.8585C13.4319 5.37927 13.0073 5.8029 12.4855 5.8029C11.9647 5.8029 11.5411 5.37927 11.5411 4.8585C11.5411 4.33672 11.9647 3.91209 12.4855 3.91209C13.0073 3.91209 13.4319 4.33672 13.4319 4.8585ZM10.5396 4.8585C10.5396 5.9311 11.4129 6.8044 12.4855 6.8044C13.5601 6.8044 14.4334 5.9311 14.4334 4.8585C14.4334 3.78389 13.5601 2.91059 12.4855 2.91059C11.4129 2.91059 10.5396 3.78389 10.5396 4.8585ZM20.3381 8.44685C20.8599 8.44685 21.2845 8.87048 21.2845 9.39226C21.2845 9.91303 20.8599 10.3377 20.3381 10.3377C19.8173 10.3377 19.3927 9.91303 19.3927 9.39226C19.3927 8.87048 19.8173 8.44685 20.3381 8.44685ZM12.4855 14.8885C11.9647 14.8885 11.5411 14.4638 11.5411 13.943C11.5411 13.4213 11.9647 12.9976 12.4855 12.9976C13.0073 12.9976 13.4319 13.4213 13.4319 13.943C13.4319 14.4638 13.0073 14.8885 12.4855 14.8885ZM13.4319 22.9925C13.4319 23.5133 13.0073 23.9379 12.4855 23.9379C11.9647 23.9379 11.5411 23.5133 11.5411 22.9925C11.5411 22.4708 11.9647 22.0471 12.4855 22.0471C13.0073 22.0471 13.4319 22.4708 13.4319 22.9925ZM4.63386 10.3377C4.11209 10.3377 3.68846 9.91303 3.68846 9.39226C3.68846 8.87048 4.11209 8.44685 4.63386 8.44685C5.15463 8.44685 5.57926 8.87048 5.57926 9.39226C5.57926 9.91303 5.15463 10.3377 4.63386 10.3377ZM13.7894 12.5069C13.4429 12.1924 12.9882 11.9961 12.4855 11.9961C11.9577 11.9961 11.478 12.2095 11.1275 12.553L6.51264 9.87498C6.5527 9.71974 6.58074 9.55951 6.58074 9.39226C6.58074 8.31866 5.70745 7.44535 4.63386 7.44535C3.56027 7.44535 2.68698 8.31866 2.68698 9.39226C2.68698 10.4659 3.56027 11.3392 4.63386 11.3392C5.17866 11.3392 5.67139 11.1128 6.02492 10.7503L10.6207 13.4173C10.5736 13.5855 10.5396 13.7598 10.5396 13.943C10.5396 14.8634 11.1836 15.6316 12.0418 15.8349V21.1007C11.1836 21.303 10.5396 22.0722 10.5396 22.9925C10.5396 24.0661 11.4129 24.9394 12.4855 24.9394C13.5601 24.9394 14.4334 24.0661 14.4334 22.9925C14.4334 22.1142 13.8445 21.3781 13.0433 21.1358V15.7988C13.8445 15.5574 14.4334 14.8214 14.4334 13.943C14.4334 13.7347 14.3923 13.5384 14.3312 13.3502L18.906 10.7022C19.2635 11.0908 19.7703 11.3392 20.3381 11.3392C21.4117 11.3392 22.286 10.4659 22.286 9.39226C22.286 8.31866 21.4117 7.44535 20.3381 7.44535C19.2645 7.44535 18.3912 8.31866 18.3912 9.39226C18.3912 9.53747 18.4092 9.67868 18.4413 9.81589L13.7894 12.5069Z" fill="#6A6A6A"/>
</svg>
