<svg width="28" height="28" viewBox="0 0 28 28" fill="none" xmlns="http://www.w3.org/2000/svg">
<path fill-rule="evenodd" clip-rule="evenodd" d="M11.496 7.98787C12.323 7.98787 12.996 7.31488 12.996 6.48787C12.996 5.66087 12.323 4.98787 11.496 4.98787C10.669 4.98787 9.996 5.66087 9.996 6.48787C9.996 7.31488 10.669 7.98787 11.496 7.98787ZM11.496 8.98787C10.117 8.98787 8.996 7.86588 8.996 6.48787C8.996 5.10987 10.117 3.98787 11.496 3.98787C12.875 3.98787 13.996 5.10987 13.996 6.48787C13.996 7.86588 12.875 8.98787 11.496 8.98787ZM5.996 13.4879H6.996C6.996 12.6609 7.669 11.9879 8.496 11.9879C9.323 11.9879 9.996 12.6609 9.996 13.4879H10.996C10.996 12.1099 9.875 10.9879 8.496 10.9879C7.117 10.9879 5.996 12.1099 5.996 13.4879ZM16.35 14.3419L17.996 12.6949L19.642 14.3419L20.35 13.6339L18.703 11.9879L20.35 10.3419L19.642 9.63387L17.996 11.2809L16.35 9.63387L15.642 10.3419L17.289 11.9879L15.642 13.6339L16.35 14.3419ZM6.996 15.9879V22.9159C8.535 22.5209 9.996 20.4549 9.996 19.4879V15.9879H6.996ZM9.996 21.8759C9.243 22.8709 8.149 23.7369 6.996 23.9389V24.4879C6.996 26.0309 7.247 26.9879 8.496 26.9879C9.745 26.9879 9.996 26.0309 9.996 24.4879V21.8759ZM4.996 14.9879H11.996V15.9879H10.996V24.4879C10.996 25.4449 10.996 27.9879 8.496 27.9879C5.996 27.9879 5.996 25.4449 5.996 24.4879V15.9879H4.996V14.9879ZM27.5 12.7949C27.5 17.5769 22.734 17.9829 22.686 17.9869L12.996 17.9879V16.9879H22.649C22.77 16.9769 26.5 16.6389 26.5 12.7949C26.5 9.48588 23.54 8.71788 22.633 8.56188C22.362 8.51588 22.18 8.25888 22.225 7.98787C22.226 6.56387 21.624 5.53188 20.573 5.18688C19.646 4.88388 18.623 5.21788 18.028 6.02388C17.919 6.17388 17.739 6.24688 17.552 6.22188C17.369 6.19488 17.216 6.06888 17.154 5.89388C16.761 4.77488 16.188 3.83288 15.455 3.09388C14.555 2.18888 12.088 0.242875 8.604 1.72388C6.592 2.57888 5.015 5.04287 5.015 7.33187L5.061 8.12388C5.075 8.36288 4.919 8.57788 4.686 8.63688C3.497 8.94288 1.5 9.88388 1.5 12.7549C1.5 14.9069 2.665 16.0939 3.642 16.7109C3.973 16.9199 4.213 16.9879 4.628 16.9879L4.626 17.9879C4.024 17.9879 3.599 17.8659 3.108 17.5569C2.134 16.9419 0.5 15.5009 0.5 12.7549C0.5 9.44488 2.73 8.21888 4.04 7.78588L4.016 7.36188C4.015 4.62688 5.82 1.82088 8.214 0.803875C11.019 -0.388125 13.991 0.203875 16.164 2.38887C16.834 3.06387 17.383 3.87888 17.803 4.82088C18.658 4.12088 19.811 3.88388 20.886 4.23688C22.258 4.68788 23.112 5.95488 23.216 7.66088C25.358 8.16488 27.5 9.74088 27.5 12.7949Z" fill="#6A6A6A"/>
</svg>
