<svg width="26" height="24" viewBox="0 0 26 24" fill="none" xmlns="http://www.w3.org/2000/svg">
<path fill-rule="evenodd" clip-rule="evenodd" d="M24.5002 23H23.5353C23.3083 23 23.0183 22.72 23.0183 22.5V21.047H25.0001V22.5C25.0001 22.724 24.7251 23 24.5002 23ZM4.02054 21.029H22.0185V20H4.02054V21.029ZM2.44372 23H1.53782C1.19586 23 0.999885 22.818 0.999885 22.5V21.042H3.02065V22.5C3.02065 22.74 2.79968 23 2.44372 23ZM1.54182 8H2.52071C2.74468 8 3.02065 8.276 3.02065 8.5V10H0.999885V8.5C0.999885 8.285 1.30885 8 1.54182 8ZM4.02054 11H22.0185V10.016H4.02054V11ZM12.0086 6H13.9874L13.9864 9.016H12.0076L12.0086 6ZM9.4899 5C9.30193 5 9.12695 5.11 9.04196 5.279C9.02696 5.307 8.686 5.971 8.01608 5.971C7.11118 5.971 7.01419 4.937 7.01419 4.492C7.01419 2.979 7.71611 2.979 8.01608 2.979C8.677 2.979 9.02596 3.668 9.03896 3.695C9.12195 3.869 9.29793 3.979 9.4899 3.979H16.4541C16.6321 3.979 16.7971 3.884 16.8861 3.73C16.8911 3.723 17.341 2.982 18.0219 2.982C18.2679 2.982 19.0128 2.982 19.0128 4.518C19.0128 5.498 18.6798 5.994 18.0219 5.994C17.34 5.994 16.8891 5.253 16.8861 5.248C16.7961 5.094 16.6321 5 16.4541 5H9.4899ZM12.0346 2.516C12.0346 1.991 12.2406 1 13.0195 1C13.7854 1 13.9894 1.943 13.9894 2.5V2.979H12.0346V2.516ZM23.0183 20.047H25.0001V11H23.0183V20.047ZM4.02054 19H22.0185V12H4.02054V19ZM0.999885 20.042H3.02065V11H0.999885V20.042ZM23.5183 8H24.4712C24.6991 8 25.0001 8.314 25.0001 8.5V10H23.0183V8.5C23.0183 8.31 23.2973 8 23.5183 8ZM24.4712 7H23.5183C22.7614 7 22.0185 7.743 22.0185 8.5V9.016H14.9863L14.9873 6H16.1951C16.4801 6.363 17.105 6.994 18.0219 6.994C19.2688 6.994 20.0127 6.068 20.0127 4.518C20.0127 2.93 19.2688 1.982 18.0219 1.982C17.105 1.982 16.4791 2.615 16.1941 2.979H14.9893V2.5C14.9893 1.028 14.1794 0 13.0195 0C11.8516 0 11.0347 1.035 11.0347 2.516V2.979H9.77087C9.5079 2.6 8.93697 1.979 8.01608 1.979C7.41414 1.979 6.01431 2.224 6.01431 4.492C6.01431 5.998 6.80022 6.971 8.01608 6.971C8.93697 6.971 9.5049 6.37 9.76787 6H11.0087L11.0077 9.016H4.02054V8.5C4.02054 7.729 3.29162 7 2.52071 7H1.54182C0.748914 7 0 7.729 0 8.5V22.5C0 23.369 0.646926 24 1.53782 24H2.44372C3.31362 24 4.02054 23.327 4.02054 22.5V22.029H22.0185V22.5C22.0185 23.271 22.7554 24 23.5353 24H24.5002C25.2711 24 26 23.271 26 22.5V8.5C26 7.743 25.2421 7 24.4712 7Z" fill="#6A6A6A"/>
</svg>
