<svg width="28" height="15" viewBox="0 0 28 15" fill="none" xmlns="http://www.w3.org/2000/svg">
<path fill-rule="evenodd" clip-rule="evenodd" d="M21.537 9.267L17.989 14.182H19.589L22.258 10.284L21.537 9.267ZM26.313 14.182H28L23.806 8.216L27.625 2.891H26.047L23.028 7.201L22.221 8.319L26.313 14.182ZM22.358 6.245L20.01 2.891H18.344L21.517 7.364L22.358 6.245ZM11.545 7.154C10.525 6.756 9.777 6.283 9.3 5.733C8.823 5.183 8.585 4.504 8.585 3.696C8.585 2.597 8.978 1.706 9.766 1.023C10.555 0.341 11.592 0 12.877 0C13.46 0 14.072 0.0700002 14.715 0.208C15.357 0.348 15.963 0.543 16.533 0.795V1.808C15.182 1.331 13.982 1.093 12.936 1.093C11.916 1.093 11.135 1.315 10.592 1.759C10.048 2.203 9.777 2.835 9.777 3.656C9.777 4.12 9.859 4.494 10.025 4.779C10.19 5.064 10.463 5.322 10.84 5.554C11.218 5.786 11.757 6.034 12.459 6.299L14.586 7.114C15.539 7.485 16.235 7.938 16.672 8.475C17.109 9.012 17.328 9.684 17.328 10.492C17.328 11.671 16.893 12.625 16.026 13.353C15.158 14.082 14.016 14.446 12.599 14.446C11.128 14.446 9.816 14.168 8.664 13.612V12.598C10.055 13.102 11.333 13.353 12.499 13.353C13.599 13.353 14.476 13.095 15.132 12.578C15.788 12.061 16.115 11.36 16.115 10.472C16.115 9.929 15.936 9.465 15.579 9.081C15.222 8.697 14.645 8.352 13.85 8.048L11.545 7.154ZM0 14.108V0.338H7.729V1.391H1.172V6.657H6.717V7.71H1.172V14.108H0Z" fill="#6A6A6A"/>
</svg>
