<svg width="23" height="27" viewBox="0 0 23 27" fill="none" xmlns="http://www.w3.org/2000/svg">
<path fill-rule="evenodd" clip-rule="evenodd" d="M22 10.309L19.5 9.059L17 10.309V13.691L19.5 14.941L22 13.691V10.309ZM14 5.309L11.5 4.059L9 5.309V8.691L11.5 9.941L14 8.691V5.309ZM6 10.309L3.5 9.059L1 10.309V13.691L3.5 14.941L6 13.691V10.309ZM23 10V14C23 14.189 22.893 14.362 22.724 14.447L19.724 15.947C19.653 15.982 19.576 16 19.5 16C19.424 16 19.347 15.982 19.276 15.947L16.276 14.447C16.107 14.362 16 14.189 16 14V10.309L14.5 9.559L11.724 10.947C11.583 11.017 11.417 11.017 11.276 10.947L8.5 9.559L7 10.309V14C7 14.189 6.893 14.362 6.724 14.447L3.724 15.947C3.583 16.017 3.417 16.017 3.276 15.947L0.276 14.447C0.107 14.362 0 14.189 0 14V10C0 9.81 0.107 9.638 0.276 9.553L3.276 8.053C3.417 7.982 3.583 7.982 3.724 8.053L6.5 9.441L8 8.691V5C8 4.81 8.107 4.638 8.276 4.553L11.276 3.053C11.417 2.982 11.583 2.982 11.724 3.053L14.724 4.553C14.893 4.638 15 4.81 15 5V8.691L16.5 9.441L19.276 8.053C19.417 7.982 19.583 7.982 19.724 8.053L22.724 9.553C22.893 9.638 23 9.81 23 10ZM9.257 21.571L8.743 22.429L11.243 23.929C11.322 23.976 11.411 24 11.5 24C11.589 24 11.678 23.976 11.757 23.929L14.257 22.429L13.743 21.571L12 22.617V14.383L13.743 15.429L14.257 14.571L11.757 13.071C11.599 12.976 11.401 12.976 11.243 13.071L8.743 14.571L9.257 15.429L11 14.383V22.617L9.257 21.571ZM3.481 5.611L5.2 6.9C5.351 7.014 5.556 7.032 5.724 6.947C5.893 6.862 6 6.689 6 6.5V3.809L11.495 1.059L17.021 3.809V6.5C17.021 6.69 17.128 6.863 17.298 6.948C17.467 7.033 17.672 7.013 17.822 6.898L19.521 5.612L22.226 7.392L22.774 6.557L19.774 4.582C19.6 4.466 19.368 4.474 19.198 4.601L18.021 5.494V3.5C18.021 3.31 17.913 3.137 17.743 3.052L11.717 0.0520027C11.575 -0.0179973 11.41 -0.0169974 11.271 0.0530026L5.276 3.053C5.106 3.138 5 3.31 5 3.5V5.5L3.8 4.6C3.63 4.473 3.4 4.467 3.226 4.582L0.226 6.557L0.774 7.392L3.481 5.611ZM22.5001 19.959C22.503 20.135 22.413 20.299 22.264 20.392L11.764 26.924C11.684 26.975 11.592 27 11.5 27C11.408 27 11.316 26.975 11.236 26.925L0.725 20.392C0.575 20.299 0.485 20.134 0.487927 19.958C0.491 19.783 0.587 19.621 0.739 19.534L6.763 16.066L7.261 16.934L1.962 19.983L11.5 25.911L21.028 19.983L15.75 16.933L16.25 16.067L22.25 19.534C22.402 19.622 22.497 19.784 22.5001 19.959Z" fill="#6A6A6A"/>
</svg>
