<svg width="28" height="28" viewBox="0 0 28 28" fill="none" xmlns="http://www.w3.org/2000/svg">
<path fill-rule="evenodd" clip-rule="evenodd" d="M15.75 15.131L16.25 15.996C18.563 14.659 20 12.17 20 9.5C20 5.364 16.636 2 12.5 2C8.364 2 5 5.364 5 9.5C5 12.17 6.437 14.659 8.75 15.996L9.25 15.131C7.245 13.971 6 11.814 6 9.5C6 5.916 8.916 3 12.5 3C16.084 3 19 5.916 19 9.5C19 11.814 17.755 13.971 15.75 15.131ZM20.563 14.523C20.117 15.239 19.578 15.896 18.951 16.474L24.51 20.967C25.036 21.381 25.709 21.024 26.109 20.514C26.529 19.984 26.689 19.236 26.184 18.837L20.563 14.523ZM3 9.5C3 4.262 7.262 0 12.5 0C17.738 0 22 4.262 22 9.5C22 10.964 21.652 12.365 21.042 13.63L26.798 18.048C27.689 18.753 27.729 20.078 26.895 21.134C26.371 21.797 25.685 22.148 25.023 22.148C24.62 22.148 24.227 22.017 23.886 21.748L18.159 17.119C17.749 17.423 17.32 17.705 16.856 17.945L16.397 17.056C17.821 16.32 18.974 15.225 19.77 13.914L19.765 13.91L19.785 13.884C20.565 12.587 21 11.081 21 9.5C21 4.813 17.187 1 12.5 1C7.813 1 4 4.813 4 9.5C4 12.926 6.039 16.001 9.194 17.334L8.806 18.255C5.278 16.765 3 13.329 3 9.5ZM1 27V0H0V28H28V27H1ZM2.938 24.739L2.062 24.261L5.062 18.761C5.146 18.604 5.309 18.505 5.487 18.5C5.643 18.499 5.833 18.587 5.926 18.738L9.227 24.101L12.007 7.418C12.046 7.182 12.247 7.006 12.486 7H12.5C12.733 7 12.937 7.162 12.988 7.392L16.79 24.503L19.146 22.147C19.342 21.951 19.658 21.951 19.854 22.147L22.5 24.793L24.146 23.147L24.854 23.854L22.854 25.854C22.658 26.049 22.342 26.049 22.146 25.854L19.5 23.207L16.854 25.854C16.725 25.982 16.534 26.03 16.36 25.98C16.185 25.929 16.052 25.787 16.012 25.609L12.57 10.121L9.993 25.582C9.959 25.788 9.801 25.951 9.596 25.991C9.563 25.997 9.532 26 9.5 26C9.328 26 9.166 25.912 9.074 25.762L5.526 19.997L2.938 24.739Z" fill="#6A6A6A"/>
</svg>
