<svg width="28" height="28" viewBox="0 0 28 28" fill="none" xmlns="http://www.w3.org/2000/svg">
<path fill-rule="evenodd" clip-rule="evenodd" d="M14 6C18.072 6 21.436 9.06 21.931 13H18.856L16.606 8.802C16.515 8.63 16.335 8.525 16.136 8.539C15.94 8.551 15.771 8.675 15.7 8.857L12.051 18.262L10.027 14.274C9.941 14.106 9.77 14 9.581 14H6C6 9.589 9.589 6 14 6ZM14 22C9.928 22 6.564 18.94 6.069 15H9.274L11.665 19.713C11.755 19.889 11.95 20.006 12.136 19.986C12.333 19.977 12.506 19.852 12.577 19.667L16.239 10.232L18.117 13.736C18.204 13.898 18.373 14 18.558 14H22C22 18.411 18.411 22 14 22ZM5.059 15C5.559 19.493 9.375 23 14 23C18.963 23 23 18.962 23 14H27.5C27.776 14 28 13.776 28 13.5V11.062C28 10.477 27.523 10 26.938 10H25.167C24.964 9.333 24.695 8.685 24.364 8.065L25.617 6.812C25.818 6.611 25.929 6.344 25.929 6.061C25.929 5.777 25.818 5.51 25.617 5.309L22.69 2.382C22.276 1.97 21.603 1.969 21.188 2.383L19.936 3.637C19.315 3.305 18.668 3.036 18 2.833V1.063C18 0.477 17.523 0 16.938 0H11.062C10.477 0 10 0.477 10 1.063V2.833C9.332 3.036 8.685 3.305 8.064 3.637L6.812 2.383C6.399 1.971 5.727 1.969 5.309 2.383L2.383 5.309C2.182 5.51 2.071 5.777 2.071 6.061C2.071 6.344 2.182 6.611 2.383 6.812L3.632 8.061C3.322 8.628 3.043 9.306 2.833 10H1.047C0.47 10 0 10.47 0 11.047V12H1L1.047 11H3.211C3.437 11 3.637 10.847 3.694 10.628C3.923 9.763 4.292 8.872 4.682 8.242C4.804 8.044 4.774 7.789 4.61 7.625L3.09 6.016L6.104 3.09L7.625 4.611C7.785 4.771 8.034 4.802 8.229 4.689C8.985 4.25 9.792 3.915 10.628 3.694C10.848 3.636 11 3.437 11 3.21V1H17V3.21C17 3.437 17.152 3.636 17.372 3.694C18.208 3.915 19.015 4.25 19.771 4.689C19.966 4.804 20.214 4.771 20.375 4.611L21.984 3.09L24.91 6.105L23.39 7.625C23.229 7.785 23.197 8.034 23.311 8.23C23.75 8.986 24.085 9.792 24.306 10.628C24.363 10.847 24.563 11 24.789 11L27 11.062V13H22.941C22.441 8.507 18.625 5 14 5C9.037 5 5 9.038 5 14H0.5C0.224 14 0 14.224 0 14.5V16.938C0 17.523 0.477 18 1.062 18H2.826C3.058 18.673 3.366 19.326 3.745 19.95L2.537 21.147C2.307 21.349 2.175 21.641 2.175 21.946C2.175 22.252 2.307 22.544 2.526 22.736L5.738 25.711C6.136 26.061 6.739 26.062 7.141 25.711L8.706 24.338C9.342 24.634 10.11 24.912 11 25.169V26.937C11 27.523 11.477 28 12.063 28H16.938C17.523 28 18 27.523 18 26.937V25.181C18.793 24.971 19.562 24.689 20.296 24.339L21.833 25.687C22.249 26.052 22.875 26.05 23.309 25.67L26.286 22.775C26.512 22.577 26.641 22.294 26.641 22C26.641 21.706 26.512 21.423 26.338 21.277L25.237 19.979C25.624 19.347 25.938 18.684 26.174 18H26.938C27.523 18 28 17.523 28 16.938V16H27L26.938 17H25.811C25.59 17 25.396 17.145 25.332 17.355C25.08 18.188 24.699 18.992 24.2 19.745C24.077 19.931 24.092 20.175 24.235 20.345L25.574 21.924C25.591 21.942 25.589 22.025 25.607 22.041L22.631 24.936C22.594 24.966 22.527 24.968 22.492 24.936L20.704 23.367C20.55 23.233 20.33 23.205 20.146 23.297C19.278 23.741 18.35 24.079 17.387 24.303C17.16 24.355 17 24.557 17 24.79V27H12V24.79C12 24.564 11.849 24.366 11.631 24.307C10.497 23.999 9.563 23.659 8.854 23.297C8.669 23.204 8.45 23.232 8.296 23.367L6.408 24.969L3.206 22.003C3.202 22 3.222 21.882 3.218 21.879L4.734 20.377C4.904 20.209 4.932 19.944 4.8 19.745C4.301 18.992 3.92 18.188 3.668 17.355C3.604 17.145 3.41 17 3.189 17L1 16.938V15H5.059Z" fill="#6A6A6A"/>
</svg>
