<svg width="28" height="28" viewBox="0 0 28 28" fill="none" xmlns="http://www.w3.org/2000/svg">
<path fill-rule="evenodd" clip-rule="evenodd" d="M21 13.1049C19.212 11.7816 16.616 10.9965 14 10.9965C11.083 10.9965 8.669 11.7186 7 13.0889V26.9998H9V14.4972C9 14.3202 9.094 14.1561 9.246 14.0661L9.475 13.9301C10.644 13.2339 11.853 12.5148 14 12.5148C15.874 12.5148 17.135 13.1949 18.247 13.7951L18.73 14.0531C18.896 14.1391 19 14.3102 19 14.4972V26.9998H21V13.1049ZM21.81 12.4648C21.93 12.5598 22 12.7048 22 12.8579V27.4999C22 27.776 21.776 28 21.5 28H18.5C18.224 28 18 27.776 18 27.4999V14.7973L17.772 14.6752C16.715 14.1051 15.622 13.515 14 13.515C12.136 13.515 11.144 14.1011 10 14.7813V27.4999C10 27.776 9.776 28 9.5 28H6.5C6.224 28 6 27.776 6 27.4999V12.8579C6 12.7138 6.062 12.5768 6.171 12.4808C8.029 10.8554 10.736 9.99627 14 9.99627C16.928 9.99627 19.848 10.9185 21.81 12.4648ZM28 12.2227C28 14.9893 26.473 16.6837 23.698 16.9947L23.587 16.0005C25.884 15.7435 27 14.5082 27 12.2227C27 10.0283 25.661 8.65199 23.021 8.12988C22.799 8.08587 22.634 7.89784 22.619 7.67079C22.481 5.52334 21.175 4.76119 20.098 4.76119C19.359 4.76119 18.67 5.09826 18.205 5.68538C18.095 5.82541 17.912 5.89442 17.736 5.86841C17.559 5.84041 17.409 5.71938 17.346 5.55035C16.944 4.48213 16.335 3.54693 15.583 2.84579C14.641 1.96261 12.054 0.0702139 8.401 1.51051C6.305 2.34168 4.662 4.72118 4.662 6.92763C4.662 7.17669 4.677 7.41474 4.708 7.65278C4.711 7.67479 4.713 7.69779 4.713 7.7208C4.713 7.97385 4.525 8.18489 4.281 8.2189C3.033 8.52897 1 9.45316 1 12.1797C1 12.2837 1.006 12.3828 1.011 12.4828C1.117 14.3362 2.459 15.7175 4.429 16.0025L4.286 16.9917C1.825 16.6366 0.147 14.8893 0.013 12.5398C0.00600001 12.4188 0 12.3027 0 12.1797C0 8.96706 2.313 7.77381 3.675 7.35072C3.667 7.21569 3.662 7.07366 3.662 6.92763C3.662 4.29609 5.541 1.56752 8.033 0.58132C10.937 -0.566918 14.013 0.00720072 16.266 2.11464C16.959 2.76177 17.545 3.57694 17.984 4.49913C18.581 4.02403 19.32 3.76098 20.098 3.76098C21.647 3.76098 23.279 4.8372 23.581 7.2287C26.435 7.90484 28 9.6672 28 12.2227Z" fill="#6A6A6A"/>
</svg>
