<svg width="24" height="28" viewBox="0 0 24 28" fill="none" xmlns="http://www.w3.org/2000/svg">
<path fill-rule="evenodd" clip-rule="evenodd" d="M22.9982 20.6845L12.021 26.9214L1.00175 20.6845V7.22453L12.021 1.07698L22.9982 7.22353V20.6845ZM23.7436 6.49108L12.2655 0.0635882C12.1132 -0.021697 11.9279 -0.0206936 11.7776 0.0635882L0.25745 6.49108C0.0991731 6.57938 0 6.74794 0 6.92955V20.9765C0 21.1571 0.0971698 21.3247 0.254445 21.413L11.7746 27.9348C11.8507 27.9789 11.9359 28 12.021 28C12.1062 28 12.1913 27.9789 12.2685 27.9348L23.7466 21.413C23.9028 21.3237 24 21.1571 24 20.9765V6.92955C24 6.74794 23.9018 6.58038 23.7436 6.49108ZM13.0498 6.90145C13.0498 7.47035 12.588 7.9329 12.021 7.9329C11.454 7.9329 10.9922 7.47035 10.9922 6.90145C10.9922 6.33255 11.454 5.87 12.021 5.87C12.588 5.87 13.0498 6.33255 13.0498 6.90145ZM19.4781 12.4199C19.4781 12.9888 19.0163 13.4514 18.4493 13.4514C17.8813 13.4514 17.4195 12.9888 17.4195 12.4199C17.4195 11.851 17.8813 11.3885 18.4493 11.3885C19.0163 11.3885 19.4781 11.851 19.4781 12.4199ZM16.001 17.7437C15.991 17.7437 15.983 17.7457 15.973 17.7457L14.6717 15.6537L17.0368 13.8778C17.1841 14.0213 17.3574 14.1376 17.5437 14.231L16.5189 17.819C16.3526 17.7748 16.1803 17.7437 16.001 17.7437ZM16.001 20.81C15.432 20.81 14.9702 20.3474 14.9702 19.7785C14.9702 19.2096 15.432 18.7471 16.001 18.7471C16.568 18.7471 17.0298 19.2096 17.0298 19.7785C17.0298 20.3474 16.568 20.81 16.001 20.81ZM13.8683 16.2577L14.9722 18.0327C14.835 18.1149 14.7037 18.2093 14.5875 18.3206L12.8555 17.0183L13.8683 16.2577ZM9.45354 18.3206C9.33834 18.2093 9.20711 18.1149 9.06987 18.0327L10.1738 16.2577L11.1866 17.0183L9.45354 18.3206ZM8.04107 20.81C7.47408 20.81 7.01227 20.3474 7.01227 19.7785C7.01227 19.2096 7.47408 18.7471 8.04107 18.7471C8.61007 18.7471 9.07188 19.2096 9.07188 19.7785C9.07188 20.3474 8.61007 20.81 8.04107 20.81ZM6.49837 14.231C6.6847 14.1376 6.858 14.0213 7.00526 13.8778L9.3704 15.6537L8.06912 17.7457C8.0591 17.7457 8.05109 17.7437 8.04107 17.7437C7.86176 17.7437 7.68946 17.7748 7.52317 17.819L6.49837 14.231ZM4.56399 12.4199C4.56399 11.851 5.0258 11.3885 5.59279 11.3885C6.16078 11.3885 6.62259 11.851 6.62259 12.4199C6.62259 12.9888 6.16078 13.4514 5.59279 13.4514C5.0258 13.4514 4.56399 12.9888 4.56399 12.4199ZM11.5202 10.4553C10.6426 10.6801 9.99048 11.4717 9.99048 12.4199C9.99048 12.9497 10.1978 13.4293 10.5304 13.7905L9.90233 14.7999L7.52617 13.0149C7.58327 12.8253 7.62434 12.6286 7.62434 12.4199C7.62434 11.9042 7.42499 11.4366 7.10744 11.0774L10.7478 8.47371C10.9712 8.65632 11.2317 8.79177 11.5202 8.86602V10.4553ZM11.3699 14.3373C11.5753 14.4086 11.7916 14.4547 12.021 14.4547C12.2504 14.4547 12.4668 14.4086 12.6722 14.3373L13.3353 15.4039L12.021 16.3922L10.7057 15.4039L11.3699 14.3373ZM12.021 11.3885C12.588 11.3885 13.0498 11.851 13.0498 12.4199C13.0498 12.9888 12.588 13.4514 12.021 13.4514C11.454 13.4514 10.9922 12.9888 10.9922 12.4199C10.9922 11.851 11.454 11.3885 12.021 11.3885ZM13.2943 8.47371L16.9346 11.0774C16.6171 11.4366 16.4177 11.9042 16.4177 12.4199C16.4177 12.6286 16.4588 12.8253 16.5159 13.0149L14.1397 14.7999L13.5116 13.7905C13.8442 13.4293 14.0516 12.9497 14.0516 12.4199C14.0516 11.4717 13.3994 10.6801 12.5219 10.4553V8.86602C12.8104 8.79177 13.0709 8.65632 13.2943 8.47371ZM9.99048 6.90145C9.99048 7.17436 10.0456 7.43323 10.1438 7.67203L6.21988 10.4794L6.23491 10.4995C6.03156 10.4313 5.81918 10.3851 5.59279 10.3851C4.47283 10.3851 3.56223 11.2982 3.56223 12.4199C3.56223 13.5166 4.43376 14.4076 5.51966 14.4477L6.6256 18.3236C6.24693 18.6939 6.01052 19.2076 6.01052 19.7785C6.01052 20.9003 6.92111 21.8133 8.04107 21.8133C9.16103 21.8133 10.0736 20.9003 10.0736 19.7785C10.0736 19.5698 10.0336 19.3722 9.97445 19.1825L12.021 17.6454L14.0676 19.1825C14.0085 19.3722 13.9684 19.5698 13.9684 19.7785C13.9684 20.9003 14.88 21.8133 16.001 21.8133C17.121 21.8133 18.0316 20.9003 18.0316 19.7785C18.0316 19.2076 17.7951 18.6939 17.4165 18.3236L18.5224 14.4477C19.6083 14.4076 20.4798 13.5166 20.4798 12.4199C20.4798 11.2982 19.5692 10.3851 18.4493 10.3851C18.2229 10.3851 18.0105 10.4313 17.8072 10.4995L17.8222 10.4794L13.8983 7.67203C13.9965 7.43323 14.0516 7.17436 14.0516 6.90145C14.0516 5.7797 13.141 4.86665 12.021 4.86665C10.9011 4.86665 9.99048 5.7797 9.99048 6.90145Z" fill="#6A6A6A"/>
</svg>
