<svg width="28" height="29" viewBox="0 0 28 29" fill="none" xmlns="http://www.w3.org/2000/svg">
<path fill-rule="evenodd" clip-rule="evenodd" d="M7.99996 20.0014H8.99996V15.0014H7.99996V20.0014ZM17 20.0014H18V15.0014H17V20.0014ZM14 20.0014H15V8.00142H14V20.0014ZM11 20.0014H12V12.0014H11V20.0014ZM27 22.8854L8.72596 26.9394L1.06196 15.4424L6.81296 1.06642L17.05 2.92742L18.004 10.5634C18.038 10.8344 18.269 11.0274 18.556 10.9984L27 10.0604V22.8854ZM27.833 9.12842C27.728 9.03342 27.584 8.98842 27.445 9.00442L18.935 9.95042L17.996 2.43942C17.969 2.22242 17.805 2.04842 17.59 2.00942L6.58996 0.00942236C6.35296 -0.0375776 6.12296 0.0954224 6.03596 0.315422L0.0359602 15.3154C-0.0250398 15.4684 -0.00803967 15.6414 0.0839603 15.7784L8.08396 27.7784C8.17796 27.9194 8.33496 28.0014 8.49996 28.0014C8.53596 28.0014 8.57296 27.9974 8.60896 27.9894L27.609 23.7754C27.837 23.7244 28 23.5214 28 23.2874V9.50142C28 9.35942 27.94 9.22342 27.833 9.12842Z" fill="#6A6A6A"/>
</svg>
