<svg width="28" height="28" viewBox="0 0 28 28" fill="none" xmlns="http://www.w3.org/2000/svg">
<path fill-rule="evenodd" clip-rule="evenodd" d="M20.193 26.7632C20.04 24.8842 19.032 23.1632 17.486 22.1882C16.63 21.6482 15.646 21.3632 14.643 21.3632C11.731 21.3632 9.333 23.7432 9.092 26.7632H20.193ZM14.653 20.3632C16.318 20.3632 17.672 19.0082 17.672 17.3432C17.672 15.6782 16.318 14.3232 14.653 14.3232C12.988 14.3232 11.632 15.6782 11.632 17.3432C11.632 19.0082 12.988 20.3632 14.653 20.3632ZM21.214 27.2632C21.214 27.5392 20.99 27.7632 20.714 27.7632H8.573C8.297 27.7632 8.073 27.5392 8.073 27.2632C8.073 24.2382 9.938 21.6682 12.523 20.7392C11.391 20.0272 10.632 18.7762 10.632 17.3432C10.632 15.1262 12.436 13.3232 14.653 13.3232C16.87 13.3232 18.672 15.1262 18.672 17.3432C18.672 18.7832 17.906 20.0382 16.765 20.7482C17.2 20.9042 17.623 21.0932 18.019 21.3432C19.99 22.5842 21.214 24.8532 21.214 27.2632ZM7.549 17.4512L7.036 16.5942L4.257 18.2612L1 16.6142V14.3732L4.352 12.3302L3.833 11.4762L1 13.2022V10.3482L4.5 9.22818L8 10.8222V12.2792L4.937 14.1162L5.451 14.9732L8.444 13.1782L10.158 14.3212L10.713 13.4892L9 12.3472V10.5862L11.749 9.01118C11.904 8.92218 12 8.75618 12 8.57718V4.88018H11V8.28718L8.276 9.84818L5 8.35718V4.60218L7 3.40918V6.46618H8V2.81218L10.856 1.10918L14 2.62018V11.8802H15V2.30618C15 2.11418 14.889 1.93918 14.716 1.85518L11.047 0.0911764C10.897 0.0191764 10.717 0.0261763 10.575 0.113176L4.244 3.88818C4.092 3.97818 4 4.14118 4 4.31818V8.33818L0.347 9.50718C0.14 9.57318 0 9.76618 0 9.98318V16.9222C0 17.1102 0.106 17.2832 0.274 17.3682L4 19.2512V22.7832C4 22.9402 4.074 23.0892 4.2 23.1832L6.759 25.1032L7.359 24.3032L5 22.5332V18.9822L7.549 17.4512ZM19.691 15.2502C19.858 14.6992 19.943 14.1332 19.943 13.5692C19.943 10.9982 18.221 8.71818 15.757 8.02518L15.486 8.98818C17.521 9.56018 18.943 11.4442 18.943 13.5692C18.943 14.0342 18.873 14.5022 18.734 14.9602L19.691 15.2502ZM27.602 15.8982L25.765 20.7042C25.716 20.8332 25.616 20.9352 25.489 20.9882C25.362 21.0402 25.217 21.0382 25.092 20.9812L23.528 20.2752C23.461 20.3822 23.397 20.4852 23.336 20.5852C22.903 21.2912 22.529 21.9012 21.676 22.5442L21.075 21.7462C21.776 21.2172 22.073 20.7322 22.484 20.0622C22.617 19.8462 22.758 19.6152 22.924 19.3662C23.059 19.1612 23.324 19.0862 23.547 19.1872L25.021 19.8522L26.479 16.0352L24.93 15.5432C24.697 15.4692 24.551 15.2362 24.587 14.9942C24.759 13.8162 24.726 12.6162 24.489 11.4272C24.441 11.1872 24.574 10.9482 24.802 10.8612L26.316 10.2882L24.643 6.55718L23.206 7.30518C22.99 7.41818 22.723 7.35818 22.576 7.16318C21.848 6.19818 20.974 5.37318 19.979 4.71218C19.775 4.57618 19.699 4.31318 19.799 4.09018L20.465 2.60918L16.604 1.13818L16.044 2.45018L15.124 2.05718L15.873 0.304176C15.978 0.0561762 16.26 -0.0628237 16.51 0.0331763L21.317 1.86318C21.446 1.91218 21.548 2.01218 21.601 2.13918C21.654 2.26618 21.652 2.41018 21.595 2.53518L20.882 4.12118C21.714 4.71918 22.462 5.42518 23.113 6.22618L24.652 5.42618C24.774 5.36218 24.919 5.35218 25.047 5.39718C25.176 5.44218 25.283 5.53918 25.339 5.66518L27.445 10.3632C27.502 10.4882 27.504 10.6322 27.451 10.7592C27.398 10.8862 27.295 10.9862 27.166 11.0352L25.546 11.6492C25.712 12.6722 25.74 13.7002 25.63 14.7162L27.287 15.2422C27.418 15.2842 27.526 15.3782 27.586 15.5022C27.645 15.6262 27.652 15.7692 27.602 15.8982Z" fill="#6A6A6A"/>
</svg>
