<svg width="28" height="26" viewBox="0 0 28 26" fill="none" xmlns="http://www.w3.org/2000/svg">
<path fill-rule="evenodd" clip-rule="evenodd" d="M27.5788 7.52709L25.8138 6.7252C28.351 11.4063 27.66 17.4111 23.9175 21.5842C21.3442 24.4534 17.6197 26 13.834 26C11.9507 26 10.0524 25.6173 8.27234 24.8243L8.68551 23.9258C13.6465 26.1361 19.6003 24.9052 23.1654 20.9323C26.6813 17.0116 27.295 11.3491 24.827 6.99842L24.5222 9.12099L23.5294 8.98291L24.0248 5.52484C24.0478 5.36999 24.1421 5.23585 24.2815 5.16089C24.4209 5.08593 24.5894 5.081 24.7318 5.14609L28 6.6315L27.5788 7.52709ZM4.87475 5.06226C1.3468 8.99671 0.753125 13.8761 3.18799 18.0749L3.4718 15.8931L4.4666 16.0184L4.00731 19.5534C3.98725 19.7102 3.89098 19.8483 3.74858 19.9242C3.67437 19.9637 3.59213 19.9834 3.5099 19.9834C3.43569 19.9834 3.36148 19.9676 3.29229 19.9351L0 18.3727L0.435228 17.485L2.17413 18.3096C-0.315891 13.7942 0.362021 8.60317 4.12263 4.41029C7.97049 0.121746 14.3876 -1.20782 19.7206 1.16923L19.3075 2.06777C14.3655 -0.135685 8.43279 1.09722 4.87475 5.06226ZM8.40872 16.4898C8.40872 15.8103 8.97031 15.2569 9.66226 15.2569C10.3532 15.2569 10.9158 15.8103 10.9158 16.4898C10.9158 17.1704 10.3532 17.7227 9.66226 17.7227C8.97031 17.7227 8.40872 17.1704 8.40872 16.4898ZM13.6896 10.5028C13.8922 10.561 14.1018 10.6025 14.3214 10.6025C14.528 10.6025 14.7245 10.566 14.9141 10.5147L16.9929 14.7154C16.5687 15.0251 16.2589 15.4749 16.1375 15.9967H11.8575C11.7391 15.4867 11.4393 15.0478 11.0311 14.7381L13.6896 10.5028ZM14.3214 7.14932C15.0134 7.14932 15.5759 7.70265 15.5759 8.38223C15.5759 9.0628 15.0134 9.61613 14.3214 9.61613C13.6305 9.61613 13.0679 9.0628 13.0679 8.38223C13.0679 7.70265 13.6305 7.14932 14.3214 7.14932ZM19.5863 16.4898C19.5863 17.1704 19.0247 17.7227 18.3327 17.7227C17.6418 17.7227 17.0792 17.1704 17.0792 16.4898C17.0792 15.8103 17.6418 15.2569 18.3327 15.2569C19.0247 15.2569 19.5863 15.8103 19.5863 16.4898ZM11.8575 16.983H16.1375C16.3662 17.9693 17.2627 18.7091 18.3327 18.7091C19.5772 18.7091 20.5891 17.7139 20.5891 16.4898C20.5891 15.2668 19.5772 14.2706 18.3327 14.2706C18.1873 14.2706 18.0459 14.2874 17.9085 14.313L15.7986 10.0481C16.2729 9.64078 16.5788 9.04899 16.5788 8.38223C16.5788 7.1582 15.5659 6.163 14.3214 6.163C13.0779 6.163 12.065 7.1582 12.065 8.38223C12.065 9.03321 12.3569 9.61415 12.8121 10.0205L10.1165 14.316C9.96913 14.2864 9.8177 14.2706 9.66226 14.2706C8.41875 14.2706 7.4059 15.2668 7.4059 16.4898C7.4059 17.7139 8.41875 18.7091 9.66226 18.7091C10.7323 18.7091 11.6288 17.9693 11.8575 16.983Z" fill="#6A6A6A"/>
</svg>
