<svg width="24" height="28" viewBox="0 0 24 28" fill="none" xmlns="http://www.w3.org/2000/svg">
<path fill-rule="evenodd" clip-rule="evenodd" d="M7 20.6816L4.5 21.9931L2 20.6816V17.2915L4.5 16.0411L7 17.2915V20.6816ZM8 20.9837V16.9824C8 16.7934 7.893 16.6203 7.724 16.5353L4.724 15.0348C4.583 14.9648 4.417 14.9648 4.276 15.0348L1.276 16.5353C1.107 16.6203 1 16.7934 1 16.9824V20.9837C1 21.1698 1.104 21.3409 1.268 21.4269L4.268 23.0004C4.341 23.0384 4.42 23.0574 4.5 23.0574C4.58 23.0574 4.659 23.0384 4.732 23.0004L7.732 21.4269C7.896 21.3409 8 21.1698 8 20.9837ZM18 23.2795V17.7707L23 14.8528V20.4736L18 23.2795ZM12 20.9427L16.662 24.0297L12 26.6456V20.9427ZM7 10.5244V4.82152L10.959 6.98122L10.958 10.9805H11.958L11.959 7.52639L17 10.2773V16.5093L15.458 15.4039L14.876 16.2162L17 17.7397V23.0544L12 19.7423V13.9815C12 13.8104 11.913 13.6514 11.769 13.5593L7 10.5244ZM6 4.32036V9.88716L1.457 6.99622L6 4.32036ZM11.511 1.07431L16.644 3.84521L11.753 6.27499L7.044 3.70516L11.511 1.07431ZM18 10.2893L23 7.78848V13.6944L18 16.6123V10.2893ZM17.51 9.416L12.824 6.86018L17.721 4.42739L22.416 6.96221L17.51 9.416ZM23.737 6.53908L11.737 0.059986C11.583 -0.0230408 11.396 -0.02004 11.246 0.0699891L0.246 6.54908C0.0970003 6.63611 0.003 6.79716 0 6.97021C0 6.97322 0.00199986 6.97622 0.00199986 6.97922H0V13.9815H1V7.89051L11 14.2566V26.5615L7.278 24.0637L6.722 24.894L11.222 27.915L11.226 27.91C11.234 27.915 11.238 27.926 11.247 27.932C11.325 27.977 11.413 28 11.5 28C11.584 28 11.669 27.978 11.744 27.936L23.744 21.2028C23.902 21.1148 24 20.9477 24 20.7667V6.97922C24 6.79616 23.899 6.6271 23.737 6.53908Z" fill="#6A6A6A"/>
</svg>
