<svg width="28" height="28" viewBox="0 0 28 28" fill="none" xmlns="http://www.w3.org/2000/svg">
<path fill-rule="evenodd" clip-rule="evenodd" d="M14.9647 17.4629C14.9647 18.2899 15.6377 18.9629 16.4647 18.9629C17.2917 18.9629 17.9647 18.2899 17.9647 17.4629C17.9647 16.6359 17.2917 15.9629 16.4647 15.9629C15.6377 15.9629 14.9647 16.6359 14.9647 17.4629ZM15.2557 19.6379C10.4007 24.1119 4.94069 27.9279 2.00969 27.9279C1.39669 27.9279 0.893686 27.7609 0.529686 27.3979C-0.709314 26.1599 0.423686 23.4219 1.89069 20.9629H3.07169C0.952686 24.3629 0.725686 26.1789 1.23669 26.6909C2.37369 27.8279 7.73569 25.1879 14.4907 18.9799C14.1657 18.5579 13.9647 18.0359 13.9647 17.4629C13.9647 16.0849 15.0857 14.9629 16.4647 14.9629C17.0547 14.9629 17.5897 15.1759 18.0177 15.5189C24.6387 8.58091 27.9077 2.4519 26.6927 1.2349C26.1837 0.729905 24.3717 0.945905 20.9647 3.06991V1.88791C23.3927 0.440905 26.1537 -0.715095 27.3997 0.527905C29.5427 2.6709 24.6577 10.0279 18.6607 16.2939C18.8487 16.6449 18.9647 17.0389 18.9647 17.4629C18.9647 18.8409 17.8437 19.9629 16.4647 19.9629C16.0247 19.9629 15.6147 19.8379 15.2557 19.6379ZM22.9647 13.7389V22.9629H13.7407C13.1437 23.4629 12.5507 23.9459 11.9647 24.3999V26.9629H12.9647V23.9629H14.9647V26.9629H15.9647V23.9629H17.9647V26.9629H18.9647V23.9629H20.9647V26.9629H21.9647V23.9629H23.4647C23.7407 23.9629 23.9647 23.7389 23.9647 23.4629V21.9629H26.9647V20.9629H23.9647V18.9629H26.9647V17.9629H23.9647V15.9629H26.9647V14.9629H23.9647V12.9629H26.9647V11.9629H24.4017C23.9467 12.5479 23.4647 13.1419 22.9647 13.7389ZM3.96469 18.9629H0.964686V17.9629H3.96469V15.9629H0.964686V14.9629H3.96469V12.9629H0.964686V11.9629H3.96469V9.9629H0.964686V8.9629H3.96469V6.9629H0.964686V5.9629H3.96469V4.4629C3.96469 4.1869 4.18869 3.9629 4.46469 3.9629H5.96469V0.962905H6.96469V3.9629H8.96469V0.962905H9.96469V3.9629H11.9647V0.962905H12.9647V3.9629H14.9647V0.962905H15.9647V3.9629H17.9647V0.962905H18.9647V3.9629H23.4647C23.7407 3.9629 23.9647 4.1869 23.9647 4.4629V5.5609C23.6777 6.0479 23.3437 6.5749 22.9647 7.1389V4.9629H4.96469V22.9629H7.14169C6.57769 23.3419 6.05069 23.6749 5.56369 23.9629H4.46469C4.18869 23.9629 3.96469 23.7389 3.96469 23.4629V18.9629Z" fill="#6A6A6A"/>
</svg>
