<svg width="28" height="28" viewBox="0 0 28 28" fill="none" xmlns="http://www.w3.org/2000/svg">
<path fill-rule="evenodd" clip-rule="evenodd" d="M26.831 19.8C26.716 19.682 26.492 19.499 26.096 19.249L26.037 19.681C26.431 19.773 26.68 19.798 26.831 19.8ZM25.944 12.816C25.897 12.225 23.127 10.869 18.781 10.869C14.397 10.869 11.617 12.249 11.617 12.831L11.634 12.922C11.8 13.541 14.676 14.526 18.781 14.526C22.887 14.526 25.763 13.541 25.94 12.863L25.944 12.816ZM25.758 14.265C24.223 15.102 21.438 15.526 18.781 15.526C16.123 15.526 13.339 15.102 11.808 14.286L12.536 19.699C13.037 19.871 13.509 20.16 13.921 20.566C14.176 20.819 14.395 21.112 14.577 21.443C14.964 21.235 15.416 21.181 15.855 21.31C16.536 21.511 17.006 22.09 17.156 22.886C17.457 22.978 17.761 23.115 18.026 23.284C18.859 23.811 19.281 24.497 19.281 25.323C19.281 25.997 19.098 26.554 18.756 27H18.781C20.057 27 21.332 26.867 22.372 26.627C22.772 26.535 23.128 26.428 23.428 26.31C24.015 26.077 24.191 25.871 24.207 25.817L24.932 20.419C22.462 19.726 20.673 19.177 19.597 18.781C19.429 18.91 19.228 19 19 19C18.448 19 18 18.551 18 18C18 17.448 18.448 17 19 17C19.5 17 19.896 17.374 19.971 17.853C20.991 18.227 22.722 18.758 25.066 19.419L25.758 14.265ZM18.281 25.323C18.281 25 18.191 24.572 17.491 24.129C17.226 23.96 16.897 23.831 16.613 23.783C16.342 23.737 16.159 23.479 16.204 23.208C16.165 22.76 15.93 22.375 15.572 22.269C15.283 22.184 14.98 22.296 14.792 22.549C14.682 22.696 14.498 22.769 14.317 22.744C14.135 22.716 13.983 22.591 13.921 22.418C13.757 21.959 13.519 21.576 13.218 21.278C12.945 21.008 12.32 20.51 11.435 20.51C11.124 20.51 10.781 20.571 10.41 20.726C9.607 21.061 8.954 22.064 8.954 22.962C8.954 23.066 8.961 23.167 8.973 23.267C9.004 23.517 8.843 23.751 8.599 23.813C8.035 23.954 7.363 24.34 7.363 25.372C7.363 26.217 7.835 26.675 8.229 26.911C8.328 26.97 8.443 27 8.572 27L16.645 27.008C16.919 27.007 18.281 26.92 18.281 25.323ZM7.954 22.971V22.962C7.954 21.654 8.845 20.296 10.025 19.803C10.516 19.599 11.015 19.509 11.504 19.519L10.644 13.13L10.66 13.128C10.659 13.123 10.656 13.119 10.655 13.115L10.622 12.899C10.62 12.025 11.577 11.3 13 10.777V1.781C13 1.35 12.649 1 12.219 1H1.781C1.351 1 1 1.35 1 1.781V24.218C1 24.649 1.351 25 1.781 25H6.414C6.533 24.06 7.068 23.326 7.954 22.971ZM16.644 28H16.641L8.571 27.991C8.265 27.991 7.97 27.92 7.718 27.77C7.296 27.518 6.642 26.974 6.435 26H4V28H3V26H1.781C0.799 26 0 25.2 0 24.218V1.781C0 0.799 0.799 0 1.781 0H12.219C13.201 0 14 0.799 14 1.781V10.462C15.421 10.082 17.124 9.869 18.781 9.869C22.724 9.869 26.945 11.059 26.945 12.831C26.945 12.854 26.943 12.876 26.94 12.899L26.919 13.056C26.913 13.08 26.898 13.103 26.891 13.126L26.919 13.13L26.24 18.17C27.332 18.798 27.851 19.289 27.942 19.782C27.988 20.028 27.925 20.268 27.765 20.459C27.574 20.686 27.28 20.8 26.847 20.8C26.591 20.8 26.266 20.745 25.904 20.667L25.201 25.893C25.206 26.394 24.731 26.869 23.795 27.239C23.449 27.376 23.046 27.498 22.597 27.602C21.485 27.858 20.131 27.991 18.781 27.991L16.644 28ZM4 9H11V8H4V9ZM4 12H9V11H4V12ZM4 6H11V5H4V6Z" fill="#6A6A6A"/>
</svg>
