<svg width="28" height="28" viewBox="0 0 28 28" fill="none" xmlns="http://www.w3.org/2000/svg">
<path fill-rule="evenodd" clip-rule="evenodd" d="M0 16H12V15H0V16ZM5 13H13V12H5V13ZM16.424 13.751C16.672 13.691 16.835 13.455 16.803 13.202C16.794 13.13 16.789 13.056 16.789 12.98C16.789 12.326 17.289 11.594 17.903 11.349C18.193 11.232 18.461 11.187 18.703 11.187C19.392 11.187 19.877 11.558 20.089 11.758C20.321 11.979 20.504 12.262 20.63 12.602C20.693 12.771 20.844 12.893 21.022 12.92C21.201 12.947 21.381 12.877 21.492 12.734C21.626 12.563 21.84 12.49 22.042 12.553C22.288 12.628 22.444 12.883 22.473 13.157C22.43 13.429 22.615 13.685 22.887 13.729C23.307 13.797 24.012 14.036 24.012 14.868C24.012 15.851 23.071 15.985 22.924 16H16.752C16.093 16 15.532 15.517 15.5 14.854C15.5 14.126 16.002 13.852 16.424 13.751ZM16.751 17H22.962C23.671 16.945 25.012 16.429 25.012 14.868C25.012 13.708 24.242 13.073 23.416 12.826C23.273 12.213 22.886 11.765 22.333 11.597C21.978 11.488 21.606 11.517 21.283 11.662C21.14 11.427 20.971 11.216 20.776 11.032C19.889 10.191 18.675 9.962 17.532 10.42C16.562 10.808 15.823 11.868 15.79 12.907C14.975 13.245 14.5 13.948 14.5 14.854L14.504 14.983C14.561 16.109 15.548 16.999 16.751 17ZM17 3H18V2H17V3ZM19 3H23V2H19V3ZM25.5 27H14.5C13.771 27 13 26.229 13 25.5V24H27V25.5C27 26.229 26.229 27 25.5 27ZM13 4V2.5C13 1.771 13.771 1 14.5 1H25.5C26.229 1 27 1.771 27 2.5V4H13ZM25.5 0H14.5C13.215 0 12 1.215 12 2.5V11H13V5H27V23H13V17H12V25.5C12 26.785 13.215 28 14.5 28H25.5C26.785 28 28 26.785 28 25.5V2.5C28 1.215 26.785 0 25.5 0Z" fill="#6A6A6A"/>
</svg>
