<svg width="29" height="29" viewBox="0 0 29 29" fill="none" xmlns="http://www.w3.org/2000/svg">
<path fill-rule="evenodd" clip-rule="evenodd" d="M19.869 12.833C19.869 15.314 17.85 17.333 15.369 17.333C12.888 17.333 10.869 15.314 10.869 12.833C10.869 10.352 12.888 8.333 15.369 8.333C17.85 8.333 19.869 10.352 19.869 12.833ZM20.869 12.833C20.869 9.8 18.401 7.333 15.369 7.333C12.337 7.333 9.869 9.8 9.869 12.833C9.869 15.866 12.337 18.333 15.369 18.333C18.401 18.333 20.869 15.866 20.869 12.833ZM18.168 25.509C18.263 25.409 18.311 25.275 18.304 25.138L18.211 23.512C19.148 23.262 20.045 22.891 20.884 22.404L21.969 23.621C22.06 23.723 22.19 23.784 22.327 23.788C22.486 23.79 22.598 23.739 22.695 23.641L26.161 20.174C26.259 20.077 26.311 19.944 26.307 19.807C26.304 19.669 26.243 19.539 26.14 19.448L24.921 18.36C25.407 17.521 25.778 16.626 26.027 15.69L27.658 15.784C27.796 15.791 27.93 15.743 28.03 15.648C28.13 15.554 28.186 15.422 28.186 15.285V10.382C28.186 10.245 28.13 10.113 28.03 10.019C27.93 9.924 27.796 9.878 27.658 9.883L26.025 9.976C25.775 9.04 25.404 8.146 24.919 7.308L26.14 6.218C26.243 6.127 26.304 5.997 26.307 5.859C26.311 5.722 26.259 5.589 26.161 5.492L22.695 2.026C22.598 1.929 22.455 1.879 22.328 1.879C22.19 1.883 22.06 1.944 21.969 2.046L20.875 3.271C20.038 2.786 19.144 2.416 18.211 2.166L18.304 0.528C18.311 0.391 18.263 0.256 18.168 0.157C18.073 0.0570001 17.942 0 17.805 0H12.902C12.765 0 12.634 0.0570001 12.539 0.157C12.444 0.257 12.395 0.391 12.403 0.528L12.497 2.166C11.563 2.414 10.669 2.784 9.83 3.269L8.739 2.046C8.647 1.944 8.517 1.883 8.381 1.879C8.248 1.883 8.11 1.929 8.013 2.026L4.546 5.492C4.448 5.589 4.395 5.722 4.399 5.859C4.403 5.997 4.464 6.126 4.566 6.218L5.79 7.311C5.304 8.149 4.932 9.042 4.683 9.976L3.049 9.883C2.913 9.878 2.777 9.924 2.677 10.019C2.577 10.113 2.52 10.245 2.52 10.382V15.285C2.52 15.422 2.577 15.554 2.678 15.648C2.777 15.744 2.913 15.791 3.05 15.784L5.05 15.666L4.991 14.668L3.52 14.754V10.912L5.041 10.998C5.299 11.012 5.502 10.846 5.556 10.609C5.808 9.5 6.245 8.447 6.855 7.481C6.986 7.274 6.948 7.003 6.765 6.841L5.627 5.825L8.346 3.107L9.36 4.245C9.522 4.426 9.793 4.465 10 4.334C10.967 3.726 12.019 3.29 13.13 3.04C13.368 2.986 13.532 2.768 13.518 2.523L13.432 1H17.275L17.189 2.524C17.176 2.769 17.34 2.986 17.578 3.041C18.688 3.291 19.74 3.728 20.705 4.337C20.912 4.467 21.182 4.429 21.345 4.247L22.362 3.107L25.08 5.825L23.943 6.838C23.761 7.001 23.723 7.272 23.853 7.479C24.463 8.442 24.899 9.496 25.152 10.609C25.206 10.847 25.396 11.022 25.668 10.998L27.186 10.912V14.755L25.669 14.668C25.441 14.656 25.207 14.819 25.153 15.058C24.902 16.17 24.466 17.224 23.855 18.19C23.724 18.396 23.763 18.667 23.945 18.83L25.08 19.842L22.362 22.56L21.353 21.429C21.191 21.247 20.919 21.208 20.714 21.339C19.748 21.949 18.693 22.386 17.578 22.638C17.34 22.692 17.176 22.911 17.189 23.154L17.275 24.666H13.448L13.518 23.877L12.522 23.789L12.404 25.122C12.391 25.262 12.438 25.4 12.533 25.503C12.628 25.607 12.762 25.666 12.902 25.666H17.805C17.942 25.666 18.073 25.609 18.168 25.509ZM12.697 21.529L12.01 20.803L5.677 26.803L6.364 27.529L12.697 21.529ZM6.696 17.53L6.011 16.802L0.344 22.135L1.029 22.864L6.696 17.53ZM0.707 28.187L0 27.479L10 17.479L10.707 18.187L0.707 28.187Z" fill="#6A6A6A"/>
</svg>
