<svg width="28" height="28" viewBox="0 0 28 28" fill="none" xmlns="http://www.w3.org/2000/svg">
<path fill-rule="evenodd" clip-rule="evenodd" d="M11.943 25.294C11.957 25.05 11.793 24.832 11.554 24.778C10.332 24.501 9.172 24.02 8.11 23.348C7.902 23.219 7.632 23.256 7.469 23.438L6.331 24.715L3.284 21.67L4.561 20.531C4.743 20.369 4.782 20.098 4.651 19.892C3.98 18.828 3.501 17.669 3.226 16.445C3.172 16.208 2.985 16.044 2.71 16.056L1 16.154V11.846L2.714 11.944C2.989 11.96 3.175 11.793 3.229 11.556C3.506 10.335 3.988 9.177 4.658 8.116C4.789 7.91 4.751 7.639 4.568 7.476L3.284 6.331L6.331 3.285L7.475 4.567C7.637 4.749 7.908 4.787 8.115 4.657C9.175 3.989 10.333 3.509 11.554 3.233C11.793 3.179 11.957 2.961 11.943 2.717L11.846 1H16.153L16.056 2.719C16.043 2.963 16.207 3.181 16.445 3.235C17.664 3.511 18.821 3.99 19.882 4.66C20.089 4.79 20.36 4.752 20.522 4.57L21.669 3.285L24.715 6.331L23.433 7.474C23.251 7.636 23.213 7.907 23.343 8.114C24.014 9.174 24.495 10.333 24.771 11.555C24.825 11.793 25.015 11.957 25.287 11.944L27 11.846V16.154L25.289 16.056C25.063 16.045 24.827 16.207 24.773 16.445C24.496 17.669 24.016 18.827 23.346 19.889C23.215 20.096 23.254 20.366 23.436 20.529L24.715 21.669L21.669 24.715L20.532 23.44C20.369 23.259 20.099 23.22 19.891 23.351C18.831 24.022 17.672 24.502 16.445 24.779C16.207 24.833 16.043 25.051 16.056 25.295L16.153 27H11.846L11.943 25.294ZM17.046 27.843C17.14 27.743 17.189 27.609 17.181 27.472L17.078 25.653C18.127 25.377 19.128 24.963 20.063 24.417L21.275 25.776C21.367 25.879 21.497 25.94 21.633 25.943C21.774 25.948 21.905 25.895 22.002 25.797L25.797 22.002C25.894 21.905 25.947 21.772 25.943 21.635C25.939 21.497 25.879 21.367 25.776 21.276L24.413 20.06C24.958 19.124 25.372 18.125 25.647 17.078L27.471 17.182C27.606 17.192 27.743 17.141 27.843 17.046C27.943 16.952 28 16.821 28 16.683V11.317C28 11.179 27.943 11.048 27.843 10.954C27.743 10.859 27.606 10.814 27.471 10.818L25.645 10.922C25.37 9.876 24.956 8.877 24.41 7.943L25.776 6.724C25.879 6.633 25.939 6.503 25.943 6.365C25.947 6.228 25.894 6.095 25.797 5.998L22.002 2.204C21.905 2.107 21.77 2.055 21.633 2.057C21.497 2.061 21.367 2.122 21.275 2.224L20.052 3.594C19.118 3.049 18.121 2.635 17.078 2.36L17.181 0.528C17.189 0.391 17.14 0.256 17.046 0.157C16.951 0.0570001 16.82 0 16.682 0H11.317C11.179 0 11.048 0.0570001 10.954 0.157C10.859 0.256 10.81 0.391 10.818 0.528L10.922 2.359C9.877 2.634 8.879 3.047 7.945 3.591L6.724 2.224C6.632 2.122 6.503 2.061 6.366 2.057C6.242 2.058 6.095 2.107 5.998 2.204L2.203 5.998C2.105 6.095 2.052 6.228 2.056 6.365C2.06 6.503 2.121 6.632 2.223 6.724L3.591 7.945C3.047 8.879 2.631 9.877 2.355 10.922L0.528 10.818C0.399 10.814 0.257 10.859 0.156 10.954C0.0559999 11.048 0 11.179 0 11.317V16.683C0 16.821 0.0559999 16.952 0.156 17.046C0.257 17.141 0.399 17.192 0.528 17.182L2.351 17.078C2.626 18.125 3.039 19.125 3.585 20.062L2.223 21.276C2.121 21.367 2.06 21.497 2.056 21.635C2.052 21.772 2.105 21.905 2.203 22.002L5.998 25.797C6.095 25.895 6.238 25.945 6.366 25.943C6.503 25.94 6.632 25.879 6.724 25.776L7.938 24.415C8.875 24.961 9.875 25.376 10.922 25.652L10.818 27.472C10.81 27.609 10.859 27.744 10.954 27.843C11.048 27.943 11.179 28 11.317 28H16.682C16.82 28 16.951 27.943 17.046 27.843ZM12.992 16.894L18.072 11.813L17.365 11.106L12.638 15.834L10.634 13.829L9.927 14.536L12.285 16.894C12.379 16.988 12.505 17.041 12.638 17.041C12.771 17.041 12.898 16.988 12.992 16.894ZM24.05 13.581L22.181 14.578C22.487 10.273 19.38 6.412 15.047 5.855C11.541 5.401 8.148 7.237 6.608 10.417L7.508 10.853C8.86 8.061 11.838 6.446 14.92 6.847C18.68 7.331 21.39 10.647 21.195 14.373L19.856 13.051L19.153 13.763L21.499 16.076L24.521 14.462L24.05 13.581ZM21.392 17.583C20.006 20.442 17.125 22.213 14.007 22.213C13.659 22.213 13.306 22.191 12.953 22.146C8.619 21.588 5.512 17.727 5.818 13.422L3.949 14.419L3.478 13.538L6.501 11.924L8.846 14.237L8.143 14.949L6.804 13.627C6.609 17.354 9.319 20.669 13.08 21.153C16.152 21.551 19.138 19.94 20.492 17.147L21.392 17.583Z" fill="#6A6A6A"/>
</svg>
