<svg width="28" height="21" viewBox="0 0 28 21" fill="none" xmlns="http://www.w3.org/2000/svg">
<path fill-rule="evenodd" clip-rule="evenodd" d="M23.592 8.23965C23.376 6.40965 22.413 5.08365 20.974 4.66265C19.924 4.35565 18.821 4.61065 17.988 5.30865C17.55 4.32265 16.976 3.47065 16.276 2.76765C14.021 0.505655 10.934 -0.108346 8.02 1.12565C5.534 2.17865 3.659 5.08565 3.659 7.88665C3.659 8.05165 3.664 8.21465 3.675 8.37565C2.317 8.82365 0 10.0907 0 13.5177C0 13.7007 0.00799984 13.8787 0.0219998 14.0497C0.231 16.7217 1.509 18.4817 3.53 18.8777L3.721 17.8957C1.605 17.4817 1.119 15.2597 1.018 13.9707C1.006 13.8247 1 13.6737 1 13.5177C1 10.5227 3.089 9.54265 4.333 9.22565C4.576 9.16365 4.737 8.93065 4.706 8.68165C4.676 8.42265 4.659 8.15665 4.659 7.88665C4.659 5.50265 6.307 2.93765 8.41 2.04665C12.048 0.505655 14.628 2.53166 15.567 3.47365C16.332 4.24165 16.93 5.22165 17.341 6.38765C17.403 6.56165 17.556 6.68865 17.738 6.71565C17.926 6.73865 18.104 6.66665 18.215 6.51865C18.814 5.70865 19.787 5.35665 20.694 5.62265C21.797 5.94565 22.519 7.07065 22.62 8.58165C22.582 8.84965 22.764 9.09965 23.03 9.14565C24.224 9.35065 27 10.1917 27 13.5587C27 17.5727 23.116 18.0477 22.992 18.0597H16.638V18.9607L23.032 18.9647C23.082 18.9597 28 18.5037 28 13.5587C28 9.72465 25.001 8.57065 23.592 8.23965ZM11.638 16.0597H12.638V12.0597H8.638V13.0597H10.931L4.284 19.7067L4.991 20.4137L11.638 13.7667V16.0597ZM19.638 11.7667L10.991 20.4137L10.284 19.7067L18.931 11.0597H14.638V10.0597H20.638V16.0597H19.638V11.7667Z" fill="#6A6A6A"/>
</svg>
