<svg width="23" height="27" viewBox="0 0 23 27" fill="none" xmlns="http://www.w3.org/2000/svg">
<path fill-rule="evenodd" clip-rule="evenodd" d="M17.999 9.28969L11.499 5.57541L4.999 9.28969V17.2273L11.499 21.4066L17.999 17.2273V9.28969ZM23 7.00052V10.5008H22V7.80958L18.999 9.30869V17.5003C18.999 17.6703 18.912 17.8293 18.77 17.9203L12 22.2726V25.6499L14.757 24.1168L15.243 24.9909L11.743 26.937C11.667 26.979 11.584 27 11.5 27C11.416 27 11.333 26.979 11.257 26.937L7.757 24.9899L8.243 24.1158L11 25.6499V22.2736L4.228 17.9203C4.086 17.8293 3.999 17.6703 3.999 17.5003V9.30869L1 7.80858V10.5008H0V7.00052C0 6.82151 0.0959999 6.65549 0.252 6.56649L3.752 4.56434L4.248 5.4334L1.56 6.97052L4.483 8.43262L11.251 4.56534C11.405 4.47733 11.593 4.47733 11.747 4.56534L18.515 8.43262L21.441 6.97152L18.752 5.4334L19.248 4.56434L22.748 6.56649C22.904 6.65549 23 6.82151 23 7.00052ZM8.994 11.3698V14.7201L11.504 15.9442L14.029 14.7201V11.3708L11.504 10.0647L8.994 11.3698ZM11.272 9.05767C11.417 8.98267 11.588 8.98267 11.732 9.05667L14.533 10.5048L16.306 9.61871L16.753 10.5128L15.029 11.3748V15.0331C15.029 15.2241 14.92 15.3991 14.747 15.4821L12 16.8152V19.5004H11V16.8112L8.275 15.4821C8.103 15.3981 7.994 15.2241 7.994 15.0331V11.3748L6.27 10.5128L6.718 9.61871L8.489 10.5048L11.272 9.05767ZM11.499 1.07308L14.757 2.88421L15.243 2.01015L11.742 0.0630047C11.59 -0.0210016 11.408 -0.0210016 11.256 0.0630047L7.756 2.01015L8.242 2.88421L11.499 1.07308ZM1 16.5002H0V19.9995C0 20.1785 0.0959999 20.3445 0.252 20.4335L3.752 22.4357L4.248 21.5676L1 19.7095V16.5002ZM22 16.5002H23V20.0015C23 20.1805 22.904 20.3465 22.748 20.4355L19.248 22.4357L18.752 21.5676L22 19.7115V16.5002Z" fill="#6A6A6A"/>
</svg>
