<svg width="28" height="13" viewBox="0 0 28 13" fill="none" xmlns="http://www.w3.org/2000/svg">
<path fill-rule="evenodd" clip-rule="evenodd" d="M27 11H21V11.5C21 11.776 21.225 12 21.5 12H26.5C26.775 12 27 11.776 27 11.5V11ZM22 10H26V7H22V10ZM28 10.5V11.5C28 12.327 27.327 13 26.5 13H21.5C20.673 13 20 12.327 20 11.5V10.5C20 10.224 20.224 10 20.5 10H21V6.5C21 6.224 21.224 6 21.5 6H26.5C26.776 6 27 6.224 27 6.5V10H27.5C27.776 10 28 10.224 28 10.5ZM11.414 5.773L9.75 5.112C9.2 4.897 8.777 4.695 8.482 4.507C8.188 4.319 7.975 4.109 7.845 3.878C7.715 3.647 7.65 3.344 7.65 2.967C7.65 2.301 7.863 1.787 8.288 1.427C8.713 1.067 9.324 0.887 10.123 0.887C10.941 0.887 11.88 1.081 12.937 1.467V0.645C12.491 0.441 12.018 0.282 11.515 0.169C11.012 0.0569997 10.532 0 10.076 0C9.07 0 8.26 0.277 7.643 0.831C7.025 1.384 6.718 2.107 6.718 2.999C6.718 3.655 6.904 4.206 7.277 4.652C7.65 5.099 8.236 5.482 9.034 5.805L10.838 6.531C11.46 6.778 11.911 7.058 12.191 7.369C12.471 7.681 12.611 8.057 12.611 8.498C12.611 9.218 12.354 9.788 11.841 10.207C11.328 10.626 10.642 10.836 9.781 10.836C8.868 10.836 7.868 10.632 6.779 10.224V11.046C7.682 11.497 8.708 11.723 9.858 11.723C10.968 11.723 11.861 11.428 12.541 10.836C13.22 10.245 13.56 9.471 13.56 8.514C13.56 7.858 13.389 7.313 13.046 6.877C12.704 6.442 12.16 6.074 11.414 5.773ZM14.077 11.509H15.329L17.417 8.346L16.854 7.52L14.077 11.509ZM0 11.449H0.917V6.257H5.256V5.402H0.917V1.129H6.049V0.274H0V11.449ZM17.496 5.067L15.658 2.346H14.354L16.838 5.976L17.496 5.067ZM20.21 9H19L17.389 6.751L20.383 2.346H21.617L18.629 6.667L20.21 9Z" fill="#6A6A6A"/>
</svg>
