<svg width="28" height="24" viewBox="0 0 28 24" fill="none" xmlns="http://www.w3.org/2000/svg">
<path fill-rule="evenodd" clip-rule="evenodd" d="M3.726 17.2816L2.863 17.7861C2.458 17.0972 2.119 16.3665 1.854 15.6128L2.797 15.2828C3.041 15.9757 3.354 16.6486 3.726 17.2816ZM2.824 8.63721L1.882 8.30024C2.136 7.5984 2.455 6.91351 2.83 6.2645L3.696 6.76297C3.35 7.36013 3.057 7.99119 2.824 8.63721ZM8.99 1.99861L8.58 1.0894C11.826 -0.363134 15.626 -0.363134 18.872 1.0894L18.462 1.99861C15.478 0.662714 11.974 0.662714 8.99 1.99861ZM23.756 6.76297L24.622 6.2645C24.998 6.9165 25.318 7.60139 25.569 8.30124L24.627 8.63721C24.396 7.99319 24.103 7.36312 23.756 6.76297ZM24.655 15.2828L25.598 15.6128C25.341 16.3425 25.013 17.0543 24.622 17.7293L23.756 17.2308C24.116 16.6097 24.418 15.9537 24.655 15.2828ZM18.462 21.9962L18.872 22.9054C17.248 23.6321 15.517 24 13.726 24C11.935 24 10.204 23.6321 8.58 22.9054L8.99 21.9962C11.976 23.3321 15.476 23.3321 18.462 21.9962ZM5.5 21.4289C4.673 21.4289 4 20.758 4 19.9335C4 19.109 4.673 18.4381 5.5 18.4381C6.328 18.4381 7 19.109 7 19.9335C7 20.758 6.328 21.4289 5.5 21.4289ZM5.5 17.4412C4.122 17.4412 3 18.5597 3 19.9335C3 21.3083 4.122 22.4258 5.5 22.4258C6.879 22.4258 8 21.3083 8 19.9335C8 18.5597 6.879 17.4412 5.5 17.4412ZM21.5 21.4289C20.673 21.4289 20 20.758 20 19.9335C20 19.109 20.673 18.4381 21.5 18.4381C22.328 18.4381 23 19.109 23 19.9335C23 20.758 22.328 21.4289 21.5 21.4289ZM21.5 17.4412C20.122 17.4412 19 18.5597 19 19.9335C19 21.3083 20.122 22.4258 21.5 22.4258C22.879 22.4258 24 21.3083 24 19.9335C24 18.5597 22.879 17.4412 21.5 17.4412ZM25.5 13.4534C24.673 13.4534 24 12.7825 24 11.958C24 11.1335 24.673 10.4626 25.5 10.4626C26.328 10.4626 27 11.1335 27 11.958C27 12.7825 26.328 13.4534 25.5 13.4534ZM25.5 9.46566C24.122 9.46566 23 10.5842 23 11.958C23 13.3328 24.122 14.4503 25.5 14.4503C26.879 14.4503 28 13.3328 28 11.958C28 10.5842 26.879 9.46566 25.5 9.46566ZM5.5 2.56587C6.328 2.56587 7 3.2368 7 4.06127C7 4.88574 6.328 5.55667 5.5 5.55667C4.673 5.55667 4 4.88574 4 4.06127C4 3.2368 4.673 2.56587 5.5 2.56587ZM5.5 6.55361C6.879 6.55361 8 5.43505 8 4.06127C8 2.68649 6.879 1.56893 5.5 1.56893C4.122 1.56893 3 2.68649 3 4.06127C3 5.43505 4.122 6.55361 5.5 6.55361ZM21.5 2.56587C22.328 2.56587 23 3.2368 23 4.06127C23 4.88574 22.328 5.55667 21.5 5.55667C20.673 5.55667 20 4.88574 20 4.06127C20 3.2368 20.673 2.56587 21.5 2.56587ZM21.5 6.55361C22.879 6.55361 24 5.43505 24 4.06127C24 2.68649 22.879 1.56893 21.5 1.56893C20.122 1.56893 19 2.68649 19 4.06127C19 5.43505 20.122 6.55361 21.5 6.55361ZM2.5 13.4534C1.673 13.4534 1 12.7825 1 11.958C1 11.1335 1.673 10.4626 2.5 10.4626C3.328 10.4626 4 11.1335 4 11.958C4 12.7825 3.328 13.4534 2.5 13.4534ZM10.0021 12.0228C10.004 11.8902 9.955 11.7626 9.862 11.6679L8.36 10.1167L7.641 10.8085L8.316 11.5064H4.955C4.741 10.348 3.724 9.46566 2.5 9.46566C1.122 9.46566 0 10.5842 0 11.958C0 13.3328 1.122 14.4503 2.5 14.4503C3.691 14.4503 4.685 13.6159 4.936 12.5033H8.27L7.654 13.0945L8.347 13.8133L9.849 12.3727C9.945 12.281 9.999 12.1554 10.0021 12.0228ZM19.658 13.0905L20.284 12.5033H18V11.5064H20.34L19.647 10.8155L20.354 10.1107L21.901 11.6519C21.997 11.7477 22.049 11.8773 22.047 12.0118C22.045 12.1474 21.989 12.275 21.89 12.3677L20.343 13.8163L19.658 13.0905ZM16.414 14.8222C15.664 14.5191 14.841 14.3566 14 14.3566C13.16 14.3566 12.337 14.5191 11.587 14.8222C12.255 13.0556 12.255 10.8614 11.587 9.0948C13.087 9.70094 14.914 9.70094 16.414 9.0948C15.746 10.8614 15.746 13.0556 16.414 14.8222ZM18.354 7.82471C18.452 7.72701 18.5 7.5994 18.5 7.47179C18.5 7.34418 18.452 7.21657 18.354 7.11987C18.159 6.92447 17.842 6.92447 17.647 7.11987C16.727 8.03705 15.398 8.56244 14 8.56244C12.603 8.56244 11.274 8.03705 10.354 7.11987C10.159 6.92447 9.842 6.92447 9.647 7.11987C9.549 7.21657 9.5 7.34418 9.5 7.47179C9.5 7.5994 9.549 7.72701 9.647 7.82471C11.584 9.75577 11.584 14.1602 9.647 16.0923C9.549 16.189 9.5 16.3166 9.5 16.4442C9.5 16.5718 9.549 16.6994 9.647 16.7971C9.842 16.9915 10.159 16.9915 10.354 16.7971C11.274 15.88 12.603 15.3536 14 15.3536C15.398 15.3536 16.727 15.88 17.647 16.7971C17.745 16.8938 17.872 16.9427 18 16.9427C18.128 16.9427 18.256 16.8938 18.354 16.7971C18.452 16.6994 18.5 16.5718 18.5 16.4442C18.5 16.3166 18.452 16.189 18.354 16.0923C16.416 14.1602 16.416 9.75577 18.354 7.82471Z" fill="#6A6A6A"/>
</svg>
