<svg width="29" height="27" viewBox="0 0 29 27" fill="none" xmlns="http://www.w3.org/2000/svg">
<path fill-rule="evenodd" clip-rule="evenodd" d="M24.222 7.98369C24.242 6.45669 23.366 5.14469 21.912 4.57669C20.687 4.09669 19.364 4.27469 18.439 4.98369C17.989 3.95369 17.395 3.06369 16.669 2.33269C14.361 0.0066936 11.201 -0.626307 8.217 0.643693C5.672 1.72669 3.753 4.71469 3.753 7.59569C3.753 7.76869 3.759 7.94069 3.77 8.10969C2.381 8.56769 0 9.86769 0 13.3967C0 13.5847 0.00800007 13.7667 0.0220001 13.9427C0.271 17.1507 1.929 18.9917 4.571 18.9947H7.069V17.9947H4.572C1.759 17.9917 1.138 15.4057 1.018 13.8657C1.006 13.7137 1 13.5577 1 13.3967C1 10.3007 3.149 9.28769 4.429 8.95969C4.672 8.89769 4.831 8.66569 4.801 8.41669C4.77 8.14769 4.753 7.87369 4.753 7.59569C4.753 5.13269 6.447 2.48369 8.608 1.56369C12.347 -0.0243065 14.994 2.06469 15.96 3.03669C16.746 3.82969 17.359 4.84069 17.783 6.04569C17.844 6.21969 17.997 6.34669 18.181 6.37369C18.362 6.39669 18.547 6.32469 18.657 6.17569C19.364 5.21469 20.651 5.15769 21.548 5.50769C22.458 5.86369 23.371 6.77669 23.198 8.30669C23.156 8.57669 23.337 8.83069 23.607 8.87669C24.844 9.09069 27.719 9.96269 27.689 13.4357C27.677 14.8847 27.125 15.7807 26.664 16.2767L27.397 16.9577C27.979 16.3317 28.675 15.2127 28.6893 13.4437C28.722 9.54369 25.693 8.33769 24.222 7.98369ZM19.576 20.4947V21.4947H22.705C21.613 23.6627 19.381 25.0777 16.909 25.0777C13.325 25.0777 10.409 22.1617 10.409 18.5777C10.409 14.9937 13.325 12.0777 16.909 12.0777C20.265 12.0777 23.111 14.6947 23.387 18.0357L24.383 17.9537C24.065 14.0977 20.782 11.0777 16.909 11.0777C12.773 11.0777 9.409 14.4417 9.409 18.5777C9.409 22.7137 12.773 26.0777 16.909 26.0777C19.744 26.0777 22.306 24.4667 23.576 21.9907V25.4947H24.576V20.4947H19.576ZM15.45 20.8637L20.041 15.9047L20.776 16.5847L15.847 21.9067C15.748 22.0127 15.615 22.0667 15.48 22.0667C15.36 22.0667 15.24 22.0237 15.144 21.9377L12.49 19.5317L13.161 18.7907L15.45 20.8637Z" fill="#6A6A6A"/>
</svg>
