<svg width="26" height="27" viewBox="0 0 26 27" fill="none" xmlns="http://www.w3.org/2000/svg">
<path fill-rule="evenodd" clip-rule="evenodd" d="M1 6.706H0C0 10.238 4.767 12.479 14.172 13.413C4.767 14.345 0 16.587 0 20.119H1C1 17.801 4.233 13.913 25.888 13.913V12.913C4.233 12.913 1 9.024 1 6.706ZM3.874 2.874H2.874C2.874 7.385 5.608 11.997 25.888 11.997V10.997C6.489 10.997 3.874 6.891 3.874 2.874ZM6.748 0H5.748C5.748 5.101 7.303 10.081 25.888 10.081V9.081C6.748 9.081 6.748 3.616 6.748 0ZM18.987 23.871H19.891V22.797H18.987V23.871ZM20.891 22.297V24.371C20.891 24.647 20.667 24.871 20.391 24.871H18.486C18.21 24.871 17.986 24.647 17.986 24.371V22.297C17.986 22.02 18.21 21.797 18.486 21.797H20.391C20.667 21.797 20.891 22.02 20.891 22.297ZM18.011 20.893H19.914V19.893H18.011V20.893ZM21.842 18.941H22.863V17.949H21.842V18.941ZM24.739 20.836C24.739 19.819 24.41 18.881 23.863 18.108V19.441C23.863 19.717 23.64 19.941 23.363 19.941H21.342C21.065 19.941 20.842 19.717 20.842 19.441V17.449C20.842 17.172 21.065 16.949 21.342 16.949H22.699C21.932 16.413 21.002 16.093 19.996 16.093C18.453 16.093 17.094 16.845 16.227 17.989H19.914V18.989H15.628C15.506 19.277 15.412 19.58 15.349 19.893H17.059V20.893H15.259C15.267 21.553 15.41 22.179 15.663 22.749H17.059V23.749H16.28C17.149 24.855 18.483 25.58 19.996 25.58C21.509 25.58 22.843 24.855 23.712 23.749H21.818V22.749H24.329C24.589 22.163 24.739 21.518 24.739 20.836ZM25.739 20.836C25.739 24.003 23.163 26.58 19.996 26.58C16.829 26.58 14.253 24.003 14.253 20.836C14.253 17.669 16.829 15.093 19.996 15.093C23.163 15.093 25.739 17.669 25.739 20.836ZM15.879 15.36L15.875 15.326C4.419 16.662 2.874 20.435 2.874 23.951H3.874C3.874 21.008 5.215 17.853 14.688 16.496C15.036 16.07 15.439 15.692 15.879 15.36ZM13.82 17.866C13.646 18.227 13.501 18.606 13.392 18.999C6.758 20.8 6.748 24.119 6.748 26.825H5.748C5.748 24.011 5.772 19.82 13.82 17.866Z" fill="#6A6A6A"/>
</svg>
