<svg width="29" height="28" viewBox="0 0 29 28" fill="none" xmlns="http://www.w3.org/2000/svg">
<path fill-rule="evenodd" clip-rule="evenodd" d="M17.9053 24.457C17.1373 24.048 15.8543 23.364 14.6583 22.005C13.5543 20.75 13.0233 19.505 12.6343 18.597C12.1933 17.561 11.8633 16.475 11.6553 15.368C11.6163 15.158 11.4483 14.997 11.2383 14.965C11.0223 14.936 10.8203 15.04 10.7213 15.228C10.4343 15.775 10.1723 16.344 9.9403 16.92C9.4243 18.206 7.8403 22.494 8.1513 25.968H6.0653C5.4973 23.855 4.8683 22.141 2.4103 18.316C2.2143 18.011 2.0223 17.698 1.8403 17.399C1.5993 17.005 1.3683 16.627 1.1553 16.316L4.0263 12.498C4.1933 12.803 4.3503 13.116 4.4953 13.433C4.8843 14.289 5.0603 14.914 5.4893 16.424L5.7073 17.187C5.8573 17.716 6.0983 18.558 6.4103 19.609C6.4783 19.843 6.7033 20 6.9503 19.964C7.1923 19.935 7.3783 19.734 7.3883 19.49C7.5573 15.727 8.3463 12.241 9.7363 9.129C10.7413 6.876 12.0413 4.915 13.3943 3.606C13.9133 3.105 14.4713 2.639 15.0613 2.215L17.9183 6.856C17.3863 7.266 16.8983 7.728 16.4633 8.234C15.8453 8.95 15.3033 9.809 14.8953 10.717C14.5403 11.51 13.9443 13.165 13.9523 15.338C13.9553 15.928 13.9613 17.311 14.5433 18.959C14.8203 19.743 15.6783 21.751 17.6673 23.472C19.6123 25.156 21.6553 25.726 22.7053 25.959C20.3593 25.766 18.6443 24.852 17.9053 24.457ZM14.0253 27C12.3423 27 10.7143 26.669 9.1723 26.046C8.7983 22.683 10.5093 18.186 10.8683 17.292C10.9123 17.184 10.9573 17.075 11.0033 16.966C11.1963 17.655 11.4343 18.332 11.7153 18.989C12.1063 19.906 12.6983 21.291 13.9083 22.666C15.2233 24.161 16.6073 24.898 17.4343 25.34C17.7563 25.511 18.2563 25.774 18.8983 26.04C17.3553 26.667 15.7243 27 14.0253 27ZM1.0253 14C1.0253 6.832 6.8573 1 14.0253 1C14.3633 1 14.6943 1.026 15.0253 1.051C14.9943 1.063 14.9623 1.069 14.9333 1.088C14.1363 1.62 13.3843 2.225 12.6993 2.887C11.2563 4.282 9.8793 6.354 8.8223 8.722C7.7213 11.188 6.9843 13.877 6.6203 16.744L6.4513 16.151C6.0213 14.635 5.8253 13.944 5.4053 13.019C5.1403 12.438 4.8373 11.871 4.5033 11.332C4.4163 11.192 4.2653 11.104 4.1003 11.097C3.9393 11.087 3.7783 11.164 3.6783 11.296L1.0093 14.846C1.0113 14.775 1.0123 14.701 1.0143 14.633C1.0203 14.392 1.0253 14.171 1.0253 14ZM27.0253 14C27.0253 18.203 24.9813 22.146 21.5593 24.586C20.6083 24.248 19.4473 23.69 18.3213 22.716C16.5143 21.152 15.7363 19.335 15.4863 18.626C14.9613 17.137 14.9553 15.919 14.9522 15.333C14.9443 13.349 15.4853 11.846 15.8073 11.126C16.2743 10.089 16.8343 9.336 17.2203 8.886C17.7043 8.325 18.2593 7.823 18.8713 7.395C19.0893 7.244 19.1493 6.949 19.0103 6.724L15.6363 1.242C15.5973 1.177 15.5423 1.127 15.4803 1.087C21.9653 1.813 27.0253 7.324 27.0253 14ZM26.8043 25.266C26.1123 25.306 24.8263 25.379 23.2633 25.056C23.1253 25.027 22.9353 24.986 22.7263 24.936C26.0493 22.287 28.0253 18.275 28.0253 14C28.0253 6.281 21.7453 0 14.0253 0C6.3053 0 0.0252991 6.281 0.0252991 14C0.0252991 14.165 0.0202989 14.377 0.0142989 14.609C0.000298932 15.231 -0.0177009 15.936 0.0382991 16.374L0.053299 16.372C0.065299 16.458 0.0832989 16.545 0.139299 16.618C0.377299 16.922 0.673299 17.407 0.986299 17.921C1.1733 18.226 1.3683 18.545 1.5683 18.857C4.1413 22.859 4.6243 24.405 5.1973 26.595C5.2553 26.815 5.4533 26.968 5.6803 26.968H8.7173C8.7323 26.968 8.7463 26.96 8.7603 26.958C10.4323 27.639 12.1993 28 14.0253 28C16.1943 28 18.3453 27.482 20.2723 26.52C21.0033 26.73 21.8343 26.901 22.7623 26.967C23.0413 26.987 23.3193 26.996 23.5953 26.996C25.5553 26.996 27.3833 26.54 27.7393 26.169C27.8413 26.063 27.9093 25.882 27.8933 25.736C27.8393 25.207 27.3353 25.237 26.8043 25.266Z" fill="#6A6A6A"/>
</svg>
