<svg width="27" height="28" viewBox="0 0 27 28" fill="none" xmlns="http://www.w3.org/2000/svg">
<path fill-rule="evenodd" clip-rule="evenodd" d="M16 20C13.794 20 12 18.206 12 16C12 13.794 13.794 12 16 12C18.206 12 20 13.794 20 16C20 18.206 18.206 20 16 20ZM16 11C13.243 11 11 13.243 11 16C11 18.757 13.243 21 16 21C18.757 21 21 18.757 21 16C21 13.243 18.757 11 16 11ZM25.284 24.308C24.974 24.652 24.438 24.68 24.093 24.371L20.624 21.241C21.046 20.869 21.424 20.449 21.746 19.986L25.221 23.116C25.565 23.428 25.594 23.963 25.284 24.308ZM10 16C10 12.691 12.691 10 16 10C19.309 10 22 12.691 22 16C22 19.309 19.309 22 16 22C12.691 22 10 19.309 10 16ZM22.264 19.106C22.73 18.168 23 17.116 23 16C23 12.14 19.859 9 16 9C12.141 9 9 12.14 9 16C9 19.86 12.141 23 16 23C17.408 23 18.718 22.578 19.817 21.86L23.424 25.114C23.775 25.43 24.216 25.585 24.656 25.585C25.16 25.585 25.663 25.38 26.027 24.977C26.705 24.223 26.644 23.055 25.892 22.374L22.264 19.106ZM27 3.5V20H26V4H22V9H21V3.5C21 3.224 21.224 3 21.5 3H26.5C26.776 3 27 3.224 27 3.5ZM19 26H20V27.5C20 27.776 19.776 28 19.5 28H14.5C14.224 28 14 27.776 14 27.5V25H15V27H19V26ZM15 7H14V0.5C14 0.224 14.224 0 14.5 0H19.5C19.776 0 20 0.224 20 0.5V7H19V1H15V7ZM12 24H13V27.5C13 27.776 12.776 28 12.5 28H7.5C7.224 28 7 27.776 7 27.5V20H8V27H12V24ZM8 10H7V4.5C7 4.224 7.224 4 7.5 4H12.5C12.776 4 13 4.224 13 4.5V7H12V5H8V10ZM1 27H5V10H1V27ZM5.5 9H0.5C0.224 9 0 9.224 0 9.5V27.5C0 27.776 0.224 28 0.5 28H5.5C5.776 28 6 27.776 6 27.5V9.5C6 9.224 5.776 9 5.5 9Z" fill="#6A6A6A"/>
</svg>
