<svg width="28" height="28" viewBox="0 0 28 28" fill="none" xmlns="http://www.w3.org/2000/svg">
<path fill-rule="evenodd" clip-rule="evenodd" d="M18.949 10.45C18.573 10.826 17.903 10.816 17.547 10.462L15.865 8.659C15.726 8.509 15.508 8.459 15.316 8.534C15.126 8.61 15 8.794 15 9V19.5C15 19.57 14.992 19.638 14.97 19.764C14.833 21.578 13.308 23 11.5 23C9.57 23 8 21.429 8 19.5C8 17.57 9.57 16 11.5 16C11.766 16 12.045 16.04 12.374 16.125C12.523 16.162 12.683 16.132 12.805 16.037C12.928 15.942 13 15.796 13 15.641V5.5C13 5.38 13.024 5.257 13.075 5.12C13.177 4.875 13.375 4.677 13.637 4.572C13.876 4.476 14.104 4.471 14.381 4.576C14.505 4.627 14.614 4.7 14.707 4.793L18.949 9.035C19.138 9.224 19.242 9.475 19.242 9.742C19.242 10.01 19.137 10.261 18.949 10.45ZM15.415 4.086C15.228 3.899 15.008 3.753 14.73 3.641C14.255 3.454 13.777 3.443 13.239 3.651C12.75 3.853 12.352 4.249 12.14 4.77C12.047 5.01 12 5.255 12 5.5V10V11.132V12.167V14V15.033C11.829 15.011 11.664 15 11.5 15C9.018 15 7 17.018 7 19.5C7 21.981 9.018 24 11.5 24C13.828 24 15.791 22.173 15.96 19.9C15.986 19.771 16 19.637 16 19.5V15V13.975V12.857V12V10.269L16.828 11.157C17.585 11.913 18.903 11.912 19.656 11.157C20.034 10.779 20.242 10.277 20.242 9.742C20.242 9.208 20.034 8.706 19.656 8.328L15.415 4.086ZM27 11.922C24.484 14.091 21.092 14.756 18 13.742V14.772C18.958 15.054 19.937 15.211 20.913 15.211C23.07 15.211 25.199 14.528 27 13.211V24.5C27 25.878 25.879 27 24.5 27H3.5C2.121 27 1 25.878 1 24.5V16.833L1.958 15.556C3.869 13.009 6.916 11.677 10 11.856V10.834C6.605 10.655 3.261 12.152 1.157 14.956L1 15.166V3.5C1 2.121 2.121 1 3.5 1H24.5C25.879 1 27 2.121 27 3.5V11.922ZM24.5 0H3.5C1.57 0 0 1.57 0 3.5V24.5C0 26.429 1.57 28 3.5 28H24.5C26.429 28 28 26.429 28 24.5V3.5C28 1.57 26.429 0 24.5 0Z" fill="#6A6A6A"/>
</svg>
