<svg width="28" height="28" viewBox="0 0 28 28" fill="none" xmlns="http://www.w3.org/2000/svg">
<path fill-rule="evenodd" clip-rule="evenodd" d="M17 16H27V12H17V16ZM27.5 11H16.5C16.224 11 16 11.224 16 11.5V16.5C16 16.776 16.224 17 16.5 17H27.5C27.776 17 28 16.776 28 16.5V11.5C28 11.224 27.776 11 27.5 11ZM16 25.5C16 26.327 15.327 27 14.5 27C13.673 27 13 26.327 13 25.5C13 24.673 13.673 24 14.5 24C15.327 24 16 24.673 16 25.5ZM1 18H10V16H1V18ZM1 12V10H5H6H10V12H1ZM13 2.5C13 1.673 13.673 1 14.5 1C15.327 1 16 1.673 16 2.5C16 3.327 15.327 4 14.5 4C13.673 4 13 3.327 13 2.5ZM22 21H6V19H10.5C10.776 19 11 18.776 11 18.5V15.5C11 15.224 10.776 15 10.5 15H6V13H10.5C10.776 13 11 12.776 11 12.5V9.5C11 9.224 10.776 9 10.5 9H6V7H22V9H23V6.5C23 6.224 22.776 6 22.5 6H15V4.949C16.14 4.717 17 3.707 17 2.5C17 1.122 15.879 0 14.5 0C13.121 0 12 1.122 12 2.5C12 3.707 12.86 4.717 14 4.949V6H5.5C5.224 6 5 6.224 5 6.5V9H0.5C0.224 9 0 9.224 0 9.5V12.5C0 12.776 0.224 13 0.5 13H5V15H0.5C0.224 15 0 15.224 0 15.5V18.5C0 18.776 0.224 19 0.5 19H5V21.5C5 21.776 5.224 22 5.5 22H14V23.051C12.86 23.283 12 24.293 12 25.5C12 26.878 13.121 28 14.5 28C15.879 28 17 26.878 17 25.5C17 24.293 16.14 23.283 15 23.051V22H22.5C22.776 22 23 21.776 23 21.5V19H22V21Z" fill="#6A6A6A"/>
</svg>
