<svg width="24" height="28" viewBox="0 0 24 28" fill="none" xmlns="http://www.w3.org/2000/svg">
<path fill-rule="evenodd" clip-rule="evenodd" d="M9.254 2.66275L8.754 1.79675L11.75 0.06675C11.904 -0.02225 12.096 -0.02225 12.25 0.06675L15.246 1.79675L14.746 2.66275L12 1.07675L9.254 2.66275ZM15 22.2118L12.5 23.6547L10 22.2118V19.3247L12.5 17.8807L15 19.3247V19.9998V20.9998V22.2118ZM16 19.0357C16 18.8567 15.904 18.6917 15.75 18.6027L12.75 16.8707C12.596 16.7817 12.404 16.7817 12.25 16.8707L9.25 18.6027C9.096 18.6917 9 18.8567 9 19.0357V19.9998H0V20.9998H9V22.4998C9 22.6788 9.096 22.8438 9.25 22.9338L12 24.5208V27.9998H13V24.5208L15.75 22.9338C15.904 22.8438 16 22.6788 16 22.4998V20.9998H24V19.9998H16V19.0357ZM18 11.9998H21V10.9998H18V11.9998ZM18 8.99975H21V7.99975H18V8.99975ZM3 8.99975H11V7.99975H3V8.99975ZM1 13.9998H23V5.99975H1V13.9998ZM23.5 4.99975H0.5C0.224 4.99975 0 5.22375 0 5.49975V14.4998C0 14.7758 0.224 14.9998 0.5 14.9998H23.5C23.776 14.9998 24 14.7758 24 14.4998V5.49975C24 5.22375 23.776 4.99975 23.5 4.99975Z" fill="#6A6A6A"/>
</svg>
