<svg width="27" height="27" viewBox="0 0 27 27" fill="none" xmlns="http://www.w3.org/2000/svg">
<path fill-rule="evenodd" clip-rule="evenodd" d="M13.2846 8.84891H16.2369V7.8657H13.2846V8.84891ZM13.2846 5.91501H18.2051V4.93179H13.2846V5.91501ZM17.221 11.7504H23.1256V10.7672H17.221V11.7504ZM18.2051 8.84891H23.1256V7.8657H18.2051V8.84891ZM26.0159 20.5432H18.2051V21.5265H26.5079C26.7796 21.5265 27 21.3062 27 21.0348V12.7513H26.0159V20.5432ZM25.1509 4.93179L21.0885 1.54168V4.93179H25.1509ZM27 5.4234V9.80165H26.0159V5.91501H20.5965C20.3248 5.91501 20.1044 5.69477 20.1044 5.4234V0.983212L12.2847 0.985179V7.65038H11.3006V0.493573C11.3006 0.222206 11.5211 0.00196648 11.7927 0.00196648L20.5965 0C20.7106 0 20.8218 0.0383454 20.9124 0.114053L26.8229 5.04585C26.938 5.14122 27 5.28083 27 5.4234ZM3.44358 19.6338H4.42768V15.7009H3.44358V19.6338ZM5.41178 20.617H6.39588V13.7345H5.41178V20.617ZM7.41049 19.6338H8.39459V14.7177H7.41049V19.6338ZM9.30193 20.617H10.286V13.7345H9.30193V20.617ZM11.2849 19.6338H12.269V14.7177H11.2849V19.6338ZM13.2688 20.617H14.2529V13.7345H13.2688V20.617ZM15.2065 18.6506H16.1906V14.7177H15.2065V18.6506ZM15.8265 21.3288L16.6473 21.8716C15.0018 24.3581 12.4983 25.7857 9.77823 25.7857C8.3011 25.7857 6.636 25.3502 5.35864 24.6383L0.921327 26.9322C0.82587 26.9784 0.726476 27 0.62905 27C0.4588 27 0.296424 26.9331 0.175379 26.8073C-0.0125841 26.6116 -0.0539162 26.3176 0.0730328 26.0758L2.37091 21.6671C1.77749 20.7035 0.94593 19.0252 0.94593 17.1964C0.94593 12.5143 4.75243 8.98361 9.79988 8.98361C11.5467 8.98361 12.8043 9.53618 14.1555 10.366L13.6408 11.2037C12.4314 10.4614 11.3154 9.96683 9.79988 9.96683C5.98551 9.96683 1.93003 12.5006 1.93003 17.1964C1.93003 18.4677 2.44767 19.9907 3.35009 21.375C3.44751 21.5235 3.45539 21.7133 3.37371 21.8706L1.45668 25.5488L5.14706 23.6413C5.29959 23.5607 5.48165 23.5676 5.62927 23.6581C6.78657 24.364 8.37589 24.8025 9.77823 24.8025C12.1972 24.8025 14.3454 23.5686 15.8265 21.3288Z" fill="#6A6A6A"/>
</svg>
