<svg width="25" height="26" viewBox="0 0 25 26" fill="none" xmlns="http://www.w3.org/2000/svg">
<path fill-rule="evenodd" clip-rule="evenodd" d="M24.482 6.69125C24.405 6.87825 24.222 7.00025 24.02 7.00025H20.997V11.0002H22.5C22.776 11.0002 23 11.2232 23 11.5002V25.5003C23 25.7763 22.776 26.0003 22.5 26.0003H1.5C0.672 26.0003 0 25.3272 0 24.5002V7.50025C0 7.22325 0.223 7.00025 0.5 7.00025H6.621C6.783 7.00025 6.934 7.07825 7.028 7.21025L8.299 9.00025H11V10.0002H8.042C7.879 10.0002 7.728 9.92125 7.634 9.78925L6.363 8.00025H1V24.5002C1 24.7752 1.224 25.0002 1.5 25.0002C1.775 25.0002 2 24.7752 2 24.5002V11.5002C2 11.2232 2.223 11.0002 2.5 11.0002H11V12.0002H3V24.5002C3 24.6762 2.963 24.8422 2.908 25.0002H22V12.0002H21.02H20.02H19V11.0002H19.997V6.50025C19.997 6.22325 20.22 6.00025 20.497 6.00025H22.813L18.52 1.70725L14.227 6.00025H16.502C16.778 6.00025 17.002 6.22325 17.002 6.50025V9.00025V12.0002V13.0002H20.02C20.222 13.0002 20.405 13.1213 20.482 13.3083C20.559 13.4953 20.516 13.7103 20.374 13.8533L14.874 19.3533C14.776 19.4513 14.648 19.5002 14.52 19.5002C14.392 19.5002 14.264 19.4513 14.167 19.3533L8.667 13.8533C8.524 13.7103 8.481 13.4953 8.558 13.3083C8.635 13.1213 8.818 13.0002 9.02 13.0002H12V9.00025H13V13.5002C13 13.7762 12.776 14.0002 12.5 14.0002H10.227L14.52 18.2932L18.813 14.0002H16.502C16.225 14.0002 16.002 13.7762 16.002 13.5002V12.0002V9.00025V7.00025H13.02C12.818 7.00025 12.635 6.87825 12.558 6.69125C12.481 6.50425 12.524 6.28925 12.667 6.14625L18.167 0.64625C18.362 0.45125 18.678 0.45125 18.874 0.64625L24.374 6.14625C24.516 6.28925 24.559 6.50425 24.482 6.69125Z" fill="#6A6A6A"/>
</svg>
