<svg width="26" height="27" viewBox="0 0 26 27" fill="none" xmlns="http://www.w3.org/2000/svg">
<path fill-rule="evenodd" clip-rule="evenodd" d="M8 20.4004C4.141 20.4004 1 17.2604 1 13.4004C1 9.54039 4.141 6.40039 8 6.40039C11.859 6.40039 15 9.54039 15 13.4004C15 17.2604 11.859 20.4004 8 20.4004ZM22 21.4004C23.103 21.4004 24 22.2974 24 23.4004C24 24.5034 23.103 25.4004 22 25.4004C20.897 25.4004 20 24.5034 20 23.4004C20 22.2974 20.897 21.4004 22 21.4004ZM22 1.40039C23.103 1.40039 24 2.29739 24 3.40039C24 4.50339 23.103 5.40039 22 5.40039C20.897 5.40039 20 4.50339 20 3.40039C20 2.29739 20.897 1.40039 22 1.40039ZM23 11.9004C24.103 11.9004 25 12.7974 25 13.9004C25 15.0034 24.103 15.9004 23 15.9004C21.897 15.9004 21 15.0034 21 13.9004C21 12.7974 21.897 11.9004 23 11.9004ZM15.931 14.4004H20.051C20.29 15.8164 21.517 16.9004 23 16.9004C24.654 16.9004 26 15.5544 26 13.9004C26 12.2464 24.654 10.9004 23 10.9004C21.517 10.9004 20.29 11.9844 20.051 13.4004H16C16 11.9114 15.584 10.5204 14.872 9.32539L19.699 5.30239C20.25 5.96739 21.071 6.40039 22 6.40039C23.654 6.40039 25 5.05439 25 3.40039C25 1.74639 23.654 0.400391 22 0.400391C20.346 0.400391 19 1.74639 19 3.40039C19 3.76139 19.074 4.10239 19.191 4.42239L14.306 8.49439C12.84 6.61539 10.562 5.40039 8 5.40039C3.589 5.40039 0 8.98939 0 13.4004C0 17.8114 3.589 21.4004 8 21.4004C10.562 21.4004 12.84 20.1854 14.306 18.3064L19.191 22.3784C19.074 22.6984 19 23.0394 19 23.4004C19 25.0544 20.346 26.4004 22 26.4004C23.654 26.4004 25 25.0544 25 23.4004C25 21.7464 23.654 20.4004 22 20.4004C21.071 20.4004 20.25 20.8334 19.699 21.4984L14.872 17.4754C15.422 16.5524 15.791 15.5134 15.931 14.4004Z" fill="#6A6A6A"/>
</svg>
