<svg width="28" height="26" viewBox="0 0 28 26" fill="none" xmlns="http://www.w3.org/2000/svg">
<path fill-rule="evenodd" clip-rule="evenodd" d="M10.298 20.242L8.263 18.207L10.298 16.172L9.591 15.465L7.202 17.853C7.007 18.049 7.007 18.365 7.202 18.56L9.591 20.949L10.298 20.242ZM20.354 7.56C20.549 7.365 20.549 7.049 20.354 6.853L17.965 4.465L17.258 5.172L19.293 7.207L17.258 9.242L17.965 9.949L20.354 7.56ZM19 19.02H25V18.02H19V19.02ZM13 23.02H28V22.02H13V23.02ZM3 8.02H9V7.02H3V8.02ZM0 4.02H15V3.02H0V4.02ZM18.265 0C16.976 0 15.703 0.329 14.583 0.952L15.069 1.826C16.04 1.286 17.146 1 18.265 1C21.896 1 24.85 3.954 24.85 7.585C24.85 11.216 21.896 14.17 18.265 14.17C17.826 14.17 17.394 14.11 16.967 14.021C16.939 14.097 16.636 14.932 16.622 14.972C17.161 15.093 17.709 15.17 18.265 15.17C22.447 15.17 25.85 11.767 25.85 7.585C25.85 3.403 22.447 0 18.265 0ZM11.905 9.304C11.756 8.745 11.68 8.167 11.68 7.585C11.68 6.711 11.848 5.864 12.179 5.067L11.255 4.683C10.873 5.602 10.68 6.579 10.68 7.585C10.68 8.255 10.768 8.92 10.941 9.563L11.905 9.304ZM15.5 25.02H3.5C3.224 25.02 3 24.797 3 24.52V12.52C3 12.244 3.224 12.02 3.5 12.02H15.5C15.777 12.02 16 12.244 16 12.52V21.02H15V13.02H4V24.02H16V24.52C16 24.797 15.777 25.02 15.5 25.02Z" fill="#6A6A6A"/>
</svg>
