<svg width="28" height="25" viewBox="0 0 28 25" fill="none" xmlns="http://www.w3.org/2000/svg">
<path fill-rule="evenodd" clip-rule="evenodd" d="M8.34221 14.3494L9.84668 12.9061C9.94283 12.8142 9.99692 12.6872 9.99993 12.5553C10.0019 12.4224 9.95185 12.2934 9.8597 12.1985L8.35523 10.6432L7.63504 11.3379L8.31115 12.0375H5.99134V13.037H8.26508L7.64806 13.6287L8.34221 14.3494ZM20.3579 14.3534L21.9075 12.9001C22.0067 12.8082 22.0627 12.6792 22.0647 12.5443C22.0668 12.4094 22.0137 12.2784 21.9185 12.1835L20.369 10.6373L19.6608 11.3439L20.3549 12.0375H18.0111V13.037H20.2988L19.6718 13.6247L20.3579 14.3534ZM11.5875 15.3609C12.3388 15.057 13.1621 14.8941 14.0045 14.8941C14.8469 14.8941 15.6702 15.057 16.4215 15.3609C15.7524 13.5898 15.7524 11.3899 16.4215 9.61877C14.919 10.2265 13.09 10.2265 11.5875 9.61877C12.2566 11.3899 12.2566 13.5898 11.5875 15.3609ZM9.64434 17.3409C9.54618 17.2439 9.4971 17.116 9.4971 16.988C9.4971 16.8601 9.54618 16.7322 9.64434 16.6342C11.5845 14.6982 11.5845 10.2824 9.64434 8.34541C9.54618 8.24846 9.4971 8.12052 9.4971 7.99259C9.4971 7.86465 9.54618 7.73672 9.64434 7.63877C9.83967 7.44387 10.1572 7.44387 10.3525 7.63877C11.274 8.5583 12.6052 9.08604 14.0045 9.08604C15.4048 9.08604 16.736 8.5583 17.6575 7.63877C17.8528 7.44387 18.1704 7.44387 18.3657 7.63877C18.4628 7.73672 18.5119 7.86465 18.5119 7.99259C18.5119 8.12052 18.4628 8.24846 18.3657 8.34541C16.4245 10.2824 16.4245 14.6982 18.3657 16.6342C18.4628 16.7322 18.5119 16.8601 18.5119 16.988C18.5119 17.116 18.4628 17.2439 18.3657 17.3409C18.2675 17.4388 18.1393 17.4878 18.0111 17.4878C17.8829 17.4878 17.7547 17.4388 17.6575 17.3409C16.736 16.4213 15.4048 15.8936 14.0045 15.8936C12.6052 15.8936 11.274 16.4213 10.3525 17.3409C10.1572 17.5358 9.83967 17.5358 9.64434 17.3409ZM26.5421 11.4359C26.2366 11.132 25.8369 10.9801 25.4363 10.9801C25.0366 10.9801 24.637 11.132 24.3315 11.4359C23.7215 12.0445 23.7215 13.034 24.3315 13.6417C24.9415 14.2504 25.9321 14.2504 26.5421 13.6417C27.1511 13.034 27.1511 12.0445 26.5421 11.4359ZM27.2503 14.3494C26.7504 14.8481 26.0934 15.098 25.4363 15.098C24.7802 15.098 24.1231 14.8481 23.6233 14.3494C22.6237 13.3509 22.6237 11.7277 23.6233 10.7292C24.623 9.73171 26.2506 9.73171 27.2503 10.7292C28.2499 11.7277 28.2499 13.3509 27.2503 14.3494ZM3.66853 11.4468C3.36302 11.143 2.96337 10.9911 2.56271 10.9911C2.16305 10.9911 1.7634 11.143 1.4579 11.4468C0.848895 12.0555 0.848895 13.045 1.4579 13.6527C2.0679 14.2614 3.05852 14.2614 3.66853 13.6527C4.27753 13.045 4.27753 12.0555 3.66853 11.4468ZM4.37669 14.3594C3.87687 14.8581 3.21979 15.108 2.56271 15.108C1.90663 15.108 1.24955 14.8581 0.749732 14.3594C-0.249911 13.3619 -0.249911 11.7387 0.749732 10.7402C1.74937 9.74271 3.37705 9.74271 4.37669 10.7402C5.37633 11.7387 5.37633 13.3619 4.37669 14.3594ZM21.4337 20.9101C19.4364 22.9031 16.7821 24.0005 13.9574 24.0005C11.1328 24.0005 8.47843 22.9031 6.48215 20.9101C5.16599 19.5977 4.40774 18.4693 3.94498 17.136L2.99843 17.4628C3.50726 18.9291 4.36267 20.2104 5.77399 21.6167C7.95857 23.7986 10.8664 25 13.9574 25C17.0495 25 19.9563 23.7986 22.1419 21.6167C23.2828 20.4783 24.4206 19.1869 25.0116 17.4608L24.064 17.138C23.5392 18.6702 22.4894 19.8566 21.4337 20.9101ZM3.94498 7.85966L2.99843 7.53182C3.51027 6.06456 4.36567 4.78321 5.77599 3.37592C10.2864 -1.12481 17.6265 -1.12581 22.1379 3.37592C23.2186 4.45338 24.4036 5.7897 25.0116 7.53182L24.064 7.85966C23.5241 6.30944 22.4293 5.08006 21.4297 4.08256C19.4344 2.09157 16.7811 0.996122 13.9574 0.996122C11.1338 0.996122 8.48043 2.09157 6.48515 4.08256C5.18702 5.37791 4.40373 6.54232 3.94498 7.85966Z" fill="#6A6A6A"/>
</svg>
