<svg width="30" height="28" viewBox="0 0 30 28" fill="none" xmlns="http://www.w3.org/2000/svg">
<path fill-rule="evenodd" clip-rule="evenodd" d="M26.8489 16H16.8839L17.9559 12H27.9209L26.8489 16ZM28.5729 11H17.5729C17.3459 11 17.1479 11.152 17.0889 11.371L15.7489 16.371C15.7089 16.521 15.7419 16.681 15.8359 16.804C15.9309 16.928 16.0779 17 16.2329 17H27.2329C27.4589 17 27.6579 16.848 27.7159 16.629L29.0559 11.629C29.0959 11.479 29.0639 11.319 28.9689 11.196C28.8739 11.072 28.7279 11 28.5729 11ZM16.4029 25.5C16.4029 26.327 15.7299 27 14.9029 27C14.0759 27 13.4029 26.327 13.4029 25.5C13.4029 24.673 14.0759 24 14.9029 24C15.7299 24 16.4029 24.673 16.4029 25.5ZM1.15187 18L1.68886 16H10.6539L10.1169 18H1.15187ZM1.15187 12L1.68886 10H5.40286H6.40286H10.6539L10.1169 12H1.15187ZM13.4029 2.5C13.4029 1.673 14.0759 1 14.9029 1C15.7299 1 16.4029 1.673 16.4029 2.5C16.4029 3.327 15.7299 4 14.9029 4C14.0759 4 13.4029 3.327 13.4029 2.5ZM22.4029 21H6.40286V19H10.4999C10.7269 19 10.9239 18.848 10.9839 18.629L11.7879 15.629C11.8279 15.479 11.7959 15.319 11.7019 15.196C11.6069 15.072 11.4599 15 11.3049 15H6.40286V13H10.4999C10.7269 13 10.9239 12.848 10.9839 12.629L11.7879 9.629C11.8279 9.479 11.7959 9.319 11.7019 9.196C11.6069 9.072 11.4599 9 11.3049 9H6.40286V7H22.4029V9H23.4029V6.5C23.4029 6.224 23.1789 6 22.9029 6H15.4029V4.949C16.5419 4.717 17.4029 3.707 17.4029 2.5C17.4029 1.122 16.2819 0 14.9029 0C13.5239 0 12.4029 1.122 12.4029 2.5C12.4029 3.707 13.2629 4.717 14.4029 4.949V6H5.90286C5.62586 6 5.40286 6.224 5.40286 6.5V9H1.30486C1.07786 9 0.880865 9.152 0.821865 9.371L0.0168648 12.371C-0.0231352 12.521 0.00886469 12.681 0.103865 12.804C0.198865 12.928 0.344865 13 0.499865 13H5.40286V15H1.30486C1.07786 15 0.880865 15.152 0.821865 15.371L0.0168648 18.371C-0.0231352 18.521 0.00886469 18.681 0.103865 18.804C0.198865 18.928 0.344865 19 0.499865 19H5.40286V21.5C5.40286 21.776 5.62586 22 5.90286 22H14.4029V23.051C13.2629 23.283 12.4029 24.293 12.4029 25.5C12.4029 26.878 13.5239 28 14.9029 28C16.2819 28 17.4029 26.878 17.4029 25.5C17.4029 24.293 16.5419 23.283 15.4029 23.051V22H22.9029C23.1789 22 23.4029 21.776 23.4029 21.5V19H22.4029V21Z" fill="#6A6A6A"/>
</svg>
