<svg width="27" height="27" viewBox="0 0 27 27" fill="none" xmlns="http://www.w3.org/2000/svg">
<path fill-rule="evenodd" clip-rule="evenodd" d="M17.023 14.7309V11.7359L14.005 13.2619V16.6019L17.023 14.7309ZM9.987 14.2489L13.005 16.5019V13.2349L9.987 11.3909V14.2489ZM10.519 10.5438L13.529 12.3819L16.491 10.8839L13.482 9.06883L10.519 10.5438ZM17.781 10.4948C17.931 10.5848 18.023 10.7478 18.023 10.9229V15.0089C18.023 15.1819 17.933 15.3429 17.787 15.4339L13.769 17.9239C13.688 17.9749 13.596 17.9999 13.505 17.9999C13.4 17.9999 13.294 17.9659 13.207 17.8999L9.188 14.8999C9.061 14.8059 8.987 14.6569 8.987 14.4999V10.4998C8.987 10.3098 9.094 10.1358 9.264 10.0518L13.283 8.05182C13.436 7.97582 13.616 7.98182 13.763 8.07082L17.781 10.4948ZM27 12.4539H22.096L24.377 9.82684L23.622 9.17183L20.622 12.6259C20.461 12.8119 20.459 13.0879 20.618 13.2759L23.618 16.8219L24.381 16.1769L22.078 13.4539H27V12.4539ZM3.377 9.17183L2.622 9.82684L4.903 12.4539H0V13.4539H4.921L2.618 16.1769L3.381 16.8219L6.381 13.2759C6.541 13.0879 6.539 12.8119 6.377 12.6259L3.377 9.17183ZM14.005 25.166V19.4999H13.005V25.172L10.376 22.17L9.624 22.829L13.128 26.829C13.223 26.938 13.36 27 13.504 27C13.649 27 13.786 26.937 13.881 26.829L17.377 22.829L16.623 22.17L14.005 25.166ZM10.385 3.95379L9.719 3.20778L13.171 0.126751C13.361 -0.0422504 13.648 -0.0422504 13.837 0.126751L17.292 3.20778L16.626 3.95379L14.005 1.61576V6.49981H13.005V1.61477L10.385 3.95379Z" fill="#6A6A6A"/>
</svg>
