<svg width="28" height="28" viewBox="0 0 28 28" fill="none" xmlns="http://www.w3.org/2000/svg">
<path fill-rule="evenodd" clip-rule="evenodd" d="M14.7857 18.5395C14.7857 18.9793 14.4332 19.3377 14.0005 19.3377C13.5678 19.3377 13.2163 18.9793 13.2163 18.5395C13.2163 18.0996 13.5678 17.7412 14.0005 17.7412C14.4332 17.7412 14.7857 18.0996 14.7857 18.5395ZM12.2148 18.5395C12.2148 19.5403 13.015 20.3558 14.0005 20.3558C14.985 20.3558 15.7872 19.5403 15.7872 18.5395C15.7872 17.5386 14.985 16.7231 14.0005 16.7231C13.015 16.7231 12.2148 17.5386 12.2148 18.5395ZM12.9779 23.9855H14.981V22.9673H12.9779V23.9855ZM11.9293 25.0209H16.0707V21.9329H11.9293V25.0209ZM10.9278 21.4238V25.53C10.9278 25.811 11.1521 26.0391 11.4286 26.0391H16.5714C16.8489 26.0391 17.0722 25.811 17.0722 25.53V21.4238C17.0722 21.1418 16.8489 20.9148 16.5714 20.9148H11.4286C11.1521 20.9148 10.9278 21.1418 10.9278 21.4238ZM17.9996 26.9819H10.0014V18.0905L14.0005 15.3761L17.9996 18.0905V26.9819ZM14.2779 14.3396C14.1097 14.2256 13.8903 14.2256 13.7221 14.3396L9.22216 17.3941C9.08295 17.4887 8.99982 17.6486 8.99982 17.8186V27.4909C8.99982 27.7719 9.22316 28 9.50059 28H18.5004C18.7768 28 19.0012 27.7719 19.0012 27.4909V17.8186C19.0012 17.6486 18.9181 17.4887 18.7778 17.3941L14.2779 14.3396ZM22.5136 15.0982C22.0799 15.0982 21.7284 14.7408 21.7284 14.2999C21.7284 13.8601 22.0799 13.5027 22.5136 13.5027C22.9452 13.5027 23.2978 13.8601 23.2978 14.2999C23.2978 14.7408 22.9452 15.0982 22.5136 15.0982ZM20.4294 6.88586C19.9957 6.88586 19.6442 6.52849 19.6442 6.08866C19.6442 5.6478 19.9957 5.29044 20.4294 5.29044C20.862 5.29044 21.2146 5.6478 21.2146 6.08866C21.2146 6.52849 20.862 6.88586 20.4294 6.88586ZM18.4674 10.3608C18.9 10.3608 19.2526 10.7181 19.2526 11.158C19.2526 11.5988 18.9 11.9562 18.4674 11.9562C18.0337 11.9562 17.6822 11.5988 17.6822 11.158C17.6822 10.7181 18.0337 10.3608 18.4674 10.3608ZM27.7246 10.2366L24.0159 8.34078V3.56469C24.0159 3.36514 23.9027 3.18493 23.7244 3.10144L17.1934 0.047029C17.0652 -0.0130411 16.919 -0.0160959 16.7908 0.0409198L13.4797 1.45104L10.1676 0.0409198C10.0254 -0.0201685 9.86815 -0.0110052 9.73495 0.0623007L4.20646 3.11671C4.04421 3.20529 3.94406 3.37736 3.94406 3.56469V8.34282L0.274421 10.2376C0.106163 10.3241 0 10.4992 0 10.6917V16.8005C0 16.9695 0.0821261 17.1273 0.220338 17.222L2.96255 19.1066V22.9093C2.96255 23.0783 3.04668 23.2382 3.18589 23.3329L7.69281 26.3873L8.24867 25.5392L3.96409 22.6364V18.8368C3.96409 18.6667 3.88196 18.5089 3.74475 18.4142L1.00154 16.5297V14.0597L4.21648 12.1486L3.7117 11.27L1.00154 12.8796V11.0032L4.42279 9.23674L6.92664 10.7853V13.5038L4.65014 15.3873L5.28211 16.1764L7.43241 14.3977L9.66384 16.1825L10.2838 15.3812L7.92817 13.4976V10.7884L10.7305 9.09216C10.8827 9.00053 10.9749 8.83458 10.9749 8.65538V4.58283H9.97332V8.36521L7.43041 9.90566L4.94559 8.36827V3.86708L6.92664 2.77258V6.61911H7.92817V2.21872L10.0024 1.07331L12.9769 2.34089L12.9779 8.65538C12.9779 8.83763 13.0741 9.00664 13.2303 9.09725L16.6846 11.104C16.6846 11.1223 16.6806 11.1396 16.6806 11.158C16.6806 12.1598 17.4818 12.9743 18.4674 12.9743C19.4519 12.9743 20.2541 12.1598 20.2541 11.158C20.2541 10.1571 19.4519 9.34263 18.4674 9.34263C17.8634 9.34263 17.3306 9.6501 17.0071 10.1184L13.9795 8.35911L13.9785 2.34191L16.9751 1.06517L23.0143 3.8905V5.57959H22.136C21.9177 4.82617 21.2386 4.2723 20.4294 4.2723C19.4439 4.2723 18.6426 5.08681 18.6426 6.08866C18.6426 7.08949 19.4439 7.904 20.4294 7.904C21.2386 7.904 21.9177 7.35013 22.136 6.59773H23.0143V8.65538C23.0143 8.84679 23.1205 9.02293 23.2898 9.10947L26.9985 11.0052V15.9218L24.2943 14.3508C24.2943 14.3346 24.2993 14.3183 24.2993 14.2999C24.2993 13.2991 23.4981 12.4846 22.5136 12.4846C21.5281 12.4846 20.7268 13.2991 20.7268 14.2999C20.7268 15.3018 21.5281 16.1163 22.5136 16.1163C23.1185 16.1163 23.6523 15.8068 23.9748 15.3384L26.5478 16.8331L24.2182 18.4122C24.079 18.5069 23.9948 18.6667 23.9948 18.8368V22.6364L19.7113 25.5392L20.2671 26.3873L24.774 23.3329C24.9123 23.2382 24.9964 23.0783 24.9964 22.9093V19.1086L27.7777 17.224C27.9159 17.1293 28 16.9695 28 16.8005V10.6917C28 10.4992 27.8938 10.3231 27.7246 10.2366Z" fill="#6A6A6A"/>
</svg>
