<svg width="29" height="16" viewBox="0 0 29 16" fill="none" xmlns="http://www.w3.org/2000/svg">
<path fill-rule="evenodd" clip-rule="evenodd" d="M23.92 15.641C24.131 15.577 24.274 15.383 24.274 15.163V9.909H23.274V13.524L21.063 10.236C20.94 10.054 20.71 9.971 20.502 10.037C20.291 10.101 20.148 10.296 20.148 10.516V15.537H21.148V12.154L23.359 15.442C23.454 15.583 23.611 15.663 23.774 15.663C23.823 15.663 23.872 15.656 23.92 15.641ZM14.463 6.223L14.947 6.906L13.155 9.524H12.08L14.463 6.223ZM15.986 5.517L16.835 6.724C16.671 7.065 16.544 7.423 16.465 7.796L14.922 5.587L15.464 4.835L17.492 1.941H18.551L15.986 5.517ZM14.45 4.945L12.319 1.941H13.437L15.015 4.193L14.45 4.945ZM11.196 5.691C11.489 6.051 11.636 6.503 11.636 7.045C11.636 7.837 11.345 8.478 10.762 8.967C10.18 9.456 9.412 9.701 8.46 9.701C7.473 9.701 6.592 9.514 5.818 9.14V8.46C6.752 8.798 7.611 8.967 8.394 8.967C9.132 8.967 9.721 8.794 10.162 8.447C10.602 8.1 10.822 7.628 10.822 7.032C10.822 6.667 10.702 6.356 10.462 6.098C10.222 5.84 9.835 5.609 9.301 5.404L7.753 4.804C7.068 4.537 6.566 4.219 6.245 3.85C5.925 3.481 5.765 3.025 5.765 2.482C5.765 1.744 6.03 1.145 6.559 0.687C7.088 0.229 7.784 0 8.647 0C9.039 0 9.45 0.0470003 9.881 0.14C10.313 0.233 10.72 0.365 11.102 0.534V1.214C10.195 0.894 9.39 0.734 8.687 0.734C8.002 0.734 7.477 0.883 7.113 1.181C6.748 1.479 6.566 1.904 6.566 2.455C6.566 2.767 6.621 3.018 6.732 3.209C6.843 3.401 7.026 3.574 7.279 3.73C7.533 3.885 7.895 4.052 8.367 4.23L9.795 4.777C10.435 5.026 10.902 5.331 11.196 5.691ZM0 9.474H0.787V5.177H4.51V4.47H0.787V0.934H5.191V0.227H0V9.474ZM25.698 13.145L25.616 12.148C25.761 12.135 27.047 11.974 27.047 10.59C27.047 9.442 26.155 9.117 25.624 9.026C25.361 8.981 25.18 8.736 25.213 8.471C25.178 8.016 24.953 7.641 24.612 7.541C24.346 7.463 24.068 7.566 23.889 7.81C23.777 7.959 23.596 8.034 23.413 8.008C23.23 7.981 23.077 7.855 23.015 7.681C22.857 7.233 22.629 6.858 22.339 6.566C21.986 6.214 21.023 5.453 19.658 6.031C18.889 6.357 18.263 7.335 18.263 8.212C18.263 8.314 18.27 8.413 18.281 8.512C18.31 8.761 18.15 8.993 17.908 9.054C17.37 9.191 16.73 9.566 16.73 10.572C16.73 10.642 16.733 10.709 16.738 10.775C16.811 11.537 17.505 12.138 18.319 12.139V13.139C16.994 13.137 15.862 12.139 15.742 10.865C15.734 10.768 15.73 10.672 15.73 10.572C15.73 9.467 16.295 8.612 17.263 8.216V8.212C17.263 6.928 18.125 5.594 19.268 5.11C20.601 4.544 22.015 4.826 23.047 5.861C23.29 6.105 23.5 6.388 23.673 6.706C24.045 6.51 24.478 6.461 24.893 6.581C25.558 6.776 26.019 7.343 26.167 8.127C27.133 8.413 28.047 9.177 28.047 10.59C28.047 12.459 26.511 13.078 25.698 13.145Z" fill="#6A6A6A"/>
</svg>
