<svg width="27" height="24" viewBox="0 0 27 24" fill="none" xmlns="http://www.w3.org/2000/svg">
<path fill-rule="evenodd" clip-rule="evenodd" d="M15.941 18.044L13.5 19.441L11.058 18.044V15.257L13.5 13.86L15.941 15.257V18.044ZM16.941 14.967C16.941 14.788 16.845 14.623 16.689 14.533L13.748 12.85C13.595 12.762 13.404 12.762 13.252 12.85L10.31 14.533C10.154 14.623 10.058 14.788 10.058 14.967V16.046H1V17.046H10.058V18.334C10.058 18.513 10.154 18.679 10.31 18.768L13 20.307V23.984H14V20.307L16.689 18.768C16.845 18.679 16.941 18.513 16.941 18.334V17.046H26V16.046H16.941V14.967ZM3 6H6V5H3V6ZM16 6H24V5H16V6ZM1 9H26V1H1V9ZM26.5 0H0.5C0.223 0 0 0.223 0 0.5V9.5C0 9.776 0.223 10 0.5 10H26.5C26.776 10 27 9.776 27 9.5V0.5C27 0.223 26.776 0 26.5 0Z" fill="#6A6A6A"/>
</svg>
