<svg width="28" height="29" viewBox="0 0 28 29" fill="none" xmlns="http://www.w3.org/2000/svg">
<path fill-rule="evenodd" clip-rule="evenodd" d="M18 26.9128V20.8507L23.25 23.8818L18 26.9128ZM17.75 19.5518C17.596 19.4628 17.404 19.4628 17.25 19.5518C17.096 19.6408 17 19.8058 17 19.9848V27.7787C17 27.9577 17.096 28.1228 17.25 28.2118C17.327 28.2568 17.414 28.2787 17.5 28.2787C17.586 28.2787 17.673 28.2568 17.75 28.2118L24.5 24.3148C24.654 24.2258 24.75 24.0608 24.75 23.8818C24.75 23.7038 24.654 23.5377 24.5 23.4487L17.75 19.5518ZM27 17.1707L21.75 14.1397L27 11.1088V17.1707ZM11 19.1178V9.16275L19.622 14.1408L11 19.1178ZM10 7.42875L4.75 4.39775L10 1.36675V7.42875ZM10 26.9148L4.75 23.8838L10 20.8528V26.9148ZM27.75 9.80875C27.596 9.72075 27.404 9.72075 27.25 9.80875L20.686 13.5998L11 8.00775V0.49975C11 0.32175 10.904 0.15675 10.75 0.06675C10.596 -0.02225 10.404 -0.02225 10.25 0.06675L3.5 3.96475C3.346 4.05375 3.25 4.21875 3.25 4.39775C3.25 4.57675 3.346 4.74175 3.5 4.83075L10 8.58375V19.6978L3.5 23.4508C3.346 23.5398 3.25 23.7048 3.25 23.8838C3.25 24.0628 3.346 24.2277 3.5 24.3167L10.25 28.2148C10.327 28.2588 10.414 28.2817 10.5 28.2817C10.586 28.2817 10.673 28.2588 10.75 28.2148C10.904 28.1248 11 27.9597 11 27.7817V20.2728L20.687 14.6807L27.25 18.4708C27.404 18.5588 27.596 18.5588 27.75 18.4708C27.904 18.3808 28 18.2158 28 18.0378V10.2428C28 10.0638 27.904 9.89875 27.75 9.80875ZM1 17.1707V11.1088L6.25 14.1397L1 17.1707ZM7.75 14.1397C7.75 13.9607 7.654 13.7957 7.5 13.7067L0.75 9.80875C0.596 9.72075 0.404 9.72075 0.25 9.80875C0.096 9.89875 0 10.0638 0 10.2428V18.0368C0 18.2158 0.096 18.3807 0.25 18.4697C0.327 18.5147 0.414 18.5368 0.5 18.5368C0.586 18.5368 0.673 18.5147 0.75 18.4697L7.5 14.5728C7.654 14.4838 7.75 14.3187 7.75 14.1397ZM18 1.36675L23.25 4.39775L18 7.42875V1.36675ZM17.5 8.79475C17.586 8.79475 17.673 8.77275 17.75 8.72775L24.5 4.83075C24.654 4.74175 24.75 4.57675 24.75 4.39775C24.75 4.21875 24.654 4.05375 24.5 3.96475L17.75 0.06675C17.596 -0.02225 17.404 -0.02225 17.25 0.06675C17.096 0.15675 17 0.32175 17 0.49975V8.29475C17 8.47375 17.096 8.63875 17.25 8.72775C17.327 8.77275 17.414 8.79475 17.5 8.79475Z" fill="#6A6A6A"/>
</svg>
