<svg width="26" height="27" viewBox="0 0 26 27" fill="none" xmlns="http://www.w3.org/2000/svg">
<path fill-rule="evenodd" clip-rule="evenodd" d="M17.0244 13.7148C17.3666 14.0311 17.5382 14.4553 17.5382 14.9862C17.5382 15.5661 17.3297 16.0281 16.9137 16.3744C16.4977 16.7198 15.937 16.8924 15.2347 16.8924C14.679 16.8924 14.1303 16.7736 13.5866 16.5381V15.8285C14.2301 16.0421 14.7798 16.1479 15.2347 16.1479C15.6826 16.1479 16.0288 16.0471 16.2712 15.8465C16.5126 15.6459 16.6343 15.3585 16.6343 14.9862C16.6343 14.2716 16.1824 13.9144 15.2786 13.9144C14.9952 13.9144 14.7149 13.9293 14.4366 13.9583V13.3734L16.2971 11.3435H13.6754V10.617H17.2818V11.3176L15.4561 13.2497C15.4861 13.2437 15.515 13.2407 15.5449 13.2407H15.6327C16.2173 13.2407 16.6812 13.3994 17.0244 13.7148ZM11.8767 13.5601C12.2358 13.8964 12.4174 14.3605 12.4174 14.9513C12.4174 15.5301 12.2069 15.9992 11.7879 16.3555C11.3679 16.7138 10.8152 16.8924 10.1308 16.8924C9.52828 16.8924 8.96462 16.7736 8.43888 16.5381V15.8285C9.09431 16.0421 9.65498 16.1479 10.1219 16.1479C10.5698 16.1479 10.915 16.0461 11.1544 15.8425C11.3928 15.6379 11.5135 15.3445 11.5135 14.9603C11.5135 14.5411 11.4008 14.2357 11.1763 14.0471C10.9519 13.8585 10.5858 13.7637 10.077 13.7637C9.71084 13.7637 9.25393 13.7936 8.70424 13.8525V13.2667L8.87284 10.617H12.1061V11.3435H9.61707L9.50134 13.1429C9.82657 13.084 10.1189 13.0541 10.3792 13.0541C11.0167 13.0541 11.5165 13.2227 11.8767 13.5601ZM18.5298 20.0221C16.2882 20.4253 14.3228 21.3355 13 22.081C11.6772 21.3355 9.71184 20.4253 7.46919 20.0221C6.84268 19.9094 3.71514 19.2577 3.71514 17.4633C3.71514 16.6269 4.01642 16.071 4.59205 15.078C5.28839 13.8784 6.15432 12.3854 6.15432 10.2307C6.15432 8.70279 5.75528 7.23472 4.96716 5.86247L5.21656 5.55608C7.82733 6.84949 10.7504 6.67484 13 5.25269C15.2506 6.67384 18.1727 6.84949 20.7834 5.55608L21.0328 5.86247C20.2447 7.23472 19.8447 8.70279 19.8447 10.2307C19.8447 12.3854 20.7106 13.8784 21.4079 15.078C21.9836 16.071 22.2839 16.6269 22.2839 17.4633C22.2839 19.2577 19.1573 19.9094 18.5298 20.0221ZM20.8423 10.2307C20.8423 8.77664 21.2523 7.38143 22.0624 6.08402C22.1751 5.90239 22.1602 5.66885 22.0265 5.50418L21.3002 4.61097C21.1476 4.42235 20.8812 4.36945 20.6707 4.48822C19.5364 5.11496 18.3512 5.43332 17.1521 5.43332C15.7036 5.43332 14.4376 5.0441 13.2843 4.2437C13.1127 4.12594 12.8873 4.12594 12.7157 4.2437C11.5614 5.0441 10.2964 5.43332 8.8479 5.43332C7.64876 5.43332 6.46359 5.11496 5.32829 4.48822C5.1168 4.36945 4.85143 4.42235 4.69979 4.61097L3.97353 5.50418C3.83885 5.66885 3.82488 5.90239 3.93761 6.08402C4.74668 7.38143 5.1567 8.77664 5.1567 10.2307C5.1567 12.117 4.36559 13.4812 3.72911 14.577C3.1026 15.6579 2.71752 16.3754 2.71752 17.4633C2.71752 19.9872 6.22017 20.8116 7.29261 21.0042C9.53925 21.4074 11.4996 22.3595 12.7486 23.087C12.8264 23.1329 12.9132 23.1549 13 23.1549C13.0868 23.1549 13.1736 23.1329 13.2514 23.087C14.5004 22.3595 16.4607 21.4074 18.7064 21.0042C19.7798 20.8116 23.2815 19.9872 23.2815 17.4633C23.2815 16.3754 22.8974 15.6579 22.2709 14.577C21.6344 13.4812 20.8423 12.117 20.8423 10.2307ZM19.0097 22.6978C16.1884 23.2048 13.82 24.7138 13 25.2856C12.18 24.7138 9.8116 23.2048 6.98933 22.6978C5.58369 22.4453 0.997621 21.3215 0.997621 17.4633C0.997621 15.8575 1.62912 14.7677 2.24165 13.7138C2.82925 12.7008 3.4368 11.6539 3.4368 10.2307C3.4368 8.01317 2.17182 6.43931 1.52437 5.77863C2.19975 4.95728 3.83785 2.96027 4.67086 1.88841C5.93385 3.06905 7.39936 3.71277 8.8479 3.71277C10.4571 3.71277 11.7899 3.06307 13 1.67684C14.2101 3.06307 15.5429 3.71277 17.1521 3.71277C18.6006 3.71277 20.0661 3.06905 21.3281 1.88841C22.1612 2.96027 23.8002 4.95728 24.4756 5.77863C23.8272 6.43931 22.5632 8.01317 22.5632 10.2307C22.5632 11.6539 23.1707 12.7008 23.7583 13.7138C24.3699 14.7677 25.0024 15.8575 25.0024 17.4633C25.0024 21.3215 20.4153 22.4453 19.0097 22.6978ZM24.6213 13.2128C24.0516 12.2317 23.5608 11.3844 23.5608 10.2307C23.5608 7.80059 25.4533 6.22674 25.4733 6.21077C25.575 6.12594 25.6419 6.00418 25.6538 5.87245C25.6668 5.74071 25.6279 5.60798 25.5431 5.50518C25.5122 5.46826 22.4774 1.78961 21.7841 0.837516C21.6963 0.717756 21.5596 0.641907 21.4099 0.633923C21.2673 0.625939 21.1176 0.682826 21.0159 0.79061C19.8557 2.03113 18.4839 2.71476 17.1521 2.71476C15.6806 2.71476 14.5224 2.05808 13.3961 0.586019C13.2075 0.338514 12.7925 0.338514 12.6029 0.586019C11.4766 2.05808 10.3184 2.71476 8.8479 2.71476C7.51608 2.71476 6.14435 2.03113 4.98411 0.79061C4.88236 0.682826 4.73371 0.626937 4.58906 0.633923C4.44041 0.641907 4.30374 0.717756 4.21595 0.837516C3.5226 1.78961 0.487837 5.46826 0.456911 5.50518C0.372113 5.60798 0.332208 5.74071 0.345177 5.87344C0.358146 6.00618 0.423989 6.12694 0.527741 6.21077C0.546696 6.22674 2.43918 7.78562 2.43918 10.2307C2.43918 11.3844 1.94835 12.2317 1.37772 13.2128C0.732254 14.3265 0 15.588 0 17.4633C0 20.589 2.54593 22.9134 6.81275 23.6798C10.0021 24.2537 12.6698 26.2766 12.6957 26.2966C12.7855 26.3655 12.8923 26.4004 13 26.4004C13.1067 26.4004 13.2145 26.3655 13.3043 26.2966C13.3302 26.2766 15.9979 24.2537 19.1872 23.6798C23.4531 22.9134 26 20.589 26 17.4633C26 15.588 25.2677 14.3265 24.6213 13.2128Z" fill="#6A6A6A"/>
</svg>
