<svg width="28" height="27" viewBox="0 0 28 27" fill="none" xmlns="http://www.w3.org/2000/svg">
<path fill-rule="evenodd" clip-rule="evenodd" d="M21.2146 5.97956C21.2146 6.41155 20.862 6.76354 20.4294 6.76354C19.9957 6.76354 19.6442 6.41155 19.6442 5.97956C19.6442 5.54758 19.9957 5.19558 20.4294 5.19558C20.862 5.19558 21.2146 5.54758 21.2146 5.97956ZM17.6822 10.9594C17.6822 10.5274 18.0337 10.1755 18.4674 10.1755C18.9 10.1755 19.2526 10.5274 19.2526 10.9594C19.2526 11.3914 18.9 11.7434 18.4674 11.7434C18.0337 11.7434 17.6822 11.3914 17.6822 10.9594ZM17.4648 21.0212C17.4648 20.5892 17.8164 20.2372 18.249 20.2372C18.6827 20.2372 19.0342 20.5892 19.0342 21.0212C19.0342 21.4531 18.6827 21.8051 18.249 21.8051C17.8164 21.8051 17.4648 21.4531 17.4648 21.0212ZM23.2978 14.0453C23.2978 14.4773 22.9462 14.8293 22.5136 14.8293C22.0799 14.8293 21.7284 14.4773 21.7284 14.0453C21.7284 13.6134 22.0799 13.2614 22.5136 13.2614C22.9462 13.2614 23.2978 13.6134 23.2978 14.0453ZM26.9985 15.6383L24.2943 14.0953C24.2943 14.0783 24.2993 14.0623 24.2993 14.0453C24.2993 13.0624 23.4981 12.2614 22.5136 12.2614C21.5281 12.2614 20.7268 13.0624 20.7268 14.0453C20.7268 15.0283 21.5281 15.8293 22.5136 15.8293C23.1185 15.8293 23.6523 15.5253 23.9748 15.0643L26.5478 16.5333L24.2182 18.0842C24.079 18.1772 23.9948 18.3332 23.9948 18.5002V22.2001L16.9931 25.929L13.9795 24.2101V21.5211H16.5434C16.7617 22.2601 17.4388 22.8051 18.249 22.8051C19.2335 22.8051 20.0358 22.0041 20.0358 21.0212C20.0358 20.0382 19.2335 19.2372 18.249 19.2372C17.4388 19.2372 16.7617 19.7822 16.5434 20.5212H13.9795V13.5004C13.9795 13.3484 13.9104 13.2054 13.7922 13.1094L11.2883 11.1094L10.6624 11.8914L12.9779 13.7404V16.2033L9.97332 17.8382V15.5003C9.97332 15.3663 9.92023 15.2373 9.82309 15.1433L7.92817 13.2904V10.5964L10.7305 8.93048C10.8827 8.83949 10.9749 8.67649 10.9749 8.5005V4.5006H9.97332V8.2165L7.43041 9.72846L4.94559 8.2195V3.79762L6.92664 2.72265V6.50055H7.92817V2.17967L10.0024 1.0547L12.9769 2.29866L12.9779 8.5005C12.9779 8.68049 13.0741 8.84549 13.2303 8.93448L16.6856 10.9054C16.6856 10.9244 16.6806 10.9404 16.6806 10.9594C16.6806 11.9424 17.4818 12.7434 18.4674 12.7434C19.4519 12.7434 20.2541 11.9424 20.2541 10.9594C20.2541 9.97646 19.4519 9.17548 18.4674 9.17548C17.8634 9.17548 17.3306 9.47847 17.0071 9.93746L13.9795 8.2105L13.9785 2.30066L16.9751 1.0467L23.0143 3.82062V5.47958H22.136C21.9177 4.7406 21.2386 4.19561 20.4294 4.19561C19.4439 4.19561 18.6426 4.99659 18.6426 5.97956C18.6426 6.96254 19.4439 7.76352 20.4294 7.76352C21.2386 7.76352 21.9177 7.21853 22.136 6.47955H23.0143V8.5005C23.0143 8.68949 23.1205 8.86249 23.2898 8.94748L26.9985 10.8084V15.6383ZM9.98333 25.919L7.96022 24.6751L10.2087 23.3471L9.69789 22.4861L6.99574 24.0831L3.96409 22.2211V18.7802L6.19852 17.4113L5.67371 16.5583L3.47634 17.9052L1.00154 16.2343V13.8084L4.21648 11.9324L3.7117 11.0684L1.00154 12.6504V10.8074L4.42279 9.07248L6.92664 10.5934V13.2294L4.69321 14.6743L5.23905 15.5133L7.36431 14.1373L8.97178 15.7103V18.3832L6.75137 19.5922L7.2301 20.4702L12.9779 17.3423V24.2101L9.98333 25.919ZM27.7246 10.0535L24.0159 8.1925V3.50063C24.0159 3.30563 23.9027 3.12764 23.7244 3.04664L17.1934 0.0467224C17.0652 -0.012276 16.919 -0.0162761 16.7908 0.0397224L13.4797 1.42568L10.1676 0.0397224C10.0254 -0.020276 9.86815 -0.0112762 9.73495 0.0617218L4.20646 3.06164C4.04421 3.14864 3.94406 3.31763 3.94406 3.50063V8.1935L0.274421 10.0545C0.106163 10.1405 0 10.3124 0 10.5004V16.5003C0 16.6663 0.0821261 16.8213 0.220338 16.9143L2.96255 18.7662V22.5001C2.96255 22.6741 3.05269 22.8351 3.20192 22.9261L9.71192 26.926C9.79204 26.975 9.88318 27 9.97332 27C10.0594 27 10.1446 26.978 10.2217 26.934L13.4787 25.076L16.7357 26.934C16.8128 26.978 16.898 27 16.9841 27C17.0652 27 17.1463 26.98 17.2204 26.941L24.732 22.9411C24.8952 22.8541 24.9964 22.6851 24.9964 22.5001V18.7682L27.7777 16.9163C27.9159 16.8233 28 16.6673 28 16.5003V10.5004C28 10.3114 27.8938 10.1385 27.7246 10.0535Z" fill="#6A6A6A"/>
</svg>
