<svg width="28" height="28" viewBox="0 0 28 28" fill="none" xmlns="http://www.w3.org/2000/svg">
<path fill-rule="evenodd" clip-rule="evenodd" d="M11.133 7.812L8.657 4.717L9.439 4.092L11.764 7H20.293L19.147 5.853L19.854 5.146L21.854 7.146C22.049 7.341 22.049 7.658 21.854 7.853L19.854 9.853L19.147 9.146L20.293 7.999H11.524C11.371 7.999 11.228 7.931 11.133 7.812ZM21.854 20.146C22.049 20.341 22.049 20.658 21.854 20.853L19.854 22.853L19.147 22.146L20.293 21H11.764L9.439 23.907L8.657 23.282L11.133 20.187C11.228 20.068 11.371 20 11.524 20H20.293L19.147 18.853L19.854 18.146L21.854 20.146ZM27.854 14.353L25.854 16.353L25.147 15.646L26.293 14.499H15V13.499H26.293L25.147 12.353L25.854 11.646L27.854 13.646C28.049 13.841 28.049 14.158 27.854 14.353ZM3 26.999C1.898 26.999 1 26.103 1 24.999C1 23.896 1.898 23 3 23C4.103 23 5 23.896 5 24.999C5 26.103 4.103 26.999 3 26.999ZM10 11.999C11.103 11.999 12 12.896 12 13.999C12 15.103 11.103 16 10 16C8.898 16 8 15.103 8 13.999C8 12.896 8.898 11.999 10 11.999ZM1 3C1 1.896 1.898 1 3 1C4.103 1 5 1.896 5 3C5 4.103 4.103 4.999 3 4.999C1.898 4.999 1 4.103 1 3ZM4.947 22.737L9.339 16.92C9.553 16.969 9.773 17 10 17C11.654 17 13 15.654 13 13.999C13 12.345 11.654 11 10 11C9.773 11 9.553 11.03 9.339 11.079L4.947 5.262C5.586 4.712 6 3.907 6 3C6 1.345 4.654 0 3 0C1.346 0 0 1.345 0 3C0 4.654 1.346 6 3 6C3.404 6 3.787 5.917 4.139 5.772L4.101 5.801L8.387 11.478C7.556 12.012 7 12.94 7 13.999C7 15.059 7.556 15.987 8.387 16.521L4.101 22.198L4.139 22.227C3.787 22.082 3.404 22 3 22C1.346 22 0 23.345 0 24.999C0 26.654 1.346 27.999 3 27.999C4.654 27.999 6 26.654 6 24.999C6 24.092 5.586 23.287 4.947 22.737Z" fill="#6A6A6A"/>
</svg>
