<svg width="26" height="26" viewBox="0 0 26 26" fill="none" xmlns="http://www.w3.org/2000/svg">
<path fill-rule="evenodd" clip-rule="evenodd" d="M19.484 17.7018V9.8778L13.467 13.2791V21.2142L19.484 17.7018ZM6.484 17.7018L12.467 21.2122V13.2781L6.484 9.8798V17.7018ZM6.994 9.01947L12.968 12.4118L18.969 9.01947L12.968 5.60716L6.994 9.01947ZM20.236 18.4211L13.219 22.5167C13.141 22.5617 13.054 22.5847 12.967 22.5847C12.88 22.5847 12.793 22.5617 12.714 22.5157L5.731 18.4201C5.578 18.331 5.484 18.166 5.484 17.9889V9.02047C5.484 8.8414 5.581 8.67534 5.736 8.5863L12.719 4.59777C12.873 4.50973 13.061 4.50973 13.214 4.59677L20.231 8.5863C20.387 8.67534 20.484 8.8414 20.484 9.02047V17.9889C20.484 18.167 20.389 18.3311 20.236 18.4211ZM13 1.00038C17.037 1.00038 20.803 3.15621 23.077 6.7686L23.922 6.2354C21.465 2.3309 17.382 0 13 0C8.615 0 4.532 2.3309 2.077 6.2364L2.922 6.7686C5.194 3.15621 8.961 1.00038 13 1.00038ZM25 13.4922C24.864 19.0703 20.826 23.9172 15.4 25.0186L15.599 26C21.478 24.8065 25.852 19.5565 26 13.5172L25 13.4922ZM10.599 25.0186L10.4 26C4.521 24.8065 0.147 19.5565 0 13.5172L1 13.4922C1.135 19.0703 5.173 23.9172 10.599 25.0186Z" fill="#6A6A6A"/>
</svg>
