<svg width="27" height="28" viewBox="0 0 27 28" fill="none" xmlns="http://www.w3.org/2000/svg">
<path fill-rule="evenodd" clip-rule="evenodd" d="M25.7144 23.3843L26.7356 24.3956L26.025 25.0994L24.8087 23.8949H22.8205L23.7975 25.5732L25.4822 26.042L25.2088 27.0006L23.8427 26.6194L23.4698 28L22.4978 27.7422L22.9421 26.0998L21.949 24.3926L20.9699 26.0689L21.4012 27.7492L20.4271 27.994L20.0784 26.6323L18.6842 27.0026L18.4228 26.041L20.0814 25.6011L21.0785 23.8949H19.1214L17.87 25.1033L17.1674 24.3906L18.1836 23.4092L17.1633 22.3988L17.874 21.695L19.0893 22.8995H21.0785L20.0975 21.2202L18.4168 20.7514L18.6902 19.7938L20.0552 20.1741L20.4282 18.7934L21.4002 19.0512L20.9549 20.6996L21.949 22.4018L22.928 20.7205L22.4968 19.0453L23.4708 18.7994L23.8206 20.1621L25.2158 19.7918L25.4751 20.7534L23.8126 21.1944L22.8205 22.8995H24.7765L26.029 21.6911L26.7306 22.4038L25.7144 23.3843ZM23.886 15.3801L24.0749 13.9975C25.9506 15.0964 25.9948 15.5673 25.9948 15.5673C25.9908 15.5703 25.6621 15.8251 23.886 15.3801ZM12.6923 0.995414C19.3275 0.995414 24.3302 3.02506 24.3845 4.35593L24.3694 4.48932C24.3684 4.4923 24.3654 4.49529 24.3644 4.49927C24.0156 5.84009 19.1365 7.33421 12.6953 7.33421C6.26425 7.33421 1.38915 5.84408 1.02227 4.50425L1.00116 4.37683C1.00116 3.04696 6.02099 0.995414 12.6923 0.995414ZM12.4893 11.4313C12.4893 11.3198 12.5808 11.2293 12.6933 11.2293C12.8059 11.2293 12.8974 11.3198 12.8974 11.4313C12.8974 11.6543 12.4893 11.6543 12.4893 11.4313ZM24.2217 12.9294L25.3475 4.70234C25.3495 4.69835 25.3525 4.69437 25.3535 4.68939L25.3857 4.44054C25.3887 4.41964 25.3897 4.39873 25.3897 4.37683C25.3897 1.79772 18.6982 0 12.6923 0C6.68642 0 -0.00401707 1.79772 1.80969e-06 4.44253L0.0361899 4.68243C0.0361899 4.68541 0.0351848 4.6874 0.0351848 4.69039L2.76122 24.736C2.76122 27.0205 8.85458 27.8716 12.6953 27.8716C14.0011 27.8716 15.3108 27.789 16.5924 27.6267L16.4648 26.6393C15.2254 26.7965 13.9578 26.8762 12.6953 26.8762C7.15584 26.8762 3.76639 25.4906 3.76136 24.6703L1.24642 6.14569C1.28059 6.16858 1.32181 6.18849 1.359 6.21138C1.44142 6.26115 1.52686 6.31192 1.61532 6.3607C1.70277 6.40848 1.79625 6.45526 1.88973 6.50105C1.98824 6.54982 2.08473 6.59959 2.19028 6.64737C2.26969 6.68221 2.35613 6.71506 2.43856 6.7499C2.66975 6.84546 2.914 6.93804 3.17133 7.02563C3.25476 7.0545 3.33718 7.08337 3.42463 7.11124C3.57641 7.16001 3.73322 7.2068 3.89204 7.25259C3.97346 7.27648 4.05689 7.29937 4.14032 7.32227C4.3132 7.36905 4.4871 7.41583 4.66703 7.45963C4.70321 7.46859 4.74241 7.47755 4.77961 7.48551C5.42694 7.6408 6.11749 7.77418 6.83619 7.88766C6.88846 7.89562 6.93972 7.90458 6.993 7.91255C7.22519 7.94739 7.4594 7.98023 7.69662 8.01209C7.72577 8.01607 7.75593 8.01906 7.78508 8.02304C8.56207 8.12158 9.35918 8.19723 10.1623 8.248C10.1764 8.249 10.1905 8.24999 10.2045 8.25099C10.4639 8.26791 10.7232 8.28085 10.9835 8.2918L11.0891 8.29678C11.6258 8.31867 12.1626 8.33261 12.6923 8.33261C13.212 8.33261 13.7377 8.31868 14.2624 8.29777C14.3207 8.29578 14.378 8.29379 14.4343 8.2908C14.6745 8.28085 14.9118 8.26791 15.151 8.25298C15.2073 8.24999 15.2636 8.24601 15.3189 8.24203C15.9984 8.19624 16.6728 8.13452 17.3332 8.05489C17.4991 8.03498 17.6639 8.01507 17.8268 7.99317C17.9534 7.97625 18.0791 7.95734 18.2037 7.93942C18.4369 7.90558 18.6661 7.86974 18.8933 7.83092C18.9536 7.82097 19.0149 7.81101 19.0752 7.80106C21.172 7.43375 22.9964 6.8803 24.1362 6.14967L22.9089 15.1094C19.8371 14.1737 15.6154 12.2555 13.8985 11.4522C13.8985 11.4453 13.9026 11.4393 13.9026 11.4313C13.9026 10.7714 13.3598 10.2339 12.6933 10.2339C12.0269 10.2339 11.4841 10.7714 11.4841 11.4313C11.4841 12.0923 12.0269 12.6288 12.6933 12.6288C12.9838 12.6288 13.2412 12.5133 13.4502 12.3431C15.4696 13.2888 19.6723 15.187 22.7722 16.1078L22.6757 16.8135L23.6708 16.9479L23.7492 16.3746C24.4659 16.5498 25.055 16.6413 25.5204 16.6413C26.1154 16.6413 26.5185 16.498 26.7628 16.2093C26.9628 15.9724 27.0382 15.6867 26.9819 15.3821C26.8482 14.6764 25.9868 13.9139 24.2217 12.9294Z" fill="#6A6A6A"/>
</svg>
