<svg width="28" height="26" viewBox="0 0 28 26" fill="none" xmlns="http://www.w3.org/2000/svg">
<path fill-rule="evenodd" clip-rule="evenodd" d="M11.347 11.5602H15.197L12.55 15.7952C12.453 15.9492 12.449 16.1432 12.536 16.3022C12.624 16.4612 12.792 16.5602 12.974 16.5602H14.671L10.243 22.5192L11.043 18.1502C11.07 18.0042 11.031 17.8542 10.935 17.7402C10.84 17.6262 10.7 17.5602 10.551 17.5602H8.075L11.347 11.5602ZM9.767 24.8382L16.067 16.3582C16.179 16.2062 16.197 16.0042 16.112 15.8352C16.027 15.6662 15.855 15.5602 15.665 15.5602H13.876L16.523 11.3252C16.619 11.1712 16.624 10.9772 16.536 10.8182C16.449 10.6592 16.281 10.5602 16.099 10.5602H11.05C10.868 10.5602 10.699 10.6602 10.612 10.8212L6.793 17.8212C6.708 17.9762 6.711 18.1642 6.802 18.3152C6.892 18.4672 7.055 18.5602 7.232 18.5602H9.951L8.873 24.4502C8.832 24.6782 8.953 24.9052 9.166 24.9982C9.231 25.0262 9.298 25.0392 9.366 25.0392C9.52 25.0392 9.67 24.9682 9.767 24.8382ZM23.033 18.4642L17.638 18.4612V17.5602H22.993C23.117 17.5472 27 17.0732 27 13.0592C27 9.69217 24.224 8.85117 23.031 8.64517C22.764 8.60017 22.582 8.35017 22.62 8.08217C22.519 6.57017 21.797 5.44617 20.694 5.12317C19.786 4.85617 18.814 5.20817 18.215 6.01817C18.105 6.16717 17.923 6.23917 17.739 6.21617C17.556 6.18817 17.403 6.06217 17.341 5.88817C16.93 4.72217 16.332 3.74217 15.567 2.97417C14.628 2.03217 12.047 0.00617123 8.41 1.54617C6.307 2.43717 4.66 5.00317 4.66 7.38717C4.66 7.65717 4.676 7.92217 4.706 8.18217C4.737 8.43117 4.576 8.66417 4.333 8.72617C3.089 9.04317 1 10.0222 1 13.0182C1 13.1732 1.006 13.3252 1.018 13.4712C1.118 14.7382 1.526 16.3982 2.909 17.1162C3.061 17.1812 3.784 17.2692 4.131 17.3122C4.392 17.3452 4.617 17.3732 4.734 17.3962L4.542 18.3772C4.438 18.3572 4.239 18.3332 4.008 18.3052C3.118 18.1952 2.682 18.1252 2.448 18.0032C1.051 17.2792 0.189 15.6972 0.0219998 13.5502C0.00799984 13.3782 0 13.2012 0 13.0182C0 9.59117 2.317 8.32417 3.675 7.87517C3.664 7.71417 3.66 7.55217 3.66 7.38717C3.66 4.58517 5.535 1.67917 8.02 0.625171C10.934 -0.607829 14.021 0.0051713 16.276 2.26817C16.976 2.97117 17.55 3.82317 17.988 4.80917C18.823 4.11017 19.923 3.85517 20.974 4.16317C22.413 4.58417 23.376 5.91017 23.592 7.74017C25.001 8.07017 28 9.22517 28 13.0592C28 18.0032 23.082 18.4602 23.033 18.4642Z" fill="#6A6A6A"/>
</svg>
