<svg width="28" height="28" viewBox="0 0 28 28" fill="none" xmlns="http://www.w3.org/2000/svg">
<path fill-rule="evenodd" clip-rule="evenodd" d="M28 14C28 21.72 21.655 28 13.857 28C7.876 28 2.521 24.25 0.529 18.668L1.471 18.332C3.32 23.517 8.298 27 13.857 27C21.104 27 27 21.168 27 14C27 6.832 21.104 1 13.857 1C8.733 1 4.045 3.977 1.914 8.585L1.006 8.165C3.301 3.205 8.345 0 13.857 0C21.655 0 28 6.28 28 14ZM0 16H3V15H0V16ZM0 14H3V13H0V14ZM1 12H3V11H1V12ZM21.5 20C20.673 20 20 19.327 20 18.5C20 17.673 20.673 17 21.5 17C22.327 17 23 17.673 23 18.5C23 19.327 22.327 20 21.5 20ZM13.5 20C12.673 20 12 19.327 12 18.5C12 17.673 12.673 17 13.5 17C14.327 17 15 17.673 15 18.5C15 19.327 14.327 20 13.5 20ZM8.5 17C9.327 17 10 17.673 10 18.5C10 19.327 9.327 20 8.5 20C7.673 20 7 19.327 7 18.5C7 17.673 7.673 17 8.5 17ZM18.5 9H4.5C4.224 9 4 9.224 4 9.5V17.5C4 17.776 4.224 18 4.5 18H6.051C6.018 18.162 6 18.329 6 18.5C6 19.878 7.121 21 8.5 21C9.879 21 11 19.878 11 18.5C11 17.122 9.879 16 8.5 16C7.687 16 6.97 16.396 6.513 17H5V10H18V17H15.487C15.03 16.396 14.313 16 13.5 16C12.121 16 11 17.122 11 18.5C11 19.878 12.121 21 13.5 21C14.879 21 16 19.878 16 18.5C16 18.329 15.982 18.162 15.949 18H18.5C18.776 18 19 17.776 19 17.5V13H21.833C23.109 13 24 13.908 24 15.208V17H23.487C23.03 16.396 22.313 16 21.5 16C20.121 16 19 17.122 19 18.5C19 19.878 20.121 21 21.5 21C22.879 21 24 19.878 24 18.5C24 18.329 23.982 18.162 23.949 18H24.5C24.776 18 25 17.776 25 17.5V15.208C25 13.35 23.668 12 21.833 12H19V9.5C19 9.224 18.776 9 18.5 9Z" fill="#6A6A6A"/>
</svg>
