<svg width="27" height="25" viewBox="0 0 27 25" fill="none" xmlns="http://www.w3.org/2000/svg">
<path fill-rule="evenodd" clip-rule="evenodd" d="M25.9993 5C25.9993 4.449 25.551 4 24.9987 4C24.4463 4 23.998 4.449 23.998 5C23.998 5.551 24.4463 6 24.9987 6C25.551 6 25.9993 5.551 25.9993 5ZM14.5097 16C14.5097 15.448 14.0604 15 13.509 15C12.9566 15 12.5083 15.448 12.5083 16C12.5083 16.551 12.9566 17 13.509 17C14.0604 17 14.5097 16.551 14.5097 16ZM13.509 9C14.0604 9 14.5097 8.551 14.5097 8C14.5097 7.448 14.0604 7 13.509 7C12.9566 7 12.5083 7.448 12.5083 8C12.5083 8.551 12.9566 9 13.509 9ZM3.002 19C3.002 18.448 2.5527 18 2.00133 18C1.44897 18 1.00067 18.448 1.00067 19C1.00067 19.551 1.44897 20 2.00133 20C2.5527 20 3.002 19.551 3.002 19ZM27 5C27 6.103 26.1024 7 24.9987 7C24.6234 7 24.2752 6.89 23.975 6.709L15.049 14.738C15.3322 15.083 15.5103 15.519 15.5103 16C15.5103 17.103 14.6117 18 13.509 18C12.4053 18 11.5077 17.103 11.5077 16C11.5077 15.07 12.1471 14.294 13.0087 14.071V9.928C12.7075 9.85 12.4363 9.704 12.2081 9.507L3.71848 17.99C3.8946 18.288 4.00267 18.63 4.00267 19C4.00267 20.103 3.10407 21 2.00133 21C0.897598 21 0 20.103 0 19C0 17.896 0.897598 17 2.00133 17C2.37158 17 2.71281 17.107 3.01101 17.283L11.6318 8.669C11.5557 8.458 11.5077 8.235 11.5077 8C11.5077 6.896 12.4053 6 13.509 6C14.6117 6 15.5103 6.896 15.5103 8C15.5103 8.929 14.8699 9.705 14.0093 9.928V14.071C14.0814 14.089 14.1514 14.11 14.2205 14.136L23.2725 5.995C23.1024 5.701 22.9973 5.364 22.9973 5C22.9973 3.897 23.8949 3 24.9987 3C26.1024 3 27 3.897 27 5ZM2.00133 1H25.0167V2H26.0173V0.5C26.0173 0.223 25.7932 0 25.517 0H1.501C1.22382 0 1.00067 0.223 1.00067 0.5V16H2.00133V1ZM25.0167 8H26.0173V24.5C26.0173 24.776 25.7932 25 25.517 25H1.501C1.22382 25 1.00067 24.776 1.00067 24.5V22H2.00133V24H25.0167V8Z" fill="#6A6A6A"/>
</svg>
