<svg width="27" height="28" viewBox="0 0 27 28" fill="none" xmlns="http://www.w3.org/2000/svg">
<path fill-rule="evenodd" clip-rule="evenodd" d="M2.94825 9.5H8.84474V8.5H2.94825V9.5ZM2.94825 7.5H8.84474V6.5H2.94825V7.5ZM2.94825 5.5H8.84474V4.5H2.94825V5.5ZM15.724 26.5H16.7067V21.5H15.724V26.5ZM12.7757 27.5H13.7585V21.5H12.7757V27.5ZM9.82748 26.5H10.8102V21.5H9.82748V26.5ZM0.982749 19.5H10.8102V1.5H0.982749V19.5ZM11.793 1V20C11.793 20.276 11.5728 20.5 11.3016 20.5H0.491374C0.220135 20.5 0 20.276 0 20V1C0 0.724 0.220135 0.5 0.491374 0.5H11.3016C11.5728 0.5 11.793 0.724 11.793 1ZM26.999 15.625C27.0275 17.167 26.4163 18.391 25.1318 19.359C23.7304 20.422 22.0047 20.497 21.931 20.5H15.724V19.5H21.9143C21.9104 19.5 23.3953 19.43 24.5461 18.557C25.5859 17.772 26.0389 16.872 26.0163 15.634C26.0163 13.537 24.6798 11.837 22.9098 11.672C22.6406 11.646 22.442 11.406 22.4646 11.132C22.4696 11.076 22.4774 11.019 22.4872 10.958C22.5197 10.75 22.556 10.513 22.2593 9.864C22.0912 9.495 21.8101 9.192 21.4701 9.01C20.449 8.464 19.3847 8.577 18.628 9.315C18.5091 9.432 18.3401 9.48 18.1789 9.441C18.0177 9.404 17.886 9.287 17.829 9.129C17.0291 6.958 14.9653 5.5 12.6932 5.5H12.6902C12.421 5.499 12.2008 5.275 12.2008 5C12.2008 4.724 12.419 4.5 12.6902 4.5L12.6932 4.532V4.5C15.153 4.5 17.4045 5.949 18.4875 8.166C19.4899 7.526 20.7537 7.5 21.9271 8.125C22.4568 8.407 22.8912 8.875 23.1506 9.442C23.4258 10.043 23.4946 10.439 23.4906 10.753C25.522 11.203 26.999 13.208 26.999 15.625Z" fill="#6A6A6A"/>
</svg>
