<svg width="28" height="28" viewBox="0 0 28 28" fill="none" xmlns="http://www.w3.org/2000/svg">
<path fill-rule="evenodd" clip-rule="evenodd" d="M8 3H10V2H8V3ZM5 3H7V2H5V3ZM2 3H4V2H2V3ZM1 4H27V1H1V4ZM27.5 0H0.5C0.224 0 0 0.224 0 0.5V4V5V27.5C0 27.776 0.224 28 0.5 28H18V27H1V5H27V27H24V28H27.5C27.776 28 28 27.776 28 27.5V5V4V0.5C28 0.224 27.776 0 27.5 0ZM14 18.696C12.511 18.696 11.3 17.485 11.3 15.996C11.3 14.507 12.511 13.296 14 13.296C15.489 13.296 16.7 14.507 16.7 15.996C16.7 17.485 15.489 18.696 14 18.696ZM14 12.296C11.96 12.296 10.3 13.956 10.3 15.996C10.3 18.036 11.96 19.696 14 19.696C16.04 19.696 17.7 18.036 17.7 15.996C17.7 13.956 16.04 12.296 14 12.296ZM21.5 17.057L20.701 17.011C20.437 16.998 20.237 17.163 20.186 17.4C20.027 18.101 19.752 18.766 19.366 19.377C19.235 19.584 19.273 19.854 19.456 20.017L20.054 20.55L18.554 22.049L18.023 21.455C17.86 21.272 17.589 21.234 17.384 21.365C16.773 21.75 16.107 22.026 15.404 22.185C15.166 22.238 15.002 22.457 15.016 22.701L15.061 23.496H12.939L12.984 22.7C12.998 22.457 12.834 22.238 12.596 22.184C11.894 22.025 11.229 21.749 10.619 21.363C10.412 21.234 10.142 21.271 9.979 21.454L9.447 22.049L7.946 20.549L8.542 20.018C8.725 19.855 8.762 19.585 8.632 19.378C8.248 18.77 7.973 18.104 7.813 17.4C7.76 17.163 7.568 17.008 7.298 17.011L6.5 17.057V14.935L7.301 14.981C7.554 14.992 7.763 14.831 7.816 14.592C7.976 13.892 8.251 13.228 8.637 12.618C8.768 12.412 8.729 12.141 8.547 11.978L7.946 11.443L9.447 9.943L9.981 10.542C10.144 10.723 10.414 10.763 10.621 10.632C11.231 10.248 11.896 9.973 12.596 9.814C12.834 9.761 12.998 9.542 12.984 9.298L12.939 8.496H15.061L15.016 9.299C15.002 9.543 15.166 9.761 15.404 9.815C16.104 9.974 16.769 10.249 17.378 10.633C17.584 10.764 17.856 10.727 18.018 10.543L18.553 9.943L20.054 11.443L19.455 11.977C19.272 12.139 19.234 12.41 19.365 12.617C19.75 13.226 20.025 13.891 20.185 14.592C20.238 14.831 20.462 14.992 20.7 14.981L21.5 14.935V17.057ZM21.972 13.907L21.054 13.959C20.902 13.434 20.692 12.928 20.428 12.449L21.114 11.836C21.217 11.745 21.277 11.615 21.281 11.478C21.285 11.34 21.232 11.207 21.135 11.11L18.886 8.861C18.789 8.765 18.659 8.719 18.518 8.715C18.381 8.719 18.251 8.779 18.159 8.882L17.545 9.571C17.066 9.306 16.562 9.097 16.037 8.946L16.089 8.024C16.097 7.887 16.048 7.752 15.953 7.653C15.858 7.553 15.728 7.496 15.59 7.496H12.41C12.272 7.496 12.142 7.553 12.047 7.653C11.952 7.752 11.903 7.887 11.911 8.024L11.963 8.945C11.438 9.096 10.934 9.305 10.454 9.57L9.841 8.882C9.749 8.779 9.619 8.719 9.482 8.715C9.354 8.723 9.212 8.765 9.114 8.861L6.865 11.11C6.768 11.207 6.715 11.34 6.719 11.478C6.723 11.615 6.783 11.745 6.886 11.836L7.574 12.45C7.309 12.929 7.1 13.435 6.947 13.959L6.028 13.907C5.909 13.904 5.757 13.948 5.656 14.042C5.557 14.137 5.5 14.268 5.5 14.406V17.586C5.5 17.724 5.557 17.855 5.656 17.949C5.757 18.044 5.896 18.094 6.028 18.085L6.944 18.033C7.096 18.56 7.305 19.066 7.569 19.545L6.886 20.156C6.783 20.248 6.723 20.377 6.719 20.515C6.715 20.652 6.768 20.785 6.865 20.882L9.114 23.131C9.212 23.228 9.351 23.288 9.482 23.277C9.619 23.273 9.749 23.213 9.841 23.11L10.451 22.426C10.931 22.692 11.437 22.902 11.963 23.054L11.911 23.968C11.903 24.105 11.952 24.24 12.047 24.339C12.142 24.439 12.272 24.496 12.41 24.496H15.59C15.728 24.496 15.858 24.439 15.953 24.339C16.048 24.24 16.097 24.105 16.089 23.968L16.037 23.054C16.564 22.903 17.07 22.693 17.551 22.427L18.159 23.11C18.25 23.213 18.38 23.273 18.518 23.277C18.662 23.291 18.789 23.229 18.886 23.131L21.135 20.882C21.232 20.785 21.285 20.652 21.281 20.515C21.277 20.377 21.217 20.247 21.114 20.156L20.429 19.544C20.694 19.064 20.904 18.558 21.055 18.033L21.972 18.085C22.11 18.094 22.243 18.044 22.344 17.949C22.443 17.855 22.5 17.724 22.5 17.586V14.406C22.5 14.268 22.443 14.137 22.344 14.042C22.243 13.948 22.097 13.904 21.972 13.907Z" fill="#6A6A6A"/>
</svg>
