<svg width="21" height="28" viewBox="0 0 21 28" fill="none" xmlns="http://www.w3.org/2000/svg">
  <path fill-rule="evenodd" clip-rule="evenodd" d="M15.485 22.4534C14.933 22.4534 14.485 22.0044 14.485 21.4534C14.485 20.9024 14.933 20.4534 15.485 20.4534C16.037 20.4534 16.485 20.9024 16.485 21.4534C16.485 22.0044 16.037 22.4534 15.485 22.4534ZM11.004 21.4534C11.004 22.0044 10.555 22.4534 10.005 22.4534C9.454 22.4534 9.006 22.0044 9.006 21.4534C9.006 20.9024 9.454 20.4534 10.005 20.4534C10.555 20.4534 11.004 20.9024 11.004 21.4534ZM5.506 21.4534C5.506 22.0044 5.057 22.4534 4.506 22.4534C3.954 22.4534 3.506 22.0044 3.506 21.4534C3.506 20.9024 3.954 20.4534 4.506 20.4534C5.057 20.4534 5.506 20.9024 5.506 21.4534ZM8.006 12.4534C8.006 11.3504 8.903 10.4534 10.006 10.4534C11.108 10.4534 12.006 11.3504 12.006 12.4534C12.006 13.5564 11.108 14.4534 10.006 14.4534C8.903 14.4534 8.006 13.5564 8.006 12.4534ZM15.985 19.5244V16.9534C15.985 16.6774 15.761 16.4534 15.485 16.4534H10.506V15.4024C11.922 15.1634 13.006 13.9364 13.006 12.4534C13.006 10.7994 11.66 9.45339 10.006 9.45339C8.351 9.45339 7.006 10.7994 7.006 12.4534C7.006 13.9364 8.089 15.1634 9.506 15.4024V16.4534H4.506C4.229 16.4534 4.006 16.6774 4.006 16.9534V19.5244C3.145 19.7474 2.506 20.5244 2.506 21.4534C2.506 22.5564 3.403 23.4534 4.506 23.4534C5.608 23.4534 6.506 22.5564 6.506 21.4534C6.506 20.5244 5.866 19.7474 5.006 19.5244V17.4534H9.506V19.5244C8.645 19.7474 8.006 20.5234 8.006 21.4534C8.006 22.5564 8.902 23.4534 10.005 23.4534C11.107 23.4534 12.004 22.5564 12.004 21.4534C12.004 20.5244 11.365 19.7484 10.506 19.5244V17.4534H14.985V19.5244C14.125 19.7474 13.485 20.5244 13.485 21.4534C13.485 22.5564 14.382 23.4534 15.485 23.4534C16.588 23.4534 17.485 22.5564 17.485 21.4534C17.485 20.5244 16.845 19.7474 15.985 19.5244ZM10.006 26.4534C4.933 26.4534 1 24.8444 1 23.4604V5.00739C3.031 6.34839 7.693 6.53039 10.006 6.53039C12.316 6.53039 16.971 6.34939 19.006 5.01139V23.4604C19.006 24.8444 15.074 26.4534 10.006 26.4534ZM10.006 1.40039C15.849 1.40039 19.003 2.46539 19.003 3.46739C19.003 4.46739 15.849 5.53039 10.006 5.53039C4.162 5.53039 1.008 4.46739 1.008 3.46739C1.008 2.46539 4.162 1.40039 10.006 1.40039ZM20.006 3.45339C19.981 0.699391 13.006 0.400391 10.006 0.400391C7.006 0.400391 0.025 0.699391 0 3.45339V23.4604C0 25.9264 5.193 27.4534 10.006 27.4534C14.815 27.4534 20.006 25.9264 20.006 23.4604V3.45339Z" fill="currentColor" />
</svg>
