<svg width="28" height="27" viewBox="0 0 28 27" fill="none" xmlns="http://www.w3.org/2000/svg">
<path fill-rule="evenodd" clip-rule="evenodd" d="M24.971 14.43L22.027 13.167V23.656C24.573 23.304 24.959 20.688 24.975 20.569L24.971 14.43ZM21.027 23.67V13.16L17.992 14.433V20.634C18.004 20.688 18.437 23.401 21.027 23.67ZM21.333 11.948C21.458 11.895 21.599 11.896 21.724 11.949L25.668 13.641C25.852 13.72 25.971 13.9 25.971 14.1V20.634C25.788 22.081 24.614 24.697 21.444 24.697C18.369 24.697 17.19 22.085 16.996 20.703L16.992 14.1C16.992 13.899 17.113 13.717 17.298 13.639L21.333 11.948ZM26.983 12.585L21.522 10.179L15.992 12.506V19.634C15.991 19.676 15.938 22.502 17.649 24.257C18.566 25.198 19.843 25.676 21.444 25.676C23.046 25.676 24.331 25.197 25.263 24.254C26.998 22.496 26.983 19.669 26.983 19.641V12.585ZM25.98 24.951C24.853 26.095 23.326 26.676 21.444 26.676C19.56 26.676 18.04 26.095 16.927 24.949C14.922 22.886 14.988 19.752 14.992 19.62V12.174C14.992 11.973 15.112 11.791 15.297 11.713L21.332 9.17302C21.459 9.12002 21.603 9.12102 21.728 9.17702L27.684 11.802C27.866 11.882 27.983 12.061 27.983 12.259V19.634C27.985 19.759 28.01 22.889 25.98 24.951ZM4.992 17.637H12.992V18.637H4.992C2.181 18.637 0.181 16.621 0.013 13.621C0.00100001 13.51 0 13.376 0 13.242C0 10.733 1.318 9.01902 3.817 8.26302C3.798 8.03602 3.785 7.79702 3.785 7.61602C3.785 4.70002 5.362 2.17102 7.802 1.17102C11.1 -0.176977 14.844 0.276024 16.908 2.27502C17.653 2.99902 18.232 3.81702 18.668 4.76002C19.277 4.30902 20.068 4.09702 21.017 4.14602C22.797 4.23602 24.166 5.85902 24.45 8.15302C25.948 8.27702 26.935 9.03602 27.46 10.461L26.523 10.807C26.095 9.65002 25.315 9.13402 23.992 9.13402C23.727 9.13402 23.508 8.92802 23.492 8.66402C23.354 6.32602 22.086 5.20102 20.966 5.14502C20.018 5.09502 19.321 5.36402 18.887 5.93602C18.777 6.08102 18.601 6.15202 18.414 6.12902C18.234 6.10102 18.082 5.97802 18.019 5.80602C17.615 4.70302 17.024 3.78302 16.212 2.99202C14.424 1.26202 11.122 0.893023 8.181 2.09702C6.118 2.94202 4.785 5.10802 4.785 7.61602C4.785 7.88902 4.82 8.31202 4.851 8.57502C4.881 8.82602 4.72 9.05902 4.475 9.11902C2.169 9.69102 1 11.078 1 13.242C1 13.343 0.999 13.443 1.009 13.544C1.15 16.039 2.712 17.637 4.992 17.637Z" fill="#6A6A6A"/>
</svg>
