<svg width="26" height="27" viewBox="0 0 26 27" fill="none" xmlns="http://www.w3.org/2000/svg">
<path fill-rule="evenodd" clip-rule="evenodd" d="M25.888 13.913C4.234 13.913 1 17.801 1 20.119H0C0 16.587 4.767 14.346 14.172 13.413C4.767 12.48 0 10.238 0 6.706H1C1 9.024 4.234 12.913 25.888 12.913V13.913ZM8.908 16.792V17.854C4.51 19.491 3.874 21.836 3.874 23.952H2.874C2.874 21.575 3.592 18.653 8.908 16.792ZM8.908 19.838V21.078C6.754 22.82 6.748 24.931 6.748 26.826H5.748C5.748 24.746 5.752 21.951 8.908 19.838ZM24.931 24.775C24.931 25.379 24.44 25.871 23.835 25.871H13.028C12.423 25.871 11.931 25.379 11.931 24.775V17.967C11.931 17.363 12.423 16.871 13.028 16.871H23.835C24.44 16.871 24.931 17.363 24.931 17.967V24.775ZM23.835 15.871H13.028C11.871 15.871 10.931 16.811 10.931 17.967V24.775C10.931 25.931 11.871 26.871 13.028 26.871H23.835C24.991 26.871 25.931 25.931 25.931 24.775V17.967C25.931 16.811 24.991 15.871 23.835 15.871ZM2.874 2.874H3.874C3.874 6.891 6.49 10.997 25.888 10.997V11.997C5.609 11.997 2.874 7.386 2.874 2.874ZM5.748 0H6.748C6.748 3.617 6.748 9.081 25.888 9.081V10.081C7.303 10.081 5.748 5.101 5.748 0ZM17.405 22.588V20.177L19.797 21.382L17.405 22.588ZM21.133 20.935L17.129 18.918C16.976 18.84 16.791 18.848 16.642 18.939C16.494 19.031 16.405 19.192 16.405 19.365V23.4C16.405 23.574 16.494 23.735 16.643 23.826C16.723 23.875 16.814 23.9 16.905 23.9C16.982 23.9 17.059 23.883 17.129 23.847L21.133 21.828C21.302 21.743 21.409 21.571 21.409 21.382C21.409 21.193 21.302 21.02 21.133 20.935Z" fill="#6A6A6A"/>
</svg>
