<svg width="28" height="28" viewBox="0 0 28 28" fill="none" xmlns="http://www.w3.org/2000/svg">
<path fill-rule="evenodd" clip-rule="evenodd" d="M10 5.51244L13.3333 4.1665V15.2369C10.0973 14.8837 10 11.9755 10 11.9436V5.51244ZM18 11.9436C18 11.9755 17.9027 14.8837 14.6667 15.2369V4.1665L18 5.51244V11.9436ZM14 16.5453C18.3753 16.5453 19.3333 13.224 19.3333 11.9436V5.09052C19.3333 4.83533 19.1733 4.60433 18.9267 4.50505L14.26 2.62011C14.0933 2.55329 13.9067 2.55329 13.74 2.62011L9.07333 4.50505C8.82667 4.60433 8.66667 4.83533 8.66667 5.09052V11.9436C8.66667 13.224 9.62533 16.5453 14 16.5453ZM7.33333 3.67395L14 1.31491L20.6667 3.67395V11.4301C20.6667 13.8159 19.8007 17.818 14 17.818C7.65467 17.818 7.33333 12.4966 7.33333 11.4301V3.67395ZM14 19.0908C21.4233 19.0908 22 13.2272 22 11.4301V3.23167C22 2.96503 21.8267 2.72702 21.5653 2.63475L14.232 0.0396143C14.082 -0.0132048 13.918 -0.0132048 13.768 0.0396143L6.43467 2.63475C6.17333 2.72702 6 2.96503 6 3.23167V11.4301C6 12.2141 6.22467 19.0908 14 19.0908ZM25.3333 22.909C24.598 22.909 24 22.3382 24 21.6363C24 20.9343 24.598 20.3635 25.3333 20.3635C26.0687 20.3635 26.6667 20.9343 26.6667 21.6363C26.6667 22.3382 26.0687 22.909 25.3333 22.909ZM15.3333 25.4545C15.3333 26.1564 14.7353 26.7273 14 26.7273C13.2647 26.7273 12.6667 26.1564 12.6667 25.4545C12.6667 24.7526 13.2647 24.1818 14 24.1818C14.7353 24.1818 15.3333 24.7526 15.3333 25.4545ZM2.66667 22.909C1.93133 22.909 1.33333 22.3382 1.33333 21.6363C1.33333 20.9343 1.93133 20.3635 2.66667 20.3635C3.402 20.3635 4 20.9343 4 21.6363C4 22.3382 3.402 22.909 2.66667 22.909ZM25.3333 19.0908C24.6687 19.0908 24.0673 19.3326 23.5993 19.7182L22.4847 18.6529C24.1513 17.3452 25.5687 15.6531 26.5987 13.6434L25.4013 13.0834C23.0973 17.5743 18.7287 20.3635 14 20.3635C9.094 20.3635 4.13067 17.37 1.932 13.0834L0.734667 13.6434C1.72667 15.5773 3.19467 17.2478 4.948 18.5594L4.01333 19.4516C3.616 19.2282 3.15933 19.0908 2.66667 19.0908C1.196 19.0908 0 20.2331 0 21.6363C0 23.0401 1.196 24.1818 2.66667 24.1818C4.13733 24.1818 5.33333 23.0401 5.33333 21.6363C5.33333 21.166 5.18933 20.7301 4.956 20.3514L6.04467 19.3122C8.224 20.6677 10.748 21.4899 13.3333 21.6121V22.9994C12.186 23.2845 11.3333 24.2721 11.3333 25.4545C11.3333 26.8583 12.5293 28 14 28C15.4707 28 16.6667 26.8583 16.6667 25.4545C16.6667 24.2721 15.814 23.2845 14.6667 22.9994V21.6121C17.0833 21.4918 19.3933 20.7262 21.408 19.4261L22.8313 20.7848C22.7313 21.0521 22.6667 21.3365 22.6667 21.6363C22.6667 23.0401 23.8627 24.1818 25.3333 24.1818C26.804 24.1818 28 23.0401 28 21.6363C28 20.2331 26.804 19.0908 25.3333 19.0908Z" fill="#6A6A6A"/>
</svg>
