<svg width="28" height="18" viewBox="0 0 28 18" fill="none" xmlns="http://www.w3.org/2000/svg">
<path fill-rule="evenodd" clip-rule="evenodd" d="M12.9171 13.5457C12.6792 14.3385 12.7855 15.0077 13.0062 15.2353L12.2721 15.9174C11.7516 15.3809 11.623 14.3405 11.946 13.2665C12.3379 11.9659 13.227 11.0908 14.1191 11.1809L14.0087 12.1648C13.7829 12.1371 13.2077 12.5786 12.9171 13.5457ZM2.91655 13.6555C2.6644 14.4385 2.77579 15.1007 3.00971 15.3264L2.29784 16.0302C1.73888 15.4887 1.60217 14.4405 1.95051 13.3596C2.36467 12.0639 3.31855 11.1977 4.22585 11.2819L4.12054 12.2668C3.82992 12.2401 3.21932 12.7132 2.91655 13.6555ZM9.43271 9.8565L8.55174 9.3685C11.4762 4.31928 16.2496 6.32075 16.3003 6.34154L15.8912 7.24626C15.7291 7.17697 11.8994 5.60212 9.43271 9.8565ZM26.6866 15.8778C26.3383 16.5736 25.513 16.931 24.2351 16.9389C24.1328 16.9399 24.0316 16.9389 23.9384 16.9399L23.99 16.826C24.3222 16.7449 24.6067 16.6033 24.8265 16.3846C25.1586 16.054 25.3287 15.5808 25.3176 14.9998L25.3054 14.7582C25.3925 14.7038 25.4654 14.6286 25.5069 14.5306L26.0345 13.2745L26.3454 12.4321C27.0461 13.5764 27.196 14.8592 26.6866 15.8778ZM26.7211 11.2354C26.8618 10.7147 26.9783 10.1871 27.0492 9.64863L27.4866 5.84959C27.6496 4.60633 27.3408 3.43336 26.6178 2.54744C25.8644 1.62292 24.7617 1.07751 23.6721 1.05772C23.6346 1.04881 23.5972 1.04287 23.5587 1.04287L22.1471 1.0201C22.14 0.792437 21.9739 0.595457 21.741 0.548934C19.0536 0.0183744 16.8481 -0.0885301 15.0193 0.0629171V0.0530189H4.70786V1.04287H10.8929C9.54106 1.64074 8.60237 2.41183 7.95734 3.14432V3.06315H1.64875V4.05301H7.28395L6.47487 5.46948C5.93312 6.10101 5.16556 6.4039 4.11447 6.37816C2.38999 6.48309 1.13536 7.35416 0.482222 8.91515C0.404251 9.12599 0.232106 9.60508 0.180463 9.90401C0.172362 9.92579 0.165274 9.94954 0.160211 9.97231C-0.0463623 10.973 0.023508 11.8045 0.0265458 11.8392C0.041735 12.0243 0.162236 12.1846 0.338431 12.2549C0.385011 12.2737 0.433616 12.2856 0.482222 12.2896C0.457919 12.3559 0.436655 12.4242 0.414377 12.4915C0.279699 12.9122 0.176413 13.3408 0.107555 13.7941C0.107555 13.7941 0.0326218 14.583 0.0305965 14.583V14.5811C-0.175977 16.7558 0.702972 17.5655 1.47863 17.8614C1.72976 17.9584 1.98292 18 2.23202 18C3.0654 18 3.85321 17.5229 4.38078 16.9854C4.42331 16.9418 4.45977 16.8884 4.50129 16.8439H8.70566V15.854H5.24353C5.57871 15.3106 5.86528 14.7048 6.07388 14.0545C6.62778 12.3272 6.58423 10.5969 5.95945 9.53777L5.08354 10.0327C5.56251 10.8463 5.57263 12.3084 5.10683 13.7585C4.78279 14.7721 4.26535 15.6739 3.6517 16.2994C3.21324 16.7449 2.48315 17.1814 1.84723 16.9399C1.19206 16.6884 0.919671 15.9263 1.04017 14.6711L1.11207 13.9159C1.16979 13.5397 1.25991 13.1606 1.38041 12.7874C1.58293 12.1559 1.8695 11.5491 2.20974 11.0324C2.34442 10.8275 2.30594 10.5583 2.12063 10.396C1.9333 10.2326 1.65584 10.2277 1.46243 10.3821C1.33484 10.4841 1.20422 10.59 1.06853 10.7008C1.08473 10.5514 1.10903 10.391 1.14143 10.2267C1.16067 10.1782 1.17181 10.1247 1.17687 10.0772C1.187 9.97924 1.30649 9.59518 1.42598 9.27249C1.92317 8.08863 2.8487 7.4472 4.13067 7.36703C5.74376 7.40068 6.73309 6.7068 7.30319 6.03073L8.25099 4.38955C9.37905 2.72661 12.3055 0.24604 19.5244 1.1864C18.7852 1.7229 18.449 2.45935 18.4399 2.85925C18.4348 3.07305 18.5705 3.26508 18.7771 3.33734C18.9837 3.40861 19.2115 3.34328 19.3462 3.17402C20.3507 1.90899 21.6772 1.99511 21.7663 2.00203L23.4807 2.03173C23.5111 2.03767 23.5404 2.04064 23.5718 2.04163C24.4386 2.06044 25.2599 2.47023 25.8269 3.16412C26.3768 3.8392 26.6097 4.74887 26.4811 5.73179L26.0436 9.53084C25.9353 10.3514 25.7368 11.1591 25.4513 11.9332L24.6989 13.8476H24.2655C24.2827 13.6437 24.2341 13.4368 24.1217 13.2537C23.9344 12.9419 23.6002 12.7558 23.2306 12.7558H20.8175C20.1077 12.7558 19.4546 13.1339 19.1133 13.7427C19.0961 13.7753 19.0809 13.81 19.0708 13.8456L17.7493 13.8446C17.7108 13.6941 17.6693 13.518 17.6227 13.321C17.5215 12.8914 17.3989 12.3757 17.243 11.8372L16.2689 12.1064C16.4187 12.6281 16.5372 13.1289 16.6364 13.5457C16.7357 13.9624 16.8177 14.3009 16.8896 14.5038C16.9716 14.7384 17.2136 14.8899 17.4678 14.8404C17.4779 14.8384 17.487 14.8364 17.4951 14.8345L19.4576 14.8354C19.6864 14.8354 19.8869 14.685 19.9457 14.4702L20.0277 14.1732C20.1978 13.908 20.4955 13.7456 20.8175 13.7456L23.2519 13.7822C23.2326 13.8179 23.2164 13.8555 23.2063 13.8951L23.1202 14.2168C23.0807 14.3653 23.1131 14.5227 23.2093 14.6444C23.3055 14.7652 23.4524 14.8364 23.6103 14.8364L24.2959 14.8374L24.306 15.0324C24.3121 15.3314 24.2442 15.5521 24.1045 15.6907C23.9546 15.8392 23.7055 15.9154 23.3622 15.9154H16.8481C16.5251 15.9154 16.2415 15.8124 16.0907 15.6402C15.9793 15.5155 15.9388 15.3521 15.9691 15.1552C16.2456 13.3408 16.2587 11.857 16.0086 10.7474C15.9489 10.486 15.6735 10.3168 15.4213 10.3683C15.152 10.4168 14.9717 10.6662 15.0132 10.9305C15.1439 11.756 15.0497 12.7637 14.7489 13.7664C14.4421 14.784 14.0391 15.5749 13.553 16.1143C13.0974 16.6192 12.3521 17.0596 11.9005 16.932C11.0853 16.6983 10.658 14.973 11.3172 12.7795C11.6362 11.7204 12.1435 10.7929 12.747 10.1673C13.2594 9.63774 13.7748 9.39622 14.1657 9.51005C14.2295 9.52787 14.2902 9.55558 14.35 9.59221L14.8958 8.75974C14.755 8.67165 14.6062 8.60434 14.4522 8.5598C13.6715 8.33708 12.8057 8.66472 12.0098 9.48828C11.3 10.2257 10.7086 11.2948 10.3461 12.5004C9.55423 15.1324 10.1 17.4457 11.6139 17.8812C11.7668 17.9258 11.9217 17.9456 12.0746 17.9456C12.988 17.9456 13.8821 17.2457 14.3125 16.7686C14.5707 16.4816 14.8077 16.144 15.0213 15.755C15.0841 15.95 15.1844 16.1302 15.3231 16.2876C15.6704 16.6795 16.2253 16.9052 16.8481 16.9052H22.8478L22.702 17.2269C22.6331 17.3784 22.6463 17.5526 22.7374 17.6922C22.8286 17.8327 22.9845 17.9178 23.1536 17.9218C23.1536 17.9218 23.5334 17.9297 24.0083 17.9297C24.0842 17.9297 24.1612 17.9297 24.2412 17.9287C26.3525 17.9159 27.2314 17.0428 27.596 16.3123C28.3666 14.7721 28.0132 12.8063 26.7211 11.2354ZM21.5385 9.14579C21.335 8.92505 21.2398 8.62809 21.2783 8.33312L21.42 7.23636C21.5588 7.49571 21.8281 7.67883 22.1461 7.67883C22.6028 7.67883 22.9734 7.31753 22.9734 6.87012C22.9734 6.42469 22.6028 6.0624 22.1461 6.0624C21.9031 6.0624 21.6894 6.1703 21.5385 6.33461L21.6924 5.15372C21.7582 4.64989 22.1825 4.27473 22.703 4.26285C22.7121 4.26186 22.7212 4.26186 22.7283 4.26186C23.024 4.26186 23.3045 4.38362 23.503 4.59841C23.7065 4.82014 23.8017 5.1161 23.7632 5.41108V5.41207L23.3491 8.59147C23.2822 9.0953 22.8579 9.47046 22.3132 9.48333C22.0185 9.48333 21.736 9.35959 21.5385 9.14579ZM22.3628 10.4722C23.3865 10.4474 24.224 9.71 24.3536 8.71619L24.7677 5.53679C24.8437 4.95476 24.6574 4.37075 24.2543 3.9362C23.8523 3.49968 23.2519 3.25024 22.6787 3.273C21.655 3.29676 20.8175 4.03519 20.6879 5.029L20.2738 8.20741C20.1968 8.78944 20.3841 9.37345 20.7861 9.80899C21.175 10.2307 21.7309 10.4722 22.3608 10.4722H22.3628Z" fill="#6A6A6A"/>
</svg>
