<svg width="26" height="25" viewBox="0 0 26 25" fill="none" xmlns="http://www.w3.org/2000/svg">
<path fill-rule="evenodd" clip-rule="evenodd" d="M12.0026 10.5447H11.0047V6.04927H12.0026V8.04704L13.3501 6.04927H14.4539L12.8936 8.15102L14.5827 10.5447H13.3991L12.0026 8.372V10.5447ZM26 17.059L25.6664 17.3479C24.3179 18.5288 22.0374 18.5268 20.6889 17.3469L20.0227 16.769C19.0448 15.9141 17.3337 15.9121 16.3568 16.767L15.6865 17.3479C15.0133 17.9388 14.1063 18.2338 13.1993 18.2338C12.2923 18.2338 11.3853 17.9378 10.7101 17.3459L10.0428 16.769C9.06589 15.9121 7.3538 15.9131 6.37789 16.767L5.70663 17.3479C4.36114 18.5288 2.08068 18.5298 0.731184 17.3459L0.398555 17.059L1.05183 16.302L1.38645 16.592C2.36436 17.4499 4.07545 17.4489 5.05137 16.594L5.72262 16.0131C7.06912 14.8332 9.34857 14.8322 10.6981 16.0141L11.3653 16.592C12.3432 17.4499 14.0553 17.4489 15.0302 16.594L15.7015 16.0131C17.049 14.8322 19.3294 14.8342 20.6789 16.0141L21.3452 16.592C22.3231 17.4479 24.0342 17.4499 25.0101 16.594L25.3457 16.303L26 17.059ZM24.9492 23.0682L25.6024 23.8251L25.2678 24.1151C24.5946 24.705 23.6886 25 22.7816 25C21.8746 25 20.9676 24.704 20.2924 24.1121L19.6251 23.5362C18.6472 22.6773 16.9351 22.6793 15.9602 23.5332L15.2889 24.1151C13.9424 25.294 11.663 25.296 10.3135 24.1121L9.64624 23.5362C8.66933 22.6803 6.95624 22.6793 5.98033 23.5342L5.31008 24.1141C3.96258 25.295 1.68212 25.293 0.332629 24.1131L0.000998974 23.8251L0.655269 23.0692L0.988897 23.3582C1.96581 24.2131 3.6769 24.2161 4.65481 23.3602L5.32406 22.7793C6.67256 21.5984 8.95301 21.6014 10.3015 22.7813L10.9688 23.3582C11.9457 24.2161 13.6578 24.2151 14.6337 23.3602L15.3049 22.7793C16.6504 21.5994 18.9309 21.5984 20.2804 22.7813L20.9476 23.3582C21.9255 24.2161 23.6366 24.2151 24.6125 23.3602L24.9492 23.0682ZM24.9492 19.9026L25.6024 20.6585L25.2678 20.9485C23.9223 22.1273 21.6419 22.1293 20.2924 20.9465L19.6251 20.3686C18.6472 19.5117 16.9351 19.5127 15.9602 20.3666L15.2889 20.9485C14.6157 21.5384 13.7097 21.8334 12.8027 21.8334C11.8957 21.8334 10.9877 21.5384 10.3135 20.9465L9.64624 20.3686C8.66933 19.5137 6.95624 19.5127 5.98033 20.3676L5.31008 20.9485C3.96258 22.1283 1.68212 22.1273 0.332629 20.9465L0 20.6575L0.656268 19.9026L0.989896 20.1926C1.96481 21.0475 3.6769 21.0495 4.65481 20.1936L5.32406 19.6126C6.67256 18.4318 8.95301 18.4348 10.3015 19.6146L10.9688 20.1926C11.9457 21.0485 13.6578 21.0485 14.6337 20.1936L15.3049 19.6126C16.6504 18.4328 18.9309 18.4318 20.2804 19.6146L20.9476 20.1926C21.9255 21.0485 23.6366 21.0485 24.6125 20.1936L24.9492 19.9026ZM5.50886 10.9987C6.06024 10.9987 6.50774 11.4476 6.50774 11.9986C6.50774 12.5495 6.06024 12.9984 5.50886 12.9984C4.95747 12.9984 4.50997 12.5495 4.50997 11.9986C4.50997 11.4476 4.95747 10.9987 5.50886 10.9987ZM11.5661 3.75555C11.8478 3.90553 12.1614 3.99952 12.5011 3.99952C12.8407 3.99952 13.1553 3.90553 13.436 3.75555L18.3006 10.4048C17.943 10.6727 17.6823 11.0547 17.5664 11.4986H7.43571C7.32083 11.0547 7.05913 10.6727 6.70252 10.4048L11.5661 3.75555ZM12.5011 0.99988C13.0524 0.99988 13.4999 1.44783 13.4999 1.99976C13.4999 2.55069 13.0524 2.99964 12.5011 2.99964C11.9497 2.99964 11.5022 2.55069 11.5022 1.99976C11.5022 1.44783 11.9497 0.99988 12.5011 0.99988ZM20.4921 11.9986C20.4921 12.5495 20.0446 12.9984 19.4933 12.9984C18.9419 12.9984 18.4944 12.5495 18.4944 11.9986C18.4944 11.4476 18.9419 10.9987 19.4933 10.9987C20.0446 10.9987 20.4921 11.4476 20.4921 11.9986ZM5.50886 13.9983C6.43682 13.9983 7.21196 13.3584 7.43571 12.4985H17.5664C17.7902 13.3584 18.5653 13.9983 19.4933 13.9983C20.595 13.9983 21.491 13.1014 21.491 11.9986C21.491 10.8957 20.595 9.9988 19.4933 9.9988C19.4133 9.9988 19.3364 10.0138 19.2585 10.0228L14.1782 3.07863C14.379 2.76667 14.4988 2.39771 14.4988 1.99976C14.4988 0.896892 13.6028 0 12.5011 0C11.3993 0 10.5033 0.896892 10.5033 1.99976C10.5033 2.39771 10.6232 2.76667 10.8239 3.07863L5.74459 10.0228C5.66568 10.0138 5.58977 9.9988 5.50886 9.9988C4.40708 9.9988 3.51108 10.8957 3.51108 11.9986C3.51108 13.1014 4.40708 13.9983 5.50886 13.9983Z" fill="#6A6A6A"/>
</svg>
