<svg width="28" height="28" viewBox="0 0 28 28" fill="none" xmlns="http://www.w3.org/2000/svg">
<path fill-rule="evenodd" clip-rule="evenodd" d="M27 23H28V27.5C28 27.776 27.776 28 27.5 28H23V27H26.293L22.646 23.354L23.354 22.646L27 26.293V23ZM5.354 23.354L1.707 27H5V28H0.5C0.224 28 0 27.776 0 27.5V23H1V26.293L4.646 22.646L5.354 23.354ZM28 0.5V5H27V1.707L23.354 5.354L22.646 4.646L26.293 1H23V0H27.5C27.776 0 28 0.224 28 0.5ZM1 5H0V0.5C0 0.224 0.224 0 0.5 0H5V1H1.707L5.354 4.646L4.646 5.354L1 1.707V5ZM6.474 10.31C6.474 10.539 6.492 10.768 6.518 10.988C6.548 11.238 6.387 11.471 6.142 11.532C5.077 11.796 3.292 12.62 3.292 15.162L3.299 15.397C3.381 16.902 4.373 18.178 5.825 18.68L5.499 19.625C3.66 18.99 2.405 17.365 2.302 15.486C2.296 15.349 2.292 15.256 2.292 15.162C2.292 12.989 3.477 11.341 5.485 10.681C5.479 10.558 5.474 10.434 5.474 10.31C5.474 7.871 7.124 5.34 9.312 4.423C11.867 3.351 14.579 3.886 16.561 5.85C17.158 6.443 17.651 7.159 18.031 7.983C19.631 6.723 22.532 7.288 22.933 10.561C25.418 11.2 26.781 12.833 26.781 15.191C26.781 17.792 25.368 18.895 24.184 19.362L23.816 18.431C25.139 17.911 25.781 16.851 25.781 15.191C25.781 13.188 24.632 11.931 22.364 11.455C22.144 11.409 21.98 11.22 21.968 10.995C21.86 9.168 20.82 8.351 19.836 8.351C19.225 8.351 18.647 8.651 18.254 9.175C18.145 9.321 17.967 9.396 17.779 9.369C17.598 9.341 17.445 9.216 17.384 9.042C17.034 8.064 16.506 7.205 15.856 6.559C15.047 5.758 12.828 4.033 9.698 5.346C7.89 6.103 6.474 8.284 6.474 10.31ZM20 23H8V15.5C8 15.289 8.04 15.131 8.109 15.067C8.188 14.992 8.366 14.993 8.5 15H9.897C10.168 15 10.39 14.772 10.397 14.502C10.4 14.403 10.467 14.155 10.53 13.999L12.387 13.991C12.433 14.147 12.475 14.384 12.475 14.5C12.475 14.776 12.698 15 12.975 15L19.675 14.999C19.793 14.99 19.832 15.023 19.845 15.035C19.92 15.105 20 15.326 20 15.733V23ZM22.307 16.5L21 20.419V16.5H22.307ZM23.475 16.158C23.525 16.006 23.5 15.838 23.405 15.708C23.312 15.577 23.161 15.5 23 15.5H20.984C20.949 14.967 20.801 14.56 20.527 14.304C20.36 14.149 20.072 13.969 19.641 14H13.414C13.329 13.599 13.128 13.089 12.646 13H10.312C9.816 13 9.585 13.564 9.479 14L8.534 14.001C8.079 13.969 7.698 14.081 7.427 14.336C7.144 14.6 7 14.992 7 15.5V23.5C7 23.776 7.224 24 7.5 24H20.5C20.721 24 20.902 23.854 20.969 23.656L20.975 23.658L23.475 16.158Z" fill="#6A6A6A"/>
</svg>
