<svg width="28" height="16" viewBox="0 0 28 16" fill="none" xmlns="http://www.w3.org/2000/svg">
<path fill-rule="evenodd" clip-rule="evenodd" d="M8.02695 12.1311H12.0404V11.1605H8.02695V12.1311ZM23.9855 6.82178C23.8752 5.34546 23.1397 4.26127 21.9688 3.88273C21.0416 3.58087 20.0112 3.79926 19.2225 4.41948C18.7389 3.50127 18.0115 2.59859 17.4104 2.02398C15.4037 0.108943 12.8501 -0.483137 10.4009 0.402072C8.14334 1.2174 5.51853 3.97203 5.51853 6.30152V6.33064C4.04458 6.69851 3.01412 8.60579 3.01412 9.64727H4.01749C4.01749 8.89503 4.98574 7.23915 6.02021 7.23915C6.29714 7.23915 6.52189 7.0227 6.52189 6.75384V6.30152C6.52189 4.43599 8.8477 1.99875 10.7521 1.31155C13.5786 0.29045 15.6957 1.75221 16.7051 2.71507C17.3563 3.3353 18.2242 4.45346 18.5914 5.43961C18.6546 5.60753 18.8071 5.72886 18.9898 5.75603C19.1694 5.7803 19.354 5.70944 19.4643 5.56773C20.0122 4.86403 20.8881 4.55828 21.6507 4.80288C22.5066 5.07951 22.9972 5.95986 22.9972 7.21682C22.9972 7.45463 23.1748 7.65652 23.4166 7.69534C24.6548 7.89432 26.9966 8.97559 26.9966 11.6458C26.9966 14.9663 23.6404 15.0284 23.4989 15.0294H12.0404V16H23.4999C25.0571 15.9971 28 15.0837 28 11.6458C28 8.59899 25.5678 7.21876 23.9855 6.82178ZM10.0337 14.0655H17.0573V13.0949H10.0337V14.0655ZM7.02358 16H10.0337V15.0294H7.02358V16ZM6.02021 14.0655H8.02695V13.0949H6.02021V14.0655ZM1.00337 12.1311H6.02021V11.1605H1.00337V12.1311ZM0 14.0655H5.01684V13.0949H0V14.0655ZM2.00674 16H5.01684V15.0294H2.00674V16Z" fill="#6A6A6A"/>
</svg>
