<svg width="27" height="27" viewBox="0 0 27 27" fill="none" xmlns="http://www.w3.org/2000/svg">
<path fill-rule="evenodd" clip-rule="evenodd" d="M19.3206 13.6623C19.5304 15.1032 19.1679 16.5391 18.296 17.7052C17.2266 19.138 15.5818 19.8951 13.9166 19.8951C12.784 19.8961 11.6413 19.5451 10.6645 18.8175C9.32625 17.8212 8.59295 16.5574 8.48295 15.0605L9.4994 14.9862C9.58495 16.1758 10.1818 17.1903 11.2736 18.0024C13.2352 19.4636 16.0197 19.0556 17.4792 17.0967C18.1881 16.1483 18.4845 14.9801 18.3134 13.8099C18.1422 12.6386 17.524 11.6037 16.5748 10.8965C15.5003 10.0966 13.9023 9.84325 12.5111 10.2564C11.5221 10.5495 10.745 11.159 10.2409 11.9863L11.9825 11.9843L11.9845 13.0019L9.41588 13.0049H9.41486C9.28042 13.0049 9.15108 12.951 9.05534 12.8554C8.9596 12.7597 8.90562 12.6305 8.90562 12.4961V9.93484H9.9241V10.7011C10.525 10.0427 11.3031 9.55222 12.2218 9.28052C13.9135 8.78088 15.8608 9.09532 17.1828 10.0804C18.351 10.9494 19.1098 12.2224 19.3206 13.6623ZM19.9134 22.3485C19.7117 22.3485 19.5233 22.3689 19.3441 22.4015L17.9986 20.3113L17.1411 20.8618L18.3969 22.8116C17.9895 23.1219 17.7186 23.5768 17.6249 24.166H9.39755C9.30385 23.5768 9.03191 23.1209 8.62452 22.8105L9.87522 20.8608L9.01765 20.3123L7.67733 22.4015C7.49909 22.3689 7.31068 22.3485 7.10902 22.3485C7.00106 22.3485 6.90532 22.3628 6.80449 22.372L3.53108 12.5267C3.77756 12.4025 3.98634 12.2366 4.15541 12.0301L6.64051 13.4313L7.14161 12.545L4.58521 11.1041C4.62697 10.9056 4.65651 10.697 4.65651 10.4681C4.65651 10.0773 4.58827 9.73233 4.46809 9.43112L12.0751 4.37874C12.3399 4.55682 12.6485 4.68198 13.002 4.741V6.88203H14.0204V4.741C14.3739 4.68198 14.6825 4.55682 14.9473 4.37874L22.5431 9.424C22.4168 9.72826 22.3445 10.0763 22.3445 10.4681C22.3445 10.6858 22.3679 10.8853 22.4036 11.0745L19.8747 12.548L20.388 13.4283L22.8171 12.0128C23.088 12.3598 23.474 12.5959 23.9639 12.7088L20.2342 22.376C20.1293 22.3638 20.0254 22.3485 19.9134 22.3485ZM19.9134 25.9824C19.0558 25.9824 18.6036 25.5306 18.6036 24.6748C18.6036 23.7823 19.0192 23.3661 19.9134 23.3661C20.7699 23.3661 21.2221 23.818 21.2221 24.6748C21.2221 25.5306 20.7699 25.9824 19.9134 25.9824ZM7.10902 25.9824C6.22803 25.9824 5.80026 25.555 5.80026 24.6748C5.80026 23.7823 6.21581 23.3661 7.10902 23.3661C8.00324 23.3661 8.41879 23.7823 8.41879 24.6748C8.41879 25.5672 8.00324 25.9824 7.10902 25.9824ZM1.01848 10.4681C1.01848 9.57562 1.43403 9.16044 2.32825 9.16044C3.22146 9.16044 3.63802 9.57562 3.63802 10.4681C3.63802 11.3727 3.23369 11.7767 2.32825 11.7767C1.4106 11.7767 1.01848 11.3859 1.01848 10.4681ZM13.5112 1.0176C14.4115 1.0176 14.8872 1.49384 14.8872 2.3934C14.8872 3.29194 14.4115 3.76614 13.5112 3.76614C12.6241 3.76614 12.1342 3.27871 12.1342 2.3934C12.1342 1.49384 12.6109 1.0176 13.5112 1.0176ZM24.6728 9.16044C25.566 9.16044 25.9815 9.57562 25.9815 10.4681C25.9815 11.3605 25.566 11.7767 24.6728 11.7767C23.7551 11.7767 23.363 11.3859 23.363 10.4681C23.363 9.58783 23.7918 9.16044 24.6728 9.16044ZM27 10.4681C27 9.01187 26.1302 8.14284 24.6728 8.14284C24.0576 8.14284 23.5504 8.31482 23.1613 8.61399L15.6225 3.60638C15.8008 3.26141 15.9057 2.85742 15.9057 2.3934C15.9057 0.939246 14.9666 0 13.5112 0C12.0558 0 11.1157 0.939246 11.1157 2.3934C11.1157 2.85742 11.2217 3.26141 11.3999 3.60638L3.857 8.61602C3.46997 8.3138 2.9587 8.14284 2.32825 8.14284C0.870804 8.14284 0 9.01187 0 10.4681C0 11.9466 0.848397 12.7943 2.32825 12.7943C2.40362 12.7943 2.46982 12.7821 2.54112 12.778L5.82471 22.6559C5.15964 23.0273 4.78178 23.7223 4.78178 24.6748C4.78178 26.1086 5.67397 27 7.10902 27C8.38823 27 9.21422 26.3304 9.39755 25.1836H17.6259C17.8153 26.3172 18.6556 27 19.9134 27C21.3484 27 22.2406 26.1086 22.2406 24.6748C22.2406 23.764 21.8567 23.066 21.2089 22.6813L25.0323 12.7668C26.2677 12.6305 27 11.7981 27 10.4681Z" fill="#6A6A6A"/>
</svg>
