<svg width="27" height="28" viewBox="0 0 27 28" fill="none" xmlns="http://www.w3.org/2000/svg">
<path fill-rule="evenodd" clip-rule="evenodd" d="M13.438 15.4107C12.611 15.4107 11.938 14.7377 11.938 13.9107C11.938 13.0837 12.611 12.4108 13.438 12.4108C14.265 12.4108 14.938 13.0837 14.938 13.9107C14.938 14.7377 14.265 15.4107 13.438 15.4107ZM13.438 11.4108C12.059 11.4108 10.938 12.5327 10.938 13.9107C10.938 15.2887 12.059 16.4107 13.438 16.4107C14.817 16.4107 15.938 15.2887 15.938 13.9107C15.938 12.5327 14.817 11.4108 13.438 11.4108ZM17.395 17.1397C17.282 17.1897 17.192 17.2807 17.141 17.3937L13.486 25.6168L9.855 17.4468C9.804 17.3338 9.714 17.2438 9.601 17.1928L1.732 13.6957L9.839 10.0927C9.953 10.0417 10.042 9.95175 10.093 9.83875L13.486 2.20475L16.903 9.89175C16.954 10.0048 17.043 10.0958 17.157 10.1458L25.144 13.6957L17.395 17.1397ZM21.809 22.2467L16.915 20.3647L17.977 17.9757L19.846 17.1448L21.809 22.2467ZM5.067 22.1287L6.991 17.1278L9.019 18.0287L9.999 20.2327L5.067 22.1287ZM5.253 5.69275L10.026 7.52775L9.257 9.25675L7.008 10.2557L5.253 5.69275ZM21.623 5.57475L19.829 10.2388L17.739 9.30975L16.887 7.39475L21.623 5.57475ZM26.579 13.2388L20.744 10.6447L22.959 4.88375C23.031 4.69875 22.986 4.48975 22.846 4.34975C22.706 4.20975 22.497 4.16475 22.313 4.23675L16.481 6.47975L13.943 0.77075C13.783 0.40975 13.189 0.40975 13.029 0.77075L10.432 6.61275L4.563 4.35475C4.379 4.28375 4.169 4.32775 4.03 4.46875C3.89 4.60775 3.845 4.81675 3.917 5.00175L6.093 10.6628L0.297 13.2388C0.117 13.3188 0 13.4977 0 13.6957C0 13.8927 0.117 14.0718 0.297 14.1528L6.076 16.7208L3.73 22.8197C3.659 23.0047 3.704 23.2138 3.843 23.3528C3.939 23.4488 4.067 23.4998 4.197 23.4998C4.257 23.4998 4.318 23.4887 4.376 23.4667L10.405 21.1478L13.029 27.0508C13.109 27.2318 13.289 27.3477 13.486 27.3477C13.683 27.3477 13.863 27.2318 13.943 27.0508L16.508 21.2808L22.5 23.5847C22.558 23.6067 22.619 23.6178 22.679 23.6178C22.809 23.6178 22.937 23.5668 23.033 23.4718C23.172 23.3318 23.217 23.1227 23.146 22.9377L20.761 16.7388L26.579 14.1528C26.759 14.0718 26.876 13.8927 26.876 13.6957C26.876 13.4977 26.759 13.3188 26.579 13.2388Z" fill="#6A6A6A"/>
</svg>
