<svg width="28" height="28" viewBox="0 0 28 28" fill="none" xmlns="http://www.w3.org/2000/svg">
<path fill-rule="evenodd" clip-rule="evenodd" d="M14.0474 13.0421H18.061V12.039H14.0474V13.0421ZM15.0508 19.0605H16.0542V17.0544H15.0508V19.0605ZM8.0271 10.0328H10.0339V9.02973H8.0271V10.0328ZM2.00677 16.0513H10.0339V15.0482H2.00677V16.0513ZM2.00677 13.0421H13.044V12.039H2.00677V13.0421ZM13.044 20.0636H14.0474V16.0513H13.044V20.0636ZM23.0779 20.0636H24.0813V16.0513H23.0779V20.0636ZM21.0711 22.0698H22.0745V15.0482H21.0711V22.0698ZM19.0644 21.0667H20.0677V15.0482H19.0644V21.0667ZM17.0576 20.0636H18.061V16.0513H17.0576V20.0636ZM27.9283 27.0581L25.6165 22.5372C26.4202 21.2111 26.8426 19.6865 26.8426 18.1096C26.8426 13.338 22.9625 9.45705 18.1924 9.45705C17.4208 9.45705 16.6572 9.55735 15.9228 9.75697L16.1856 10.7249C16.8338 10.5494 17.5091 10.4601 18.1924 10.4601C22.4087 10.4601 25.8392 13.8917 25.8392 18.1096C25.8392 19.5912 25.4178 21.0186 24.6201 22.2373C24.5218 22.3878 24.5118 22.5794 24.594 22.7398L26.5426 26.5516L22.6665 24.6126C22.512 24.5344 22.3294 24.5424 22.1809 24.6327C20.9738 25.3659 19.5941 25.7541 18.1924 25.7541C14.3856 25.7541 11.1266 22.9174 10.6118 19.1548L9.61847 19.2902C10.2004 23.5473 13.8869 26.7572 18.1924 26.7572C19.6855 26.7572 21.1554 26.369 22.4608 25.6307L27.0664 27.9358C27.1557 27.9789 27.253 28 27.3493 28C27.5219 28 27.6925 27.9308 27.8179 27.8004C28.0116 27.6008 28.0547 27.3009 27.9283 27.0581ZM2.00677 10.0328H6.02032V9.02973H2.00677V10.0328ZM9.03049 5.01741H13.1634L9.03049 1.57283V5.01741ZM1.00339 14.0451H0V0.503547C0 0.226696 0.224759 0.00200605 0.501694 0.00200605L8.52879 0C8.64418 0 8.75857 0.0391201 8.84988 0.116357L14.8702 5.13377C14.9866 5.23107 15.0508 5.3735 15.0508 5.51895V8.02665H14.0474V6.02049H8.52879C8.25186 6.02049 8.0271 5.7968 8.0271 5.51895V1.00308L1.00339 1.00509V14.0451ZM1.00339 21.0667H9.03049V22.0698H0.501694C0.224759 22.0698 0 21.8461 0 21.5682V17.0544H1.00339V21.0667Z" fill="#6A6A6A"/>
</svg>
