<svg width="27" height="10" viewBox="0 0 27 10" fill="none" xmlns="http://www.w3.org/2000/svg">
<path fill-rule="evenodd" clip-rule="evenodd" d="M25.345 5.255L24.983 4.913L22.11 7.547C22.019 7.523 21.931 7.491 21.832 7.491C21.22 7.491 20.722 7.989 20.722 8.601C20.722 9.213 21.22 9.712 21.832 9.712C22.445 9.712 22.944 9.213 22.944 8.601C22.944 8.484 22.91 8.377 22.876 8.27L25.345 5.255ZM23.193 5.638L23.597 4.723C23.032 4.474 22.438 4.347 21.832 4.347C19.273 4.347 17.028 6.735 17.028 9.457H18.028C18.028 7.268 19.806 5.347 21.832 5.347C22.298 5.347 22.756 5.445 23.193 5.638ZM25.575 6.323L24.775 6.922C25.331 7.667 25.638 8.568 25.638 9.457H26.638C26.638 8.353 26.261 7.24 25.575 6.323ZM12.073 9.518H13.147L14.938 6.901L14.454 6.219L12.073 9.518ZM18.54 1.94H17.481L15.455 4.832L14.913 5.583L16.454 7.792C16.533 7.419 16.66 7.061 16.824 6.72L15.977 5.513L18.54 1.94ZM15.005 4.191L13.429 1.94H12.311L14.442 4.942L15.005 4.191ZM9.789 4.774L8.362 4.227C7.891 4.049 7.529 3.882 7.275 3.727C7.022 3.571 6.839 3.398 6.729 3.207C6.617 3.016 6.562 2.765 6.562 2.453C6.562 1.902 6.743 1.478 7.109 1.18C7.473 0.882 7.997 0.733 8.682 0.733C9.384 0.733 10.189 0.892999 11.096 1.213V0.533C10.713 0.364 10.307 0.233 9.875 0.14C9.444 0.0470003 9.033 0 8.642 0C7.78 0 7.084 0.229 6.555 0.686C6.026 1.144 5.761 1.742 5.761 2.48C5.761 3.023 5.921 3.478 6.241 3.847C6.562 4.216 7.064 4.534 7.748 4.8L9.295 5.401C9.828 5.605 10.215 5.837 10.455 6.094C10.696 6.352 10.816 6.663 10.816 7.027C10.816 7.624 10.596 8.094 10.156 8.441C9.715 8.788 9.126 8.962 8.389 8.962C7.606 8.962 6.748 8.793 5.815 8.455V9.135C6.588 9.508 7.468 9.695 8.455 9.695C9.407 9.695 10.173 9.45 10.756 8.962C11.338 8.472 11.629 7.833 11.629 7.041C11.629 6.499 11.483 6.047 11.189 5.687C10.896 5.327 10.429 5.023 9.789 4.774ZM0 0.226H5.188V0.933H0.786V4.467H4.508V5.174H0.786V9.468H0V0.226Z" fill="#6A6A6A"/>
</svg>
