<svg width="26" height="28" viewBox="0 0 26 28" fill="none" xmlns="http://www.w3.org/2000/svg">
<path fill-rule="evenodd" clip-rule="evenodd" d="M25.0112 19.3637C25.0112 18.8263 24.8032 18.3219 24.4268 17.9413C24.0385 17.5498 23.5274 17.354 23.0172 17.354C22.5071 17.354 21.996 17.5498 21.6067 17.9413C20.8291 18.7254 20.8291 20.001 21.6067 20.7851C22.3595 21.5453 23.674 21.5463 24.4268 20.7851C24.8032 20.4055 25.0112 19.9011 25.0112 19.3637ZM20.2338 18.2949C20.3735 17.9223 20.5874 17.5717 20.8796 17.2681L19.8217 15.2374L18.5063 17.7445L20.2338 18.2949ZM17.075 18.3369L10.2085 16.1483C9.85292 16.7906 9.3735 17.351 8.80394 17.8025L12.1896 22.5391C13.0306 21.9558 14.1023 21.8579 15.0216 22.2485L17.075 18.3369ZM15.8487 25.0054C15.8487 24.472 15.6426 23.9705 15.2682 23.593C14.8819 23.2034 14.3747 23.0086 13.8676 23.0086C13.3604 23.0086 12.8533 23.2034 12.467 23.593C12.0925 23.9705 11.8865 24.472 11.8865 25.0054C11.8865 25.5388 12.0925 26.0402 12.467 26.4178C13.2386 27.1959 14.4966 27.1959 15.2682 26.4178C15.6426 26.0402 15.8487 25.5388 15.8487 25.0054ZM5.44798 17.9783C7.90552 17.9783 9.90542 15.9625 9.90542 13.4833C9.90542 11.0051 7.90552 8.98839 5.44798 8.98839C2.99045 8.98839 0.990542 11.0051 0.990542 13.4833C0.990542 15.9625 2.99045 17.9783 5.44798 17.9783ZM11.8865 2.99513C11.8865 3.52853 12.0925 4.02997 12.467 4.40754C13.2386 5.18666 14.4966 5.18666 15.2682 4.40754C15.6426 4.02997 15.8487 3.52853 15.8487 2.99513C15.8487 2.46173 15.6426 1.96029 15.2682 1.58272C14.8819 1.19416 14.3747 0.998377 13.8676 0.998377C13.3604 0.998377 12.8533 1.19416 12.467 1.58272C12.0925 1.96029 11.8865 2.46173 11.8865 2.99513ZM14.9027 5.79598C14.5689 5.92084 14.2192 5.98976 13.8676 5.99076C13.3228 5.99076 12.782 5.83494 12.3045 5.53627L9.33091 9.63666C9.93217 10.254 10.3918 11.0121 10.6523 11.8582L17.0264 9.87339L14.9027 5.79598ZM10.896 13.4833C10.896 14.0946 10.7929 14.68 10.6097 15.2294L17.5465 17.4389L19.2631 14.1666L17.495 10.7724L10.8554 12.8401C10.8791 13.0518 10.896 13.2656 10.896 13.4833ZM18.4578 10.4727L19.8257 13.0978L21.1184 10.6345C21.048 10.5756 20.9727 10.5267 20.9064 10.4597C20.7231 10.2749 20.5785 10.0672 20.4527 9.85142L18.4578 10.4727ZM21.6067 9.75353C22.3595 10.5137 23.674 10.5147 24.4268 9.75353C24.8032 9.37395 25.0112 8.86952 25.0112 8.33213C25.0112 7.79473 24.8032 7.2903 24.4268 6.90973C24.0385 6.51817 23.5274 6.32239 23.0172 6.32239C22.5071 6.32239 21.996 6.51817 21.6067 6.90973C20.8291 7.69384 20.8291 8.96941 21.6067 9.75353ZM25.1271 17.2351C26.291 18.4088 26.291 20.3186 25.1271 21.4913C24.5456 22.0787 23.7819 22.3713 23.0172 22.3713C22.2525 22.3713 21.4878 22.0787 20.9064 21.4913C20.3041 20.884 20.0208 20.0799 20.0416 19.2818L18.0348 18.6425L15.8556 22.7939C15.8923 22.8268 15.9339 22.8508 15.9685 22.8868C16.5292 23.4521 16.8392 24.2053 16.8392 25.0054C16.8392 25.8055 16.5292 26.5586 15.9685 27.124C15.3891 27.7083 14.6293 28 13.8676 28C13.1059 28 12.3461 27.7083 11.7667 27.124C11.205 26.5586 10.896 25.8055 10.896 25.0054C10.896 24.3621 11.104 23.7548 11.4734 23.2453L7.97287 18.3469C7.21709 18.7474 6.35928 18.9771 5.44798 18.9771C2.44466 18.9771 0 16.5129 0 13.4833C0 10.4547 2.44466 7.98951 5.44798 7.98951C6.61088 7.98951 7.6876 8.36209 8.57314 8.99039L11.5646 4.86603C11.1396 4.33562 10.896 3.68735 10.896 2.99513C10.896 2.19503 11.205 1.44288 11.7667 0.876514C12.9256 -0.292171 14.8096 -0.292171 15.9685 0.876514C16.5292 1.44288 16.8392 2.19503 16.8392 2.99513C16.8392 3.79623 16.5292 4.54838 15.9685 5.11375C15.9032 5.18067 15.8269 5.23062 15.7556 5.28955L17.9882 9.57373L20.0912 8.91847C19.9059 7.96554 20.1764 6.93969 20.9064 6.20352C22.0683 5.03084 23.9632 5.02884 25.1271 6.20352C26.291 7.3772 26.291 9.28705 25.1271 10.4597C24.5456 11.0471 23.7819 11.3397 23.0172 11.3397C22.6616 11.3397 22.308 11.2698 21.9712 11.144L20.3834 14.1686L21.6919 16.6817C22.8082 16.1224 24.1989 16.2982 25.1271 17.2351ZM5.94325 12.9839H7.92434V13.9828H5.94325V15.9805H4.95271V13.9828H2.97163V12.9839H4.95271V10.9861H5.94325V12.9839Z" fill="#6A6A6A"/>
</svg>
