<svg width="28" height="27" viewBox="0 0 28 27" fill="none" xmlns="http://www.w3.org/2000/svg">
<path fill-rule="evenodd" clip-rule="evenodd" d="M27.265 15.536L26.894 16.465C24.557 15.53 22.441 15.056 20.604 15.056V14.056C22.568 14.056 24.809 14.554 27.265 15.536ZM25.363 14.169C23.773 13.84 22.129 13.5 20.604 13.5V12.5C22.023 12.5 23.557 12.184 25.04 11.879C25.705 11.743 26.356 11.609 26.977 11.507L27.139 12.494C26.53 12.594 25.893 12.725 25.243 12.859C25.025 12.904 24.804 12.947 24.584 12.992C24.912 13.057 25.241 13.123 25.565 13.19C26.114 13.304 26.651 13.415 27.168 13.508L26.991 14.493C26.465 14.397 25.919 14.285 25.363 14.169ZM27.258 10.467C25.601 11.102 23.107 11.946 20.604 11.946V10.946C22.942 10.946 25.317 10.14 26.901 9.534L27.258 10.467ZM18.604 14.61L13.604 15.86V10.141L18.604 11.391V14.61ZM12.604 17H10.604V9H12.604V9.5V16.5V17ZM19.225 10.515L13.604 9.11V8.5C13.604 8.224 13.38 8 13.104 8H10.104C9.828 8 9.604 8.224 9.604 8.5V8.833C2.994 8.351 1.604 6.006 1.604 2.634V0H0.604V2.634C0.604 7.225 3.31 9.392 9.604 9.836V10.404C5.758 10.249 3.127 9.65 0.912 8.417L0.426 9.291C2.795 10.609 5.57 11.245 9.604 11.405V12.478C6.718 12.402 2.965 12.195 0.256 11.48L0 12.447C0.878 12.679 1.862 12.854 2.882 12.994C1.88 13.137 0.904 13.315 0 13.554L0.256 14.52C3.086 13.774 6.67 13.582 9.604 13.513V14.596C5.594 14.754 2.821 15.39 0.428 16.709L0.911 17.585C3.151 16.349 5.782 15.751 9.604 15.597V16.166C3.557 16.614 0.607 19.138 0.607 23.885L0.606 24.088C0.597 25.759 0.602 25.945 0.61 26.014L1.605 25.917C1.596 25.762 1.603 24.579 1.606 24.093L1.607 23.885C1.607 19.667 4.085 17.585 9.604 17.167V17.5C9.604 17.777 9.828 18 10.104 18H13.104C13.38 18 13.604 17.777 13.604 17.5V16.89L19.225 15.485C19.448 15.43 19.604 15.23 19.604 15V11C19.604 10.771 19.448 10.571 19.225 10.515Z" fill="currentColor"/>
</svg>
