<svg width="19" height="28" viewBox="0 0 19 28" fill="none" xmlns="http://www.w3.org/2000/svg">
<path fill-rule="evenodd" clip-rule="evenodd" d="M14.912 11.5868C14.384 11.5868 13.953 11.1577 13.953 10.6297C13.953 10.1008 14.384 9.67166 14.912 9.67166C15.441 9.67166 15.872 10.1008 15.872 10.6297C15.872 11.1577 15.441 11.5868 14.912 11.5868ZM12.479 17.4132C11.951 17.4132 11.52 16.984 11.52 16.4551C11.52 15.9271 11.951 15.498 12.479 15.498C13.009 15.498 13.439 15.9271 13.439 16.4551C13.439 16.984 13.009 17.4132 12.479 17.4132ZM6.641 16.4421C6.113 16.4421 5.683 16.013 5.683 15.484C5.683 14.9561 6.113 14.5269 6.641 14.5269C7.171 14.5269 7.601 14.9561 7.601 15.484C7.601 16.013 7.171 16.4421 6.641 16.4421ZM4.21 21.7824C3.681 21.7824 3.25 21.3533 3.25 20.8253C3.25 20.2974 3.681 19.8673 4.21 19.8673C4.738 19.8673 5.169 20.2974 5.169 20.8253C5.169 21.3533 4.738 21.7824 4.21 21.7824ZM14.912 8.67365C13.832 8.67365 12.953 9.5509 12.953 10.6297C12.953 11.2904 13.285 11.8733 13.79 12.2275L12.877 14.5399C12.748 14.514 12.615 14.5 12.479 14.5C11.62 14.5 10.897 15.0589 10.634 15.8283L8.589 15.3643C8.525 14.3423 7.682 13.5289 6.641 13.5289C5.561 13.5289 4.683 14.4062 4.683 15.484C4.683 15.988 4.88 16.4441 5.194 16.7904L4.302 18.8792C4.27 18.8772 4.241 18.8693 4.21 18.8693C3.129 18.8693 2.25 19.7465 2.25 20.8253C2.25 21.9032 3.129 22.7804 4.21 22.7804C5.29 22.7804 6.169 21.9032 6.169 20.8253C6.169 20.1327 5.805 19.5279 5.261 19.1796L6.048 17.3383C6.236 17.3982 6.433 17.4401 6.641 17.4401C7.412 17.4401 8.073 16.99 8.393 16.3433L10.558 16.8343C10.736 17.7315 11.529 18.4112 12.479 18.4112C13.56 18.4112 14.439 17.5339 14.439 16.4551C14.439 15.8723 14.178 15.3543 13.77 14.996L14.729 12.5659C14.791 12.5719 14.85 12.5848 14.912 12.5848C15.993 12.5848 16.872 11.7076 16.872 10.6297C16.872 9.5509 15.993 8.67365 14.912 8.67365ZM9.5 27.002C4.635 27.002 1 25.5419 1 24.2365V5.58982C2.663 6.92814 6.153 7.63872 9.5 7.63872C12.847 7.63872 16.337 6.92814 18 5.58982V24.2365C18 25.5419 14.365 27.002 9.5 27.002ZM9.5 0.998004C14.509 0.998004 18 2.48403 18 3.81936C18 5.15369 14.509 6.64072 9.5 6.64072C4.491 6.64072 1 5.15369 1 3.81936C1 2.48403 4.491 0.998004 9.5 0.998004ZM19 3.81936C19 1.33832 14.105 0 9.5 0C4.894 0 0 1.33832 0 3.81936C0 3.82335 0.00199986 3.82734 0.00199986 3.83134H0V24.2365C0 26.6806 4.894 28 9.5 28C14.105 28 19 26.6806 19 24.2365V3.83134H18.998C18.998 3.82734 19 3.82335 19 3.81936Z" fill="currentColor"/>
</svg>
