<svg width="32" height="32" viewBox="0 0 32 32" fill="none" xmlns="http://www.w3.org/2000/svg">
<path fill-rule="evenodd" clip-rule="evenodd" d="M3.00413 12.0195H27.0372V11.0179H3.00413V12.0195ZM14.0193 4.00651H27.0372V3.00488H14.0193V4.00651ZM9.01239 4.00651H11.0151V3.00488H9.01239V4.00651ZM6.00826 4.00651H8.01101V3.00488H6.00826V4.00651ZM3.00413 4.00651H5.00688V3.00488H3.00413V4.00651ZM24.5337 21.0342C24.5337 23.0034 22.9916 24.5459 21.0229 24.5459C19.0542 24.5459 17.5121 23.0034 17.5121 21.0342C17.5121 19.065 19.0542 17.5225 21.0229 17.5225C22.9916 17.5225 24.5337 19.065 24.5337 21.0342ZM25.5351 21.0342C25.5351 18.5031 23.5534 16.5208 21.0229 16.5208C18.4934 16.5208 16.5107 18.5031 16.5107 21.0342C16.5107 23.5653 18.4934 25.5475 21.0229 25.5475C23.5534 25.5475 25.5351 23.5653 25.5351 21.0342ZM30.8304 29.3717L26.9691 25.6136C26.5785 26.1194 26.1269 26.5722 25.6222 26.9648L29.3854 30.8251C29.5206 30.9623 29.6938 31.0174 29.9041 30.9924C30.1424 30.9623 30.3928 30.8261 30.6081 30.6087C30.9716 30.2472 31.1628 29.7053 30.8304 29.3717ZM21.0289 27.5448C24.6178 27.5448 27.5379 24.624 27.5379 21.0342C27.5379 17.4443 24.6178 14.5236 21.0289 14.5236C17.44 14.5236 14.52 17.4443 14.52 21.0342C14.52 24.624 17.44 27.5448 21.0289 27.5448ZM31.316 31.3179C30.9435 31.6905 30.4869 31.9269 30.0303 31.986C29.9552 31.995 29.8811 32 29.808 32C29.3764 32 28.9798 31.8367 28.6734 31.5292L24.7721 27.5367C23.6695 28.1748 22.3928 28.5464 21.0289 28.5464C16.8872 28.5464 13.5186 25.1769 13.5186 21.0342C13.5186 16.8914 16.8872 13.522 21.0289 13.522C25.1706 13.522 28.5392 16.8914 28.5392 21.0342C28.5392 22.3934 28.1707 23.6665 27.5369 24.7682L31.5333 28.6586C32.2313 29.3567 32.1362 30.4986 31.316 31.3179ZM1.00138 6.00977H29.0399V5.50895V1.50244C29.0399 1.22599 28.8146 1.00163 28.5392 1.00163H1.50206C1.22669 1.00163 1.00138 1.22599 1.00138 1.50244V5.50895V6.00977ZM15.9189 29.0472H0.500688C0.224308 29.0472 0 28.8228 0 28.5464V6.51058V5.50895V1.50244C0 0.674095 0.673926 0 1.50206 0H28.5392C29.3674 0 30.0413 0.674095 30.0413 1.50244V5.50895V6.51058V18.0103C29.792 17.2691 29.4545 16.5699 29.0399 15.9229V7.01139H1.00138V28.0456H14.6201C15.0237 28.4152 15.4572 28.7507 15.9189 29.0472ZM3.00413 16.026H12.9558C13.1711 15.6785 13.4034 15.3409 13.6618 15.0244H3.00413V16.026ZM11.7321 19.0309C11.662 19.3595 11.606 19.693 11.5699 20.0326H3.00413V19.0309H11.7321Z" fill="currentColor"/>
</svg>
