<svg width="28" height="28" viewBox="0 0 28 28" fill="none" xmlns="http://www.w3.org/2000/svg">
<path fill-rule="evenodd" clip-rule="evenodd" d="M21.8151 5.274L20.8435 5.037L21.4079 2.726L22.3785 2.963L21.8151 5.274ZM24.2267 7.007L25.8708 5.007L26.6443 5.642L25.0012 7.642L24.2267 7.007ZM16.6418 5.79L15.6621 3.623L16.5747 3.211L17.5544 5.378L16.6418 5.79ZM20.013 15.5C20.013 15.776 19.7898 16 19.5126 16C19.2365 16 19.0123 15.776 19.0123 15.5C19.0123 15.224 19.2365 15 19.5126 15C19.7898 15 20.013 15.224 20.013 15.5ZM19.0123 14H20.013V10H19.0123V14ZM26.7253 20.794C26.4952 21.024 26.1459 21.172 25.9358 20.962L23.2731 18.238C23.6163 17.986 23.9325 17.702 24.2187 17.389L26.8974 19.994C26.9795 20.076 27.0115 20.179 26.9955 20.307C26.9735 20.467 26.8754 20.645 26.7253 20.794ZM13.928 13.005C13.928 9.972 16.3976 7.505 19.4316 7.505C22.4656 7.505 24.9352 9.972 24.9352 13.005C24.9352 16.038 22.4656 18.505 19.4316 18.505C16.3976 18.505 13.928 16.038 13.928 13.005ZM11.5075 21C10.6799 21 10.0065 20.327 10.0065 19.5C10.0065 18.673 10.6799 18 11.5075 18C12.335 18 13.0084 18.673 13.0084 19.5C13.0084 20.327 12.335 21 11.5075 21ZM4.03561 23.54L6.76939 17.686L9.1009 18.856C9.04486 19.063 9.00584 19.276 9.00584 19.5C9.00584 19.843 9.07688 20.17 9.20196 20.467L4.43487 23.932C4.3158 23.787 4.18371 23.656 4.03561 23.54ZM2.50162 27C1.67408 27 1.00065 26.327 1.00065 25.5C1.00065 24.673 1.67408 24 2.50162 24C3.32916 24 4.00259 24.673 4.00259 25.5C4.00259 26.327 3.32916 27 2.50162 27ZM4.76008 15.558C4.91118 15.235 5.00324 14.879 5.00324 14.5C5.00324 13.945 4.81612 13.437 4.50792 13.021L6.19501 11.451L7.54889 13.651L6.29808 16.33L4.76008 15.558ZM2.50162 16C1.67408 16 1.00065 15.327 1.00065 14.5C1.00065 13.673 1.67408 13 2.50162 13C3.32916 13 4.00259 13.673 4.00259 14.5C4.00259 15.327 3.32916 16 2.50162 16ZM3.30814 4.855C3.79846 4.687 4.22073 4.376 4.52093 3.964L8.16329 5.651C8.06723 5.917 8.00519 6.201 8.00519 6.5C8.00519 7.045 8.1853 7.545 8.4825 7.957L6.40715 9.887L3.30814 4.855ZM1.00065 2.5C1.00065 1.673 1.67408 1 2.50162 1C3.32916 1 4.00259 1.673 4.00259 2.5C4.00259 3.327 3.32916 4 2.50162 4C1.67408 4 1.00065 3.327 1.00065 2.5ZM10.5068 5C11.3343 5 12.0078 5.673 12.0078 6.5C12.0078 7.327 11.3343 8 10.5068 8C9.67927 8 9.00584 7.327 9.00584 6.5C9.00584 5.673 9.67927 5 10.5068 5ZM9.22298 8.634C9.39609 8.738 9.58121 8.819 9.77834 8.879L8.05622 12.566L6.9425 10.756L9.22298 8.634ZM9.55019 17.962L7.19366 16.779L8.1773 14.671L9.95345 17.556C9.80435 17.676 9.66827 17.812 9.55019 17.962ZM14.6245 8.641C13.5748 9.796 12.9274 11.325 12.9274 13.005C12.9274 14.44 13.4017 15.763 14.1922 16.84L13.1295 17.612C12.6922 17.236 12.1289 17 11.5075 17C11.2783 17 11.0592 17.041 10.848 17.1L8.68463 13.586L10.841 8.966C11.6255 8.86 12.29 8.394 12.6682 7.735L14.6245 8.641ZM27.5999 19.282L24.8441 16.602C25.5325 15.571 25.9358 14.335 25.9358 13.005C25.9358 9.421 23.0179 6.505 19.4316 6.505C17.9146 6.505 16.5207 7.031 15.413 7.904L12.9804 6.778C12.9914 6.686 13.0084 6.595 13.0084 6.5C13.0084 5.122 11.8867 4 10.5068 4C9.78934 4 9.14693 4.308 8.68963 4.793L4.9372 3.055C4.97723 2.876 5.00324 2.691 5.00324 2.5C5.00324 1.122 3.88152 0 2.50162 0C1.12173 0 0 1.122 0 2.5C0 3.776 0.965626 4.82 2.20343 4.97L5.65967 10.583L3.75844 12.351C3.3882 12.133 2.96192 12 2.50162 12C1.12173 12 0 13.122 0 14.5C0 15.878 1.12173 17 2.50162 17C3.13403 17 3.7054 16.757 4.14669 16.369L5.87481 17.237L3.14104 23.093C2.9359 23.038 2.72377 23 2.50162 23C1.12173 23 0 24.122 0 25.5C0 26.878 1.12173 28 2.50162 28C3.88152 28 5.00324 26.878 5.00324 25.5C5.00324 25.266 4.96021 25.044 4.90018 24.829L9.76833 21.291C10.2196 21.728 10.831 22 11.5075 22C12.8874 22 14.0091 20.878 14.0091 19.5C14.0091 19.105 13.909 18.735 13.7439 18.402L14.8406 17.605C16.0184 18.778 17.6414 19.505 19.4316 19.505C20.5023 19.505 21.5119 19.24 22.4035 18.78L25.2243 21.665C25.4885 21.929 25.8287 22.059 26.183 22.059C26.6122 22.059 27.0625 21.87 27.4328 21.501C27.739 21.195 27.9361 20.818 27.9861 20.439C28.0462 20.001 27.9101 19.591 27.5999 19.282Z" fill="currentColor"/>
</svg>
