<svg width="26" height="27" viewBox="0 0 26 27" fill="none" xmlns="http://www.w3.org/2000/svg">
<path fill-rule="evenodd" clip-rule="evenodd" d="M6.33852 4.66464L4.443 2.7828L3.73168 3.48899L5.6272 5.37083L6.33852 4.66464ZM22.4384 3.44904L21.7391 2.73086L19.7581 4.63568L20.4573 5.35285L22.4384 3.44904ZM14.0625 7.59728L13.0664 7.45544L11.8027 16.2364L12.7988 16.3782L14.0625 7.59728ZM17.7569 12.216C17.8897 12.0382 17.8897 11.7945 17.7569 11.6167L15.8614 9.10854L15.0555 9.70686L16.7246 11.9163L15.0555 14.1258L15.8614 14.7251L17.7569 12.216ZM10.8077 14.1258L9.13853 11.9163L10.8077 9.70686L10.0028 9.10854L8.10727 11.6167C7.97345 11.7945 7.97345 12.0382 8.10727 12.216L10.0028 14.7251L10.8077 14.1258ZM10.3569 24.9593H15.6189L14.8814 26.0011H11.0019L10.3569 24.9593ZM15.5545 26.7872L16.9983 24.7466C17.106 24.5948 17.119 24.395 17.0325 24.2302C16.946 24.0644 16.7739 23.9605 16.5868 23.9605H9.45747C9.27537 23.9605 9.10735 24.0594 9.0178 24.2162C8.92926 24.374 8.93329 24.5678 9.02887 24.7216L10.2925 26.7623C10.3841 26.9101 10.5461 27 10.7201 27H15.143C15.307 27 15.4599 26.9211 15.5545 26.7872ZM9.01277 18.0213C9.01277 17.8605 8.9353 17.7107 8.8035 17.6158C6.95627 16.2953 5.85458 14.1647 5.85458 11.9163C5.85458 8.04177 9.02987 4.89038 12.9326 4.89038C16.8353 4.89038 20.0096 8.04177 20.0096 11.9163C20.0096 14.2916 19.0105 16.3692 17.2669 17.6158C17.1351 17.7107 17.0577 17.8605 17.0577 18.0213V21.0069H9.01277V18.0213ZM18.0638 21.5063V18.271C19.9432 16.8217 21.0157 14.5213 21.0157 11.9163C21.0157 7.4914 17.3887 3.89153 12.9326 3.89153C8.4745 3.89153 4.84846 7.4914 4.84846 11.9163C4.84846 14.3995 6.02461 16.7548 8.00666 18.272V21.5063C8.00666 21.783 8.23203 22.0057 8.50971 22.0057H17.5607C17.8394 22.0057 18.0638 21.783 18.0638 21.5063ZM23.1628 12.0282H26V11.0293H23.1628V12.0282ZM0 12.0282H2.80404V11.0293H0V12.0282ZM11.9959 2.83674H13.002V0H11.9959V2.83674Z" fill="currentColor"/>
</svg>
