<svg width="27" height="28" viewBox="0 0 27 28" fill="none" xmlns="http://www.w3.org/2000/svg">
<path fill-rule="evenodd" clip-rule="evenodd" d="M19.032 2.99921V5.96543L17.4338 3.71027L16.6146 4.28831L19.1244 7.82956C19.2187 7.96157 19.3713 8.04157 19.534 8.04157C19.6966 8.04157 19.8492 7.96157 19.9436 7.82956L22.4533 4.28831L21.6341 3.71027L20.0359 5.96543V2.99921C20.0359 1.15108 18.8824 0.00300026 17.0242 0.00300026H15.0164V1.00307H17.0242C18.3192 1.00307 19.032 1.71212 19.032 2.99921ZM6.98516 24.9798V22.0346L8.58338 24.2897L9.40257 23.7117L6.89281 20.1704C6.70507 19.9054 6.26135 19.9054 6.07362 20.1704L3.56386 23.7117L4.38305 24.2897L5.98126 22.0346V24.9798C5.98126 26.8419 7.13475 27.999 8.99297 27.999H11.0008V26.9989H8.99297C7.69794 26.9989 6.98516 26.2819 6.98516 24.9798ZM19.9616 20.8845C20.57 20.2304 21.0458 19.4534 21.4052 18.5213H18.4638C18.8312 19.4314 19.3342 20.2234 19.9616 20.8845ZM23.9381 23.1367C23.9632 23.2247 23.9391 23.3197 23.8738 23.3847C23.7724 23.4857 23.6178 23.7007 23.5375 23.8537C23.4924 23.9377 23.406 23.9877 23.3147 23.9877C23.2936 23.9877 23.2735 23.9857 23.2514 23.9797C21.9463 23.6457 20.8571 23.1077 19.9285 22.3396C19.0531 23.0306 17.9789 23.5647 16.6548 23.9687C16.5293 24.0077 16.3968 23.9437 16.3476 23.8237C16.3054 23.7227 16.1699 23.5217 16.0755 23.4047C16.0223 23.3387 16.0052 23.2507 16.0313 23.1707C16.0564 23.0896 16.1207 23.0276 16.202 23.0046C17.3956 22.6636 18.3654 22.2056 19.1555 21.6055C18.3945 20.7695 17.7842 19.7334 17.3364 18.5213H16.3426C16.204 18.5213 16.0906 18.4093 16.0906 18.2703V17.7483C16.0906 17.6093 16.204 17.4972 16.3426 17.4972H19.4185V16.3642C19.4185 16.2942 19.4466 16.2282 19.4978 16.1812C19.548 16.1332 19.6163 16.1122 19.6866 16.1131L20.3923 16.1612C20.4636 16.1662 20.5278 16.1992 20.572 16.2532C20.6162 16.3072 20.6363 16.3772 20.6262 16.4472C20.6182 16.5032 20.5871 16.6142 20.4706 16.6932V17.4972H23.6008C23.7393 17.4972 23.8528 17.6093 23.8528 17.7483V18.2703C23.8528 18.4093 23.7393 18.5213 23.6008 18.5213H22.6993C22.6601 18.5873 22.5929 18.6533 22.4764 18.6873C22.0467 19.8484 21.4775 20.8035 20.7417 21.5925C21.591 22.2406 22.6019 22.7016 23.7514 22.9616C23.8407 22.9816 23.912 23.0496 23.9381 23.1367ZM8.32036 10.6088L6.9942 6.76848L5.67808 10.6088H8.32036ZM7.63971 5.72841L10.543 13.557H9.34133L8.6155 11.4788H5.38394L4.6812 13.557H3.49057L6.39286 5.72841H7.63971ZM25.9961 26.9999V14.057H21.5829C21.3059 14.057 21.081 13.833 21.081 13.557V9.97871H13.9703V26.9999H25.9961ZM22.0849 13.0569H25.1137L22.0849 10.5418V13.0569ZM27 13.557V27.5C27 27.776 26.7761 28 26.498 28H13.4684C13.1913 28 12.9664 27.776 12.9664 27.5V9.47868C12.9664 9.20266 13.1913 8.97864 13.4684 8.97864H21.5829C21.6984 8.97864 21.8128 9.01364 21.9042 9.08965L26.8203 13.1729C26.9357 13.2699 27 13.412 27 13.557ZM10.026 3.95828H12.2627L10.026 1.71312V3.95828ZM1.0039 11.9999H0V0.502036C0 0.226016 0.224875 0.00200033 0.501952 0.00200033L9.52404 0C9.65455 0 9.78305 0.0510038 9.88042 0.148011L13.8248 4.10629C13.9191 4.2013 13.9703 4.32931 13.9703 4.45832V6.9995H12.9664V4.95835H9.52404C9.24696 4.95835 9.02209 4.73434 9.02209 4.45832V1.00007L1.0039 1.00207V11.9999ZM1.0039 18.0213H11.0008V19.0214H0.501952C0.224875 19.0214 0 18.7973 0 18.5213V15.0001H1.0039V18.0213Z" fill="currentColor"/>
</svg>
