<svg width="27" height="28" viewBox="0 0 27 28" fill="none" xmlns="http://www.w3.org/2000/svg">
<path fill-rule="evenodd" clip-rule="evenodd" d="M23.532 15.391L23.729 13.932C25.821 15.131 25.864 15.626 25.863 15.64C25.859 15.643 25.509 15.923 23.532 15.391ZM22.564 15.103C19.722 14.206 15.904 12.531 13.723 11.504C13.723 11.497 13.727 11.491 13.727 11.484C13.727 10.821 13.187 10.281 12.524 10.281C11.861 10.281 11.321 10.821 11.321 11.484C11.321 12.148 11.861 12.687 12.524 12.687C12.814 12.687 13.07 12.571 13.278 12.4C14.547 12.994 19.075 15.076 22.428 16.113L21.249 24.85C21.249 25.716 17.575 27 12.5 27C7.425 27 3.751 25.716 3.746 24.784L1.283 6.563C3.458 8.155 8.074 9 12.5 9C16.926 9 21.543 8.155 23.718 6.563L22.564 15.103ZM1.003 4.489C1.032 3.609 5.104 1 12.5 1C19.895 1 23.97 3.609 24 4.489V4.603C23.81 6.231 19.137 8 12.5 8C5.863 8 1.209 6.231 1.018 4.604L1.003 4.489ZM25 4.5C25 2.665 20.131 0 12.5 0C4.869 0 0 2.665 0 4.5V4.567L2.751 24.85C2.751 26.896 7.773 28 12.5 28C17.226 28 22.249 26.896 22.244 24.917L23.396 16.39C24.217 16.604 24.881 16.718 25.392 16.718C25.985 16.718 26.386 16.574 26.628 16.285C26.827 16.047 26.903 15.76 26.845 15.454C26.708 14.716 25.797 13.919 23.89 12.87L23.869 12.896L25 4.567V4.5Z" fill="currentColor"/>
</svg>
