<svg width="30" height="28" viewBox="0 0 30 28" fill="none" xmlns="http://www.w3.org/2000/svg">
<path fill-rule="evenodd" clip-rule="evenodd" d="M13.726 8.2854C15.5267 8.2854 16.7081 8.56966 17.1453 8.7841C16.7081 8.99854 15.5267 9.2828 13.726 9.2828C11.9254 9.2828 10.7439 8.99854 10.3067 8.7841C10.7439 8.56966 11.9254 8.2854 13.726 8.2854ZM13.7403 11.4831C13.6518 11.4561 13.5755 11.4043 13.5755 11.3015C13.5755 11.1619 13.6904 11.0492 13.8318 11.0492C13.8745 11.0492 13.904 11.0751 13.9385 11.0921L13.7403 11.4831ZM16.6786 15.6392C16.641 15.6682 16.5546 15.726 16.3757 15.7948C16.214 15.8577 16.0228 15.9135 15.8103 15.9614C15.2389 16.091 14.5364 16.1629 13.8318 16.1629C12.2904 16.1629 11.2157 15.8407 10.9859 15.6412L10.2976 9.84733C11.4851 10.2483 13.2349 10.2802 13.726 10.2802C14.2222 10.2802 16.0015 10.2473 17.1901 9.83536L16.9877 12.1334C16.2526 11.8571 15.3792 11.4771 14.5475 11.0851C14.451 10.7809 14.1724 10.5555 13.8318 10.5555C13.4129 10.5555 13.0723 10.8906 13.0723 11.3015C13.0723 11.7125 13.4129 12.0466 13.8318 12.0466C13.9324 12.0466 14.027 12.0256 14.1144 11.9907C15.2918 12.5513 16.2048 12.9353 16.8952 13.1766L16.6786 15.6392ZM9.15373 8.84195L9.97628 15.733C9.97628 17.1443 13.6742 17.1603 13.8318 17.1603C14.6116 17.1603 15.3955 17.0795 16.0381 16.9339C16.3065 16.873 16.5454 16.8012 16.7488 16.7224C17.3721 16.481 17.6872 16.1479 17.6862 15.7759L17.8896 13.4709C18.1885 13.5387 18.4244 13.5686 18.6054 13.5686C19.0832 13.5686 19.2093 13.3801 19.2957 13.2505L19.372 12.7737C19.25 12.282 18.3725 11.5868 18.0746 11.3704L18.2993 8.82699L18.2942 8.82599C18.2953 8.81203 18.3014 8.79906 18.3014 8.7841C18.3014 7.35981 14.4896 7.288 13.726 7.288C12.9624 7.288 9.15068 7.35981 9.15068 8.7841C9.15068 8.80405 9.15881 8.821 9.16085 8.84095L9.15373 8.84195ZM13.7453 3.39415C18.5098 3.39415 22.3876 7.19724 22.3876 11.872C22.3876 16.5469 18.5098 20.3499 13.7453 20.3499C8.97987 20.3499 5.10303 16.5469 5.10303 11.872C5.10303 7.19724 8.97987 3.39415 13.7453 3.39415ZM1.01674 15.2672V16.2646H5.19352C6.81116 19.2817 10.0342 21.3473 13.7453 21.3473C19.071 21.3473 23.4044 17.0964 23.4044 11.872C23.4044 6.64767 19.071 2.39675 13.7453 2.39675C9.33573 2.39675 5.61343 5.31415 4.46248 9.2828H1.01674V10.2802H4.23372C4.14322 10.7988 4.08629 11.3285 4.08629 11.872C4.08629 12.0077 4.10052 12.1403 4.10662 12.275H0V13.2724H4.20321C4.30794 13.9646 4.4879 14.6319 4.73802 15.2672H1.01674ZM28.5034 26.5318C27.8892 27.1353 26.8227 27.1402 26.2075 26.5368L20.9551 21.3852C21.8356 20.7419 22.6215 19.9879 23.2946 19.1391L28.5095 24.2807C28.8155 24.5809 28.9833 24.9809 28.9833 25.4068C28.9822 25.8317 28.8124 26.2316 28.5034 26.5318ZM29.2293 23.5765L23.8955 18.3172C25.1247 16.4591 25.8476 14.2489 25.8476 11.872C25.8476 5.32611 20.4182 0 13.7453 0C8.94937 0 4.59974 2.78175 2.6659 7.08652L3.5952 7.48947C5.3684 3.54576 9.35199 0.9974 13.7453 0.9974C19.857 0.9974 24.8309 5.87568 24.8309 11.872C24.8309 17.8684 19.857 22.7477 13.7453 22.7477C10.0129 22.7477 6.5529 20.9215 4.49095 17.8634L3.64299 18.414C5.89405 21.7523 9.67024 23.7451 13.7453 23.7451C16.0777 23.7451 18.2505 23.0828 20.101 21.9568L25.4887 27.243C25.9869 27.7307 26.6478 28 27.3493 28C28.056 28 28.7209 27.7287 29.2212 27.239C29.7214 26.7513 29.998 26.101 30 25.4078C30.001 24.7156 29.7265 24.0643 29.2293 23.5765Z" fill="currentColor"/>
</svg>
