<svg width="28" height="28" viewBox="0 0 28 28" fill="none" xmlns="http://www.w3.org/2000/svg">
<path fill-rule="evenodd" clip-rule="evenodd" d="M12.9982 17.769L6.64857 21.4887L6.14168 20.6322L9.99886 18.3719V16.2031L6.50861 13.9349L3.2523 16.1803L2.68243 15.3625L5.99971 13.0753V10.6439L3.34628 9.0313L1.00079 10.6101V12.6157L2.97236 11.4199L3.49325 12.2685L0.999786 13.7817V16.8398L3.51525 18.6833L6.72256 16.5553L7.27644 17.383L4.00014 19.5568V22.9959L6.71756 24.7051L9.54195 22.8238L10.0988 23.6505L7.64236 25.2861L10.2188 26.9067L12.9982 24.9986V17.769ZM22.9961 15.4769C22.9961 15.2023 22.7711 14.9795 22.4962 14.9795C22.2212 14.9795 21.9963 15.2023 21.9963 15.4769C21.9963 15.7515 22.2212 15.9743 22.4962 15.9743C22.7711 15.9743 22.9961 15.7515 22.9961 15.4769ZM20.9965 6.5233C20.9965 6.24872 20.7715 6.02587 20.4966 6.02587C20.2217 6.02587 19.9967 6.24872 19.9967 6.5233C19.9967 6.79787 20.2217 7.02072 20.4966 7.02072C20.7715 7.02072 20.9965 6.79787 20.9965 6.5233ZM17.9971 12.4924C17.9971 12.7669 18.2221 12.9898 18.497 12.9898C18.772 12.9898 18.9969 12.7669 18.9969 12.4924C18.9969 12.2178 18.772 11.9949 18.497 11.9949C18.2221 11.9949 17.9971 12.2178 17.9971 12.4924ZM13.998 19.4772V25.2602C13.998 25.4234 13.917 25.5766 13.782 25.6691L10.5147 27.9115C10.4288 27.9702 10.3298 28 10.2298 28C10.1378 28 10.0448 27.9741 9.96286 27.9234L3.23231 23.6913C3.08834 23.5998 3.00036 23.4406 3.00036 23.2705V19.5418L0.202957 17.4915C0.0749841 17.3979 0 17.2497 0 17.0915L0.000999928 10.3455C0.000999928 10.1803 0.0829821 10.0261 0.220953 9.93362L3.00036 8.06332V4.13965C3.00036 3.95461 3.10433 3.78449 3.2693 3.69893L10.2698 0.0578008C10.4368 -0.0317352 10.6427 -0.0158176 10.7957 0.0956049L13.5321 2.07435L17.1263 0.064765C17.2713 -0.0158174 17.4483 -0.019797 17.5982 0.0548163L24.7227 3.65715C24.8907 3.74171 24.9956 3.91382 24.9956 4.10085V7.79272L27.827 10.2967C27.933 10.3913 27.995 10.5266 27.995 10.6688V18.9579C27.995 19.1419 27.893 19.31 27.7311 19.3966C27.5691 19.4831 27.3721 19.4732 27.2182 19.3717L23.27 16.7543C23.0451 16.8906 22.7791 16.9692 22.4962 16.9692C21.6694 16.9692 20.9965 16.2996 20.9965 15.4769C20.9965 14.6542 21.6694 13.9846 22.4962 13.9846C23.323 13.9846 23.9959 14.6542 23.9959 15.4769C23.9959 15.654 23.9649 15.8241 23.9079 15.9813L26.9952 18.0287V10.8917L24.1638 8.38763C24.0578 8.29312 23.9959 8.15782 23.9959 8.01556V7.02072H21.9103C21.7043 7.59972 21.1485 8.01556 20.4966 8.01556C19.6698 8.01556 18.9969 7.34603 18.9969 6.5233C18.9969 5.70056 19.6698 5.03103 20.4966 5.03103C21.1485 5.03103 21.7043 5.44687 21.9103 6.02587H23.9959V4.40527L17.3833 1.06259L13.998 2.95479V8.42842L17.7542 11.1971C17.9731 11.0717 18.2261 11.0001 18.497 11.0001C19.3239 11.0001 19.9967 11.6696 19.9967 12.4924C19.9967 13.3151 19.3239 13.9846 18.497 13.9846C17.6702 13.9846 16.9974 13.3151 16.9974 12.4924C16.9974 12.3023 17.0334 12.1203 17.0993 11.9522L13.2002 9.07905C13.0732 8.98454 12.9982 8.83631 12.9982 8.67912V2.91698L10.4588 1.08249L6.9995 2.88117V6.02587H5.99971V3.40147L4.00014 4.44109V8.26328L6.50261 9.7844L9.99886 7.71611V5.03103H10.9986V7.99865C10.9986 8.17374 10.9057 8.3369 10.7547 8.42544L6.9995 10.6479V13.0664L10.7717 15.5177C10.9137 15.6092 10.9986 15.7654 10.9986 15.9335V17.7859L12.9982 16.615V14.2244L9.85289 11.7204L10.4778 10.9434L13.81 13.5966C13.929 13.6911 13.998 13.8334 13.998 13.9846V18.4823H15.9976V19.4772H13.998ZM26.3084 20.9814L25.9454 20.6401L21.8023 24.4215C21.6894 24.3917 21.5744 24.3708 21.4524 24.3708C20.7046 24.3708 20.0957 24.9767 20.0957 25.7218C20.0957 26.4659 20.7046 27.0728 21.4524 27.0728C22.2012 27.0728 22.8101 26.4659 22.8101 25.7218C22.8101 25.5795 22.7821 25.4442 22.7411 25.3159L26.3084 20.9814ZM22.9121 21.1963L23.213 20.2472C22.6391 20.0681 22.0473 19.9766 21.4524 19.9766C17.9652 19.9766 14.9058 23.2198 14.9058 26.9176H15.9056C15.9056 23.75 18.498 20.9714 21.4524 20.9714C21.9453 20.9714 22.4362 21.047 22.9121 21.1963ZM28 26.9176H27.0002C27.0002 25.7795 26.6613 24.6474 26.0184 23.6446L26.8622 23.1103C27.6061 24.2733 28 25.5895 28 26.9176Z" fill="currentColor"/>
</svg>
