<svg width="28" height="28" viewBox="0 0 28 28" fill="none" xmlns="http://www.w3.org/2000/svg">
<path fill-rule="evenodd" clip-rule="evenodd" d="M20.9996 28H23.9995V27H20.9996V28ZM2.99994 19H10.9998V18H2.99994V19ZM10.9998 16H14.9997V15H10.9998V16ZM2.99994 16H9.99981V15H2.99994V16ZM2.99994 7H8.99983V6H2.99994V7ZM24.2795 22.051C24.1085 22.135 23.9995 22.31 23.9995 22.5V25H22.9316V21H23.9995V20H22.9316H21.9316H20.9996V21H21.9996V25H20.9316V22.5C20.9316 22.31 20.8236 22.136 20.6526 22.052C20.6266 22.039 17.9617 20.68 17.9997 17.359C17.9827 16.431 18.4616 15.397 19.3136 14.524C20.2376 13.577 21.4306 13.007 22.5026 13H22.5206C23.5436 13 24.7095 13.563 25.6445 14.509C26.5095 15.384 27.0165 16.45 26.9995 17.375C27.0375 20.657 24.3935 21.995 24.2795 22.051ZM26.3555 13.806C25.2365 12.674 23.8045 12 22.5206 12H22.4966C21.1626 12.009 19.7046 12.691 18.5986 13.826C17.5607 14.889 16.9787 16.184 16.9997 17.363C16.9617 20.648 19.1406 22.299 19.9316 22.79V25.5C19.9316 25.776 20.1546 26 20.4316 26H24.4995C24.7755 26 24.9995 25.776 24.9995 25.5V22.793C25.8065 22.305 28.0375 20.656 27.9995 17.378C28.0205 16.187 27.4215 14.884 26.3555 13.806ZM2.99994 13H14.9997V12H2.99994V13ZM6.99987 10H14.9997V9H6.99987V10ZM2.99994 10H5.99989V9H2.99994V10ZM11.9998 1.707L16.2927 6H11.9998V1.707ZM16.9997 25H0.999981V1H10.9998V6.5C10.9998 6.776 11.2238 7 11.4998 7H16.9997V13H17.9997L17.9977 6.452C17.9957 6.324 17.9467 6.24 17.8537 6.146L11.9998 0L0.5 0.00199986C0.223996 0.00199986 0 0.227 0 0.502V25.5C0 25.776 0.223996 26 0.5 26H17.4997C17.7757 26 17.9997 25.776 17.9997 25.5V22H16.9997V25Z" fill="currentColor"/>
</svg>
