<svg width="29" height="29" viewBox="0 0 29 29" fill="none" xmlns="http://www.w3.org/2000/svg">
<path fill-rule="evenodd" clip-rule="evenodd" d="M17.4349 8.43247V9.44355C17.0924 9.44355 16.7679 9.56994 16.5219 9.79946C16.4015 9.9127 16.2302 9.9582 16.0729 9.91876C15.9126 9.88135 15.7812 9.76609 15.7214 9.61038C15.2246 8.31417 13.9362 7.44261 12.5174 7.44261C11.5367 7.44261 10.6037 7.85311 9.95557 8.56896C9.4 9.18067 9.09433 9.96426 9.09433 10.7752C9.09433 10.9956 8.95295 11.1958 8.74485 11.2625C7.90153 11.5314 7.27327 12.2251 7.10799 13.0734C7.0831 13.2169 7.06717 13.3635 7.06717 13.5182C7.06717 14.8286 8.16239 15.8953 9.51051 15.8953H15.1927V16.9064H9.51051C7.61478 16.9064 6.07152 15.3857 6.07152 13.5182C6.07152 13.3009 6.09242 13.0936 6.13026 12.8873C6.34433 11.7822 7.09107 10.8692 8.11361 10.4233C8.19226 9.48298 8.57858 8.59424 9.22376 7.88446C10.0581 6.96134 11.2589 6.43153 12.5174 6.43153C14.1324 6.43153 15.6169 7.31521 16.3845 8.68119C16.7071 8.51841 17.0656 8.43247 17.4349 8.43247ZM27.4532 27.4278C26.7155 28.178 25.5147 28.176 24.7759 27.4288L18.6198 21.1792C19.6373 20.3946 20.5294 19.4543 21.2453 18.3785L27.4552 24.713C28.19 25.4622 28.189 26.6796 27.4532 27.4278ZM0.995657 11.7943C0.995657 5.84813 5.75888 1.01109 11.6143 1.01109C17.4698 1.01109 22.233 5.84813 22.233 11.7943C22.233 17.7405 17.4698 22.5776 11.6143 22.5776C5.75888 22.5776 0.995657 17.7405 0.995657 11.7943ZM28.1612 23.9992L21.778 17.4898C22.7 15.7992 23.2287 13.859 23.2287 11.7943C23.2287 5.29102 18.0184 0 11.6143 0C5.21127 0 0 5.29102 0 11.7943C0 18.2976 5.21127 23.5887 11.6143 23.5887C13.8854 23.5887 15.9992 22.9143 17.7894 21.7657L24.072 28.1436C24.6355 28.7149 25.3753 29 26.1151 29C26.8539 29 27.5936 28.7149 28.1572 28.1426C29.2793 27.0011 29.2813 25.1427 28.1612 23.9992ZM11.6143 19.8133C7.26033 19.8133 3.71878 16.2158 3.71878 11.7943C3.71878 7.37285 7.26033 3.77641 11.6143 3.77641C15.9683 3.77641 19.5109 7.37285 19.5109 11.7943C19.5109 16.2158 15.9683 19.8133 11.6143 19.8133ZM11.6143 2.76532C6.71073 2.76532 2.72312 6.81574 2.72312 11.7943C2.72312 16.7739 6.71073 20.8244 11.6143 20.8244C16.5179 20.8244 20.5065 16.7739 20.5065 11.7943C20.5065 6.81574 16.5179 2.76532 11.6143 2.76532Z" fill="currentColor"/>
</svg>
