<svg width="27" height="27" viewBox="0 0 27 27" fill="none" xmlns="http://www.w3.org/2000/svg">
<path fill-rule="evenodd" clip-rule="evenodd" d="M25.6871 23.298L19.2297 17.011C18.6017 17.8587 17.8531 18.6087 17.0048 19.238L23.3047 25.6885C23.6147 25.9987 23.9865 26.0256 24.2327 25.9917C24.6215 25.9419 25.0252 25.7254 25.3701 25.3804C25.9652 24.784 26.2653 23.8774 25.6871 23.298ZM10.668 20.348C16 20.348 20.3392 16.0077 20.3392 10.6721C20.3392 5.33757 16 0.997303 10.668 0.997303C5.33499 0.997303 0.996822 5.33757 0.996822 10.6721C0.996822 16.0077 5.33499 20.348 10.668 20.348ZM26.0749 26.0855C25.5755 26.5861 24.9654 26.9043 24.3593 26.9811C24.2607 26.994 24.165 27 24.0683 27C23.5091 27 22.9947 26.7886 22.596 26.3896L16.1635 19.8025C14.5556 20.7748 12.6796 21.3453 10.668 21.3453C4.78574 21.3453 0 16.5572 0 10.6721C0 4.78706 4.78574 0 10.668 0C16.5502 0 21.336 4.78706 21.336 10.6721C21.336 12.6837 20.7658 14.5616 19.7949 16.1693L26.3869 22.5879C27.3109 23.5124 27.1774 24.9815 26.0749 26.0855ZM17.4534 10.6721C17.4534 6.86544 14.4729 3.8835 10.668 3.8835C6.86312 3.8835 3.88262 6.86544 3.88262 10.6721C3.88262 14.4789 6.86312 17.4608 10.668 17.4608C14.4729 17.4608 17.4534 14.4789 17.4534 10.6721ZM18.4502 10.6721C18.4502 15.0383 15.0321 18.4581 10.668 18.4581C6.3039 18.4581 2.8858 15.0383 2.8858 10.6721C2.8858 6.30595 6.3039 2.8862 10.668 2.8862C15.0321 2.8862 18.4502 6.30595 18.4502 10.6721ZM8.2188 12.6139H7.22198V14.6085H9.21562V13.6112H8.2188V12.6139ZM7.22198 8.62468H8.2188V7.62738H9.21562V6.63007H7.22198V8.62468ZM12.2061 7.62738H13.2029V8.62468H14.1997V6.63007H12.2061V7.62738ZM13.2029 12.6139H14.1997V14.6085H12.2061V13.6112H13.2029V12.6139Z" fill="currentColor"/>
</svg>
