<svg width="29" height="26" viewBox="0 0 29 26" fill="none" xmlns="http://www.w3.org/2000/svg">
<path fill-rule="evenodd" clip-rule="evenodd" d="M21.63 17.1243C21.63 15.2208 20.0499 13.6723 18.1075 13.6723C16.1651 13.6723 14.585 15.2208 14.585 17.1243C14.585 19.0279 16.1651 20.5764 18.1075 20.5764C20.0499 20.5764 21.63 19.0279 21.63 17.1243ZM22.6364 17.1243C22.6364 19.5713 20.6044 21.5627 18.1075 21.5627C15.6106 21.5627 13.5786 19.5713 13.5786 17.1243C13.5786 14.6773 15.6106 12.686 18.1075 12.686C20.6044 12.686 22.6364 14.6773 22.6364 17.1243ZM26.9117 23.7029L23.5251 20.7135C23.2362 21.1307 22.8951 21.5064 22.5166 21.8457L25.8841 24.8224C26.2001 25.0995 26.6862 25.0739 26.969 24.7661C27.2508 24.4594 27.2257 23.9811 26.9117 23.7029ZM18.1075 22.549C21.159 22.549 23.6428 20.1158 23.6428 17.1243C23.6428 14.1329 21.159 11.6997 18.1075 11.6997C15.056 11.6997 12.5722 14.1329 12.5722 17.1243C12.5722 20.1158 15.056 22.549 18.1075 22.549ZM27.586 22.9711C28.3106 23.6132 28.369 24.7139 27.7168 25.426C27.3656 25.8067 26.8825 26 26.3964 26C25.9727 26 25.549 25.853 25.2108 25.5552L21.7165 22.4661C20.6809 23.1407 19.441 23.5353 18.1075 23.5353C14.5005 23.5353 11.5658 20.6592 11.5658 17.1243C11.5658 13.5895 14.5005 10.7134 18.1075 10.7134C21.7145 10.7134 24.6492 13.5895 24.6492 17.1243C24.6492 18.0919 24.4228 19.0072 24.0293 19.8307L27.586 22.9711ZM4.5923 17.6175H9.55294V18.6038H4.58626C4.0287 18.5979 3.42988 18.3976 2.79986 18.0081C1.7562 17.3739 0 15.8806 0 13.0352C0 9.593 2.41038 8.32857 3.81232 7.88474C3.80125 7.722 3.79622 7.55729 3.79622 7.39258C3.79622 4.58855 5.7376 1.67898 8.31102 0.627592C11.3242 -0.609221 14.5136 0.00523973 16.8424 2.26583C17.5711 2.973 18.1699 3.83206 18.6278 4.8292C19.2417 4.32225 20.0026 4.04214 20.8047 4.04214C22.3657 4.04214 24.1239 5.20695 24.4309 7.75455C25.8871 8.08101 29 9.23005 29 13.0756C29 14.7276 28.4334 16.0651 27.3132 17.0474L26.6409 16.3136C27.5387 15.5256 27.9936 14.4357 27.9936 13.0756C27.9936 9.6936 25.1062 8.85328 23.8642 8.64912C23.7294 8.62742 23.6106 8.55246 23.5331 8.442C23.4546 8.33153 23.4275 8.19542 23.4536 8.06425C23.3067 5.99007 22.0164 5.02843 20.8047 5.02843C20.0479 5.02843 19.3384 5.38942 18.8573 6.01867C18.7476 6.16464 18.5624 6.23566 18.3803 6.21199C18.1981 6.18536 18.0441 6.06207 17.9817 5.89144C17.5489 4.71972 16.928 3.73639 16.1349 2.96708C14.103 0.994493 11.3232 0.458935 8.69849 1.53794C6.51355 2.43054 4.80264 5.0018 4.80264 7.39258C4.80264 7.66085 4.81874 7.92912 4.85095 8.18655C4.86906 8.3266 4.82478 8.46764 4.72917 8.57416C4.65268 8.65898 4.55003 8.71421 4.43831 8.73394C3.14204 9.06139 1.00642 10.0536 1.00642 13.0352C1.00642 15.2849 2.2725 16.5266 3.33326 17.1727C3.80628 17.4646 4.22898 17.6135 4.5923 17.6175Z" fill="currentColor"/>
</svg>
