<svg width="27" height="27" viewBox="0 0 27 27" fill="none" xmlns="http://www.w3.org/2000/svg">
<path fill-rule="evenodd" clip-rule="evenodd" d="M4.0555 21.594C2.9095 21.594 1.9765 20.6538 1.9765 19.498C1.9765 18.3433 2.9095 17.4031 4.0555 17.4031C5.2015 17.4031 6.1355 18.3433 6.1355 19.498C6.1355 20.6538 5.2015 21.594 4.0555 21.594ZM5.9125 21.9567C6.6515 21.3894 7.1355 20.5037 7.1355 19.498C7.1355 17.7871 5.7535 16.3955 4.0555 16.3955C3.6365 16.3955 3.2385 16.4811 2.8745 16.6343L1.0765 13.4965L3.4385 9.37417L2.5735 8.87035L0.0675 13.2446C-0.0225 13.4007 -0.0225 13.5922 0.0675 13.7484L2.0325 17.1784C1.3905 17.7467 0.9765 18.571 0.9765 19.498C0.9765 21.21 2.3575 22.6016 4.0555 22.6016C4.3975 22.6016 4.7205 22.5321 5.0285 22.4283L6.5605 25.2719C6.6485 25.4341 6.8165 25.5349 6.9995 25.5349H12.4995V24.5272H7.2975L5.9125 21.9567ZM22.9445 9.56059C21.7975 9.56059 20.8645 8.62045 20.8645 7.46468C20.8645 6.30991 21.7975 5.36876 22.9445 5.36876C24.0905 5.36876 25.0235 6.30991 25.0235 7.46468C25.0235 8.62045 24.0905 9.56059 22.9445 9.56059ZM24.9675 9.7853C25.6095 9.21597 26.0235 8.39171 26.0235 7.46468C26.0235 5.75369 24.6425 4.36111 22.9445 4.36111C22.6035 4.36111 22.2815 4.43064 21.9745 4.53443L20.4415 1.61929C20.3555 1.45404 20.1855 1.35126 19.9995 1.35126H14.4995V2.35891H19.6995L21.0895 5.00299C20.3505 5.57029 19.8645 6.45803 19.8645 7.46468C19.8645 9.17567 21.2455 10.5682 22.9445 10.5682C23.3635 10.5682 23.7615 10.4816 24.1245 10.3284L25.9225 13.4673L23.5615 17.5885L24.4265 18.0924L26.9325 13.7192C27.0225 13.563 27.0225 13.3705 26.9325 13.2153L24.9675 9.7853ZM20.3945 25.9923C19.2475 25.9923 18.3145 25.0522 18.3145 23.8974C18.3145 22.7417 19.2475 21.8015 20.3945 21.8015C21.5405 21.8015 22.4735 22.7417 22.4735 23.8974C22.4735 25.0522 21.5405 25.9923 20.3945 25.9923ZM11.2045 17.5009L8.9115 13.4995L11.2045 9.49912H15.7885L18.0825 13.4995L15.7885 17.5009H11.2045ZM6.6365 5.19847C5.4905 5.19847 4.5575 4.25833 4.5575 3.10256C4.5575 1.94779 5.4905 1.00765 6.6365 1.00765C7.7835 1.00765 8.7165 1.94779 8.7165 3.10256C8.7165 4.25833 7.7835 5.19847 6.6365 5.19847ZM20.3945 20.7939C19.7695 20.7939 19.1895 20.9853 18.7025 21.3088L16.6335 18.042L19.0925 13.7514C19.1825 13.5962 19.1825 13.4038 19.0925 13.2476L16.5105 8.74339C16.4215 8.5872 16.2565 8.49147 16.0775 8.49147H11.3255L9.0475 5.01004C9.4595 4.48304 9.7165 3.82504 9.7165 3.10256C9.7165 1.39157 8.3345 0 6.6365 0C4.9385 0 3.5575 1.39157 3.5575 3.10256C3.5575 4.81455 4.9385 6.20612 6.6365 6.20612C7.2515 6.20612 7.8235 6.0187 8.3045 5.70431L10.3945 8.89756L7.9025 13.2476C7.8125 13.4038 7.8125 13.5962 7.9025 13.7514L10.4835 18.2566C10.5725 18.4128 10.7375 18.5085 10.9155 18.5085H15.7435L17.9625 22.0141C17.5625 22.5381 17.3145 23.186 17.3145 23.8974C17.3145 25.6074 18.6965 27 20.3945 27C22.0925 27 23.4735 25.6074 23.4735 23.8974C23.4735 22.1854 22.0925 20.7939 20.3945 20.7939Z" fill="currentColor"/>
</svg>
