<svg width="26" height="27" viewBox="0 0 26 27" fill="none" xmlns="http://www.w3.org/2000/svg">
<path fill-rule="evenodd" clip-rule="evenodd" d="M2.88643 24.1073H3.89076C3.89076 20.064 6.51707 15.9313 26 15.9313V14.9247C5.63226 14.9247 2.88643 19.5668 2.88643 24.1073ZM5.77287 27H6.77719C6.77719 23.3604 6.77719 17.8598 26 17.8598V16.8532C7.33459 16.8532 5.77287 21.8657 5.77287 27ZM1.00433 6.74975H0C0 10.3048 4.78762 12.5604 14.2333 13.4995C4.78762 14.4386 0 16.6952 0 20.2492H1.00433C1.00433 17.9171 4.25131 14.0028 26 14.0028V12.9962C4.25131 12.9962 1.00433 9.08287 1.00433 6.74975ZM3.89076 2.89275H2.88643C2.88643 7.43318 5.63226 12.0743 26 12.0743V11.0677C6.51707 11.0677 3.89076 6.93495 3.89076 2.89275ZM26 9.13924V10.1458C7.33459 10.1458 5.77287 5.13327 5.77287 0H6.77719C6.77719 3.63959 6.77719 9.13924 26 9.13924Z" fill="currentColor"/>
</svg>
