<svg width="27" height="28" viewBox="0 0 27 28" fill="none" xmlns="http://www.w3.org/2000/svg">
<path fill-rule="evenodd" clip-rule="evenodd" d="M26 22H27V28H21V27H25.293L20.646 22.354L21.354 21.646L26 26.293V22ZM6.354 22.354L1.707 27H6V28H0V22H1V26.293L5.646 21.646L6.354 22.354ZM27 0V6H26V1.707L21.354 6.354L20.646 5.646L25.293 1H21V0H27ZM1.707 1L6.354 5.646L5.646 6.354L1 1.707V6H0V0H6V1H1.707ZM13.5 9.5C9.928 9.5 8 8.46 8 8.036V8C8 7.374 10.093 6.5 13.5 6.5C16.907 6.5 19 7.374 19 8V8.036C19 8.46 17.072 9.5 13.5 9.5ZM13.5 21.5C10.093 21.5 8 20.626 8 20V9.389C9.228 10.116 11.404 10.5 13.5 10.5C15.596 10.5 17.772 10.116 19 9.389V20C19 20.626 16.907 21.5 13.5 21.5ZM13.5 5.5C10.265 5.5 7 6.273 7 8V20C7 21.727 10.265 22.5 13.5 22.5C16.735 22.5 20 21.727 20 20V8C20 6.273 16.735 5.5 13.5 5.5Z" fill="currentColor"/>
</svg>
