<svg width="27" height="28" viewBox="0 0 27 28" fill="none" xmlns="http://www.w3.org/2000/svg">
<path fill-rule="evenodd" clip-rule="evenodd" d="M14.9992 11.4461C14.9992 12.279 14.3265 12.9561 13.5 12.9561C12.6735 12.9561 12.0008 12.279 12.0008 11.4461C12.0008 10.6132 12.6735 9.93617 13.5 9.93617C14.3265 9.93617 14.9992 10.6132 14.9992 11.4461ZM16.6915 17.0366H10.2985C10.4332 16.0468 11.0093 13.9681 13.4708 13.9681C15.9766 13.9681 16.5568 16.0479 16.6915 17.0366ZM10.9953 11.4461C10.9953 12.1657 11.2989 12.8124 11.7816 13.2718C9.82485 14.0815 9.25171 16.2675 9.25171 17.5426C9.25171 17.822 9.47695 18.0487 9.75447 18.0487H17.2345C17.511 18.0487 17.7362 17.823 17.7372 17.5436C17.7372 17.4576 17.7272 15.4184 16.3999 14.0774C16.055 13.7303 15.6518 13.4712 15.2023 13.284C15.693 12.8235 16.0047 12.1728 16.0047 11.4461C16.0047 10.0556 14.8816 8.92413 13.5 8.92413C12.1184 8.92413 10.9953 10.0556 10.9953 11.4461ZM25.5893 14.3608L25.5591 14.3426C25.5058 14.4144 25.4394 14.4772 25.354 14.5126C25.2916 14.5389 25.2263 14.5511 25.1609 14.5511C25.0312 14.5511 24.9025 14.4994 24.806 14.4023L22.9287 12.5128L23.6396 11.7973L24.5828 12.7466C24.1011 8.64279 21.3641 5.04601 17.4708 3.55933L17.8277 2.61308C22.0257 4.21614 24.9829 8.07099 25.5551 12.4835L26.1433 11.519L27 12.0493L25.5893 14.3608ZM9.56644 24.5297L9.20848 25.476C5.02153 23.876 2.07035 20.0373 1.48715 15.638L0.856696 16.6733L0 16.143L1.40973 13.8315L1.43486 13.8467C1.48615 13.7303 1.56357 13.6281 1.68524 13.5775C1.87226 13.4985 2.08945 13.5421 2.23324 13.6868L4.11053 15.5773L3.39964 16.2928L2.45546 15.3435C2.93811 19.4463 5.6741 23.042 9.56644 24.5297ZM23.9382 18.0233L24.8784 18.3826C23.2394 22.7243 19.2425 25.7472 14.7056 26.2016L15.8167 27.2683L15.1239 28L13.1732 26.1287L13.1853 26.1156C13.135 26.068 13.0827 26.0225 13.0546 25.9557C12.9771 25.7664 13.0204 25.5499 13.1642 25.4041L15.0425 23.5147L15.7534 24.2302L14.8102 25.1795C18.8865 24.6947 22.4601 21.9409 23.9382 18.0233ZM3.102 10.0667L2.16084 9.70745C3.80787 5.34456 7.83796 2.31149 12.401 1.87935L11.2064 0.732714L11.8992 0L13.8489 1.87227L13.8067 1.9168C13.8831 1.97043 13.9464 2.04229 13.9837 2.13337C14.0611 2.32262 14.0178 2.54021 13.8751 2.68493L11.9978 4.5744L11.2869 3.85889L12.23 2.9096C8.15269 3.39437 4.58011 6.14812 3.102 10.0667ZM20.4873 14.0005C20.4873 17.8786 17.3531 21.0342 13.5 21.0342C9.64688 21.0342 6.5127 17.8786 6.5127 14.0005C6.5127 10.1224 9.64688 6.96686 13.5 6.96686C17.3531 6.96686 20.4873 10.1224 20.4873 14.0005ZM5.50719 14.0005C5.50719 18.4363 9.09284 22.0462 13.5 22.0462C17.9072 22.0462 21.4928 18.4363 21.4928 14.0005C21.4928 9.56475 17.9072 5.95482 13.5 5.95482C9.09284 5.95482 5.50719 9.56475 5.50719 14.0005Z" fill="currentColor"/>
</svg>
