<svg width="26" height="27" viewBox="0 0 26 27" fill="none" xmlns="http://www.w3.org/2000/svg">
<path fill-rule="evenodd" clip-rule="evenodd" d="M25.888 12.913C4.234 12.913 1 9.024 1 6.706H0C0 10.238 4.767 12.48 14.172 13.413C4.767 14.346 0 16.587 0 20.119H1C1 17.801 4.234 13.913 25.888 13.913V12.913ZM2.874 23.952H3.874C3.874 21.837 4.51 19.493 8.902 17.855V16.794C3.591 18.656 2.874 21.576 2.874 23.952ZM5.748 26.826H6.748C6.748 24.933 6.755 22.825 8.902 21.083V19.842C5.752 21.955 5.748 24.747 5.748 26.826ZM24.931 16.871H11.931V25.871H12.931V23.371C12.931 23.095 13.155 22.871 13.431 22.871H15.431C15.707 22.871 15.931 23.095 15.931 23.371V25.871H16.931V21.371C16.931 21.095 17.155 20.871 17.431 20.871H19.431C19.707 20.871 19.931 21.095 19.931 21.371V25.871H20.931V19.371C20.931 19.095 21.155 18.871 21.431 18.871H23.431C23.707 18.871 23.931 19.095 23.931 19.371V25.871H24.931V16.871ZM21.931 25.871H22.931V19.871H21.931V25.871ZM17.931 25.871H18.931V21.871H17.931V25.871ZM13.931 25.871H14.931V23.871H13.931V25.871ZM25.931 16.371V26.371C25.931 26.647 25.707 26.871 25.431 26.871H11.431C11.155 26.871 10.931 26.647 10.931 26.371V16.371C10.931 16.095 11.155 15.871 11.431 15.871H25.431C25.707 15.871 25.931 16.095 25.931 16.371ZM25.888 11.997V10.997C6.49 10.997 3.874 6.891 3.874 2.874H2.874C2.874 7.386 5.609 11.997 25.888 11.997ZM5.748 0H6.748C6.748 3.617 6.748 9.081 25.888 9.081V10.081C7.303 10.081 5.748 5.101 5.748 0Z" fill="currentColor"/>
</svg>
