<svg width="28" height="28" viewBox="0 0 28 28" fill="none" xmlns="http://www.w3.org/2000/svg">
<path fill-rule="evenodd" clip-rule="evenodd" d="M1.435 11.0224C1.43 10.9308 1.427 10.8381 1.427 10.7435C1.427 7.93494 3.321 6.86571 4.477 6.47448C4.471 6.36214 4.468 6.24783 4.468 6.13351C4.468 3.80782 6.048 1.39441 8.143 0.519318C10.598 -0.505566 13.196 0.00589073 15.096 1.88222C15.661 2.44098 16.127 3.11405 16.491 3.88961C17.194 3.35056 18.098 3.16332 18.962 3.41264C20.177 3.76248 20.995 4.85044 21.192 6.35426C21.822 6.50602 22.746 6.84305 23.513 7.54371C23.431 7.53977 23.35 7.53189 23.268 7.53189C22.824 7.53189 22.393 7.58609 21.978 7.68069C21.45 7.41856 20.936 7.29735 20.633 7.24512C20.366 7.20077 20.183 6.95243 20.224 6.68734C20.141 5.50577 19.564 4.61294 18.682 4.35869C17.962 4.15174 17.191 4.42767 16.715 5.06133C16.605 5.20816 16.428 5.2801 16.239 5.25645C16.056 5.22984 15.903 5.10567 15.841 4.93322C15.502 3.98914 15.013 3.19683 14.387 2.57796C13.619 1.81915 11.507 0.185245 8.534 1.42693C6.815 2.14435 5.468 4.21186 5.468 6.13351C5.468 6.35032 5.482 6.56515 5.506 6.77407C5.537 7.01945 5.376 7.24807 5.134 7.30917C4.123 7.56441 2.427 8.34785 2.427 10.7435C2.427 10.8224 2.43 10.9002 2.433 10.9761C2.449 11.2855 2.518 11.5812 2.614 11.8679H1.569C1.498 11.592 1.449 11.3102 1.435 11.0224ZM22.905 24.2749V22.1966L24.556 23.2363L22.905 24.2749ZM22.674 20.882C22.52 20.7854 22.325 20.7795 22.164 20.8652C22.004 20.952 21.905 21.1175 21.905 21.2979V25.1747C21.905 25.354 22.004 25.5196 22.164 25.6063C22.24 25.6467 22.322 25.6674 22.405 25.6674C22.498 25.6674 22.592 25.6408 22.674 25.5896L25.754 23.6511C25.898 23.5605 25.985 23.4038 25.985 23.2363C25.985 23.0677 25.898 22.9111 25.754 22.8204L22.674 20.882ZM23.268 27.0145C21.21 27.0145 19.536 25.3649 19.536 23.3368C19.536 21.3087 21.21 19.658 23.268 19.658C25.326 19.658 27 21.3087 27 23.3368C27 25.3649 25.326 27.0145 23.268 27.0145ZM1 22.7081H11V13.8389H1V22.7081ZM23.268 9.50282C25.326 9.50282 27 11.1525 27 13.1806C27 15.2087 25.326 16.8593 23.268 16.8593C21.21 16.8593 19.536 15.2087 19.536 13.1806C19.536 11.1525 21.21 9.50282 23.268 9.50282ZM23.268 18.6726C20.875 18.6726 18.913 20.4385 18.6 22.713L12 20.3183V17.6792L18.858 14.8342C19.538 16.5893 21.251 17.8448 23.268 17.8448C25.877 17.8448 28 15.7526 28 13.1806C28 10.6095 25.877 8.51735 23.268 8.51735C20.659 8.51735 18.536 10.6095 18.536 13.1806C18.536 13.4161 18.572 13.6418 18.606 13.8684L12 16.609V13.3461C12 13.0741 11.777 12.8534 11.5 12.8534H0.5C0.224 12.8534 0 13.0741 0 13.3461V23.2008C0 23.4738 0.224 23.6935 0.5 23.6935H11.5C11.777 23.6935 12 23.4738 12 23.2008V21.3688L18.579 23.7556C18.797 26.1286 20.804 28 23.268 28C25.877 28 28 25.9079 28 23.3368C28 20.7647 25.877 18.6726 23.268 18.6726ZM23 12.2424L24.577 13.2663L23 14.2902V12.2424ZM22.263 15.6393C22.337 15.6777 22.419 15.6975 22.5 15.6975C22.596 15.6975 22.693 15.6699 22.776 15.6166L25.76 13.6772C25.901 13.5866 25.985 13.4319 25.985 13.2663C25.985 13.1008 25.901 12.946 25.76 12.8544L22.776 10.916C22.622 10.8174 22.426 10.8086 22.263 10.8933C22.101 10.98 22 11.1456 22 11.3279V15.2047C22 15.386 22.101 15.5526 22.263 15.6393ZM4.933 17.087L7.408 18.2804L4.933 19.5082V17.087ZM4.433 20.8012C4.51 20.8012 4.587 20.7844 4.658 20.7489L8.756 18.714C8.926 18.6302 9.033 18.4577 9.03201 18.2705C9.031 18.0842 8.922 17.9138 8.751 17.831L4.653 15.8541C4.498 15.7812 4.316 15.7881 4.168 15.8788C4.022 15.9694 3.933 16.1271 3.933 16.2976V20.3084C3.933 20.4799 4.023 20.6386 4.17 20.7283C4.251 20.7765 4.342 20.8012 4.433 20.8012Z" fill="currentColor"/>
</svg>
