<svg width="28" height="25" viewBox="0 0 28 25" fill="none" xmlns="http://www.w3.org/2000/svg">
<path fill-rule="evenodd" clip-rule="evenodd" d="M19 22H22V7H19V22ZM18 23H23V6H18V23ZM11 22H14V11H11V22ZM10 23H15V10H10V23ZM4 22H7V16H4V22ZM3 23H8V15H3V23ZM24 0V1H26.138L22.601 4H17.342C17.161 4 16.994 4.098 16.905 4.256L14.811 8H9.631C9.431 8 9.249 8.12 9.171 8.304L7.599 12H3V13H7.93C8.13 13 8.312 12.88 8.39 12.696L9.962 9H15.104C15.284 9 15.451 8.902 15.54 8.744L17.635 5H22.784C22.902 5 23.018 4.958 23.107 4.881L27 1.58V4H28V0H24ZM25 6H26V25H0V1H21V2H1V24H25V6Z" fill="currentColor"/>
</svg>
