<svg width="28" height="27" viewBox="0 0 28 27" fill="none" xmlns="http://www.w3.org/2000/svg">
<path fill-rule="evenodd" clip-rule="evenodd" d="M17.744 16.4516C17.744 16.6604 17.825 16.8562 17.973 17.0028C18.267 17.2989 18.777 17.2989 19.072 17.0038V17.0028C19.22 16.8562 19.301 16.6604 19.301 16.4516C19.301 16.2428 19.22 16.047 19.072 15.8984C18.926 15.7508 18.73 15.6695 18.522 15.6695C18.314 15.6695 18.119 15.7508 17.973 15.8984C17.825 16.047 17.744 16.2428 17.744 16.4516ZM17.265 17.7135C16.93 17.3762 16.744 16.9285 16.744 16.4516C16.744 15.9747 16.93 15.526 17.265 15.1886C17.959 14.4929 19.086 14.4929 19.779 15.1886C20.115 15.526 20.301 15.9747 20.301 16.4516C20.301 16.9285 20.115 17.3762 19.779 17.7135C19.443 18.0509 18.997 18.2366 18.522 18.2366C18.048 18.2366 17.601 18.0509 17.265 17.7135ZM15.074 16.2548L15.306 17.7286L16.328 17.6864C16.473 17.6694 16.603 17.7346 16.702 17.833L17.143 18.2768C17.242 18.3761 17.295 18.5127 17.29 18.6522L17.248 19.6793L18.717 19.9142L18.99 18.9343C19.028 18.7968 19.122 18.6834 19.248 18.6201L19.821 18.333C19.944 18.2707 20.088 18.2627 20.219 18.3119L21.165 18.6633L21.841 17.332L20.994 16.7678C20.879 16.6905 20.801 16.568 20.778 16.4305L20.677 15.805C20.654 15.6655 20.69 15.5239 20.777 15.4125L21.411 14.6073L20.359 13.5522L19.559 14.1877C19.45 14.276 19.307 14.3132 19.169 14.2901L18.547 14.1877C18.409 14.1656 18.288 14.0873 18.211 13.9708L17.646 13.1205L16.321 13.7972L16.672 14.7449C16.72 14.8764 16.712 15.021 16.649 15.1455L16.361 15.7207C16.299 15.8472 16.185 15.9406 16.05 15.9787L15.074 16.2548ZM14.388 18.328L14.016 15.9707C13.977 15.7187 14.132 15.4778 14.376 15.4085L15.567 15.0722L15.658 14.8905L15.228 13.7279C15.14 13.489 15.244 13.2209 15.471 13.1055L17.589 12.0222C17.813 11.9088 18.09 11.979 18.231 12.1919L18.922 13.2319L19.111 13.2631L20.088 12.487C20.287 12.3294 20.572 12.3465 20.752 12.5262L22.432 14.2138C22.612 14.3935 22.629 14.6796 22.472 14.8794L21.699 15.8623L21.729 16.053L22.765 16.7447C22.976 16.8853 23.049 17.1634 22.933 17.3903L21.853 19.5166C21.737 19.7435 21.475 19.8489 21.234 19.7586L20.074 19.3279L19.893 19.4192L19.559 20.6149C19.498 20.8348 19.299 20.9814 19.078 20.9814C19.053 20.9814 19.026 20.9794 19 20.9753L16.652 20.6009C16.401 20.5617 16.221 20.3399 16.23 20.0849L16.281 18.8309L16.15 18.6994L14.902 18.7506C14.638 18.7687 14.428 18.5789 14.388 18.328ZM27 11.0654L10.015 11.0434L10 11.0584V22.0717L18 22.0867C18.262 22.0867 18.49 22.1831 18.697 22.3819L22 25.6909V23.1057C22 22.5435 22.456 22.0867 23.015 22.0867H26.978L27 11.0654ZM28 11.0654V22.0646C28 22.678 27.59 23.0907 26.978 23.0907H23.015L23 26.1888C23 26.5161 22.81 26.8093 22.516 26.9357C22.416 26.9789 22.311 27 22.208 27C22.015 27 21.825 26.9257 21.675 26.7831L17.999 23.1007L10.015 23.0907C9.456 23.0907 9 22.6329 9 22.0717V11.0584C9 10.4962 9.456 10.0394 10.015 10.0394H26.978C27.59 10.0414 28 10.453 28 11.0654ZM12 8.03153H14V7.02759H12V8.03153ZM3 8.03153H11V7.02759H3V8.03153ZM10 6.02365H15V5.01971H10V6.02365ZM3 6.02365H8V5.01971H3V6.02365ZM13 4.01577H15V3.01182H13V4.01577ZM3 4.01577H12V3.01182H3V4.01577ZM6.744 11.5513L7.469 12.2431L4.366 15.5139C4.181 15.6806 3.965 15.7649 3.756 15.7649C3.646 15.7649 3.54 15.7418 3.439 15.6976C3.169 15.5751 3 15.3081 3 15.0009V12.0473H1C0.411 12.0473 0 11.6347 0 11.0434V1.00394C0 0.41262 0.411 0 1 0H16.984C17.544 0 18 0.456793 18 1.019V8.03153H17V1.019L1 1.00394V11.0434H3C3.589 11.0434 4 11.456 4 12.0473V14.4457L6.744 11.5513Z" fill="currentColor"/>
</svg>
