<svg width="28" height="28" viewBox="0 0 28 28" fill="none" xmlns="http://www.w3.org/2000/svg">
<path fill-rule="evenodd" clip-rule="evenodd" d="M3 25H6V23H3V25ZM6.5 22H2.5C2.224 22 2 22.224 2 22.5V25.5C2 25.776 2.224 26 2.5 26H6.5C6.776 26 7 25.776 7 25.5V22.5C7 22.224 6.776 22 6.5 22ZM9 25H12V23H9V25ZM12.5 22H8.5C8.224 22 8 22.224 8 22.5V25.5C8 25.776 8.224 26 8.5 26H12.5C12.776 26 13 25.776 13 25.5V22.5C13 22.224 12.776 22 12.5 22ZM25 27H1V4H5V11V19V20H6V19V12.137L11 16.72V19V20H12V19V16.5V12.567L17 16.734V20.5C17 20.776 17.224 21 17.5 21H25V27ZM1 3H5V1H1V3ZM25.5 20H18V16.5C18 16.352 17.935 16.211 17.82 16.116L11.82 11.116C11.672 10.992 11.464 10.965 11.288 11.047C11.112 11.129 11 11.306 11 11.5V15.363L6 10.78V4V3V0.5C6 0.224 5.776 0 5.5 0H0.5C0.224 0 0 0.224 0 0.5V27.5C0 27.776 0.224 28 0.5 28H25.5C25.776 28 26 27.776 26 27.5V20.5C26 20.224 25.776 20 25.5 20ZM26.643 17.039C26.304 17.425 25.762 17.685 25.375 17.345L20.556 13.019C21.139 12.673 21.667 12.246 22.126 11.751L26.785 15.727C26.941 15.864 27.013 16.046 26.998 16.27C26.98 16.524 26.854 16.797 26.643 17.039ZM27.439 14.971L22.756 10.974C23.538 9.844 24 8.476 24 7C24 3.14 20.859 0 17 0C13.141 0 10 3.14 10 7C10 7.358 10.027 7.72 10.082 8.076L11.07 7.924C11.023 7.619 11 7.307 11 7C11 3.691 13.691 1 17 1C20.309 1 23 3.691 23 7C23 10.309 20.309 13 17 13V14C17.916 14 18.789 13.818 19.591 13.497L24.711 18.093C25.026 18.369 25.402 18.503 25.791 18.503C26.348 18.503 26.93 18.228 27.395 17.698C27.75 17.292 27.964 16.809 27.996 16.337C28.031 15.802 27.836 15.318 27.439 14.971Z" fill="currentColor"/>
</svg>
