<?xml version="1.0" encoding="UTF-8" standalone="no"?>
<!-- Created with Inkscape (http://www.inkscape.org/) -->
<svg
   xmlns:dc="http://purl.org/dc/elements/1.1/"
   xmlns:cc="http://web.resource.org/cc/"
   xmlns:rdf="http://www.w3.org/1999/02/22-rdf-syntax-ns#"
   xmlns:svg="http://www.w3.org/2000/svg"
   xmlns="http://www.w3.org/2000/svg"
   xmlns:xlink="http://www.w3.org/1999/xlink"
   xmlns:sodipodi="http://inkscape.sourceforge.net/DTD/sodipodi-0.dtd"
   xmlns:inkscape="http://www.inkscape.org/namespaces/inkscape"
   inkscape:export-ydpi="240.00000"
   inkscape:export-xdpi="240.00000"
   inkscape:export-filename="/home/jimmac/gfx/novell/pdes/trunk/docs/BIGmime-text.png"
   sodipodi:docname="accessories-image-viewer.svg"
   sodipodi:docbase="/home/sevenissimo/Tango-Project/tango-icon-devel/scalable/apps"
   inkscape:version="0.43"
   sodipodi:version="0.32"
   id="svg249"
   height="48.000000px"
   width="48.000000px">
  <defs
     id="defs3">
    <radialGradient
       id="aigrd3"
       cx="20.8921"
       cy="64.5679"
       r="5.257"
       fx="20.8921"
       fy="64.5679"
       gradientUnits="userSpaceOnUse">
      <stop
         offset="0"
         style="stop-color:#F0F0F0"
         id="stop15573" />
      <stop
         offset="1.0000000"
         style="stop-color:#9a9a9a;stop-opacity:1.0000000;"
         id="stop15575" />
    </radialGradient>
    <linearGradient
       inkscape:collect="always"
       xlink:href="#linearGradient2366"
       id="linearGradient2372"
       x1="18.292673"
       y1="13.602121"
       x2="17.500893"
       y2="25.743469"
       gradientUnits="userSpaceOnUse" />
    <radialGradient
       gradientUnits="userSpaceOnUse"
       gradientTransform="matrix(2.592963,-7.7469e-24,-5.714443e-24,2.252104,-25.05975,-18.941)"
       r="6.6562500"
       fy="13.078408"
       fx="15.414371"
       cy="13.078408"
       cx="15.414371"
       id="radialGradient4473"
       xlink:href="#linearGradient4467"
       inkscape:collect="always" />
    <radialGradient
       gradientUnits="userSpaceOnUse"
       r="8.3085051"
       fy="21.817987"
       fx="18.240929"
       cy="21.817987"
       cx="18.240929"
       id="radialGradient4460"
       xlink:href="#linearGradient4454"
       inkscape:collect="always" />
    <linearGradient
       gradientTransform="matrix(1.334593,0,0,1.291292,-6.973842,-7.460658)"
       gradientUnits="userSpaceOnUse"
       y2="31.062500"
       x2="33.218750"
       y1="34.000000"
       x1="30.656250"
       id="linearGradient4446"
       xlink:href="#linearGradient4440"
       inkscape:collect="always" />
    <linearGradient
       id="linearGradient4440">
      <stop
         id="stop4442"
         offset="0"
         style="stop-color:#7d7d7d;stop-opacity:1;" />
      <stop
         style="stop-color:#b1b1b1;stop-opacity:1.0000000;"
         offset="0.50000000"
         id="stop4448" />
      <stop
         id="stop4444"
         offset="1.0000000"
         style="stop-color:#686868;stop-opacity:1.0000000;" />
    </linearGradient>
    <linearGradient
       id="linearGradient4454">
      <stop
         id="stop4456"
         offset="0.0000000"
         style="stop-color:#729fcf;stop-opacity:0.20784314;" />
      <stop
         id="stop4458"
         offset="1.0000000"
         style="stop-color:#729fcf;stop-opacity:0.67619050;" />
    </linearGradient>
    <linearGradient
       id="linearGradient4467">
      <stop
         id="stop4469"
         offset="0"
         style="stop-color:#ffffff;stop-opacity:1;" />
      <stop
         id="stop4471"
         offset="1.0000000"
         style="stop-color:#ffffff;stop-opacity:0.24761905;" />
    </linearGradient>
    <linearGradient
       id="linearGradient2366">
      <stop
         style="stop-color:#ffffff;stop-opacity:1;"
         offset="0"
         id="stop2368" />
      <stop
         id="stop2374"
         offset="0.50000000"
         style="stop-color:#ffffff;stop-opacity:0.21904762;" />
      <stop
         style="stop-color:#ffffff;stop-opacity:1.0000000;"
         offset="1.0000000"
         id="stop2370" />
    </linearGradient>
    <linearGradient
       gradientUnits="userSpaceOnUse"
       y2="39.984692"
       x2="45"
       y1="31"
       x1="42.1875"
       id="linearGradient8177"
       xlink:href="#linearGradient8171"
       inkscape:collect="always" />
    <linearGradient
       y2="37.770721"
       x2="33.664921"
       y1="40.458221"
       x1="35.996582"
       gradientTransform="translate(5.14757,-3.034792)"
       gradientUnits="userSpaceOnUse"
       id="linearGradient8169"
       xlink:href="#linearGradient2224"
       inkscape:collect="always" />
    <linearGradient
       y2="38.070381"
       x2="34.170048"
       y1="36.921333"
       x1="33.396004"
       gradientTransform="translate(5.14757,-3.409792)"
       gradientUnits="userSpaceOnUse"
       id="linearGradient8166"
       xlink:href="#linearGradient2251"
       inkscape:collect="always" />
    <radialGradient
       gradientUnits="userSpaceOnUse"
       gradientTransform="matrix(1.710531,-5.396358e-24,2.470345e-24,1.124849,-11.56833,1.802582)"
       r="19.96875"
       fy="10.404876"
       fx="12.700491"
       cy="10.404876"
       cx="12.700491"
       id="radialGradient8161"
       xlink:href="#linearGradient8155"
       inkscape:collect="always" />
    <linearGradient
       y2="36.0328"
       x2="31.0813"
       y1="3.7319"
       x1="12.4873"
       gradientTransform="matrix(1.434003,0,0,0.990087,52.32167,2.838918)"
       gradientUnits="userSpaceOnUse"
       id="linearGradient8148"
       xlink:href="#aigrd1"
       inkscape:collect="always" />
    <linearGradient
       y2="7.1091"
       x2="21.9326"
       y1="24.6274"
       x1="21.9326"
       gradientTransform="matrix(1.098989,0,0,1.106697,-1.953865,-4.922453)"
       gradientUnits="userSpaceOnUse"
       id="linearGradient7673"
       xlink:href="#aigrd3"
       inkscape:collect="always" />
    <linearGradient
       y2="7.1090999"
       x2="21.9326"
       y1="24.627399"
       x1="21.9326"
       gradientTransform="matrix(1.098989,0,0,-0.797757,-1.953865,37.324)"
       gradientUnits="userSpaceOnUse"
       id="linearGradient7671"
       xlink:href="#linearGradient7648"
       inkscape:collect="always" />
    <radialGradient
       gradientUnits="userSpaceOnUse"
       gradientTransform="matrix(1,0,0,0.184,-2.442491e-15,33.97501)"
       r="22.097088"
       fy="41.636040"
       fx="24.218407"
       cy="41.636040"
       cx="24.218407"
       id="radialGradient12135"
       xlink:href="#linearGradient12129"
       inkscape:collect="always" />
    <linearGradient
       id="aigrd1"
       gradientUnits="userSpaceOnUse"
       x1="12.4873"
       y1="3.7319"
       x2="31.0813"
       y2="36.0328"
       style="stroke-dasharray:none;stroke-miterlimit:4.0000000;stroke-width:1.2166667">
      <stop
         offset="0"
         style="stop-color:#D2D2D2;stroke-dasharray:none;stroke-miterlimit:4.0000000;stroke-width:1.2166667"
         id="stop16177" />
      <stop
         offset="1"
         style="stop-color:#EDEDED;stroke-dasharray:none;stroke-miterlimit:4.0000000;stroke-width:1.2166667"
         id="stop16179" />
    </linearGradient>
    <linearGradient
       id="linearGradient12129"
       inkscape:collect="always">
      <stop
         id="stop12131"
         offset="0"
         style="stop-color:#000000;stop-opacity:1;" />
      <stop
         id="stop12133"
         offset="1"
         style="stop-color:#000000;stop-opacity:0;" />
    </linearGradient>
    <linearGradient
       style="stroke-dasharray:none;stroke-miterlimit:4.0000000;stroke-width:1.2166667"
       y2="7.1091"
       x2="21.9326"
       y1="24.6274"
       x1="21.9326"
       gradientUnits="userSpaceOnUse"
       id="linearGradient7648">
      <stop
         id="stop7650"
         style="stop-color:#8595bc;stop-opacity:1;"
         offset="0" />
      <stop
         id="stop7652"
         style="stop-color:#041a3b;stop-opacity:1;"
         offset="1" />
    </linearGradient>
    <linearGradient
       id="linearGradient2251"
       inkscape:collect="always">
      <stop
         id="stop2253"
         offset="0"
         style="stop-color:#ffffff;stop-opacity:1;" />
      <stop
         id="stop2255"
         offset="1"
         style="stop-color:#ffffff;stop-opacity:0;" />
    </linearGradient>
    <linearGradient
       id="linearGradient2224">
      <stop
         id="stop2226"
         offset="0"
         style="stop-color:#7c7c7c;stop-opacity:1;" />
      <stop
         id="stop2228"
         offset="1"
         style="stop-color:#b8b8b8;stop-opacity:1;" />
    </linearGradient>
    <linearGradient
       id="linearGradient8155"
       inkscape:collect="always">
      <stop
         id="stop8157"
         offset="0"
         style="stop-color:#ffffff;stop-opacity:1;" />
      <stop
         id="stop8159"
         offset="1"
         style="stop-color:#ffffff;stop-opacity:0;" />
    </linearGradient>
    <linearGradient
       id="linearGradient8171">
      <stop
         id="stop8173"
         offset="0"
         style="stop-color:#bbbdba;stop-opacity:1;" />
      <stop
         id="stop8175"
         offset="1"
         style="stop-color:#70746e;stop-opacity:1;" />
    </linearGradient>
  </defs>
  <sodipodi:namedview
     inkscape:window-y="25"
     inkscape:window-x="0"
     inkscape:window-height="946"
     inkscape:window-width="1272"
     inkscape:document-units="px"
     inkscape:grid-bbox="true"
     showgrid="false"
     inkscape:current-layer="layer5"
     inkscape:cy="24"
     inkscape:cx="24"
     inkscape:zoom="16.166667"
     inkscape:pageshadow="2"
     inkscape:pageopacity="0.0"
     borderopacity="1"
     bordercolor="#666666"
     pagecolor="#ffffff"
     id="base"
     inkscape:showpageshadow="false"
     showborder="true" />
  <metadata
     id="metadata4">
    <rdf:RDF>
      <cc:Work
         rdf:about="">
        <dc:format>image/svg+xml</dc:format>
        <dc:type
           rdf:resource="http://purl.org/dc/dcmitype/StillImage" />
        <dc:title>Generic Text</dc:title>
        <dc:subject>
          <rdf:Bag>
            <rdf:li>text</rdf:li>
            <rdf:li>plaintext</rdf:li>
            <rdf:li>regular</rdf:li>
            <rdf:li>document</rdf:li>
          </rdf:Bag>
        </dc:subject>
        <cc:license
           rdf:resource="http://creativecommons.org/licenses/by-sa/2.0/" />
        <dc:creator>
          <cc:Agent>
            <dc:title>Jakub Steiner</dc:title>
          </cc:Agent>
        </dc:creator>
        <dc:source>http://jimmac.musichall.cz</dc:source>
      </cc:Work>
      <cc:License
         rdf:about="http://creativecommons.org/licenses/by/2.0/">
        <cc:permits
           rdf:resource="http://web.resource.org/cc/Reproduction" />
        <cc:permits
           rdf:resource="http://web.resource.org/cc/Distribution" />
        <cc:requires
           rdf:resource="http://web.resource.org/cc/Notice" />
        <cc:requires
           rdf:resource="http://web.resource.org/cc/Attribution" />
        <cc:permits
           rdf:resource="http://web.resource.org/cc/DerivativeWorks" />
        <cc:requires
           rdf:resource="http://web.resource.org/cc/ShareAlike" />
      </cc:License>
    </rdf:RDF>
  </metadata>
  <g
     inkscape:groupmode="layer"
     id="layer6"
     inkscape:label="Shadow" />
  <g
     style="display:inline"
     inkscape:groupmode="layer"
     inkscape:label="Base"
     id="layer1" />
  <g
     inkscape:groupmode="layer"
     id="layer5"
     inkscape:label="Text"
     style="display:inline">
    <g
       id="g1647"
       transform="matrix(0.964023,0,0,0.964023,1.462055,0.131627)">
      <path
         transform="translate(-1.386484,-2.98439)"
         d="M 46.315495 41.63604 A 22.097088 4.0658641 0 1 1  2.1213188,41.63604 A 22.097088 4.0658641 0 1 1  46.315495 41.63604 z"
         sodipodi:ry="4.0658641"
         sodipodi:rx="22.097088"
         sodipodi:cy="41.63604"
         sodipodi:cx="24.218407"
         id="path12127"
         style="opacity:0.52763821;color:#000000;fill:url(#radialGradient12135);fill-opacity:1;fill-rule:nonzero;stroke:none;stroke-width:1;stroke-linecap:butt;stroke-linejoin:miter;marker:none;marker-start:none;marker-mid:none;marker-end:none;stroke-miterlimit:4;stroke-dasharray:none;stroke-dashoffset:0;stroke-opacity:0.61658032;visibility:visible;display:block"
         sodipodi:type="arc" />
      <path
         sodipodi:nodetypes="ccccccccc"
         id="rect7603"
         d="M 2.7177715,6.4547749 L 43.379544,6.4547749 C 44.002793,6.4547749 44.504543,6.9565247 44.504543,7.5797745 L 44.504543,31.480581 C 44.504543,32.103831 36.047842,39.499872 35.424593,39.499872 L 2.7177715,39.499872 C 2.0945221,39.499872 1.5927727,38.998122 1.5927727,38.374872 L 1.5927727,7.5797745 C 1.5927727,6.9565247 2.0945221,6.4547749 2.7177715,6.4547749 z "
         style="color:#000000;fill:url(#linearGradient8148);fill-opacity:1;fill-rule:nonzero;stroke:#bbbfbb;stroke-width:0.99999994;stroke-linecap:butt;stroke-linejoin:miter;marker:none;marker-start:none;marker-mid:none;marker-end:none;stroke-miterlimit:4;stroke-dashoffset:0;stroke-opacity:1;visibility:visible;display:inline;overflow:visible" />
      <g
         transform="matrix(1.054774,0,0,1.049989,-0.814647,4.485012)"
         id="g7654">
        <path
           style="fill:url(#linearGradient7671);fill-opacity:1;fill-rule:nonzero;stroke:none;stroke-width:1.2166667;stroke-miterlimit:4"
           d="M 5.512695,30 L 39.643234,30 L 39.643234,19.627375 L 5.512695,19.627375 L 5.512695,30 z "
           id="path7644" />
        <path
           id="path16203"
           d="M 5.512695,5.237844 L 39.643234,5.237844 L 39.643234,19.627375 L 5.512695,19.627375 L 5.512695,5.237844 z "
           style="fill:url(#linearGradient7673);fill-rule:nonzero;stroke:none;stroke-width:1.2166667;stroke-miterlimit:4" />
        <g
           transform="matrix(1.189217,0,0,1.189217,-3.525355,-6.535408)"
           style="fill-rule:nonzero;stroke:#000000;stroke-width:1.15611064;stroke-miterlimit:4"
           id="g16205">
          <g
             id="g16207">
            <path
               id="path16209"
               d="M 18.4,15.4 C 18.4,17.6 16.6,19.5 14.3,19.5 C 12.1,19.5 10.2,17.7 10.2,15.4 C 10.2,13.2 12,11.3 14.3,11.3 C 16.5,11.3 18.4,13.1 18.4,15.4 z "
               style="opacity:0.04999994;fill:#e8f52f;stroke:none" />
            <path
               id="path16211"
               d="M 18,15.4 C 18,17.4 16.4,19.1 14.3,19.1 C 12.3,19.1 10.6,17.5 10.6,15.4 C 10.6,13.4 12.2,11.7 14.3,11.7 C 16.3,11.7 18,13.3 18,15.4 L 18,15.4 z "
               style="opacity:0.20829994;fill:#ecf751;stroke:none" />
            <path
               id="path16213"
               d="M 17.6,15.4 C 17.6,17.2 16.1,18.7 14.3,18.7 C 12.5,18.7 11,17.2 11,15.4 C 11,13.6 12.5,12.1 14.3,12.1 C 16.1,12.1 17.6,13.6 17.6,15.4 L 17.6,15.4 z "
               style="opacity:0.36669994;fill:#f0f972;stroke:none" />
            <path
               id="path16215"
               d="M 17.2,15.4 C 17.2,17 15.9,18.3 14.3,18.3 C 12.7,18.3 11.4,17 11.4,15.4 C 11.4,13.8 12.7,12.5 14.3,12.5 C 15.9,12.5 17.2,13.8 17.2,15.4 z "
               style="opacity:0.525;fill:#f4fa95;stroke:none" />
            <path
               id="path16217"
               d="M 16.8,15.4 C 16.8,16.8 15.7,17.9 14.3,17.9 C 12.9,17.9 11.8,16.8 11.8,15.4 C 11.8,14 12.9,12.9 14.3,12.9 C 15.7,12.9 16.8,14 16.8,15.4 L 16.8,15.4 z "
               style="opacity:0.6833;fill:#f7fcb7;stroke:none" />
            <path
               id="path16219"
               d="M 16.4,15.4 C 16.4,16.6 15.4,17.5 14.3,17.5 C 13.2,17.5 12.2,16.5 12.2,15.4 C 12.2,14.3 13.2,13.3 14.3,13.3 C 15.4,13.3 16.4,14.3 16.4,15.4 z "
               style="opacity:0.8417;fill:#fbfddb;stroke:none" />
            <path
               id="path16221"
               d="M 16,15.4 C 16,16.4 15.2,17.2 14.2,17.2 C 13.2,17.2 12.4,16.4 12.4,15.4 C 12.4,14.4 13.2,13.6 14.2,13.6 C 15.2,13.6 16,14.4 16,15.4 L 16,15.4 z "
               style="fill:#ffffff;stroke:none" />
          </g>
        </g>
        <path
           id="path16223"
           d="M 25.015859,21.649044 L 33.697148,21.649044 L 35.362052,22.124732 L 32.507931,22.124732 C 32.507931,22.124732 35.362052,22.362574 36.789115,24.146401 C 38.216174,25.811305 35.12421,27.832976 35.12421,27.832976 C 35.12421,27.832976 35.12421,27.832976 35.12421,27.832976 C 35.005288,27.47621 34.291756,24.622087 32.864696,23.43287 C 31.794399,22.481496 30.605182,22.243652 30.605182,22.243652 L 25.015859,22.243652 L 25.015859,21.767966 L 25.015859,21.649044 z "
           style="opacity:0.3;fill-rule:nonzero;stroke:none;stroke-width:1.2166667;stroke-miterlimit:4" />
        <path
           id="path16225"
           d="M 30.724106,22.362574 L 25.729391,22.362574 L 35.005288,27.595131 L 30.724106,22.362574 L 30.724106,22.362574 z "
           style="opacity:0.3;fill-rule:nonzero;stroke:none;stroke-width:1.2166667;stroke-miterlimit:4" />
        <path
           id="path16227"
           d="M 25.015859,21.767966 L 33.697148,21.767966 L 35.005288,20.935513 L 32.151167,20.935513 C 32.151167,20.935513 34.767443,20.459827 35.12421,17.486782 C 35.480973,14.513739 31.080869,11.183931 31.080869,11.183931 C 31.080869,11.183931 31.080869,11.183931 31.080869,11.302853 C 31.19979,12.016383 32.389007,17.011096 31.556557,18.913846 C 31.19979,20.578747 30.129495,20.935513 30.129495,20.935513 L 24.659094,20.935513 L 24.896938,21.767966 L 25.015859,21.767966 z "
           style="fill:#515151;fill-rule:nonzero;stroke:none;stroke-width:1.2166667;stroke-miterlimit:4" />
        <path
           id="path16229"
           d="M 30.248418,20.459827 L 25.253704,20.459827 L 31.19979,11.421773 L 30.248418,20.459827 z "
           style="fill:#515151;fill-rule:nonzero;stroke:none;stroke-width:1.2166667;stroke-miterlimit:4" />
      </g>
      <path
         sodipodi:nodetypes="ccccccccc"
         id="rect7675"
         d="M 2.8042317,7.4528585 L 43.233985,7.4528585 C 43.384366,7.4528585 43.505431,7.5739234 43.505431,7.7243045 L 43.505431,31.422651 C 43.505431,32.368527 36.401687,38.5 36.251306,38.5 L 2.8042317,38.5 C 2.6538507,38.5 2.5327858,38.378935 2.5327858,38.228554 L 2.5327858,7.7243045 C 2.5327858,7.5739234 2.6538507,7.4528585 2.8042317,7.4528585 z "
         style="color:#000000;fill:none;fill-opacity:1;fill-rule:nonzero;stroke:#ffffff;stroke-width:0.99999976;stroke-linecap:butt;stroke-linejoin:miter;marker:none;marker-start:none;marker-mid:none;marker-end:none;stroke-miterlimit:4;stroke-dashoffset:0;stroke-opacity:1;visibility:visible;display:inline;overflow:visible" />
      <rect
         y="10.5"
         x="5.5"
         height="25.0625"
         width="35.0625"
         id="rect8163"
         style="opacity:0.4;color:#000000;fill:none;fill-opacity:1;fill-rule:nonzero;stroke:#4f4f4f;stroke-width:1;stroke-linecap:butt;stroke-linejoin:miter;marker:none;marker-start:none;marker-mid:none;marker-end:none;stroke-miterlimit:4;stroke-dasharray:none;stroke-dashoffset:0;stroke-opacity:1;visibility:visible;display:inline;overflow:visible" />
      <path
         sodipodi:nodetypes="cccc"
         id="path2210"
         d="M 35.206652,39.468763 C 37.23707,39.798661 44.795445,34.938834 44.491063,30.970919 C 42.927801,33.394016 39.732541,32.257657 35.623783,32.416667 C 35.623783,32.416667 36.019152,38.968763 35.206652,39.468763 z "
         style="color:#000000;fill:url(#linearGradient8169);fill-opacity:1;fill-rule:evenodd;stroke:url(#linearGradient8177);stroke-width:1.00000024;stroke-linecap:butt;stroke-linejoin:miter;marker:none;marker-start:none;marker-mid:none;marker-end:none;stroke-miterlimit:4;stroke-dasharray:none;stroke-dashoffset:0;stroke-opacity:1;visibility:visible;display:inline;overflow:visible" />
      <path
         style="opacity:0.36931817;color:#000000;fill:none;fill-opacity:1;fill-rule:evenodd;stroke:url(#linearGradient8166);stroke-width:0.99999982;stroke-linecap:butt;stroke-linejoin:miter;marker:none;marker-start:none;marker-mid:none;marker-end:none;stroke-miterlimit:4;stroke-dasharray:none;stroke-dashoffset:0;stroke-opacity:1;visibility:visible;display:inline;overflow:visible"
         d="M 36.657089,37.277261 C 38.026868,36.593432 41.085338,35.130796 42.384719,33.249792 C 40.788625,33.929847 39.436909,33.459288 36.682385,33.440197 C 36.682385,33.440197 36.844707,36.502291 36.657089,37.277261 z "
         id="path2247"
         sodipodi:nodetypes="cccc" />
      <path
         sodipodi:nodetypes="ccccc"
         id="rect8150"
         d="M 3.0625,8 L 3.0625,30.0625 C 25.388579,30.950861 27.884634,17 43,17 L 43,8 L 3.0625,8 z "
         style="opacity:0.30113639;color:#000000;fill:url(#radialGradient8161);fill-opacity:1;fill-rule:nonzero;stroke:none;stroke-width:1;stroke-linecap:butt;stroke-linejoin:miter;marker:none;marker-start:none;marker-mid:none;marker-end:none;stroke-miterlimit:4;stroke-dasharray:none;stroke-dashoffset:0;stroke-opacity:1;visibility:visible;display:inline;overflow:visible" />
    </g>
    <g
       id="g1649"
       inkscape:label="Layer 1"
       transform="matrix(0.689525,0,0,0.689525,15.0163,15.44755)">
      <g
         id="g1772">
        <path
           style="opacity:1;color:#000000;fill:#dcdcdc;fill-opacity:1;fill-rule:evenodd;stroke:#484848;stroke-width:2.9005475;stroke-linecap:round;stroke-linejoin:miter;marker:none;marker-start:none;marker-mid:none;marker-end:none;stroke-miterlimit:10;stroke-dasharray:none;stroke-dashoffset:0;stroke-opacity:1;visibility:visible;display:inline;overflow:visible"
           d="M 18.627569,3.1435548 C 10.488439,3.1435548 3.8827682,9.7492259 3.8827682,17.888356 C 3.8827682,26.027486 10.488439,32.633158 18.627569,32.633158 C 22.107124,32.633158 25.17857,31.248765 27.701292,29.230511 C 27.495915,30.237392 27.623257,31.265879 28.457436,31.990436 L 39.42152,41.517846 C 40.654936,42.589175 42.508982,42.448806 43.58031,41.215389 C 44.651638,39.981971 44.511269,38.127927 43.277853,37.056599 L 32.313769,27.529188 C 31.642242,26.945909 30.820891,26.773219 30.007531,26.886466 C 31.994231,24.374044 33.37237,21.337663 33.37237,17.888356 C 33.37237,9.7492259 26.766699,3.1435548 18.627569,3.1435548 z M 18.551954,4.3697381 C 26.191413,4.3697381 31.843729,9.1586886 31.843729,17.661513 C 31.843729,26.336626 26.027039,30.953288 18.551954,30.953288 C 11.249005,30.953288 5.2601806,25.475196 5.2601806,17.661513 C 5.2601806,9.6774061 11.084819,4.369738 18.551954,4.3697381 z "
           id="path2844"
           sodipodi:nodetypes="csscccscccscczzzz" />
        <path
           id="path4430"
           d="M 18.602905,3.0803551 C 10.437465,3.0803551 3.8104408,9.7073791 3.8104408,17.872819 C 3.8104408,26.038259 10.437465,32.665283 18.602905,32.665283 C 22.093708,32.665283 25.175082,31.276416 27.70596,29.251638 C 27.499919,30.261774 27.627672,31.293585 28.464547,32.020484 L 39.464073,41.578691 C 40.701476,42.653483 42.561515,42.512661 43.636306,41.275256 C 44.711097,40.037852 44.570274,38.177814 43.332871,37.103023 L 32.333346,27.544815 C 31.659648,26.959651 30.835642,26.786402 30.019653,26.900016 C 32.012775,24.379472 33.395369,21.333276 33.395369,17.872819 C 33.395369,9.7073791 26.768345,3.0803551 18.602905,3.0803551 z M 18.527046,6.2664243 C 24.808154,6.2664245 29.905864,11.364135 29.905864,17.645243 C 29.905864,23.926351 24.808154,29.024061 18.527046,29.024061 C 12.245938,29.024061 7.1482276,23.926351 7.1482276,17.645243 C 7.1482278,11.364135 12.245938,6.2664243 18.527046,6.2664243 z "
           style="opacity:1;color:#000000;fill:#dcdcdc;fill-opacity:1;fill-rule:evenodd;stroke:none;stroke-width:1.00000036;stroke-linecap:round;stroke-linejoin:miter;marker:none;marker-start:none;marker-mid:none;marker-end:none;stroke-miterlimit:10;stroke-dasharray:none;stroke-dashoffset:0;stroke-opacity:1;visibility:visible;display:inline;overflow:visible" />
        <path
           sodipodi:nodetypes="ccccc"
           id="path4438"
           d="M 39.507004,41.57769 C 39.028332,39.304503 40.904334,36.766268 43.091057,36.789315 C 43.091057,36.789315 32.33069,27.531204 32.33069,27.531204 C 29.385899,27.474498 28.061188,29.80382 28.553876,32.131126 L 39.507004,41.57769 z "
           style="opacity:1;color:#000000;fill:url(#linearGradient4446);fill-opacity:1;fill-rule:evenodd;stroke:none;stroke-width:1;stroke-linecap:round;stroke-linejoin:miter;marker:none;marker-start:none;marker-mid:none;marker-end:none;stroke-miterlimit:10;stroke-dasharray:none;stroke-dashoffset:0;stroke-opacity:1;visibility:visible;display:inline;overflow:visible" />
        <path
           transform="matrix(1.245743,0,0,1.245743,-3.425346,-6.177033)"
           d="M 28.549437 18.920233 A 11.048544 11.048544 0 1 1  6.4523487,18.920233 A 11.048544 11.048544 0 1 1  28.549437 18.920233 z"
           sodipodi:ry="11.048544"
           sodipodi:rx="11.048544"
           sodipodi:cy="18.920233"
           sodipodi:cx="17.500893"
           id="path4450"
           style="opacity:1;color:#000000;fill:none;fill-opacity:1;fill-rule:evenodd;stroke:url(#linearGradient2372);stroke-width:0.8027336;stroke-linecap:round;stroke-linejoin:miter;marker:none;marker-start:none;marker-mid:none;marker-end:none;stroke-miterlimit:10;stroke-dasharray:none;stroke-dashoffset:0;stroke-opacity:1;visibility:visible;display:inline;overflow:visible"
           sodipodi:type="arc" />
        <rect
           transform="matrix(0.752986,0.658037,-0.648902,0.760872,0,0)"
           ry="2.7380238"
           rx="3.098742"
           y="0.14086054"
           x="40.373337"
           height="4.4404783"
           width="19.048439"
           id="rect4495"
           style="opacity:0.43315507;color:#000000;fill:none;fill-opacity:1;fill-rule:evenodd;stroke:#ffffff;stroke-width:1.00003111;stroke-linecap:round;stroke-linejoin:miter;marker:none;marker-start:none;marker-mid:none;marker-end:none;stroke-miterlimit:10;stroke-dasharray:none;stroke-dashoffset:0;stroke-opacity:1;visibility:visible;display:inline;overflow:visible" />
        <path
           transform="matrix(1.398614,0,0,1.398614,-6.224338,-8.298958)"
           d="M 25.897786 18.478292 A 8.3085051 8.3085051 0 1 1  9.280776,18.478292 A 8.3085051 8.3085051 0 1 1  25.897786 18.478292 z"
           sodipodi:ry="8.3085051"
           sodipodi:rx="8.3085051"
           sodipodi:cy="18.478292"
           sodipodi:cx="17.589281"
           id="path4452"
           style="opacity:0.5;color:#000000;fill:url(#radialGradient4460);fill-opacity:1;fill-rule:evenodd;stroke:#3063a3;stroke-width:0.71499395;stroke-linecap:round;stroke-linejoin:miter;marker:none;marker-start:none;marker-mid:none;marker-end:none;stroke-miterlimit:10;stroke-dashoffset:0;stroke-opacity:1;visibility:visible"
           sodipodi:type="arc" />
        <path
           id="path4462"
           d="M 18.156915,7.3966938 C 12.949325,7.3966938 8.7323681,11.613651 8.7323681,16.821241 C 8.7323681,18.325216 9.1526753,19.709014 9.77954,20.971144 C 11.03192,21.432757 12.362297,21.746827 13.774307,21.746827 C 19.945262,21.746827 24.873589,16.88519 25.254413,10.809698 C 23.523449,8.7641668 21.044374,7.3966938 18.156915,7.3966938 z "
           style="opacity:0.5;color:#000000;fill:url(#radialGradient4473);fill-opacity:1;fill-rule:evenodd;stroke:none;stroke-width:1;stroke-linecap:round;stroke-linejoin:miter;marker:none;marker-start:none;marker-mid:none;marker-end:none;stroke-miterlimit:10;stroke-dasharray:none;stroke-dashoffset:0;stroke-opacity:1;visibility:visible;display:inline;overflow:visible" />
      </g>
    </g>
  </g>
</svg>
