<?xml version="1.0" encoding="UTF-8" standalone="no"?>
<!-- Created with Inkscape (http://www.inkscape.org/) -->
<svg
   xmlns:dc="http://purl.org/dc/elements/1.1/"
   xmlns:cc="http://web.resource.org/cc/"
   xmlns:rdf="http://www.w3.org/1999/02/22-rdf-syntax-ns#"
   xmlns:svg="http://www.w3.org/2000/svg"
   xmlns="http://www.w3.org/2000/svg"
   xmlns:xlink="http://www.w3.org/1999/xlink"
   xmlns:sodipodi="http://inkscape.sourceforge.net/DTD/sodipodi-0.dtd"
   xmlns:inkscape="http://www.inkscape.org/namespaces/inkscape"
   width="48"
   height="48"
   id="svg2"
   sodipodi:version="0.32"
   inkscape:version="0.43"
   version="1.0"
   sodipodi:docbase="/home/sevenissimo/Tango-Project/tango-icon-devel/scalable/apps"
   sodipodi:docname="xine.svg">
  <defs
     id="defs4">
    <linearGradient
       id="linearGradient6248">
      <stop
         style="stop-color:#000000;stop-opacity:1;"
         offset="0"
         id="stop6250" />
      <stop
         id="stop6280"
         offset="0.5"
         style="stop-color:#000000;stop-opacity:1;" />
      <stop
         style="stop-color:#000000;stop-opacity:0.12195122;"
         offset="0.86931819"
         id="stop6282" />
      <stop
         style="stop-color:#000000;stop-opacity:0;"
         offset="1"
         id="stop6252" />
    </linearGradient>
    <linearGradient
       id="linearGradient3474">
      <stop
         style="stop-color:#000000;stop-opacity:1;"
         offset="0"
         id="stop3476" />
      <stop
         id="stop3482"
         offset="0.68181819"
         style="stop-color:#8c8c8c;stop-opacity:0.5487805;" />
      <stop
         style="stop-color:#ffffff;stop-opacity:0.47560975;"
         offset="1"
         id="stop3478" />
    </linearGradient>
    <linearGradient
       y2="34.3075"
       x2="32.511"
       y1="11.1885"
       x1="14.9966"
       gradientUnits="userSpaceOnUse"
       id="aigrd1">
      <stop
         id="stop3034"
         style="stop-color:#EBEBEB"
         offset="0" />
      <stop
         id="stop3036"
         style="stop-color:#FFFFFF"
         offset="0.5" />
      <stop
         id="stop3038"
         style="stop-color:#EBEBEB"
         offset="1" />
    </linearGradient>
    <linearGradient
       y2="14.2033"
       x2="35.3912"
       y1="32.4165"
       x1="12.2744"
       gradientUnits="userSpaceOnUse"
       id="aigrd2">
      <stop
         id="stop3043"
         style="stop-color:#FBFBFB"
         offset="0" />
      <stop
         id="stop3045"
         style="stop-color:#B6B6B6"
         offset="0.5" />
      <stop
         id="stop3047"
         style="stop-color:#E4E4E4"
         offset="1" />
    </linearGradient>
    <linearGradient
       id="linearGradient4236">
      <stop
         id="stop4238"
         offset="0.0000000"
         style="stop-color:#ffffff;stop-opacity:0.32673267;" />
      <stop
         id="stop4240"
         offset="1.0000000"
         style="stop-color:#ffffff;stop-opacity:0.60396039;" />
    </linearGradient>
    <linearGradient
       id="linearGradient6028"
       inkscape:collect="always">
      <stop
         id="stop6030"
         offset="0"
         style="stop-color:#ffffff;stop-opacity:1;" />
      <stop
         id="stop6032"
         offset="1"
         style="stop-color:#ffffff;stop-opacity:0;" />
    </linearGradient>
    <linearGradient
       id="linearGradient6036"
       inkscape:collect="always">
      <stop
         id="stop6038"
         offset="0"
         style="stop-color:#ffffff;stop-opacity:1;" />
      <stop
         id="stop6040"
         offset="1"
         style="stop-color:#ffffff;stop-opacity:0;" />
    </linearGradient>
    <linearGradient
       id="linearGradient3394"
       gradientUnits="userSpaceOnUse"
       x1="12.2744"
       y1="32.4165"
       x2="35.3912"
       y2="14.2033">
      <stop
         offset="0.0000000"
         style="stop-color:#fff307;stop-opacity:1.0000000;"
         id="stop3396" />
      <stop
         offset="0.50000000"
         style="stop-color:#166eff;stop-opacity:1.0000000;"
         id="stop3398" />
      <stop
         offset="1.0000000"
         style="stop-color:#ffffff;stop-opacity:0.0000000;"
         id="stop3400" />
    </linearGradient>
    <linearGradient
       y2="14.2033"
       x2="35.3912"
       y1="32.4165"
       x1="12.2744"
       gradientUnits="userSpaceOnUse"
       id="linearGradient3406">
      <stop
         id="stop3408"
         style="stop-color:#b307ff;stop-opacity:0.82178217;"
         offset="0.0000000" />
      <stop
         id="stop3410"
         style="stop-color:#f0ff8b;stop-opacity:0.64356434;"
         offset="1.0000000" />
      <stop
         id="stop3412"
         style="stop-color:#ffffff;stop-opacity:0.0000000;"
         offset="1.0000000" />
    </linearGradient>
    <linearGradient
       id="linearGradient3421"
       gradientUnits="userSpaceOnUse"
       x1="12.2744"
       y1="32.4165"
       x2="35.3912"
       y2="14.2033">
      <stop
         offset="0.0000000"
         style="stop-color:#ffffff;stop-opacity:1.0000000;"
         id="stop3423" />
      <stop
         offset="1.0000000"
         style="stop-color:#b8c04c;stop-opacity:0.0000000;"
         id="stop3427" />
    </linearGradient>
    <linearGradient
       id="linearGradient23419"
       inkscape:collect="always">
      <stop
         id="stop23421"
         offset="0"
         style="stop-color:#000000;stop-opacity:1;" />
      <stop
         id="stop23423"
         offset="1"
         style="stop-color:#000000;stop-opacity:0;" />
    </linearGradient>
    <radialGradient
       inkscape:collect="always"
       xlink:href="#linearGradient23419"
       id="radialGradient7041"
       gradientUnits="userSpaceOnUse"
       gradientTransform="matrix(1,0,0,0.25,0,31.22703)"
       cx="23.334524"
       cy="41.63604"
       fx="23.334524"
       fy="41.63604"
       r="22.627417" />
    <linearGradient
       inkscape:collect="always"
       xlink:href="#linearGradient6028"
       id="linearGradient7053"
       gradientUnits="userSpaceOnUse"
       x1="28.702885"
       y1="31.494707"
       x2="17.742729"
       y2="18.366575" />
    <radialGradient
       inkscape:collect="always"
       xlink:href="#linearGradient3421"
       id="radialGradient7077"
       gradientUnits="userSpaceOnUse"
       gradientTransform="matrix(0.15845,-0.158988,0.432907,0.431441,-3.058169,13.3963)"
       cx="53.556889"
       cy="48.238270"
       fx="53.556889"
       fy="48.238270"
       r="21.333334" />
    <radialGradient
       inkscape:collect="always"
       xlink:href="#linearGradient3406"
       id="radialGradient7080"
       gradientUnits="userSpaceOnUse"
       gradientTransform="matrix(0.769501,-1.2425,0.6703,0.415141,-22.11309,39.76086)"
       cx="26.137741"
       cy="38.807304"
       fx="26.137741"
       fy="38.807304"
       r="21.333334" />
    <radialGradient
       inkscape:collect="always"
       xlink:href="#linearGradient3394"
       id="radialGradient7083"
       gradientUnits="userSpaceOnUse"
       gradientTransform="matrix(0.848684,0.95802,-0.782119,0.692834,18.35695,-22.13055)"
       cx="37.751469"
       cy="27.569166"
       fx="37.751469"
       fy="27.569166"
       r="21.333334" />
    <linearGradient
       inkscape:collect="always"
       xlink:href="#linearGradient6036"
       id="linearGradient7087"
       gradientUnits="userSpaceOnUse"
       x1="10.501720"
       y1="3.6100161"
       x2="48.798885"
       y2="54.698483"
       gradientTransform="translate(-0.334524,-1.604774)" />
    <linearGradient
       inkscape:collect="always"
       xlink:href="#linearGradient4236"
       id="linearGradient7090"
       gradientUnits="userSpaceOnUse"
       gradientTransform="matrix(1.25,0,0,1.25,-5.987519,-4.208939)"
       x1="21.125000"
       y1="14.625000"
       x2="29.000000"
       y2="28.000000" />
    <linearGradient
       inkscape:collect="always"
       xlink:href="#linearGradient4236"
       id="linearGradient7093"
       gradientUnits="userSpaceOnUse"
       gradientTransform="matrix(1.25,0,0,1.25,-5.987519,-4.208939)"
       x1="21.125000"
       y1="14.625000"
       x2="29.000000"
       y2="28.000000" />
    <linearGradient
       inkscape:collect="always"
       xlink:href="#aigrd2"
       id="linearGradient7097"
       gradientUnits="userSpaceOnUse"
       gradientTransform="matrix(1.190476,0,0,1.190476,-4.558948,-4.104775)"
       x1="12.2744"
       y1="32.4165"
       x2="35.3912"
       y2="14.2033" />
    <linearGradient
       inkscape:collect="always"
       xlink:href="#aigrd1"
       id="linearGradient7100"
       gradientUnits="userSpaceOnUse"
       gradientTransform="matrix(1.190476,0,0,1.190476,-4.558948,-4.104774)"
       x1="14.9966"
       y1="11.1885"
       x2="32.511"
       y2="34.3075" />
    <radialGradient
       inkscape:collect="always"
       xlink:href="#linearGradient3474"
       id="radialGradient7108"
       gradientUnits="userSpaceOnUse"
       gradientTransform="matrix(6.306957e-7,-1.492683,2.000001,8.450498e-7,-91.01474,56.45828)"
       cx="6.5140662"
       cy="45.176495"
       fx="6.5140662"
       fy="45.176495"
       r="6.2915602" />
    <linearGradient
       inkscape:collect="always"
       xlink:href="#linearGradient6248"
       id="linearGradient7112"
       gradientUnits="userSpaceOnUse"
       spreadMethod="reflect"
       x1="25.720932"
       y1="36.62291"
       x2="50.941753"
       y2="29.28516"
       gradientTransform="translate(0,0.229304)" />
    <linearGradient
       inkscape:collect="always"
       xlink:href="#linearGradient6248"
       id="linearGradient7114"
       gradientUnits="userSpaceOnUse"
       spreadMethod="reflect"
       x1="24.859694"
       y1="35.533714"
       x2="51.973621"
       y2="27.680025"
       gradientTransform="translate(0,0.229304)" />
    <linearGradient
       inkscape:collect="always"
       xlink:href="#linearGradient6248"
       id="linearGradient7117"
       gradientUnits="userSpaceOnUse"
       spreadMethod="reflect"
       x1="24.998199"
       y1="36.5051"
       x2="49.729832"
       y2="28.995373"
       gradientTransform="translate(0,0.229304)" />
  </defs>
  <sodipodi:namedview
     id="base"
     pagecolor="#ffffff"
     bordercolor="#666666"
     borderopacity="1.0"
     inkscape:pageopacity="0.0"
     inkscape:pageshadow="2"
     inkscape:zoom="15.74172"
     inkscape:cx="27.903898"
     inkscape:cy="18.33537"
     inkscape:document-units="px"
     inkscape:current-layer="layer1"
     inkscape:showpageshadow="false"
     inkscape:window-width="1280"
     inkscape:window-height="952"
     inkscape:window-x="0"
     inkscape:window-y="25"
     showguides="true"
     inkscape:guide-bbox="true" />
  <metadata
     id="metadata7">
    <rdf:RDF>
      <cc:Work
         rdf:about="">
        <dc:format>image/svg+xml</dc:format>
        <dc:type
           rdf:resource="http://purl.org/dc/dcmitype/StillImage" />
      </cc:Work>
    </rdf:RDF>
  </metadata>
  <g
     inkscape:label="Livello 1"
     inkscape:groupmode="layer"
     id="layer1">
    <path
       inkscape:r_cy="true"
       inkscape:r_cx="true"
       id="path3040"
       d="M 24.012482,2.5618929 C 12.464862,2.5618929 3.1791479,11.847607 3.1791479,23.395226 C 3.1791479,34.942846 12.464862,44.228561 24.012482,44.228561 C 35.560102,44.228561 44.845817,34.942846 44.845817,23.395226 C 44.845817,11.847607 35.560102,2.5618929 24.012482,2.5618929 L 24.012482,2.5618929 z M 24.012482,28.395227 C 21.274387,28.395227 19.012482,26.133322 19.012482,23.395226 C 19.012482,20.657131 21.274387,18.395226 24.012482,18.395226 C 26.750577,18.395226 29.012482,20.657131 29.012482,23.395226 C 29.012482,26.133322 26.750577,28.395227 24.012482,28.395227 z "
       style="fill:url(#linearGradient7100);fill-rule:nonzero;stroke:none;stroke-miterlimit:4" />
    <path
       inkscape:r_cy="true"
       inkscape:r_cx="true"
       id="path3049"
       d="M 24.012482,2.5618925 C 12.464862,2.5618925 3.179148,11.847607 3.179148,23.395226 C 3.179148,34.942846 12.464862,44.228561 24.012482,44.228561 C 35.560102,44.228561 44.845817,34.942846 44.845817,23.395226 C 44.845817,11.847607 35.560102,2.5618925 24.012482,2.5618925 L 24.012482,2.5618925 z M 24.012482,28.395227 C 21.274387,28.395227 19.012482,26.133322 19.012482,23.395226 C 19.012482,20.657131 21.274387,18.395226 24.012482,18.395226 C 26.750577,18.395226 29.012482,20.657131 29.012482,23.395226 C 29.012482,26.133322 26.750577,28.395227 24.012482,28.395227 z "
       style="fill:url(#linearGradient7097);fill-rule:nonzero;stroke:#808080;stroke-miterlimit:4;stroke-opacity:1" />
    <path
       inkscape:r_cy="true"
       inkscape:r_cx="true"
       id="path3051"
       d="M 24.012482,13.291061 C 18.369896,13.291061 13.908316,17.883864 13.908316,23.395226 C 13.908316,29.037814 18.50112,33.499392 24.012482,33.499392 C 29.655068,33.499392 34.116648,28.90659 34.116648,23.395226 C 34.116648,17.75264 29.523844,13.291061 24.012482,13.291061 L 24.012482,13.291061 z M 24.012482,28.90659 C 20.994355,28.90659 18.50112,26.413355 18.50112,23.395226 C 18.50112,20.377099 20.994355,17.883864 24.012482,17.883864 C 27.030609,17.883864 29.523844,20.377099 29.523844,23.395226 C 29.523844,26.413355 27.030609,28.90659 24.012482,28.90659 z "
       style="opacity:0.10999995;fill-rule:nonzero;stroke:none;stroke-miterlimit:4" />
    <path
       inkscape:r_cy="true"
       inkscape:r_cx="true"
       style="fill:url(#linearGradient7093);fill-opacity:1;fill-rule:nonzero;stroke:none;stroke-miterlimit:4;stroke-opacity:1"
       d="M 29.587587,4.0644597 L 25.990994,18.059122 C 27.115698,18.358639 28.015137,19.054592 28.626122,20.017664 L 41.018342,12.468379 C 38.483094,8.3386642 34.414132,5.3003113 29.587587,4.0644597 z "
       id="path3916" />
    <path
       inkscape:r_cy="true"
       inkscape:r_cx="true"
       style="opacity:0.54644811;fill:none;fill-rule:nonzero;stroke:url(#linearGradient7087);stroke-miterlimit:4;stroke-opacity:1"
       d="M 24.012478,3.5975915 C 13.038934,3.5975915 4.2148471,12.42168 4.2148471,23.395223 C 4.2148471,34.368767 13.038934,43.192854 24.012478,43.192854 C 34.986022,43.192854 43.810109,34.368767 43.810109,23.395223 C 43.810109,12.42168 34.986022,3.5975915 24.012478,3.5975915 L 24.012478,3.5975915 z "
       id="path5264"
       sodipodi:nodetypes="cccccc" />
    <path
       inkscape:r_cy="true"
       inkscape:r_cx="true"
       sodipodi:type="arc"
       style="opacity:0.67213111;color:#000000;fill:none;fill-opacity:0.31638417;fill-rule:nonzero;stroke:url(#linearGradient7053);stroke-width:0.93053865;stroke-linecap:butt;stroke-linejoin:miter;marker:none;marker-start:none;marker-mid:none;marker-end:none;stroke-miterlimit:4;stroke-dashoffset:0;stroke-opacity:1;visibility:visible;display:inline;overflow:visible"
       id="path6026"
       sodipodi:cx="24.306795"
       sodipodi:cy="24.930641"
       sodipodi:rx="6.0987959"
       sodipodi:ry="6.0987959"
       d="M 30.405591 24.930641 A 6.0987959 6.0987959 0 1 1  18.207999,24.930641 A 6.0987959 6.0987959 0 1 1  30.405591 24.930641 z"
       transform="translate(-0.246136,-1.516385)" />
    <path
       inkscape:r_cy="true"
       inkscape:r_cx="true"
       style="opacity:0.1142857;fill:url(#radialGradient7083);fill-opacity:1;fill-rule:nonzero;stroke:none;stroke-miterlimit:4;stroke-opacity:1"
       d="M 24.012482,2.5618925 C 12.464862,2.5618925 3.179148,11.847607 3.179148,23.395226 C 3.179148,34.942846 12.464862,44.228561 24.012482,44.228561 C 35.560102,44.228561 44.845817,34.942846 44.845817,23.395226 C 44.845817,11.847607 35.560102,2.5618925 24.012482,2.5618925 L 24.012482,2.5618925 z M 24.012482,28.395227 C 21.274387,28.395227 19.012482,26.133322 19.012482,23.395226 C 19.012482,20.657131 21.274387,18.395226 24.012482,18.395226 C 26.750577,18.395226 29.012482,20.657131 29.012482,23.395226 C 29.012482,26.133322 26.750577,28.395227 24.012482,28.395227 z "
       id="path3390" />
    <path
       inkscape:r_cy="true"
       inkscape:r_cx="true"
       id="path3404"
       d="M 24.012482,2.5618925 C 12.464862,2.5618925 3.179148,11.847607 3.179148,23.395226 C 3.179148,34.942846 12.464862,44.228561 24.012482,44.228561 C 35.560102,44.228561 44.845817,34.942846 44.845817,23.395226 C 44.845817,11.847607 35.560102,2.5618925 24.012482,2.5618925 L 24.012482,2.5618925 z M 24.012482,28.395227 C 21.274387,28.395227 19.012482,26.133322 19.012482,23.395226 C 19.012482,20.657131 21.274387,18.395226 24.012482,18.395226 C 26.750577,18.395226 29.012482,20.657131 29.012482,23.395226 C 29.012482,26.133322 26.750577,28.395227 24.012482,28.395227 z "
       style="opacity:0.09714284;fill:url(#radialGradient7080);fill-opacity:1;fill-rule:nonzero;stroke:none;stroke-miterlimit:4;stroke-opacity:1" />
    <path
       inkscape:r_cy="true"
       inkscape:r_cx="true"
       style="opacity:0.71428576;fill:url(#radialGradient7077);fill-opacity:1;fill-rule:nonzero;stroke:none;stroke-miterlimit:4;stroke-opacity:1"
       d="M 24.012482,2.5618925 C 12.464862,2.5618925 3.179148,11.847607 3.179148,23.395226 C 3.179148,34.942846 12.464862,44.228561 24.012482,44.228561 C 35.560102,44.228561 44.845817,34.942846 44.845817,23.395226 C 44.845817,11.847607 35.560102,2.5618925 24.012482,2.5618925 L 24.012482,2.5618925 z M 24.012482,28.395227 C 21.274387,28.395227 19.012482,26.133322 19.012482,23.395226 C 19.012482,20.657131 21.274387,18.395226 24.012482,18.395226 C 26.750577,18.395226 29.012482,20.657131 29.012482,23.395226 C 29.012482,26.133322 26.750577,28.395227 24.012482,28.395227 z "
       id="path3419" />
    <g
       id="g7119">
      <path
         transform="matrix(1,0,0,1.066291,0.665476,-4.48988)"
         inkscape:r_cy="true"
         inkscape:r_cx="true"
         d="M 45.961941 41.63604 A 22.627417 5.6568542 0 1 1  0.70710754,41.63604 A 22.627417 5.6568542 0 1 1  45.961941 41.63604 z"
         sodipodi:ry="5.6568542"
         sodipodi:rx="22.627417"
         sodipodi:cy="41.63604"
         sodipodi:cx="23.334524"
         id="path23417"
         style="opacity:0.55;color:#000000;fill:url(#radialGradient7041);fill-opacity:1;fill-rule:evenodd;stroke:none;stroke-width:2;stroke-linecap:butt;stroke-linejoin:miter;marker:none;marker-start:none;marker-mid:none;marker-end:none;stroke-miterlimit:4;stroke-dasharray:none;stroke-dashoffset:0;stroke-opacity:1;visibility:visible;display:inline;overflow:visible"
         sodipodi:type="arc" />
      <path
         style="fill:url(#linearGradient7090);fill-opacity:1;fill-rule:nonzero;stroke:none;stroke-miterlimit:4;stroke-opacity:1"
         d="M 16.9733,42.161283 L 21.708555,28.509784 C 20.612291,28.118792 19.77313,27.351231 19.243412,26.341177 L 6.2723512,32.845825 C 8.4594085,37.170037 12.264731,40.532708 16.9733,42.161283 z "
         id="path4214"
         inkscape:r_cx="true"
         inkscape:r_cy="true" />
      <path
         id="rect1307"
         d="M -3.4355803,36.223871 L -3.2738185,37.114206 L 50.818038,22.620342 L 50.656276,21.730007 L -3.4355803,36.223871 z M 0.39817609,50.818281 L 0.56802606,51.738801 L 54.659882,37.244937 L 54.490032,36.324417 L 0.39817609,50.818281 z "
         style="opacity:0.8;color:#000000;fill:url(#linearGradient7117);fill-opacity:1;fill-rule:nonzero;stroke:none;stroke-width:2.5;stroke-linecap:butt;stroke-linejoin:round;marker:none;marker-start:none;marker-mid:none;marker-end:none;stroke-miterlimit:4;stroke-dasharray:none;stroke-dashoffset:0;stroke-opacity:1;visibility:visible;display:inline;overflow:visible"
         sodipodi:nodetypes="cccccccccc" />
      <path
         id="rect1309"
         d="M -5.6886335,37.761254 C -4.4646352,42.329279 -3.2406372,46.897303 -2.0166389,51.465329 C 17.392437,46.264684 36.801512,41.06404 56.210588,35.863396 C 55.710888,35.119843 52.719898,36.615848 54.031088,34.325929 C 56.744396,34.365102 54.865287,31.713063 54.683134,30.162858 C 54.148921,28.169148 53.614708,26.175438 53.080495,24.181728 C 52.055021,25.023144 49.782626,24.372267 51.13778,23.017315 C 52.541976,23.190598 53.144053,21.644397 51.275491,22.497768 C 32.28745,27.585596 13.299408,32.673425 -5.6886335,37.761254 z M -4.1707053,37.872164 C -3.0883446,36.857174 -0.47354579,37.901981 -2.2165591,38.998524 C -3.2934225,39.506714 -4.8551799,39.585937 -4.1707053,37.872164 z M -1.061631,37.039091 C 0.027361178,35.98549 2.5760485,37.16304 0.83214482,38.181627 C -0.23050982,38.711443 -1.8905875,38.726537 -1.061631,37.039091 z M 1.9568877,36.230281 C 3.0455713,35.211253 5.612832,36.269312 3.9110339,37.356641 C 2.8314958,37.854564 1.2665682,37.966819 1.9568877,36.230281 z M 5.0055917,35.413384 C 6.0915192,34.383832 8.7113961,35.470196 6.9597379,36.539744 C 5.8828745,37.047934 4.3211171,37.127156 5.0055917,35.413384 z M 8.114666,34.58031 C 9.2036579,33.52671 11.752346,34.704259 10.008442,35.722846 C 8.9502426,36.254439 7.2830328,36.26447 8.114666,34.58031 z M 11.133185,33.771501 C 12.223028,32.745331 14.790088,33.81564 13.087331,34.897861 C 12.002518,35.394286 10.446496,35.518239 11.133185,33.771501 z M 14.181889,32.954603 C 15.268298,31.921456 17.888711,33.010821 16.136035,34.080963 C 15.059323,34.587952 13.497719,34.665544 14.181889,32.954603 z M 17.290963,32.12153 C 18.378926,31.065658 20.937535,32.250431 19.184739,33.264066 C 18.105386,33.790077 16.5281,33.81873 17.290963,32.12153 z M 20.309482,31.31272 C 21.399325,30.28655 23.966385,31.356859 22.263628,32.43908 C 21.178815,32.935506 19.622793,33.059458 20.309482,31.31272 z M 23.418556,30.479647 C 24.504073,29.445634 27.055073,30.587552 25.312332,31.622183 C 24.246931,32.168602 22.57405,32.145766 23.418556,30.479647 z M 26.46726,29.662749 C 27.572077,28.606922 30.113798,29.791951 28.361036,30.805285 C 27.28478,31.348902 25.702062,31.319691 26.46726,29.662749 z M 29.515964,28.845852 C 30.524769,28.14469 32.837048,28.346427 31.703353,29.926488 C 30.640432,30.335901 28.659305,30.764419 29.515964,28.845852 z M 32.594853,28.020866 C 33.684332,26.966233 36.230777,28.143331 34.488629,29.163402 C 33.429863,29.709342 31.745074,29.682232 32.594853,28.020866 z M 35.643557,27.203969 C 36.646679,26.472817 38.997869,26.765402 37.808452,28.299727 C 36.745487,28.708225 34.789301,29.089085 35.643557,27.203969 z M 38.662076,26.395159 C 39.752439,25.37014 42.323571,26.443739 40.616222,27.521519 C 39.539359,28.029709 37.977601,28.108932 38.662076,26.395159 z M 41.77115,25.562086 C 42.773606,24.831929 45.118867,25.110599 43.931594,26.654498 C 42.880381,27.076604 40.847426,27.447937 41.77115,25.562086 z M 44.819854,24.745188 C 45.822976,24.014037 48.174166,24.306622 46.984749,25.840946 C 45.921784,26.249444 43.965598,26.630305 44.819854,24.745188 z M 47.838373,23.936379 C 48.924328,22.913267 51.537785,23.982327 49.792519,25.062739 C 48.715656,25.570928 47.153898,25.650151 47.838373,23.936379 z M -1.0713789,49.07679 C -0.08063112,48.334515 2.2435753,48.677726 1.0571401,50.180199 C 0.0049239788,50.612764 -2.0834335,50.953614 -1.0713789,49.07679 z M 1.9169547,48.276068 C 3.0080228,47.221182 5.5935256,48.384115 3.8409157,49.410516 C 2.7709582,49.926174 1.1619643,49.982778 1.9169547,48.276068 z M 5.0562142,47.434907 C 6.1430326,46.405927 8.6052277,47.574872 6.9198048,48.585531 C 5.8922366,49.20112 4.0603652,48.981815 5.0562142,47.434907 z M 8.1049181,46.618009 C 9.1933796,45.571064 11.703203,46.769071 9.9685088,47.768633 C 8.9034828,48.325472 7.1865009,48.279348 8.1049181,46.618009 z M 11.153622,45.801112 C 12.244263,44.74319 14.751844,45.967063 13.017213,46.951736 C 11.930388,47.476581 10.235264,47.476169 11.153622,45.801112 z M 14.232511,44.976126 C 15.320174,43.941207 17.782054,45.120323 16.096102,46.12675 C 15.025803,46.685646 13.313382,46.636097 14.232511,44.976126 z M 17.220845,44.175405 C 18.309125,43.127148 20.900819,44.272234 19.144806,45.309853 C 18.06953,45.821297 16.465572,45.898992 17.220845,44.175405 z M 20.329919,43.342331 C 21.419145,42.282227 23.938659,43.513322 22.19351,44.492955 C 21.077028,45.023722 19.468804,45.01553 20.329919,43.342331 z M 23.408808,42.517346 C 24.496471,41.482427 26.958351,42.661542 25.272399,43.66797 C 24.2021,44.226865 22.489679,44.177316 23.408808,42.517346 z M 26.397142,41.716624 C 27.485486,40.666723 30.073061,41.816852 28.321103,42.851072 C 27.249739,43.370863 25.640333,43.421627 26.397142,41.716624 z M 29.506216,40.883551 C 30.595891,39.817077 33.114461,41.0575 31.369807,42.034175 C 30.340209,42.643267 28.587721,42.42496 29.506216,40.883551 z M 32.585105,40.058565 C 33.584401,39.328759 35.851868,39.641825 34.712531,41.160409 C 33.656483,41.591371 31.57456,41.950225 32.585105,40.058565 z M 35.573439,39.257844 C 36.663081,38.204072 39.24734,39.355163 37.4974,40.392292 C 36.421046,40.910314 34.820535,40.975827 35.573439,39.257844 z M 38.682513,38.42477 C 39.671022,37.661963 42.017207,38.05549 40.808249,39.53274 C 39.706773,39.912609 37.776522,40.383575 38.682513,38.42477 z M 41.791587,37.591697 C 42.859395,36.684296 45.235258,37.477999 43.680297,38.784689 C 42.627694,39.277381 40.737976,39.197908 41.791587,37.591697 z M 44.779921,36.790975 C 45.773037,36.052362 48.13098,36.367185 46.937824,37.887783 C 45.878712,38.304861 43.850388,38.681376 44.779921,36.790975 z M 47.85881,35.96599 C 48.848153,35.204461 51.192443,35.594414 49.982394,37.074678 C 48.914612,37.474108 46.897727,37.819414 47.85881,35.96599 z M 50.937699,35.141004 C 51.92905,34.398497 54.253788,34.744038 53.065914,36.245792 C 52.013333,36.675287 49.925825,37.018774 50.937699,35.141004 z "
         style="opacity:0.5;color:#000000;fill:url(#linearGradient7112);fill-opacity:1;fill-rule:nonzero;stroke:url(#linearGradient7114);stroke-width:0.10000002;stroke-linecap:butt;stroke-linejoin:round;marker:none;marker-start:none;marker-mid:none;marker-end:none;stroke-miterlimit:4;stroke-dasharray:none;stroke-dashoffset:0;stroke-opacity:1;visibility:visible;display:inline;overflow:visible" />
      <path
         id="path3600"
         d="M 51.677232,22.325417 C 51.560614,22.36476 51.416796,22.432351 51.270815,22.499021 C 32.282774,27.586849 13.299408,32.673425 -5.6886335,37.761254 C -4.9310485,40.5886 -4.1734638,43.415946 -3.4158791,46.243291 C 4.6086406,41.063288 12.789564,37.071651 19.945559,36.716024 C 27.559468,36.337642 38.969917,33.325214 48.52528,26.016989 C 48.944014,25.69673 49.336646,25.404416 49.707843,25.11778 C 49.172849,25.350304 48.523881,25.462756 48.111781,25.318976 C 48.08565,25.309145 48.029252,25.294976 48.00505,25.28287 C 47.963584,25.260668 47.916872,25.215974 47.882142,25.186394 C 47.877329,25.182012 47.848531,25.168836 47.843868,25.164297 C 47.839358,25.1596 47.840135,25.138968 47.83578,25.134112 C 47.827388,25.124077 47.797162,25.092516 47.789419,25.081829 C 47.774597,25.059796 47.747029,25.024086 47.734969,24.999362 C 47.729298,24.986657 47.723733,24.952389 47.718793,24.938991 C 47.711944,24.918368 47.699649,24.87066 47.694529,24.848436 C 47.690001,24.82567 47.672969,24.782294 47.670265,24.75788 C 47.66749,24.724586 47.667443,24.665369 47.668098,24.629052 C 47.675786,24.44362 47.731423,24.204156 47.838373,23.936379 C 48.389834,23.41683 49.351107,23.447606 49.919564,23.734602 C 49.953821,23.752764 50.003252,23.780803 50.034384,23.800893 C 50.049532,23.811169 50.096654,23.834361 50.110931,23.845087 C 50.124755,23.856032 50.144406,23.885998 50.157292,23.897369 C 50.175893,23.914737 50.225614,23.953485 50.241927,23.971749 C 50.252271,23.984117 50.279039,24.011293 50.288288,24.024031 C 50.314342,24.062784 50.343728,24.125137 50.358914,24.166869 C 50.363332,24.180932 50.371991,24.212886 50.37509,24.227239 C 50.378722,24.248979 50.368683,24.30355 50.369169,24.325883 C 50.367577,24.385932 50.353445,24.467818 50.327142,24.531258 C 50.312345,24.563155 50.282454,24.613557 50.260851,24.646078 C 50.24917,24.662408 50.230129,24.706171 50.216656,24.722625 C 50.444092,24.546141 50.681565,24.38185 50.890405,24.21857 C 50.893371,24.216252 50.879355,24.190702 50.882317,24.188385 C 50.877226,24.182669 50.848908,24.172125 50.844044,24.166288 C 50.830145,24.148418 50.801328,24.102759 50.789594,24.083821 C 50.782272,24.070961 50.779713,24.036774 50.773418,24.02345 C 50.767651,24.009896 50.761925,23.977089 50.757242,23.96308 C 50.75105,23.941729 50.736587,23.894876 50.732978,23.872524 C 50.731165,23.857405 50.717401,23.827708 50.716801,23.812154 C 50.716834,23.788501 50.719814,23.738117 50.722722,23.71351 C 50.753883,23.514158 50.896564,23.270557 51.150655,23.016503 C 51.183566,23.020565 51.21729,23.020199 51.249299,23.022424 C 51.872686,23.054616 52.341376,22.75008 52.438363,22.509701 C 52.439808,22.505667 52.429031,22.483507 52.430275,22.479516 C 52.43236,22.471629 52.451106,22.448917 52.452372,22.441243 C 52.45259,22.437528 52.444276,22.414706 52.444284,22.411058 C 52.443866,22.407555 52.436828,22.384295 52.436196,22.380872 C 52.435129,22.377619 52.429394,22.35385 52.428108,22.350687 C 52.426377,22.347717 52.421974,22.32337 52.42002,22.320502 C 52.415203,22.3152 52.387483,22.303243 52.381746,22.298405 C 52.375076,22.294063 52.351088,22.280122 52.343473,22.276308 C 52.339187,22.27468 52.309729,22.255693 52.3052,22.254211 C 52.300428,22.252878 52.280032,22.263477 52.275015,22.262299 C 52.264487,22.260256 52.248265,22.241592 52.236741,22.240202 C 52.206674,22.237572 52.144385,22.240475 52.107912,22.242369 C 51.994579,22.250943 51.852159,22.266404 51.677232,22.325417 z M 50.216656,24.722625 C 50.206552,24.734965 50.205693,24.748496 50.194559,24.760898 C 50.206184,24.751881 50.205082,24.731607 50.216656,24.722625 z M 49.707843,25.11778 C 49.733705,25.09781 49.764672,25.083142 49.79031,25.063331 C 49.756658,25.079212 49.742358,25.102779 49.707843,25.11778 z M -0.50645584,36.696218 C -0.1793632,36.592181 0.20458128,36.607545 0.52417491,36.67888 C 0.75648957,36.734702 0.99396278,36.843629 1.1505564,36.963975 C 1.2126416,37.014172 1.2858328,37.084971 1.3279138,37.142919 C 1.3543213,37.182057 1.3827012,37.243871 1.3985395,37.285757 C 1.4031933,37.299856 1.411346,37.331769 1.4147157,37.346127 C 1.4228493,37.389572 1.4293815,37.45977 1.4249709,37.505141 C 1.4227655,37.520357 1.4146711,37.558217 1.4109619,37.5736 C 1.399769,37.612253 1.3739659,37.679155 1.3527588,37.718605 C 1.2642478,37.868989 1.0887965,38.031022 0.82993594,38.182219 C 0.29030652,38.451265 -0.40502003,38.589831 -0.84859275,38.437865 C -0.88881869,38.423015 -0.95805804,38.399587 -0.99359778,38.379661 C -1.0225117,38.362332 -1.053051,38.32632 -1.0782324,38.305282 C -1.0879888,38.296563 -1.1154876,38.262333 -1.1245938,38.253 C -1.1289798,38.248179 -1.158651,38.23588 -1.1628671,38.230903 C -1.1669105,38.225767 -1.1670878,38.206011 -1.1709552,38.200717 C -1.1783328,38.18981 -1.2106715,38.159988 -1.2173166,38.148435 C -1.2204514,38.142496 -1.2224602,38.124354 -1.2254047,38.11825 C -1.2309067,38.105712 -1.2368705,38.071085 -1.2415808,38.05788 C -1.2480397,38.037564 -1.26126,37.989178 -1.2658451,37.967324 C -1.269788,37.94495 -1.288146,37.900722 -1.2901094,37.876768 C -1.2913954,37.852281 -1.2849879,37.804233 -1.2841885,37.778125 C -1.2816678,37.7337 -1.2729402,37.660092 -1.2642586,37.611023 C -1.232393,37.450977 -1.1652505,37.250022 -1.061631,37.039091 C -0.89998364,36.882697 -0.71361457,36.762107 -0.50645584,36.696218 z M 8.6698412,34.237437 C 8.9969339,34.1334 9.3808782,34.148765 9.7004719,34.2201 C 9.9327866,34.275921 10.17026,34.384848 10.326853,34.505195 C 10.388939,34.555391 10.46213,34.62619 10.504211,34.684139 C 10.530618,34.723276 10.558998,34.785091 10.574836,34.826976 C 10.57949,34.841075 10.587643,34.872989 10.591013,34.887347 C 10.599146,34.930791 10.605678,35.000989 10.601268,35.046361 C 10.599063,35.061576 10.590968,35.099436 10.587259,35.114819 C 10.576066,35.153472 10.550263,35.220374 10.529056,35.259824 C 10.440545,35.410209 10.265094,35.572241 10.006233,35.723438 C 9.4688664,35.993387 8.7721887,36.131686 8.3277043,35.979084 C 8.3209858,35.976599 8.2960265,35.959609 8.289431,35.956987 C 8.2700211,35.948701 8.2311093,35.92235 8.2128844,35.912793 C 8.1772599,35.892815 8.1283629,35.87179 8.0980646,35.846501 C 8.0882818,35.837769 8.0608349,35.803564 8.0517032,35.794219 C 8.0473046,35.789392 8.0176584,35.777105 8.0134299,35.772122 C 8.0093745,35.766982 8.0092211,35.747235 8.0053418,35.741937 C 7.9979415,35.731021 7.9656467,35.701214 7.9589804,35.689655 C 7.9526901,35.67777 7.9483248,35.641826 7.9428043,35.629284 C 7.9376773,35.616411 7.93095,35.582459 7.9266281,35.568914 C 7.9227178,35.555031 7.9135216,35.523111 7.9104519,35.508543 C 7.9064915,35.486174 7.888163,35.441932 7.8861876,35.417988 C 7.8848916,35.393512 7.8913127,35.345434 7.8921085,35.319344 C 7.9031886,35.124022 7.971729,34.869775 8.114666,34.58031 C 8.2763133,34.423917 8.4626825,34.303327 8.6698412,34.237437 z M 17.846138,31.778657 C 18.42465,31.594887 19.125127,31.755846 19.50315,32.046414 C 19.544624,32.07995 19.601297,32.135987 19.634146,32.173076 C 19.644579,32.18562 19.671144,32.212465 19.680508,32.225358 C 19.693727,32.244949 19.724316,32.287522 19.734957,32.307826 C 19.741457,32.321511 19.745857,32.354227 19.751133,32.368196 C 19.758106,32.389352 19.77135,32.437027 19.775398,32.458751 C 19.777424,32.473352 19.790925,32.504302 19.791574,32.519122 C 19.791517,32.534045 19.779065,32.572465 19.777565,32.58758 C 19.775327,32.602785 19.767304,32.640669 19.763556,32.656039 C 19.752259,32.694651 19.726706,32.761659 19.705353,32.801044 C 19.616253,32.951159 19.44271,33.114196 19.18253,33.264658 C 18.609124,33.544101 17.894673,33.68369 17.465728,33.498206 C 17.459545,33.495338 17.43351,33.479121 17.427455,33.476109 C 17.421529,33.472956 17.394975,33.457311 17.389181,33.454012 C 17.383523,33.450568 17.356428,33.435506 17.350908,33.431915 C 17.345529,33.428176 17.317871,33.413706 17.312635,33.409818 C 17.297368,33.397703 17.280176,33.371025 17.266273,33.357536 C 17.261797,33.352884 17.232318,33.340246 17.228,33.335439 C 17.223846,33.330474 17.223901,33.310378 17.219912,33.305254 C 17.21227,33.294686 17.180506,33.264184 17.173551,33.252971 C 17.166948,33.241432 17.163256,33.2048 17.157375,33.192601 C 17.154618,33.186335 17.151856,33.16885 17.149286,33.162416 C 17.135003,33.122795 17.115963,33.057344 17.108846,33.01149 C 17.099069,32.933293 17.08386,32.820217 17.096424,32.723647 C 17.121833,32.556244 17.189645,32.346939 17.290963,32.12153 C 17.452458,31.964798 17.638747,31.844536 17.846138,31.778657 z M 27.05262,29.311788 C 27.472378,29.188745 27.969763,29.246379 28.334988,29.38876 C 28.458057,29.439276 28.58724,29.516358 28.679447,29.587634 C 28.720679,29.621171 28.777851,29.677206 28.810443,29.714295 C 28.820789,29.72684 28.847529,29.753684 28.856805,29.766578 C 28.869893,29.786169 28.900744,29.828742 28.911254,29.849045 C 28.917666,29.86273 28.922241,29.895447 28.92743,29.909415 C 28.934273,29.930571 28.947775,29.978248 28.951695,29.999971 C 28.953636,30.01457 28.967304,30.045523 28.967871,30.060341 C 28.967733,30.075263 28.95544,30.113686 28.953862,30.1288 C 28.951547,30.144003 28.943675,30.181891 28.939853,30.197258 C 28.928374,30.235867 28.90316,30.302885 28.88165,30.342263 C 28.791976,30.492356 28.619003,30.65546 28.358827,30.805877 C 27.820699,31.077686 27.145046,31.199903 26.710483,31.053435 C 26.650397,31.031624 26.576975,31.006273 26.527205,30.973135 C 26.505649,30.957827 26.461762,30.916421 26.44257,30.898755 C 26.437927,30.894188 26.438968,30.873288 26.434482,30.86857 C 26.430157,30.863701 26.400373,30.851495 26.396209,30.846473 C 26.392211,30.841297 26.39195,30.821618 26.388121,30.816288 C 26.380803,30.805314 26.348377,30.775609 26.34176,30.764006 C 26.335501,30.752084 26.331109,30.716199 26.325583,30.703635 C 26.320431,30.690747 26.313793,30.656806 26.309407,30.643265 C 26.305412,30.629393 26.296429,30.597432 26.293231,30.582894 C 26.289045,30.560585 26.271272,30.516179 26.268967,30.492339 C 26.266752,30.459863 26.265473,30.398778 26.2668,30.36351 C 26.269597,30.31854 26.278025,30.24588 26.286729,30.196408 C 26.316507,30.045244 26.377588,29.856922 26.46726,29.662749 C 26.639888,29.497776 26.831694,29.376547 27.05262,29.311788 z M 33.150028,27.677993 C 33.47708,27.573761 33.86121,27.589412 34.180659,27.660656 C 34.412868,27.716414 34.650525,27.825396 34.80704,27.945751 C 34.869095,27.995952 34.942335,28.066727 34.984398,28.124695 C 35.010795,28.163847 35.039188,28.225626 35.055024,28.267532 C 35.059677,28.281639 35.06783,28.313537 35.0712,28.327903 C 35.079337,28.371372 35.085852,28.441514 35.081455,28.486917 C 35.079255,28.502143 35.071149,28.53998 35.067446,28.555375 C 35.011569,28.748791 34.826683,28.964762 34.48642,29.163994 C 33.940493,29.445494 33.215143,29.566235 32.769618,29.397543 C 32.716607,29.375997 32.660731,29.339776 32.616525,29.309155 C 32.61115,29.30518 32.583472,29.291179 32.578252,29.287057 C 32.573188,29.282788 32.544881,29.26938 32.539978,29.26496 C 32.535238,29.260391 32.536464,29.239496 32.53189,29.234775 C 32.527486,29.229902 32.497849,29.217705 32.493617,29.212678 C 32.473333,29.186771 32.446756,29.129869 32.431079,29.100025 C 32.428138,29.093896 32.425737,29.076131 32.422991,29.06984 C 32.417899,29.056933 32.411092,29.023033 32.406815,29.00947 C 32.401026,28.988628 32.386411,28.941264 32.382551,28.918914 C 32.379352,28.896055 32.359446,28.852763 32.358287,28.828359 C 32.354435,28.62065 32.428881,28.345352 32.594853,28.020866 C 32.756572,27.864319 32.942896,27.744006 33.150028,27.677993 z M -3.7885532,37.608005 C -3.351202,37.405451 -2.8099501,37.42785 -2.379524,37.553981 C -2.2377945,37.598056 -2.0837251,37.666967 -1.9746941,37.736678 C -1.9595362,37.74687 -1.9124359,37.770227 -1.8981475,37.780873 C -1.8843108,37.79174 -1.8646859,37.821857 -1.8517862,37.833155 C -1.8145427,37.86768 -1.7485899,37.921755 -1.7207901,37.959817 C -1.7120876,37.972687 -1.7121549,38.006962 -1.7046139,38.020187 C -1.6976707,38.033583 -1.6639667,38.058741 -1.6582526,38.072469 C -1.6506282,38.093302 -1.6386703,38.141506 -1.6339883,38.163025 C -1.6278759,38.19925 -1.6290581,38.253962 -1.6318211,38.291854 C -1.63367,38.307132 -1.6424601,38.344801 -1.6458301,38.360312 C -1.6561987,38.399364 -1.6835255,38.46503 -1.7040333,38.505317 C -1.7130813,38.521519 -1.7374561,38.565498 -1.7482275,38.581864 C -1.8414268,38.713393 -2.0008914,38.862048 -2.218768,38.999116 C -2.7740256,39.261152 -3.458609,39.407818 -3.8972967,39.254762 C -3.9234278,39.24493 -3.9798258,39.230761 -4.0040284,39.218656 C -4.0454939,39.196453 -4.0922065,39.15176 -4.1269364,39.122179 C -4.1317499,39.117798 -4.1605465,39.104621 -4.1652097,39.100082 C -4.1697195,39.095386 -4.1689435,39.074754 -4.1732977,39.069897 C -4.1816896,39.059862 -4.211916,39.028302 -4.2196591,39.017615 C -4.2344811,38.995581 -4.2620485,38.959871 -4.2741086,38.935147 C -4.2797804,38.922442 -4.2853452,38.888175 -4.2902848,38.874777 C -4.2971334,38.854154 -4.3094298,38.806446 -4.3145491,38.784221 C -4.3190763,38.761455 -4.3361092,38.71808 -4.3388133,38.693666 C -4.3415876,38.660371 -4.3416349,38.601155 -4.3409805,38.564837 C -4.3332922,38.379406 -4.2776546,38.139941 -4.1707053,37.872164 C -4.060778,37.769079 -3.9239239,37.6707 -3.7885532,37.608005 z M 2.3390399,35.966122 C 2.7545814,35.772921 3.264701,35.788725 3.6796106,35.898089 C 3.7309105,35.912505 3.8067312,35.930208 3.8548008,35.948204 C 4.0346984,36.019199 4.2146388,36.130026 4.3221683,36.243554 C 4.3329765,36.255701 4.3587753,36.283308 4.3685297,36.295836 C 4.382346,36.314906 4.4117069,36.358437 4.4229791,36.378304 C 4.4299067,36.391718 4.4334352,36.424934 4.4391553,36.438674 C 4.4468049,36.459521 4.4586594,36.50771 4.4634196,36.52923 C 4.4659291,36.543719 4.4784474,36.574839 4.4795958,36.5896 C 4.4800475,36.604492 4.4665618,36.642918 4.4655868,36.658059 C 4.4613244,36.696205 4.451365,36.755496 4.4375688,36.794976 C 4.3681141,36.969734 4.2013216,37.170348 3.9088251,37.357233 C 3.3268864,37.625645 2.5965657,37.783791 2.1618379,37.59887 C 2.1556598,37.596046 2.1296177,37.579742 2.1235646,37.576773 C 2.1176392,37.573656 2.0910864,37.55794 2.0852913,37.554676 C 2.0796291,37.551262 2.0525448,37.536144 2.0470181,37.532579 C 2.0308519,37.521426 2.0155332,37.492847 2.0006567,37.480296 C 1.9958466,37.475955 1.9670425,37.4627 1.9623834,37.458199 C 1.9488675,37.444215 1.9281071,37.421374 1.916022,37.405917 C 1.9082938,37.39528 1.8767164,37.364946 1.8696607,37.353635 C 1.8629489,37.341982 1.8594921,37.305607 1.8534845,37.293264 C 1.8478365,37.280572 1.842221,37.246294 1.8373083,37.232894 C 1.8327712,37.219137 1.8249025,37.187005 1.8211321,37.172524 C 1.8160632,37.150252 1.8001297,37.105914 1.7968678,37.081968 C 1.7933429,37.049286 1.7948243,36.988897 1.7947006,36.953139 C 1.7986521,36.761304 1.843632,36.515182 1.9568877,36.230281 C 2.0674571,36.126786 2.2039888,36.028912 2.3390399,35.966122 z M 5.3877438,35.149225 C 5.9307359,34.896636 6.6313862,34.980267 7.0867831,35.211607 C 7.1039349,35.220754 7.1469379,35.246165 7.1633296,35.255801 C 7.2273078,35.295296 7.3131343,35.349949 7.3627841,35.396471 C 7.3746983,35.408304 7.3982621,35.436531 7.4091455,35.448754 C 7.4246722,35.467372 7.4505648,35.51179 7.463595,35.531221 C 7.4838689,35.56404 7.5134973,35.609047 7.5261325,35.643874 C 7.5327464,35.664993 7.5467864,35.71268 7.5503968,35.734429 C 7.5521139,35.749062 7.5360843,35.788003 7.5363878,35.802888 C 7.5347066,35.862905 7.5208233,35.944993 7.4943608,36.008263 C 7.4162337,36.175223 7.2449103,36.364863 6.957529,36.540336 C 6.4022713,36.802371 5.7176879,36.949037 5.2790003,36.795981 C 5.2528692,36.78615 5.1964712,36.771981 5.1722686,36.759875 C 5.1308031,36.737673 5.0840905,36.692979 5.0493606,36.663399 C 5.0445471,36.659017 5.0157505,36.645841 5.0110873,36.641302 C 5.0065775,36.636605 5.0073535,36.615973 5.0029993,36.611117 C 4.9946074,36.601082 4.964381,36.569521 4.9566379,36.558834 C 4.9418159,36.536801 4.9142485,36.501091 4.9021884,36.476367 C 4.8965166,36.463662 4.8909518,36.429395 4.8860122,36.415997 C 4.8791636,36.395373 4.8668672,36.347665 4.8617479,36.325441 C 4.8572207,36.302675 4.8401878,36.259299 4.8374837,36.234885 C 4.8347094,36.201591 4.8346621,36.142374 4.8353165,36.106057 C 4.8430048,35.920625 4.8986424,35.681161 5.0055917,35.413384 C 5.1158812,35.30882 5.2519957,35.212371 5.3877438,35.149225 z M 11.515337,33.507341 C 11.993529,33.283873 12.588844,33.322808 13.031098,33.489423 C 13.097377,33.515742 13.194588,33.559149 13.252649,33.591821 C 13.317488,33.630135 13.400979,33.68696 13.452104,33.732491 C 13.464407,33.744082 13.48715,33.772779 13.498465,33.784774 C 13.509269,33.796964 13.535077,33.824487 13.544827,33.837056 C 13.558634,33.856186 13.588013,33.899603 13.599276,33.919523 C 13.606197,33.932972 13.609739,33.966121 13.615452,33.979894 C 13.623091,34.000787 13.634968,34.048891 13.639717,34.070449 C 13.642218,34.084962 13.654752,34.116039 13.655893,34.13082 C 13.656336,34.145729 13.642868,34.184125 13.641884,34.199278 C 13.637598,34.237452 13.627688,34.296717 13.613866,34.336195 C 13.544294,34.510914 13.377783,34.712446 13.085122,34.898453 C 12.51729,35.1583 11.813233,35.321311 11.376408,35.162187 C 11.370006,35.15967 11.344418,35.14275 11.338135,35.140089 C 11.331974,35.137284 11.305897,35.120944 11.299862,35.117992 C 11.293953,35.114894 11.267366,35.099144 11.261588,35.095895 C 11.250299,35.089099 11.234059,35.081206 11.223315,35.073798 C 11.218083,35.06994 11.19013,35.055716 11.185042,35.051701 C 11.155385,35.026668 11.116406,34.978025 11.092319,34.947137 C 11.076916,34.925874 11.050549,34.888671 11.03787,34.864669 C 11.031883,34.852319 11.026958,34.817357 11.021693,34.804299 C 11.016798,34.790883 11.009658,34.758069 11.005517,34.743928 C 10.999882,34.722166 10.985112,34.676811 10.981253,34.653373 C 10.951996,34.437329 10.988337,34.139953 11.133185,33.771501 C 11.243872,33.667281 11.380195,33.570496 11.515337,33.507341 z M 14.564041,32.690444 C 15.107227,32.436902 15.807634,32.521169 16.26308,32.752826 C 16.323118,32.784888 16.404418,32.82551 16.454446,32.863312 C 16.475207,32.87984 16.520463,32.920219 16.539081,32.937691 C 16.550994,32.949541 16.574561,32.977733 16.585442,32.989973 C 16.595792,33.002403 16.622553,33.02946 16.631804,33.042256 C 16.644831,33.061715 16.675876,33.104503 16.686253,33.124723 C 16.692561,33.138363 16.697379,33.171143 16.70243,33.185093 C 16.709037,33.206241 16.72309,33.25387 16.726694,33.275649 C 16.728406,33.2903 16.712387,33.329204 16.712685,33.344107 C 16.71098,33.404201 16.697153,33.48614 16.670658,33.549483 C 16.592441,33.71663 16.421374,33.905985 16.133826,34.081555 C 15.578646,34.342972 14.893969,34.490434 14.455297,34.337201 C 14.429167,34.32736 14.372768,34.313206 14.348566,34.301095 C 14.3071,34.278885 14.260389,34.234192 14.225658,34.204618 C 14.220844,34.200238 14.192047,34.187058 14.187384,34.182521 C 14.169343,34.163741 14.148423,34.121415 14.132935,34.100054 C 14.125523,34.089044 14.093306,34.059447 14.086574,34.047772 C 14.083381,34.041765 14.081501,34.023762 14.078485,34.017586 C 14.072813,34.004892 14.06725,33.970601 14.062309,33.957216 C 14.055458,33.936613 14.043166,33.888861 14.038045,33.86666 C 14.033515,33.84392 14.016488,33.80049 14.013781,33.776105 C 14.011002,33.74285 14.010964,33.683547 14.011613,33.647276 C 14.019274,33.462088 14.074987,33.221938 14.181889,32.954603 C 14.292227,32.849674 14.428244,32.75383 14.564041,32.690444 z M 20.691634,31.048561 C 21.169826,30.825092 21.765141,30.864027 22.207395,31.030643 C 22.273674,31.056961 22.370885,31.100368 22.428946,31.13304 C 22.493785,31.171354 22.577276,31.228179 22.628401,31.273711 C 22.640704,31.285302 22.663447,31.313999 22.674762,31.325993 C 22.685566,31.338183 22.711374,31.365706 22.721124,31.378275 C 22.734931,31.397406 22.76431,31.440822 22.775573,31.460743 C 22.782494,31.474192 22.786036,31.507341 22.791749,31.521113 C 22.799388,31.542006 22.811265,31.59011 22.816014,31.611669 C 22.818515,31.626182 22.831049,31.657259 22.83219,31.672039 C 22.832633,31.686949 22.819165,31.725345 22.818181,31.740498 C 22.813895,31.778672 22.803985,31.837937 22.790163,31.877415 C 22.720591,32.052134 22.55408,32.253666 22.261419,32.439672 C 21.693587,32.69952 20.98953,32.862531 20.552705,32.703406 C 20.546303,32.700889 20.520715,32.68397 20.514432,32.681309 C 20.508271,32.678504 20.482194,32.662163 20.476159,32.659212 C 20.47025,32.656113 20.443663,32.640363 20.437885,32.637115 C 20.426596,32.630318 20.410356,32.622425 20.399612,32.615018 C 20.39438,32.611159 20.366427,32.596935 20.361339,32.592921 C 20.331682,32.567887 20.292703,32.519244 20.268616,32.488356 C 20.253213,32.467093 20.226846,32.429891 20.214167,32.405889 C 20.20818,32.393538 20.203255,32.358577 20.19799,32.345518 C 20.193095,32.332102 20.185955,32.299289 20.181814,32.285148 C 20.176179,32.263386 20.161409,32.21803 20.15755,32.194592 C 20.128293,31.978549 20.164634,31.681172 20.309482,31.31272 C 20.420169,31.2085 20.556492,31.111715 20.691634,31.048561 z M 23.800708,30.215487 C 24.152339,30.051974 24.56795,30.037401 24.935903,30.105427 C 25.021825,30.122731 25.138734,30.164592 25.217825,30.191648 C 25.36415,30.244518 25.523876,30.323498 25.630743,30.404531 C 25.69289,30.454121 25.765943,30.526039 25.808101,30.583475 C 25.830151,30.615814 25.855856,30.661803 25.870638,30.696128 C 25.878586,30.716941 25.889819,30.765253 25.894903,30.786683 C 25.897634,30.801099 25.909698,30.832395 25.911079,30.847054 C 25.911769,30.861828 25.897795,30.90052 25.89707,30.915512 C 25.89562,30.930607 25.885991,30.968684 25.883061,30.983971 C 25.879373,30.999346 25.874287,31.036889 25.869052,31.052429 C 25.79976,31.232021 25.623271,31.436864 25.310123,31.622775 C 24.760776,31.904522 24.037305,32.024508 23.593321,31.856323 C 23.540497,31.834836 23.484256,31.798524 23.440228,31.767935 C 23.434875,31.763965 23.407154,31.749956 23.401955,31.745838 C 23.396912,31.741571 23.368564,31.728158 23.363681,31.723741 C 23.358962,31.719173 23.360147,31.698276 23.355593,31.693556 C 23.351209,31.688682 23.321534,31.676485 23.31732,31.671459 C 23.301165,31.650732 23.276111,31.612239 23.26287,31.588991 C 23.256629,31.577046 23.252159,31.541212 23.246694,31.528621 C 23.241626,31.515703 23.234774,31.481827 23.230518,31.46825 C 23.224757,31.447387 23.210095,31.400073 23.206254,31.377695 C 23.203071,31.354805 23.183144,31.311581 23.18199,31.287139 C 23.181529,31.262174 23.186235,31.21505 23.18791,31.188496 C 23.19272,31.134317 23.215996,31.043857 23.229937,30.98312 C 23.266164,30.838799 23.326189,30.661878 23.418556,30.479647 C 23.528804,30.37463 23.666261,30.278007 23.800708,30.215487 z M 39.044228,26.131 C 39.460396,25.937143 39.969419,25.9524 40.384799,26.062967 C 40.436156,26.077534 40.511871,26.094931 40.559989,26.113082 C 40.626332,26.139454 40.72343,26.18277 40.78154,26.215479 C 40.846432,26.253833 40.929844,26.310605 40.980995,26.35615 C 40.993304,26.367743 41.016038,26.396438 41.027356,26.408432 C 41.043566,26.426716 41.067997,26.471775 41.081806,26.4909 C 41.090456,26.503828 41.120662,26.529908 41.128167,26.543182 C 41.138542,26.563343 41.144804,26.612861 41.152431,26.633737 C 41.156883,26.647806 41.165454,26.67975 41.168608,26.694108 C 41.171095,26.708605 41.18366,26.739716 41.184784,26.754478 C 41.185422,26.776812 41.181467,26.830254 41.178863,26.853122 C 41.176384,26.868479 41.16885,26.906014 41.164854,26.92158 C 41.107592,27.109564 40.934141,27.320027 40.614013,27.522111 C 40.058755,27.784147 39.374172,27.930813 38.935484,27.777757 C 38.909353,27.767925 38.852955,27.753756 38.828753,27.741651 C 38.787287,27.719448 38.740575,27.674754 38.705845,27.645174 C 38.701032,27.640793 38.672234,27.627616 38.667571,27.623077 C 38.663061,27.618381 38.663838,27.597749 38.659483,27.592892 C 38.651091,27.582857 38.620865,27.551297 38.613122,27.54061 C 38.5983,27.518576 38.570732,27.482866 38.558672,27.458142 C 38.553001,27.445437 38.547436,27.41117 38.542496,27.397772 C 38.535647,27.377149 38.523352,27.329441 38.518232,27.307216 C 38.513704,27.284451 38.496672,27.241075 38.493968,27.216661 C 38.491193,27.183367 38.491146,27.12415 38.491801,27.087832 C 38.499489,26.902401 38.555126,26.662936 38.662076,26.395159 C 38.772816,26.291055 38.908974,26.194003 39.044228,26.131 z M 30.05713,28.571437 C 30.524385,28.425028 31.082428,28.419534 31.474247,28.547598 C 31.516126,28.56222 31.581266,28.587636 31.619252,28.605801 C 31.626681,28.609577 31.650271,28.623978 31.657526,28.627898 C 31.671677,28.636026 31.720661,28.663387 31.734072,28.672093 C 31.740586,28.676591 31.766028,28.689545 31.772346,28.69419 C 31.784578,28.70377 31.807306,28.736303 31.818707,28.746472 C 31.824193,28.751704 31.851713,28.763189 31.85698,28.768569 C 31.867068,28.779626 31.894176,28.809197 31.903342,28.820851 C 31.912033,28.832805 31.911803,28.868666 31.919518,28.881222 C 31.930337,28.90051 31.965486,28.943032 31.973967,28.963689 C 31.979084,28.977766 31.98613,29.009367 31.990143,29.024059 C 31.995317,29.046561 32.011859,29.090715 32.014408,29.114615 C 32.028682,29.325811 31.947753,29.617334 31.717471,29.938284 C 31.169404,30.149388 30.349056,30.353662 29.827646,30.250546 C 29.812098,30.247126 29.77421,30.240562 29.759187,30.236537 C 29.751813,30.23437 29.728148,30.216764 29.720914,30.21444 C 29.706735,30.209475 29.666038,30.206046 29.652456,30.200431 C 29.645819,30.197459 29.62066,30.181476 29.614182,30.178334 C 29.607866,30.175023 29.582059,30.159721 29.575909,30.156237 C 29.569928,30.152578 29.543445,30.137976 29.537636,30.13414 C 29.503842,30.110049 29.47191,30.060407 29.444913,30.029576 C 29.440615,30.024242 29.410733,30.01301 29.40664,30.007478 C 29.398871,29.996017 29.397378,29.959382 29.390464,29.947108 C 29.383988,29.934422 29.349679,29.908351 29.344102,29.894826 C 29.336427,29.873898 29.325379,29.827157 29.319838,29.80427 C 29.313427,29.772865 29.320029,29.710491 29.317671,29.675441 C 29.310142,29.468535 29.362033,29.190594 29.515964,28.845852 C 29.67359,28.736295 29.853976,28.635093 30.05713,28.571437 z M 36.124353,26.94573 C 36.576318,26.791424 37.130543,26.775901 37.533382,26.891706 C 37.559843,26.899841 37.61492,26.91843 37.640114,26.927812 C 37.673105,26.940877 37.72453,26.978806 37.754934,26.994103 C 37.799497,27.01789 37.870295,27.053637 37.908027,27.082492 C 37.932357,27.102294 37.971815,27.134796 37.992661,27.156871 C 38.002625,27.168194 38.030004,27.197259 38.039023,27.209153 C 38.047555,27.221333 38.047668,27.25677 38.055199,27.269524 C 38.062214,27.282565 38.095602,27.308188 38.10156,27.321806 C 38.109684,27.342666 38.120227,27.390198 38.125825,27.412362 C 38.136855,27.465093 38.148262,27.541672 38.144168,27.601561 C 38.140519,27.63637 38.125222,27.701309 38.11615,27.738478 C 38.105676,27.776238 38.074217,27.843347 38.057947,27.883483 C 38.004648,28.005678 37.926386,28.160646 37.814879,28.304489 C 37.125612,28.569375 36.04948,28.808613 35.618867,28.439975 C 35.613866,28.435352 35.585407,28.422685 35.580594,28.417878 C 35.571355,28.407892 35.54268,28.376337 35.534233,28.365595 C 35.530213,28.360032 35.529958,28.341168 35.526145,28.33541 C 35.508135,28.305639 35.476087,28.257602 35.463607,28.222758 C 35.456815,28.201223 35.443985,28.15566 35.439343,28.132202 C 35.432835,28.092016 35.429182,28.018981 35.429088,27.973188 C 35.4343,27.776011 35.503405,27.513246 35.643557,27.203969 C 35.674904,27.18112 35.722378,27.162273 35.75621,27.141431 C 35.868028,27.07533 35.993785,26.990308 36.124353,26.94573 z M 42.251946,25.303847 C 42.70325,25.148684 43.259056,25.135558 43.660975,25.249823 C 43.85458,25.308737 44.024178,25.41778 44.128343,25.545173 C 44.137335,25.557043 44.166692,25.585007 44.174704,25.597456 C 44.197226,25.635672 44.232472,25.696826 44.24533,25.740293 C 44.250903,25.762467 44.266666,25.80735 44.269594,25.830849 C 44.271611,25.854792 44.264469,25.904216 44.263673,25.929493 C 44.261323,25.963789 44.243342,26.029724 44.235655,26.06641 C 44.194851,26.234193 44.109433,26.445495 43.942472,26.662606 C 43.277251,26.929719 42.208011,27.160956 41.754549,26.828277 C 41.749136,26.823992 41.721498,26.810644 41.716275,26.80618 C 41.706219,26.796887 41.679172,26.763931 41.669914,26.753898 C 41.652217,26.733079 41.629731,26.695344 41.615465,26.67143 C 41.608779,26.659075 41.57487,26.632311 41.569103,26.619148 C 41.563806,26.605575 41.557261,26.573183 41.552927,26.558777 C 41.535639,26.492051 41.544403,26.385818 41.548593,26.30112 C 41.56358,26.108253 41.626818,25.85675 41.77115,25.562086 C 41.802477,25.539268 41.850003,25.520387 41.883803,25.499548 C 41.995514,25.433435 42.121569,25.348673 42.251946,25.303847 z M 45.30065,24.48695 C 45.752615,24.332644 46.30684,24.317121 46.709679,24.432926 C 46.73614,24.44106 46.791217,24.45965 46.816411,24.469032 C 46.849402,24.482097 46.900827,24.520026 46.931231,24.535323 C 46.975794,24.559109 47.046592,24.594857 47.084324,24.623711 C 47.108654,24.643514 47.148112,24.676016 47.168958,24.698091 C 47.178922,24.709414 47.206301,24.738479 47.21532,24.750373 C 47.223852,24.762553 47.223965,24.79799 47.231496,24.810743 C 47.238511,24.823785 47.271899,24.849408 47.277857,24.863026 C 47.285981,24.883886 47.296524,24.931418 47.302122,24.953581 C 47.313152,25.006313 47.324559,25.082891 47.320465,25.14278 C 47.316816,25.17759 47.301519,25.242529 47.292447,25.279697 C 47.281973,25.317458 47.250514,25.384567 47.234244,25.424702 C 47.180945,25.546898 47.102683,25.701866 46.991176,25.845708 C 46.301909,26.110595 45.225777,26.349833 44.795164,25.981194 C 44.790163,25.976571 44.761704,25.963904 44.756891,25.959097 C 44.747652,25.949111 44.718977,25.917557 44.71053,25.906815 C 44.70651,25.901252 44.706255,25.882387 44.702442,25.87663 C 44.684432,25.846859 44.652384,25.798821 44.639904,25.763977 C 44.633112,25.742442 44.620282,25.696879 44.61564,25.673421 C 44.609132,25.633235 44.605479,25.5602 44.605385,25.514407 C 44.610597,25.317231 44.679702,25.054465 44.819854,24.745188 C 44.851201,24.722339 44.898675,24.703493 44.932507,24.682651 C 45.044325,24.61655 45.170082,24.531527 45.30065,24.48695 z M 50.134189,24.777074 C 50.126067,24.785379 50.120686,24.80702 50.112092,24.815347 C 50.129546,24.801819 50.14703,24.782438 50.164374,24.768986 C 50.15672,24.777267 50.142311,24.768769 50.134189,24.777074 z "
         style="opacity:0.25;color:#000000;fill:#ffffff;fill-opacity:1;fill-rule:nonzero;stroke:none;stroke-width:0.1;stroke-linecap:butt;stroke-linejoin:round;marker:none;marker-start:none;marker-mid:none;marker-end:none;stroke-miterlimit:4;stroke-dasharray:none;stroke-dashoffset:0;stroke-opacity:1;visibility:visible;display:inline;overflow:visible" />
      <rect
         transform="matrix(0.965926,-0.258819,0.258819,0.965926,0,0)"
         inkscape:tile-cy="25.626598"
         inkscape:tile-cx="-0.88235283"
         inkscape:tile-h="9.391304"
         inkscape:tile-w="12.58312"
         ry="0.67937958"
         rx="0.67937958"
         y="37.34354"
         x="-13.244733"
         height="9.3913193"
         width="12.583136"
         id="rect2186"
         style="opacity:0.5;color:#000000;fill:url(#radialGradient7108);fill-opacity:1;fill-rule:nonzero;stroke:#000000;stroke-width:0.10000013;stroke-linecap:butt;stroke-linejoin:round;marker:none;marker-start:none;marker-mid:none;marker-end:none;stroke-miterlimit:4;stroke-dasharray:none;stroke-dashoffset:0;stroke-opacity:1;visibility:visible;display:inline;overflow:visible" />
      <use
         id="use2204"
         transform="translate(13.3698,-3.582425)"
         xlink:href="#rect2186"
         inkscape:tiled-clone-of="#rect2186"
         y="0"
         x="0"
         width="48"
         height="48" />
      <use
         id="use2206"
         transform="translate(26.73959,-7.16485)"
         xlink:href="#rect2186"
         inkscape:tiled-clone-of="#rect2186"
         y="0"
         x="0"
         width="48"
         height="48" />
      <use
         id="use2208"
         transform="translate(40.1094,-10.74728)"
         xlink:href="#rect2186"
         inkscape:tiled-clone-of="#rect2186"
         y="0"
         x="0"
         width="48"
         height="48" />
    </g>
  </g>
</svg>
