<?xml version="1.0" encoding="UTF-8" standalone="no"?>
<!-- Created with Inkscape (http://www.inkscape.org/) -->
<svg
   xmlns:dc="http://purl.org/dc/elements/1.1/"
   xmlns:cc="http://web.resource.org/cc/"
   xmlns:rdf="http://www.w3.org/1999/02/22-rdf-syntax-ns#"
   xmlns:svg="http://www.w3.org/2000/svg"
   xmlns="http://www.w3.org/2000/svg"
   xmlns:xlink="http://www.w3.org/1999/xlink"
   xmlns:sodipodi="http://inkscape.sourceforge.net/DTD/sodipodi-0.dtd"
   xmlns:inkscape="http://www.inkscape.org/namespaces/inkscape"
   width="48px"
   height="48px"
   id="svg57"
   sodipodi:version="0.32"
   inkscape:version="0.43+devel"
   sodipodi:docbase="/home/garrett/Source/tango-icon-theme/scalable/places"
   sodipodi:docname="user-trash.svg">
  <defs
     id="defs3">
    <linearGradient
       id="linearGradient381"
       inkscape:collect="always">
      <stop
         id="stop382"
         offset="0"
         style="stop-color:#ffffff;stop-opacity:1;" />
      <stop
         id="stop383"
         offset="1"
         style="stop-color:#ffffff;stop-opacity:0;" />
    </linearGradient>
    <linearGradient
       id="linearGradient368">
      <stop
         style="stop-color:#ffffff;stop-opacity:0.10309278;"
         offset="0.0000000"
         id="stop369" />
      <stop
         style="stop-color:#ffffff;stop-opacity:0.0000000;"
         offset="1.0000000"
         id="stop372" />
    </linearGradient>
    <linearGradient
       id="linearGradient1065">
      <stop
         style="stop-color:#b5c051;stop-opacity:1.0000000;"
         offset="0.0000000"
         id="stop1066" />
      <stop
         style="stop-color:#858e3f;stop-opacity:1.0000000;"
         offset="1.0000000"
         id="stop1067" />
    </linearGradient>
    <linearGradient
       id="linearGradient172">
      <stop
         id="stop173"
         offset="0.0000000"
         style="stop-color:#616c08;stop-opacity:1.0000000;" />
      <stop
         id="stop174"
         offset="1.0000000"
         style="stop-color:#495106;stop-opacity:1.0000000;" />
    </linearGradient>
    <linearGradient
       id="linearGradient161">
      <stop
         id="stop162"
         offset="0.0000000"
         style="stop-color:#575955;stop-opacity:1.0000000;" />
      <stop
         id="stop163"
         offset="1.0000000"
         style="stop-color:#7c7e79;stop-opacity:1.0000000;" />
    </linearGradient>
    <linearGradient
       id="linearGradient157">
      <stop
         id="stop158"
         offset="0.0000000"
         style="stop-color:#babdb6;stop-opacity:1.0000000;" />
      <stop
         id="stop159"
         offset="1.0000000"
         style="stop-color:#f1f5ec;stop-opacity:1.0000000;" />
    </linearGradient>
    <linearGradient
       id="linearGradient149"
       inkscape:collect="always">
      <stop
         id="stop150"
         offset="0"
         style="stop-color:#000000;stop-opacity:1;" />
      <stop
         id="stop151"
         offset="1"
         style="stop-color:#000000;stop-opacity:0;" />
    </linearGradient>
    <linearGradient
       id="linearGradient1869">
      <stop
         style="stop-color:#eff3f4;stop-opacity:1.0000000;"
         offset="0.0000000"
         id="stop1870" />
      <stop
         style="stop-color:#939596;stop-opacity:1.0000000;"
         offset="1.0000000"
         id="stop1871" />
    </linearGradient>
    <linearGradient
       inkscape:collect="always"
       xlink:href="#linearGradient1869"
       id="linearGradient1872"
       gradientTransform="matrix(1.464893,0,0,0.475906,30.56501,-34.34268)"
       x1="-4.6375198"
       y1="104.38752"
       x2="-4.5239210"
       y2="110.61378"
       gradientUnits="userSpaceOnUse" />
    <linearGradient
       gradientUnits="userSpaceOnUse"
       y2="69.460503"
       x2="7.5291119"
       y1="27.376621"
       x1="7.3738608"
       gradientTransform="matrix(3.495016,0,0,0.344323,-2.972087,-3.408148e-2)"
       id="linearGradient152"
       xlink:href="#linearGradient149"
       inkscape:collect="always" />
    <linearGradient
       gradientUnits="userSpaceOnUse"
       y2="6.8897981"
       x2="60.685901"
       y1="6.8897981"
       x1="55.208272"
       gradientTransform="matrix(0.772488,0,0,1.55784,-2.79531,-0.166664)"
       id="linearGradient160"
       xlink:href="#linearGradient157"
       inkscape:collect="always" />
    <linearGradient
       gradientUnits="userSpaceOnUse"
       y2="21.169637"
       x2="19.737664"
       y1="21.169637"
       x1="2.9325605"
       gradientTransform="matrix(2.374946,0,0,0.506711,-2.79531,-0.166664)"
       id="linearGradient164"
       xlink:href="#linearGradient161"
       inkscape:collect="always" />
    <linearGradient
       inkscape:collect="always"
       xlink:href="#linearGradient1065"
       id="linearGradient1068"
       gradientTransform="scale(1.175635,0.850604)"
       x1="10.861447"
       y1="33.139202"
       x2="30.587307"
       y2="37.720802"
       gradientUnits="userSpaceOnUse" />
    <linearGradient
       gradientUnits="userSpaceOnUse"
       y2="52.625473"
       x2="19.672924"
       y1="23.114082"
       x1="19.347122"
       gradientTransform="scale(1.175635,0.850604)"
       id="linearGradient101"
       xlink:href="#linearGradient172"
       inkscape:collect="always" />
    <linearGradient
       y2="48.805084"
       x2="25.312450"
       y1="25.335417"
       x1="17.573946"
       gradientTransform="scale(1.175636,0.850604)"
       gradientUnits="userSpaceOnUse"
       id="linearGradient374"
       xlink:href="#linearGradient368"
       inkscape:collect="always" />
    <linearGradient
       gradientUnits="userSpaceOnUse"
       y2="23.600779"
       x2="19.857769"
       y1="38.962704"
       x1="19.977491"
       gradientTransform="scale(1.215669,0.822592)"
       id="linearGradient384"
       xlink:href="#linearGradient381"
       inkscape:collect="always" />
    <linearGradient
       inkscape:collect="always"
       xlink:href="#linearGradient149"
       id="linearGradient3977"
       gradientUnits="userSpaceOnUse"
       gradientTransform="matrix(3.495016,0,0,0.344323,-2.972087,-3.408148e-2)"
       x1="7.3738608"
       y1="27.376621"
       x2="7.5291119"
       y2="69.460503" />
  </defs>
  <sodipodi:namedview
     showborder="true"
     id="base"
     pagecolor="#ffffff"
     bordercolor="#666666"
     borderopacity="1.0"
     inkscape:pageopacity="0.0"
     inkscape:pageshadow="2"
     inkscape:zoom="12.142857"
     inkscape:cx="24"
     inkscape:cy="24"
     inkscape:current-layer="g3964"
     showgrid="true"
     inkscape:grid-bbox="true"
     inkscape:document-units="px"
     inkscape:window-width="919"
     inkscape:window-height="944"
     inkscape:window-x="254"
     inkscape:window-y="96"
     inkscape:showpageshadow="false"
     gridempspacing="4"
     inkscape:object-nodes="true"
     inkscape:object-points="true"
     inkscape:object-bbox="true"
     inkscape:guide-bbox="false"
     inkscape:grid-points="true" />
  <metadata
     id="metadata4">
    <rdf:RDF>
      <cc:Work
         rdf:about="">
        <dc:format>image/svg+xml</dc:format>
        <dc:type
           rdf:resource="http://purl.org/dc/dcmitype/StillImage" />
        <dc:title>Trash Empty</dc:title>
        <dc:date>2003-02-04</dc:date>
        <dc:creator>
          <cc:Agent>
            <dc:title>Jakub Steiner</dc:title>
          </cc:Agent>
        </dc:creator>
        <dc:subject>
          <rdf:Bag>
            <rdf:li>trash</rdf:li>
            <rdf:li>delete</rdf:li>
            <rdf:li>deleted files</rdf:li>
            <rdf:li>waste</rdf:li>
            <rdf:li>recycle</rdf:li>
            <rdf:li>bin</rdf:li>
            <rdf:li>empty</rdf:li>
          </rdf:Bag>
        </dc:subject>
        <dc:publisher>
          <cc:Agent>
            <dc:title>Novell, Inc.</dc:title>
          </cc:Agent>
        </dc:publisher>
        <cc:license
           rdf:resource="http://creativecommons.org/licenses/by-sa/2.0/" />
        <dc:contributor>
          <cc:Agent>
            <dc:title>Garrett LeSage</dc:title>
          </cc:Agent>
        </dc:contributor>
      </cc:Work>
      <cc:License
         rdf:about="http://creativecommons.org/licenses/by-sa/2.0/">
        <cc:permits
           rdf:resource="http://web.resource.org/cc/Reproduction" />
        <cc:permits
           rdf:resource="http://web.resource.org/cc/Distribution" />
        <cc:requires
           rdf:resource="http://web.resource.org/cc/Notice" />
        <cc:requires
           rdf:resource="http://web.resource.org/cc/Attribution" />
        <cc:permits
           rdf:resource="http://web.resource.org/cc/DerivativeWorks" />
        <cc:requires
           rdf:resource="http://web.resource.org/cc/ShareAlike" />
      </cc:License>
    </rdf:RDF>
  </metadata>
  <g
     id="layer1"
     inkscape:label="Layer 1"
     inkscape:groupmode="layer">
    <g
       id="g189"
       style="fill-rule:nonzero;stroke:#000000;stroke-miterlimit:4.0000000"
       transform="matrix(1.030048,0.000000,-0.165186,-0.642915,2.477140,64.74043)"
       inkscape:export-filename="/home/jimmac/ximian_art/icons/nautilus/suse93/gnome-fs-directory.png"
       inkscape:export-xdpi="74.800003"
       inkscape:export-ydpi="74.800003">
      <g
         style="stroke:none"
         id="g190">
        <g
           id="g191">
          <g
             style="opacity:0.0000000"
             id="g192">
            <path
               d="M 9.9000000,39.700000 C 8.0000000,39.700000 5.7000000,38.300000 4.8000000,36.600000 L 3.0000000,33.100000 C 2.1000000,31.400000 2.5000000,28.900000 3.9000000,27.500000 L 4.7000000,26.700000 C 6.1000000,25.300000 8.8000000,24.200000 10.700000,24.200000 L 39.700000,24.200000 C 41.600000,24.200000 44.400000,25.200000 45.900000,26.400000 L 47.600000,27.800000 C 49.100000,29.000000 49.700000,31.500000 49.000000,33.200000 L 47.700000,36.300000 C 47.000000,38.100000 44.800000,39.500000 42.800000,39.500000 L 9.9000000,39.700000 z "
               id="path193" />
          </g>
          <g
             style="opacity:0.013599993"
             id="g194">
            <path
               d="M 5.0000000,27.500000 C 6.4000000,26.100000 9.0000000,25.000000 11.000000,25.000000 L 39.800000,25.000000 C 41.700000,25.000000 44.500000,26.000000 46.000000,27.300000 L 47.000000,28.200000 C 48.500000,29.400000 49.100000,31.900000 48.300000,33.700000 L 47.300000,36.200000 C 46.600000,38.000000 44.400000,39.400000 42.400000,39.400000 L 10.300000,39.500000 C 8.4000000,39.500000 6.1000000,38.100000 5.2000000,36.400000 L 3.7000000,33.600000 C 2.8000000,31.900000 3.2000000,29.300000 4.5000000,28.000000 L 5.0000000,27.500000 z "
               id="path195" />
          </g>
          <g
             style="opacity:0.027299942"
             id="g196">
            <path
               d="M 5.4000000,28.300000 C 6.7000000,26.900000 9.3000000,25.800000 11.200000,25.800000 L 39.800000,25.800000 C 41.700000,25.800000 44.500000,26.800000 45.900000,28.100000 L 46.400000,28.500000 C 47.800000,29.800000 48.400000,32.300000 47.700000,34.100000 L 47.000000,35.900000 C 46.300000,37.700000 44.100000,39.100000 42.200000,39.100000 L 11.000000,39.200000 C 9.1000000,39.200000 6.8000000,37.800000 5.9000000,36.100000 L 4.7000000,34.000000 C 3.8000000,32.300000 4.1000000,29.700000 5.4000000,28.400000 L 5.4000000,28.300000 z "
               id="path197" />
          </g>
          <g
             style="opacity:0.040899996"
             id="g198">
            <path
               d="M 5.9000000,28.900000 C 7.0000000,27.600000 9.5000000,26.600000 11.400000,26.600000 L 39.800000,26.600000 C 41.700000,26.600000 44.400000,27.700000 45.800000,29.000000 C 47.200000,30.300000 47.700000,32.800000 46.900000,34.600000 L 46.400000,35.700000 C 45.700000,37.500000 43.500000,38.900000 41.600000,39.000000 L 11.300000,39.000000 C 9.4000000,39.000000 7.1000000,37.600000 6.2000000,35.900000 L 5.4000000,34.400000 C 4.5000000,32.700000 4.7000000,30.200000 5.8000000,28.900000 L 5.9000000,28.900000 z "
               id="path199" />
          </g>
          <g
             style="opacity:0.054499988"
             id="g200">
            <path
               d="M 6.5000000,29.500000 C 7.5000000,28.300000 9.8000000,27.400000 11.700000,27.400000 L 39.800000,27.400000 C 41.700000,27.400000 44.300000,28.400000 45.400000,29.600000 C 46.500000,30.800000 46.900000,33.200000 46.200000,35.000000 L 46.000000,35.400000 C 45.300000,37.200000 43.100000,38.600000 41.200000,38.700000 L 11.700000,38.800000 C 9.8000000,38.800000 7.5000000,37.400000 6.6000000,35.700000 L 6.2000000,34.900000 C 5.3000000,33.200000 5.4000000,30.800000 6.4000000,29.600000 L 6.5000000,29.500000 z "
               id="path201" />
          </g>
          <g
             style="opacity:0.068200000"
             id="g202">
            <path
               d="M 7.0000000,30.100000 C 7.8000000,29.000000 10.000000,28.100000 11.900000,28.100000 L 39.800000,28.100000 C 41.700000,28.100000 44.100000,29.000000 45.100000,30.100000 C 46.100000,31.200000 46.300000,33.500000 45.600000,35.200000 C 44.900000,36.900000 42.700000,38.300000 40.800000,38.300000 L 12.200000,38.400000 C 10.300000,38.400000 8.0000000,37.000000 7.1000000,35.300000 L 7.0000000,35.100000 C 6.1000000,33.400000 6.1000000,31.100000 6.9000000,30.000000 L 7.0000000,30.100000 z "
               id="path203" />
          </g>
          <g
             style="opacity:0.081799991"
             id="g204">
            <path
               d="M 7.5000000,30.700000 C 8.1000000,29.700000 10.200000,28.900000 12.200000,28.900000 L 39.900000,28.900000 C 41.800000,28.900000 44.000000,29.700000 44.800000,30.700000 C 45.600000,31.700000 45.700000,33.800000 45.100000,35.300000 C 44.500000,36.800000 42.400000,38.100000 40.500000,38.100000 L 12.800000,38.200000 C 10.900000,38.200000 8.7000000,36.900000 7.9000000,35.300000 C 7.1000000,33.700000 7.0000000,31.600000 7.6000000,30.600000 L 7.5000000,30.700000 z "
               id="path205" />
          </g>
          <g
             style="opacity:0.095500000"
             id="g206">
            <path
               d="M 8.1000000,31.300000 C 8.6000000,30.400000 10.500000,29.700000 12.500000,29.700000 L 40.000000,29.700000 C 41.900000,29.700000 44.000000,30.400000 44.600000,31.300000 C 45.200000,32.200000 45.200000,34.100000 44.700000,35.400000 C 44.200000,36.700000 42.100000,37.900000 40.200000,37.900000 L 13.200000,38.000000 C 11.300000,38.000000 9.1000000,36.800000 8.5000000,35.400000 C 7.8000000,34.000000 7.7000000,32.100000 8.1000000,31.200000 L 8.1000000,31.300000 z "
               id="path207" />
          </g>
          <g
             style="opacity:0.10909999"
             id="g208">
            <path
               d="M 8.6000000,31.900000 C 8.9000000,31.100000 10.700000,30.500000 12.700000,30.500000 L 39.900000,30.500000 C 41.800000,30.500000 43.700000,31.200000 44.100000,32.000000 C 44.500000,32.800000 44.400000,34.400000 44.000000,35.600000 C 43.600000,36.800000 41.600000,37.700000 39.600000,37.700000 L 13.600000,37.800000 C 11.700000,37.800000 9.6000000,36.800000 9.1000000,35.600000 C 8.5000000,34.400000 8.3000000,32.700000 8.6000000,32.000000 L 8.6000000,31.900000 z "
               id="path209" />
          </g>
          <g
             style="opacity:0.12269998"
             id="g210">
            <path
               d="M 9.2000000,32.500000 C 9.3000000,31.800000 11.000000,31.300000 13.000000,31.300000 L 40.000000,31.300000 C 41.900000,31.300000 43.700000,31.900000 43.900000,32.600000 C 44.100000,33.300000 43.900000,34.700000 43.600000,35.700000 C 43.200000,36.700000 41.300000,37.500000 39.400000,37.500000 L 14.200000,37.600000 C 12.300000,37.600000 10.300000,36.700000 9.8000000,35.700000 C 9.3000000,34.600000 9.1000000,33.200000 9.2000000,32.600000 L 9.2000000,32.500000 z "
               id="path211" />
          </g>
          <g
             style="opacity:0.13640000"
             id="g212">
            <path
               d="M 9.7000000,33.100000 C 9.7000000,32.500000 11.300000,32.100000 13.200000,32.100000 L 40.000000,32.100000 C 41.900000,32.100000 43.500000,32.600000 43.500000,33.200000 C 43.500000,33.800000 43.300000,35.000000 42.900000,35.800000 C 42.500000,36.600000 40.800000,37.300000 38.800000,37.300000 L 14.500000,37.300000 C 12.600000,37.300000 10.700000,36.600000 10.300000,35.700000 C 9.9000000,34.800000 9.6000000,33.600000 9.6000000,33.100000 L 9.7000000,33.100000 z "
               id="path213" />
          </g>
          <g
             style="opacity:0.14999999"
             id="g214">
            <path
               d="M 15.000000,37.000000 C 13.100000,37.000000 11.100000,36.100000 10.700000,34.900000 C 10.300000,33.700000 11.500000,32.800000 13.400000,32.800000 L 40.000000,32.800000 C 41.900000,32.800000 43.200000,33.700000 42.700000,34.900000 C 42.300000,36.000000 40.400000,37.000000 38.500000,37.000000 L 15.000000,37.000000 z "
               id="path215" />
          </g>
        </g>
      </g>
    </g>
    <g
       id="g3964">
      <path
         inkscape:r_cy="true"
         inkscape:r_cx="true"
         transform="matrix(0.997091,0,0,1.011161,0.175269,-0.497829)"
         sodipodi:nodetypes="ccccccc"
         id="path1751"
         d="M 3.836697,16.810238 C 3.792608,16.775175 5.56866,42.034206 5.569166,42.041863 C 5.73578,44.564407 7.134433,45.486354 8.699929,45.49011 C 8.75587,45.490239 38.069409,45.486863 38.693936,45.484234 C 41.330302,45.473139 41.976184,43.867694 42.149611,42.113575 C 42.163521,42.07899 43.938664,16.844824 43.952571,16.810238 C 30.580614,16.810238 17.208657,16.810238 3.836697,16.810238 z "
         style="fill:url(#linearGradient1068);fill-opacity:1;fill-rule:evenodd;stroke:url(#linearGradient101);stroke-width:0.99591541;stroke-linecap:butt;stroke-linejoin:miter;stroke-miterlimit:4;stroke-dasharray:none;stroke-opacity:1" />
      <path
         inkscape:r_cy="true"
         inkscape:r_cx="true"
         transform="matrix(1.007266,0,0,1.010724,-0.252168,-0.110549)"
         sodipodi:nodetypes="cccc"
         id="path1893"
         d="M 43.188383,18.930946 L 7.1998593,18.907789 C 34.314156,19.538355 39.641346,22.517229 42.946375,22.365024 L 43.188383,18.930946 z "
         style="color:#000000;fill:url(#linearGradient3977);fill-opacity:1;fill-rule:nonzero;stroke:none;stroke-width:0;stroke-linecap:butt;stroke-linejoin:miter;marker:none;marker-start:none;marker-mid:none;marker-end:none;stroke-miterlimit:4;stroke-dashoffset:0;stroke-opacity:1;visibility:visible;display:block" />
      <g
         inkscape:r_cy="true"
         inkscape:r_cx="true"
         id="g144"
         transform="matrix(1.402179,0,0,1.438944,-66.03801,-8.126386)"
         style="fill:#ffffff;fill-opacity:0.48809521">
        <path
           inkscape:r_cy="true"
           inkscape:r_cx="true"
           style="fill-rule:evenodd;stroke:none;stroke-width:1px;stroke-linecap:butt;stroke-linejoin:miter;stroke-opacity:1"
           d="M 64.131147,25.325447 L 67.928133,25.615144 L 69.396397,22.040585 L 67.659134,23.261574 C 67.659134,23.261574 66.914226,21.524169 66.378823,21.384498 C 65.843421,21.244828 63.559132,21.291385 63.559132,21.291385 C 64.285695,21.471073 64.850367,22.719512 64.859047,22.733674 C 65.085717,23.10353 65.72022,24.348057 65.72022,24.348057 L 64.131147,25.325447 z "
           id="path41"
           sodipodi:nodetypes="ccccccscc" />
        <path
           inkscape:r_cy="true"
           inkscape:r_cx="true"
           style="color:#000000;fill-opacity:0.30952382;fill-rule:evenodd;stroke:none;stroke-width:1px;stroke-linecap:butt;stroke-linejoin:miter;marker:none;marker-start:none;marker-mid:none;marker-end:none;stroke-miterlimit:4;stroke-dashoffset:0;stroke-opacity:1;visibility:visible;display:inline;overflow:visible"
           d="M 64.600893,22.852762 L 63.344021,25.250434 L 60.760121,23.620948 C 60.760121,23.620948 61.931819,21.409503 62.855175,21.409503 C 63.786342,21.409503 64.202456,22.212137 64.600893,22.852762 z "
           id="path130"
           sodipodi:nodetypes="ccczc" />
        <path
           inkscape:r_cy="true"
           inkscape:r_cx="true"
           style="fill-rule:evenodd;stroke:none;stroke-width:1px;stroke-linecap:butt;stroke-linejoin:miter;stroke-opacity:1"
           d="M 66.450976,28.545542 L 64.002948,31.471279 L 66.339076,34.488059 L 66.382284,32.587938 C 66.382284,32.587938 68.103047,32.750329 68.497986,32.362789 C 68.892923,31.975249 70.535933,30.02127 70.535933,30.02127 C 70.008436,30.552239 68.647269,30.395144 68.630659,30.395314 C 68.196893,30.399717 66.480102,30.359654 66.480102,30.359654 L 66.450976,28.545542 z "
           id="path139"
           sodipodi:nodetypes="ccccccscc" />
        <path
           inkscape:r_cy="true"
           inkscape:r_cx="true"
           style="color:#000000;fill-opacity:0.30952382;fill-rule:evenodd;stroke:none;stroke-width:1px;stroke-linecap:butt;stroke-linejoin:miter;marker:none;marker-start:none;marker-mid:none;marker-end:none;stroke-miterlimit:4;stroke-dashoffset:0;stroke-opacity:1;visibility:visible;display:inline;overflow:visible"
           d="M 68.748409,30.061355 L 67.337346,27.751062 L 70.062991,26.371707 C 70.062991,26.371707 71.358061,28.513238 70.883591,29.305365 C 70.405109,30.104193 69.502725,30.048732 68.748409,30.061355 z "
           id="path140"
           sodipodi:nodetypes="ccczc" />
        <path
           inkscape:r_cy="true"
           inkscape:r_cx="true"
           style="fill-rule:evenodd;stroke:none;stroke-width:1px;stroke-linecap:butt;stroke-linejoin:miter;stroke-opacity:1"
           d="M 62.170193,28.37565 L 60.961696,25.192931 L 57.437755,25.441971 L 58.884372,26.495777 C 58.884372,26.495777 57.885335,27.90621 58.024237,28.441813 C 58.163139,28.977415 58.94678,31.196407 58.94678,31.196407 C 58.749682,30.474372 59.564769,29.372969 59.572907,29.358488 C 59.785446,28.980335 60.676477,27.51233 60.676477,27.51233 L 62.170193,28.37565 z "
           id="path142"
           sodipodi:nodetypes="ccccccscc" />
        <path
           inkscape:r_cy="true"
           inkscape:r_cx="true"
           style="color:#000000;fill-opacity:0.30952382;fill-rule:evenodd;stroke:none;stroke-width:1px;stroke-linecap:butt;stroke-linejoin:miter;marker:none;marker-start:none;marker-mid:none;marker-end:none;stroke-miterlimit:4;stroke-dashoffset:0;stroke-opacity:1;visibility:visible;display:inline;overflow:visible"
           d="M 59.752772,29.661147 L 62.45898,29.59048 L 62.294995,32.640869 C 62.294995,32.640869 59.792913,32.695178 59.343013,31.888843 C 58.889308,31.075686 59.387472,30.32123 59.752772,29.661147 z "
           id="path143"
           sodipodi:nodetypes="ccczc" />
      </g>
      <path
         inkscape:r_cy="true"
         inkscape:r_cx="true"
         transform="matrix(0.997091,0,0,1.011161,0.253928,-0.654813)"
         style="opacity:1;fill:url(#linearGradient374);fill-opacity:1;fill-rule:evenodd;stroke:none;stroke-width:14.96210194;stroke-linecap:butt;stroke-linejoin:miter;stroke-miterlimit:4;stroke-opacity:1"
         d="M 41.62473,23.651808 C 36.299359,25.986218 29.004203,28.320991 23.056218,28.370558 C 16.516233,28.425058 11.697549,31.531025 6.8162911,33.914752 C 7.010968,36.794969 7.225682,38.805946 7.4908471,42.031519 C 7.6231144,43.640472 8.1287711,43.602252 10.431218,43.602252 C 19.542668,43.602252 31.496634,43.615196 38.688801,43.615196 C 40.449339,43.615196 40.248374,42.363465 40.34348,41.164752 C 40.803877,35.361894 41.217727,29.476257 41.62473,23.651808 z "
         id="path344"
         sodipodi:nodetypes="cccssssc" />
      <path
         inkscape:r_cy="true"
         inkscape:r_cx="true"
         transform="matrix(0.997091,0,0,1.011161,0.219976,-0.497829)"
         sodipodi:nodetypes="cssssss"
         id="path375"
         d="M 5.2098606,19.402822 C 5.1584543,19.40269 6.0490537,32.078422 6.7566249,40.968384 C 6.9391608,43.250374 7.3101511,44.179154 8.747779,44.179154 C 20.599078,44.179154 37.441889,44.264299 38.015405,44.262223 C 40.789981,44.252176 40.738055,43.236189 40.967844,41.077514 C 41.051496,40.29168 42.504818,19.49121 42.490953,19.49121 C 32.560989,19.49121 17.47866,19.43444 5.2098606,19.402822 z "
         style="fill:none;fill-opacity:1;fill-rule:evenodd;stroke:url(#linearGradient384);stroke-width:0.99591541;stroke-linecap:butt;stroke-linejoin:miter;stroke-miterlimit:4;stroke-dasharray:none;stroke-opacity:0.2857143" />
    </g>
    <path
       style="fill:url(#linearGradient1872);fill-opacity:1;fill-rule:evenodd;stroke:#4d5506;stroke-width:0.97544956;stroke-linecap:butt;stroke-linejoin:miter;stroke-miterlimit:4;stroke-dasharray:none;stroke-opacity:1"
       d="M 7.538492,4.7306315 C 6.494167,4.7330003 5.620149,4.7569809 5.144078,5.7442051 C 5.061333,5.9157934 2.539129,12.879834 2.417869,13.145414 C 1.379764,15.419016 2.337109,18.283038 4.342179,18.263863 C 4.723494,18.260334 43.852401,18.281621 44.459163,18.263863 C 46.165984,18.214785 46.384401,14.898279 45.649626,13.406336 C 45.607999,13.321814 42.197827,5.6492999 42.110852,5.5134018 C 41.708578,4.9064789 40.807722,4.640488 40.138555,4.6654006 C 40.006734,4.6704304 7.668955,4.7303368 7.538492,4.7306315 z "
       id="path1841"
       sodipodi:nodetypes="cssssscss"
       transform="matrix(1.021485,0,0,1.028865,-0.537224,-0.298421)"
       inkscape:r_cx="true"
       inkscape:r_cy="true" />
    <path
       style="color:#000000;fill:url(#linearGradient164);fill-opacity:1;fill-rule:evenodd;stroke:none;stroke-width:0;stroke-linecap:butt;stroke-linejoin:miter;marker:none;marker-start:none;marker-mid:none;marker-end:none;stroke-miterlimit:4;stroke-dashoffset:0;stroke-opacity:1;visibility:visible;display:block"
       d="M 7.72045,6.3900545 C 6.735524,6.3773223 6.671388,6.3392466 6.449677,7.0362462 C 6.398497,7.1971422 4.336482,13.531607 4.255655,13.777418 C 3.980776,14.613371 4.36948,14.833988 5.323403,14.816995 C 5.661327,14.810975 42.670159,14.816995 43.208169,14.816995 C 43.971941,14.816995 44.198501,14.565395 44.025974,13.971598 C 43.955868,13.730313 41.085266,6.9669634 41.008179,6.8465153 C 40.651639,6.3085929 40.713471,6.3101594 40.09072,6.3025755 C 39.973809,6.301151 7.836071,6.3915492 7.72045,6.3900545 z "
       id="path1864"
       sodipodi:nodetypes="cssssscss"
       transform="matrix(1.005586,0,0,1.027013,-0.134078,-0.270972)"
       inkscape:r_cx="true"
       inkscape:r_cy="true" />
    <path
       style="color:#000000;fill:#2e3436;fill-opacity:1;fill-rule:evenodd;stroke:none;stroke-width:0;stroke-linecap:butt;stroke-linejoin:miter;marker:none;marker-start:none;marker-mid:none;marker-end:none;stroke-miterlimit:4;stroke-dashoffset:0;stroke-opacity:1;visibility:visible;display:block"
       d="M 7.191437,6.3869852 C 6.820562,6.4152986 6.642177,6.5251871 6.486944,7.0132015 C 6.435764,7.1740974 4.376014,13.499216 4.295186,13.745027 C 4.020307,14.580975 4.384957,14.805712 5.338881,14.78872 C 5.355404,14.788428 7.292214,14.788962 7.475548,14.78872 L 7.191437,6.3869852 z "
       id="path1880"
       sodipodi:nodetypes="cccccc"
       transform="matrix(1.005586,0,0,1.028865,-0.134078,-0.298421)"
       inkscape:r_cx="true"
       inkscape:r_cy="true" />
    <path
       style="color:#000000;fill:url(#linearGradient160);fill-opacity:1;fill-rule:evenodd;stroke:none;stroke-width:0;stroke-linecap:butt;stroke-linejoin:miter;marker:none;marker-start:none;marker-mid:none;marker-end:none;stroke-miterlimit:4;stroke-dashoffset:0;stroke-opacity:1;visibility:visible;display:block"
       d="M 40.143457,6.2999077 C 40.594213,6.3037596 40.726578,6.2947269 41.014741,6.8394315 C 41.054147,6.9139229 43.889138,13.632601 43.990928,13.878411 C 44.337098,14.825515 43.677798,14.805712 42.632092,14.833183 C 42.433434,14.83289 40.083238,14.811194 39.852358,14.81095 L 40.143457,6.2999077 z "
       id="path1888"
       sodipodi:nodetypes="cscccc"
       transform="matrix(1.005586,0,0,1.028865,-0.134078,-0.298421)"
       inkscape:r_cx="true"
       inkscape:r_cy="true" />
  </g>
</svg>
