<svg width="36" height="36" viewBox="0 0 36 36" fill="none" xmlns="http://www.w3.org/2000/svg">
<path d="M16.8146 2.22852H16.4553C7.40129 2.22852 0 9.6298 0 18.7557C0 27.8097 7.40129 35.2109 16.4553 35.2109C25.5093 35.2109 32.9106 27.8097 32.9824 18.7557V18.3964H16.8146V2.22852ZM32.192 19.0431C31.9764 27.5941 25.0063 34.4205 16.4553 34.4205C7.76058 34.4205 0.718571 27.3785 0.718571 18.6838C0.718571 10.1328 7.61686 3.0908 16.096 2.94709V19.1149H32.192V19.0431Z" fill="currentColor"/>
<path d="M18.7548 0H18.3955V16.8864H35.2819V16.5271C35.2101 7.40128 27.8088 0 18.7548 0ZM19.1141 16.096V0.718571C27.5214 0.934143 34.3478 7.68871 34.4915 16.1679H19.1141V16.096Z" fill="currentColor"/>
</svg>
