<svg width="30" height="30" viewBox="0 0 30 30" fill="none" xmlns="http://www.w3.org/2000/svg">
<path d="M28.6826 20.0599C28.3234 20.0599 28.024 20.2994 27.9042 20.5988H25.0898V18.0838H25.8683C28.1437 18.0838 30 16.2275 30 13.9521C30 11.6766 28.1437 9.82034 25.8683 9.82034C25.6287 9.82034 25.3892 9.82036 25.1497 9.88024C24.9102 7.24551 22.6946 5.20958 20 5.26946C19.2814 2.21556 16.5269 0 13.3533 0C10.479 0 7.96407 1.79641 6.94611 4.49102C6.88623 4.49102 6.88623 4.49102 6.82635 4.49102C3.05389 4.49102 0 7.54489 0 11.3173C0 15.0898 3.05389 18.0838 6.82635 18.0838H7.66467V21.6168H5.62874C5.50898 21.3174 5.20958 21.0778 4.8503 21.0778C4.37126 21.0778 4.01198 21.4371 4.01198 21.9162C4.01198 22.3952 4.37126 22.7545 4.8503 22.7545C5.20958 22.7545 5.50898 22.515 5.62874 22.2156H8.26347V18.0838H11.1976V24.7305H9.58084C9.46108 24.4311 9.16168 24.1916 8.8024 24.1916C8.32335 24.1916 7.96407 24.5509 7.96407 25.0299C7.96407 25.509 8.32335 25.8682 8.8024 25.8682C9.16168 25.8682 9.46108 25.6287 9.58084 25.3293H11.7964V18.0838H14.012V28.3832C13.7126 28.503 13.4731 28.8024 13.4731 29.1617C13.4731 29.6407 13.8323 30 14.3114 30C14.7904 30 15.1497 29.6407 15.1497 29.1617C15.1497 28.8024 14.9102 28.503 14.6108 28.3832V18.0838H17.5449V23.7724C17.2455 23.8922 17.006 24.1916 17.006 24.5509C17.006 25.03 17.3653 25.3892 17.8443 25.3892C18.3234 25.3892 18.6826 25.03 18.6826 24.5509C18.6826 24.1916 18.4431 23.8922 18.1437 23.7724V18.0838H20.8982V27.3054L22.515 27.3653C22.5748 27.7245 22.9341 28.024 23.3533 28.024C23.8323 28.024 24.1916 27.6647 24.1916 27.1856C24.1916 26.7066 23.8323 26.3473 23.3533 26.3473C23.0539 26.3473 22.7545 26.5269 22.6347 26.7665H21.5569V18.1437H24.491V21.2575H27.8443C27.9641 21.5569 28.2635 21.7964 28.6228 21.7964C29.1018 21.7964 29.4611 21.4371 29.4611 20.9581C29.521 20.4192 29.1617 20.0599 28.6826 20.0599ZM0.658683 11.3173C0.658683 7.90417 3.41317 5.08982 6.88623 5.08982C7.00599 5.08982 7.06587 5.08982 7.18563 5.08982H7.42515L7.48503 4.85029C8.32335 2.27544 10.6587 0.598803 13.3533 0.598803C16.3473 0.598803 18.8623 2.69459 19.4611 5.62872L19.521 5.86826H19.7605C19.8802 5.86826 20 5.86826 20.1198 5.86826C22.515 5.86826 24.491 7.8443 24.491 10.2395V10.5988L24.8503 10.479C25.1497 10.4192 25.4491 10.3593 25.7485 10.3593C27.7246 10.3593 29.2814 11.976 29.2814 13.8922C29.2814 15.8682 27.6647 17.4251 25.7485 17.4251H6.88623C3.47305 17.485 0.658683 14.7305 0.658683 11.3173Z" fill="currentColor"/>
</svg>
