<svg width="35" height="34" viewBox="0 0 35 34" fill="none" xmlns="http://www.w3.org/2000/svg">
<path d="M0.570312 0V8.80676H34.7812V0H0.570312ZM34.1037 8.06157H1.24776V0.609694H34.1037V8.06157Z" fill="currentColor"/>
<path d="M31.5296 2.70898H11.3418V6.5704H31.5296V2.70898ZM30.8521 5.89295H12.0192V3.38643H30.8521V5.89295Z" fill="currentColor"/>
<path d="M5.85521 6.57174C6.93911 6.57174 7.81979 5.69107 7.81979 4.60716C7.81979 3.52325 6.93911 2.64258 5.85521 2.64258C4.7713 2.64258 3.89062 3.52325 3.89062 4.60716C3.89062 5.69107 4.7713 6.57174 5.85521 6.57174ZM5.85521 3.32002C6.60039 3.32002 7.14234 3.92972 7.14234 4.60716C7.14234 5.2846 6.53265 5.8943 5.85521 5.8943C5.11002 5.8943 4.56807 5.2846 4.56807 4.60716C4.56807 3.92972 5.11002 3.32002 5.85521 3.32002Z" fill="currentColor"/>
<path d="M0.367548 30.8907H17.1004V33.2618H0.503034V33.9392H34.3752V33.2618H17.7778V30.8907H34.5107V22.084H0.299805V30.8907H0.367548ZM1.04499 22.8292H33.901V30.281H1.04499V22.8292Z" fill="currentColor"/>
<path d="M11.1387 28.7228H31.3265V24.8613H11.1387V28.7228ZM11.8161 25.5388H30.649V28.0453H11.8161V25.5388Z" fill="currentColor"/>
<path d="M5.6511 24.7949C4.5672 24.7949 3.68652 25.6756 3.68652 26.7595C3.68652 27.8434 4.5672 28.7241 5.6511 28.7241C6.73501 28.7241 7.61569 27.8434 7.61569 26.7595C7.61569 25.6756 6.73501 24.7949 5.6511 24.7949ZM5.6511 28.0466C4.90592 28.0466 4.36397 27.4369 4.36397 26.7595C4.36397 26.0821 4.97366 25.4724 5.6511 25.4724C6.32855 25.4724 6.93825 26.0821 6.93825 26.7595C6.93825 27.4369 6.32855 28.0466 5.6511 28.0466Z" fill="currentColor"/>
<path d="M0.367188 19.8497H34.578V11.043H0.367188V19.8497ZM1.04463 11.7204H33.9006V19.1723H1.04463V11.7204Z" fill="currentColor"/>
<path d="M11.1387 17.6134H31.3265V13.752H11.1387V17.6134ZM11.8161 14.4971H30.649V17.0037H11.8161V14.4971Z" fill="currentColor"/>
<path d="M5.6511 13.752C4.5672 13.752 3.68652 14.6326 3.68652 15.7165C3.68652 16.8004 4.5672 17.6811 5.6511 17.6811C6.73501 17.6811 7.61569 16.8004 7.61569 15.7165C7.61569 14.6326 6.73501 13.752 5.6511 13.752ZM5.6511 17.0037C4.90592 17.0037 4.36397 16.394 4.36397 15.7165C4.36397 14.9713 4.97366 14.4294 5.6511 14.4294C6.32855 14.4294 6.93825 15.0391 6.93825 15.7165C6.93825 16.394 6.32855 17.0037 5.6511 17.0037Z" fill="currentColor"/>
</svg>
