<svg width="33" height="33" viewBox="0 0 33 33" fill="none" xmlns="http://www.w3.org/2000/svg">
<path d="M12.736 18.4245C13.0593 17.3254 12.93 16.1617 12.4128 15.192C11.8956 14.1576 10.9905 13.4465 9.89144 13.1232C7.62872 12.4121 5.23669 13.705 4.52555 15.9678C3.81441 18.2305 5.10739 20.6225 7.37012 21.3337C7.75802 21.463 8.21056 21.5276 8.59846 21.5276C10.4733 21.463 12.2188 20.2993 12.736 18.4245ZM7.56407 20.6872C5.62459 20.1053 4.5902 18.0366 5.17204 16.1617C5.43064 15.2566 6.07713 14.4808 6.91758 14.0283C7.75802 13.5757 8.72775 13.4465 9.69749 13.7697C10.6026 14.0283 11.3784 14.6748 11.8309 15.5152C12.2835 16.3557 12.4128 17.3254 12.0895 18.2952C11.5723 20.17 9.50355 21.269 7.56407 20.6872Z" fill="currentColor"/>
<path d="M20.2353 0C14.4168 0 8.27512 1.29296 8.27512 3.68498V10.4732C7.88722 10.4732 7.56398 10.5378 7.17608 10.6025L5.81844 8.79229L3.36177 10.0853L4.07291 12.1541C3.62037 12.542 3.23247 13.0592 2.90922 13.5764L0.775795 13.2531L0 15.9037L1.87483 16.8088C1.81018 17.4553 1.87484 18.1018 2.00413 18.7483L0.3879 19.9766L1.68089 22.4333L3.55571 21.7868C4.00826 22.304 4.52546 22.7565 5.1073 23.0798L4.8487 25.0193L7.49933 25.7951L8.27512 24.1142V28.575C8.27512 30.967 14.4168 32.26 20.2353 32.26C26.0537 32.26 32.1954 30.967 32.1954 28.575V20.2999V20.2352V12.0248V11.9601V3.62035C32.1954 1.22832 26.0537 0 20.2353 0ZM20.2353 0.646493C26.8941 0.646493 31.5489 2.2627 31.5489 3.68498C31.5489 5.10727 26.8941 6.72351 20.2353 6.72351C13.5764 6.72351 8.92161 5.04263 8.92161 3.62035C8.92161 2.19806 13.5764 0.646493 20.2353 0.646493ZM7.95187 23.2738L7.17608 24.9546L5.6245 24.5021L5.8831 22.6919L5.68915 22.5626C5.04265 22.1747 4.46081 21.7221 3.94361 21.1403L3.81431 20.9464L2.06878 21.5929L1.29299 20.1706L2.84457 19.0069L2.77992 18.8129C2.58598 18.1018 2.52132 17.3907 2.58597 16.6795V16.4856L0.840444 15.6451L1.29299 14.0935L3.29712 14.4168L3.42642 14.2229C3.81431 13.641 4.20221 13.1238 4.78405 12.6713L4.978 12.5419L4.26686 10.6025L5.68915 9.82667L6.91748 11.5076L7.11143 11.4429C7.75792 11.249 8.40442 11.1843 9.11556 11.249H9.30951L10.2146 9.30948L11.7662 9.76204L11.4429 11.8955L11.6369 12.0248C12.2187 12.348 12.7359 12.8006 13.1885 13.2531L13.3178 13.4471L15.3219 12.7359L16.0977 14.1582L14.4168 15.3865L14.4815 15.5805C14.6754 16.227 14.7401 16.9381 14.7401 17.6493V17.8432L16.5502 18.7483L16.0977 20.2999L14.1582 20.0413L14.0289 20.2352C13.7057 20.8817 13.2531 21.4636 12.6713 21.9161L12.4773 22.0454L13.1238 23.8556L11.7015 24.6314L10.6025 23.1445L10.4086 23.2091C9.69741 23.403 8.92161 23.5324 8.21047 23.4677L7.95187 23.2738ZM13.3178 22.11C13.7703 21.6575 14.2229 21.1403 14.5461 20.5585L16.6149 20.8817L17.3907 18.2311L15.4512 17.326C15.4512 16.6795 15.3866 16.0977 15.2573 15.5158L15.5805 15.3219C17.0674 15.5158 18.619 15.5805 20.2999 15.5805C24.9547 15.5805 29.868 14.74 31.6135 13.1884V20.1706C31.6135 21.5928 26.9588 23.2091 20.2999 23.2091C17.8432 23.2091 15.4512 23.0151 13.5117 22.5626L13.3178 22.11ZM20.2353 31.5489C13.5764 31.5489 8.92161 29.9326 8.92161 28.5103V23.9849C9.37416 23.9849 9.89135 23.9202 10.3439 23.791L11.5076 25.4072L13.9643 24.1142L13.7057 23.2738C15.6451 23.6617 17.9079 23.8556 20.2353 23.8556C24.89 23.8556 29.8034 23.0151 31.5489 21.4636V28.575C31.5489 29.9326 26.8941 31.5489 20.2353 31.5489ZM31.5489 11.8955C31.5489 13.3177 26.8941 14.934 20.2353 14.934C18.8776 14.934 17.5846 14.8693 16.2916 14.74L17.0028 14.2229L15.7098 11.7661L13.5764 12.4773C13.1885 12.0248 12.7359 11.7015 12.2187 11.3783L12.542 9.18017L9.89135 8.40442L8.92161 10.4085V4.91333C10.6671 6.46492 15.5805 7.30537 20.2353 7.30537C24.89 7.30537 29.8034 6.46492 31.5489 4.91333V11.8955Z" fill="currentColor"/>
<path d="M27.8637 8.85742C27.2818 8.85742 26.7646 9.30998 26.7646 9.95647C26.7646 10.603 27.2172 11.0555 27.8637 11.0555C28.4455 11.0555 28.9627 10.603 28.9627 9.95647C28.9627 9.30998 28.4455 8.85742 27.8637 8.85742Z" fill="currentColor"/>
<path d="M27.8637 19.5887C28.4455 19.5887 28.9627 19.1362 28.9627 18.4897C28.9627 17.8432 28.5102 17.3906 27.8637 17.3906C27.2818 17.3906 26.7646 17.8432 26.7646 18.4897C26.7646 19.1362 27.2818 19.5887 27.8637 19.5887Z" fill="currentColor"/>
<path d="M27.8637 25.8594C27.2818 25.8594 26.7646 26.3119 26.7646 26.9584C26.7646 27.5402 27.2172 28.0574 27.8637 28.0574C28.4455 28.0574 28.9627 27.6049 28.9627 26.9584C28.8981 26.3765 28.4455 25.8594 27.8637 25.8594Z" fill="currentColor"/>
</svg>
