<svg width="34" height="34" viewBox="0 0 34 34" fill="none" xmlns="http://www.w3.org/2000/svg">
<path d="M0 0V10.2208H33.3V0H0ZM32.6406 9.56139H0.659406V0.659406H32.6406V9.56139Z" fill="currentColor"/>
<path d="M30.0687 3.23047H10.4844V6.98909H30.1347V3.23047H30.0687ZM29.4093 6.32968H11.1438V3.88987H29.4753V6.32968H29.4093Z" fill="currentColor"/>
<path d="M5.07731 7.05504C6.13236 7.05504 6.98959 6.19781 6.98959 5.14276C6.98959 4.08771 6.13236 3.23047 5.07731 3.23047C4.02227 3.23047 3.16504 4.08771 3.16504 5.14276C3.16504 6.19781 4.02227 7.05504 5.07731 7.05504ZM5.07731 3.82395C5.80266 3.82395 6.33019 4.41741 6.33019 5.07682C6.33019 5.73622 5.73672 6.32969 5.07731 6.32969C4.35197 6.32969 3.82444 5.73622 3.82444 5.07682C3.82444 4.41741 4.41791 3.82395 5.07731 3.82395Z" fill="currentColor"/>
<path d="M0 33.3009H33.3V23.0801H0V33.3009ZM0.659406 23.7395H32.6406V32.6415H0.659406V23.7395Z" fill="currentColor"/>
<path d="M10.4844 30.0692H30.1347V26.3105H10.4844V30.0692ZM11.1438 26.97H29.4753V29.4098H11.1438V26.97Z" fill="currentColor"/>
<path d="M5.07731 26.2441C4.02227 26.2441 3.16504 27.1014 3.16504 28.1564C3.16504 29.2115 4.02227 30.0687 5.07731 30.0687C6.13236 30.0687 6.98959 29.2115 6.98959 28.1564C6.98959 27.1014 6.13236 26.2441 5.07731 26.2441ZM5.07731 29.4093C4.35197 29.4093 3.82444 28.8158 3.82444 28.1564C3.82444 27.4311 4.41791 26.9035 5.07731 26.9035C5.80266 26.9035 6.33019 27.497 6.33019 28.1564C6.33019 28.8818 5.80266 29.4093 5.07731 29.4093Z" fill="currentColor"/>
<path d="M0 21.7599H33.3V11.5391H0V21.7599ZM0.659406 12.1985H32.6406V21.1004H0.659406V12.1985Z" fill="currentColor"/>
<path d="M10.4844 18.5301H30.1347V14.7715H10.4844V18.5301ZM11.1438 15.4309H29.4753V17.8707H11.1438V15.4309Z" fill="currentColor"/>
<path d="M5.07731 14.7051C4.02227 14.7051 3.16504 15.5623 3.16504 16.6174C3.16504 17.6724 4.02227 18.5296 5.07731 18.5296C6.13236 18.5296 6.98959 17.6724 6.98959 16.6174C6.98959 15.5623 6.13236 14.7051 5.07731 14.7051ZM5.07731 17.9362C4.35197 17.9362 3.82444 17.3427 3.82444 16.6833C3.82444 16.0239 4.41791 15.4304 5.07731 15.4304C5.80266 15.4304 6.33019 16.0239 6.33019 16.6833C6.33019 17.3427 5.80266 17.9362 5.07731 17.9362Z" fill="currentColor"/>
</svg>
