<svg width="35" height="29" viewBox="0 0 35 29" fill="none" xmlns="http://www.w3.org/2000/svg">
<path d="M29.521 11.2435C29.2476 11.2435 28.9743 11.2435 28.7009 11.3121C28.4959 8.36407 26.0358 6.03309 23.0291 6.03309C22.9607 6.03309 22.8924 6.03309 22.8241 6.03309C22.0041 2.53664 18.8606 0 15.2388 0C11.9587 0 9.08863 2.05674 7.92693 5.14185C7.85859 5.14185 7.8586 5.14185 7.79026 5.14185C3.48512 5.14185 0 8.6383 0 12.9574C0 17.2766 3.48512 20.773 7.79026 20.773H12.3004L9.56698 23.1726H13.3938V29H20.9107V23.1726H24.7375L22.004 20.773H29.521C32.1177 20.773 34.2361 18.6478 34.2361 16.0426C34.2361 13.3688 32.1177 11.2435 29.521 11.2435ZM20.2273 22.487V28.3144H14.0771V22.487H11.412L17.1522 17.4823L22.8924 22.487H20.2273ZM29.521 20.0189H21.2524L17.2206 16.5224L13.1888 20.0189H7.92693C4.0318 20.0189 0.820025 16.8652 0.820025 12.8889C0.820025 8.98108 3.96347 5.75886 7.92693 5.75886C8.0636 5.75886 8.13194 5.75886 8.26861 5.75886H8.54195L8.61028 5.48464C9.56698 2.53664 12.2321 0.617017 15.3072 0.617017C18.724 0.617017 21.594 3.01654 22.2774 6.37588L22.3457 6.65011H22.6874C22.8241 6.65011 22.9608 6.65011 23.0974 6.65011C25.8308 6.65011 28.0859 8.91253 28.0859 11.6549V12.0662L28.4959 11.9291C28.8376 11.8605 29.1793 11.792 29.521 11.792C31.776 11.792 33.5528 13.643 33.5528 15.8369C33.5528 18.2364 31.7077 20.0189 29.521 20.0189Z" fill="currentColor"/>
</svg>
