<svg width="32" height="41" viewBox="0 0 32 41" fill="none" xmlns="http://www.w3.org/2000/svg">
<path d="M30.4024 0H1.5612C0.657344 0 0 0.739488 0 1.56118V39.3588C0 40.2626 0.739513 40.92 1.5612 40.92H30.4024C31.3063 40.92 31.9636 40.1805 31.9636 39.3588V1.56118C31.9636 0.657319 31.3063 0 30.4024 0ZM31.1419 39.3588C31.1419 39.7696 30.8133 40.0983 30.4024 40.0983H1.5612C1.15036 40.0983 0.821687 39.7696 0.821687 39.3588V1.56118C0.821687 1.15033 1.15036 0.821687 1.5612 0.821687H30.4024C30.8133 0.821687 31.1419 1.15033 31.1419 1.56118V39.3588Z" fill="currentColor"/>
<path d="M1.97266 35.9904H30.0744V2.05469H1.97266V35.9904ZM2.79434 2.87637H29.2527V35.1687H2.79434V2.87637Z" fill="currentColor"/>
<path d="M16.5159 36.7285C15.7763 36.7285 15.2012 37.3037 15.2012 38.0432C15.2012 38.7827 15.7763 39.3579 16.5159 39.3579C17.2554 39.3579 17.8306 38.7827 17.8306 38.0432C17.8306 37.3037 17.2554 36.7285 16.5159 36.7285Z" fill="currentColor"/>
</svg>
