<svg width="35" height="39" viewBox="0 0 35 39" fill="none" xmlns="http://www.w3.org/2000/svg">
<path d="M33.525 21.7275C32.978 21.7275 32.5872 22.0401 32.4309 22.509H18.2082V18.3667H26.0229C26.1792 18.8357 26.6481 19.1483 27.117 19.1483C27.7421 19.1483 28.2892 18.6012 28.2892 17.9759C28.2892 17.3507 27.7421 16.8036 27.117 16.8036C26.5699 16.8036 26.1792 17.1162 26.0229 17.5852H18.2082V13.7555H30.868L30.9462 11.5672C31.4932 11.489 31.8839 10.9419 31.8839 10.3948C31.8839 9.76957 31.3369 9.22248 30.7117 9.22248C30.0866 9.22248 29.5395 9.76957 29.5395 10.3948C29.5395 10.8638 29.774 11.2545 30.1647 11.4108V12.974H18.2082V8.8317H22.4282V4.06414C22.897 3.90782 23.2096 3.43891 23.2096 2.96998C23.2096 2.34473 22.6626 1.79763 22.0374 1.79763C21.4122 1.79763 20.8652 2.34473 20.8652 2.96998C20.8652 3.51707 21.1778 3.90782 21.6467 4.06414V8.05013H18.2082V4.22046C18.2082 1.87577 16.3327 0 13.9883 0C13.832 0 13.6757 0 13.5976 0C13.5194 0 13.5194 0 13.4413 0C13.3631 0 13.3631 0 13.285 0C13.1287 0 12.9724 0.0781849 12.8161 0.0781849C12.7379 0.0781849 12.5816 0.156322 12.5035 0.156322C12.4254 0.156322 12.3472 0.234488 12.1909 0.312644C12.0346 0.3908 11.8783 0.468947 11.722 0.547103C11.6439 0.62526 11.5657 0.625269 11.4876 0.703426C11.3313 0.781582 11.2531 0.937913 11.0969 1.01607C11.0187 1.09423 10.9406 1.17237 10.8624 1.25053C10.7843 1.32869 10.7061 1.40683 10.628 1.48499C10.5498 1.56314 10.4717 1.71946 10.3935 1.87577C10.3154 1.95393 10.3154 2.03207 10.2372 2.11023C10.1591 2.26654 10.0809 2.42288 10.0028 2.5792C10.0028 2.65735 9.92465 2.7355 9.92465 2.81365C9.8465 2.96997 9.84651 3.12626 9.76836 3.28257C9.76836 3.36073 9.76836 3.4389 9.69021 3.59522C9.69021 3.75153 9.69022 3.90782 9.61207 4.06414C9.61207 4.14229 9.61207 4.1423 9.61207 4.22046C9.61207 4.37677 9.61207 4.45493 9.61207 4.61124V4.68938V4.76756C9.06504 4.84572 8.51801 4.92387 7.97098 5.15834C7.89283 5.15834 7.81468 5.23648 7.73654 5.23648C7.58024 5.31464 7.42396 5.31465 7.26766 5.3928C7.26766 5.3928 7.26766 5.3928 7.18951 5.3928C4.53252 6.56515 2.73514 9.22248 2.73514 12.3487C2.73514 13.0521 2.81329 13.6774 2.96958 14.3808C1.09406 16.1002 0 18.523 0 21.1022C0 23.8377 1.25035 26.4168 3.36032 28.1363C3.28217 28.4489 3.20402 28.6834 3.20402 28.996C3.20402 29.1523 3.12588 29.3086 3.12588 29.4649C3.12588 29.5431 3.12588 29.6212 3.12588 29.6212C3.12588 32.4349 5.15769 34.7796 7.89283 35.3266C8.518 37.515 10.4717 39 12.8161 39C15.4731 39 17.6612 36.9679 17.8956 34.3888C17.8956 34.3106 17.8956 34.3106 17.8956 34.2325C17.8956 34.1543 17.8956 33.998 17.8956 33.9198V32.1223H22.7407V34.9359C22.2719 35.0922 21.9593 35.5611 21.9593 36.0301C21.9593 36.6553 22.5063 37.2024 23.1315 37.2024C23.7566 37.2024 24.3037 36.6553 24.3037 36.0301C24.3037 35.483 23.9911 35.0922 23.5222 34.9359V31.3407H17.8956V27.2766H27.117V29.5431C26.6481 29.6994 26.3355 30.1683 26.3355 30.6373C26.3355 31.2625 26.8825 31.8096 27.5077 31.8096C28.1329 31.8096 28.6799 31.2625 28.6799 30.6373C28.6799 30.0902 28.3673 29.6994 27.8984 29.5431V26.495H17.8956V23.3687H32.1184C32.2747 23.8377 32.7435 24.1503 33.2124 24.1503C33.8376 24.1503 34.3846 23.6032 34.3846 22.978C34.3846 22.3527 34.1502 21.7275 33.525 21.7275ZM8.90874 34.8577L8.8306 34.6233H8.59616C6.09546 34.3106 4.29808 32.2004 4.29808 29.6994C4.29808 29.4649 4.29807 29.2305 4.37622 28.996C4.45437 28.6052 4.68881 28.2144 5.0014 27.8237C5.47028 27.3547 6.01731 27.1202 6.64248 27.1202C7.26766 27.1202 7.81468 27.3547 8.28356 27.7455C8.75244 28.2144 8.98689 28.7615 8.98689 29.3868H9.76836C9.76836 28.5271 9.45578 27.8237 8.8306 27.1984C8.20543 26.5732 7.5021 26.3387 6.64248 26.3387C5.78287 26.3387 5.07955 26.6513 4.45437 27.2766C4.37622 27.3547 4.37623 27.4329 4.29808 27.511C2.34441 25.9479 1.1722 23.6032 1.1722 21.1022C1.1722 18.8357 2.10997 16.7255 3.75105 15.1623C4.21993 16.4128 5.07955 17.507 6.09546 18.3667C5.07955 18.7575 4.29808 19.7736 4.29808 20.9459C4.29808 22.509 5.54843 23.6814 7.03322 23.6814V22.8998C5.93916 22.8998 5.07955 22.0401 5.07955 20.9459C5.07955 19.8517 5.93916 18.992 6.95507 18.992C8.04912 19.6173 9.22133 20.008 10.5498 20.008V19.2265C7.5021 19.1483 4.84511 17.0381 4.14179 13.99C3.98549 13.2084 3.90734 12.505 3.98548 11.8016C4.21992 11.0201 5.0014 10.5511 5.78286 10.5511C6.87692 10.5511 7.73654 11.4108 7.73654 12.505H8.51801C8.51801 11.02 7.26765 9.76953 5.78286 9.76953C5.23584 9.76953 4.76696 9.92588 4.29808 10.2385C4.76696 8.83169 5.78286 7.58119 7.11136 6.72147C7.18951 6.64331 7.26766 6.56515 7.42395 6.56515H7.50209C8.28356 6.17436 9.14318 5.86174 10.0809 5.78358C10.3154 6.40883 10.628 6.95591 11.175 7.42485C10.9406 7.89378 10.7843 8.36274 10.7843 8.90983C10.7843 9.76955 11.0969 10.5511 11.722 11.0982L12.2691 10.5511C11.8002 10.0822 11.5657 9.53508 11.5657 8.90983C11.5657 8.28458 11.8002 7.65935 12.2691 7.26857C13.1287 6.40885 14.6916 6.40885 15.5512 7.26857L16.0982 6.72147C14.926 5.54912 12.8161 5.54912 11.6439 6.72147L11.5657 6.79961C11.175 6.33067 10.8624 5.86173 10.7061 5.23648C10.7061 5.15832 10.7061 5.15831 10.7061 5.08016V5.00202C10.7061 4.84571 10.628 4.61123 10.628 4.45492C10.628 3.98598 10.7061 3.51703 10.8624 3.12625C10.9406 2.96994 11.0187 2.73551 11.175 2.5792C11.175 2.5792 11.175 2.57917 11.175 2.50101C11.2532 2.3447 11.4094 2.1884 11.5657 2.03209C11.5657 2.03209 11.6439 2.03206 11.6439 1.95391C11.8002 1.79759 11.9565 1.71944 12.1128 1.56313C12.1128 1.56313 12.1909 1.56314 12.1909 1.48499C12.3472 1.40683 12.5035 1.32869 12.6598 1.25053C12.6598 1.25053 12.7379 1.2505 12.7379 1.17234C12.8942 1.09419 13.0505 1.01607 13.285 1.01607C13.3631 1.01607 13.3631 1.01607 13.4413 1.01607C13.6757 0.937913 13.832 0.937885 14.0664 0.937885C15.942 0.937885 17.5049 2.50103 17.5049 4.37678V15.5531C17.5049 16.8818 16.4108 17.9759 15.0824 17.9759C13.7539 17.9759 12.6598 16.8818 12.6598 15.5531H11.8783C11.8783 17.2726 13.285 18.7575 15.0824 18.7575C16.0201 18.7575 16.8797 18.2886 17.5049 17.6633V31.1844C17.036 30.4028 16.3327 29.7775 15.4731 29.3086C15.4731 29.2304 15.4731 29.1523 15.4731 29.0741C15.4731 27.0421 13.832 25.479 11.8783 25.479V26.2605C13.4413 26.2605 14.6916 27.511 14.6916 29.0741C14.6916 30.6373 13.4413 31.8878 11.8783 31.8878V32.6694C13.5194 32.6694 14.926 31.5751 15.3168 30.0902C16.6453 30.8717 17.5049 32.2786 17.5049 33.8417C17.5049 36.1082 15.7075 37.984 13.4413 38.1403C13.3631 38.1403 13.285 38.1403 13.2068 38.1403C11.0969 38.2185 9.29947 36.8898 8.90874 34.8577Z" fill="currentColor"/>
</svg>
