<svg width="37" height="35" viewBox="0 0 37 35" fill="none" xmlns="http://www.w3.org/2000/svg">
<path d="M6.40555 8.49329C9.57253 5.61422 13.7472 4.03072 17.9938 4.03072C22.3124 4.03072 26.4151 5.61422 29.5821 8.49329L29.87 8.70921L32.6771 5.9021L32.3892 5.61422C28.4304 1.94341 23.3201 0 17.9938 0C12.5956 0 7.48521 2.01538 3.59846 5.61422L3.31055 5.9021L6.11765 8.70921L6.40555 8.49329ZM18.0658 0.647808C23.1042 0.647808 27.9266 2.51921 31.7414 5.83014L29.9419 7.62956C26.631 4.75049 22.4564 3.16699 18.0658 3.16699C13.6752 3.16699 9.50055 4.75049 6.18962 7.62956L4.3902 5.83014C8.13299 2.51921 12.9554 0.647808 18.0658 0.647808Z" fill="currentColor"/>
<path d="M26.6323 12.0206L28.8635 9.78931L28.5756 9.50138C25.6966 6.91022 21.9538 5.4707 18.067 5.4707C14.1803 5.4707 10.4375 6.91022 7.55842 9.50138L7.27051 9.78931L9.50179 12.0206L9.78969 11.8046C12.093 9.7893 15.044 8.63765 18.139 8.63765C21.234 8.63765 24.185 9.7893 26.4883 11.8046L26.6323 12.0206ZM9.50179 11.0129L8.27819 9.78931C11.0133 7.48605 14.4682 6.19047 17.9951 6.19047C21.5219 6.19047 25.0488 7.48605 27.7119 9.78931L26.4883 11.0129C24.1131 8.99757 21.09 7.91789 17.9231 7.91789C14.9 7.91789 11.877 8.99757 9.50179 11.0129Z" fill="currentColor"/>
<path d="M10.869 13.171L10.5811 13.4588L12.3085 15.1863L12.5964 14.9704C14.1079 13.6748 16.1233 12.955 18.1386 12.955C20.154 12.955 22.0973 13.6748 23.6808 14.9704L23.9687 15.1863L25.6962 13.4588L25.4083 13.171C23.3929 11.4435 20.8737 10.5078 18.2106 10.5078C15.4035 10.5078 12.8123 11.4435 10.869 13.171ZM23.7528 14.1786C22.0973 12.883 20.082 12.2352 17.9947 12.2352C15.9073 12.2352 13.892 12.955 12.2365 14.1786L11.5887 13.5308C13.3881 12.0913 15.6914 11.2995 17.9947 11.2995C20.2979 11.2995 22.6012 12.0913 24.4006 13.5308L23.7528 14.1786Z" fill="currentColor"/>
<path d="M18.426 22.6002V17.202C18.9299 17.058 19.2178 16.6262 19.2178 16.1223C19.2178 15.4745 18.714 14.9707 18.0662 14.9707C17.4184 14.9707 16.9145 15.4745 16.9145 16.1223C16.9145 16.6262 17.2744 17.058 17.7063 17.202V22.6002H0V32.605H1.65547V34.4764H4.24663V32.605H31.9577V34.4764H34.5488V32.605H36.2043V22.6002H18.426ZM3.45488 33.7566H2.30326V32.605H3.45488V33.7566ZM33.7571 33.7566H32.6055V32.605H33.7571V33.7566ZM35.3406 31.8852H0.719767V23.32H35.3406V31.8852Z" fill="currentColor"/>
<path d="M26.7751 28.9349C27.4948 28.9349 28.0707 28.3591 28.0707 27.6393C28.0707 26.9196 27.4948 26.3438 26.7751 26.3438C26.0553 26.3438 25.4795 26.9196 25.4795 27.6393C25.4795 28.3591 26.0553 28.9349 26.7751 28.9349Z" fill="currentColor"/>
<path d="M31.4538 28.9349C32.1736 28.9349 32.7494 28.3591 32.7494 27.6393C32.7494 26.9196 32.1736 26.3438 31.4538 26.3438C30.734 26.3438 30.1582 26.9196 30.1582 27.6393C30.1582 28.3591 30.734 28.9349 31.4538 28.9349Z" fill="currentColor"/>
</svg>
