<svg width="35" height="40" viewBox="0 0 35 40" fill="none" xmlns="http://www.w3.org/2000/svg">
<path d="M30.8477 23.3702H3.42773V4.98633H30.8477V10.2834H30.0688V5.76531H4.20671V22.5912H30.0688V16.5152H30.8477V23.3702Z" fill="currentColor"/>
<path d="M6.07549 5.76445L5.8418 5.06335L23.213 0V2.57066H22.434V1.01271L6.07549 5.76445Z" fill="currentColor"/>
<path d="M12.4642 5.76445L12.2305 5.06335L29.6016 0V5.21916H28.8227V1.01271L12.4642 5.76445Z" fill="currentColor"/>
<path d="M31.938 16.9045H24.0703V10.2832H31.938V16.9045ZM24.8493 16.1255H31.159V11.0622H24.8493V16.1255Z" fill="currentColor"/>
<path d="M26.1732 14.0222C26.4744 14.0222 26.7185 13.7781 26.7185 13.4769C26.7185 13.1758 26.4744 12.9316 26.1732 12.9316C25.8721 12.9316 25.6279 13.1758 25.6279 13.4769C25.6279 13.7781 25.8721 14.0222 26.1732 14.0222Z" fill="currentColor"/>
<path d="M33.2623 27.8088H27.4199V23.2129H28.1989V27.0299H33.2623V27.8088Z" fill="currentColor"/>
<path d="M19.0075 23.2129H18.2285V31.8595H19.0075V23.2129Z" fill="currentColor"/>
<path d="M5.68636 29.1331H1.94727V28.3541H4.90738V23.2129H5.68636V29.1331Z" fill="currentColor"/>
<path d="M1.16847 29.9112C1.81379 29.9112 2.33693 29.388 2.33693 28.7427C2.33693 28.0974 1.81379 27.5742 1.16847 27.5742C0.52314 27.5742 0 28.0974 0 28.7427C0 29.388 0.52314 29.9112 1.16847 29.9112Z" fill="currentColor"/>
<path d="M26.7187 36.066L22.668 35.9881V23.2129H23.4469V35.2091L26.7187 35.287V36.066Z" fill="currentColor"/>
<path d="M25.94 36.9229C26.5853 36.9229 27.1084 36.3997 27.1084 35.7544C27.1084 35.1091 26.5853 34.5859 25.94 34.5859C25.2946 34.5859 24.7715 35.1091 24.7715 35.7544C24.7715 36.3997 25.2946 36.9229 25.94 36.9229Z" fill="currentColor"/>
<path d="M14.2546 23.2129H13.4756V38.1692H14.2546V23.2129Z" fill="currentColor"/>
<path d="M13.8657 39.6494C14.5111 39.6494 15.0342 39.1263 15.0342 38.481C15.0342 37.8356 14.5111 37.3125 13.8657 37.3125C13.2204 37.3125 12.6973 37.8356 12.6973 38.481C12.6973 39.1263 13.2204 39.6494 13.8657 39.6494Z" fill="currentColor"/>
<path d="M10.4367 33.3396H6.15234V32.5606H9.65774V23.2129H10.4367V33.3396Z" fill="currentColor"/>
<path d="M6.38624 34.1182C7.03157 34.1182 7.55471 33.595 7.55471 32.9497C7.55471 32.3044 7.03157 31.7812 6.38624 31.7812C5.74091 31.7812 5.21777 32.3044 5.21777 32.9497C5.21777 33.595 5.74091 34.1182 6.38624 34.1182Z" fill="currentColor"/>
<path d="M18.5396 33.4951C19.1849 33.4951 19.708 32.972 19.708 32.3267C19.708 31.6813 19.1849 31.1582 18.5396 31.1582C17.8942 31.1582 17.3711 31.6813 17.3711 32.3267C17.3711 32.972 17.8942 33.4951 18.5396 33.4951Z" fill="currentColor"/>
<path d="M33.106 28.5869C33.7513 28.5869 34.2744 28.0638 34.2744 27.4185C34.2744 26.7731 33.7513 26.25 33.106 26.25C32.4606 26.25 31.9375 26.7731 31.9375 27.4185C31.9375 28.0638 32.4606 28.5869 33.106 28.5869Z" fill="currentColor"/>
</svg>
