<svg width="17" height="34" viewBox="0 0 17 34" fill="none" xmlns="http://www.w3.org/2000/svg">
<path d="M9.39823 5.41834H14.1988C15.4158 5.41834 16.43 4.19921 16.43 2.70917C16.43 1.21913 15.4158 0 14.1988 0H7.50505V0.677293H14.1988C15.0777 0.677293 15.7539 1.55777 15.7539 2.70917C15.7539 3.86057 15.0101 4.74105 14.1988 4.74105H9.39823C8.18119 4.74105 7.16698 5.96018 7.16698 7.45022V8.12751C3.1778 8.19524 0 11.4462 0 15.4423V26.3467C0 30.3427 3.24543 33.6615 7.30222 33.6615H7.77552C11.7647 33.6615 15.0777 30.4105 15.0777 26.3467V15.4423C15.0777 11.4462 11.8999 8.19524 7.91073 8.12751V7.45022C7.77551 6.29882 8.51926 5.41834 9.39823 5.41834ZM7.50505 13.6813C7.03176 13.6813 6.76132 13.3427 6.76132 13.004V10.769C6.76132 10.3626 7.09937 10.0917 7.50505 10.0917C7.91073 10.0917 8.18118 10.4303 8.18118 10.769V13.004C8.18118 13.4104 7.84311 13.6813 7.50505 13.6813ZM7.09939 8.8048V9.4821C6.49087 9.61756 6.01757 10.1594 6.01757 10.8367V13.0717C6.01757 13.749 6.49087 14.2231 7.09939 14.4263V15.3746H0.608515C0.676128 11.7172 3.5835 8.87253 7.09939 8.8048ZM7.7079 32.9842H7.2346C3.58349 32.9842 0.608515 30.0041 0.608515 26.3467V15.9841H14.2664V26.3467C14.2664 30.0041 11.2914 32.9842 7.7079 32.9842ZM14.2664 15.3068H7.77552V14.3586C8.38404 14.2232 8.85731 13.6813 8.85731 13.004V10.769C8.85731 10.1594 8.45165 9.61756 7.77552 9.4821V8.8048C11.359 8.87253 14.1988 11.7172 14.2664 15.3068Z" fill="currentColor"/>
</svg>
