<svg width="28" height="35" viewBox="0 0 28 35" fill="none" xmlns="http://www.w3.org/2000/svg">
<path d="M23.1492 15.0231V0H3.89236V15.0231H0V31.4802H1.91202V34.28H25.1978V31.4802H27.1099V15.0231H23.1492ZM4.57523 0.682868H22.4664V15.0231H4.57523V0.682868ZM26.3587 30.8657H24.4467V33.6654H2.52662V30.8657H0.682868V15.7743H3.89236H23.1492H26.3587V30.8657Z" fill="currentColor"/>
<path d="M6.55494 1.29688H5.87207V5.66723H6.55494V1.29688Z" fill="currentColor"/>
<path d="M8.60377 1.29688H7.9209V5.66723H8.60377V1.29688Z" fill="currentColor"/>
<path d="M10.721 1.29688H10.0381V5.66723H10.721V1.29688Z" fill="currentColor"/>
<path d="M12.8381 1.29688H12.1553V5.66723H12.8381V1.29688Z" fill="currentColor"/>
<path d="M14.886 1.29688H14.2031V5.66723H14.886V1.29688Z" fill="currentColor"/>
<path d="M17.0032 1.29688H16.3203V5.66723H17.0032V1.29688Z" fill="currentColor"/>
<path d="M19.1204 1.29688H18.4375V5.66723H19.1204V1.29688Z" fill="currentColor"/>
<path d="M21.1692 1.29688H20.4863V5.66723H21.1692V1.29688Z" fill="currentColor"/>
</svg>
