<svg width="32" height="32" viewBox="0 0 32 32" fill="none" xmlns="http://www.w3.org/2000/svg">
<path d="M16.5079 13.0612V11.9728C16.5079 10.2313 17.2063 8.70748 17.9682 8.70748H22.4762C23.619 8.70748 24.5714 6.74829 24.5714 4.35374C24.5714 1.95918 23.619 0 22.4762 0H16.1905V1.08843H22.4762C23.3016 1.08843 23.9365 2.5034 23.9365 4.35374C23.9365 6.20408 23.2381 7.61904 22.4762 7.61904H17.9682C16.8254 7.61904 15.873 9.57822 15.873 11.9728V13.0612H0V32H32V13.0612H16.5079ZM31.3016 30.9116H0.571425V14.1496H31.3016V30.9116Z" fill="currentColor"/>
<path d="M5.84375 29.9313H26.0977V25.4688H5.84375V29.9313ZM6.47867 26.666H25.4628V28.9518H6.47867V26.666Z" />
<path d="M26.3438 29.9313H30.9787V25.4688H26.3438V29.9313ZM26.9787 26.666H30.3437V28.9518H26.9787V26.666Z" fill="currentColor"/>
<path d="M5.58804 25.5781H0.953125V30.0407H5.58804V25.5781ZM4.95312 28.8434H1.58805V26.5577H4.95312V28.8434Z" fill="currentColor"/>
<path d="M5.9055 14.9121H0.953125V19.3747H5.9055V14.9121ZM5.27058 18.2863H1.58805V16.0005H5.27058V18.2863Z" fill="currentColor"/>
<path d="M5.9055 20.3535H0.953125V24.8161H5.9055V20.3535ZM5.27058 23.6188H1.58805V21.3331H5.27058V23.6188Z" fill="currentColor"/>
<path d="M12.1867 14.9121H7.23438V19.3747H12.1867V14.9121ZM11.5518 18.2863H7.8693V16.0005H11.5518V18.2863Z" fill="currentColor"/>
<path d="M12.1867 20.3535H7.23438V24.8161H12.1867V20.3535ZM11.5518 23.6188H7.8693V21.3331H11.5518V23.6188Z" fill="currentColor"/>
<path d="M18.4836 14.9121H13.5312V19.3747H18.4836V14.9121ZM17.8487 18.2863H14.1662V16.0005H17.8487V18.2863Z" fill="currentColor"/>
<path d="M18.4836 20.3535H13.5312V24.8161H18.4836V20.3535ZM17.8487 23.6188H14.1662V21.3331H17.8487V23.6188Z" fill="currentColor"/>
<path d="M24.7024 14.9121H19.75V19.3747H24.7024V14.9121ZM24.0675 18.2863H20.3849V16.0005H24.0675V18.2863Z" fill="currentColor"/>
<path d="M24.7024 20.3535H19.75V24.8161H24.7024V20.3535ZM24.0675 23.6188H20.3849V21.3331H24.0675V23.6188Z" fill="currentColor"/>
<path d="M30.9836 14.9121H26.0312V19.3747H30.9836V14.9121ZM30.3487 18.2863H26.6662V16.0005H30.3487V18.2863Z" fill="currentColor"/>
<path d="M30.9836 20.3535H26.0312V24.8161H30.9836V20.3535ZM30.3487 23.6188H26.6662V21.3331H30.3487V23.6188Z" fill="currentColor"/>
</svg>
