<svg width="38" height="34" viewBox="0 0 38 34" fill="none" xmlns="http://www.w3.org/2000/svg">
<path d="M32.0973 12.1851C31.8001 12.1851 31.5029 12.1851 31.2057 12.2594C30.9085 8.99021 28.1594 6.46403 24.816 6.53833C23.9244 2.74906 20.5066 0 16.5687 0C13.0024 0 9.8818 2.22898 8.61872 5.57245C8.54442 5.57245 8.54442 5.57245 8.47012 5.57245C3.78926 5.57245 0 9.36168 0 14.0425C0 14.7855 0.074299 15.4542 0.297197 16.1972H0V18.9463V19.6893V33.6576H26.6734V22.5127H32.023C34.8464 22.5127 37.1496 20.2094 37.1496 17.386C37.2239 14.4883 34.9207 12.1851 32.0973 12.1851ZM0.742993 16.9402H25.9304V18.9463H0.742993V16.9402ZM25.9304 32.8403H0.742993V19.615H25.9304V32.8403ZM32.0973 21.7697H26.7477V19.6893V18.9463V16.1972H1.18879C0.965891 15.5285 0.891592 14.7855 0.891592 14.0425C0.891592 9.80748 4.30936 6.31544 8.61872 6.31544C8.76731 6.31544 8.84161 6.31544 8.99021 6.31544H9.28741L9.36171 6.01822C10.4019 2.82335 13.2996 0.742993 16.643 0.742993C20.358 0.742993 23.4786 3.34344 24.2216 6.9841L24.2959 7.28132H24.6674C24.816 7.28132 24.9646 7.28132 25.1132 7.28132C28.0851 7.28132 30.537 9.73319 30.537 12.7052V13.151L30.9828 13.0024C31.3543 12.9281 31.7258 12.8538 32.0973 12.8538C34.5492 12.8538 36.4809 14.8599 36.4809 17.2374C36.4809 19.7636 34.4749 21.7697 32.0973 21.7697Z" fill="currentColor"/>
<path d="M1.93204 18.2781C2.13722 18.2781 2.30354 18.1118 2.30354 17.9067C2.30354 17.7015 2.13722 17.5352 1.93204 17.5352C1.72687 17.5352 1.56055 17.7015 1.56055 17.9067C1.56055 18.1118 1.72687 18.2781 1.93204 18.2781Z" fill="currentColor"/>
<path d="M3.41739 18.2781C3.62257 18.2781 3.78889 18.1118 3.78889 17.9067C3.78889 17.7015 3.62257 17.5352 3.41739 17.5352C3.21222 17.5352 3.0459 17.7015 3.0459 17.9067C3.0459 18.1118 3.21222 18.2781 3.41739 18.2781Z" fill="currentColor"/>
<path d="M4.90372 18.2781C5.10889 18.2781 5.27522 18.1118 5.27522 17.9067C5.27522 17.7015 5.10889 17.5352 4.90372 17.5352C4.69855 17.5352 4.53223 17.7015 4.53223 17.9067C4.53223 18.1118 4.69855 18.2781 4.90372 18.2781Z" fill="currentColor"/>
<path d="M19.6893 28.9022C19.6893 28.9022 19.7636 28.9022 19.6893 28.9022C20.4323 28.9022 21.101 28.605 21.6211 28.0849C22.1412 27.5648 22.3641 26.8961 22.3641 26.2274C22.3641 25.5587 22.0669 24.89 21.5468 24.3699C21.0267 23.8499 20.358 23.627 19.6893 23.627C18.2034 23.627 17.0889 24.89 17.0889 26.3017C17.0889 27.7134 18.2777 28.9022 19.6893 28.9022ZM19.6893 24.2957C20.7295 24.2957 21.6211 25.113 21.6211 26.1531C21.6211 26.6732 21.4725 27.119 21.101 27.4905C20.7295 27.862 20.2837 28.0849 19.7636 28.0849C19.2435 28.0849 18.7977 27.9363 18.4263 27.5648C18.0548 27.1933 17.8319 26.7475 17.8319 26.2274C17.7576 25.1872 18.6492 24.37 19.6893 24.2957Z" fill="currentColor"/>
<path d="M14.5625 25.2607V27.1925L15.7513 27.3411C15.8256 27.6383 15.9742 27.9354 16.1228 28.1583L15.4541 29.1243L16.7915 30.4616L17.7574 29.7186C18.0546 29.8672 18.3518 30.0158 18.649 30.0901L18.8719 31.2046H20.8036L20.9522 30.0158C21.2494 29.9415 21.5466 29.7929 21.8438 29.6443L22.8097 30.313L24.1471 28.9757L23.4041 28.0098C23.5527 27.7126 23.627 27.4154 23.7013 27.1182L24.8901 26.8953V24.9635L23.627 24.8149C23.5527 24.5177 23.4041 24.2948 23.2555 23.9976L23.9985 22.9574L22.6611 21.62L21.6209 22.4373C21.398 22.2887 21.1008 22.2144 20.8779 22.1401L20.655 20.8027H18.7233L18.5747 22.1401C18.3518 22.2144 18.0546 22.363 17.8317 22.4373L16.7172 21.6943L15.3798 23.0317L16.1228 24.0719C15.9742 24.2948 15.8999 24.592 15.8256 24.8892L14.5625 25.2607ZM16.3457 23.3289L16.7915 22.8831L17.7574 23.5518L17.9803 23.4032C18.2775 23.1803 18.649 23.0317 18.9462 22.9574L19.1691 22.8831L19.3177 21.7686H19.912L20.1349 22.9574L20.3578 23.0317C20.7293 23.106 21.0265 23.2546 21.3237 23.4032L21.5466 23.5518L22.5125 22.8088L22.9583 23.2546L22.2896 24.2205L22.4382 24.4434C22.6611 24.7406 22.8097 25.1121 22.884 25.4836L22.9583 25.7065L24.0728 25.8551V26.4495L22.9583 26.5981L22.884 26.821C22.8097 27.1925 22.6611 27.5639 22.4382 27.9354L22.2896 28.1583L22.9583 28.9757L22.5125 29.4214L21.6952 28.827L21.4723 28.9757C21.1008 29.1986 20.7293 29.3472 20.3578 29.4958L20.1349 29.57L19.9863 30.6102H19.392L19.2434 29.57L19.0205 29.4958C18.649 29.4215 18.2032 29.2728 17.906 29.0499L17.6831 28.9013L16.8658 29.57L16.42 29.1243L17.0144 28.2327L16.8658 28.0098C16.6429 27.6383 16.4943 27.3411 16.42 26.8953L16.3457 26.6723L15.2312 26.5238V25.9294L16.3457 25.7065L16.42 25.4836C16.4943 25.1121 16.6429 24.7406 16.8658 24.4434L17.0144 24.2205L16.3457 23.3289Z" fill="currentColor"/>
<path d="M12.0362 22.4375H2.08008V24.3693H12.0362V22.4375ZM11.2932 23.552H2.82307V23.1062H11.2932V23.552Z" fill="currentColor"/>
<path d="M12.0362 25.1875H2.08008V27.1193H12.0362V25.1875ZM11.2932 26.3763H2.82307V25.9305H11.2932V26.3763Z" fill="currentColor"/>
<path d="M12.0362 28.0117H2.08008V29.9435H12.0362V28.0117ZM11.2932 29.1262H2.82307V28.6804H11.2932V29.1262Z" fill="currentColor"/>
</svg>
