<svg width="31" height="31" viewBox="0 0 31 31" fill="none" xmlns="http://www.w3.org/2000/svg">
<path d="M15.14 30.28C6.81602 30.28 0 23.464 0 15.14C0 6.81602 6.81602 0 15.14 0C23.464 0 30.28 6.81602 30.28 15.14C30.28 23.464 23.464 30.28 15.14 30.28ZM15.14 0.603187C7.11761 0.603187 0.603188 7.11762 0.603188 15.14C0.603188 23.1624 7.11761 29.6768 15.14 29.6768C23.1624 29.6768 29.6768 23.1624 29.6768 15.14C29.6768 7.11762 23.1624 0.603187 15.14 0.603187Z" fill="currentColor"/>
<path d="M17.5528 15.1398C18.6989 14.7779 19.4227 13.9334 19.4227 12.5461C19.4227 10.7365 18.0353 9.71109 15.7432 9.65077V8.20312H14.8988V9.65077H13.3305V8.20312H12.486V9.65077H10.8574V20.9304H12.486V22.0161H13.3305V20.9304H14.9591V22.0161H15.7432V20.9304H15.8639C18.6385 20.9304 20.0259 19.8446 20.0259 17.9748C20.0259 16.4065 19.1211 15.4414 17.5528 15.1398ZM11.6416 10.3746H12.486H13.3305H14.9591H15.5623C15.6226 10.3746 15.7432 10.3746 15.8036 10.3746C17.6131 10.4349 18.6385 11.1587 18.6385 12.6064C18.6385 14.054 17.6131 14.7779 15.8036 14.8382C15.7432 14.8382 15.6226 14.8382 15.5623 14.8382H14.9591H13.3305H12.486H11.6416V10.3746ZM15.8639 20.2669H15.7432H14.8988H13.3305H12.486H11.6416V15.6223H12.486H13.3305H14.9591H15.7432H15.8639C18.0354 15.6223 19.1814 16.3461 19.1814 17.9144C19.1814 19.543 18.0354 20.2669 15.8639 20.2669Z" fill="currentColor"/>
</svg>
