<svg width="33" height="33" viewBox="0 0 33 33" fill="none" xmlns="http://www.w3.org/2000/svg">
<path d="M22.4438 10.1719H10.374V22.2417H22.4438V10.1719ZM21.7658 21.5636H11.0521V10.85H21.7658V21.5636Z" fill="currentColor"/>
<path d="M32.6156 7.9335V7.25542H26.4451V6.17051H25.3602V0H24.6821V6.17051H21.902V0H21.2239V6.17051H18.4438V0H17.7657V6.17051H14.9856V0H14.3075V6.17051H11.5274V0H10.8493V6.17051H8.13696V0H7.45888V6.17051H6.37395V7.25542H0V7.9335H6.30614V10.7137H0V11.3917H6.30614V14.1718H0V14.8499H6.30614V17.6301H0V18.3082H6.30614V21.0883H0V21.7663H6.30614V24.5465H0V25.2245H6.30614V26.3095H7.45888V32.48H8.13696V26.3095H10.9171V32.48H11.5952V26.3095H14.3753V32.48H15.0534V26.3095H17.8335V32.48H18.5116V26.3095H21.2917V32.48H21.9698V26.3095H24.7499V32.48H25.428V26.3095H26.4451V25.2245H32.6156V24.5465H26.4451V21.7663H32.6156V21.0883H26.4451V18.3082H32.6156V17.6301H26.4451V14.8499H32.6156V14.1718H26.4451V11.3917H32.6156V10.7137H26.4451V7.9335H32.6156ZM25.767 25.5636H6.98422V6.7808H25.767V25.5636Z" fill="currentColor"/>
</svg>
