<svg width="37" height="31" viewBox="0 0 37 31" fill="none" xmlns="http://www.w3.org/2000/svg">
<path d="M14.9516 12.9397L10.6384 11.2144L14.9516 9.56108V8.55469L9.48828 10.7113V11.7895L14.9516 13.9461V12.9397Z" fill="currentColor"/>
<path d="M20.5589 5.24805H19.4807L15.4551 16.7497H16.5334L20.5589 5.24805Z" fill="currentColor"/>
<path d="M26.3822 10.7113L20.9189 8.55469V9.56108L25.304 11.2144L20.9189 12.9397V13.9461L26.3822 11.7895V10.7113Z" fill="currentColor"/>
<path d="M35.9427 0H0V23.3628H12.0767L7.4042 30.12H28.6823L23.5784 23.3628H36.0146V0H35.9427ZM27.1727 29.4011H8.69814L12.8675 23.3628H22.572L27.1727 29.4011ZM35.2239 22.6439H23.0033H12.5799H0.790739V0.718854H35.2957V22.6439H35.2239Z" fill="currentColor"/>
</svg>
