<svg width="25" height="33" viewBox="0 0 25 33" fill="none" xmlns="http://www.w3.org/2000/svg">
<path d="M12.2293 0C6.27992 0 0 1.32209 0 3.76795V12.1632V12.2293V20.6246V20.6907V29.1521C0 31.5979 6.27992 32.92 12.2293 32.92C18.1787 32.92 24.4586 31.5979 24.4586 29.1521V20.6907V20.6246V12.2293V12.1632V3.76795C24.3925 1.32209 18.1126 0 12.2293 0ZM12.2293 0.661044C19.0381 0.661044 23.7976 2.31365 23.7976 3.76795C23.7976 5.22225 19.0381 6.87486 12.2293 6.87486C5.42057 6.87486 0.661045 5.22225 0.661045 3.76795C0.661045 2.31365 5.42057 0.661044 12.2293 0.661044ZM0.661045 13.4853C2.44586 15.0718 7.4698 15.9312 12.2293 15.9312C16.9888 15.9312 22.0128 15.0718 23.7976 13.4853V20.6246C23.7976 22.0789 19.0381 23.7315 12.2293 23.7315C5.42057 23.7315 0.661045 22.0789 0.661045 20.6246V13.4853ZM12.2293 32.259C5.42057 32.259 0.661045 30.6064 0.661045 29.1521V21.8806C2.44586 23.4671 7.4698 24.3264 12.2293 24.3264C16.9888 24.3264 22.0128 23.4671 23.7976 21.8806V29.1521C23.7315 30.6064 19.0381 32.259 12.2293 32.259ZM23.7315 12.2293C23.7315 13.6836 18.972 15.3362 12.1632 15.3362C5.35446 15.3362 0.594936 13.6836 0.594936 12.2293V12.1632V5.02393C2.37976 6.61044 7.4037 7.46979 12.1632 7.46979C16.9227 7.46979 21.9467 6.61044 23.7315 5.02393V12.2293Z" fill="currentColor"/>
<path d="M20.03 9.05664C19.4351 9.05664 18.9062 9.51937 18.9062 10.1804C18.9062 10.8415 19.369 11.3042 20.03 11.3042C20.625 11.3042 21.1538 10.8415 21.1538 10.1804C21.1538 9.51937 20.625 9.05664 20.03 9.05664Z" fill="currentColor"/>
<path d="M20.03 20.0288C20.625 20.0288 21.1538 19.5661 21.1538 18.905C21.1538 18.3101 20.6911 17.7812 20.03 17.7812C19.4351 17.7812 18.9062 18.244 18.9062 18.905C18.9062 19.5661 19.369 20.0288 20.03 20.0288Z" fill="currentColor"/>
<path d="M20.03 26.5078C19.4351 26.5078 18.9062 26.9705 18.9062 27.6316C18.9062 28.2926 19.369 28.7554 20.03 28.7554C20.625 28.7554 21.1538 28.2926 21.1538 27.6316C21.1538 26.9705 20.625 26.5078 20.03 26.5078Z" fill="currentColor"/>
</svg>
