<svg width="34" height="22" viewBox="0 0 34 22" fill="none" xmlns="http://www.w3.org/2000/svg">
<path d="M0 0V14.8611H2.67767V18.4759H5.82391V21.6891H27.4461V18.4759H30.5923V14.8611H33.27V0H0ZM32.7345 14.1916H30.0568V17.8065H26.9105V21.0197H6.62722V17.8065H3.48095V14.1916H0.803288V0.669417H32.7345V14.1916Z" fill="currentColor"/>
<path d="M6.62742 2.07617H5.95801V9.57365H6.62742V2.07617Z" fill="currentColor"/>
<path d="M9.57274 2.07617H8.90332V9.57365H9.57274V2.07617Z" fill="currentColor"/>
<path d="M12.5845 2.07617H11.915V9.57365H12.5845V2.07617Z" fill="currentColor"/>
<path d="M15.5307 2.07617H14.8613V9.57365H15.5307V2.07617Z" fill="currentColor"/>
<path d="M18.4761 2.07617H17.8066V9.57365H18.4761V2.07617Z" fill="currentColor"/>
<path d="M21.4878 2.07617H20.8184V9.57365H21.4878V2.07617Z" fill="currentColor"/>
<path d="M24.4331 2.07617H23.7637V9.57365H24.4331V2.07617Z" fill="currentColor"/>
<path d="M27.4448 2.07617H26.7754V9.57365H27.4448V2.07617Z" fill="currentColor"/>
</svg>
