<svg width="38" height="34" viewBox="0 0 38 34" fill="none" xmlns="http://www.w3.org/2000/svg">
<path d="M34.0009 1.79828V1.42383H3.59563V1.79828C3.59563 2.77185 2.77185 3.59565 1.79828 3.59565H1.42383V15.2785H1.79828C2.77185 15.2785 3.59563 16.1023 3.59563 17.0758V17.4503H34.0758V17.0009C34.0758 16.0274 34.8996 15.2785 35.8732 15.2785H36.2476V3.74544H35.8732C34.8247 3.59566 34.0009 2.77185 34.0009 1.79828ZM35.4238 14.3798C34.3005 14.5296 33.4018 15.4282 33.3269 16.6265H4.34453C4.19475 15.5031 3.29606 14.6793 2.2476 14.5296V4.34455C3.37095 4.19477 4.19475 3.2961 4.34453 2.24764H33.3269C33.4767 3.37099 34.3754 4.19477 35.4238 4.34455V14.3798Z" fill="currentColor"/>
<path d="M18.7968 6.06641C16.9246 6.06641 15.4268 7.56421 15.4268 9.43645C15.4268 11.3087 16.9246 12.8065 18.7968 12.8065C20.6691 12.8065 22.1669 11.3087 22.1669 9.43645C22.1669 7.56421 20.6691 6.06641 18.7968 6.06641ZM18.7968 11.9827C17.3739 11.9827 16.1757 10.8594 16.1757 9.36158C16.1757 7.86378 17.299 6.74043 18.7968 6.74043C20.2946 6.74043 21.418 7.86378 21.418 9.36158C21.418 10.8594 20.2197 11.9827 18.7968 11.9827Z" fill="currentColor"/>
<path d="M27.7092 7.56445C26.6607 7.56445 25.8369 8.38824 25.8369 9.4367C25.8369 10.4852 26.6607 11.309 27.7092 11.309C28.7576 11.309 29.5814 10.4852 29.5814 9.4367C29.5814 8.38824 28.7576 7.56445 27.7092 7.56445ZM27.7092 10.4852C27.11 10.4852 26.5858 9.96095 26.5858 9.36183C26.5858 8.76271 27.11 8.23848 27.7092 8.23848C28.3083 8.23848 28.8325 8.76271 28.8325 9.36183C28.8325 9.96095 28.3083 10.4852 27.7092 10.4852Z" fill="currentColor"/>
<path d="M9.88494 7.56445C8.83648 7.56445 8.0127 8.38824 8.0127 9.4367C8.0127 10.4852 8.83648 11.309 9.88494 11.309C10.9334 11.309 11.7572 10.4852 11.7572 9.4367C11.7572 8.38824 10.9334 7.56445 9.88494 7.56445ZM9.88494 10.4852C9.28582 10.4852 8.76159 9.96095 8.76159 9.36183C8.76159 8.76271 9.28582 8.23848 9.88494 8.23848C10.4841 8.23848 11.0083 8.76271 11.0083 9.36183C11.0083 9.96095 10.4841 10.4852 9.88494 10.4852Z" fill="currentColor"/>
<path d="M29.1322 18.8722H37.5947V0H0V18.8722H7.41412V23.5154H4.86785C4.71807 23.141 4.34362 22.8414 3.89429 22.8414C3.29517 22.8414 2.84583 23.2907 2.84583 23.8899C2.84583 24.489 3.29517 24.9383 3.89429 24.9383C4.34362 24.9383 4.71807 24.6388 4.86785 24.2643H8.16302V18.8722H11.8326V27.4846H9.81058C9.6608 27.1101 9.28636 26.8106 8.83702 26.8106C8.23791 26.8106 7.78857 27.2599 7.78857 27.859C7.78857 28.4581 8.23791 28.9075 8.83702 28.9075C9.28636 28.9075 9.6608 28.6079 9.81058 28.2335H12.5815V18.8722H15.3524V31.978C14.978 32.1277 14.6784 32.5022 14.6784 32.9516C14.6784 33.5507 15.1278 34 15.7269 34C16.326 34 16.7754 33.5507 16.7754 32.9516C16.7754 32.5022 16.4758 32.1277 16.1013 31.978V18.8722H19.771V26.2115C19.3965 26.3613 19.0969 26.7357 19.0969 27.185C19.0969 27.7842 19.5463 28.2335 20.1454 28.2335C20.7445 28.2335 21.1939 27.7842 21.1939 27.185C21.1939 26.7357 20.8943 26.3613 20.5199 26.2115V18.8722H23.9648V30.63L25.9868 30.7049C26.0617 31.1542 26.511 31.5286 27.0353 31.5286C27.6344 31.5286 28.0837 31.0793 28.0837 30.4802C28.0837 29.881 27.6344 29.4317 27.0353 29.4317C26.6608 29.4317 26.2864 29.6564 26.1366 29.956H24.7886V18.9471H28.4582V23.141H32.7269C32.8767 23.5154 33.2511 23.815 33.7005 23.815C34.2996 23.815 34.7489 23.3656 34.7489 22.7665C34.7489 22.1674 34.2996 21.7181 33.7005 21.7181C33.2511 21.7181 32.8767 22.0176 32.7269 22.3921H29.2071L29.1322 18.8722ZM0.748899 0.748899H36.8459V18.1233H0.748899V0.748899Z" fill="currentColor"/>
</svg>
