<svg width="38" height="34" viewBox="0 0 38 34" fill="none" xmlns="http://www.w3.org/2000/svg">
<path d="M32.296 12.255C31.9969 12.255 31.6979 12.2549 31.3989 12.3297C31.0998 9.04176 28.3337 6.50111 24.9696 6.57584C24.0725 2.76485 20.6335 0 16.6713 0C13.0829 0 9.94298 2.24176 8.67207 5.6044C8.59731 5.6044 8.5973 5.6044 8.52254 5.6044C3.81271 5.6044 0 9.4154 0 14.1231C0 18.4572 3.21465 22.044 7.55068 22.567V29.8154H14.8771L11.9615 34H25.7919L22.652 29.8154H30.2027V22.6418H32.1465C34.9873 22.6418 37.3048 20.3253 37.3048 17.4857C37.4544 14.5714 35.1368 12.255 32.296 12.255ZM24.4462 33.178H13.5314L15.9237 29.7407H21.8297L24.4462 33.178ZM29.6046 28.9934H22.2035H15.5499H8.44778V15.6923H29.6046V28.9934ZM32.296 21.8198H30.3522V14.8703H7.70019V21.7451C3.81271 21.2967 0.897097 18.0088 0.897097 14.0484C0.897097 9.78903 4.33604 6.27694 8.67207 6.27694C8.82159 6.27694 8.89635 6.27694 9.04587 6.27694H9.3449L9.41966 5.97802C10.4663 2.76484 13.3819 0.672546 16.7461 0.672546C20.484 0.672546 23.6239 3.28793 24.3715 6.94946L24.4462 7.24836H24.82C24.9696 7.24836 25.1191 7.24836 25.2686 7.24836C28.259 7.24836 30.726 9.71429 30.726 12.7033V13.1517L31.1746 13.0022C31.5484 12.9275 31.9222 12.8528 32.296 12.8528C34.763 12.8528 36.7068 14.8703 36.7068 17.2615C36.7068 19.8769 34.763 21.8198 32.296 21.8198Z" fill="currentColor"/>
</svg>
