<svg width="35" height="29" viewBox="0 0 35 29" fill="none" xmlns="http://www.w3.org/2000/svg">
<path d="M29.4531 11.1906C29.1804 11.1906 28.9076 11.1906 28.6349 11.2588C28.4304 8.32471 25.976 6.0047 22.9761 6.0047C22.9079 6.0047 22.8398 6.0047 22.7716 6.0047C21.9534 2.5247 18.8172 0 15.2038 0C11.9312 0 9.06771 2.04706 7.90868 5.11765C7.8405 5.11765 7.84051 5.11765 7.77234 5.11765C3.4771 5.11765 0 8.59764 0 12.8965C0 17.1953 3.4771 20.6753 7.77234 20.6753H13.2948V22.3812H9.4768L17.0446 29L24.6124 22.3812H20.7944V20.6753H29.3167C31.9075 20.6753 34.021 18.56 34.021 15.9671C34.2256 13.3059 32.112 11.1906 29.4531 11.1906ZM22.9079 23.0635L17.181 28.0447L11.454 23.0635H14.1129V17.2635H20.249V23.0635H22.9079ZM29.4531 19.9247H20.9308V16.513H13.4311V19.9247H7.90868C4.02251 19.9247 0.818129 16.7859 0.818129 12.8282C0.818129 8.87058 3.95433 5.73176 7.90868 5.73176C8.04504 5.73176 8.11322 5.73176 8.24957 5.73176H8.5223L8.59046 5.45882C9.54496 2.52471 12.2039 0.614114 15.272 0.614114C18.6809 0.614114 21.5444 3.00234 22.2261 6.34587L22.2943 6.61883H22.6352C25.4987 6.34589 28.0213 8.66588 28.0895 11.5318V11.9412L28.4986 11.8047C28.8395 11.7365 29.1804 11.6682 29.5212 11.6682C31.7711 11.6682 33.5438 13.5106 33.5438 15.6941C33.5438 18.1506 31.703 19.9247 29.4531 19.9247Z" fill="currentColor"/>
</svg>
