<svg width="45" height="29" viewBox="0 0 45 29" fill="none" xmlns="http://www.w3.org/2000/svg">
<path d="M44.4855 28.9207H0V4.59961H44.4855V28.9207ZM0.884403 28.0363H43.6011V5.48401H0.884403V28.0363Z" fill="currentColor"/>
<path d="M44.4855 5.48331H0V0H44.4855V5.48331ZM0.884403 4.59891H43.6011V0.884404H0.884403V4.59891Z" fill="currentColor"/>
<path d="M3.00679 3.36123C3.3487 3.36123 3.62585 3.08405 3.62585 2.74214C3.62585 2.40023 3.3487 2.12305 3.00679 2.12305C2.66488 2.12305 2.3877 2.40023 2.3877 2.74214C2.3877 3.08405 2.66488 3.36123 3.00679 3.36123Z" fill="currentColor"/>
<path d="M5.48332 3.36123C5.82523 3.36123 6.10242 3.08405 6.10242 2.74214C6.10242 2.40023 5.82523 2.12305 5.48332 2.12305C5.14141 2.12305 4.86426 2.40023 4.86426 2.74214C4.86426 3.08405 5.14141 3.36123 5.48332 3.36123Z" fill="currentColor"/>
<path d="M8.04778 3.36123C8.38969 3.36123 8.66687 3.08405 8.66687 2.74214C8.66687 2.40023 8.38969 2.12305 8.04778 2.12305C7.70587 2.12305 7.42871 2.40023 7.42871 2.74214C7.42871 3.08405 7.70587 3.36123 8.04778 3.36123Z" fill="currentColor"/>
<path d="M31.5734 25.1178L31.2196 23.2606C30.6005 23.0837 30.0699 22.9068 29.5393 22.553L28.0358 23.7028L26.0016 21.6686L27.1514 20.0767C26.886 19.5461 26.6207 19.0154 26.4439 18.4848L24.4097 18.2195L24.3213 15.3009L26.3554 14.9472C26.5323 14.4165 26.7092 13.8859 26.9745 13.4437L25.6479 11.7633L27.682 9.72916L29.4508 10.9673C29.893 10.702 30.4237 10.5251 30.8659 10.3483L31.1312 8.13725L34.0497 8.04883L34.4035 10.1714C34.9341 10.2598 35.3763 10.5252 35.8185 10.702L37.5873 9.37543L39.6215 11.4096L38.3833 13.1784C38.6486 13.6206 38.9139 14.1512 39.0908 14.6819L41.125 14.9472L41.2134 17.8657L39.2677 18.2195C39.1793 18.7501 38.9139 19.3692 38.6486 19.8114L39.8868 21.4033L37.8526 23.4374L36.2607 22.2877C35.7301 22.6415 35.1994 22.8183 34.5803 22.9952L34.315 24.8525L31.5734 25.1178ZM29.5393 21.4033L29.8046 21.5802C30.4237 21.934 31.0427 22.1993 31.7503 22.3762L32.0156 22.4646L32.2809 24.2334H33.6075L33.8728 22.4646L34.1381 22.3762C34.8457 22.1993 35.4648 21.934 36.0838 21.4918L36.3492 21.3149L37.7642 22.3762L38.7371 21.4033L37.6758 19.9883L37.8526 19.723C38.2064 19.1039 38.4717 18.4848 38.5602 17.7773L38.6486 17.512L40.5059 17.1582V15.8316L38.6486 15.5663L38.5602 15.3009C38.3833 14.6819 38.118 14.0628 37.7642 13.5321L37.5873 13.2668L38.7371 11.6749L37.7642 10.702L36.1723 11.9402L35.907 11.7633C35.3763 11.4096 34.7572 11.2326 34.1381 11.0558L33.8728 10.9673L33.5191 8.93323H32.1925L31.9271 10.9673L31.6618 11.0558C31.0427 11.2326 30.5121 11.4096 29.9815 11.7633L29.7161 11.9402L28.0358 10.7905L27.0629 11.7633L28.3011 13.3552L28.1242 13.6206C27.7705 14.1512 27.5051 14.7703 27.4167 15.3894L27.3283 15.6547L25.471 16.0085V17.3351L27.3283 17.6004L27.4167 17.8657C27.5936 18.4848 27.8589 19.1923 28.2127 19.723L28.3895 19.9883L27.3283 21.4918L28.3011 22.4646L29.5393 21.4033ZM32.9 20.9611C30.6005 20.9611 28.6549 19.1038 28.6549 16.8044C28.6549 15.6547 29.0971 14.5934 29.8046 13.7975C30.6005 13.0015 31.6618 12.5593 32.8115 12.4708C33.9613 12.4708 35.0226 12.913 35.8185 13.6206C36.6145 14.4165 37.0567 15.4778 37.1451 16.6276C37.1451 19.0154 35.2879 20.9611 32.9 20.9611ZM32.9 13.3552C32.8115 13.3552 32.8115 13.3552 32.9 13.3552C31.9271 13.3552 31.1312 13.709 30.5121 14.4165C29.893 15.0356 29.5393 15.92 29.5393 16.8044C29.5393 18.6616 31.1312 20.1651 32.9884 20.0767C34.8457 20.0767 36.3492 18.4848 36.2607 16.6276C36.1723 14.8587 34.6688 13.3552 32.9 13.3552Z" fill="currentColor"/>
<path d="M19.8991 13.3555H3.44922V10.5254H19.8991V13.3555ZM4.33362 12.4711H19.0147V11.4098H4.33362V12.4711Z" fill="currentColor"/>
<path d="M19.8991 18.043H3.44922V15.2129H19.8991V18.043ZM4.33362 17.1586H19.0147V16.0973H4.33362V17.1586Z" fill="currentColor"/>
<path d="M19.8991 22.7305H3.44922V19.9004H19.8991V22.7305ZM4.33362 21.8461H19.0147V20.7848H4.33362V21.8461Z" fill="currentColor"/>
</svg>
