<svg width="35" height="35" viewBox="0 0 35 35" fill="none" xmlns="http://www.w3.org/2000/svg">
<path d="M8.85763 11.6719C8.72032 11.6719 8.58301 11.8092 8.58301 11.9465C8.58301 12.0838 8.72032 12.2212 8.85763 12.2212C8.99495 12.2212 9.13228 12.0838 9.13228 11.9465C9.13228 11.8092 8.99495 11.6719 8.85763 11.6719Z" fill="currentColor"/>
<path d="M9.95529 12.2895C10.107 12.2895 10.2299 12.1665 10.2299 12.0148C10.2299 11.8632 10.107 11.7402 9.95529 11.7402C9.80362 11.7402 9.68066 11.8632 9.68066 12.0148C9.68066 12.1665 9.80362 12.2895 9.95529 12.2895Z" fill="currentColor"/>
<path d="M11.0539 11.6719C10.9166 11.6719 10.7793 11.8092 10.7793 11.9465C10.7793 12.0838 10.9166 12.2212 11.0539 12.2212C11.1912 12.2212 11.3285 12.0838 11.3285 11.9465C11.3285 11.8092 11.1912 11.6719 11.0539 11.6719Z" fill="currentColor"/>
<path d="M18.125 17.4398V18.9503L19.0176 19.0876C19.0862 19.2936 19.1549 19.4995 19.2235 19.6368L18.6743 20.392L19.7728 21.4219L20.4594 20.8727C20.6653 20.9413 20.8713 21.0786 21.0773 21.1473L21.2146 22.0398H22.725L22.8624 21.1473C23.0683 21.0786 23.2743 21.01 23.4803 20.8727L24.2355 21.3533L25.2654 20.2547L24.7161 19.4995C24.7848 19.2935 24.8534 19.1562 24.9221 18.9503L25.8146 18.8129V17.3025L24.8534 17.1651C24.7848 16.9592 24.7161 16.8219 24.6474 16.6159L25.1967 15.792L24.0982 14.7621L23.2743 15.3801C23.137 15.3114 22.931 15.2428 22.7937 15.1741L22.6564 14.2129H21.1459L21.0086 15.1741C20.8713 15.2428 20.6653 15.3114 20.528 15.3801L19.7041 14.8308L18.6743 15.9293L19.2922 16.6846C19.2235 16.8219 19.1549 17.0279 19.0862 17.2338L18.125 17.4398ZM19.6355 15.998L19.8414 15.7234L20.528 16.204L20.734 16.0666C20.94 15.9293 21.2146 15.792 21.4206 15.792L21.6265 15.7234L21.7638 14.8308H22.1071L22.2444 15.6547L22.4504 15.7234C22.7251 15.792 22.931 15.8607 23.2057 15.998L23.4116 16.1353L24.0982 15.586L24.3728 15.792L23.8922 16.4786L24.0295 16.6846C24.1668 16.8906 24.3042 17.1652 24.3728 17.4398L24.4415 17.6458L25.2654 17.7831V18.1264L24.5101 18.2637L24.4415 18.4697C24.3728 18.7443 24.3042 19.0189 24.1669 19.2935L24.0295 19.4995L24.5101 20.1174L24.3042 20.392L23.6862 19.9801L23.4803 20.1174C23.2057 20.2548 22.9997 20.3921 22.6564 20.4607L22.3818 20.5294L22.3131 21.2846H21.9698L21.8325 20.5294L21.6265 20.4607C21.3519 20.3921 21.0773 20.3234 20.8027 20.1174L20.5967 19.9801L19.9788 20.4607L19.7041 20.2547L20.1847 19.6368L20.0474 19.4309C19.9101 19.1562 19.7728 18.9502 19.7041 18.6756L19.6355 18.4697L18.8116 18.3323V17.989L19.6355 17.8517L19.7041 17.6458C19.7728 17.3711 19.8414 17.0965 19.9788 16.8905L20.1161 16.6846L19.6355 15.998Z" fill="currentColor"/>
<path d="M22.0395 20.1856C22.5888 20.1856 23.138 19.9796 23.4813 19.5676C23.8246 19.1557 24.0306 18.6751 24.0306 18.1258C24.0306 17.0273 23.138 16.1348 21.9709 16.1348C21.9709 16.1348 21.9708 16.1348 21.9022 16.1348C20.8037 16.1348 19.9111 17.096 19.9111 18.1945C20.0484 19.293 20.941 20.1856 22.0395 20.1856ZM22.0395 16.8213C22.7947 16.8213 23.4127 17.4393 23.4127 18.1258C23.4127 18.4691 23.2753 18.8124 23.0694 19.0871C22.8634 19.3617 22.5201 19.499 22.1082 19.499C21.3529 19.499 20.8037 18.8811 20.735 18.1945C20.6664 17.4393 21.2843 16.8213 22.0395 16.8213Z" fill="currentColor"/>
<path d="M16.4097 15.2422H8.85742V16.8213H16.4097V15.2422ZM15.7232 16.1347H9.54399V15.9288H15.7232V16.1347Z" fill="currentColor"/>
<path d="M16.4097 17.3008H8.85742V18.8799H16.4097V17.3008ZM15.7232 18.1933H9.54399V17.9874H15.7232V18.1933Z" fill="currentColor"/>
<path d="M16.4097 19.4297H8.85742V21.0088H16.4097V19.4297ZM15.7232 20.2535H9.54399V20.0476H15.7232V20.2535Z" fill="currentColor"/>
<path d="M34.5346 17.027C34.5346 16.0658 33.7794 15.2419 32.8868 15.1046L32.6809 14.624L32.063 14.8986L32.1316 15.1046C31.3764 15.3106 30.8271 15.9285 30.6898 16.6838H27.3256V13.3882V12.7016V10.7106H24.3047L27.051 8.03291C27.3256 8.23888 27.7375 8.30756 28.0808 8.30756C28.4241 8.30756 28.8361 8.17022 29.1107 8.03291L29.7286 7.75831L29.5913 7.48366C30.1406 6.72843 30.0719 5.62991 29.3853 4.94333C28.6988 4.25676 27.5316 4.18809 26.7763 4.80601L26.3644 4.66873L26.0898 5.28662L26.2958 5.3553C25.8838 6.04187 25.9525 6.93439 26.5017 7.5523L23.2748 10.7106H17.4389L17.3703 3.91347C17.8509 3.84482 18.2628 3.70751 18.5375 3.36422C18.8121 3.08959 18.9494 2.74629 19.0181 2.403H19.0867L19.3614 1.78511L19.0867 1.64779C18.9494 0.68659 18.1255 0 17.1643 0C16.0658 0 15.2419 0.892561 15.2419 1.99108V2.05972C15.3106 2.88361 15.9285 3.63886 16.6837 3.84483L16.7524 10.6419H11.0538L8.03291 7.62098C8.23888 7.2777 8.3762 6.93439 8.3762 6.52244C8.3762 6.24781 8.30753 5.97322 8.17021 5.69859L8.44486 5.56126L8.17021 4.94333L7.75829 5.1493C7.00306 4.39407 5.76722 4.39407 5.01199 5.1493C4.32542 5.83587 4.25676 6.93439 4.87467 7.68962L4.66871 8.23887L5.28662 8.51352L5.42392 8.17023C5.69855 8.3762 6.04185 8.44488 6.38514 8.44488C6.79708 8.44488 7.14035 8.30756 7.48364 8.10159L10.024 10.6419H7.27768V12.633V13.3195V16.9584H3.91347C3.84482 16.5464 3.63883 16.2031 3.3642 15.9285C3.02092 15.5852 2.54032 15.3792 2.05972 15.3792L1.71643 15.2419L1.64777 15.3792C1.23583 15.4479 0.8239 15.6539 0.549271 15.9285C0.205984 16.2718 0 16.821 0 17.3016C0 17.8509 0.205968 18.3315 0.617911 18.6748C0.961198 19.0181 1.30449 19.1554 1.78509 19.224L1.85376 19.43L2.47167 19.1554C3.2269 18.9494 3.77616 18.3315 3.91347 17.5763H7.27768V23.6181H10.2986L7.5523 26.2958C7.27767 26.0898 6.93439 26.0211 6.52244 26.0211C6.17916 26.0211 5.83587 26.1585 5.56124 26.2958L5.49258 26.0898L4.87467 26.3644L5.08064 26.7763C4.80601 27.1196 4.66871 27.5316 4.66871 27.9435C4.66871 28.4928 4.87468 28.9734 5.28662 29.3167C5.69856 29.66 6.17916 29.8659 6.65977 29.8659C7.14037 29.8659 7.68962 29.66 8.03291 29.248L8.10157 29.1793L8.3762 29.3167L8.65082 28.6988L8.44486 28.6301C8.51352 28.4241 8.58216 28.1495 8.58216 27.9435C8.58216 27.5316 8.44484 27.051 8.17021 26.7763L11.3971 23.6181H17.233L17.3016 30.4152C16.5464 30.4839 15.9285 30.9645 15.6539 31.651L15.3792 32.2689L15.5166 32.3376C15.5166 33.4361 16.4091 34.26 17.4389 34.26C17.9882 34.26 18.4688 34.054 18.8121 33.6421C19.0867 33.3674 19.2927 32.9555 19.3614 32.5436L19.4987 32.4749L19.3614 32.2003C19.3614 31.7197 19.1554 31.2391 18.8121 30.8958C18.5375 30.6211 18.2628 30.4839 17.9196 30.4152L17.8509 23.6181H23.5495L26.5704 26.6391C26.3644 26.9823 26.2271 27.3256 26.2271 27.7376C26.2271 28.1495 26.3644 28.4928 26.5704 28.8361L26.2271 28.9734L26.5017 29.5913L27.1196 29.3167C27.4629 29.5226 27.8062 29.66 28.1495 29.66C28.6987 29.66 29.1793 29.454 29.5226 29.0421C29.8659 28.6988 30.0719 28.1495 30.0719 27.6689C30.0719 27.1883 29.8659 26.7763 29.5913 26.4331L29.66 26.2271L29.042 25.9525C28.7674 25.8152 28.4928 25.7465 28.1495 25.7465C27.7375 25.7465 27.3943 25.8838 27.051 26.0898L24.5107 23.5495H27.257V17.233H30.6212C30.7585 17.9882 31.3077 18.5375 31.9943 18.7435L31.9256 18.9494L32.5435 19.224L32.6809 18.8121C33.7107 18.8808 34.5346 18.0569 34.5346 17.027ZM28.0122 5.01201C28.3555 5.01201 28.6987 5.14933 28.9047 5.3553C29.1793 5.56127 29.248 5.90455 29.3167 6.24784C29.3167 6.59112 29.1794 6.9344 28.9734 7.14037C28.7674 7.415 28.4241 7.48364 28.0808 7.5523C27.7375 7.5523 27.3943 7.41499 27.1883 7.20901C26.9137 7.00304 26.845 6.65976 26.7763 6.31648C26.7763 5.97319 26.9137 5.62991 27.1196 5.42394C27.3256 5.14931 27.6689 5.01201 28.0122 5.01201ZM15.9285 1.92244C15.9285 1.23586 16.4777 0.617932 17.1643 0.617932C17.8509 0.617932 18.4002 1.16718 18.4002 1.85375C18.4002 2.19704 18.2628 2.54032 18.0569 2.74629C17.8509 2.95226 17.5076 3.0896 17.1643 3.15826C16.821 3.15826 16.5464 3.02095 16.2718 2.81497C16.0658 2.609 15.9285 2.26572 15.9285 1.92244ZM6.45378 7.75831C6.11049 7.75831 5.76722 7.62099 5.56124 7.41502C5.28661 7.20905 5.21795 6.86573 5.1493 6.52244C5.1493 6.17916 5.28661 5.83588 5.49258 5.62991C5.69855 5.35528 6.04185 5.28664 6.38514 5.21798C6.72843 5.21798 7.00305 5.35529 7.27768 5.56126C7.55231 5.76724 7.62097 6.11051 7.68962 6.4538C7.68962 6.79709 7.55231 7.14037 7.34634 7.34634C7.14037 7.62097 6.79707 7.75831 6.45378 7.75831ZM2.95228 18.1942C2.7463 18.4688 2.403 18.5375 2.05972 18.6061C1.71643 18.6061 1.37315 18.4688 1.16718 18.2629C0.96121 18.0569 0.823892 17.7136 0.755234 17.3703C0.686577 17.027 0.892549 16.6837 1.09852 16.4777C1.30449 16.2031 1.64777 16.1345 1.99106 16.0658C2.33434 16.0658 2.60899 16.2031 2.88361 16.4091C3.15824 16.6151 3.2269 16.9584 3.29556 17.3016C3.36422 17.6449 3.2269 17.9195 2.95228 18.1942ZM6.65977 29.3167C6.31648 29.3167 5.97318 29.1794 5.76721 28.9734C5.49258 28.7674 5.42394 28.4241 5.35528 28.0808C5.35528 27.7376 5.4926 27.3943 5.69857 27.1883C5.90454 26.9137 6.24782 26.845 6.5911 26.7763C6.93439 26.7763 7.20901 26.9137 7.48364 27.1196C7.75827 27.3256 7.82693 27.6689 7.89559 28.0122C7.89559 28.3555 7.75827 28.6988 7.5523 28.9047C7.34633 29.1794 7.00305 29.3167 6.65977 29.3167ZM18.7435 32.4062C18.7435 32.7495 18.6061 33.0928 18.4002 33.2988C18.1942 33.5734 17.8509 33.6421 17.5076 33.7108C16.821 33.7108 16.2031 33.1615 16.2031 32.4749C16.2031 31.7884 16.7524 31.1704 17.4389 31.1704C17.7822 31.1704 18.0569 31.3077 18.3315 31.5137C18.6061 31.7197 18.7435 32.063 18.7435 32.4062ZM28.2181 26.5704C28.5614 26.5704 28.9047 26.7077 29.1107 26.9137C29.3853 27.1196 29.454 27.4629 29.5226 27.8062C29.5226 28.1495 29.3853 28.4928 29.1793 28.6988C28.9734 28.9734 28.6301 29.042 28.2868 29.1107C27.9435 29.1107 27.6689 28.9734 27.3943 28.7674C27.1196 28.5614 27.051 28.2182 26.9823 27.8749C26.9823 27.5316 27.1196 27.1883 27.3256 26.9823C27.5316 26.7077 27.8749 26.5704 28.2181 26.5704ZM8.03291 11.3285H26.5704V12.633H8.03291V11.3285ZM26.5704 23.0002H8.03291V13.3195H26.5704V23.0002ZM32.6122 18.2629C32.5436 18.2629 32.5436 18.2629 32.6122 18.2629C31.9256 18.2629 31.3077 17.7136 31.3077 17.027C31.3077 16.3405 31.857 15.7225 32.5435 15.7225C33.2301 15.7225 33.7794 16.2718 33.7794 16.9584C33.848 17.7136 33.2988 18.2629 32.6122 18.2629Z" fill="currentColor"/>
<path d="M3.39609 21.0684L2.76465 21.3379L3.03413 21.9693L3.66557 21.6999L3.39609 21.0684Z" fill="currentColor"/>
<path d="M3.93515 22.3028L3.30371 22.5723L3.57319 23.2037L4.20463 22.9342L3.93515 22.3028Z" fill="currentColor"/>
<path d="M2.83164 19.7735L2.2002 20.043L2.46968 20.6744L3.10112 20.4049L2.83164 19.7735Z" fill="currentColor"/>
<path d="M4.97226 24.8594L4.34082 25.1289L4.6103 25.7603L5.24174 25.4909L4.97226 24.8594Z" fill="currentColor"/>
<path d="M4.50015 23.673L3.86816 23.9414L4.13655 24.5734L4.76854 24.305L4.50015 23.673Z" fill="currentColor"/>
<path d="M10.7563 3.86999L10.1221 4.13281L10.3849 4.76707L11.0191 4.50425L10.7563 3.86999Z" fill="currentColor"/>
<path d="M12.0493 3.30945L11.415 3.57227L11.6779 4.20652L12.3121 3.9437L12.0493 3.30945Z" fill="currentColor"/>
<path d="M9.50144 4.34265L8.86719 4.60547L9.13001 5.23972L9.76426 4.9769L9.50144 4.34265Z" fill="currentColor"/>
<path d="M13.2788 2.77429L12.6445 3.03711L12.9074 3.67137L13.5416 3.40855L13.2788 2.77429Z" fill="currentColor"/>
<path d="M14.5971 2.27624L13.9629 2.53906L14.2257 3.17332L14.86 2.9105L14.5971 2.27624Z" fill="currentColor"/>
<path d="M21.2784 2.50442L21.0156 3.13867L21.6499 3.40149L21.9127 2.76724L21.2784 2.50442Z" fill="currentColor"/>
<path d="M22.5558 3.06887L22.293 3.70312L22.9272 3.96595L23.19 3.33169L22.5558 3.06887Z" fill="currentColor"/>
<path d="M25.0753 4.10793L24.8125 4.74219L25.4468 5.00501L25.7096 4.37075L25.0753 4.10793Z" fill="currentColor"/>
<path d="M19.9747 2.00246L19.7119 2.63672L20.3462 2.89954L20.609 2.26528L19.9747 2.00246Z" fill="currentColor"/>
<path d="M23.797 3.54348L23.5342 4.17773L24.1684 4.44055L24.4313 3.8063L23.797 3.54348Z" fill="currentColor"/>
<path d="M9.2677 29.0689L9.00488 29.7031L9.63914 29.9659L9.90196 29.3317L9.2677 29.0689Z" fill="currentColor"/>
<path d="M13.0646 30.6743L12.8018 31.3086L13.436 31.5714L13.6988 30.9372L13.0646 30.6743Z" fill="currentColor"/>
<path d="M14.3693 31.1763L14.1064 31.8105L14.7407 32.0734L15.0035 31.4391L14.3693 31.1763Z" fill="currentColor"/>
<path d="M10.545 29.6333L10.2822 30.2676L10.9165 30.5304L11.1793 29.8961L10.545 29.6333Z" fill="currentColor"/>
<path d="M11.7863 30.1079L11.5234 30.7422L12.1577 31.005L12.4205 30.3708L11.7863 30.1079Z" fill="currentColor"/>
<path d="M23.0864 30.3544L22.4521 30.6172L22.715 31.2514L23.3492 30.9886L23.0864 30.3544Z" fill="currentColor"/>
<path d="M21.7934 30.9149L21.1592 31.1777L21.422 31.812L22.0563 31.5492L21.7934 30.9149Z" fill="currentColor"/>
<path d="M20.5639 31.4501L19.9297 31.7129L20.1925 32.3471L20.8268 32.0843L20.5639 31.4501Z" fill="currentColor"/>
<path d="M24.3413 29.8817L23.707 30.1445L23.9699 30.7788L24.6041 30.516L24.3413 29.8817Z" fill="currentColor"/>
<path d="M25.5698 29.3485L24.9355 29.6113L25.1984 30.2456L25.8326 29.9828L25.5698 29.3485Z" fill="currentColor"/>
<path d="M3.92022 10.1403L3.66406 10.7773L4.30106 11.0335L4.55723 10.3965L3.92022 10.1403Z" fill="currentColor"/>
<path d="M4.45733 8.91183L4.20117 9.54883L4.83817 9.80499L5.09433 9.16799L4.45733 8.91183Z" fill="currentColor"/>
<path d="M2.38897 14.0056L2.13281 14.6426L2.76981 14.8987L3.02598 14.2617L2.38897 14.0056Z" fill="currentColor"/>
<path d="M2.88702 12.6892L2.63086 13.3262L3.26786 13.5823L3.52402 12.9453L2.88702 12.6892Z" fill="currentColor"/>
<path d="M3.42218 11.4587L3.16602 12.0957L3.80302 12.3519L4.05918 11.7149L3.42218 11.4587Z" fill="currentColor"/>
<path d="M31.7083 19.7536L31.4521 20.3906L32.0892 20.6468L32.3453 20.0098L31.7083 19.7536Z" fill="currentColor"/>
<path d="M31.1712 20.9821L30.915 21.6191L31.552 21.8753L31.8082 21.2383L31.1712 20.9821Z" fill="currentColor"/>
<path d="M29.639 24.8493L29.3828 25.4863L30.0198 25.7425L30.276 25.1055L29.639 24.8493Z" fill="currentColor"/>
<path d="M30.138 23.531L29.8818 24.168L30.5188 24.4241L30.775 23.7871L30.138 23.531Z" fill="currentColor"/>
<path d="M30.6741 22.3005L30.418 22.9375L31.055 23.1937L31.3111 22.5567L30.6741 22.3005Z" fill="currentColor"/>
<path d="M30.983 10.7891L30.3516 11.0586L30.621 11.69L31.2525 11.4206L30.983 10.7891Z" fill="currentColor"/>
<path d="M32.1515 13.3644L31.5195 13.6328L31.7879 14.2648L32.4199 13.9964L32.1515 13.3644Z" fill="currentColor"/>
<path d="M31.5465 12.086L30.915 12.3555L31.1845 12.9869L31.816 12.7174L31.5465 12.086Z" fill="currentColor"/>
<path d="M29.9439 8.23247L29.3125 8.50195L29.582 9.13339L30.2134 8.86391L29.9439 8.23247Z" fill="currentColor"/>
<path d="M30.5119 9.60076L29.8799 9.86914L30.1483 10.5011L30.7803 10.2327L30.5119 9.60076Z" fill="currentColor"/>
</svg>
