<svg width="43" height="28" viewBox="0 0 43 28" fill="none" xmlns="http://www.w3.org/2000/svg">
<path d="M18.3583 18.1868L13.833 16.3938L18.3583 14.6862V13.5762L12.6377 15.8815V16.9915L18.3583 19.2114V18.1868Z" fill="currentColor"/>
<path d="M24.1648 10.0742H23.0548L18.8711 22.1985H19.9811L24.1648 10.0742Z" fill="currentColor"/>
<path d="M30.3105 15.8815L24.5898 13.5762V14.6862L29.1151 16.3938L24.5898 18.1868V19.2114L30.3105 16.9915V15.8815Z" fill="currentColor"/>
<path d="M0 0V4.43989V5.29371V27.92H42.9473V5.29371V4.43989V0H0ZM42.0934 26.9808H0.853823V5.20829H42.0934V26.9808ZM0.853823 4.43989V0.853822H42.0934V4.43989H0.853823Z" fill="currentColor"/>
<path d="M2.90334 1.96289C2.56181 1.96289 2.30566 2.21905 2.30566 2.56058C2.30566 2.90211 2.56181 3.15826 2.90334 3.15826C3.24487 3.15826 3.50102 2.90211 3.50102 2.56058C3.50102 2.30443 3.24487 1.96289 2.90334 1.96289Z" fill="currentColor"/>
<path d="M5.37893 1.96289C5.0374 1.96289 4.78125 2.21905 4.78125 2.56058C4.78125 2.90211 5.0374 3.15826 5.37893 3.15826C5.72046 3.15826 5.9766 2.90211 5.9766 2.56058C5.9766 2.30443 5.72046 1.96289 5.37893 1.96289Z" fill="currentColor"/>
<path d="M7.77053 1.96289C7.429 1.96289 7.17285 2.21905 7.17285 2.56058C7.17285 2.90211 7.429 3.15826 7.77053 3.15826C8.11206 3.15826 8.3682 2.90211 8.3682 2.56058C8.45359 2.30443 8.11206 1.96289 7.77053 1.96289Z" fill="currentColor"/>
</svg>
