<svg width="23" height="41" viewBox="0 0 23 41" fill="none" xmlns="http://www.w3.org/2000/svg">
<path d="M21.2817 0H1.5612C0.657345 0 0 0.739538 0 1.56123V39.3588C0 40.2627 0.739514 40.92 1.5612 40.92H21.2817C22.1856 40.92 22.8429 40.1805 22.8429 39.3588V1.56123C22.8429 0.65737 22.1856 0 21.2817 0ZM22.0212 39.3588C22.0212 39.7697 21.6925 40.0983 21.2817 40.0983H1.5612C1.15036 40.0983 0.821687 39.7697 0.821687 39.3588V1.56123C0.821687 1.15038 1.15036 0.821687 1.5612 0.821687H21.2817C21.6925 0.821687 22.0212 1.15038 22.0212 1.56123V39.3588Z" fill="currentColor"/>
<path d="M16.5989 2.21944C16.5989 3.20546 15.8593 4.02716 14.8733 4.02716H7.97113C7.06728 4.02716 6.24558 3.20546 6.24558 2.21944V1.80859H1.89062V39.1132H20.7894V1.80859H16.4345V2.21944H16.5989ZM20.0499 2.63028V38.2915H2.79449V2.63028H5.50607C5.67041 3.86281 6.7386 4.84885 7.97113 4.84885H14.8733C16.1058 4.84885 17.174 3.86281 17.3384 2.63028H20.0499Z" fill="currentColor"/>
<path d="M11.9982 3.03934C12.3612 3.03934 12.6555 2.74504 12.6555 2.382C12.6555 2.01896 12.3612 1.72461 11.9982 1.72461C11.6351 1.72461 11.3408 2.01896 11.3408 2.382C11.3408 2.74504 11.6351 3.03934 11.9982 3.03934Z" fill="currentColor"/>
</svg>
