<svg width="37" height="36" viewBox="0 0 37 36" fill="none" xmlns="http://www.w3.org/2000/svg">
<path d="M19.4855 35.5703C10.3585 35.5703 2.89763 28.1094 2.8252 18.9825V18.6203H19.2682L28.2502 4.85742L28.54 5.07472C33.2483 8.18947 36.0734 13.3324 36.0734 18.9825C36.0734 28.1818 28.6124 35.5703 19.4855 35.5703ZM3.62199 19.3446C3.83929 27.9645 10.8656 34.8459 19.4855 34.8459C28.2502 34.8459 35.349 27.7472 35.349 18.9825C35.349 13.6946 32.8137 8.8414 28.4676 5.87152L19.6304 19.3446H3.62199Z" fill="currentColor"/>
<path d="M16.95 17.3895H0V17.0273C0 7.82793 7.46092 0.439453 16.5879 0.439453H16.95V17.3895ZM0.724361 16.6651H16.2257V1.09137C7.75067 1.30868 0.869233 8.19011 0.724361 16.6651Z" fill="currentColor"/>
<path d="M18.1089 17.6059L17.8916 0.00389044H18.2538C21.5134 -0.0685456 24.6282 0.873127 27.3807 2.61159L27.6705 2.82889L18.1089 17.6059ZM18.616 0.655811L18.7608 15.143L26.6564 2.97377C24.266 1.52505 21.5134 0.728247 18.616 0.655811Z" fill="currentColor"/>
</svg>
