<svg width="32" height="31" viewBox="0 0 32 31" fill="none" xmlns="http://www.w3.org/2000/svg">
<path d="M0.615292 29.9647V0H0V30.58H31.0722V29.9647H0.615292Z" fill="currentColor"/>
<path d="M5.59976 24.9808C6.5227 24.9808 7.26106 24.2425 7.26106 23.3195V23.258L12.1834 22.0274C12.491 22.4581 12.9833 22.7658 13.537 22.7658C14.46 22.7658 15.1983 22.0274 15.1983 21.1045C15.1983 20.9199 15.1368 20.7353 15.1368 20.6123L20.4283 13.721C20.6744 13.844 20.9205 13.9671 21.2282 13.9671C21.8435 13.9671 22.3972 13.6595 22.6433 13.1672L25.1045 14.7055C24.9199 14.9516 24.7969 15.3207 24.7969 15.6284C24.7969 16.5513 25.5352 17.2897 26.4582 17.2897C27.3811 17.2897 28.1194 16.5513 28.1194 15.6284C28.1194 14.7055 27.3811 13.9671 26.4582 13.9671C26.089 13.9671 25.7813 14.0902 25.5352 14.2748L22.8279 12.5519C22.8279 12.4904 22.8279 12.3673 22.8279 12.3058C22.8279 11.3829 22.0896 10.6445 21.1666 10.6445C20.2437 10.6445 19.5054 11.3829 19.5054 12.3058C19.5054 12.7365 19.6284 13.0442 19.8745 13.3518L14.7061 20.0585C14.3984 19.6893 13.9677 19.5047 13.4755 19.5047C12.5526 19.5047 11.8142 20.2431 11.8142 21.166C11.8142 21.2891 11.8142 21.4121 11.8757 21.5352L7.07648 22.7658C6.83036 22.1505 6.21507 21.7198 5.53825 21.7198C4.61531 21.7198 3.87695 22.4581 3.87695 23.3811C3.93848 24.2425 4.67682 24.9808 5.59976 24.9808Z" fill="currentColor"/>
</svg>
