<svg width="45" height="29" viewBox="0 0 45 29" fill="none" xmlns="http://www.w3.org/2000/svg">
<path d="M10.3471 24.9399C11.4083 24.9399 12.2043 24.144 12.2043 23.0827L17.776 21.6676C18.1298 22.1098 18.6604 22.3751 19.2795 22.3751C20.3408 22.3751 21.1368 21.4907 21.1368 20.5179C21.1368 20.341 21.1368 20.1641 21.0483 20.0757L27.0623 12.2929C27.3276 12.3814 27.5929 12.4698 27.8582 12.4698C28.4773 12.4698 29.0964 12.1161 29.4502 11.6739L32.1918 13.4427C32.0149 13.708 31.9265 14.0617 31.9265 14.4155C31.9265 15.4768 32.8109 16.2728 33.7838 16.2728C34.845 16.2728 35.641 15.3883 35.641 14.4155C35.641 13.4426 34.7566 12.5583 33.7838 12.5583C33.43 12.5583 33.0762 12.6467 32.8109 12.8236L29.7155 10.8779C29.7155 10.7894 29.7155 10.7895 29.7155 10.701C29.7155 9.63975 28.8311 8.84375 27.8582 8.84375C26.797 8.84375 26.001 9.72819 26.001 10.701C26.001 11.1432 26.1779 11.497 26.3548 11.8507L20.5177 19.3682C20.1639 19.0144 19.7217 18.7491 19.1911 18.7491C18.1298 18.7491 17.3338 19.6335 17.3338 20.6063C17.3338 20.6947 17.3338 20.7832 17.3338 20.9601L11.939 22.2867C11.6737 21.6676 10.9661 21.2254 10.2586 21.2254C9.19734 21.2254 8.40137 22.1098 8.40137 23.0827C8.40137 24.144 9.28578 24.9399 10.3471 24.9399Z" fill="currentColor"/>
<path d="M0 0V4.59891V5.48331V28.92H44.4855V5.48331V4.59891V0H0ZM43.5127 27.9472H0.795971V5.39489H43.5127V27.9472ZM43.5127 4.51049H0.795971V0.795985H43.5127V4.51049Z" fill="currentColor"/>
<path d="M2.91888 3.36118C3.27265 3.36118 3.53796 3.0959 3.53796 2.74214C3.53796 2.38838 3.27265 2.12305 2.91888 2.12305C2.56512 2.12305 2.2998 2.38838 2.2998 2.74214C2.2998 3.0959 2.56512 3.36118 2.91888 3.36118Z" fill="currentColor"/>
<path d="M5.48335 3.36118C5.83711 3.36118 6.10243 3.0959 6.10243 2.74214C6.10243 2.38838 5.83711 2.12305 5.48335 2.12305C5.12959 2.12305 4.86426 2.38838 4.86426 2.74214C4.86426 3.0959 5.12959 3.36118 5.48335 3.36118Z" fill="currentColor"/>
<path d="M8.04786 3.36118C8.40163 3.36118 8.66694 3.0959 8.66694 2.74214C8.66694 2.38838 8.40163 2.12305 8.04786 2.12305C7.6941 2.12305 7.42878 2.38838 7.42878 2.74214C7.34034 3.0959 7.6941 3.36118 8.04786 3.36118Z" fill="currentColor"/>
</svg>
