<svg width="37" height="24" viewBox="0 0 37 24" fill="none" xmlns="http://www.w3.org/2000/svg">
<path d="M35.7228 6.95806C30.845 2.51065 24.6042 0 18.0049 0C11.4055 0 5.093 2.43891 0.28693 6.95806L0 7.24501L3.37143 10.6164L3.65836 10.4012C7.60364 6.81459 12.6966 4.87784 18.0049 4.87784C23.3131 4.87784 28.4061 6.88632 32.3513 10.4012L32.6383 10.6164L36.0097 7.24501L35.7228 6.95806ZM32.5665 9.61217C28.5495 6.02555 23.3848 4.08876 17.9331 4.08876C12.5532 4.08876 7.38844 6.02555 3.29969 9.61217L0.932523 7.24501C5.59513 3.08452 11.6207 0.717325 17.8614 0.717325C24.1738 0.717325 30.1276 3.01279 34.7902 7.24501L32.5665 9.61217Z" fill="currentColor"/>
<path d="M18.0035 6.81445C13.1974 6.81445 8.67824 8.53605 5.09162 11.764L4.80469 12.051L7.45879 14.705L7.74572 14.4898C10.615 11.9792 14.2734 10.6163 18.0752 10.6163C21.877 10.6163 25.5354 11.9792 28.4047 14.4898L28.6916 14.705L31.3457 12.051L31.0588 11.764C27.3287 8.60778 22.7378 6.81445 18.0035 6.81445ZM28.5481 13.7008C25.6071 11.1902 21.877 9.82723 18.0035 9.82723C14.1299 9.82723 10.3998 11.1902 7.45879 13.7008L5.88067 12.1227C9.2521 9.18164 13.556 7.60354 18.0035 7.60354C22.4509 7.60354 26.7548 9.18164 30.1262 12.1227L28.5481 13.7008Z" fill="currentColor"/>
<path d="M18.0046 12.9844C14.7766 12.9844 11.6204 14.1321 9.18146 16.2123L8.89453 16.4992L10.8313 18.436L11.1182 18.2208C13.055 16.6427 15.4939 15.7819 18.0046 15.7819C20.5152 15.7819 22.9541 16.6427 24.8909 18.2208L25.1778 18.436L27.1146 16.4992L26.8276 16.2123C24.317 14.1321 21.2325 12.9844 18.0046 12.9844ZM25.1061 17.5035C23.0976 15.9254 20.5869 15.0646 18.0046 15.0646C15.4222 15.0646 12.9115 15.9254 10.903 17.5035L9.97052 16.571C12.1942 14.706 15.0635 13.7017 18.0046 13.7017C20.9456 13.7017 23.7432 14.706 26.0386 16.571L25.1061 17.5035Z" fill="currentColor"/>
<path d="M18.0051 18.1484C16.4987 18.1484 15.2793 19.3679 15.2793 20.8743C15.2793 22.3806 16.4987 23.6001 18.0051 23.6001C19.5115 23.6001 20.731 22.3806 20.731 20.8743C20.731 19.3679 19.5115 18.1484 18.0051 18.1484ZM18.0051 22.811C16.9291 22.811 15.9966 21.9502 15.9966 20.8025C15.9966 19.6548 16.8574 18.794 18.0051 18.794C19.1528 18.794 20.0136 19.6548 20.0136 20.8025C20.0136 21.9502 19.0811 22.811 18.0051 22.811Z" fill="currentColor"/>
</svg>
