<svg width="31" height="32" viewBox="0 0 31 32" fill="none" xmlns="http://www.w3.org/2000/svg">
<path d="M30.3469 17.2126C30.3469 15.1088 29.4544 13.1324 27.9243 11.7299C28.0518 11.2199 28.1156 10.6461 28.1156 10.0724C28.1156 7.58601 26.6493 5.41841 24.4817 4.39837C24.3542 4.33462 24.2267 4.27086 24.0992 4.27086C24.0354 4.27086 23.9717 4.20712 23.9079 4.20712C23.4617 4.07962 23.0154 3.95211 22.5691 3.88836V3.82458C22.5691 3.76083 22.5691 3.76086 22.5691 3.69711C22.5691 3.63336 22.5691 3.50584 22.5691 3.44209C22.5691 3.37833 22.5691 3.37833 22.5691 3.31457C22.5691 3.18707 22.5691 3.05958 22.5054 2.93207C22.5054 2.86832 22.5054 2.80458 22.4416 2.74082C22.4416 2.61332 22.3779 2.48579 22.3141 2.35829C22.3141 2.29453 22.2504 2.23079 22.2504 2.16704C22.1866 2.03953 22.1228 1.91204 22.0591 1.78454C21.9953 1.72079 21.9954 1.657 21.9316 1.59325C21.8678 1.5295 21.8041 1.40202 21.7403 1.33826C21.6766 1.27451 21.6128 1.14699 21.5491 1.08324C21.4853 1.01949 21.4853 1.01948 21.4216 0.955727C21.2941 0.828222 21.1666 0.764493 21.1028 0.70074C21.0391 0.70074 21.0391 0.636964 20.9753 0.636964C20.8478 0.573212 20.7203 0.509483 20.5928 0.381978C20.529 0.381978 20.4653 0.318203 20.4015 0.318203C20.274 0.25445 20.2103 0.254481 20.0828 0.190729C19.9553 0.126976 19.8278 0.126953 19.7003 0.126953C19.6365 0.126953 19.6365 0.126953 19.5728 0.126953C19.509 0.126953 19.509 0.126953 19.4453 0.126953C19.4453 0.126953 19.4453 0.126953 19.3815 0.126953C19.254 0.126953 19.1902 0.126953 19.0627 0.126953C17.1502 0.126953 15.6201 1.65703 15.6201 3.5696V27.7955C15.6201 27.8593 15.6201 27.9867 15.6201 28.0505C15.6201 28.1142 15.6201 28.1143 15.6201 28.178C15.8114 30.2818 17.5964 31.9394 19.764 31.9394C21.6128 31.9394 23.2704 30.7281 23.7804 28.943C26.0118 28.5605 27.6693 26.5842 27.6693 24.2891C27.6693 24.2254 27.6693 24.1616 27.6693 24.1616C27.6693 24.0341 27.6693 23.9066 27.6056 23.8429C27.6056 23.5878 27.5418 23.3328 27.478 23.0778C29.3269 21.5478 30.3469 19.4439 30.3469 17.2126ZM25.2467 21.5478C23.8442 21.5478 22.6966 22.6315 22.6966 24.0341H23.3341C23.3341 23.0141 24.1629 22.1216 25.2467 22.1853C26.1392 22.1853 26.9043 22.8228 27.0318 23.6516C27.0318 23.8429 27.0956 24.0341 27.0956 24.2254C27.0956 26.2654 25.5655 27.9868 23.5892 28.2418H23.3979L23.3341 28.433C22.9516 30.0268 21.5491 31.1744 19.8915 31.1744C19.8278 31.1744 19.764 31.1744 19.6365 31.1744C17.7877 31.0469 16.3851 29.5168 16.3851 27.668C16.3851 26.3929 17.0864 25.2454 18.1702 24.6079C18.5527 25.8192 19.6365 26.7117 20.9753 26.7117V26.0742C19.7003 26.0742 18.6802 25.0542 18.6802 23.7791C18.6802 22.5041 19.7003 21.484 20.9753 21.484V20.8465C19.3178 20.8465 18.0427 22.1853 18.0427 23.7791C18.0427 23.8429 18.0427 23.9066 18.0427 23.9704C17.3414 24.2891 16.7676 24.8629 16.3851 25.5004V14.4075C16.8314 14.9813 17.5327 15.3 18.3615 15.3C19.764 15.3 20.9753 14.1525 20.9753 12.6862H20.3378C20.3378 13.77 19.4453 14.6625 18.3615 14.6625C17.2777 14.6625 16.3851 13.77 16.3851 12.6862V3.44209C16.3851 1.91203 17.6602 0.636964 19.1902 0.636964C19.3815 0.636964 19.5728 0.636988 19.7003 0.70074H19.764C19.8915 0.764493 20.0828 0.7645 20.2103 0.828253H20.274C20.4015 0.892005 20.5928 0.955734 20.7203 1.08324C20.7203 1.08324 20.7203 1.08324 20.784 1.08324C20.9116 1.14699 21.0391 1.2745 21.1666 1.402C21.1666 1.402 21.1666 1.40202 21.2303 1.46578C21.3578 1.59328 21.4216 1.72077 21.5491 1.84828C21.5491 1.84828 21.5491 1.84826 21.5491 1.91201C21.6128 2.03952 21.7403 2.23078 21.8041 2.35829C21.9316 2.67705 21.9954 3.05957 21.9954 3.44209C21.9954 3.56959 21.9954 3.76086 21.9316 3.88836V3.9521C21.9316 4.01585 21.9316 4.01586 21.9316 4.07961C21.8041 4.58963 21.5491 4.97214 21.2303 5.35466L21.1666 5.29092C20.1465 4.27088 18.5527 4.27088 17.5327 5.29092L17.9789 5.73716C18.744 4.97213 19.9553 4.97213 20.6566 5.73716C21.0391 6.11967 21.2303 6.56596 21.2303 7.07598C21.2303 7.586 21.0391 8.096 20.6566 8.41476L21.1028 8.86104C21.6128 8.35102 21.8678 7.7135 21.8678 7.07598C21.8678 6.62971 21.7403 6.24718 21.5491 5.86467C21.9316 5.48215 22.2504 5.0359 22.4416 4.52588C23.2066 4.58964 23.9079 4.84465 24.5455 5.16341C24.5455 5.16341 24.5454 5.16341 24.6092 5.16341C24.6729 5.22716 24.8005 5.29092 24.8642 5.29092C25.948 5.9922 26.713 7.01224 27.1593 8.15978C26.8405 7.90477 26.3943 7.77724 25.948 7.77724C24.7367 7.77724 23.7167 8.79728 23.7167 10.0086H24.3542C24.3542 9.11604 25.0555 8.41476 25.948 8.41476C26.6493 8.41476 27.2231 8.86105 27.4143 9.43483C27.4781 10.0086 27.4143 10.6461 27.2868 11.2199C26.713 13.6425 24.5454 15.4276 22.0591 15.4913V16.1288C23.1429 16.1288 24.0992 15.81 24.9917 15.3C25.8205 15.3638 26.5218 16.065 26.5218 16.8938C26.5218 17.7864 25.8205 18.4876 24.928 18.4876V19.1252C26.203 19.1252 27.1593 18.1051 27.1593 16.8938C27.1593 15.9375 26.5218 15.1088 25.693 14.79C26.5218 14.0887 27.223 13.1962 27.6056 12.1762C28.9444 13.4512 29.7094 15.1725 29.7094 17.0213C29.7094 19.0614 28.7531 20.974 27.1593 22.249C26.713 21.9303 26.0117 21.5478 25.2467 21.5478Z" fill="currentColor"/>
<path d="M11.3479 0C11.2204 0 11.0929 0 11.0292 0C10.9654 0 10.9654 0 10.9016 0C10.8379 0 10.8379 0 10.7742 0C10.6466 0 10.5191 0.0637758 10.3916 0.0637758C10.3279 0.0637758 10.2004 0.127513 10.1366 0.127513C10.0729 0.127513 10.0091 0.191273 9.94536 0.255025C9.81785 0.318778 9.69037 0.382522 9.56286 0.446275C9.49911 0.510027 9.43534 0.510035 9.37159 0.573787C9.24409 0.63754 9.18034 0.76506 9.05283 0.828812C8.98908 0.892565 8.92533 0.956309 8.86158 1.02006C8.79783 1.08381 8.73406 1.14756 8.67031 1.21131C8.60656 1.27506 8.54282 1.40257 8.47906 1.53007C8.41531 1.59383 8.4153 1.65757 8.35155 1.72132C8.2878 1.84883 8.22405 1.97636 8.1603 2.10386C8.1603 2.16761 8.09654 2.23136 8.09654 2.29511C8.03279 2.42261 8.0328 2.5501 7.96905 2.67761C7.96905 2.74136 7.96905 2.80513 7.90529 2.93263C7.90529 3.06014 7.90529 3.18763 7.84154 3.31513C7.84154 3.37889 7.84154 3.37889 7.84154 3.44265C7.84154 3.57015 7.84154 3.6339 7.84154 3.76141V3.82514V3.88892C7.39527 3.95267 6.949 4.01643 6.50273 4.20768C6.43898 4.20768 6.37524 4.27142 6.31148 4.27142C6.18398 4.33517 6.05647 4.33518 5.92897 4.39893C5.92897 4.39893 5.92896 4.39893 5.86521 4.39893C3.69763 5.35522 2.23133 7.52282 2.23133 10.0729C2.23133 10.6467 2.29508 11.2204 2.42258 11.7305C0.892526 13.133 0 15.1093 0 17.2132C0 19.4445 1.02003 21.5483 2.74135 22.9509C2.67759 23.2059 2.61383 23.4609 2.61383 23.7159C2.61383 23.8434 2.5501 23.9709 2.5501 24.0984C2.5501 24.1622 2.5501 24.2259 2.5501 24.2259C2.5501 26.521 4.20764 28.4336 6.43898 28.8799C6.949 30.6649 8.54282 31.8762 10.4554 31.8762C12.623 31.8762 14.408 30.2187 14.5993 28.1148C14.5993 28.0511 14.5993 28.0511 14.5993 27.9873C14.5993 27.9236 14.5993 27.796 14.5993 27.7323V3.50638C14.7906 1.53006 13.2605 0 11.3479 0ZM14.153 12.7505C14.153 13.8343 13.2605 14.7268 12.1767 14.7268C11.0929 14.7268 10.2004 13.8343 10.2004 12.7505H9.56286C9.56286 14.153 10.7104 15.3644 12.1767 15.3644C12.9417 15.3644 13.643 14.9818 14.153 14.4718V25.5647C13.7705 24.9272 13.1967 24.4172 12.4955 24.0347C12.4955 23.9709 12.4955 23.9072 12.4955 23.8434C12.4955 22.1859 11.1567 20.9108 9.56286 20.9108V21.5483C10.8379 21.5483 11.8579 22.5684 11.8579 23.8434C11.8579 25.1185 10.8379 26.1385 9.56286 26.1385V26.776C10.9017 26.776 12.0492 25.8835 12.368 24.6722C13.4518 25.3097 14.153 26.4572 14.153 27.7323C14.153 29.5811 12.6867 31.1112 10.8379 31.2387C10.7742 31.2387 10.7104 31.2387 10.6466 31.2387C8.98908 31.2387 7.52278 30.0911 7.20401 28.4973L7.14026 28.3061H6.94901C4.90893 28.0511 3.44263 26.3298 3.44263 24.2897C3.44263 24.0984 3.44263 23.9072 3.50638 23.7159C3.69764 22.8871 4.39891 22.2496 5.29144 22.2496C5.80146 22.2496 6.24773 22.4409 6.63025 22.7596C7.01276 23.1421 7.20401 23.5884 7.20401 24.0984H7.84154C7.84154 23.3972 7.58652 22.8234 7.0765 22.3133C6.56648 21.8671 5.99272 21.6121 5.29144 21.6121C4.52641 21.6121 3.82514 21.9946 3.37887 22.5046C1.78506 21.2296 0.828773 19.317 0.828773 17.2769C0.828773 15.4281 1.59379 13.7068 2.9326 12.4317C3.31511 13.4518 4.01639 14.3443 4.84517 15.0456C4.01639 15.3644 3.37887 16.1931 3.37887 17.1494C3.37887 18.4245 4.39891 19.3807 5.6102 19.3807V18.7432C4.71767 18.7432 4.01639 18.0419 4.01639 17.1494C4.01639 16.2569 4.71767 15.5556 5.54645 15.5556C6.43898 16.0656 7.39527 16.3844 8.47906 16.3844V15.7469C5.99272 15.6831 3.82513 13.9618 3.25136 11.4754C3.12385 10.8379 3.06011 10.2641 3.12386 9.69037C3.31512 9.05285 3.95264 8.67035 4.59016 8.67035C5.4827 8.67035 6.18397 9.37163 6.18397 10.2642H6.8215C6.8215 9.05287 5.80146 8.03283 4.59016 8.03283C4.14389 8.03283 3.76138 8.16032 3.37887 8.41533C3.76138 7.26778 4.59017 6.24774 5.67396 5.54647C5.73771 5.48271 5.80146 5.41895 5.92897 5.41895H5.99272C6.63025 5.10019 7.33152 4.84518 8.09654 4.78143C8.2878 5.29145 8.54281 5.73774 8.98907 6.12025C8.79782 6.50277 8.67031 6.88526 8.67031 7.33153C8.67031 8.0328 8.92533 8.67036 9.43535 9.11662L9.88162 8.67035C9.49911 8.28784 9.30784 7.84155 9.30784 7.33153C9.30784 6.82151 9.49911 6.3115 9.88162 5.99274C10.5829 5.29147 11.8579 5.29147 12.5592 5.99274L13.0055 5.54647C12.0492 4.59018 10.3279 4.59018 9.37159 5.54647L9.30784 5.61024C8.98907 5.22773 8.73408 4.84521 8.60658 4.33519C8.60658 4.27144 8.60658 4.27143 8.60658 4.20768V4.14391C8.60658 4.0164 8.54282 3.82518 8.54282 3.69767C8.54282 3.31516 8.60656 2.93263 8.73407 2.61387C8.79782 2.48637 8.86157 2.2951 8.98907 2.1676C8.98907 2.1676 8.98907 2.16761 8.98907 2.10386C9.05283 1.97636 9.18033 1.84883 9.30784 1.72132C9.30784 1.72132 9.30784 1.72134 9.37159 1.65759C9.4991 1.53008 9.62661 1.46633 9.75411 1.33882C9.75411 1.33882 9.81787 1.3388 9.81787 1.27505C9.94537 1.2113 10.0729 1.14755 10.2004 1.0838C10.2004 1.0838 10.2641 1.08381 10.2641 1.02006C10.3916 0.956309 10.5191 0.892549 10.7104 0.892549C10.7741 0.892549 10.7742 0.892549 10.8379 0.892549C11.0292 0.828797 11.1567 0.828812 11.3479 0.828812C12.878 0.828812 14.153 2.10384 14.153 3.63389V12.7505Z" fill="currentColor"/>
</svg>
