<svg width="41" height="32" viewBox="0 0 41 32" fill="none" xmlns="http://www.w3.org/2000/svg">
<path d="M37.6387 3.09582V0H0V24.5222H12.7906L8.06543 31.61H29.5733L24.4407 24.5222H31.2841V31.61H40.6531V3.17729H37.6387V3.09582ZM28.0254 30.7138H9.69482L13.8497 24.4407H23.5446L28.0254 30.7138ZM23.8704 23.626H13.3609H0.814691V0.733217H36.824V3.01435H31.3656V23.5446H23.8704V23.626ZM39.9198 30.7138H32.1803V24.4407V3.91051H37.6387H39.9198V30.7138Z" fill="currentColor"/>
<path d="M37.8832 6.76248C38.2431 6.76248 38.535 6.47069 38.535 6.11074C38.535 5.75079 38.2431 5.45898 37.8832 5.45898C37.5232 5.45898 37.2314 5.75079 37.2314 6.11074C37.2314 6.47069 37.5232 6.76248 37.8832 6.76248Z" fill="currentColor"/>
<path d="M38.8612 11.6504H33.3213V12.4651H38.8612V11.6504Z" fill="currentColor"/>
<path d="M38.8612 15.6426H33.3213V16.4573H38.8612V15.6426Z" fill="currentColor"/>
</svg>
