<svg width="23" height="41" viewBox="0 0 23 41" fill="none" xmlns="http://www.w3.org/2000/svg">
<path d="M21.2817 0H1.56121C0.657358 0 0 0.739538 0 1.56123V39.3588C0 40.2627 0.739526 40.92 1.56121 40.92H21.2817C22.1856 40.92 22.8429 40.1805 22.8429 39.3588V1.56123C22.8429 0.739538 22.1856 0 21.2817 0ZM22.0212 39.441C22.0212 39.8518 21.6926 40.1805 21.2817 40.1805H1.56121C1.15037 40.1805 0.821688 39.8518 0.821688 39.441V1.64337C0.821688 1.23253 1.15037 0.903836 1.56121 0.903836H21.2817C21.6926 0.903836 22.0212 1.23253 22.0212 1.64337V39.441Z" fill="currentColor"/>
<path d="M1.97266 39.1939H20.8715V3.86133H1.97266V39.1939ZM2.79434 4.60082H20.0498V38.29H2.79434V4.60082Z" fill="currentColor"/>
<path d="M11.422 3.28734C11.7507 3.28734 12.0793 3.04084 12.0793 2.63C12.0793 2.21915 11.8328 1.97266 11.422 1.97266C11.0112 1.97266 10.7646 2.21915 10.7646 2.63C10.7646 3.04084 11.0933 3.28734 11.422 3.28734Z" fill="currentColor"/>
</svg>
