<svg width="31" height="31" viewBox="0 0 31 31" fill="none" xmlns="http://www.w3.org/2000/svg">
<path d="M9.30192 16.8301C6.79272 16.8301 4.71191 18.9109 4.71191 21.4201C4.71191 23.9293 6.79272 26.0101 9.30192 26.0101C11.8111 26.0101 13.8919 23.9293 13.8919 21.4201C13.8919 18.9109 11.8723 16.8301 9.30192 16.8301ZM9.30192 25.3981C7.09872 25.3981 5.32391 23.6233 5.32391 21.4201C5.32391 19.2169 7.09872 17.4421 9.30192 17.4421C11.5051 17.4421 13.2799 19.2169 13.2799 21.4201C13.2799 23.6233 11.5051 25.3981 9.30192 25.3981Z" fill="currentColor"/>
<path d="M15.5448 17.5647L16.9524 15.6675L14.8716 13.5866L12.9132 14.9943C12.3624 14.6883 11.7504 14.4435 11.0772 14.2599L10.71 11.873H7.8948L7.52761 14.2599C6.9156 14.4435 6.3036 14.6883 5.6916 14.9943L3.7332 13.5866L1.6524 15.6675L3.06 17.5647C2.6928 18.1155 2.448 18.7887 2.2644 19.4619L0 19.8291V22.7667L2.2032 23.1339C2.3868 23.8071 2.6316 24.4803 2.9988 25.1535L1.7136 26.9283L3.7944 29.0091L5.508 27.7239C6.1812 28.1523 6.8544 28.3971 7.5888 28.5807L7.8948 30.6003H10.8324L11.1384 28.5195C11.8728 28.3359 12.546 28.0299 13.2192 27.6627L14.9328 28.9479L17.0136 26.8671L15.7284 25.0923C16.0956 24.4803 16.3404 23.8071 16.524 23.0727L18.7272 22.7055V19.7679L16.4628 19.4007C16.218 18.7887 15.912 18.1767 15.5448 17.5647ZM18.054 22.2159L15.9732 22.5219L15.912 22.7055C15.7284 23.5011 15.4836 24.2355 15.0552 24.9087L14.9328 25.0923L16.1568 26.7447L14.8104 28.0911L13.158 26.8671L12.9744 26.9895C12.3012 27.4179 11.5056 27.7851 10.71 27.9687L10.5264 28.0299L10.2204 30.0495H8.3844L8.0784 28.0299L7.8948 27.9687C7.0992 27.7851 6.3036 27.4791 5.6304 26.9895L5.4468 26.8671L3.7944 28.0911L2.448 26.7447L3.672 25.0923L3.5496 24.9087C3.1212 24.2355 2.8152 23.5011 2.6928 22.7055L2.6316 22.5219L0.5508 22.2159V20.3799L2.754 20.0739L2.8152 19.8903C2.9988 19.1559 3.3048 18.4827 3.7332 17.8095L3.8556 17.6259L2.5092 15.7899L3.8556 14.4435L5.6916 15.7899L5.8752 15.6675C6.4872 15.3003 7.1604 14.9943 7.8948 14.8719L8.0784 14.8107L8.44561 12.5463H10.2816L10.6488 14.8107L10.8324 14.8719C11.5668 15.0555 12.24 15.3003 12.852 15.6675L13.0356 15.7899L14.8716 14.4435L16.218 15.7899L14.8716 17.6259L14.994 17.8095C15.4224 18.4215 15.7284 19.1559 15.912 19.8903L15.9732 20.0739L18.1764 20.3799V22.2159H18.054Z" fill="currentColor"/>
<path d="M24.1131 11.873C23.2563 11.873 22.4607 12.2403 21.8487 12.8523C21.2367 13.4643 20.9307 14.2599 20.9307 15.1167C20.9307 15.9735 21.2979 16.7691 21.9099 17.3811C22.5219 17.9931 23.3175 18.2991 24.1743 18.2991C25.0311 18.2991 25.8267 17.9319 26.4387 17.3199C27.0507 16.7079 27.3567 15.9123 27.3567 15.0555C27.3567 14.1987 26.9895 13.403 26.3775 12.791C25.8267 12.2402 24.9699 11.873 24.1131 11.873ZM26.0103 16.9527C25.5207 17.4423 24.8475 17.7483 24.1743 17.7483C23.5011 17.7483 22.8279 17.5035 22.3383 17.0139C21.8487 16.5243 21.5427 15.8511 21.5427 15.1779C21.5427 14.5047 21.7875 13.8315 22.2771 13.3419C22.7667 12.8523 23.4399 12.5463 24.1131 12.5463C24.7863 12.5463 25.4595 12.791 25.9491 13.2806C26.4387 13.7703 26.7447 14.4435 26.7447 15.1167C26.7447 15.7899 26.4999 16.4631 26.0103 16.9527Z" fill="currentColor"/>
<path d="M29.0701 16.3408L30.6613 16.096V13.954L29.0089 13.7092C28.8865 13.342 28.7641 12.9136 28.5193 12.6076L29.4985 11.2612L27.9685 9.73116L26.6221 10.7104C26.2549 10.5268 25.8877 10.3432 25.5205 10.2208L25.2757 8.56836H23.1337L22.8889 10.1596C22.4605 10.282 22.0932 10.4044 21.6648 10.6492L20.3796 9.73116L18.8496 11.2612L19.7676 12.4852C19.5228 12.8524 19.3392 13.2808 19.2168 13.7704L17.748 14.0152V16.1572L19.2168 16.402C19.3392 16.8916 19.5228 17.32 19.7676 17.7484L18.9108 18.9112L20.4408 20.4412L21.6037 19.5844C22.0321 19.8292 22.4604 20.0128 22.95 20.1352L23.1949 21.604H25.3369L25.5817 20.074C26.0101 19.9516 26.4385 19.768 26.8669 19.5232L28.0909 20.4412L29.6209 18.9112L28.6417 17.626C28.7641 17.1976 28.9477 16.7692 29.0701 16.3408ZM28.7029 18.7888L27.9073 19.5844L26.7445 18.7276L26.5609 18.85C26.1325 19.156 25.6429 19.3396 25.0921 19.462L24.9085 19.5232L24.7249 20.9308H23.6233L23.4397 19.5844L23.256 19.5232C22.7052 19.4008 22.2156 19.2172 21.726 18.9112L21.5424 18.7888L20.4408 19.5844L19.6452 18.7888L20.4408 17.6872L20.3184 17.5036C20.0124 17.014 19.8288 16.5244 19.7064 15.9736L19.6452 15.79L18.2988 15.6064V14.5048L19.7064 14.3212L19.7676 14.1376C19.89 13.5868 20.0736 13.0972 20.3796 12.6688L20.502 12.4852L19.6452 11.3224L20.4408 10.5268L21.6037 11.3836L21.7873 11.2612C22.2157 11.0164 22.7053 10.8328 23.1949 10.7104L23.3784 10.6492L23.6233 9.18036H24.7249L24.9697 10.7104L25.1532 10.7716C25.6428 10.894 26.0713 11.0776 26.4997 11.3224L26.6833 11.4448L27.9073 10.5268L28.7029 11.3224L27.7849 12.6076L27.9073 12.7912C28.1521 13.2196 28.3357 13.648 28.4581 14.1376L28.5193 14.3212L30.0493 14.566V15.6676L28.5805 15.9124L28.5193 16.096C28.3969 16.5856 28.2133 17.0752 27.9685 17.5036L27.8461 17.6872L28.7029 18.7888Z" fill="currentColor"/>
<path d="M7.89453 5.1408V7.22161L9.30213 7.40521C9.42453 7.83361 9.60813 8.26201 9.79173 8.62921L8.99613 9.7308L10.4649 11.1996L11.5665 10.404C11.9337 10.6488 12.3621 10.7712 12.7905 10.8936L13.0353 12.3012H15.1161L15.2997 10.8936C15.7281 10.7712 16.0953 10.5876 16.4625 10.404L17.6253 11.2608L19.0941 9.79201L18.1761 8.56801C18.3597 8.20081 18.5433 7.8336 18.6045 7.4664L20.1345 7.22161V5.1408L18.5433 4.896C18.4209 4.5288 18.2985 4.1616 18.1149 3.8556L19.0329 2.5704L17.5641 1.1016L16.2789 2.0196C15.9729 1.836 15.6057 1.6524 15.2385 1.5912L14.9937 0H12.9129L12.6681 1.53C12.3009 1.6524 11.9337 1.7748 11.5665 1.9584L10.3425 1.0404L8.87373 2.50921L9.73053 3.672C9.48573 4.0392 9.36333 4.4064 9.24093 4.8348L7.89453 5.1408ZM9.85293 5.26321C9.97533 4.77361 10.1589 4.284 10.4649 3.9168L10.5873 3.73321L9.79173 2.6316L10.5261 1.8972L11.6277 2.6928L11.8113 2.5704C12.2397 2.3256 12.6681 2.142 13.0965 2.0196L13.2801 1.9584L13.4637 0.550797H14.5041L14.7489 2.0196L14.9325 2.0808C15.3609 2.2032 15.7893 2.3868 16.2177 2.6316L16.4013 2.754L17.5641 1.8972L18.2985 2.6316L17.4417 3.7944L17.5641 3.978C17.8089 4.3452 17.9925 4.77361 18.1149 5.26321L18.1761 5.4468L19.6449 5.69161V6.732L18.2373 6.9768L18.1761 7.1604C18.0537 7.65 17.9313 8.0784 17.6865 8.5068L17.5641 8.6904L18.4209 9.79201L17.6865 10.5264L16.5849 9.7308L16.4013 9.85321C15.9729 10.1592 15.5445 10.3428 15.0549 10.4652L14.8713 10.5264L14.6877 11.8116H13.6473L13.4637 10.5264L13.2801 10.4652C12.7905 10.3428 12.3009 10.1592 11.8725 9.9144L11.6889 9.79201L10.6485 10.5264L9.91413 9.79201L10.6485 8.75161L10.5261 8.56801C10.2201 8.13961 10.0365 7.65 9.91413 7.1604L9.85293 6.9768L8.56773 6.79321V5.7528L9.85293 5.56921V5.26321Z" fill="currentColor"/>
<path d="M13.9542 9.30229C14.0154 9.30229 14.0154 9.30229 13.9542 9.30229C14.811 9.30229 15.5454 8.99629 16.1574 8.38429C17.3814 7.16029 17.3202 5.2019 16.1574 4.03909C15.5454 3.48829 14.811 3.12109 14.0154 3.12109C13.2198 3.12109 12.4242 3.42709 11.8122 4.03909C10.5882 5.2631 10.6494 7.22149 11.8122 8.38429C12.363 8.99629 13.1586 9.30229 13.9542 9.30229ZM12.2406 4.46749C12.7302 3.97789 13.3422 3.73309 14.0154 3.73309C14.6886 3.73309 15.3006 3.97789 15.729 4.46749C16.7082 5.44669 16.7082 6.97669 15.729 7.95589C15.2394 8.44549 14.6274 8.69029 13.9542 8.69029C13.281 8.69029 12.669 8.44549 12.1794 7.95589C11.2614 7.03789 11.2614 5.44669 12.2406 4.46749Z" fill="currentColor"/>
</svg>
