<svg width="35" height="35" viewBox="0 0 35 35" fill="none" xmlns="http://www.w3.org/2000/svg">
<path d="M34.3526 17.0034C34.3526 16.0474 33.6014 15.2279 32.7137 15.0914L32.5089 14.6134L31.8943 14.8865L31.9625 15.0914C31.2114 15.2962 30.6651 15.9108 30.5285 16.662H26.2947C26.1582 14.5451 25.3387 12.4965 23.8364 10.9259L26.841 7.98957C27.1142 8.19443 27.5239 8.26269 27.8653 8.26269C28.2068 8.26269 28.6165 8.12614 28.8896 7.98957L29.5042 7.7164L29.3677 7.44328C29.6408 7.10185 29.7774 6.69212 29.7091 6.2824C29.7091 5.7361 29.5042 5.25809 29.0945 4.91666C28.7531 4.57523 28.2751 4.37037 27.7288 4.37037C27.2508 4.37037 26.841 4.50691 26.4996 4.84835L26.0899 4.71181L25.8167 5.32636L26.0216 5.39468C25.885 5.66782 25.7485 6.00923 25.7485 6.35067C25.7485 6.76039 25.885 7.2384 26.1582 7.51155L23.1535 10.4479C21.5147 8.94557 19.3978 8.05784 17.1443 8.05784V3.89236C17.9638 3.82407 18.6466 3.20948 18.8515 2.39004H18.9198L19.1929 1.77544L18.9198 1.6389C18.7832 0.682885 17.9637 0 17.0077 0C16.4614 0 15.9834 0.204877 15.642 0.614598C15.3006 0.956032 15.0957 1.50233 15.0957 1.98033V2.0486C15.0957 2.52661 15.3006 3.00464 15.642 3.34607C15.9151 3.61922 16.1883 3.75576 16.5297 3.82405V8.05784C14.3446 8.19441 12.3642 9.15044 10.8619 10.5845L7.92559 7.57982C8.13045 7.23839 8.26702 6.89697 8.26702 6.48725C8.26702 6.2141 8.19872 5.94095 8.06215 5.6678L8.33532 5.53122L8.06215 4.91666L7.65245 5.12151C7.31101 4.78008 6.833 4.57523 6.28671 4.57523C5.74042 4.57523 5.26241 4.78006 4.92097 5.18978C4.57954 5.53122 4.37467 6.07751 4.37467 6.55552C4.37467 6.96524 4.51124 7.37497 4.78439 7.7164L4.57954 8.26269L5.19412 8.53585L5.33068 8.19442C5.60383 8.39928 5.94528 8.46758 6.28671 8.46758C6.69643 8.46758 7.03785 8.33101 7.37928 8.12615L10.3156 11.1307C8.88161 12.7013 8.06217 14.75 7.99388 17.0034H3.82838C3.69181 16.1157 2.94065 15.4328 2.05292 15.4328L1.71148 15.2963L1.64319 15.4328C0.687178 15.5694 -0.0639734 16.3889 0.00431348 17.3449C0.00431348 18.3692 0.755469 19.1203 1.71148 19.2569L1.77978 19.4617L2.39435 19.1886C2.73579 19.1203 3.00893 18.9155 3.28207 18.7106C3.55522 18.4375 3.76009 18.096 3.82838 17.6863H8.06215C8.19872 19.8715 9.08646 21.9201 10.5205 23.4224L7.51587 26.3587C7.24272 26.1538 6.90128 26.0856 6.49156 26.0856C6.15013 26.0856 5.8087 26.2221 5.53555 26.3587L5.46726 26.1539L4.85268 26.427L5.05753 26.8367C4.78439 27.1782 4.64781 27.5879 4.64781 27.9976C4.64781 28.5439 4.85269 29.0219 5.26241 29.3633C5.67213 29.7048 6.15014 29.9096 6.62814 29.9096C7.10615 29.9096 7.65245 29.7048 7.99388 29.2951L8.06215 29.2268L8.33532 29.3633L8.60846 28.7487L8.40359 28.6805C8.47187 28.4756 8.54017 28.2025 8.54017 27.9976C8.54017 27.5879 8.40359 27.1099 8.13044 26.8367L11.1351 23.9004C12.7057 25.3344 14.8226 26.2904 17.1443 26.2904V30.4559C16.6663 30.5242 16.2566 30.6608 15.9834 31.0022C15.7786 31.2071 15.642 31.412 15.5737 31.6851L15.3006 32.2997L15.4371 32.368C15.4371 33.4606 16.3249 34.28 17.3492 34.28C18.3052 34.28 19.1246 33.5288 19.2612 32.6411L19.3978 32.5728L19.2612 32.2997C19.2612 31.4119 18.6466 30.7291 17.8272 30.5242V26.2904C20.0124 26.1539 21.9927 25.1978 23.495 23.7638L26.4313 26.7684C25.9533 27.4513 25.9533 28.3391 26.4313 28.9536L26.0899 29.0902L26.363 29.7048L26.9776 29.4316C27.319 29.6365 27.6605 29.773 28.0019 29.773C28.5482 29.773 29.0262 29.5682 29.3677 29.1585C30.0505 28.4073 30.1188 27.2464 29.4359 26.4953L29.5042 26.2904L28.8896 26.0173C28.6165 25.8807 28.2751 25.8124 28.0019 25.8124C27.5922 25.8124 27.2508 25.949 26.9093 26.1539L23.973 23.1493C25.407 21.5787 26.2265 19.53 26.2947 17.2766H30.4602C30.5285 17.6863 30.7334 18.0277 31.0065 18.3009C31.2114 18.5057 31.5528 18.7106 31.826 18.7789L31.7577 18.9837L32.3723 19.2569L32.5089 18.8472C32.9869 18.7789 33.3966 18.6423 33.738 18.3009C34.1477 17.9594 34.3526 17.4814 34.3526 17.0034ZM2.94064 18.1643C2.73578 18.4374 2.39435 18.5057 2.05292 18.574C1.37005 18.574 0.823764 18.0277 0.823764 17.3449C0.823764 16.662 1.37005 16.0474 2.05292 16.0474C2.73579 16.0474 3.28207 16.5937 3.28207 17.2766C3.35036 17.618 3.21379 17.8911 2.94064 18.1643ZM13.5251 20.8958C13.73 21.8518 14.0031 22.6712 14.3445 23.4224C14.686 24.2418 15.0957 24.8564 15.5737 25.2661C12.3642 24.5833 9.83761 22.1249 9.08645 18.9155C9.97418 19.8715 11.5448 20.5543 13.5251 20.8958ZM8.8816 17.2083C8.8816 16.3888 9.70104 15.5011 11.2034 14.8183C11.8179 14.5451 12.5691 14.272 13.3885 14.1354C13.252 15.0914 13.1837 16.1157 13.1837 17.14C13.1837 18.1643 13.252 19.1886 13.4568 20.1446C10.7254 19.5983 8.8816 18.5057 8.8816 17.2083ZM17.2809 25.5393C16.3931 25.5393 15.5737 24.7198 14.8908 23.2175C14.6177 22.6029 14.3445 21.8518 14.208 21.0323C15.0957 21.1689 16.0517 21.2372 17.0077 21.2372C17.076 21.2372 17.1443 21.2372 17.2126 21.2372C18.2369 21.2372 19.2612 21.1689 20.2172 20.9641C20.0806 21.7835 19.8075 22.4664 19.5344 23.1493C18.9881 24.6516 18.1686 25.5393 17.2809 25.5393ZM17.2809 20.5543C16.1883 20.5543 15.0957 20.486 14.1397 20.3495C13.9348 19.3935 13.8665 18.3009 13.8665 17.2083C13.8665 16.1157 13.9348 15.0231 14.0714 14.0671C15.0274 13.8622 16.12 13.7939 17.2126 13.7939C18.3052 13.7939 19.3978 13.8622 20.3538 13.9988C20.5586 14.9548 20.6269 16.0474 20.6269 17.14C20.6269 18.2326 20.5586 19.3252 20.4221 20.2812C19.3978 20.4178 18.3735 20.5543 17.2809 20.5543ZM17.1443 8.74071C17.9638 8.74071 18.8515 9.56017 19.5344 11.0625C19.8075 11.6771 20.0806 12.4282 20.2172 13.2477C19.2612 13.1111 18.2369 13.0428 17.2126 13.0428C16.1883 13.0428 15.164 13.1111 14.208 13.3159C14.7543 10.6527 15.8469 8.74071 17.1443 8.74071ZM21.0366 14.0671C21.8561 14.2036 22.539 14.4768 23.2218 14.7499C24.7241 15.3645 25.6119 16.2523 25.6119 17.0717C25.6119 17.8912 24.7924 18.7789 23.2901 19.4617C22.6755 19.7349 21.9244 20.008 21.1049 20.1446C21.2415 19.1886 21.3098 18.1643 21.3098 17.14C21.3098 16.0474 21.2415 15.0231 21.0366 14.0671ZM27.8653 5.05324C28.2068 5.05324 28.5482 5.18982 28.7531 5.39468C29.0262 5.59954 29.0945 5.94096 29.1628 6.2824C29.1628 6.62383 29.0262 6.96526 28.8214 7.17012C28.6165 7.44326 28.2751 7.51154 27.9336 7.57982C27.5922 7.57982 27.319 7.44325 27.0459 7.23839C26.7728 7.03353 26.7045 6.6921 26.6362 6.35067C26.6362 6.00923 26.7728 5.66781 26.9776 5.46295C27.1825 5.1898 27.5239 5.05324 27.8653 5.05324ZM25.407 15.2963C24.929 14.8865 24.3144 14.4768 23.495 14.1354C22.7438 13.7939 21.8561 13.5891 20.9001 13.3842C20.6952 12.4282 20.4221 11.6088 20.0806 10.8576C19.7392 10.0382 19.3295 9.42357 18.8515 8.94556C20.4221 9.28699 21.8561 10.0382 23.017 11.1991C24.2461 12.2916 25.0656 13.7257 25.407 15.2963ZM15.8469 1.98033C15.8469 1.6389 15.9834 1.29743 16.1883 1.09257C16.3932 0.887712 16.7346 0.751155 17.076 0.682868C17.4175 0.682868 17.6906 0.819442 17.9637 1.0243C18.2369 1.22916 18.3052 1.57059 18.3735 1.91202C18.3735 2.59489 17.8272 3.20949 17.1443 3.20949C16.8029 3.20949 16.4614 3.07292 16.2566 2.86806C15.9834 2.66319 15.8469 2.32177 15.8469 1.98033ZM15.3689 8.94556C14.4811 9.90157 13.7983 11.4722 13.4568 13.4525C12.5008 13.6574 11.6814 13.9305 10.9302 14.272C10.1108 14.6134 9.49617 15.0231 9.08645 15.5011C9.42789 13.9305 10.1791 12.4965 11.3399 11.3356C12.3642 10.1064 13.7983 9.28699 15.3689 8.94556ZM6.42327 7.78472C6.15012 7.78472 5.74041 7.64814 5.53555 7.44328C5.2624 7.23842 5.19411 6.89695 5.12583 6.55552C5.12583 6.21409 5.2624 5.87266 5.46726 5.6678C5.67212 5.39465 6.01355 5.32638 6.35498 5.25809C6.69641 5.25809 6.96957 5.39467 7.24272 5.59953C7.51587 5.80439 7.58416 6.14582 7.65245 6.48725C7.65245 6.82868 7.51587 7.17011 7.31101 7.37497C7.10615 7.64812 6.76471 7.78472 6.42327 7.78472ZM5.7404 28.8853C5.46726 28.6805 5.39896 28.339 5.33068 27.9976C5.33068 27.6562 5.46725 27.3147 5.67211 27.1099C5.87697 26.8367 6.21842 26.7684 6.55985 26.7001C6.90129 26.7001 7.17443 26.8367 7.44757 27.0416C7.72072 27.2464 7.78901 27.5879 7.8573 27.9293C7.8573 28.2708 7.72073 28.6122 7.51587 28.8171C7.03786 29.3633 6.21841 29.3633 5.7404 28.8853ZM18.6466 32.2997C18.6466 32.9825 18.1003 33.5971 17.4175 33.5971C16.7346 33.5971 16.1883 33.0508 16.1883 32.368C16.1883 32.0265 16.3249 31.6851 16.5297 31.4802C16.7346 31.2071 17.076 31.1388 17.4175 31.0705C18.1003 31.0022 18.6466 31.6168 18.6466 32.2997ZM19.1246 25.3344C19.5343 24.8564 19.9441 24.2418 20.2855 23.4224C20.6269 22.6712 20.8318 21.7835 21.0366 20.8275C21.9927 20.6226 22.8121 20.3495 23.6316 20.008C24.451 19.6666 25.0656 19.2569 25.4753 18.7789C25.1339 20.3495 24.3827 21.7835 23.2218 22.9444C22.061 24.1735 20.6269 24.9247 19.1246 25.3344ZM28.0702 26.4953C28.4116 26.4953 28.7531 26.6319 28.9579 26.8367C29.4359 27.3147 29.4359 28.1342 28.9579 28.6122C28.7531 28.8853 28.4116 28.9536 28.0702 29.0219C27.7288 29.0219 27.3873 28.8853 27.1825 28.6805C26.9093 28.4756 26.841 28.1342 26.7728 27.7928C26.7728 27.4513 26.9093 27.1099 27.1142 26.905C27.3873 26.6319 27.7288 26.4953 28.0702 26.4953ZM33.3283 17.8912C33.1234 18.1643 32.782 18.2326 32.4406 18.3009C32.0991 18.3009 31.7577 18.1643 31.5528 17.9594C31.2797 17.7546 31.2114 17.4131 31.1431 17.0717C31.0748 16.7303 31.2797 16.3888 31.4845 16.184C31.6894 15.9108 32.0308 15.8425 32.3723 15.7742C33.0551 15.7742 33.6014 16.3206 33.6014 17.0034C33.6697 17.3449 33.5331 17.618 33.3283 17.8912Z" fill="currentColor"/>
<path d="M3.38585 21.023L2.75781 21.291L3.02584 21.919L3.65387 21.651L3.38585 21.023Z" fill="currentColor"/>
<path d="M2.82432 19.7339L2.19629 20.002L2.46431 20.63L3.09235 20.362L2.82432 19.7339Z" fill="currentColor"/>
<path d="M4.95323 24.7925L4.3252 25.0605L4.59322 25.6886L5.22126 25.4206L4.95323 24.7925Z" fill="currentColor"/>
<path d="M3.92003 22.2496L3.29199 22.5176L3.56002 23.1456L4.18805 22.8776L3.92003 22.2496Z" fill="currentColor"/>
<path d="M4.47624 23.6178L3.84766 23.8848L4.11459 24.5133L4.74317 24.2464L4.47624 23.6178Z" fill="currentColor"/>
<path d="M10.7051 3.91633L10.0742 4.17773L10.3356 4.80857L10.9665 4.54717L10.7051 3.91633Z" fill="currentColor"/>
<path d="M9.45603 4.38508L8.8252 4.64648L9.0866 5.27732L9.71743 5.01592L9.45603 4.38508Z" fill="currentColor"/>
<path d="M11.9902 3.35774L11.3594 3.61914L11.6208 4.24997L12.2516 3.98857L11.9902 3.35774Z" fill="currentColor"/>
<path d="M14.5244 2.33235L13.8936 2.59375L14.155 3.22458L14.7858 2.96318L14.5244 2.33235Z" fill="currentColor"/>
<path d="M13.2129 2.82649L12.582 3.08789L12.8434 3.71872L13.4743 3.45732L13.2129 2.82649Z" fill="currentColor"/>
<path d="M23.6725 3.59182L23.4111 4.22266L24.042 4.48406L24.3034 3.85322L23.6725 3.59182Z" fill="currentColor"/>
<path d="M24.945 4.15237L24.6836 4.7832L25.3144 5.04461L25.5758 4.41377L24.945 4.15237Z" fill="currentColor"/>
<path d="M21.1686 2.55667L20.9072 3.1875L21.5381 3.4489L21.7995 2.81807L21.1686 2.55667Z" fill="currentColor"/>
<path d="M19.8698 2.05667L19.6084 2.6875L20.2392 2.9489L20.5006 2.31807L19.8698 2.05667Z" fill="currentColor"/>
<path d="M22.4391 3.11917L22.1777 3.75L22.8086 4.0114L23.07 3.38057L22.4391 3.11917Z" fill="currentColor"/>
<path d="M9.22039 28.9785L8.95898 29.6094L9.58982 29.8708L9.85122 29.2399L9.22039 28.9785Z" fill="currentColor"/>
<path d="M12.9968 30.5742L12.7354 31.2051L13.3662 31.4665L13.6276 30.8356L12.9968 30.5742Z" fill="currentColor"/>
<path d="M10.4928 29.541L10.2314 30.1719L10.8623 30.4333L11.1237 29.8024L10.4928 29.541Z" fill="currentColor"/>
<path d="M14.2946 31.0742L14.0332 31.7051L14.664 31.9665L14.9254 31.3356L14.2946 31.0742Z" fill="currentColor"/>
<path d="M11.7262 30.0137L11.4648 30.6445L12.0957 30.9059L12.3571 30.2751L11.7262 30.0137Z" fill="currentColor"/>
<path d="M21.6826 30.8167L21.0518 31.0781L21.3132 31.709L21.944 31.4476L21.6826 30.8167Z" fill="currentColor"/>
<path d="M20.459 31.348L19.8281 31.6094L20.0895 32.2402L20.7204 31.9788L20.459 31.348Z" fill="currentColor"/>
<path d="M22.9043 30.2835L22.2734 30.5449L22.5348 31.1758L23.1657 30.9144L22.9043 30.2835Z" fill="currentColor"/>
<path d="M24.2158 29.7894L23.585 30.0508L23.8464 30.6816L24.4772 30.4202L24.2158 29.7894Z" fill="currentColor"/>
<path d="M25.4375 29.2562L24.8066 29.5176L25.068 30.1484L25.6989 29.887L25.4375 29.2562Z" fill="currentColor"/>
<path d="M3.90126 10.1535L3.64648 10.7871L4.28005 11.0419L4.53483 10.4083L3.90126 10.1535Z" fill="currentColor"/>
<path d="M2.37685 13.9992L2.12207 14.6328L2.75564 14.8876L3.01041 14.254L2.37685 13.9992Z" fill="currentColor"/>
<path d="M2.87099 12.6867L2.61621 13.3203L3.24978 13.5751L3.50455 12.9415L2.87099 12.6867Z" fill="currentColor"/>
<path d="M3.40517 11.466L3.15039 12.0996L3.78396 12.3544L4.03873 11.7208L3.40517 11.466Z" fill="currentColor"/>
<path d="M4.43544 8.93089L4.18066 9.56445L4.81423 9.81923L5.06901 9.18567L4.43544 8.93089Z" fill="currentColor"/>
<path d="M31.0038 20.9367L30.749 21.5703L31.3826 21.8251L31.6374 21.1915L31.0038 20.9367Z" fill="currentColor"/>
<path d="M30.5097 22.2492L30.2549 22.8828L30.8884 23.1376L31.1432 22.504L30.5097 22.2492Z" fill="currentColor"/>
<path d="M31.538 19.7141L31.2832 20.3477L31.9168 20.6024L32.1715 19.9689L31.538 19.7141Z" fill="currentColor"/>
<path d="M29.9765 23.4719L29.7217 24.1055L30.3552 24.3602L30.61 23.7267L29.9765 23.4719Z" fill="currentColor"/>
<path d="M29.4804 24.7825L29.2256 25.416L29.8592 25.6708L30.1139 25.0372L29.4804 24.7825Z" fill="currentColor"/>
<path d="M31.3829 12.0874L30.7549 12.3555L31.0229 12.9835L31.6509 12.7155L31.3829 12.0874Z" fill="currentColor"/>
<path d="M31.9782 13.3639L31.3496 13.6309L31.6165 14.2594L32.2451 13.9925L31.9782 13.3639Z" fill="currentColor"/>
<path d="M30.8233 10.7984L30.1953 11.0664L30.4633 11.6944L31.0914 11.4264L30.8233 10.7984Z" fill="currentColor"/>
<path d="M29.7901 8.25541L29.1621 8.52344L29.4301 9.15147L30.0582 8.88345L29.7901 8.25541Z" fill="currentColor"/>
<path d="M30.3483 9.61979L29.7197 9.88672L29.9867 10.5153L30.6152 10.2484L30.3483 9.61979Z" fill="currentColor"/>
</svg>
