<svg width="30" height="30" viewBox="0 0 30 30" fill="none" xmlns="http://www.w3.org/2000/svg">
<path d="M0 29.9594H7.72778V14.9199H0V29.9594ZM0.594444 15.5144H7.13333V29.4244H0.594444V15.5144Z" fill="currentColor"/>
<path d="M21.9346 0V29.96H29.6623V0H21.9346ZM29.0679 29.3655H22.529V0.594444H29.0679V29.3655Z" fill="currentColor"/>
<path d="M10.9971 29.9591H18.7248V7.42969H10.9971V29.9591ZM11.5915 8.02413H18.1304V29.3647H11.5915V8.02413Z" fill="currentColor"/>
<path d="M17.5358 1.48516L12.3641 5.34905L10.1647 2.85239L0.772461 11.2935L1.18857 11.7096L10.1052 3.68461L12.3047 6.18127L17.9519 1.90128L19.0219 2.97128V0.474609H16.5252L17.5358 1.48516Z" fill="currentColor"/>
</svg>
