<svg width="33" height="33" viewBox="0 0 33 33" fill="currentColor" xmlns="http://www.w3.org/2000/svg">
<path d="M20.2999 0C14.4815 0 8.33977 1.29296 8.33977 3.68498V9.89134C6.78818 10.2792 5.49519 11.3783 4.91335 12.8652C2.19808 12.8652 0 15.0633 0 17.7786C0 20.4938 2.19808 22.6919 4.91335 22.6919H8.33977V28.575C8.33977 30.967 14.4815 32.26 20.2999 32.26C26.1183 32.26 32.26 30.967 32.26 28.575V20.2999V20.2352V12.0248V11.9601V3.74965C32.26 1.29298 26.0537 0 20.2999 0ZM20.2999 0.646493C26.9588 0.646493 31.6135 2.2627 31.6135 3.68498C31.6135 5.10727 26.9588 6.72351 20.2999 6.72351C13.641 6.72351 8.98626 5.10727 8.98626 3.68498C8.98626 2.2627 13.641 0.646493 20.2999 0.646493ZM0.646494 17.7786C0.646494 15.4512 2.58597 13.5117 4.91335 13.5117C4.978 13.5117 5.04265 13.5117 5.1073 13.5117H5.36589L5.43055 13.2531C6.01239 11.5076 7.62863 10.3439 9.50346 10.3439C11.5722 10.3439 13.3178 11.7662 13.7057 13.7703L13.7703 14.0289H14.0289C15.7744 13.8996 17.2614 15.2572 17.2614 17.0028V17.3906L17.6493 17.2613C19.2009 16.8734 20.6231 18.0372 20.6231 19.5887C20.6231 20.8817 19.5241 21.9808 18.2311 21.9808H4.91335C2.52132 22.0454 0.646494 20.1059 0.646494 17.7786ZM17.52 15.5158C18.4251 15.5805 19.3302 15.6451 20.2352 15.6451C24.89 15.6451 29.8034 14.8047 31.5489 13.2531V20.2352C31.5489 21.6575 26.8941 23.2738 20.2352 23.2738C17.9725 23.2738 15.7744 23.0798 13.9643 22.7565H18.2311C19.912 22.7565 21.2696 21.3989 21.2696 19.7181C21.2696 17.9079 19.6534 16.4856 17.8432 16.6795C17.8432 16.227 17.7139 15.8391 17.52 15.5158ZM20.2999 31.5489C13.641 31.5489 8.98626 29.9326 8.98626 28.5103V22.6273H11.3783C13.641 23.4031 16.8735 23.791 20.2999 23.791C24.9547 23.791 29.868 22.9505 31.6135 21.3989V28.5103C31.6135 29.9973 26.9588 31.5489 20.2999 31.5489ZM31.6135 11.9601C31.6135 13.3824 26.9588 14.9986 20.2999 14.9986C19.2655 14.9986 18.1665 14.934 17.1967 14.8693C16.5502 13.9643 15.5158 13.4471 14.2875 13.4471C13.7703 11.3136 11.7662 9.76204 9.50346 9.76204C9.30951 9.76204 9.18021 9.76202 8.98626 9.82667V4.91333C10.7318 6.46492 15.6451 7.30537 20.2999 7.30537C24.9547 7.30537 29.868 6.46492 31.6135 4.91333V11.9601Z" />
<path d="M27.9281 11.0555C28.5351 11.0555 29.0272 10.5635 29.0272 9.95647C29.0272 9.34949 28.5351 8.85742 27.9281 8.85742C27.3212 8.85742 26.8291 9.34949 26.8291 9.95647C26.8291 10.5635 27.3212 11.0555 27.9281 11.0555Z" />
<path d="M27.9281 19.5887C28.51 19.5887 29.0272 19.1362 29.0272 18.4897C29.0272 17.9078 28.5746 17.3906 27.9281 17.3906C27.2817 17.3906 26.8291 17.8432 26.8291 18.4897C26.8291 19.1362 27.2817 19.5887 27.9281 19.5887Z" />
<path d="M27.9281 28.1219C28.5351 28.1219 29.0272 27.6299 29.0272 27.0229C29.0272 26.4159 28.5351 25.9238 27.9281 25.9238C27.3212 25.9238 26.8291 26.4159 26.8291 27.0229C26.8291 27.6299 27.3212 28.1219 27.9281 28.1219Z" />
</svg>
