<svg width="22" height="35" viewBox="0 0 22 35" fill="none" xmlns="http://www.w3.org/2000/svg">
<path d="M20.405 34.9193L21.0361 34.7089L13.4631 12.2703L11.0089 5.11808C11.2894 4.97784 11.4997 4.62723 11.4997 4.27663C11.4997 3.71566 11.079 3.29492 10.5181 3.29492C9.9571 3.29492 9.53638 3.71566 9.53638 4.27663C9.53638 4.62723 9.74674 4.97784 10.0272 5.11808L7.57301 12.2703L0 34.7089L0.63108 34.9193L1.19205 33.3065L10.0973 28.3279V33.0961H10.7985V28.3279L19.7038 33.3065L20.405 34.9193ZM10.3077 18.2306L5.60963 20.8952L8.34433 12.7612L10.3077 11.6393V18.2306ZM11.0089 11.6393L12.9723 12.7612L15.707 20.8952L11.0089 18.3007V11.6393ZM11.0089 10.8679V7.0113L12.6217 11.7795L11.0089 10.8679ZM10.3077 7.0113V10.8679L8.69493 11.7795L10.3077 7.0113ZM1.68289 32.3248L5.18891 21.8768L10.2376 19.072V27.5566L1.68289 32.3248ZM11.0089 27.4865V19.0019L16.0576 21.8067L19.5636 32.2547L11.0089 27.4865Z" fill="currentColor"/>
<path d="M15.2158 8.06385L15.7067 8.5547C16.7585 7.36266 17.3194 5.89014 17.3194 4.27737C17.3194 2.73472 16.7585 1.19205 15.7067 0L15.2158 0.490852C16.1274 1.54266 16.6884 2.87496 16.6884 4.27737C16.6884 5.67978 16.1274 7.01204 15.2158 8.06385Z" fill="currentColor"/>
<path d="M14.1655 7.36357C14.9368 6.52213 15.3575 5.4002 15.3575 4.20815C15.3575 3.01611 14.9368 1.9643 14.1655 1.05273L13.6045 1.54359C14.2356 2.24479 14.5862 3.22647 14.5862 4.20815C14.5862 5.18984 14.2356 6.17156 13.6045 6.87277L14.1655 7.36357Z" fill="currentColor"/>
<path d="M12.5512 6.45099C13.042 5.81991 13.3225 5.0486 13.3225 4.27728C13.3225 3.50595 13.042 2.7346 12.5512 2.10352L11.9902 2.52426C12.411 3.01511 12.6213 3.64619 12.6213 4.27728C12.6213 4.90836 12.411 5.53944 11.9902 6.03029L12.5512 6.45099Z" fill="currentColor"/>
<path d="M6.03037 8.06385C5.11881 7.01204 4.55784 5.67978 4.55784 4.27737C4.55784 2.87496 5.04868 1.54266 6.03037 0.490852L5.53952 0C4.48771 1.19205 3.92676 2.6646 3.92676 4.27737C3.92676 5.89014 4.48771 7.36266 5.53952 8.5547L6.03037 8.06385Z" fill="currentColor"/>
<path d="M7.08248 7.36357L7.57332 6.87277C6.94224 6.17156 6.59163 5.18984 6.59163 4.20815C6.59163 3.22647 6.94224 2.24479 7.57332 1.54359L7.01236 1.05273C6.24103 1.89418 5.82031 3.01611 5.82031 4.20815C5.89043 5.4002 6.31116 6.52213 7.08248 7.36357Z" fill="currentColor"/>
<path d="M9.25709 5.95993C8.83637 5.46909 8.62601 4.838 8.62601 4.20692C8.62601 3.57584 8.83637 2.94475 9.25709 2.45391L8.69612 2.0332C8.20528 2.66429 7.9248 3.43559 7.9248 4.20692C7.9248 4.97824 8.20528 5.7496 8.69612 6.38068L9.25709 5.95993Z" fill="currentColor"/>
</svg>
