<svg width="35" height="35" viewBox="0 0 35 35" fill="none" xmlns="http://www.w3.org/2000/svg">
<path d="M18.5391 9.92956C18.4002 9.92956 18.2613 9.92954 18.1225 9.99898L16.3867 8.88808C16.3867 8.33262 15.9006 7.91602 15.4146 7.91602C14.8592 7.91602 14.4426 8.33262 14.4426 8.88808C14.4426 9.09638 14.512 9.23521 14.5814 9.37407L11.457 13.4012C11.3181 13.2623 11.0404 13.1928 10.8321 13.1928C10.2766 13.1928 9.86006 13.6094 9.86006 14.1649V14.2343L6.94391 14.9981C6.73561 14.7204 6.4579 14.5121 6.11074 14.5121C5.55528 14.5121 5.13867 14.9287 5.13867 15.4841C5.13867 16.0396 5.55528 16.4561 6.11074 16.4561C6.59676 16.4561 7.01335 16.109 7.08278 15.6229L10.1378 14.8592C10.3461 15.0675 10.5544 15.137 10.8321 15.137C11.3876 15.137 11.8041 14.7204 11.8041 14.1649V14.0955L15.0675 9.8601C15.2063 9.92953 15.2758 9.92956 15.4146 9.92956C15.6923 9.92956 15.9701 9.7907 16.1784 9.5824L17.6364 10.5544C17.567 10.6933 17.567 10.8322 17.567 10.971C17.567 11.5265 17.9836 11.9431 18.5391 11.9431C19.0945 11.9431 19.5111 11.5265 19.5111 10.971C19.5111 10.4156 19.0251 9.92956 18.5391 9.92956Z" fill="currentColor"/>
<path d="M12.2899 1.73633C6.52704 1.73633 1.80566 6.45773 1.80566 12.2206C1.80566 14.9979 2.91657 17.6363 4.86067 19.6498C6.80476 21.5939 9.44319 22.7048 12.2899 22.7048C18.0528 22.7048 22.7741 17.9834 22.7741 12.2206C22.7741 6.45773 18.0528 1.73633 12.2899 1.73633ZM12.2899 22.0105C9.65148 22.0105 7.22136 20.969 5.3467 19.1638C3.47204 17.2891 2.49998 14.859 2.49998 12.2206C2.49998 6.80489 6.8742 2.43065 12.2899 2.43065C17.7056 2.43065 22.0798 6.80489 22.0798 12.2206C22.0798 17.6363 17.6362 22.0105 12.2899 22.0105Z" fill="currentColor"/>
<path d="M21.7322 19.927C23.468 17.7746 24.4401 15.0668 24.4401 12.2201C24.4401 5.48515 18.9549 0 12.22 0C5.48513 0 0 5.48515 0 12.2201C0 18.955 5.48513 24.4401 12.22 24.4401C14.9973 24.4401 17.7052 23.468 19.927 21.7322L32.4247 34.23L34.23 32.4247L21.7322 19.927ZM19.9964 20.7602L19.7187 20.9685C17.6357 22.7737 14.9973 23.7457 12.22 23.7457C5.90172 23.7457 0.69432 18.6078 0.69432 12.2201C0.69432 5.90174 5.83229 0.69432 12.22 0.69432C18.5383 0.69432 23.7457 5.83231 23.7457 12.2201C23.7457 14.9279 22.7737 17.6357 20.9685 19.7187L20.7602 19.9964L33.1885 32.4247L32.3553 33.2579L19.9964 20.7602Z" fill="currentColor"/>
</svg>
