<svg width="35" height="35" viewBox="0 0 35 35" fill="none" xmlns="http://www.w3.org/2000/svg">
<path d="M13.3349 13.0556L12.9859 12.0781L10.6121 5.02666C10.8914 4.88703 11.1008 4.53794 11.1008 4.18886C11.1008 3.70014 10.6819 3.28125 10.1932 3.28125C9.70449 3.28125 9.2856 3.70014 9.2856 4.18886C9.2856 4.53794 9.49504 4.81721 9.77431 5.02666L7.40054 12.0781L0 34.0005L0.628344 34.2099L1.18688 32.6042L9.91394 27.717V29.3926V32.3249H10.6121V29.3926H13.6142L19.2694 32.5344L19.8279 34.1401L20.4562 33.9307L18.9203 29.3926H34.9781V16.2671V15.5689V13.0556H13.3349ZM9.77431 13.0556V15.6388V16.3369V17.8729L5.16642 20.4561L7.81945 12.5668L9.70449 11.5196L9.77431 13.0556ZM10.4725 11.4498L12.3575 12.497L12.567 13.0556H10.4725V11.4498ZM10.4725 10.6818V6.98152L12.0084 11.5894L10.4725 10.6818ZM9.77431 6.91172V10.612L8.23835 11.4498L9.77431 6.91172ZM1.46614 31.6267L4.88716 21.4335L9.77431 18.7107V26.9491L1.46614 31.6267ZM18.8504 31.6267L14.9407 29.4624H18.0825L18.8504 31.6267ZM34.2101 28.6945H10.5423V16.2671H34.2101V28.6945ZM10.4725 15.6388V13.7537H34.1403V15.6388H10.4725Z" fill="currentColor"/>
<path d="M11.5903 14.3125C11.3808 14.3125 11.2412 14.4521 11.2412 14.6616C11.2412 14.871 11.3808 15.0107 11.5903 15.0107C11.7997 15.0107 11.9394 14.871 11.9394 14.6616C11.9394 14.4521 11.7997 14.3125 11.5903 14.3125Z" fill="currentColor"/>
<path d="M12.9858 14.3125C12.7764 14.3125 12.6367 14.4521 12.6367 14.6616C12.6367 14.871 12.7764 15.0107 12.9858 15.0107C13.1953 15.0107 13.3349 14.871 13.3349 14.6616C13.3349 14.4521 13.1953 14.3125 12.9858 14.3125Z" fill="currentColor"/>
<path d="M14.3823 14.3125C14.1728 14.3125 14.0332 14.4521 14.0332 14.6616C14.0332 14.871 14.1728 15.0107 14.3823 15.0107C14.5917 15.0107 14.7314 14.871 14.7314 14.6616C14.8012 14.4521 14.5917 14.3125 14.3823 14.3125Z" fill="currentColor"/>
<path d="M23.459 21.6421V23.4574L24.5761 23.597C24.6459 23.8762 24.7855 24.1555 24.9251 24.365L24.2968 25.2726L25.5535 26.5293L26.4611 25.8311C26.7404 25.9707 27.0196 26.1104 27.2989 26.1802L27.5084 27.2274H29.3236L29.4632 26.1104C29.7425 26.0406 30.0217 25.9009 30.301 25.7613L31.2086 26.3896L32.4653 25.1329L31.7671 24.2253C31.9068 23.9461 31.9766 23.6668 32.0464 23.3875L33.1635 23.1781V21.3629L31.9766 21.2232C31.9068 20.944 31.7672 20.7345 31.6275 20.4552L32.3257 19.4778L31.069 18.2211L30.0916 18.9891C29.8821 18.8495 29.6028 18.7796 29.3934 18.7098L29.1839 17.4531H27.3687L27.2291 18.7098C27.0196 18.7796 26.7404 18.9193 26.5309 18.9891L25.5535 18.2909L24.2968 19.5476L24.995 20.5251C24.8553 20.7345 24.7855 21.0138 24.7157 21.293L23.459 21.6421ZM25.1346 19.7571L25.5535 19.3382L26.4611 19.9665L26.6705 19.8269C26.9498 19.6175 27.2989 19.4778 27.5782 19.408L27.7876 19.3382L27.9272 18.2211H28.4858L28.6952 19.3382L28.9047 19.408C29.2538 19.4778 29.533 19.6174 29.8821 19.7571L30.0916 19.8967L30.9992 19.1985L31.4181 19.6175L30.7897 20.5251L30.9294 20.7345C31.1388 21.0138 31.2784 21.3629 31.3483 21.712L31.4181 21.9214L32.4653 22.061V22.6196L31.4181 22.7592L31.3483 22.9686C31.2784 23.3177 31.1388 23.6668 30.9294 24.0159L30.7897 24.2253L31.4181 24.9933L30.9992 25.4122L30.2312 24.8537L30.0217 24.9933C29.6726 25.2027 29.3236 25.3424 28.9745 25.482L28.765 25.6217L28.6254 26.5991H28.0669L27.9272 25.6217L27.7178 25.5519C27.3687 25.482 26.9498 25.3424 26.6705 25.1329L26.4611 24.9933L25.6931 25.6217L25.2742 25.2028L25.8327 24.365L25.6931 24.1555C25.4837 23.8065 25.344 23.5272 25.2742 23.1083L25.2044 22.8988L24.1571 22.7592V22.2006L25.2044 21.9912L25.2742 21.7818C25.344 21.4327 25.4837 21.0836 25.6931 20.8043L25.8327 20.5949L25.1346 19.7571Z" fill="currentColor"/>
<path d="M28.2751 24.9941C28.2751 24.9941 28.3449 24.9941 28.2751 24.9941C28.9733 24.9941 29.6016 24.7148 30.0903 24.2261C30.579 23.7374 30.7885 23.109 30.7885 22.4807C30.7885 21.1542 29.6714 20.0371 28.2751 20.0371C28.2751 20.0371 28.2751 20.0371 28.2053 20.0371C27.5769 20.0371 26.9486 20.3164 26.4599 20.8051C25.9712 21.2938 25.7617 21.9221 25.7617 22.5505C25.8315 23.9468 26.9486 24.9941 28.2751 24.9941ZM27.0184 21.2938C27.3675 20.9447 27.7864 20.7353 28.2751 20.7353C29.2525 20.7353 30.0205 21.5033 30.0903 22.4807C30.0903 23.4581 29.3223 24.2959 28.3449 24.2959C27.926 24.2959 27.4373 24.1563 27.0882 23.8072C26.7391 23.4581 26.5297 23.0392 26.5297 22.5505C26.5297 22.0618 26.6693 21.6429 27.0184 21.2938Z" fill="currentColor"/>
<path d="M21.0839 18.9199H11.7285V20.7351H21.0839V18.9199ZM20.3858 20.037H12.4267V19.6181H20.3858V20.037Z" fill="currentColor"/>
<path d="M21.0839 21.5723H11.7285V23.3875H21.0839V21.5723ZM20.3858 22.6195H12.4267V22.2006H20.3858V22.6195Z" fill="currentColor"/>
<path d="M21.0839 25.9715V24.1562H11.7285V25.9715H21.0839ZM12.4267 24.8544H20.3858V25.2733H12.4267V24.8544Z" fill="currentColor"/>
<path d="M14.5918 7.88925L15.0805 8.37798C16.1278 7.26091 16.6863 5.72495 16.6863 4.18899C16.6863 2.65303 16.1278 1.18688 15.0805 0L14.5918 0.488724C15.4994 1.53597 15.9881 2.79266 15.9881 4.18899C16.0579 5.58532 15.4994 6.91182 14.5918 7.88925Z" fill="currentColor"/>
<path d="M13.6142 7.26103C14.3822 6.42323 14.8011 5.30615 14.8011 4.18909C14.8011 3.07202 14.3822 1.95499 13.6142 1.11719L13.0557 1.60587C13.684 2.30403 14.0331 3.28147 14.0331 4.18909C14.0331 5.16652 13.684 6.07414 13.0557 6.77231L13.6142 7.26103Z" fill="currentColor"/>
<path d="M12.0078 6.35402C12.4965 5.72567 12.7757 5.02748 12.7757 4.18969C12.7757 3.35189 12.4965 2.65374 12.0078 2.02539L11.4492 2.44427C11.8681 2.93299 12.0776 3.49154 12.0776 4.11989C12.0776 4.74823 11.8681 5.30674 11.4492 5.79546L12.0078 6.35402Z" fill="currentColor"/>
<path d="M5.65504 7.88925C4.74743 6.84201 4.25871 5.58532 4.25871 4.18899C4.25871 2.79266 4.74743 1.53597 5.65504 0.488724L5.16633 0C4.11908 1.11706 3.56055 2.65303 3.56055 4.18899C3.56055 5.72495 4.11908 7.1911 5.16633 8.37798L5.65504 7.88925Z" fill="currentColor"/>
<path d="M6.63365 7.26103L7.12237 6.77231C6.49402 6.07414 6.14494 5.16652 6.14494 4.18909C6.14494 3.21166 6.49402 2.30403 7.12237 1.60587L6.56383 1.11719C5.79585 1.95499 5.37695 3.07202 5.37695 4.18909C5.51659 5.37597 5.93549 6.42323 6.63365 7.26103Z" fill="currentColor"/>
<path d="M8.79624 5.86386C8.37734 5.37514 8.16789 4.81659 8.16789 4.18825C8.16789 3.5599 8.37734 3.00139 8.79624 2.51267L8.23771 2.09375C7.749 2.7221 7.46973 3.42029 7.46973 4.25809C7.46973 5.09589 7.749 5.79403 8.23771 6.42238L8.79624 5.86386Z" fill="currentColor"/>
</svg>
