<svg width="31" height="30" viewBox="0 0 31 30" fill="none" xmlns="http://www.w3.org/2000/svg">
<path d="M10.7568 14.1035C7.82864 14.1035 5.49805 16.4341 5.49805 19.3623C5.49805 22.2905 7.82864 24.6211 10.7568 24.6211C13.685 24.6211 16.0156 22.2905 16.0156 19.3623C16.0156 16.4341 13.6253 14.1035 10.7568 14.1035ZM10.7568 24.0235C8.18719 24.0235 6.09564 21.9319 6.09564 19.3623C6.09564 16.7927 8.18719 14.7011 10.7568 14.7011C13.3265 14.7011 15.418 16.7927 15.418 19.3623C15.418 21.9319 13.3265 24.0235 10.7568 24.0235Z" fill="currentColor"/>
<path d="M17.8679 14.9395L19.4814 12.7284L17.1508 10.3978L14.9397 12.0711C14.2824 11.6528 13.5653 11.4137 12.7884 11.1747L12.3701 8.42578H9.08337L8.66505 11.1747C7.94794 11.354 7.17109 11.6528 6.51374 12.0711L4.30265 10.3978L1.97206 12.7284L3.58554 14.9395C3.16722 15.5969 2.86844 16.3737 2.62941 17.1506L0 17.5689V20.8556L2.56965 21.2142C2.74892 22.0508 3.04772 22.8277 3.52579 23.6046L2.03182 25.6364L4.36241 27.967L6.33445 26.5327C7.11132 27.0108 7.88819 27.3694 8.78457 27.5486L9.14313 29.939H12.4299L12.7884 27.5486C13.6848 27.3096 14.4617 27.0108 15.2385 26.5327L17.2106 27.967L19.5412 25.6364L18.0472 23.6046C18.4655 22.8277 18.8241 22.0508 19.0034 21.2142L21.573 20.8556V17.5689L18.9436 17.1506C18.6448 16.3737 18.2862 15.5969 17.8679 14.9395ZM20.8559 20.3178L18.4058 20.6764L18.346 20.8556C18.1667 21.752 17.8082 22.5887 17.3301 23.4253L17.2106 23.6046L18.6448 25.5766L17.0313 27.1901L15.119 25.8156L14.9397 25.9352C14.1629 26.473 13.2665 26.8315 12.3103 27.0706L12.1311 27.1303L11.7725 29.4609H9.50169L9.14313 27.1303L8.96384 27.0706C8.0077 26.8913 7.17108 26.473 6.33445 25.9352L6.15518 25.8156L4.24289 27.1901L2.80868 25.5766L4.24289 23.6046L4.12338 23.4253C3.64531 22.6484 3.28675 21.752 3.10747 20.8556L3.04771 20.6764L0.597589 20.3178V18.047L3.10747 17.6884L3.16723 17.5091C3.40627 16.6725 3.70505 15.8359 4.18313 15.1188L4.30265 14.9395L2.74891 12.8479L4.36241 11.2345L6.51374 12.7882L6.69301 12.6687C7.41012 12.2504 8.18698 11.8918 9.0236 11.7125L9.20289 11.6528L9.62119 9.02337H11.892L12.3103 11.6528L12.4896 11.7125C13.3263 11.8918 14.1031 12.1906 14.8202 12.6687L14.9995 12.7882L17.1508 11.2345L18.7643 12.8479L17.2106 14.9395L17.3301 15.1188C17.8082 15.8359 18.1667 16.6725 18.346 17.5091L18.4058 17.6884L20.9156 18.047V20.3178H20.8559Z" fill="currentColor"/>
<path d="M28.7439 6.693C28.8036 6.27469 28.8036 5.91614 28.7439 5.49782L30.1183 4.6612L29.2817 2.74891L27.728 3.16722C27.489 2.86843 27.1901 2.56963 26.8914 2.3306L27.2499 0.776866L25.2779 0L24.501 1.37446C24.0827 1.3147 23.6644 1.3147 23.2461 1.37446L22.4094 0.059758L20.4972 0.896384L20.8557 2.3306C20.4972 2.56963 20.1984 2.92819 19.8996 3.28674L18.4654 2.92819L17.6885 4.90023L18.9434 5.61734C18.8837 6.09541 18.8837 6.57349 18.9434 6.9918L17.7482 7.76866L18.5849 9.68095L19.9593 9.3224C20.2581 9.68095 20.5569 10.0395 20.9752 10.2785L20.6167 11.653L22.5887 12.4299L23.3656 11.1749C23.8436 11.2347 24.262 11.2347 24.6803 11.1152L25.4571 12.3701L27.3694 11.5335L27.0109 10.0395C27.3097 9.80047 27.6085 9.44191 27.8475 9.14312L29.4012 9.50167L30.1781 7.52963L28.7439 6.693ZM28.9829 8.78457L27.5487 8.42601L27.4292 8.60529C27.1304 9.0236 26.8316 9.38216 26.4133 9.68095L26.234 9.80047L26.5926 11.1749L25.5767 11.5932L24.8596 10.3981L24.6803 10.4578C24.2022 10.5773 23.6644 10.5773 23.1265 10.5176L22.9473 10.4578L22.2302 11.653L21.2143 11.2347L21.513 9.91999L21.3338 9.80047C20.8557 9.50167 20.4972 9.14312 20.1984 8.66505L20.0788 8.48577L18.8239 8.78457L18.4056 7.76866L19.541 7.05156L19.4812 6.87228C19.3617 6.33445 19.3617 5.79662 19.4812 5.25879L19.541 5.07951L18.4056 4.42216L18.8239 3.40626L20.1386 3.70506L20.2581 3.52578C20.5569 3.10746 20.9155 2.74891 21.3338 2.45012L21.513 2.3306L21.1545 0.956142L22.1704 0.537829L22.9473 1.79277L23.1265 1.73301C23.6046 1.67325 24.0827 1.67325 24.5608 1.73301L24.74 1.79277L25.5169 0.537829L26.5328 0.956142L26.1743 2.45012L26.3535 2.56963C26.7121 2.86843 27.0706 3.16722 27.3694 3.58554L27.4889 3.76481L28.9829 3.40626L29.4012 4.42216L28.0865 5.19903L28.1463 5.37831C28.2061 5.85638 28.2658 6.33445 28.1463 6.81252V6.9918L29.461 7.76866L28.9829 8.78457Z" fill="currentColor"/>
<path d="M24.9791 3.22605C24.2023 2.92725 23.3656 2.92725 22.5888 3.22605C21.8119 3.5846 21.2143 4.18219 20.9155 4.95906C20.6167 5.73593 20.6167 6.57255 20.9155 7.34942C21.2741 8.12628 21.8717 8.72387 22.6485 9.02267C23.0071 9.20195 23.4254 9.2617 23.8437 9.2617C24.262 9.2617 24.6803 9.20195 25.0986 9.02267C25.8755 8.66411 26.4731 8.06653 26.7719 7.28966C27.0707 6.51279 27.0707 5.67617 26.7719 4.8993C26.3536 4.18219 25.756 3.5846 24.9791 3.22605ZM26.1743 7.11038C25.9353 7.76773 25.4572 8.2458 24.7998 8.48484C24.1425 8.72388 23.4851 8.78363 22.8278 8.48484C22.1704 8.2458 21.6924 7.76773 21.4533 7.11038C21.2143 6.45303 21.1546 5.79568 21.4533 5.13834C21.6924 4.48099 22.1704 4.00292 22.8278 3.76388C23.1266 3.64436 23.4852 3.5846 23.8437 3.5846C24.1425 3.5846 24.501 3.64436 24.7998 3.76388C25.4572 4.00292 25.9353 4.48099 26.1743 5.13834C26.4133 5.79568 26.4133 6.51279 26.1743 7.11038Z" fill="currentColor"/>
</svg>
