<svg width="37" height="36" viewBox="0 0 37 36" fill="none" xmlns="http://www.w3.org/2000/svg">
<path d="M36.213 22.176H28.7531V17.424H18.4686V13.824H23.3212L21.0035 10.8H26.3631V0H9.84994V10.8H15.0646L12.9643 13.824H17.7444V17.424H7.822V22.176H0V32.976H5.21466L3.11431 36H13.4712L11.1536 32.976H16.5131V22.176H8.54626V18.144H18.1789H28.0289V22.176H19.6999V32.976H24.9145L22.8142 36H33.1711L30.8535 32.976H36.213V22.176ZM10.5742 10.152V0.791999H25.6388V10.152H20.4241H15.4992H10.5742ZM15.9337 10.872H20.062L21.8002 13.176H14.2679L15.9337 10.872ZM11.9503 35.28H4.41799L6.01135 32.976H10.1396L11.9503 35.28ZM15.7889 32.328H10.5742H5.64922H0.65183V22.968H15.7164V32.328H15.7889ZM31.6502 35.28H24.1903L25.7837 32.976H29.9119L31.6502 35.28ZM35.4887 32.328H30.2741H25.3491H20.3517V22.968H35.4163V32.328H35.4887Z" fill="currentColor"/>
</svg>
