<?xml version="1.0" encoding="UTF-8" standalone="no"?>
<!-- Created with Inkscape (http://www.inkscape.org/) -->
<svg
   xmlns:dc="http://purl.org/dc/elements/1.1/"
   xmlns:cc="http://web.resource.org/cc/"
   xmlns:rdf="http://www.w3.org/1999/02/22-rdf-syntax-ns#"
   xmlns:svg="http://www.w3.org/2000/svg"
   xmlns="http://www.w3.org/2000/svg"
   xmlns:xlink="http://www.w3.org/1999/xlink"
   xmlns:sodipodi="http://inkscape.sourceforge.net/DTD/sodipodi-0.dtd"
   xmlns:inkscape="http://www.inkscape.org/namespaces/inkscape"
   inkscape:export-ydpi="240.00000"
   inkscape:export-xdpi="240.00000"
   inkscape:export-filename="/home/jimmac/gfx/novell/pdes/trunk/docs/BIGmime-text.png"
   sodipodi:docname="accessories-postscript-viewer.svg"
   sodipodi:docbase="/home/sevenissimo/Tango-Project/tango-icon-devel/scalable/apps"
   inkscape:version="0.43"
   sodipodi:version="0.32"
   id="svg249"
   height="48.000000px"
   width="48.000000px">
  <defs
     id="defs3">
    <linearGradient
       inkscape:collect="always"
       id="linearGradient4542">
      <stop
         style="stop-color:#000000;stop-opacity:1;"
         offset="0"
         id="stop4544" />
      <stop
         style="stop-color:#000000;stop-opacity:0;"
         offset="1"
         id="stop4546" />
    </linearGradient>
    <linearGradient
       id="linearGradient15662">
      <stop
         id="stop15664"
         offset="0.0000000"
         style="stop-color:#ffffff;stop-opacity:1.0000000;" />
      <stop
         id="stop15666"
         offset="1.0000000"
         style="stop-color:#f8f8f8;stop-opacity:1.0000000;" />
    </linearGradient>
    <radialGradient
       id="aigrd3"
       cx="20.8921"
       cy="64.5679"
       r="5.257"
       fx="20.8921"
       fy="64.5679"
       gradientUnits="userSpaceOnUse">
      <stop
         offset="0"
         style="stop-color:#F0F0F0"
         id="stop15573" />
      <stop
         offset="1.0000000"
         style="stop-color:#9a9a9a;stop-opacity:1.0000000;"
         id="stop15575" />
    </radialGradient>
    <radialGradient
       id="aigrd2"
       cx="20.8921"
       cy="114.5684"
       r="5.256"
       fx="20.8921"
       fy="114.5684"
       gradientUnits="userSpaceOnUse">
      <stop
         offset="0"
         style="stop-color:#F0F0F0"
         id="stop15566" />
      <stop
         offset="1.0000000"
         style="stop-color:#9a9a9a;stop-opacity:1.0000000;"
         id="stop15568" />
    </radialGradient>
    <linearGradient
       id="linearGradient269">
      <stop
         id="stop270"
         offset="0.0000000"
         style="stop-color:#a3a3a3;stop-opacity:1.0000000;" />
      <stop
         id="stop271"
         offset="1.0000000"
         style="stop-color:#4c4c4c;stop-opacity:1.0000000;" />
    </linearGradient>
    <linearGradient
       id="linearGradient259">
      <stop
         id="stop260"
         offset="0.0000000"
         style="stop-color:#fafafa;stop-opacity:1.0000000;" />
      <stop
         id="stop261"
         offset="1.0000000"
         style="stop-color:#bbbbbb;stop-opacity:1.0000000;" />
    </linearGradient>
    <linearGradient
       inkscape:collect="always"
       xlink:href="#linearGradient2366"
       id="linearGradient2372"
       x1="18.292673"
       y1="13.602121"
       x2="17.500893"
       y2="25.743469"
       gradientUnits="userSpaceOnUse" />
    <radialGradient
       gradientUnits="userSpaceOnUse"
       gradientTransform="matrix(2.592963,-7.7469e-24,-5.714443e-24,2.252104,-25.05975,-18.941)"
       r="6.6562500"
       fy="13.078408"
       fx="15.414371"
       cy="13.078408"
       cx="15.414371"
       id="radialGradient4473"
       xlink:href="#linearGradient4467"
       inkscape:collect="always" />
    <radialGradient
       gradientUnits="userSpaceOnUse"
       r="8.3085051"
       fy="21.817987"
       fx="18.240929"
       cy="21.817987"
       cx="18.240929"
       id="radialGradient4460"
       xlink:href="#linearGradient4454"
       inkscape:collect="always" />
    <linearGradient
       gradientTransform="matrix(1.334593,0,0,1.291292,-6.973842,-7.460658)"
       gradientUnits="userSpaceOnUse"
       y2="31.062500"
       x2="33.218750"
       y1="34.000000"
       x1="30.656250"
       id="linearGradient4446"
       xlink:href="#linearGradient4440"
       inkscape:collect="always" />
    <linearGradient
       id="linearGradient4440">
      <stop
         id="stop4442"
         offset="0"
         style="stop-color:#7d7d7d;stop-opacity:1;" />
      <stop
         style="stop-color:#b1b1b1;stop-opacity:1.0000000;"
         offset="0.50000000"
         id="stop4448" />
      <stop
         id="stop4444"
         offset="1.0000000"
         style="stop-color:#686868;stop-opacity:1.0000000;" />
    </linearGradient>
    <linearGradient
       id="linearGradient4454">
      <stop
         id="stop4456"
         offset="0.0000000"
         style="stop-color:#729fcf;stop-opacity:0.20784314;" />
      <stop
         id="stop4458"
         offset="1.0000000"
         style="stop-color:#729fcf;stop-opacity:0.67619050;" />
    </linearGradient>
    <linearGradient
       id="linearGradient4467">
      <stop
         id="stop4469"
         offset="0"
         style="stop-color:#ffffff;stop-opacity:1;" />
      <stop
         id="stop4471"
         offset="1.0000000"
         style="stop-color:#ffffff;stop-opacity:0.24761905;" />
    </linearGradient>
    <linearGradient
       id="linearGradient2366">
      <stop
         style="stop-color:#ffffff;stop-opacity:1;"
         offset="0"
         id="stop2368" />
      <stop
         id="stop2374"
         offset="0.50000000"
         style="stop-color:#ffffff;stop-opacity:0.21904762;" />
      <stop
         style="stop-color:#ffffff;stop-opacity:1.0000000;"
         offset="1.0000000"
         id="stop2370" />
    </linearGradient>
    <radialGradient
       inkscape:collect="always"
       xlink:href="#linearGradient4542"
       id="radialGradient2312"
       gradientUnits="userSpaceOnUse"
       gradientTransform="matrix(1,0,0,0.284916,-1.432556e-15,30.08928)"
       cx="24.306795"
       cy="42.07798"
       fx="24.306795"
       fy="42.07798"
       r="15.821514" />
    <radialGradient
       inkscape:collect="always"
       xlink:href="#linearGradient259"
       id="radialGradient2314"
       gradientUnits="userSpaceOnUse"
       gradientTransform="matrix(0.839599,0,0,0.910088,1.768233,0.396032)"
       cx="33.966679"
       cy="35.736916"
       fx="33.966679"
       fy="35.736916"
       r="86.708450" />
    <radialGradient
       inkscape:collect="always"
       xlink:href="#linearGradient269"
       id="radialGradient2316"
       gradientUnits="userSpaceOnUse"
       gradientTransform="matrix(0.846399,0,0,0.902776,4.699684,0.961113)"
       cx="8.8244190"
       cy="3.7561285"
       fx="8.8244190"
       fy="3.7561285"
       r="37.751713" />
    <radialGradient
       inkscape:collect="always"
       xlink:href="#linearGradient15662"
       id="radialGradient2318"
       gradientUnits="userSpaceOnUse"
       gradientTransform="matrix(0.846399,0,0,0.902776,4.699684,0.961113)"
       cx="8.1435566"
       cy="7.2678967"
       fx="8.1435566"
       fy="7.2678967"
       r="38.158695" />
    <radialGradient
       inkscape:collect="always"
       xlink:href="#aigrd2"
       id="radialGradient2320"
       gradientUnits="userSpaceOnUse"
       gradientTransform="matrix(0.229703,0,0,0.229703,4.613529,3.979808)"
       cx="20.8921"
       cy="114.5684"
       fx="20.8921"
       fy="114.5684"
       r="5.256" />
    <radialGradient
       inkscape:collect="always"
       xlink:href="#aigrd3"
       id="radialGradient2322"
       gradientUnits="userSpaceOnUse"
       gradientTransform="matrix(0.229703,0,0,0.229703,4.613529,3.979808)"
       cx="20.8921"
       cy="64.5679"
       fx="20.8921"
       fy="64.5679"
       r="5.257" />
  </defs>
  <sodipodi:namedview
     inkscape:window-y="25"
     inkscape:window-x="0"
     inkscape:window-height="946"
     inkscape:window-width="1272"
     inkscape:document-units="px"
     inkscape:grid-bbox="true"
     showgrid="false"
     inkscape:current-layer="layer5"
     inkscape:cy="24"
     inkscape:cx="24"
     inkscape:zoom="16.291667"
     inkscape:pageshadow="2"
     inkscape:pageopacity="0.0"
     borderopacity="1"
     bordercolor="#666666"
     pagecolor="#ffffff"
     id="base"
     inkscape:showpageshadow="false"
     showborder="true" />
  <metadata
     id="metadata4">
    <rdf:RDF>
      <cc:Work
         rdf:about="">
        <dc:format>image/svg+xml</dc:format>
        <dc:type
           rdf:resource="http://purl.org/dc/dcmitype/StillImage" />
        <dc:title>Generic Text</dc:title>
        <dc:subject>
          <rdf:Bag>
            <rdf:li>text</rdf:li>
            <rdf:li>plaintext</rdf:li>
            <rdf:li>regular</rdf:li>
            <rdf:li>document</rdf:li>
          </rdf:Bag>
        </dc:subject>
        <cc:license
           rdf:resource="http://creativecommons.org/licenses/by-sa/2.0/" />
        <dc:creator>
          <cc:Agent>
            <dc:title>Jakub Steiner</dc:title>
          </cc:Agent>
        </dc:creator>
        <dc:source>http://jimmac.musichall.cz</dc:source>
      </cc:Work>
      <cc:License
         rdf:about="http://creativecommons.org/licenses/by/2.0/">
        <cc:permits
           rdf:resource="http://web.resource.org/cc/Reproduction" />
        <cc:permits
           rdf:resource="http://web.resource.org/cc/Distribution" />
        <cc:requires
           rdf:resource="http://web.resource.org/cc/Notice" />
        <cc:requires
           rdf:resource="http://web.resource.org/cc/Attribution" />
        <cc:permits
           rdf:resource="http://web.resource.org/cc/DerivativeWorks" />
        <cc:requires
           rdf:resource="http://web.resource.org/cc/ShareAlike" />
      </cc:License>
    </rdf:RDF>
  </metadata>
  <g
     inkscape:groupmode="layer"
     id="layer6"
     inkscape:label="Shadow" />
  <g
     style="display:inline"
     inkscape:groupmode="layer"
     inkscape:label="Base"
     id="layer1" />
  <g
     inkscape:groupmode="layer"
     id="layer5"
     inkscape:label="Text"
     style="display:inline">
    <g
       id="g2274"
       transform="matrix(1.040939,0,0,1.040939,-3.288241,-1.126238)">
      <path
         transform="matrix(0.874133,0,0,0.874133,1.768233,1.014138)"
         d="M 40.128309 42.07798 A 15.821514 4.5078058 0 1 1  8.485281,42.07798 A 15.821514 4.5078058 0 1 1  40.128309 42.07798 z"
         sodipodi:ry="4.5078058"
         sodipodi:rx="15.821514"
         sodipodi:cy="42.07798"
         sodipodi:cx="24.306795"
         id="path3667"
         style="opacity:0.7836257;color:#000000;fill:url(#radialGradient2312);fill-opacity:1;fill-rule:evenodd;stroke:none;stroke-width:2;stroke-linecap:round;stroke-linejoin:round;marker:none;marker-start:none;marker-mid:none;marker-end:none;stroke-miterlimit:4;stroke-dasharray:none;stroke-dashoffset:0;stroke-opacity:1;visibility:visible;display:inline;overflow:visible"
         sodipodi:type="arc" />
      <rect
         ry="1.1038564"
         y="3.5835109"
         x="7.5406165"
         height="35.769955"
         width="30.485388"
         id="rect15391"
         style="color:#000000;fill:url(#radialGradient2314);fill-opacity:1;fill-rule:nonzero;stroke:url(#radialGradient2316);stroke-width:1;stroke-linecap:round;stroke-linejoin:round;marker:none;marker-start:none;marker-mid:none;marker-end:none;stroke-miterlimit:4;stroke-dasharray:none;stroke-dashoffset:0;stroke-opacity:1;visibility:visible;display:block;overflow:visible"
         rx="1.1038564" />
      <rect
         rx="0.14318648"
         ry="0.14318648"
         y="4.4030108"
         x="8.4693832"
         height="34.044319"
         width="28.650484"
         id="rect15660"
         style="color:#000000;fill:none;fill-opacity:1;fill-rule:nonzero;stroke:url(#radialGradient2318);stroke-width:0.87413299;stroke-linecap:round;stroke-linejoin:round;marker:none;marker-start:none;marker-mid:none;marker-end:none;stroke-miterlimit:4;stroke-dashoffset:0;stroke-opacity:1;visibility:visible;display:block;overflow:visible" />
      <g
         id="g2270"
         transform="matrix(0.874133,0,0,0.874133,2.333314,0.362824)"
         style="display:inline">
        <g
           transform="matrix(0.229703,0,0,0.229703,4.967081,4.244972)"
           style="fill:#ffffff;fill-opacity:1;fill-rule:nonzero;stroke:#000000;stroke-miterlimit:4"
           id="g1440">
          <radialGradient
             gradientUnits="userSpaceOnUse"
             fy="114.5684"
             fx="20.892099"
             r="5.256"
             cy="114.5684"
             cx="20.892099"
             id="radialGradient1442">
            <stop
               id="stop1444"
               style="stop-color:#F0F0F0"
               offset="0" />
            <stop
               id="stop1446"
               style="stop-color:#474747"
               offset="1" />
          </radialGradient>
          <path
             id="path1448"
             d="M 23.428,113.07 C 23.428,115.043 21.828,116.642 19.855,116.642 C 17.881,116.642 16.282,115.042 16.282,113.07 C 16.282,111.096 17.882,109.497 19.855,109.497 C 21.828,109.497 23.428,111.097 23.428,113.07 z "
             style="stroke:none" />
          <radialGradient
             gradientUnits="userSpaceOnUse"
             fy="64.567902"
             fx="20.892099"
             r="5.257"
             cy="64.567902"
             cx="20.892099"
             id="radialGradient1450">
            <stop
               id="stop1452"
               style="stop-color:#F0F0F0"
               offset="0" />
            <stop
               id="stop1454"
               style="stop-color:#474747"
               offset="1" />
          </radialGradient>
          <path
             id="path1456"
             d="M 23.428,63.07 C 23.428,65.043 21.828,66.643 19.855,66.643 C 17.881,66.643 16.282,65.043 16.282,63.07 C 16.282,61.096 17.882,59.497 19.855,59.497 C 21.828,59.497 23.428,61.097 23.428,63.07 z "
             style="stroke:none" />
        </g>
        <path
           id="path15570"
           d="M 9.9950109,29.952326 C 9.9950109,30.40553 9.6274861,30.772825 9.1742821,30.772825 C 8.7208483,30.772825 8.3535532,30.405301 8.3535532,29.952326 C 8.3535532,29.498892 8.721078,29.131597 9.1742821,29.131597 C 9.6274861,29.131597 9.9950109,29.499122 9.9950109,29.952326 z "
           style="fill:url(#radialGradient2320);fill-rule:nonzero;stroke:none;stroke-miterlimit:4" />
        <path
           id="path15577"
           d="M 9.9950109,18.467176 C 9.9950109,18.92038 9.6274861,19.287905 9.1742821,19.287905 C 8.7208483,19.287905 8.3535532,18.92038 8.3535532,18.467176 C 8.3535532,18.013742 8.721078,17.646447 9.1742821,17.646447 C 9.6274861,17.646447 9.9950109,18.013972 9.9950109,18.467176 z "
           style="fill:url(#radialGradient2322);fill-rule:nonzero;stroke:none;stroke-miterlimit:4" />
      </g>
      <path
         sodipodi:nodetypes="cc"
         id="path15672"
         d="M 11.825765,5.1987605 L 11.825765,38.334164"
         style="fill:none;fill-opacity:0.75;fill-rule:evenodd;stroke:#000000;stroke-width:0.86412692;stroke-linecap:butt;stroke-linejoin:miter;stroke-miterlimit:4;stroke-opacity:0.01754384;display:inline" />
      <path
         sodipodi:nodetypes="cc"
         id="path15674"
         d="M 12.694896,4.7846302 L 12.694896,38.017167"
         style="fill:none;fill-opacity:0.75;fill-rule:evenodd;stroke:#ffffff;stroke-width:0.87413299;stroke-linecap:butt;stroke-linejoin:miter;stroke-miterlimit:4;stroke-opacity:0.20467828;display:inline" />
      <g
         id="g2253"
         transform="matrix(0.794666,0,0,0.874133,3.834358,0.396032)">
        <rect
           ry="0.071864411"
           rx="0.16656947"
           y="9"
           x="15.000002"
           height="1"
           width="22.000004"
           id="rect15686"
           style="color:#000000;fill:#9b9b9b;fill-opacity:0.54970757;fill-rule:nonzero;stroke:none;stroke-width:1;stroke-linecap:round;stroke-linejoin:round;marker:none;marker-start:none;marker-mid:none;marker-end:none;stroke-miterlimit:4;stroke-dashoffset:0;stroke-opacity:0.08187136;visibility:visible;display:block;overflow:visible" />
        <rect
           ry="0.071864411"
           rx="0.16656947"
           y="11"
           x="15.000002"
           height="1"
           width="22.000004"
           id="rect15688"
           style="color:#000000;fill:#9b9b9b;fill-opacity:0.54970757;fill-rule:nonzero;stroke:none;stroke-width:1;stroke-linecap:round;stroke-linejoin:round;marker:none;marker-start:none;marker-mid:none;marker-end:none;stroke-miterlimit:4;stroke-dashoffset:0;stroke-opacity:0.08187136;visibility:visible;display:block;overflow:visible" />
        <rect
           ry="0.071864411"
           rx="0.16656947"
           y="13"
           x="15.000002"
           height="1"
           width="22.000004"
           id="rect15690"
           style="color:#000000;fill:#9b9b9b;fill-opacity:0.54970757;fill-rule:nonzero;stroke:none;stroke-width:1;stroke-linecap:round;stroke-linejoin:round;marker:none;marker-start:none;marker-mid:none;marker-end:none;stroke-miterlimit:4;stroke-dashoffset:0;stroke-opacity:0.08187136;visibility:visible;display:block;overflow:visible" />
        <rect
           ry="0.071864411"
           rx="0.16656947"
           y="15"
           x="15.000002"
           height="1"
           width="22.000004"
           id="rect15692"
           style="color:#000000;fill:#9b9b9b;fill-opacity:0.54970757;fill-rule:nonzero;stroke:none;stroke-width:1;stroke-linecap:round;stroke-linejoin:round;marker:none;marker-start:none;marker-mid:none;marker-end:none;stroke-miterlimit:4;stroke-dashoffset:0;stroke-opacity:0.08187136;visibility:visible;display:block;overflow:visible" />
        <rect
           ry="0.071864411"
           rx="0.16656947"
           y="17"
           x="15.000002"
           height="1"
           width="22.000004"
           id="rect15694"
           style="color:#000000;fill:#9b9b9b;fill-opacity:0.54970757;fill-rule:nonzero;stroke:none;stroke-width:1;stroke-linecap:round;stroke-linejoin:round;marker:none;marker-start:none;marker-mid:none;marker-end:none;stroke-miterlimit:4;stroke-dashoffset:0;stroke-opacity:0.08187136;visibility:visible;display:block;overflow:visible" />
        <rect
           ry="0.071864411"
           rx="0.16656947"
           y="19"
           x="15.000002"
           height="1"
           width="22.000004"
           id="rect15696"
           style="color:#000000;fill:#9b9b9b;fill-opacity:0.54970757;fill-rule:nonzero;stroke:none;stroke-width:1;stroke-linecap:round;stroke-linejoin:round;marker:none;marker-start:none;marker-mid:none;marker-end:none;stroke-miterlimit:4;stroke-dashoffset:0;stroke-opacity:0.08187136;visibility:visible;display:block;overflow:visible" />
        <rect
           ry="0.071864411"
           rx="0.16656947"
           y="21"
           x="15.000002"
           height="1"
           width="22.000004"
           id="rect15698"
           style="color:#000000;fill:#9b9b9b;fill-opacity:0.54970757;fill-rule:nonzero;stroke:none;stroke-width:1;stroke-linecap:round;stroke-linejoin:round;marker:none;marker-start:none;marker-mid:none;marker-end:none;stroke-miterlimit:4;stroke-dashoffset:0;stroke-opacity:0.08187136;visibility:visible;display:block;overflow:visible" />
        <rect
           ry="0.071864411"
           rx="0.16656947"
           y="23"
           x="15.000002"
           height="1"
           width="22.000004"
           id="rect15700"
           style="color:#000000;fill:#9b9b9b;fill-opacity:0.54970757;fill-rule:nonzero;stroke:none;stroke-width:1;stroke-linecap:round;stroke-linejoin:round;marker:none;marker-start:none;marker-mid:none;marker-end:none;stroke-miterlimit:4;stroke-dashoffset:0;stroke-opacity:0.08187136;visibility:visible;display:block;overflow:visible" />
        <rect
           ry="0.071864411"
           rx="0.07495629"
           y="25"
           x="14.999992"
           height="1"
           width="9.9000053"
           id="rect15732"
           style="color:#000000;fill:#9b9b9b;fill-opacity:0.54970757;fill-rule:nonzero;stroke:none;stroke-width:1;stroke-linecap:round;stroke-linejoin:round;marker:none;marker-start:none;marker-mid:none;marker-end:none;stroke-miterlimit:4;stroke-dashoffset:0;stroke-opacity:0.08187136;visibility:visible;display:block;overflow:visible" />
        <rect
           ry="0.071864411"
           rx="0.16656947"
           y="29"
           x="14.999992"
           height="1"
           width="22.000004"
           id="rect15736"
           style="color:#000000;fill:#9b9b9b;fill-opacity:0.54970757;fill-rule:nonzero;stroke:none;stroke-width:1;stroke-linecap:round;stroke-linejoin:round;marker:none;marker-start:none;marker-mid:none;marker-end:none;stroke-miterlimit:4;stroke-dashoffset:0;stroke-opacity:0.08187136;visibility:visible;display:block;overflow:visible" />
        <rect
           ry="0.071864411"
           rx="0.16656947"
           y="31"
           x="14.999992"
           height="1"
           width="22.000004"
           id="rect15738"
           style="color:#000000;fill:#9b9b9b;fill-opacity:0.54970757;fill-rule:nonzero;stroke:none;stroke-width:1;stroke-linecap:round;stroke-linejoin:round;marker:none;marker-start:none;marker-mid:none;marker-end:none;stroke-miterlimit:4;stroke-dashoffset:0;stroke-opacity:0.08187136;visibility:visible;display:block;overflow:visible" />
        <rect
           ry="0.071864411"
           rx="0.16656947"
           y="33"
           x="14.999992"
           height="1"
           width="22.000004"
           id="rect15740"
           style="color:#000000;fill:#9b9b9b;fill-opacity:0.54970757;fill-rule:nonzero;stroke:none;stroke-width:1;stroke-linecap:round;stroke-linejoin:round;marker:none;marker-start:none;marker-mid:none;marker-end:none;stroke-miterlimit:4;stroke-dashoffset:0;stroke-opacity:0.08187136;visibility:visible;display:block;overflow:visible" />
        <rect
           ry="0.071864411"
           rx="0.16656947"
           y="35"
           x="14.999992"
           height="1"
           width="22.000004"
           id="rect15742"
           style="color:#000000;fill:#9b9b9b;fill-opacity:0.54970757;fill-rule:nonzero;stroke:none;stroke-width:1;stroke-linecap:round;stroke-linejoin:round;marker:none;marker-start:none;marker-mid:none;marker-end:none;stroke-miterlimit:4;stroke-dashoffset:0;stroke-opacity:0.08187136;visibility:visible;display:block;overflow:visible" />
        <rect
           ry="0.071864411"
           rx="0.11659872"
           y="37"
           x="14.999992"
           height="1"
           width="15.400014"
           id="rect15744"
           style="color:#000000;fill:#9b9b9b;fill-opacity:0.54970757;fill-rule:nonzero;stroke:none;stroke-width:1;stroke-linecap:round;stroke-linejoin:round;marker:none;marker-start:none;marker-mid:none;marker-end:none;stroke-miterlimit:4;stroke-dashoffset:0;stroke-opacity:0.08187136;visibility:visible;display:block;overflow:visible" />
      </g>
      <g
         id="g2650"
         inkscape:label="Livello 1"
         transform="matrix(4.246632e-2,0,0,4.246632e-2,8.67542,5.543619)"
         style="fill:none;fill-opacity:1;stroke:#8d8d8d;stroke-width:23.54807281;stroke-linecap:round;stroke-linejoin:round;stroke-miterlimit:4;stroke-dasharray:none;stroke-opacity:1">
        <path
           id="path2652"
           d="M 345.12262,91.405446 C 326.66102,91.775914 319.92195,114.20205 318.71637,128.4367 C 317.58416,141.80517 317.75282,188.27294 324.46637,224.71795 C 326.48942,235.70026 330.13557,250.50958 335.56012,267.46795 C 322.59354,311.9829 304.60523,361.67109 281.81012,406.3742 C 228.09196,511.71998 183.32221,579.53118 160.49762,602.28045 C 137.43623,625.26576 126.612,631.72923 119.06012,628.4367 C 117.55643,620.06598 131.18039,602.87001 141.93512,590.8117 C 153.44365,577.90824 195.59137,534.90545 195.59137,534.90545 C 145.71925,566.32848 111.22366,593.87181 99.216366,619.1242 C 94.098216,629.88812 89.290496,651.87047 105.18512,657.28045 C 122.53108,663.1844 150.81604,648.45237 169.99762,628.3117 C 184.38381,613.2062 223.48036,557.84264 252.65387,511.28045 C 301.4977,499.64024 446.08214,465.76525 486.52887,462.59295 C 486.72548,462.57753 486.92506,462.54577 487.12262,462.53045 C 520.32046,480.41133 556.38593,494.74658 585.18512,500.53045 C 623.36884,508.19905 650.5363,501.89506 654.37262,488.46795 C 658.20892,475.04084 657.25145,443.40769 598.74762,440.53045 C 559.46268,438.59839 525.08376,438.438 488.34137,444.03045 C 447.63049,420.14188 417.36187,390.86763 403.12262,365.71795 C 389.22665,341.17456 370.73006,309.48932 356.59137,267.3742 C 357.52512,262.60849 358.25376,258.07607 358.74762,253.84295 C 365.46118,196.29819 365.25953,158.94045 363.34137,140.71795 C 361.42321,122.49544 364.83736,91.383145 345.56012,91.405446 C 345.41329,91.405616 345.26799,91.402529 345.12262,91.405446 z M 345.37262,105.3117 C 352.5295,105.23789 358.50801,115.28006 360.21637,140.90545 C 361.06972,153.70566 356.20121,186.95006 345.84137,229.1242 C 340.73242,206.59164 337.14262,181.57334 335.96637,153.7492 C 334.41095,117.09296 338.63373,107.16649 342.68512,105.8117 C 343.59333,105.50799 344.49371,105.32076 345.37262,105.3117 z M 347.84137,301.46795 C 360.81331,333.61809 379.02554,368.90733 402.96637,399.28045 C 415.72931,415.47247 437.6557,432.85207 463.18512,448.6867 C 453.0725,450.9057 442.68029,453.58472 431.87262,456.8117 L 253.40387,510.1242 C 262.82735,495.04515 271.1712,480.91966 277.24762,469.46795 C 296.35576,433.45646 330.09134,359.81623 347.84137,301.46795 z M 544.62262,460.1867 C 583.10819,460.02352 621.34,462.92492 635.18512,472.15545 C 644.55179,478.40023 648.57427,482.32881 643.77887,487.1242 C 638.9835,491.91961 614.30857,491.35045 567.93512,478.09295 C 551.31208,473.34066 535.44207,467.42244 520.56012,460.6867 C 528.44675,460.41201 536.53483,460.22099 544.62262,460.1867 z M 630.40387,511.8742 L 630.40387,514.1242 L 634.27887,514.1242 L 634.27887,523.53045 L 637.27887,523.53045 L 637.27887,514.1242 L 641.15387,514.1242 L 641.15387,511.8742 L 630.40387,511.8742 z M 642.71637,511.8742 L 642.71637,523.53045 L 645.56012,523.53045 L 645.56012,514.9992 L 648.24762,521.28045 L 650.15387,521.28045 L 652.84137,514.9992 L 652.84137,523.53045 L 655.68512,523.53045 L 655.68512,511.8742 L 651.87262,511.8742 L 649.18512,518.09295 L 646.52887,511.8742 L 642.71637,511.8742 z "
           style="opacity:1;fill:none;fill-opacity:1;fill-rule:nonzero;stroke:#8d8d8d;stroke-width:23.54807281;stroke-linecap:round;stroke-linejoin:round;stroke-miterlimit:4;stroke-dasharray:none;stroke-opacity:1" />
      </g>
      <g
         style="fill:#ff0000;fill-opacity:1;stroke:#ff0000;stroke-width:9.41922951;stroke-linecap:round;stroke-linejoin:round;stroke-miterlimit:4;stroke-dasharray:none;stroke-opacity:1"
         transform="matrix(4.246632e-2,0,0,4.246632e-2,8.67542,5.543619)"
         inkscape:label="Livello 1"
         id="g2538">
        <path
           style="opacity:1;fill:#ff0000;fill-opacity:1;fill-rule:nonzero;stroke:#ff0000;stroke-width:9.41922951;stroke-linecap:round;stroke-linejoin:round;stroke-miterlimit:4;stroke-dasharray:none;stroke-opacity:1"
           d="M 345.12262,91.405446 C 326.66102,91.775914 319.92195,114.20205 318.71637,128.4367 C 317.58416,141.80517 317.75282,188.27294 324.46637,224.71795 C 326.48942,235.70026 330.13557,250.50958 335.56012,267.46795 C 322.59354,311.9829 304.60523,361.67109 281.81012,406.3742 C 228.09196,511.71998 183.32221,579.53118 160.49762,602.28045 C 137.43623,625.26576 126.612,631.72923 119.06012,628.4367 C 117.55643,620.06598 131.18039,602.87001 141.93512,590.8117 C 153.44365,577.90824 195.59137,534.90545 195.59137,534.90545 C 145.71925,566.32848 111.22366,593.87181 99.216366,619.1242 C 94.098216,629.88812 89.290496,651.87047 105.18512,657.28045 C 122.53108,663.1844 150.81604,648.45237 169.99762,628.3117 C 184.38381,613.2062 223.48036,557.84264 252.65387,511.28045 C 301.4977,499.64024 446.08214,465.76525 486.52887,462.59295 C 486.72548,462.57753 486.92506,462.54577 487.12262,462.53045 C 520.32046,480.41133 556.38593,494.74658 585.18512,500.53045 C 623.36884,508.19905 650.5363,501.89506 654.37262,488.46795 C 658.20892,475.04084 657.25145,443.40769 598.74762,440.53045 C 559.46268,438.59839 525.08376,438.438 488.34137,444.03045 C 447.63049,420.14188 417.36187,390.86763 403.12262,365.71795 C 389.22665,341.17456 370.73006,309.48932 356.59137,267.3742 C 357.52512,262.60849 358.25376,258.07607 358.74762,253.84295 C 365.46118,196.29819 365.25953,158.94045 363.34137,140.71795 C 361.42321,122.49544 364.83736,91.383145 345.56012,91.405446 C 345.41329,91.405616 345.26799,91.402529 345.12262,91.405446 z M 345.37262,105.3117 C 352.5295,105.23789 358.50801,115.28006 360.21637,140.90545 C 361.06972,153.70566 356.20121,186.95006 345.84137,229.1242 C 340.73242,206.59164 337.14262,181.57334 335.96637,153.7492 C 334.41095,117.09296 338.63373,107.16649 342.68512,105.8117 C 343.59333,105.50799 344.49371,105.32076 345.37262,105.3117 z M 347.84137,301.46795 C 360.81331,333.61809 379.02554,368.90733 402.96637,399.28045 C 415.72931,415.47247 437.6557,432.85207 463.18512,448.6867 C 453.0725,450.9057 442.68029,453.58472 431.87262,456.8117 L 253.40387,510.1242 C 262.82735,495.04515 271.1712,480.91966 277.24762,469.46795 C 296.35576,433.45646 330.09134,359.81623 347.84137,301.46795 z M 544.62262,460.1867 C 583.10819,460.02352 621.34,462.92492 635.18512,472.15545 C 644.55179,478.40023 648.57427,482.32881 643.77887,487.1242 C 638.9835,491.91961 614.30857,491.35045 567.93512,478.09295 C 551.31208,473.34066 535.44207,467.42244 520.56012,460.6867 C 528.44675,460.41201 536.53483,460.22099 544.62262,460.1867 z M 630.40387,511.8742 L 630.40387,514.1242 L 634.27887,514.1242 L 634.27887,523.53045 L 637.27887,523.53045 L 637.27887,514.1242 L 641.15387,514.1242 L 641.15387,511.8742 L 630.40387,511.8742 z M 642.71637,511.8742 L 642.71637,523.53045 L 645.56012,523.53045 L 645.56012,514.9992 L 648.24762,521.28045 L 650.15387,521.28045 L 652.84137,514.9992 L 652.84137,523.53045 L 655.68512,523.53045 L 655.68512,511.8742 L 651.87262,511.8742 L 649.18512,518.09295 L 646.52887,511.8742 L 642.71637,511.8742 z "
           id="path1410" />
      </g>
    </g>
    <g
       id="g1649"
       inkscape:label="Layer 1"
       transform="matrix(0.689525,0,0,0.689525,15.0163,17.44755)">
      <g
         id="g1772">
        <path
           style="opacity:1;color:#000000;fill:#dcdcdc;fill-opacity:1;fill-rule:evenodd;stroke:#484848;stroke-width:2.9005475;stroke-linecap:round;stroke-linejoin:miter;marker:none;marker-start:none;marker-mid:none;marker-end:none;stroke-miterlimit:10;stroke-dasharray:none;stroke-dashoffset:0;stroke-opacity:1;visibility:visible;display:inline;overflow:visible"
           d="M 18.627569,3.1435548 C 10.488439,3.1435548 3.8827682,9.7492259 3.8827682,17.888356 C 3.8827682,26.027486 10.488439,32.633158 18.627569,32.633158 C 22.107124,32.633158 25.17857,31.248765 27.701292,29.230511 C 27.495915,30.237392 27.623257,31.265879 28.457436,31.990436 L 39.42152,41.517846 C 40.654936,42.589175 42.508982,42.448806 43.58031,41.215389 C 44.651638,39.981971 44.511269,38.127927 43.277853,37.056599 L 32.313769,27.529188 C 31.642242,26.945909 30.820891,26.773219 30.007531,26.886466 C 31.994231,24.374044 33.37237,21.337663 33.37237,17.888356 C 33.37237,9.7492259 26.766699,3.1435548 18.627569,3.1435548 z M 18.551954,4.3697381 C 26.191413,4.3697381 31.843729,9.1586886 31.843729,17.661513 C 31.843729,26.336626 26.027039,30.953288 18.551954,30.953288 C 11.249005,30.953288 5.2601806,25.475196 5.2601806,17.661513 C 5.2601806,9.6774061 11.084819,4.369738 18.551954,4.3697381 z "
           id="path2844"
           sodipodi:nodetypes="csscccscccscczzzz" />
        <path
           id="path4430"
           d="M 18.602905,3.0803551 C 10.437465,3.0803551 3.8104408,9.7073791 3.8104408,17.872819 C 3.8104408,26.038259 10.437465,32.665283 18.602905,32.665283 C 22.093708,32.665283 25.175082,31.276416 27.70596,29.251638 C 27.499919,30.261774 27.627672,31.293585 28.464547,32.020484 L 39.464073,41.578691 C 40.701476,42.653483 42.561515,42.512661 43.636306,41.275256 C 44.711097,40.037852 44.570274,38.177814 43.332871,37.103023 L 32.333346,27.544815 C 31.659648,26.959651 30.835642,26.786402 30.019653,26.900016 C 32.012775,24.379472 33.395369,21.333276 33.395369,17.872819 C 33.395369,9.7073791 26.768345,3.0803551 18.602905,3.0803551 z M 18.527046,6.2664243 C 24.808154,6.2664245 29.905864,11.364135 29.905864,17.645243 C 29.905864,23.926351 24.808154,29.024061 18.527046,29.024061 C 12.245938,29.024061 7.1482276,23.926351 7.1482276,17.645243 C 7.1482278,11.364135 12.245938,6.2664243 18.527046,6.2664243 z "
           style="opacity:1;color:#000000;fill:#dcdcdc;fill-opacity:1;fill-rule:evenodd;stroke:none;stroke-width:1.00000036;stroke-linecap:round;stroke-linejoin:miter;marker:none;marker-start:none;marker-mid:none;marker-end:none;stroke-miterlimit:10;stroke-dasharray:none;stroke-dashoffset:0;stroke-opacity:1;visibility:visible;display:inline;overflow:visible" />
        <path
           sodipodi:nodetypes="ccccc"
           id="path4438"
           d="M 39.507004,41.57769 C 39.028332,39.304503 40.904334,36.766268 43.091057,36.789315 C 43.091057,36.789315 32.33069,27.531204 32.33069,27.531204 C 29.385899,27.474498 28.061188,29.80382 28.553876,32.131126 L 39.507004,41.57769 z "
           style="opacity:1;color:#000000;fill:url(#linearGradient4446);fill-opacity:1;fill-rule:evenodd;stroke:none;stroke-width:1;stroke-linecap:round;stroke-linejoin:miter;marker:none;marker-start:none;marker-mid:none;marker-end:none;stroke-miterlimit:10;stroke-dasharray:none;stroke-dashoffset:0;stroke-opacity:1;visibility:visible;display:inline;overflow:visible" />
        <path
           transform="matrix(1.245743,0,0,1.245743,-3.425346,-6.177033)"
           d="M 28.549437 18.920233 A 11.048544 11.048544 0 1 1  6.4523487,18.920233 A 11.048544 11.048544 0 1 1  28.549437 18.920233 z"
           sodipodi:ry="11.048544"
           sodipodi:rx="11.048544"
           sodipodi:cy="18.920233"
           sodipodi:cx="17.500893"
           id="path4450"
           style="opacity:1;color:#000000;fill:none;fill-opacity:1;fill-rule:evenodd;stroke:url(#linearGradient2372);stroke-width:0.8027336;stroke-linecap:round;stroke-linejoin:miter;marker:none;marker-start:none;marker-mid:none;marker-end:none;stroke-miterlimit:10;stroke-dasharray:none;stroke-dashoffset:0;stroke-opacity:1;visibility:visible;display:inline;overflow:visible"
           sodipodi:type="arc" />
        <rect
           transform="matrix(0.752986,0.658037,-0.648902,0.760872,0,0)"
           ry="2.7380238"
           rx="3.098742"
           y="0.14086054"
           x="40.373337"
           height="4.4404783"
           width="19.048439"
           id="rect4495"
           style="opacity:0.43315507;color:#000000;fill:none;fill-opacity:1;fill-rule:evenodd;stroke:#ffffff;stroke-width:1.00003111;stroke-linecap:round;stroke-linejoin:miter;marker:none;marker-start:none;marker-mid:none;marker-end:none;stroke-miterlimit:10;stroke-dasharray:none;stroke-dashoffset:0;stroke-opacity:1;visibility:visible;display:inline;overflow:visible" />
        <path
           transform="matrix(1.398614,0,0,1.398614,-6.224338,-8.298958)"
           d="M 25.897786 18.478292 A 8.3085051 8.3085051 0 1 1  9.280776,18.478292 A 8.3085051 8.3085051 0 1 1  25.897786 18.478292 z"
           sodipodi:ry="8.3085051"
           sodipodi:rx="8.3085051"
           sodipodi:cy="18.478292"
           sodipodi:cx="17.589281"
           id="path4452"
           style="opacity:0.5;color:#000000;fill:url(#radialGradient4460);fill-opacity:1;fill-rule:evenodd;stroke:#3063a3;stroke-width:0.71499395;stroke-linecap:round;stroke-linejoin:miter;marker:none;marker-start:none;marker-mid:none;marker-end:none;stroke-miterlimit:10;stroke-dashoffset:0;stroke-opacity:1;visibility:visible"
           sodipodi:type="arc" />
        <path
           id="path4462"
           d="M 18.156915,7.3966938 C 12.949325,7.3966938 8.7323681,11.613651 8.7323681,16.821241 C 8.7323681,18.325216 9.1526753,19.709014 9.77954,20.971144 C 11.03192,21.432757 12.362297,21.746827 13.774307,21.746827 C 19.945262,21.746827 24.873589,16.88519 25.254413,10.809698 C 23.523449,8.7641668 21.044374,7.3966938 18.156915,7.3966938 z "
           style="opacity:0.5;color:#000000;fill:url(#radialGradient4473);fill-opacity:1;fill-rule:evenodd;stroke:none;stroke-width:1;stroke-linecap:round;stroke-linejoin:miter;marker:none;marker-start:none;marker-mid:none;marker-end:none;stroke-miterlimit:10;stroke-dasharray:none;stroke-dashoffset:0;stroke-opacity:1;visibility:visible;display:inline;overflow:visible" />
      </g>
    </g>
  </g>
</svg>
