<?xml version="1.0" encoding="UTF-8" standalone="no"?>
<!-- Created with Inkscape (http://www.inkscape.org/) -->
<svg
   xmlns:dc="http://purl.org/dc/elements/1.1/"
   xmlns:cc="http://web.resource.org/cc/"
   xmlns:rdf="http://www.w3.org/1999/02/22-rdf-syntax-ns#"
   xmlns:svg="http://www.w3.org/2000/svg"
   xmlns="http://www.w3.org/2000/svg"
   xmlns:xlink="http://www.w3.org/1999/xlink"
   xmlns:sodipodi="http://inkscape.sourceforge.net/DTD/sodipodi-0.dtd"
   xmlns:inkscape="http://www.inkscape.org/namespaces/inkscape"
   inkscape:export-ydpi="240.00000"
   inkscape:export-xdpi="240.00000"
   inkscape:export-filename="/home/jimmac/gfx/novell/pdes/trunk/docs/BIGmime-text.png"
   sodipodi:docname="utilities-log-viewer.svg"
   sodipodi:docbase="/home/sevenissimo/Tango-Project/tango-icon-devel/scalable/apps"
   inkscape:version="0.43"
   sodipodi:version="0.32"
   id="svg249"
   height="48.000000px"
   width="48.000000px">
  <defs
     id="defs3">
    <linearGradient
       inkscape:collect="always"
       id="linearGradient4542">
      <stop
         style="stop-color:#000000;stop-opacity:1;"
         offset="0"
         id="stop4544" />
      <stop
         style="stop-color:#000000;stop-opacity:0;"
         offset="1"
         id="stop4546" />
    </linearGradient>
    <linearGradient
       id="linearGradient15662">
      <stop
         id="stop15664"
         offset="0.0000000"
         style="stop-color:#ffffff;stop-opacity:1.0000000;" />
      <stop
         id="stop15666"
         offset="1.0000000"
         style="stop-color:#f8f8f8;stop-opacity:1.0000000;" />
    </linearGradient>
    <radialGradient
       id="aigrd3"
       cx="20.8921"
       cy="64.5679"
       r="5.257"
       fx="20.8921"
       fy="64.5679"
       gradientUnits="userSpaceOnUse">
      <stop
         offset="0"
         style="stop-color:#F0F0F0"
         id="stop15573" />
      <stop
         offset="1.0000000"
         style="stop-color:#9a9a9a;stop-opacity:1.0000000;"
         id="stop15575" />
    </radialGradient>
    <radialGradient
       id="aigrd2"
       cx="20.8921"
       cy="114.5684"
       r="5.256"
       fx="20.8921"
       fy="114.5684"
       gradientUnits="userSpaceOnUse">
      <stop
         offset="0"
         style="stop-color:#F0F0F0"
         id="stop15566" />
      <stop
         offset="1.0000000"
         style="stop-color:#9a9a9a;stop-opacity:1.0000000;"
         id="stop15568" />
    </radialGradient>
    <linearGradient
       id="linearGradient269">
      <stop
         id="stop270"
         offset="0.0000000"
         style="stop-color:#a3a3a3;stop-opacity:1.0000000;" />
      <stop
         id="stop271"
         offset="1.0000000"
         style="stop-color:#4c4c4c;stop-opacity:1.0000000;" />
    </linearGradient>
    <linearGradient
       id="linearGradient259">
      <stop
         id="stop260"
         offset="0.0000000"
         style="stop-color:#fafafa;stop-opacity:1.0000000;" />
      <stop
         id="stop261"
         offset="1.0000000"
         style="stop-color:#bbbbbb;stop-opacity:1.0000000;" />
    </linearGradient>
    <linearGradient
       inkscape:collect="always"
       xlink:href="#linearGradient2366"
       id="linearGradient2372"
       x1="18.292673"
       y1="13.602121"
       x2="17.500893"
       y2="25.743469"
       gradientUnits="userSpaceOnUse" />
    <radialGradient
       gradientUnits="userSpaceOnUse"
       gradientTransform="matrix(2.592963,-7.7469e-24,-5.714443e-24,2.252104,-25.05975,-18.941)"
       r="6.6562500"
       fy="13.078408"
       fx="15.414371"
       cy="13.078408"
       cx="15.414371"
       id="radialGradient4473"
       xlink:href="#linearGradient4467"
       inkscape:collect="always" />
    <radialGradient
       gradientUnits="userSpaceOnUse"
       r="8.3085051"
       fy="21.817987"
       fx="18.240929"
       cy="21.817987"
       cx="18.240929"
       id="radialGradient4460"
       xlink:href="#linearGradient4454"
       inkscape:collect="always" />
    <linearGradient
       gradientTransform="matrix(1.334593,0,0,1.291292,-6.973842,-7.460658)"
       gradientUnits="userSpaceOnUse"
       y2="31.062500"
       x2="33.218750"
       y1="34.000000"
       x1="30.656250"
       id="linearGradient4446"
       xlink:href="#linearGradient4440"
       inkscape:collect="always" />
    <linearGradient
       id="linearGradient4440">
      <stop
         id="stop4442"
         offset="0"
         style="stop-color:#7d7d7d;stop-opacity:1;" />
      <stop
         style="stop-color:#b1b1b1;stop-opacity:1.0000000;"
         offset="0.50000000"
         id="stop4448" />
      <stop
         id="stop4444"
         offset="1.0000000"
         style="stop-color:#686868;stop-opacity:1.0000000;" />
    </linearGradient>
    <linearGradient
       id="linearGradient4454">
      <stop
         id="stop4456"
         offset="0.0000000"
         style="stop-color:#729fcf;stop-opacity:0.20784314;" />
      <stop
         id="stop4458"
         offset="1.0000000"
         style="stop-color:#729fcf;stop-opacity:0.67619050;" />
    </linearGradient>
    <linearGradient
       id="linearGradient4467">
      <stop
         id="stop4469"
         offset="0"
         style="stop-color:#ffffff;stop-opacity:1;" />
      <stop
         id="stop4471"
         offset="1.0000000"
         style="stop-color:#ffffff;stop-opacity:0.24761905;" />
    </linearGradient>
    <linearGradient
       id="linearGradient2366">
      <stop
         style="stop-color:#ffffff;stop-opacity:1;"
         offset="0"
         id="stop2368" />
      <stop
         id="stop2374"
         offset="0.50000000"
         style="stop-color:#ffffff;stop-opacity:0.21904762;" />
      <stop
         style="stop-color:#ffffff;stop-opacity:1.0000000;"
         offset="1.0000000"
         id="stop2370" />
    </linearGradient>
    <radialGradient
       inkscape:collect="always"
       xlink:href="#linearGradient4542"
       id="radialGradient2312"
       gradientUnits="userSpaceOnUse"
       gradientTransform="matrix(1,0,0,0.284916,-1.695366e-15,30.08928)"
       cx="24.306795"
       cy="42.07798"
       fx="24.306795"
       fy="42.07798"
       r="15.821514" />
    <radialGradient
       inkscape:collect="always"
       xlink:href="#aigrd2"
       id="radialGradient2320"
       gradientUnits="userSpaceOnUse"
       gradientTransform="matrix(0.229703,0,0,0.229703,4.613529,3.979808)"
       cx="20.8921"
       cy="114.5684"
       fx="20.8921"
       fy="114.5684"
       r="5.256" />
    <radialGradient
       inkscape:collect="always"
       xlink:href="#aigrd3"
       id="radialGradient2322"
       gradientUnits="userSpaceOnUse"
       gradientTransform="matrix(0.229703,0,0,0.229703,4.613529,3.979808)"
       cx="20.8921"
       cy="64.5679"
       fx="20.8921"
       fy="64.5679"
       r="5.257" />
    <radialGradient
       inkscape:collect="always"
       xlink:href="#linearGradient15662"
       id="radialGradient1441"
       gradientUnits="userSpaceOnUse"
       gradientTransform="matrix(0.88105,0,0,0.939735,1.603843,-0.125778)"
       cx="8.1435566"
       cy="7.2678967"
       fx="8.1435566"
       fy="7.2678967"
       r="38.158695" />
    <radialGradient
       inkscape:collect="always"
       xlink:href="#linearGradient259"
       id="radialGradient1444"
       gradientUnits="userSpaceOnUse"
       gradientTransform="matrix(0.873971,0,0,0.947346,-1.447618,-0.713993)"
       cx="33.966679"
       cy="35.736916"
       fx="33.966679"
       fy="35.736916"
       r="86.708450" />
    <radialGradient
       inkscape:collect="always"
       xlink:href="#linearGradient269"
       id="radialGradient1446"
       gradientUnits="userSpaceOnUse"
       gradientTransform="matrix(0.88105,0,0,0.939735,1.603843,-0.125778)"
       cx="8.8244190"
       cy="3.7561285"
       fx="8.8244190"
       fy="3.7561285"
       r="37.751713" />
    <linearGradient
       y2="248.6311"
       x2="153.0005"
       y1="15.4238"
       x1="99.7773"
       gradientTransform="matrix(0.200685,0,0,0.200685,-54.33576,-1.050787)"
       gradientUnits="userSpaceOnUse"
       id="linearGradient3773"
       xlink:href="#aigrd1"
       inkscape:collect="always" />
    <linearGradient
       y2="248.6311"
       x2="153.0005"
       y1="15.4238"
       x1="99.7773"
       gradientUnits="userSpaceOnUse"
       id="aigrd1">
      <stop
         id="stop53300"
         style="stop-color:#184375"
         offset="0" />
      <stop
         id="stop53302"
         style="stop-color:#C8BDDC"
         offset="1" />
    </linearGradient>
  </defs>
  <sodipodi:namedview
     inkscape:window-y="25"
     inkscape:window-x="0"
     inkscape:window-height="946"
     inkscape:window-width="1272"
     inkscape:document-units="px"
     inkscape:grid-bbox="true"
     showgrid="false"
     inkscape:current-layer="layer5"
     inkscape:cy="23.172095"
     inkscape:cx="25.301891"
     inkscape:zoom="17.059147"
     inkscape:pageshadow="2"
     inkscape:pageopacity="0.0"
     borderopacity="1"
     bordercolor="#666666"
     pagecolor="#ffffff"
     id="base"
     inkscape:showpageshadow="false"
     showborder="true" />
  <metadata
     id="metadata4">
    <rdf:RDF>
      <cc:Work
         rdf:about="">
        <dc:format>image/svg+xml</dc:format>
        <dc:type
           rdf:resource="http://purl.org/dc/dcmitype/StillImage" />
        <dc:title>Generic Text</dc:title>
        <dc:subject>
          <rdf:Bag>
            <rdf:li>text</rdf:li>
            <rdf:li>plaintext</rdf:li>
            <rdf:li>regular</rdf:li>
            <rdf:li>document</rdf:li>
          </rdf:Bag>
        </dc:subject>
        <cc:license
           rdf:resource="http://creativecommons.org/licenses/by-sa/2.0/" />
        <dc:creator>
          <cc:Agent>
            <dc:title>Jakub Steiner</dc:title>
          </cc:Agent>
        </dc:creator>
        <dc:source>http://jimmac.musichall.cz</dc:source>
      </cc:Work>
      <cc:License
         rdf:about="http://creativecommons.org/licenses/by/2.0/">
        <cc:permits
           rdf:resource="http://web.resource.org/cc/Reproduction" />
        <cc:permits
           rdf:resource="http://web.resource.org/cc/Distribution" />
        <cc:requires
           rdf:resource="http://web.resource.org/cc/Notice" />
        <cc:requires
           rdf:resource="http://web.resource.org/cc/Attribution" />
        <cc:permits
           rdf:resource="http://web.resource.org/cc/DerivativeWorks" />
        <cc:requires
           rdf:resource="http://web.resource.org/cc/ShareAlike" />
      </cc:License>
    </rdf:RDF>
  </metadata>
  <g
     inkscape:groupmode="layer"
     id="layer6"
     inkscape:label="Shadow" />
  <g
     style="display:inline"
     inkscape:groupmode="layer"
     inkscape:label="Base"
     id="layer1" />
  <g
     inkscape:groupmode="layer"
     id="layer5"
     inkscape:label="Text"
     style="display:inline">
    <path
       sodipodi:type="arc"
       style="opacity:0.7836257;color:#000000;fill:url(#radialGradient2312);fill-opacity:1;fill-rule:evenodd;stroke:none;stroke-width:2;stroke-linecap:round;stroke-linejoin:round;marker:none;marker-start:none;marker-mid:none;marker-end:none;stroke-miterlimit:4;stroke-dasharray:none;stroke-dashoffset:0;stroke-opacity:1;visibility:visible;display:inline;overflow:visible"
       id="path3667"
       sodipodi:cx="24.306795"
       sodipodi:cy="42.07798"
       sodipodi:rx="15.821514"
       sodipodi:ry="4.5078058"
       d="M 40.128309 42.07798 A 15.821514 4.5078058 0 1 1  8.485281,42.07798 A 15.821514 4.5078058 0 1 1  40.128309 42.07798 z"
       transform="matrix(0.909919,0,0,0.909919,-1.447618,-7.05822e-2)" />
    <rect
       rx="1.1490473"
       style="color:#000000;fill:url(#radialGradient1444);fill-opacity:1;fill-rule:nonzero;stroke:url(#radialGradient1446);stroke-width:1.04093897;stroke-linecap:round;stroke-linejoin:round;marker:none;marker-start:none;marker-mid:none;marker-end:none;stroke-miterlimit:4;stroke-dasharray:none;stroke-dashoffset:0;stroke-opacity:1;visibility:visible;display:block;overflow:visible"
       id="rect15391"
       width="31.733429"
       height="37.234341"
       x="4.5610809"
       y="2.6039782"
       ry="1.1490473" />
    <rect
       style="color:#000000;fill:none;fill-opacity:1;fill-rule:nonzero;stroke:url(#radialGradient1441);stroke-width:0.90991914;stroke-linecap:round;stroke-linejoin:round;marker:none;marker-start:none;marker-mid:none;marker-end:none;stroke-miterlimit:4;stroke-dashoffset:0;stroke-opacity:1;visibility:visible;display:block;overflow:visible"
       id="rect15660"
       width="29.823406"
       height="35.438061"
       x="5.5278702"
       y="3.4570277"
       ry="0.14904839"
       rx="0.14904839" />
    <g
       style="display:inline"
       transform="matrix(0.909919,0,0,0.909919,-0.859403,-0.74856)"
       id="g2270">
      <g
         id="g1440"
         style="fill:#ffffff;fill-opacity:1;fill-rule:nonzero;stroke:#000000;stroke-miterlimit:4"
         transform="matrix(0.229703,0,0,0.229703,4.967081,4.244972)">
        <radialGradient
           id="radialGradient1442"
           cx="20.892099"
           cy="114.5684"
           r="5.256"
           fx="20.892099"
           fy="114.5684"
           gradientUnits="userSpaceOnUse">
          <stop
             offset="0"
             style="stop-color:#F0F0F0"
             id="stop1444" />
          <stop
             offset="1"
             style="stop-color:#474747"
             id="stop1446" />
        </radialGradient>
        <path
           style="stroke:none"
           d="M 23.428,113.07 C 23.428,115.043 21.828,116.642 19.855,116.642 C 17.881,116.642 16.282,115.042 16.282,113.07 C 16.282,111.096 17.882,109.497 19.855,109.497 C 21.828,109.497 23.428,111.097 23.428,113.07 z "
           id="path1448" />
        <radialGradient
           id="radialGradient1450"
           cx="20.892099"
           cy="64.567902"
           r="5.257"
           fx="20.892099"
           fy="64.567902"
           gradientUnits="userSpaceOnUse">
          <stop
             offset="0"
             style="stop-color:#F0F0F0"
             id="stop1452" />
          <stop
             offset="1"
             style="stop-color:#474747"
             id="stop1454" />
        </radialGradient>
        <path
           style="stroke:none"
           d="M 23.428,63.07 C 23.428,65.043 21.828,66.643 19.855,66.643 C 17.881,66.643 16.282,65.043 16.282,63.07 C 16.282,61.096 17.882,59.497 19.855,59.497 C 21.828,59.497 23.428,61.097 23.428,63.07 z "
           id="path1456" />
      </g>
      <path
         style="fill:url(#radialGradient2320);fill-rule:nonzero;stroke:none;stroke-miterlimit:4"
         d="M 9.9950109,29.952326 C 9.9950109,30.40553 9.6274861,30.772825 9.1742821,30.772825 C 8.7208483,30.772825 8.3535532,30.405301 8.3535532,29.952326 C 8.3535532,29.498892 8.721078,29.131597 9.1742821,29.131597 C 9.6274861,29.131597 9.9950109,29.499122 9.9950109,29.952326 z "
         id="path15570" />
      <path
         style="fill:url(#radialGradient2322);fill-rule:nonzero;stroke:none;stroke-miterlimit:4"
         d="M 9.9950109,18.467176 C 9.9950109,18.92038 9.6274861,19.287905 9.1742821,19.287905 C 8.7208483,19.287905 8.3535532,18.92038 8.3535532,18.467176 C 8.3535532,18.013742 8.721078,17.646447 9.1742821,17.646447 C 9.6274861,17.646447 9.9950109,18.013972 9.9950109,18.467176 z "
         id="path15577" />
    </g>
    <path
       style="fill:none;fill-opacity:0.75;fill-rule:evenodd;stroke:#000000;stroke-width:0.89950341;stroke-linecap:butt;stroke-linejoin:miter;stroke-miterlimit:4;stroke-opacity:0.01754384;display:inline"
       d="M 9.021659,4.2853546 L 9.021659,38.777288"
       id="path15672"
       sodipodi:nodetypes="cc" />
    <path
       style="fill:none;fill-opacity:0.75;fill-rule:evenodd;stroke:#ffffff;stroke-width:0.90991914;stroke-linecap:butt;stroke-linejoin:miter;stroke-miterlimit:4;stroke-opacity:0.20467828;display:inline"
       d="M 9.9263713,3.8542702 L 9.9263713,38.447314"
       id="path15674"
       sodipodi:nodetypes="cc" />
    <g
       transform="matrix(0.827199,0,0,0.909919,0.703092,-0.713993)"
       id="g2253">
      <rect
         style="color:#000000;fill:#9b9b9b;fill-opacity:0.54970757;fill-rule:nonzero;stroke:none;stroke-width:1;stroke-linecap:round;stroke-linejoin:round;marker:none;marker-start:none;marker-mid:none;marker-end:none;stroke-miterlimit:4;stroke-dashoffset:0;stroke-opacity:0.08187136;visibility:visible;display:block;overflow:visible"
         id="rect15686"
         width="22.000004"
         height="1"
         x="15.000002"
         y="9"
         rx="0.16656947"
         ry="0.071864411" />
      <rect
         style="color:#000000;fill:#9b9b9b;fill-opacity:0.54970757;fill-rule:nonzero;stroke:none;stroke-width:1;stroke-linecap:round;stroke-linejoin:round;marker:none;marker-start:none;marker-mid:none;marker-end:none;stroke-miterlimit:4;stroke-dashoffset:0;stroke-opacity:0.08187136;visibility:visible;display:block;overflow:visible"
         id="rect15688"
         width="22.000004"
         height="1"
         x="15.000002"
         y="11"
         rx="0.16656947"
         ry="0.071864411" />
      <rect
         style="color:#000000;fill:#9b9b9b;fill-opacity:0.54970757;fill-rule:nonzero;stroke:none;stroke-width:1;stroke-linecap:round;stroke-linejoin:round;marker:none;marker-start:none;marker-mid:none;marker-end:none;stroke-miterlimit:4;stroke-dashoffset:0;stroke-opacity:0.08187136;visibility:visible;display:block;overflow:visible"
         id="rect15690"
         width="22.000004"
         height="1"
         x="15.000002"
         y="13"
         rx="0.16656947"
         ry="0.071864411" />
      <rect
         style="color:#000000;fill:#9b9b9b;fill-opacity:0.54970757;fill-rule:nonzero;stroke:none;stroke-width:1;stroke-linecap:round;stroke-linejoin:round;marker:none;marker-start:none;marker-mid:none;marker-end:none;stroke-miterlimit:4;stroke-dashoffset:0;stroke-opacity:0.08187136;visibility:visible;display:block;overflow:visible"
         id="rect15692"
         width="22.000004"
         height="1"
         x="15.000002"
         y="15"
         rx="0.16656947"
         ry="0.071864411" />
      <rect
         style="color:#000000;fill:#9b9b9b;fill-opacity:0.54970757;fill-rule:nonzero;stroke:none;stroke-width:1;stroke-linecap:round;stroke-linejoin:round;marker:none;marker-start:none;marker-mid:none;marker-end:none;stroke-miterlimit:4;stroke-dashoffset:0;stroke-opacity:0.08187136;visibility:visible;display:block;overflow:visible"
         id="rect15694"
         width="22.000004"
         height="1"
         x="15.000002"
         y="17"
         rx="0.16656947"
         ry="0.071864411" />
      <rect
         style="color:#000000;fill:#9b9b9b;fill-opacity:0.54970757;fill-rule:nonzero;stroke:none;stroke-width:1;stroke-linecap:round;stroke-linejoin:round;marker:none;marker-start:none;marker-mid:none;marker-end:none;stroke-miterlimit:4;stroke-dashoffset:0;stroke-opacity:0.08187136;visibility:visible;display:block;overflow:visible"
         id="rect15696"
         width="22.000004"
         height="1"
         x="15.000002"
         y="19"
         rx="0.16656947"
         ry="0.071864411" />
      <rect
         style="color:#000000;fill:#9b9b9b;fill-opacity:0.54970757;fill-rule:nonzero;stroke:none;stroke-width:1;stroke-linecap:round;stroke-linejoin:round;marker:none;marker-start:none;marker-mid:none;marker-end:none;stroke-miterlimit:4;stroke-dashoffset:0;stroke-opacity:0.08187136;visibility:visible;display:block;overflow:visible"
         id="rect15698"
         width="22.000004"
         height="1"
         x="15.000002"
         y="21"
         rx="0.16656947"
         ry="0.071864411" />
      <rect
         style="color:#000000;fill:#9b9b9b;fill-opacity:0.54970757;fill-rule:nonzero;stroke:none;stroke-width:1;stroke-linecap:round;stroke-linejoin:round;marker:none;marker-start:none;marker-mid:none;marker-end:none;stroke-miterlimit:4;stroke-dashoffset:0;stroke-opacity:0.08187136;visibility:visible;display:block;overflow:visible"
         id="rect15700"
         width="22.000004"
         height="1"
         x="15.000002"
         y="23"
         rx="0.16656947"
         ry="0.071864411" />
      <rect
         style="color:#000000;fill:#9b9b9b;fill-opacity:0.54970757;fill-rule:nonzero;stroke:none;stroke-width:1;stroke-linecap:round;stroke-linejoin:round;marker:none;marker-start:none;marker-mid:none;marker-end:none;stroke-miterlimit:4;stroke-dashoffset:0;stroke-opacity:0.08187136;visibility:visible;display:block;overflow:visible"
         id="rect15732"
         width="9.9000053"
         height="1"
         x="14.999992"
         y="25"
         rx="0.07495629"
         ry="0.071864411" />
      <rect
         style="color:#000000;fill:#9b9b9b;fill-opacity:0.54970757;fill-rule:nonzero;stroke:none;stroke-width:1;stroke-linecap:round;stroke-linejoin:round;marker:none;marker-start:none;marker-mid:none;marker-end:none;stroke-miterlimit:4;stroke-dashoffset:0;stroke-opacity:0.08187136;visibility:visible;display:block;overflow:visible"
         id="rect15736"
         width="22.000004"
         height="1"
         x="14.999992"
         y="29"
         rx="0.16656947"
         ry="0.071864411" />
      <rect
         style="color:#000000;fill:#9b9b9b;fill-opacity:0.54970757;fill-rule:nonzero;stroke:none;stroke-width:1;stroke-linecap:round;stroke-linejoin:round;marker:none;marker-start:none;marker-mid:none;marker-end:none;stroke-miterlimit:4;stroke-dashoffset:0;stroke-opacity:0.08187136;visibility:visible;display:block;overflow:visible"
         id="rect15738"
         width="22.000004"
         height="1"
         x="14.999992"
         y="31"
         rx="0.16656947"
         ry="0.071864411" />
      <rect
         style="color:#000000;fill:#9b9b9b;fill-opacity:0.54970757;fill-rule:nonzero;stroke:none;stroke-width:1;stroke-linecap:round;stroke-linejoin:round;marker:none;marker-start:none;marker-mid:none;marker-end:none;stroke-miterlimit:4;stroke-dashoffset:0;stroke-opacity:0.08187136;visibility:visible;display:block;overflow:visible"
         id="rect15740"
         width="22.000004"
         height="1"
         x="14.999992"
         y="33"
         rx="0.16656947"
         ry="0.071864411" />
      <rect
         style="color:#000000;fill:#9b9b9b;fill-opacity:0.54970757;fill-rule:nonzero;stroke:none;stroke-width:1;stroke-linecap:round;stroke-linejoin:round;marker:none;marker-start:none;marker-mid:none;marker-end:none;stroke-miterlimit:4;stroke-dashoffset:0;stroke-opacity:0.08187136;visibility:visible;display:block;overflow:visible"
         id="rect15742"
         width="22.000004"
         height="1"
         x="14.999992"
         y="35"
         rx="0.16656947"
         ry="0.071864411" />
      <rect
         style="color:#000000;fill:#9b9b9b;fill-opacity:0.54970757;fill-rule:nonzero;stroke:none;stroke-width:1;stroke-linecap:round;stroke-linejoin:round;marker:none;marker-start:none;marker-mid:none;marker-end:none;stroke-miterlimit:4;stroke-dashoffset:0;stroke-opacity:0.08187136;visibility:visible;display:block;overflow:visible"
         id="rect15744"
         width="15.400014"
         height="1"
         x="14.999992"
         y="37"
         rx="0.11659872"
         ry="0.071864411" />
    </g>
    <g
       id="g1601"
       transform="matrix(0.497822,0,0,0.497822,10.06033,8.072728)">
      <g
         inkscape:label="Layer 1"
         id="g1605">
        <path
           id="path3243"
           d="M 22.699525,0.94746963 C 22.22635,0.97984519 21.766437,1.0531317 21.301673,1.1063165 L 21.269903,1.1063165 L 20.157975,7.1742671 C 18.345621,7.5870046 16.640562,8.2874574 15.106644,9.2392765 L 10.118853,5.6493371 C 8.770521,6.6961412 7.543552,7.9170049 6.465374,9.2392765 L 9.928236,14.290607 C 8.876814,15.89739 8.086153,17.732094 7.640841,19.659632 C 7.640765,19.668743 7.640779,19.689813 7.640841,19.691401 L 1.60466,20.644482 C 1.494303,21.545851 1.445813,22.477386 1.445813,23.408418 C 1.445813,24.170171 1.466846,24.921747 1.541121,25.664043 L 7.577303,26.744202 C 8.0066,28.840363 8.822112,30.797987 9.960006,32.526228 L 6.370066,37.450482 C 7.398201,38.726866 8.585171,39.888962 9.864698,40.913343 L 14.947798,37.418712 C 16.724273,38.551956 18.707343,39.346604 20.856901,39.737877 L 21.809983,45.742288 C 22.487237,45.803935 23.181758,45.805827 23.874992,45.805827 C 24.853677,45.805826 25.788512,45.768738 26.734236,45.64698 L 27.877933,39.515491 C 29.91886,39.007587 31.836112,38.126493 33.501113,36.942172 L 38.393596,40.500342 C 39.662366,39.420897 40.822583,38.180154 41.824689,36.846863 L 38.266519,31.700225 C 39.230125,30.036028 39.897817,28.199859 40.23622,26.235892 L 46.240632,25.282811 C 46.29329,24.656221 46.30417,24.048546 46.30417,23.408418 C 46.30417,22.296018 46.174875,21.205317 46.018246,20.136172 L 39.918526,19.024244 C 39.440518,17.259164 38.656214,15.612364 37.662901,14.13176 L 41.25284,9.2075071 C 40.140075,7.8466524 38.870718,6.5895264 37.472284,5.5222596 L 32.293876,9.0804296 C 30.805549,8.200202 29.203897,7.5248159 27.464931,7.1424978 L 26.51185,1.1063165 C 25.644369,1.0042729 24.769749,0.94746963 23.874992,0.94746963 C 23.633166,0.94746964 23.384286,0.93986063 23.144296,0.94746963 C 23.027301,0.95117908 22.911525,0.94066346 22.794833,0.94746963 C 22.763228,0.94931296 22.73107,0.94531125 22.699525,0.94746963 z M 23.525529,16.387386 C 23.641592,16.381497 23.757473,16.387386 23.874992,16.387386 C 27.635598,16.387386 30.705408,19.457196 30.705408,23.217802 C 30.705409,26.978407 27.635597,30.016448 23.874992,30.016448 C 20.114387,30.016449 17.076346,26.978407 17.076346,23.217802 C 17.076347,19.574716 19.927558,16.569963 23.525529,16.387386 z "
           style="opacity:1;color:#000000;fill:url(#linearGradient3773);fill-opacity:1;fill-rule:nonzero;stroke:#3f4561;stroke-width:1.60700009;stroke-linecap:round;stroke-linejoin:round;marker:none;marker-start:none;marker-mid:none;marker-end:none;stroke-miterlimit:4;stroke-dasharray:none;stroke-dashoffset:0;stroke-opacity:1;visibility:visible;display:inline;overflow:visible"
           inkscape:r_cx="true"
           inkscape:r_cy="true" />
        <path
           transform="matrix(0.616598,0,0,0.616598,9.38202,8.539674)"
           d="M 36.239223 23.781593 A 12.727922 12.727922 0 1 1  10.783379,23.781593 A 12.727922 12.727922 0 1 1  36.239223 23.781593 z"
           sodipodi:ry="12.727922"
           sodipodi:rx="12.727922"
           sodipodi:cy="23.781593"
           sodipodi:cx="23.511301"
           id="path3283"
           style="opacity:0.64772728;color:#000000;fill:none;fill-opacity:1;fill-rule:nonzero;stroke:#ffffff;stroke-width:1.62180054;stroke-linecap:butt;stroke-linejoin:miter;marker:none;marker-start:none;marker-mid:none;marker-end:none;stroke-miterlimit:4;stroke-dasharray:none;stroke-dashoffset:0;stroke-opacity:1;visibility:visible;display:inline;overflow:visible"
           sodipodi:type="arc"
           inkscape:r_cx="true"
           inkscape:r_cy="true" />
        <path
           sodipodi:nodetypes="ccccccccccccccccccccccccccccccccc"
           style="opacity:0.34659089;color:#000000;fill:none;fill-opacity:1;fill-rule:nonzero;stroke:#ffffff;stroke-width:0.99999923;stroke-linecap:butt;stroke-linejoin:miter;marker:none;marker-start:none;marker-mid:none;marker-end:none;stroke-miterlimit:4;stroke-dasharray:none;stroke-dashoffset:0;stroke-opacity:1;visibility:visible;display:inline;overflow:visible"
           d="M 21.995808,2.1484671 L 21.103024,8.0235243 C 19.404254,8.4103946 16.279442,9.5936035 14.841657,10.485771 L 10.091975,6.9406268 C 8.828145,7.9218257 8.741474,7.9883656 7.730867,9.2277688 L 11.165063,14.320988 C 10.179537,15.827071 8.995796,18.510982 8.570778,20.42893 C 8.570778,20.42893 2.552988,21.443355 2.552988,21.443355 C 2.449547,22.288234 2.49926,24.096528 2.56888,24.792303 L 8.317097,25.82782 C 8.71949,27.79261 10.225324,30.955232 11.291904,32.575161 L 7.656902,37.377719 C 8.620601,38.57411 8.813474,38.683589 10.01281,39.64377 L 14.873441,36.082733 C 16.538581,37.144954 19.84373,38.437109 21.858571,38.80386 L 22.656299,44.604952 C 23.291109,44.662736 25.044829,44.824827 25.931283,44.710701 L 26.824066,38.671821 C 28.737084,38.195749 32.042539,36.838896 33.603191,35.728798 L 38.458624,39.236958 C 39.647878,38.225166 39.658533,38.072709 40.597835,36.822978 L 36.999815,31.708667 C 37.90303,30.148767 39.070902,27.098068 39.388097,25.257187 L 45.279046,24.279744 C 45.328399,23.692424 45.330802,22.054578 45.18399,21.052439 L 39.182092,20.016922 C 38.73404,18.362463 37.196418,15.381153 36.265359,13.993342 L 40.080075,9.1907857 C 39.037052,7.915218 38.64924,7.7402002 37.338448,6.7398212 L 32.313994,10.337839 C 30.918941,9.5127782 28.137095,8.2550417 26.507114,7.8966842 L 25.619528,2.1484671 C 24.806414,2.0528187 22.460488,2.0952921 21.995808,2.1484671 z "
           id="path3285"
           inkscape:r_cx="true"
           inkscape:r_cy="true" />
        <path
           sodipodi:nodetypes="cccccccccsccccccccccccccccccccsccccc"
           inkscape:r_cy="true"
           inkscape:r_cx="true"
           id="path3767"
           d="M 10.102903,6.2970655 C 8.7545689,7.3438694 8.1656464,7.9719226 7.0874684,9.2941942 L 10.489927,14.259153 C 9.4385072,15.857755 8.3316275,18.426114 8.1423859,19.987706 C 8.1423859,19.987706 2.0798859,21.0319 2.0798859,21.0319 C 2.0109129,21.595256 1.90625,22.884803 1.90625,22.884803 L 2.0830267,24.447303 C 2.5107567,24.535638 2.9231817,24.617818 3.3642767,24.666053 L 3.8642767,23.134803 C 4.2083177,23.163279 4.5439297,23.197303 4.8955267,23.197303 C 5.2467347,23.197303 5.6139847,23.163473 5.9580267,23.134803 L 6.4267767,24.666053 C 6.8680647,24.617818 7.3115487,24.535638 7.7392767,24.447303 L 7.7392767,22.884803 C 8.4250337,22.72518 9.0712777,22.497045 9.7080267,22.228553 L 10.645527,23.509803 C 11.047878,23.327709 11.421123,23.133984 11.801777,22.916053 L 11.301777,21.416053 C 11.89901,21.053803 12.463529,20.620706 12.989277,20.166053 L 14.270527,21.103553 C 14.596162,20.806973 14.91164,20.491691 15.208027,20.166053 L 14.270527,18.916053 C 14.725373,18.390305 15.127027,17.826171 15.489277,17.228553 L 16.989277,17.697303 C 17.207208,17.316456 17.432571,16.943209 17.614277,16.541053 L 16.333027,15.603553 C 16.601517,14.966804 16.798016,14.320561 16.958027,13.634803 L 18.551777,13.634803 C 18.640112,13.207076 18.691236,12.763591 18.739277,12.322303 L 17.239277,11.853553 C 17.268139,11.509705 17.301777,11.142456 17.301777,10.791053 C 17.301776,10.43965 17.267753,10.104039 17.239277,9.7598034 L 18.739277,9.2910534 C 18.69373,8.8711662 18.633686,8.4490548 18.551777,8.0410534 C 17.404349,8.4403544 15.999117,9.1941729 14.983265,9.8245243 L 10.102903,6.2970655 z "
           style="opacity:0.5;color:#000000;fill:#ffffff;fill-opacity:1;fill-rule:nonzero;stroke:none;stroke-width:1;stroke-linecap:butt;stroke-linejoin:miter;marker:none;marker-start:none;marker-mid:none;marker-end:none;stroke-miterlimit:4;stroke-dasharray:none;stroke-dashoffset:0;stroke-opacity:1;visibility:visible;display:inline;overflow:visible" />
        <path
           inkscape:r_cy="true"
           inkscape:r_cx="true"
           id="path3770"
           d="M 37.236641,17.217754 C 36.85286,17.39913 36.490003,17.603509 36.123236,17.813295 L 36.692886,19.548136 C 35.995792,19.970436 35.338156,20.467825 34.725008,20.998151 L 33.249099,19.910639 C 32.869013,20.256538 32.507327,20.618223 32.161588,20.998151 L 33.249099,22.474059 C 32.718773,23.087371 32.221547,23.745002 31.799084,24.441937 L 31.255328,24.260685 C 31.207646,24.960968 31.018949,25.62217 30.737466,26.228563 L 30.841038,26.306242 C 30.527881,27.048922 30.27649,27.83664 30.090137,28.636624 L 28.614229,28.636624 C 28.477946,28.722076 28.343676,28.821684 28.199938,28.895555 C 28.121568,29.310822 28.065026,29.712881 28.018687,30.138426 L 29.77942,30.708074 C 29.746033,31.10935 29.727633,31.515269 29.727633,31.925052 C 29.727631,32.334993 29.746034,32.740753 29.77942,33.142029 L 28.018687,33.711677 C 28.074705,34.226432 28.148678,34.740347 28.251725,35.239372 L 30.090137,35.213479 C 30.218255,35.763466 30.393202,36.320918 30.582107,36.844746 C 31.327023,36.557466 32.05594,36.214561 32.731236,35.809021 C 32.319649,34.59298 32.083908,33.279913 32.083908,31.925052 C 32.083909,26.727119 35.376289,22.288397 39.981313,20.583861 L 38.893802,20.402608 C 38.671014,19.579946 38.382478,18.774017 38.013435,18.020441 C 38.002581,17.998277 37.99851,17.96486 37.987542,17.942761 L 37.935756,17.890975 L 37.236641,17.217754 z "
           style="opacity:0.5;color:#000000;fill:#ffffff;fill-opacity:1;fill-rule:nonzero;stroke:none;stroke-width:1;stroke-linecap:butt;stroke-linejoin:miter;marker:none;marker-start:none;marker-mid:none;marker-end:none;stroke-miterlimit:4;stroke-dasharray:none;stroke-dashoffset:0;stroke-opacity:1;visibility:visible;display:inline;overflow:visible" />
      </g>
    </g>
    <g
       id="g1649"
       inkscape:label="Layer 1"
       transform="matrix(0.689525,0,0,0.689525,15.0163,17.44755)">
      <g
         id="g1772">
        <path
           style="opacity:1;color:#000000;fill:#dcdcdc;fill-opacity:1;fill-rule:evenodd;stroke:#484848;stroke-width:2.9005475;stroke-linecap:round;stroke-linejoin:miter;marker:none;marker-start:none;marker-mid:none;marker-end:none;stroke-miterlimit:10;stroke-dasharray:none;stroke-dashoffset:0;stroke-opacity:1;visibility:visible;display:inline;overflow:visible"
           d="M 18.627569,3.1435548 C 10.488439,3.1435548 3.8827682,9.7492259 3.8827682,17.888356 C 3.8827682,26.027486 10.488439,32.633158 18.627569,32.633158 C 22.107124,32.633158 25.17857,31.248765 27.701292,29.230511 C 27.495915,30.237392 27.623257,31.265879 28.457436,31.990436 L 39.42152,41.517846 C 40.654936,42.589175 42.508982,42.448806 43.58031,41.215389 C 44.651638,39.981971 44.511269,38.127927 43.277853,37.056599 L 32.313769,27.529188 C 31.642242,26.945909 30.820891,26.773219 30.007531,26.886466 C 31.994231,24.374044 33.37237,21.337663 33.37237,17.888356 C 33.37237,9.7492259 26.766699,3.1435548 18.627569,3.1435548 z M 18.551954,4.3697381 C 26.191413,4.3697381 31.843729,9.1586886 31.843729,17.661513 C 31.843729,26.336626 26.027039,30.953288 18.551954,30.953288 C 11.249005,30.953288 5.2601806,25.475196 5.2601806,17.661513 C 5.2601806,9.6774061 11.084819,4.369738 18.551954,4.3697381 z "
           id="path2844"
           sodipodi:nodetypes="csscccscccscczzzz" />
        <path
           id="path4430"
           d="M 18.602905,3.0803551 C 10.437465,3.0803551 3.8104408,9.7073791 3.8104408,17.872819 C 3.8104408,26.038259 10.437465,32.665283 18.602905,32.665283 C 22.093708,32.665283 25.175082,31.276416 27.70596,29.251638 C 27.499919,30.261774 27.627672,31.293585 28.464547,32.020484 L 39.464073,41.578691 C 40.701476,42.653483 42.561515,42.512661 43.636306,41.275256 C 44.711097,40.037852 44.570274,38.177814 43.332871,37.103023 L 32.333346,27.544815 C 31.659648,26.959651 30.835642,26.786402 30.019653,26.900016 C 32.012775,24.379472 33.395369,21.333276 33.395369,17.872819 C 33.395369,9.7073791 26.768345,3.0803551 18.602905,3.0803551 z M 18.527046,6.2664243 C 24.808154,6.2664245 29.905864,11.364135 29.905864,17.645243 C 29.905864,23.926351 24.808154,29.024061 18.527046,29.024061 C 12.245938,29.024061 7.1482276,23.926351 7.1482276,17.645243 C 7.1482278,11.364135 12.245938,6.2664243 18.527046,6.2664243 z "
           style="opacity:1;color:#000000;fill:#dcdcdc;fill-opacity:1;fill-rule:evenodd;stroke:none;stroke-width:1.00000036;stroke-linecap:round;stroke-linejoin:miter;marker:none;marker-start:none;marker-mid:none;marker-end:none;stroke-miterlimit:10;stroke-dasharray:none;stroke-dashoffset:0;stroke-opacity:1;visibility:visible;display:inline;overflow:visible" />
        <path
           sodipodi:nodetypes="ccccc"
           id="path4438"
           d="M 39.507004,41.57769 C 39.028332,39.304503 40.904334,36.766268 43.091057,36.789315 C 43.091057,36.789315 32.33069,27.531204 32.33069,27.531204 C 29.385899,27.474498 28.061188,29.80382 28.553876,32.131126 L 39.507004,41.57769 z "
           style="opacity:1;color:#000000;fill:url(#linearGradient4446);fill-opacity:1;fill-rule:evenodd;stroke:none;stroke-width:1;stroke-linecap:round;stroke-linejoin:miter;marker:none;marker-start:none;marker-mid:none;marker-end:none;stroke-miterlimit:10;stroke-dasharray:none;stroke-dashoffset:0;stroke-opacity:1;visibility:visible;display:inline;overflow:visible" />
        <path
           transform="matrix(1.245743,0,0,1.245743,-3.425346,-6.177033)"
           d="M 28.549437 18.920233 A 11.048544 11.048544 0 1 1  6.4523487,18.920233 A 11.048544 11.048544 0 1 1  28.549437 18.920233 z"
           sodipodi:ry="11.048544"
           sodipodi:rx="11.048544"
           sodipodi:cy="18.920233"
           sodipodi:cx="17.500893"
           id="path4450"
           style="opacity:1;color:#000000;fill:none;fill-opacity:1;fill-rule:evenodd;stroke:url(#linearGradient2372);stroke-width:0.8027336;stroke-linecap:round;stroke-linejoin:miter;marker:none;marker-start:none;marker-mid:none;marker-end:none;stroke-miterlimit:10;stroke-dasharray:none;stroke-dashoffset:0;stroke-opacity:1;visibility:visible;display:inline;overflow:visible"
           sodipodi:type="arc" />
        <rect
           transform="matrix(0.752986,0.658037,-0.648902,0.760872,0,0)"
           ry="2.7380238"
           rx="3.098742"
           y="0.14086054"
           x="40.373337"
           height="4.4404783"
           width="19.048439"
           id="rect4495"
           style="opacity:0.43315507;color:#000000;fill:none;fill-opacity:1;fill-rule:evenodd;stroke:#ffffff;stroke-width:1.00003111;stroke-linecap:round;stroke-linejoin:miter;marker:none;marker-start:none;marker-mid:none;marker-end:none;stroke-miterlimit:10;stroke-dasharray:none;stroke-dashoffset:0;stroke-opacity:1;visibility:visible;display:inline;overflow:visible" />
        <path
           transform="matrix(1.398614,0,0,1.398614,-6.224338,-8.298958)"
           d="M 25.897786 18.478292 A 8.3085051 8.3085051 0 1 1  9.280776,18.478292 A 8.3085051 8.3085051 0 1 1  25.897786 18.478292 z"
           sodipodi:ry="8.3085051"
           sodipodi:rx="8.3085051"
           sodipodi:cy="18.478292"
           sodipodi:cx="17.589281"
           id="path4452"
           style="opacity:0.5;color:#000000;fill:url(#radialGradient4460);fill-opacity:1;fill-rule:evenodd;stroke:#3063a3;stroke-width:0.71499395;stroke-linecap:round;stroke-linejoin:miter;marker:none;marker-start:none;marker-mid:none;marker-end:none;stroke-miterlimit:10;stroke-dashoffset:0;stroke-opacity:1;visibility:visible"
           sodipodi:type="arc" />
        <path
           id="path4462"
           d="M 18.156915,7.3966938 C 12.949325,7.3966938 8.7323681,11.613651 8.7323681,16.821241 C 8.7323681,18.325216 9.1526753,19.709014 9.77954,20.971144 C 11.03192,21.432757 12.362297,21.746827 13.774307,21.746827 C 19.945262,21.746827 24.873589,16.88519 25.254413,10.809698 C 23.523449,8.7641668 21.044374,7.3966938 18.156915,7.3966938 z "
           style="opacity:0.5;color:#000000;fill:url(#radialGradient4473);fill-opacity:1;fill-rule:evenodd;stroke:none;stroke-width:1;stroke-linecap:round;stroke-linejoin:miter;marker:none;marker-start:none;marker-mid:none;marker-end:none;stroke-miterlimit:10;stroke-dasharray:none;stroke-dashoffset:0;stroke-opacity:1;visibility:visible;display:inline;overflow:visible" />
      </g>
    </g>
  </g>
</svg>
