<svg width="14" height="28" viewBox="0 0 14 28" fill="none" xmlns="http://www.w3.org/2000/svg">
<path fill-rule="evenodd" clip-rule="evenodd" d="M6.004 26.0015H8.003V25.0022H6.004V26.0015ZM6.004 24.003H8.003V23.0037H6.004V24.003ZM6.004 22.0045H8.003V21.0052H6.004V22.0045ZM6.50375 7.01574H7.50325V6.01649H6.50375V7.01574ZM7.0035 4.002C5.62519 4.002 4.50475 5.12216 4.50475 6.50012C4.50475 7.87709 5.62519 8.99825 7.0035 8.99825C8.38181 8.99825 9.50225 7.87709 9.50225 6.50012C9.50225 5.12216 8.38181 4.002 7.0035 4.002ZM7.0035 3.00275C8.93153 3.00275 10.5017 4.57157 10.5017 6.50012C10.5017 8.42868 8.93153 9.9975 7.0035 9.9975C5.07446 9.9975 3.50525 8.42868 3.50525 6.50012C3.50525 4.57157 5.07446 3.00275 7.0035 3.00275ZM8.003 0.99925H9.0025V0H8.003V0.99925ZM10.9595 28H11.959V21.0052H10.9595V28ZM1.98501 28H2.98451V23.0037H1.98501V28ZM1.98501 21.0052H2.98451V19.0067H1.98501V21.0052ZM13.0225 14.2253C12.5177 13.9885 11.908 14.0005 11.3963 13.9885H10.002V14.9878H11.4083H11.4193C11.8321 14.9878 12.2969 14.9888 12.5967 15.1297C12.7176 15.1866 13.0005 15.3195 13.0005 16.009V17.0082H9.0025V18.0075H13.0005V28H14V16.009C14 15.1307 13.6712 14.5311 13.0225 14.2253ZM7.0035 18.0175V17.0182H1.0005L0.9995 16.009C0.9995 15.3115 1.26137 15.1816 1.37531 15.1267C1.65717 14.9878 2.09995 14.9868 2.53373 14.9888H4.005V13.9895H2.51974C2.007 13.9985 1.42429 13.9895 0.933534 14.2303C0.313844 14.5341 0 15.1336 0 16.009L0.00699615 22.0045L1.0065 22.0035L1.0015 18.0175H7.0035ZM14 1.00225V12.012C14 12.3308 14 12.5836 13.7991 12.7904C13.5962 13.0012 13.3383 13.0052 13.0395 13.0052H13.0225H8.9955V15.0097H7.996V13.0052H5.997V15.0097H4.9975V13.0052H1.0065C0.224887 13.0052 0 12.7824 0 12.012V1.02023C0 0.6665 -2.08616e-07 0.41269 0.214892 0.203847C0.423788 -1.78814e-07 0.680659 0 1.0065 0H7.0035V0.99925H1.0065H0.9995V12.006H1.0065H13.0005V1.02023V0.99925H10.002V0H13.0005C13.3263 0 13.5832 -1.49012e-08 13.7941 0.211841C14 0.421684 14 0.677492 14 1.00225Z" fill="currentColor"/>
</svg>
