<svg width="28" height="21" viewBox="0 0 28 21" fill="none" xmlns="http://www.w3.org/2000/svg">
<path fill-rule="evenodd" clip-rule="evenodd" d="M23.0234 20L13.0184 1H15.8904L25.8934 20H23.0234ZM16.6344 0.267C16.5484 0.103 16.3774 0 16.1924 0H12.1904C12.0154 0 11.8524 0.0919996 11.7624 0.242C11.6714 0.392 11.6664 0.578 11.7484 0.733L22.2794 20.733C22.3664 20.897 22.5364 21 22.7214 21H26.7214C26.8964 21 27.0594 20.908 27.1494 20.758C27.2404 20.608 27.2464 20.422 27.1644 20.267L16.6344 0.267ZM16.8084 20L9.57139 5.528L10.9414 3.077L19.6784 20H16.8084ZM11.4034 1.792C11.3184 1.628 11.1514 1.524 10.9664 1.521H10.9594C10.7784 1.521 10.6114 1.619 10.5224 1.777L8.56939 5.271C8.48839 5.416 8.48439 5.591 8.55839 5.739L16.0524 20.724C16.1374 20.893 16.3104 21 16.5004 21H20.5004C20.6744 21 20.8354 20.909 20.9264 20.76C21.0174 20.611 21.0244 20.426 20.9444 20.271L11.4034 1.792ZM1.35439 20L7.85839 8.426L8.93339 10.495L5.24939 17.3C5.16539 17.456 5.16939 17.643 5.25839 17.794C5.34839 17.946 5.51239 18.039 5.68839 18.039H12.6874L13.6844 20H1.35439ZM13.4394 17.312C13.3544 17.144 13.1824 17.039 12.9944 17.039H6.52839L9.93939 10.738C10.0184 10.592 10.0204 10.417 9.94339 10.27L8.31839 7.145C8.23439 6.981 8.06639 6.878 7.88239 6.875H7.87539C7.69439 6.875 7.52739 6.972 7.43939 7.13L0.0643881 20.255C-0.0226118 20.41 -0.0216117 20.599 0.0683883 20.752C0.158388 20.906 0.322388 21 0.500388 21H14.5004C14.6734 21 14.8354 20.91 14.9254 20.761C15.0174 20.613 15.0244 20.428 14.9454 20.273L13.4394 17.312Z" fill="currentColor"/>
</svg>
