<svg width="23" height="27" viewBox="0 0 23 27" fill="none" xmlns="http://www.w3.org/2000/svg">
<path fill-rule="evenodd" clip-rule="evenodd" d="M4.95468 17.394V14.512L7.45805 13.262L9.96143 14.512V17.394L7.45805 18.644L4.95468 17.394ZM17.9933 14.512V17.394L15.4899 18.644L12.9865 17.394V14.512L15.4899 13.262L17.9933 14.512ZM21.9986 18.933L18.9946 17.397V14.203C18.9946 14.014 18.8865 13.841 18.7172 13.756L15.7132 12.256C15.573 12.186 15.4068 12.186 15.2656 12.256L12.2615 13.756C12.0923 13.841 11.9852 14.014 11.9852 14.203V17.703C11.9852 17.893 12.0923 18.065 12.2615 18.15L15.2656 19.65C15.4068 19.721 15.573 19.721 15.7132 19.65L18.4909 18.264L21.4769 19.79L11.9852 25.607V20.5H10.9838V25.605L1.51604 19.788L4.45801 18.264L7.23375 19.65C7.30485 19.686 7.38195 19.703 7.45805 19.703C7.53415 19.703 7.61126 19.686 7.68235 19.65L10.6864 18.15C10.8556 18.065 10.9628 17.893 10.9628 17.703V14.203C10.9628 14.014 10.8556 13.841 10.6864 13.756L7.68235 12.256C7.54116 12.186 7.37494 12.186 7.23375 12.256L4.2297 13.756C4.06047 13.841 3.95333 14.014 3.95333 14.203V17.399L1.00135 18.928V7.438L4.69633 9.915L5.25408 9.085L1.46397 6.544L10.9838 1.344V5.152L8.25613 6.514C8.0869 6.599 7.97976 6.772 7.97976 6.961V10.461C7.97976 10.65 8.0859 10.823 8.25513 10.908L11.2592 12.419C11.4004 12.491 11.5676 12.491 11.7088 12.419L14.7128 10.908C14.8821 10.823 14.9892 10.65 14.9892 10.461V6.961C14.9892 6.772 14.8811 6.599 14.7118 6.514L11.9852 5.152V1.343L21.4539 6.5L16.7516 9.061L17.2312 9.939L21.9986 7.343V18.933ZM11.4845 6.02L13.9879 7.27V10.153L11.4845 11.413L8.98111 10.153V7.27L11.4845 6.02ZM22.7386 6.061L11.7238 0.0610023C11.5736 -0.0209977 11.3934 -0.0199977 11.2432 0.0620022L0.260351 6.062C0.0991339 6.149 0 6.318 0 6.5V19.75C0 19.924 0.0901216 20.085 0.238321 20.176L11.2221 26.926C11.3022 26.976 11.3934 27 11.4845 27C11.5746 27 11.6657 26.976 11.7458 26.927L22.7607 20.177C22.9099 20.086 23 19.924 23 19.75V6.5C23 6.317 22.8999 6.149 22.7386 6.061Z" fill="currentColor"/>
</svg>
