<svg width="28" height="23" viewBox="0 0 28 23" fill="none" xmlns="http://www.w3.org/2000/svg">
<path fill-rule="evenodd" clip-rule="evenodd" d="M2.25003 5H4.50005V4H3.00004L3.75004 3H6.50008C6.58908 3 6.67208 2.969 6.74708 2.925L7.45809 4.347L6.24607 6H4.00005V7H6.50008C6.65908 7 6.81008 6.924 6.90308 6.795L8.2961 4.896H9.72411L11.0951 6.793C11.1881 6.923 11.3401 7 11.5001 7H13.4502L12.3081 9H2.76803L1.11201 6.517L2.25003 5ZM8.7071 1H11.2931L13.1462 2.854C13.2422 2.948 13.3902 2.999 13.5072 3L16.1912 2.962L17.5212 4.715L16.0782 6.981L16.9222 7.519L18.1642 5.565L18.8872 6.519L17.2322 9H13.4602L15.5802 5.29L14.7112 4.793L14.0002 6.038V6H11.7561L10.5881 4.384L11.6871 2.736L10.8541 2.181L9.71211 3.896H8.3521L7.50409 2.203L8.7071 1ZM2.08402 9.777C2.17703 9.917 2.33303 10 2.50003 10H17.5002C17.6672 10 17.8232 9.917 17.9162 9.777L19.9162 6.777C20.0342 6.6 20.0272 6.368 19.8982 6.198L16.8362 2.157C16.7402 2.03 16.5772 1.946 16.4312 1.958L13.7042 1.997L11.8541 0.146C11.7601 0.0529999 11.6331 0 11.5001 0H8.5001C8.3671 0 8.2401 0.0529999 8.1461 0.146L6.29307 2H3.50004C3.34304 2 3.19404 2.074 3.10004 2.2L0.100001 6.2C-0.0270001 6.37 -0.0330003 6.601 0.0840011 6.777L2.08402 9.777ZM26.3933 12.584C25.9673 12.941 25.3483 13.081 24.5493 13.002C24.3273 12.984 24.1193 13.107 24.0363 13.314C24.0013 13.401 20.4512 22 12.5001 22C8.2931 22 1.29402 20.816 1.00901 13H21.5002C21.6723 13 21.8313 12.912 21.9233 12.767C22.0153 12.622 22.0253 12.44 21.9513 12.285C20.8072 9.878 22.1343 8.455 22.6183 8.041C22.9273 8.128 23.5233 8.355 23.8543 8.855C24.1153 9.249 24.1693 9.761 24.0153 10.379C23.9743 10.542 24.0193 10.716 24.1333 10.84C24.2483 10.964 24.4203 11.023 24.5843 10.993C24.6013 10.992 25.8913 10.783 26.9573 11.68C26.8933 11.915 26.7403 12.294 26.3933 12.584ZM27.8543 11.146C26.9153 10.208 25.7943 10 25.0933 9.975C25.1423 9.343 25.0063 8.782 24.6883 8.303C23.9833 7.238 22.6353 7.015 22.5783 7.006C22.4543 6.988 22.3273 7.015 22.2223 7.084C22.1943 7.103 19.6962 8.823 20.7592 12H0.5C0.224003 12 0 12.224 0 12.5C0 21.636 7.83209 23 12.5001 23C20.1872 23 24.0373 15.69 24.8153 14.021C25.7253 14.043 26.4683 13.825 27.0343 13.352C27.9023 12.626 27.9953 11.584 27.9983 11.54C28.0103 11.394 27.9573 11.25 27.8543 11.146Z" fill="currentColor"/>
</svg>
