<svg width="27" height="25" viewBox="0 0 27 25" fill="none" xmlns="http://www.w3.org/2000/svg">
<path fill-rule="evenodd" clip-rule="evenodd" d="M0 14.7357H1.99078V13.7545H0V14.7357ZM18.3968 7.69653C18.3391 7.49735 18.1619 7.3541 17.9529 7.34036C17.7339 7.32564 17.5478 7.44044 17.4622 7.62981L13.9096 15.5108L11.3952 10.5538C11.3146 10.3948 11.1534 10.2918 10.9742 10.283C10.8 10.2643 10.6238 10.3615 10.5283 10.5116L8.45486 13.7545H2.98618V14.7357H8.72959C8.90079 14.7357 9.05906 14.6493 9.15064 14.507L10.9005 11.7715L13.4905 16.8796C13.5752 17.0454 13.7474 17.1504 13.9355 17.1504H13.9474C14.1395 17.1465 14.3117 17.0327 14.3904 16.859L17.8125 9.2694L19.2758 14.3785C19.3365 14.5895 19.5316 14.7357 19.7545 14.7357H26.8756V13.7545H20.1308L18.3968 7.69653ZM14.3934 23.7362L7.27233 15.3636L6.50986 15.9945L14.0211 24.8253C14.1156 24.9362 14.256 25 14.4023 25H14.4073C14.5566 24.999 14.697 24.9313 14.7905 24.8165L21.9802 15.9857L21.2048 15.3715L14.3934 23.7362ZM3.80936 12.9852L2.16896 10.2545C1.62747 9.2694 1.35771 8.26955 1.35771 7.26579C1.35771 3.90616 4.28815 0 8.06765 0C10.8518 0 13.2437 1.64351 14.2421 3.9719C15.2404 1.64351 17.6324 0 20.4165 0C24.184 0 27 3.83649 27 7.26579C27 8.42262 26.786 9.38224 26.346 10.1986C26.1947 10.4822 26.0106 10.7647 25.7866 11.063L25.3646 11.5536L24.1592 13.0411L23.3818 12.4289L25.0072 10.4527C25.1814 10.2202 25.3377 9.97881 25.4661 9.73939C25.8294 9.06727 26.0046 8.25778 26.0046 7.26579C26.0046 4.35947 23.5639 0.9812 20.4165 0.9812C17.287 0.9812 14.7398 3.40967 14.7398 6.39546C14.7398 6.66627 14.5168 6.88606 14.2421 6.88606C13.9673 6.88606 13.7444 6.66627 13.7444 6.39546C13.7444 3.40967 11.1972 0.9812 8.06765 0.9812C4.84855 0.9812 2.35311 4.35947 2.35311 7.26579C2.35311 8.10471 2.58205 8.94756 3.03495 9.76981L4.6664 12.4848L3.80936 12.9852Z" fill="currentColor"/>
</svg>
