<svg width="28" height="24" viewBox="0 0 28 24" fill="none" xmlns="http://www.w3.org/2000/svg">
<path fill-rule="evenodd" clip-rule="evenodd" d="M21 11.982H24V10.9805H21V11.982ZM8 17.991H11V16.9895H8V17.991ZM3 17.991H6V16.9895H3V17.991ZM3 14.9865H9V13.985H3V14.9865ZM3 8.97744H8V7.97594H3V8.97744ZM3 11.982H19V10.9805H3V11.982ZM12.968 22.9985H1V5.97293H12.968V8.99447H13.968V5.47218C13.968 5.19576 13.745 4.97143 13.468 4.97143H0.5C0.223 4.97143 0 5.19576 0 5.47218V23.4992C0 23.7757 0.223 24 0.5 24H13.468C13.745 24 13.968 23.7757 13.968 23.4992V14.002H12.968V22.9985ZM28 10.4797C28 14.9354 24.04 14.9865 24 14.9865H16V13.985H24C24.305 13.982 27 13.8628 27 10.4797C27 7.63242 24.431 7.05456 23.917 6.96743C23.66 6.92436 23.48 6.69101 23.502 6.43162L23.505 6.40158C23.476 4.79516 22.49 4.29241 22.063 4.1512C21.264 3.8838 20.376 4.14018 19.905 4.77013C19.796 4.91735 19.61 4.99246 19.43 4.96642C19.248 4.93838 19.095 4.81319 19.034 4.63893C18.723 3.76862 18.272 3.20478 17.646 2.57683C16.077 1.01849 13.955 0.589849 11.963 1.42711C10.919 1.86677 10.007 2.86527 9.461 4.16422L8.539 3.77563C9.185 2.23732 10.292 1.04453 11.575 0.50372C13.954 -0.497784 16.486 0.0129825 18.352 1.86777C18.886 2.40357 19.33 2.92536 19.675 3.60237C20.424 3.04954 21.427 2.8853 22.379 3.19977C23.595 3.60538 24.364 4.66096 24.488 6.06507C26.19 6.49472 28 7.85676 28 10.4797Z" fill="currentColor"/>
</svg>
