<svg width="22" height="28" viewBox="0 0 22 28" fill="none" xmlns="http://www.w3.org/2000/svg">
<path fill-rule="evenodd" clip-rule="evenodd" d="M6.6368 26.9999H9.71311V16.0167H6.6368V26.9999ZM1.06009 9.99807H4.41366C4.23018 11.8883 4.55127 13.3454 4.93249 14.3305C3.39638 13.4354 1.36895 11.9163 1.06009 9.99807ZM7.58884 7.99786H7.98026H8.38799H8.89052L9.43279 8.99796H7.00375L7.58884 7.99786ZM8.18413 6.00464L8.68665 6.4977L8.18413 6.99075L7.6816 6.4977L8.18413 6.00464ZM12.2726 13.8415C12.8057 12.8794 13.2114 11.5882 13.0809 9.99807H15.6262C15.3408 11.5572 13.7802 12.8904 12.2726 13.8415ZM8.69379 9.99807H12.0606C12.3328 12.8674 10.5398 14.5976 10.0413 15.0166H8.69379V9.99807ZM6.40032 15.0166C6.05986 14.4856 5.14043 12.7474 5.43196 9.99807H7.67447V15.0166H6.40032ZM16.6914 9.49802C16.6914 9.22199 16.463 8.99796 16.1817 8.99796H10.5877L9.64685 7.26278C9.61321 7.19977 9.55817 7.15477 9.50211 7.11276L9.56327 7.05176C9.65908 6.95775 9.71311 6.83073 9.71311 6.69772V6.29768C9.71311 6.16466 9.65908 6.03765 9.56327 5.94364L8.74883 5.14355C8.65301 5.05054 8.52356 4.99754 8.38799 4.99754H7.98026C7.84469 4.99754 7.71524 5.05054 7.61942 5.14355L6.80397 5.94364C6.70917 6.03765 6.65515 6.16466 6.65515 6.29768V6.69772C6.65515 6.83073 6.70917 6.95775 6.80397 7.05176L6.92832 7.17377C6.90386 7.19977 6.87124 7.21677 6.85187 7.24878L5.82746 8.99796H0.509661C0.227309 8.99796 0 9.22199 0 9.49802C0 12.7724 3.97943 15.0376 5.61748 15.8317V27.4999C5.61748 27.776 5.8458 28 6.12714 28H10.2228C10.5041 28 10.7324 27.776 10.7324 27.4999V15.8307C13.086 14.7126 16.6914 12.5103 16.6914 9.49802ZM11.8812 5.36858L10.9669 5.81262C10.4429 4.77651 9.38489 4.13244 8.20553 4.13244C7.0272 4.13244 5.96914 4.77651 5.44419 5.81262L4.53088 5.36858C5.22912 3.98843 6.6368 3.13234 8.20553 3.13234C9.77427 3.13234 11.1819 3.98843 11.8812 5.36858ZM12.396 5.11055C11.5968 3.54138 9.99138 2.56627 8.20553 2.56627C6.4156 2.56627 4.80915 3.54438 4.01307 5.11855L3.09975 4.6735C4.07015 2.7563 6.02724 1.56617 8.20553 1.56617C10.3797 1.56617 12.3348 2.7533 13.3072 4.6645L12.396 5.11055ZM2.58194 4.42047L1.66965 3.97543C2.9122 1.52316 5.41667 0 8.20553 0C10.9862 0 13.4877 1.51716 14.7333 3.95842L13.821 4.40547C12.7486 2.30525 10.5979 1.00011 8.20553 1.00011C5.80707 1.00011 3.65223 2.31025 2.58194 4.42047ZM16.9849 17.1578C17.465 16.3257 17.8881 15.2396 17.8677 13.9985H20.892C20.47 15.2156 18.6077 16.3418 16.9849 17.1578ZM12.7711 26.9999H14.8097V18.999H12.7711V26.9999ZM22 13.4984C22 13.2224 21.7717 12.9984 21.4903 12.9984H15.829V13.9985H16.8218C16.8555 15.9677 15.5283 17.5519 15.1033 17.9989H12.7711V15.9987H11.7517V27.4999C11.7517 27.776 11.9791 28 12.2614 28H15.3194C15.6007 28 15.829 27.776 15.829 27.4999V18.817C18.1602 17.7539 22 15.9857 22 13.4984Z" fill="currentColor"/>
</svg>
