<svg width="28" height="28" viewBox="0 0 28 28" fill="none" xmlns="http://www.w3.org/2000/svg">
<path fill-rule="evenodd" clip-rule="evenodd" d="M18 20.9992H23V21.9993H18V22.9994H17V21.9993H15V20.9992H17V19.9991H18V20.9992ZM22 15.9986H23V16.9987H22V17.9988H21V16.9987H15V15.9986H21V14.9985H22V15.9986ZM4.357 16.9987H9V17.9988H4.357C3.826 17.9988 3.276 17.9988 2.71 17.6458C1.698 17.0187 0 15.5495 0 12.7642C0 9.38779 2.33 8.14865 3.689 7.71459L3.663 7.27654C3.662 4.49421 5.538 1.64388 8.026 0.615753C10.934 -0.59739 14.014 0.00468111 16.269 2.22194C16.97 2.90903 17.546 3.74712 17.987 4.72024C18.883 3.98615 20.102 3.74012 21.232 4.11817C22.63 4.58422 23.502 5.86238 23.612 7.57258C25.243 7.84661 28 8.43268 28 11.9981H27C27 9.35879 25.309 8.86573 23.266 8.52869L23.028 8.48969C22.893 8.46668 22.771 8.38867 22.695 8.27266C22.619 8.15765 22.594 8.01663 22.626 7.88161C22.624 6.47845 22.001 5.42932 20.916 5.06628C19.927 4.73824 18.843 5.08028 18.213 5.91938C18.104 6.0664 17.927 6.13841 17.739 6.11341C17.558 6.0864 17.406 5.96139 17.344 5.78937C16.928 4.64323 16.331 3.68412 15.568 2.93503C13.609 1.0088 10.934 0.487738 8.41 1.53886C6.308 2.40797 4.662 4.91426 4.662 7.24654L4.712 8.05464C4.727 8.29566 4.567 8.51169 4.334 8.5707C3.089 8.87973 1 9.83685 1 12.7642C1 14.9505 2.217 16.1636 3.238 16.7967C3.547 16.9887 3.864 16.9987 4.357 16.9987ZM27 20.1591L26.118 20.1091C25.887 20.1011 25.656 20.2591 25.602 20.4981C25.434 21.2472 25.14 21.9573 24.729 22.6084C24.598 22.8154 24.636 23.0854 24.818 23.2484L25.478 23.8355L23.836 25.4767L23.251 24.8206C23.088 24.6376 22.817 24.5996 22.61 24.7296C21.96 25.1417 21.249 25.4367 20.498 25.6057C20.26 25.6597 20.095 25.8777 20.109 26.1228L20.16 26.9999H17.84L17.891 26.1218C17.905 25.8777 17.74 25.6597 17.502 25.6047C16.753 25.4357 16.042 25.1417 15.39 24.7286C15.184 24.6006 14.913 24.6366 14.75 24.8196L14.164 25.4767L12.522 23.8365L13.181 23.2494C13.363 23.0874 13.401 22.8164 13.271 22.6094C12.86 21.9613 12.566 21.2502 12.396 20.4981C12.343 20.2601 12.151 20.1031 11.881 20.1091L11 20.1591V17.8388L11.884 17.8888C12.155 17.8948 12.346 17.7378 12.399 17.4998C12.569 16.7517 12.863 16.0426 13.274 15.3925C13.405 15.1865 13.367 14.9154 13.185 14.7524L12.522 14.1624L14.164 12.5212L14.754 13.1832C14.916 13.3643 15.187 13.4013 15.394 13.2723C16.045 12.8622 16.754 12.5682 17.502 12.4002C17.74 12.3461 17.904 12.1271 17.891 11.8831L17.84 10.998H20.16L20.109 11.8841C20.096 12.1281 20.26 12.3471 20.498 12.4011C21.246 12.5702 21.955 12.8642 22.605 13.2743C22.812 13.4043 23.084 13.3673 23.245 13.1842L23.836 12.5212L25.478 14.1624L24.816 14.7514C24.634 14.9144 24.596 15.1855 24.727 15.3925C25.138 16.0406 25.432 16.7497 25.602 17.4998C25.655 17.7378 25.847 17.9048 26.117 17.8888L27 17.8388V20.1591ZM27.472 16.8107L26.472 16.8677C26.309 16.2936 26.08 15.7435 25.79 15.2235L26.538 14.5554C26.641 14.4644 26.701 14.3344 26.705 14.1964C26.709 14.0593 26.656 13.9263 26.559 13.8293L24.169 11.439C24.072 11.342 23.946 11.292 23.801 11.293C23.664 11.297 23.534 11.357 23.442 11.46L22.772 12.2111C22.253 11.9211 21.703 11.6931 21.131 11.531L21.188 10.5269C21.196 10.3889 21.147 10.2549 21.053 10.1549C20.959 10.0549 20.827 9.99787 20.689 9.99787H17.311C17.173 9.99787 17.041 10.0549 16.947 10.1549C16.853 10.2549 16.804 10.3889 16.812 10.5269L16.869 11.529C16.297 11.6921 15.747 11.9191 15.227 12.2091L14.558 11.46C14.466 11.357 14.336 11.297 14.199 11.293C14.063 11.295 13.928 11.343 13.831 11.439L11.441 13.8293C11.344 13.9263 11.291 14.0593 11.295 14.1964C11.299 14.3344 11.359 14.4634 11.462 14.5554L12.211 15.2245C11.921 15.7455 11.693 16.2946 11.53 16.8677L10.528 16.8107C10.394 16.8077 10.257 16.8517 10.156 16.9457C10.057 17.0407 10 17.1717 10 17.3097V20.6881C10 20.8261 10.057 20.9572 10.156 21.0522C10.257 21.1462 10.394 21.1972 10.528 21.1872L11.526 21.1302C11.689 21.7063 11.918 22.2573 12.207 22.7774L11.462 23.4425C11.359 23.5335 11.299 23.6635 11.295 23.8015C11.291 23.9385 11.344 24.0715 11.441 24.1685L13.831 26.5588C13.928 26.6558 14.06 26.7018 14.199 26.7048C14.337 26.7008 14.466 26.6408 14.558 26.5378L15.222 25.7917C15.744 26.0838 16.296 26.3118 16.869 26.4758L16.812 27.4709C16.804 27.608 16.853 27.743 16.947 27.843C17.041 27.943 17.173 28 17.311 28H20.689C20.827 28 20.959 27.943 21.053 27.843C21.147 27.743 21.196 27.608 21.188 27.4709L21.131 26.4768C21.706 26.3128 22.258 26.0838 22.779 25.7927L23.442 26.5378C23.534 26.6408 23.663 26.7008 23.801 26.7048C23.95 26.7058 24.072 26.6558 24.169 26.5588L26.559 24.1685C26.656 24.0715 26.709 23.9385 26.705 23.8015C26.701 23.6635 26.641 23.5335 26.538 23.4425L25.791 22.7764C26.082 22.2543 26.31 21.7043 26.473 21.1302L27.472 21.1872C27.606 21.1972 27.743 21.1462 27.844 21.0522C27.943 20.9572 28 20.8261 28 20.6881V17.3097C28 17.1717 27.943 17.0407 27.844 16.9457C27.743 16.8517 27.606 16.8077 27.472 16.8107Z" fill="currentColor"/>
</svg>
