<svg width="28" height="26" viewBox="0 0 28 26" fill="none" xmlns="http://www.w3.org/2000/svg">
<path fill-rule="evenodd" clip-rule="evenodd" d="M5.934 14.8725C5.934 14.9147 5.945 14.9539 5.947 14.9961H8.17031V16.0012H6.09109C6.59539 17.9692 8.36143 19.4347 10.4747 19.4347C12.5889 19.4347 14.355 17.9692 14.8593 16.0012H12.708V14.9961H15.0033C15.0043 14.9539 15.0163 14.9147 15.0163 14.8725C15.0163 12.3577 12.9791 10.3103 10.4747 10.3103C7.9712 10.3103 5.934 12.3577 5.934 14.8725ZM4.93341 14.8725C4.93341 11.8029 7.41887 9.30524 10.4747 9.30524C13.5315 9.30524 16.0169 11.8029 16.0169 14.8725C16.0169 17.9421 13.5315 20.4398 10.4747 20.4398C7.41887 20.4398 4.93341 17.9421 4.93341 14.8725ZM3.91681 14.8725C3.91681 18.5049 6.85954 21.46 10.4747 21.46C14.0908 21.46 17.0335 18.5049 17.0335 14.8725C17.0335 11.2401 14.0908 8.28506 10.4747 8.28506C6.85954 8.28506 3.91681 11.2401 3.91681 14.8725ZM3.00927 16.0012H1.39232L2.11575 17.1903L1.26124 17.7139L0.0735433 15.761C-0.0245145 15.6002 -0.0245145 15.3972 0.0735433 15.2364L1.26124 13.2834L2.11575 13.8071L1.39232 14.9961H2.92222C2.92222 14.9549 2.91622 14.9147 2.91622 14.8725C2.91622 10.6863 6.30722 7.27996 10.4747 7.27996C14.6431 7.27996 18.0341 10.6863 18.0341 14.8725C18.0341 14.9147 18.0281 14.9549 18.0281 14.9961H23.0091V16.0012H17.9411C17.3948 19.6528 14.2599 22.4651 10.4747 22.4651C6.69044 22.4651 3.55459 19.6528 3.00927 16.0012ZM9.5011 13.5307H9.97438V14.9961H9.0008V16.0012H12.0026V14.9961H10.975V13.5307H11.5023V14.0332H12.5029V13.0281C12.5029 12.7497 12.2797 12.5256 12.0026 12.5256H9.0008C8.72464 12.5256 8.50051 12.7497 8.50051 13.0281V14.0332H9.5011V13.5307ZM19.0067 13.0915H23.0091V12.0864H19.0067V13.0915ZM18.0061 19.0738H23.0091V18.0687H18.0061V19.0738ZM21.9464 6.99049H24.2398L21.9464 4.76921V6.99049ZM25.8267 7.1312C25.9248 7.22669 25.9798 7.35635 25.9798 7.49304V25.4974C25.9798 25.7749 25.7567 26 25.4795 26H9.54913C9.27296 26 9.04883 25.7749 9.04883 25.4974V23.0792H10.0494V24.9949H24.9792V7.99559H21.4461C21.17 7.99559 20.9458 7.77146 20.9458 7.49304V4.08876H10.0494V5.99242H9.04883V3.58621C9.04883 3.3088 9.27296 3.08366 9.54913 3.08366H21.4461C21.5762 3.08366 21.7003 3.13492 21.7933 3.22538L25.8267 7.1312ZM28 4.88882V24.0843H26.9994V5.07577L23.4983 1.0051H11.9125V1.97201H10.9119V0.502552C10.9119 0.225143 11.1351 0 11.4122 0H23.7265C23.8726 0 24.0096 0.0633217 24.1047 0.173883L27.8779 4.56015C27.957 4.65162 28 4.76821 28 4.88882Z" fill="currentColor"/>
</svg>
