<svg width="28" height="27" viewBox="0 0 28 27" fill="none" xmlns="http://www.w3.org/2000/svg">
<path fill-rule="evenodd" clip-rule="evenodd" d="M1.00992 13.078C1.00992 12.475 1.50478 11.985 2.11477 11.985C2.72274 11.985 3.21861 12.475 3.21861 13.078C3.21861 13.681 2.72274 14.171 2.11477 14.171C1.50478 14.171 1.00992 13.681 1.00992 13.078ZM14.7761 26C8.81255 26 3.6448 21.375 2.47026 15.136C3.30041 14.995 3.9609 14.378 4.15986 13.578H7.10882V12.578H4.15986C3.96292 11.789 3.31859 11.176 2.50561 11.024C3.72054 5.252 8.8378 1 14.7761 1C17.7089 1 20.1297 1.643 21.9698 2.911L22.5454 2.09C20.5337 0.703 17.919 0 14.7761 0C8.26619 0 2.67225 4.726 1.46842 11.096C0.61908 11.368 0 12.149 0 13.078C0 13.994 0.601912 14.766 1.43106 15.049C2.59145 21.894 8.23892 27 14.7761 27C18.0614 27 21.5638 25.333 23.5624 23.906L22.9726 23.095C20.9457 24.541 17.6261 26 14.7761 26ZM8.78932 11.242C9.90023 11.516 11.3121 11.563 12.1322 11.563C12.9653 11.563 14.4035 11.516 15.5336 11.243L13.133 16.257C13.1017 16.324 13.0845 16.397 13.0845 16.472V18.796L11.1283 19.711V16.472C11.1283 16.401 11.1121 16.33 11.0839 16.266L8.78932 11.242ZM12.1322 9.485C14.4459 9.485 15.6861 9.796 16.083 10.005C15.6659 10.239 14.3378 10.563 12.1322 10.563C9.94871 10.563 8.64995 10.236 8.26013 10.005C8.63077 9.799 9.84166 9.485 12.1322 9.485ZM10.3527 20.923C10.4345 20.974 10.5284 21 10.6233 21C10.6971 21 10.7698 20.985 10.8384 20.953L13.8056 19.565C13.9823 19.482 14.0944 19.306 14.0944 19.113V16.584L17.003 10.51C17.1212 10.361 17.1918 10.193 17.1918 10C17.1918 8.748 14.4408 8.485 12.1322 8.485C9.8659 8.485 7.16335 8.748 7.16335 10C7.16335 10.19 7.23001 10.355 7.34312 10.502L10.1184 16.579V20.5C10.1184 20.672 10.2062 20.831 10.3527 20.923ZM24.8763 20C25.4843 20 25.9802 20.491 25.9802 21.093C25.9802 21.696 25.4843 22.186 24.8763 22.186C24.2673 22.186 23.7725 21.696 23.7725 21.093C23.7725 20.491 24.2673 20 24.8763 20ZM24.8763 3.97C25.4843 3.97 25.9802 4.46 25.9802 5.063C25.9802 5.665 25.4843 6.156 24.8763 6.156C24.2673 6.156 23.7725 5.665 23.7725 5.063C23.7725 4.46 24.2673 3.97 24.8763 3.97ZM25.8862 11.985C26.4942 11.985 26.9901 12.475 26.9901 13.078C26.9901 13.681 26.4942 14.171 25.8862 14.171C25.2773 14.171 24.7824 13.681 24.7824 13.078C24.7824 12.475 25.2773 11.985 25.8862 11.985ZM21.279 13.578H23.8401C24.0684 14.49 24.8945 15.171 25.8862 15.171C27.0517 15.171 28 14.232 28 13.078C28 11.924 27.0517 10.985 25.8862 10.985C24.8945 10.985 24.0684 11.666 23.8401 12.578H21.279V5.563H22.8302C23.0585 6.475 23.8846 7.156 24.8763 7.156C26.0418 7.156 26.9901 6.217 26.9901 5.063C26.9901 3.909 26.0418 2.97 24.8763 2.97C23.8846 2.97 23.0585 3.651 22.8302 4.563H20.774C20.4953 4.563 20.2691 4.786 20.2691 5.063V12.578H17.208V13.578H20.2691V21.093C20.2691 21.37 20.4953 21.593 20.774 21.593H22.8302C23.0585 22.505 23.8846 23.186 24.8763 23.186C26.0418 23.186 26.9901 22.247 26.9901 21.093C26.9901 19.939 26.0418 19 24.8763 19C23.8846 19 23.0585 19.681 22.8302 20.593H21.279V13.578Z" fill="currentColor"/>
</svg>
