<svg width="29" height="24" viewBox="0 0 29 24" fill="none" xmlns="http://www.w3.org/2000/svg">
<path fill-rule="evenodd" clip-rule="evenodd" d="M13.0535 18.9935C13.0535 19.2695 13.2785 19.4935 13.5535 19.4935C13.8285 19.4935 14.0535 19.2695 14.0535 18.9935C14.0535 18.7175 13.8285 18.4935 13.5535 18.4935C13.2785 18.4935 13.0535 18.7175 13.0535 18.9935ZM12.0535 18.9935C12.0535 18.1665 12.7265 17.4935 13.5535 17.4935C14.3805 17.4935 15.0535 18.1665 15.0535 18.9935C15.0535 19.6445 14.6345 20.1945 14.0535 20.4015V21.4935H13.0535V20.4015C12.4725 20.1945 12.0535 19.6445 12.0535 18.9935ZM18.0535 16.4935H9.05355V22.4935H18.0535V21.4935H16.0535V20.4935H18.0535V18.4935H16.0535V17.4935H18.0535V16.4935ZM10.0535 15.4935H17.0535V13.0375C17.0535 12.4205 16.7285 11.7945 16.1605 11.3195C15.5085 10.7735 14.5905 10.4725 13.5745 10.4725C11.3715 10.4725 10.0545 11.7775 10.0535 13.0385V15.4935ZM19.0535 15.9935V17.4935V18.4935V20.4935V21.4935V22.9935C19.0535 23.2695 18.8295 23.4935 18.5535 23.4935H8.55355C8.27755 23.4935 8.05355 23.2695 8.05355 22.9935V15.9935C8.05355 15.7175 8.27755 15.4935 8.55355 15.4935H9.05355V13.0375C9.05455 11.2855 10.7455 9.47247 13.5745 9.47247C14.8245 9.47247 15.9715 9.85647 16.8035 10.5525C17.5985 11.2185 18.0545 12.1245 18.0535 13.0385V15.4935H18.5535C18.8295 15.4935 19.0535 15.7175 19.0535 15.9935ZM28.1065 13.5475C28.1065 15.0355 27.6585 16.2335 26.7755 17.1095C25.3375 18.5355 23.2645 18.5675 23.0865 18.5675H23.0775L21.0805 18.5645L21.0825 17.5645L23.0825 17.5675C23.1165 17.5675 24.9105 17.5555 26.0765 16.3935C26.7595 15.7135 27.1065 14.7555 27.1065 13.5475C27.1065 9.91047 23.6905 9.13847 23.0045 9.02047C22.8715 8.99747 22.7535 8.92247 22.6765 8.81047C22.6005 8.69847 22.5735 8.56047 22.5995 8.42847C22.8805 7.04547 22.0695 6.14647 21.2145 5.76647C20.3675 5.39047 19.1485 5.40047 18.4725 6.31547C18.3625 6.46447 18.1855 6.53647 17.9955 6.51347C17.8135 6.48547 17.6595 6.35947 17.5985 6.18447C17.2575 5.21747 16.6395 4.29347 15.7085 3.36047C14.2325 1.87847 11.3855 0.622472 8.22855 1.96247C5.90555 2.94547 4.51755 5.76847 4.51755 7.93047L4.51055 8.26747C4.50355 8.51347 4.49255 8.79747 4.51355 8.97347C4.54355 9.22247 4.38355 9.45447 4.14055 9.51647C2.00055 10.0615 1.00355 11.3425 1.00355 13.5475L1.00155 13.7045C1.00055 13.8145 0.997548 13.9395 1.00255 14.0195C1.15655 16.4545 3.45255 17.5645 5.52355 17.5645L6.03155 17.5665L6.02755 18.5665L5.52155 18.5645C3.00055 18.5645 0.198549 17.1605 0.00454861 14.0805C-0.00145139 13.9805 -0.000451651 13.8265 0.00154835 13.6905L0.00354868 13.5475C0.00354868 11.0265 1.18055 9.38347 3.50355 8.65647C3.50355 8.51847 3.50755 8.37447 3.51055 8.23947L3.51755 7.93047C3.51755 5.44347 5.13355 2.18647 7.83755 1.04147C10.8155 -0.220528 14.1825 0.413472 16.4175 2.65447C17.2305 3.47047 17.8325 4.28847 18.2435 5.13947C19.1495 4.45747 20.4375 4.32647 21.6205 4.85247C22.9845 5.45947 23.7425 6.71447 23.6465 8.13447C25.8015 8.66447 28.1065 10.3405 28.1065 13.5475Z" fill="currentColor"/>
</svg>
