<svg width="28" height="22" viewBox="0 0 28 22" fill="none" xmlns="http://www.w3.org/2000/svg">
<path fill-rule="evenodd" clip-rule="evenodd" d="M12 3H16V2H12V3ZM8 14H20V9H8V14ZM20.5 8H7.5C7.224 8 7 8.224 7 8.5V14.5C7 14.776 7.224 15 7.5 15H20.5C20.776 15 21 14.776 21 14.5V8.5C21 8.224 20.776 8 20.5 8ZM27 18.923C27 20.068 26.119 21 25.036 21H2.964C1.881 21 1 20.068 1 18.923V3.077C1 1.932 1.881 1 2.964 1H25.036C26.119 1 27 1.932 27 3.077V18.923ZM25.036 0H2.964C1.33 0 0 1.38 0 3.077V18.923C0 20.62 1.33 22 2.964 22H25.036C26.67 22 28 20.62 28 18.923V3.077C28 1.38 26.67 0 25.036 0ZM24 17.373C24 17.719 23.713 18 23.36 18H4.64C4.287 18 4 17.719 4 17.373V4.627C4 4.281 4.287 4 4.64 4H9.191L10.053 5.724C10.138 5.893 10.311 6 10.5 6H17.5C17.689 6 17.862 5.893 17.947 5.724L18.809 4H23.36C23.713 4 24 4.281 24 4.627V17.373ZM23.36 3H18.5C18.311 3 18.138 3.107 18.053 3.276L17.191 5H10.809L9.947 3.276C9.862 3.107 9.689 3 9.5 3H4.64C3.735 3 3 3.73 3 4.627V17.373C3 18.27 3.735 19 4.64 19H23.36C24.265 19 25 18.27 25 17.373V4.627C25 3.73 24.265 3 23.36 3Z" fill="currentColor"/>
</svg>
