<svg width="25" height="26" viewBox="0 0 25 26" fill="none" xmlns="http://www.w3.org/2000/svg">
<path fill-rule="evenodd" clip-rule="evenodd" d="M1.00124 10.1858H0V6.23227C0 6.05733 0.0941167 5.89523 0.246305 5.80628L5.94037 2.50012L6.448 3.35211L1.00124 6.51495V10.1858ZM25 10.1858H23.9988V6.51495L18.551 3.35112L19.0596 2.49914L24.7537 5.80628C24.9059 5.89523 25 6.05733 25 6.23227V10.1858ZM16.2742 24.4492L15.7655 23.5972L23.9988 18.7986V14.1394H25V19.0813C25 19.2562 24.9059 19.4183 24.7537 19.5073L16.2742 24.4492ZM8.75686 24.4492L0.246305 19.5073C0.0941167 19.4183 0 19.2562 0 19.0813V14.1394H1.00124V18.7986L9.26549 23.5972L8.75686 24.4492ZM10.0124 5.62441L12.5155 6.8599L15.0186 5.62441V2.28169L12.5155 1.04621L10.0124 2.28169V5.62441ZM4.2753 10.0563L12.5135 14.1295L20.4704 10.0534L14.9405 6.76798L13.0161 7.71782V10.1858H12.0149V7.71782L10.0945 6.76995L4.2753 10.0563ZM4.23025 15.6595L12.5115 19.7979L20.4393 15.6941L16.1741 13.3674L13.0161 14.9844L13.0171 16.1161H12.0159L12.0149 14.9884L8.28227 13.1431L4.23025 15.6595ZM12.0159 26L12.0149 20.6578L2.98871 16.1468C2.82751 16.0667 2.72338 15.9066 2.71537 15.7287C2.70636 15.5508 2.79547 15.3828 2.94765 15.2879L7.23597 12.6252L2.99071 10.5268C2.8255 10.4458 2.71937 10.2807 2.71418 10.0988C2.70936 9.91698 2.80648 9.74599 2.96668 9.65604L9.09127 6.19867C9.03921 6.11959 9.01117 6.02669 9.01117 5.92982V1.97628C9.01117 1.78947 9.11831 1.61848 9.28752 1.53447L12.2912 0.0518903C12.4324 -0.0172968 12.5986 -0.0172968 12.7398 0.0518903L15.7435 1.53447C15.9127 1.61848 16.0199 1.78947 16.0199 1.97628V5.92982C16.0199 6.02965 15.9898 6.12553 15.9348 6.20558L21.754 9.66197C21.9092 9.75389 22.0023 9.92192 21.9963 10.1008C21.9903 10.2797 21.8861 10.4408 21.7259 10.5238L17.2424 12.8209L21.738 15.273C21.8992 15.361 21.9983 15.53 21.9963 15.7109C21.9943 15.8928 21.8911 16.0588 21.7279 16.1438L13.0161 20.6528L13.0171 26H12.0159Z" fill="currentColor"/>
</svg>
