<svg width="28" height="26" viewBox="0 0 28 26" fill="none" xmlns="http://www.w3.org/2000/svg">
<path fill-rule="evenodd" clip-rule="evenodd" d="M12 3H16V2H12V3ZM8 14H15V15H7.5C7.224 15 7 14.777 7 14.5V8.5C7 8.224 7.224 8 7.5 8H21.5C21.776 8 22 8.224 22 8.5V12H21V9H8V14ZM28 3.077V14H27V3.077C27 1.932 26.119 1 25.036 1H2.964C1.881 1 1 1.932 1 3.077V18.924C1 20.069 1.881 21 2.964 21H13.987V22H2.964C1.33 22 0 20.62 0 18.924V3.077C0 1.381 1.33 0 2.964 0H25.036C26.67 0 28 1.381 28 3.077ZM4.64 18H14V19H4.64C3.735 19 3 18.27 3 17.373V4.628C3 3.73 3.735 3 4.64 3H9.5C9.689 3 9.862 3.107 9.947 3.277L10.809 5H17.191L18.053 3.277C18.138 3.107 18.311 3 18.5 3H23.36C24.265 3 25 3.73 25 4.628V13H24V4.628C24 4.282 23.713 4 23.36 4H18.809L17.947 5.724C17.862 5.894 17.689 6 17.5 6H10.5C10.311 6 10.138 5.894 10.053 5.724L9.191 4H4.64C4.287 4 4 4.282 4 4.628V17.373C4 17.719 4.287 18 4.64 18ZM21.5 21.291C20.521 21.291 19.724 20.494 19.724 19.515C19.724 18.536 20.521 17.739 21.5 17.739C22.479 17.739 23.276 18.536 23.276 19.515C23.276 20.494 22.479 21.291 21.5 21.291ZM21.5 16.739C19.969 16.739 18.724 17.984 18.724 19.515C18.724 21.046 19.969 22.291 21.5 22.291C23.031 22.291 24.276 21.046 24.276 19.515C24.276 17.984 23.031 16.739 21.5 16.739ZM26.69 20.117L26.274 20.093C26.032 20.083 25.812 20.244 25.759 20.482C25.649 20.965 25.46 21.422 25.195 21.843C25.065 22.049 25.103 22.32 25.285 22.482L25.596 22.759L24.744 23.61L24.469 23.301C24.306 23.119 24.036 23.08 23.828 23.212C23.41 23.477 22.952 23.666 22.467 23.776C22.229 23.83 22.064 24.048 22.078 24.292L22.102 24.705H20.898L20.922 24.291C20.936 24.048 20.771 23.83 20.533 23.775C20.051 23.666 19.593 23.476 19.172 23.21C18.967 23.082 18.695 23.119 18.532 23.3L18.256 23.61L17.404 22.76L17.715 22.483C17.897 22.321 17.936 22.05 17.805 21.843C17.539 21.422 17.35 20.964 17.241 20.482C17.188 20.244 16.975 20.083 16.725 20.093L16.31 20.116V18.913L16.727 18.937C16.975 18.957 17.188 18.787 17.242 18.549C17.353 18.065 17.542 17.608 17.808 17.19C17.938 16.983 17.9 16.712 17.718 16.549L17.404 16.27L18.256 15.419L18.534 15.732C18.696 15.913 18.967 15.952 19.174 15.822C19.594 15.557 20.051 15.368 20.533 15.259C20.771 15.206 20.936 14.987 20.922 14.743L20.898 14.325H22.102L22.078 14.744C22.064 14.987 22.229 15.206 22.467 15.26C22.95 15.369 23.407 15.559 23.824 15.823C24.034 15.953 24.303 15.916 24.465 15.733L24.744 15.419L25.596 16.27L25.283 16.548C25.101 16.711 25.063 16.982 25.193 17.188C25.459 17.609 25.648 18.066 25.758 18.548C25.811 18.787 26.032 18.957 26.273 18.937L26.69 18.913V20.117ZM27.162 17.885L26.622 17.916C26.526 17.608 26.403 17.31 26.253 17.024L26.656 16.664C26.759 16.573 26.819 16.443 26.823 16.305C26.827 16.168 26.774 16.035 26.677 15.937L25.077 14.338C24.98 14.241 24.855 14.191 24.709 14.192C24.572 14.196 24.442 14.256 24.351 14.359L23.989 14.764C23.704 14.614 23.407 14.491 23.1 14.395L23.13 13.853C23.138 13.716 23.089 13.581 22.994 13.481C22.899 13.381 22.769 13.325 22.631 13.325H20.369C20.231 13.325 20.101 13.381 20.006 13.481C19.911 13.581 19.862 13.716 19.87 13.853L19.9 14.394C19.593 14.49 19.296 14.613 19.01 14.763L18.649 14.359C18.558 14.256 18.428 14.196 18.291 14.192C18.167 14.195 18.021 14.242 17.923 14.338L16.323 15.937C16.226 16.035 16.173 16.168 16.177 16.305C16.181 16.443 16.241 16.573 16.344 16.664L16.748 17.025C16.598 17.31 16.475 17.607 16.378 17.916L15.838 17.885C15.726 17.881 15.567 17.926 15.466 18.02C15.366 18.115 15.31 18.246 15.31 18.384V20.646C15.31 20.784 15.366 20.915 15.467 21.01C15.567 21.104 15.726 21.155 15.838 21.145L16.376 21.114C16.472 21.422 16.595 21.721 16.746 22.008L16.344 22.366C16.241 22.457 16.181 22.587 16.177 22.725C16.173 22.862 16.226 22.995 16.323 23.092L17.923 24.692C18.021 24.789 18.163 24.835 18.291 24.838C18.428 24.834 18.558 24.774 18.649 24.671L19.008 24.27C19.294 24.42 19.593 24.544 19.9 24.64L19.87 25.177C19.862 25.314 19.911 25.448 20.006 25.548C20.101 25.648 20.231 25.705 20.369 25.705H22.631C22.769 25.705 22.899 25.648 22.994 25.548C23.089 25.448 23.138 25.314 23.13 25.177L23.1 24.641C23.408 24.545 23.707 24.421 23.993 24.27L24.351 24.671C24.442 24.774 24.572 24.834 24.709 24.838C24.858 24.838 24.98 24.79 25.077 24.692L26.677 23.092C26.774 22.995 26.827 22.862 26.823 22.725C26.819 22.587 26.759 22.457 26.656 22.366L26.254 22.007C26.404 21.721 26.527 21.422 26.623 21.114L27.162 21.145C27.292 21.155 27.434 21.104 27.534 21.01C27.634 20.915 27.69 20.784 27.69 20.646V18.384C27.69 18.246 27.634 18.115 27.534 18.02C27.434 17.926 27.292 17.881 27.162 17.885Z" fill="currentColor"/>
</svg>
