<svg width="31" height="29" viewBox="0 0 31 29" fill="none" xmlns="http://www.w3.org/2000/svg">
<path fill-rule="evenodd" clip-rule="evenodd" d="M11.707 28H4.305L1.068 22L4.305 16H11.707L14.943 22L11.707 28ZM12.446 15.263C12.358 15.101 12.189 15 12.006 15H4.006C3.822 15 3.653 15.101 3.565 15.263L0.06 21.763C-0.02 21.911 -0.02 22.089 0.06 22.237L3.565 28.737C3.653 28.899 3.822 29 4.006 29H12.006C12.189 29 12.358 28.899 12.446 28.737L15.952 22.237C16.031 22.089 16.031 21.911 15.952 21.763L12.446 15.263ZM3.676 7.5L5.553 10.75C5.582 10.802 5.621 10.847 5.665 10.884L6.887 13H4.305L1.338 7.5H3.676ZM4.305 1H11.707L14.674 6.5H12.336L10.459 3.25C10.37 3.095 10.205 3 10.026 3H5.985C5.807 3 5.642 3.095 5.553 3.25L3.676 6.5H1.338L4.305 1ZM11.947 12.555L10.552 10.59L12.336 7.5H14.674L11.947 12.555ZM6.31 10L4.56 6.97L6.274 4H9.737L11.47 7L9.737 10H6.31ZM8.042 13L6.887 11H9.617L11.037 13H8.042ZM3.565 13.737C3.653 13.899 3.822 14 4.006 14H12.006C12.189 14 12.358 13.899 12.446 13.737L15.952 7.237C16.031 7.089 16.031 6.911 15.952 6.763L12.446 0.263C12.358 0.101 12.189 0 12.006 0H4.006C3.822 0 3.653 0.101 3.565 0.263L0.06 6.763C-0.02 6.911 -0.02 7.089 0.06 7.237L3.565 13.737ZM9.737 25H6.274L4.542 22L6.274 19H9.737L11.47 22L9.737 25ZM10.026 18H5.985C5.807 18 5.642 18.095 5.553 18.25L3.532 21.75C3.442 21.905 3.442 22.095 3.532 22.25L5.553 25.75C5.642 25.905 5.807 26 5.985 26H10.026C10.205 26 10.37 25.905 10.459 25.75L12.479 22.25C12.569 22.095 12.569 21.905 12.479 21.75L10.459 18.25C10.37 18.095 10.205 18 10.026 18ZM18.293 8H25.719L28.641 13H26.273L24.422 10.223C24.329 10.083 24.173 10 24.006 10H20.006C19.839 10 19.683 10.083 19.59 10.223L17.738 13H15.371L18.293 8ZM14.066 13.749C14.155 13.904 14.321 14 14.5 14H18.006C18.173 14 18.329 13.917 18.422 13.777L20.273 11H23.738L25.59 13.777C25.683 13.917 25.839 14 26.006 14H29.512C29.69 14 29.856 13.904 29.945 13.749C30.034 13.594 30.034 13.402 29.943 13.248L26.437 7.248C26.348 7.094 26.184 7 26.006 7H18.006C17.828 7 17.664 7.094 17.574 7.248L14.068 13.248C13.978 13.402 13.978 13.594 14.066 13.749ZM25.719 21.01H18.293L15.37 15.99H17.737L19.59 18.777C19.682 18.916 19.839 19 20.006 19H24.006C24.173 19 24.33 18.916 24.422 18.777L26.274 15.99H28.642L25.719 21.01ZM29.512 14.99H26.006C25.839 14.99 25.682 15.074 25.59 15.213L23.737 18H20.274L18.422 15.213C18.33 15.074 18.173 14.99 18.006 14.99H14.5C14.321 14.99 14.155 15.085 14.066 15.241C13.978 15.396 13.978 15.587 14.068 15.741L17.574 21.762C17.663 21.916 17.828 22.01 18.006 22.01H26.006C26.184 22.01 26.349 21.916 26.437 21.762L29.943 15.741C30.034 15.587 30.034 15.396 29.945 15.241C29.856 15.085 29.69 14.99 29.512 14.99Z" fill="currentColor"/>
</svg>
