<svg width="24" height="27" viewBox="0 0 24 27" fill="none" xmlns="http://www.w3.org/2000/svg">
<path fill-rule="evenodd" clip-rule="evenodd" d="M6.00007 19.2322L3.5001 20.8992L1.00013 19.2322V16.7673L3.5001 15.1013L6.00007 16.7673V19.2322ZM3.7771 14.0844C3.6091 13.9714 3.3911 13.9714 3.2231 14.0844L0.223139 16.0843C0.0841411 16.1763 0.000142752 16.3333 0.000142752 16.5003V19.5002C0.000142752 19.6672 0.0841411 19.8232 0.223139 19.9162L3.2231 21.9161C3.3071 21.9721 3.4031 22.0001 3.5001 22.0001C3.5971 22.0001 3.6931 21.9721 3.7771 21.9161L6.77706 19.9162C6.91606 19.8232 7.00006 19.6672 7.00006 19.5002V16.5003C7.00006 16.3333 6.91606 16.1763 6.77706 16.0843L3.7771 14.0844ZM22.9999 19.2322L20.4999 20.8992L17.9999 19.2322V16.7673L20.4999 15.1013L22.9999 16.7673V19.2322ZM20.7769 14.0844C20.6089 13.9714 20.3909 13.9714 20.2229 14.0844L17.2229 16.0843C17.0839 16.1763 16.9999 16.3333 16.9999 16.5003V19.5002C16.9999 19.6672 17.0839 19.8232 17.2229 19.9162L20.2229 21.9161C20.3069 21.9721 20.4029 22.0001 20.4999 22.0001C20.5969 22.0001 20.6929 21.9721 20.7769 21.9161L23.7769 19.9162C23.9159 19.8232 23.9999 19.6672 23.9999 19.5002V16.5003C23.9999 16.3333 23.9159 16.1763 23.7769 16.0843L20.7769 14.0844ZM17.4159 23.2221C17.5689 23.4521 17.5069 23.7621 17.2769 23.9161L12.782 26.912C12.703 26.966 12.607 26.999 12.505 27H12.504H12.503H12.502H12.501H12.5H12.499H12.498H12.497H12.496H12.495C12.393 26.999 12.297 26.966 12.218 26.912L7.72305 23.9161C7.49305 23.7621 7.43105 23.4521 7.58405 23.2221C7.73805 22.9921 8.05005 22.9321 8.27704 23.0841L12 25.565V21.0002C12 20.7232 12.224 20.5002 12.5 20.5002C12.776 20.5002 13 20.7232 13 21.0002V25.565L16.7229 23.0841C16.9499 22.9311 17.2619 22.9911 17.4159 23.2221ZM0.000142752 11.5004V6.99556C-0.00185723 6.91356 0.0171419 6.83056 0.0581414 6.75356V6.75256C0.0621414 6.74656 0.0641413 6.74056 0.0671412 6.73456C0.0671412 6.73456 0.0711416 6.74056 0.0681416 6.73356C0.0691416 6.73256 0.069142 6.73256 0.069142 6.73256C0.118141 6.64957 0.187141 6.58657 0.26614 6.54457L4.75809 4.06264C5.00108 3.92864 5.30508 4.01664 5.43808 4.25863C5.57108 4.50062 5.48308 4.80462 5.24208 4.93761L1.52912 6.98856L5.24408 9.0635C5.48508 9.19849 5.57108 9.50349 5.43708 9.74348C5.30008 9.98547 4.99508 10.0685 4.75609 9.93647L1.00013 7.83853V11.5004C1.00013 11.7764 0.776133 12.0004 0.500136 12.0004C0.224139 12.0004 0.000142752 11.7764 0.000142752 11.5004ZM23.9999 6.98556V11.5004C23.9999 11.7764 23.7759 12.0004 23.4999 12.0004C23.2239 12.0004 22.9999 11.7764 22.9999 11.5004V7.83053L19.2439 9.93647C19.0039 10.0715 18.6989 9.98547 18.5629 9.74448C18.4289 9.50349 18.5149 9.1985 18.7559 9.0645L22.4709 6.98056L18.7589 4.93861C18.5169 4.80462 18.4289 4.50163 18.5619 4.25863C18.6959 4.01664 19.0009 3.93064 19.2409 4.06264L23.7339 6.53457C23.8119 6.57557 23.8789 6.63757 23.9269 6.71656H23.9279V6.71756C23.9339 6.72756 23.9389 6.73756 23.9439 6.74756C23.9829 6.82356 24.0019 6.90556 23.9999 6.98556ZM10 2.76767L12.5 1.10172L15 2.76767V5.2326L12.5 6.89956L10 5.2326V2.76767ZM12.223 7.91653C12.307 7.97253 12.403 8.00053 12.5 8.00053C12.597 8.00053 12.693 7.97253 12.777 7.91653L15.777 5.91659C15.916 5.82359 16 5.66759 16 5.5006V2.50068C16 2.33369 15.916 2.17669 15.777 2.08469L12.777 0.0847476C12.609 -0.0282492 12.391 -0.0282492 12.223 0.0847476L9.22303 2.08469C9.08404 2.17669 9.00004 2.33369 9.00004 2.50068V5.5006C9.00004 5.66759 9.08404 5.82359 9.22303 5.91659L12.223 7.91653ZM10 10.3355L15.91 13.5004L10 16.6653V10.3355ZM9.50004 18.0002C9.58103 18.0002 9.66203 17.9803 9.73603 17.9403L17.2059 13.9404C17.3679 13.8534 17.4699 13.6844 17.4699 13.5004C17.4699 13.3154 17.3679 13.1464 17.2059 13.0594L9.73603 9.0595C9.58003 8.9765 9.39503 8.9815 9.24303 9.0705C9.09303 9.1615 9.00004 9.32449 9.00004 9.50049V17.5003C9.00004 17.6753 9.09303 17.8383 9.24303 17.9293C9.32203 17.9763 9.41103 18.0002 9.50004 18.0002Z" fill="currentColor"/>
</svg>
