<svg width="28" height="22" viewBox="0 0 28 22" fill="none" xmlns="http://www.w3.org/2000/svg">
<path fill-rule="evenodd" clip-rule="evenodd" d="M22 11.5V17.5C22 17.776 21.776 18 21.5 18H6.5C6.224 18 6 17.776 6 17.5V11.5C6 11.224 6.224 11 6.5 11H10V12H7V17H21V12H18V11H21.5C21.776 11 22 11.224 22 11.5ZM27 20.857C27 20.936 26.937 21 26.857 21H25V20.5V9.5C25 8.673 24.327 8 23.5 8H4.469C3.642 8 3 8.673 3 9.5V21H1.143C1.063 21 1 20.936 1 20.857V7.429C1 6.641 1.641 6 2.429 6H25.571C26.359 6 27 6.641 27 7.429V20.857ZM3.969 20V9.5C3.969 9.224 4.193 9 4.469 9H23.5C23.775 9 24 9.224 24 9.5V20H3.969ZM21.293 5H6.707L8.707 3H19.293L21.293 5ZM6.686 1.488C6.957 1.178 7.349 1 7.761 1H20.239C20.651 1 21.043 1.178 21.325 1.5L24.602 5H22.707L19.854 2.146C19.76 2.053 19.633 2 19.5 2H8.5C8.367 2 8.24 2.053 8.146 2.146L5.293 5H3.398L6.686 1.488ZM26.014 5.045L22.066 0.83C21.605 0.302 20.939 0 20.239 0H7.761C7.061 0 6.395 0.302 5.944 0.817L1.985 5.045C0.858 5.254 0 6.241 0 7.429V20.857C0 21.487 0.513 22 1.143 22H3.5C3.776 22 4 21.776 4 21.5V21H24V21.5C24 21.776 24.224 22 24.5 22H26.857C27.487 22 28 21.487 28 20.857V7.429C28 6.241 27.142 5.254 26.014 5.045ZM12 14H16V12H12V14ZM11.5 15H16.5C16.776 15 17 14.776 17 14.5V11.5C17 11.224 16.776 11 16.5 11H11.5C11.224 11 11 11.224 11 11.5V14.5C11 14.776 11.224 15 11.5 15Z" fill="currentColor"/>
</svg>
