<svg width="25" height="27" viewBox="0 0 25 27" fill="none" xmlns="http://www.w3.org/2000/svg">
<path fill-rule="evenodd" clip-rule="evenodd" d="M6.55552 7.17975C4.90035 7.17975 3.74343 7.10057 2.92637 6.97127L5.40061 10.7401C5.45374 10.8223 5.48282 10.9175 5.48282 11.0157V12.6144C6.04824 12.7197 6.89137 12.7227 7.43373 12.6194L7.43674 10.9997C7.43674 10.8974 7.46782 10.7982 7.52697 10.715L10.0944 7.02038C9.20921 7.13966 8.03926 7.17975 6.55552 7.17975ZM1.06669 5.81457C1.06669 5.02372 2.04215 4.64484 4.43217 4.50451L4.49032 5.50484C3.24718 5.57701 2.6196 5.71233 2.31082 5.81457C2.75795 5.96191 3.87176 6.17741 6.55552 6.17741C9.51097 6.17741 10.5626 5.98196 10.9225 5.81858C10.7371 5.73839 10.329 5.62212 9.45583 5.54394L9.54305 4.54561C10.7802 4.65586 12.0444 4.89242 12.0444 5.81457C12.0444 6.12028 11.904 6.35683 11.6443 6.54427L8.43927 11.158L8.43526 13.0003C8.43526 13.2038 8.31094 13.3872 8.12147 13.4644C7.72547 13.6228 7.11493 13.694 6.50439 13.694C5.85074 13.694 5.1971 13.6118 4.80812 13.4694C4.61162 13.3973 4.48029 13.2088 4.48029 12.9993V11.1651L1.39451 6.46308C1.13887 6.26562 1.06669 6.0431 1.06669 5.81457ZM20.4114 15.6104C20.7944 16.0565 21.3618 16.3401 21.9934 16.3401V15.3378C21.3979 15.3378 20.9127 14.8527 20.9127 14.2573H19.9102C19.9102 14.8527 19.426 15.3378 18.8295 15.3378C18.2329 15.3378 17.7487 14.8527 17.7487 14.2573H16.7462C16.7462 14.8527 16.261 15.3378 15.6645 15.3378C15.068 15.3378 14.5838 14.8527 14.5838 14.2573H13.5812C13.5812 14.8527 13.096 15.3378 12.5005 15.3378V16.3401C13.1331 16.3401 13.6995 16.0565 14.0825 15.6104C14.4655 16.0565 15.0319 16.3401 15.6645 16.3401C16.2971 16.3401 16.8645 16.0565 17.2475 15.6104C17.6294 16.0565 18.1969 16.3401 18.8295 16.3401C19.462 16.3401 20.0285 16.0565 20.4114 15.6104ZM20.1919 8.79151H19.1894C19.1894 9.38791 18.7031 9.87304 18.1066 9.87304C17.5111 9.87304 17.0259 9.38791 17.0259 8.79151H16.0234C16.0234 9.38791 15.5392 9.87304 14.9427 9.87304C14.3462 9.87304 13.8619 9.38791 13.8619 8.79151H12.8594C12.8594 9.38791 12.3742 9.87304 11.7777 9.87304V10.8754C12.4103 10.8754 12.9777 10.5917 13.3607 10.1457C13.7426 10.5917 14.3101 10.8754 14.9427 10.8754C15.5752 10.8754 16.1427 10.5917 16.5246 10.1457C16.9076 10.5917 17.475 10.8754 18.1066 10.8754C18.7392 10.8754 19.3077 10.5917 19.6906 10.1457C20.0716 10.5917 20.64 10.8754 21.2726 10.8754V9.87304C20.6761 9.87304 20.1919 9.38791 20.1919 8.79151ZM11.099 22.4835C11.7316 22.4835 12.299 22.1998 12.681 21.7538C13.0639 22.1998 13.6314 22.4835 14.2629 22.4835C14.8955 22.4835 15.464 22.1998 15.8469 21.7538C16.2279 22.1998 16.7963 22.4835 17.4289 22.4835V21.4811C16.8324 21.4811 16.3482 20.996 16.3482 20.3996H15.3457C15.3457 20.996 14.8594 21.4811 14.2629 21.4811C13.6674 21.4811 13.1822 20.996 13.1822 20.3996H12.1797C12.1797 20.996 11.6955 21.4811 11.099 21.4811C10.5035 21.4811 10.0182 20.996 10.0182 20.3996H9.01572C9.01572 20.996 8.5305 21.4811 7.93399 21.4811V22.4835C8.56659 22.4835 9.13402 22.1998 9.51698 21.7538C9.89895 22.1998 10.4664 22.4835 11.099 22.4835ZM2.43413 2.00468H3.43666V1.00234H2.43413V2.00468ZM1.43161 2.50585V0.501169C1.43161 0.224524 1.65517 0 1.93287 0H3.93792C4.21462 0 4.43919 0.224524 4.43919 0.501169V2.50585C4.43919 2.78249 4.21462 3.00702 3.93792 3.00702H1.93287C1.65517 3.00702 1.43161 2.78249 1.43161 2.50585ZM6.48534 4.00936H7.48787V3.00702H6.48534V4.00936ZM5.48282 4.51052V2.50585C5.48282 2.2292 5.70638 2.00468 5.98408 2.00468H7.98913C8.26583 2.00468 8.4904 2.2292 8.4904 2.50585V4.51052C8.4904 4.78717 8.26583 5.01169 7.98913 5.01169H5.98408C5.70638 5.01169 5.48282 4.78717 5.48282 4.51052ZM5.44773 16.4604V14.0017H4.4452V15.9592H3.47776C3.27626 15.9592 3.0948 16.0785 3.0166 16.2639C2.9374 16.4494 2.9775 16.6629 3.11585 16.8072L6.12343 19.9325C6.21867 20.0307 6.349 20.0859 6.48534 20.0859C6.62068 20.0859 6.75101 20.0307 6.84625 19.9325L9.85383 16.8072C9.99318 16.6629 10.0333 16.4494 9.95408 16.2639C9.87589 16.0785 9.69343 15.9592 9.49292 15.9592H8.47235V14.0017H7.46982V16.4604C7.46982 16.7371 7.69439 16.9616 7.97109 16.9616H8.31495L6.48534 18.862L4.65473 16.9616H4.94647C5.22316 16.9616 5.44773 16.7371 5.44773 16.4604ZM25 14.5028C25 21.3939 19.3929 27 12.5005 27C5.60813 27 0 21.3939 0 14.5028C0 12.5994 0.417051 10.7711 1.24012 9.06816L2.1434 9.50418C1.38649 11.0698 1.00253 12.7518 1.00253 14.5028C1.00253 20.8406 6.15952 25.9977 12.5005 25.9977C18.8405 25.9977 23.9975 20.8406 23.9975 14.5028C23.9975 8.16405 18.8405 3.00702 12.5005 3.00702C11.8308 3.00702 11.1571 3.06515 10.4995 3.18042L10.327 2.19211C11.0418 2.06782 11.7727 2.00468 12.5005 2.00468C19.3929 2.00468 25 7.61076 25 14.5028Z" fill="currentColor"/>
</svg>
