<svg width="28" height="28" viewBox="0 0 28 28" fill="none" xmlns="http://www.w3.org/2000/svg">
<path fill-rule="evenodd" clip-rule="evenodd" d="M23 18H24V15H23V18ZM26 23H24.5C24.224 23 24 22.776 24 22.5V21H22V22.5C22 22.776 21.776 23 21.5 23H20V25H21.5C21.776 25 22 25.224 22 25.5V27H24V25.5C24 25.224 24.224 25 24.5 25H26V23ZM27 22.5V25.5C27 25.776 26.776 26 26.5 26H25V27.5C25 27.776 24.776 28 24.5 28H21.5C21.224 28 21 27.776 21 27.5V26H19.5C19.224 26 19 25.776 19 25.5V22.5C19 22.224 19.224 22 19.5 22H21V20.5C21 20.224 21.224 20 21.5 20H24.5C24.776 20 25 20.224 25 20.5V22H26.5C26.776 22 27 22.224 27 22.5ZM11 4H17V1H11V4ZM10 4.5V0.5C10 0.224 10.224 0 10.5 0H17.5C17.776 0 18 0.224 18 0.5V4.5C18 4.776 17.776 5 17.5 5H10.5C10.224 5 10 4.776 10 4.5ZM5 2.738C5 2.331 5.331 2 5.738 2H9V1H5.738C4.78 1 4 1.78 4 2.738V10H5V2.738ZM23 2.738V10H24V2.738C24 1.78 23.22 1 22.262 1H19V2H22.262C22.669 2 23 2.331 23 2.738ZM5 26.262V15H4V26.262C4 27.22 4.78 28 5.738 28H19V27H5.738C5.331 27 5 26.669 5 26.262ZM19.299 12L17.563 7.373C17.494 7.186 17.32 7.059 17.122 7.048C16.926 7.036 16.738 7.146 16.648 7.324L13.924 12.772L11.312 9.114C11.213 8.977 11.038 8.891 10.885 8.905C10.716 8.912 10.563 9.003 10.476 9.147L8.765 12H0V13H9.048C9.224 13 9.387 12.908 9.477 12.757L10.94 10.316L13.593 14.029C13.688 14.161 13.839 14.238 14 14.238C14.013 14.238 14.026 14.238 14.039 14.237C14.214 14.223 14.369 14.119 14.447 13.962L17.03 8.797L18.484 12.675C18.558 12.871 18.744 13 18.952 13H28V12H19.299ZM7 21H15V20H7V21ZM7 24H15V23H7V24Z" fill="currentColor"/>
</svg>
