<svg width="27" height="24" viewBox="0 0 27 24" fill="none" xmlns="http://www.w3.org/2000/svg">
<path fill-rule="evenodd" clip-rule="evenodd" d="M22.7839 8.33641C22.3356 6.22784 21.2159 4.79118 19.6723 4.36846C18.6606 4.09101 17.5887 4.30691 16.7023 4.9294C16.5607 4.1354 16.2693 3.24758 15.6417 2.5121C13.823 0.384357 9.64257 -0.157415 6.86717 1.3771C4.43106 2.72397 3.564 5.62351 3.564 7.88645V8.4484C2.07034 8.9024 0.515547 9.88808 0.515547 12.8835H1.53442C1.53442 10.4864 2.59913 9.72565 4.19977 9.32008C4.42494 9.26257 4.58287 9.0618 4.58287 8.83178V7.88645C4.58287 5.99983 5.31136 3.39286 7.36438 2.25786C9.93906 0.834322 13.5082 1.57686 14.8643 3.16384C15.4124 3.8055 15.713 4.70744 15.8067 5.99983C15.822 6.20463 15.9616 6.38018 16.1572 6.44374C16.3579 6.50831 16.5709 6.44576 16.7043 6.28938C17.4247 5.44595 18.4619 5.08275 19.4013 5.34102C20.6402 5.68102 21.5348 6.97845 21.8547 8.9024C21.8945 9.14554 22.1074 9.32411 22.357 9.32411C22.5058 9.32411 25.9811 9.36548 25.9811 12.8835C25.9811 17.3125 22.5537 17.4184 22.4151 17.4214H19.3422V18.4303H22.4192C22.465 18.4293 27 18.3315 27 12.8835C27 9.57028 24.4457 8.49279 22.7839 8.33641ZM13.5825 12.5243C13.4307 12.3992 13.2178 12.372 13.0405 12.4567C12.8622 12.5394 12.7481 12.717 12.7481 12.9127V14.3867H10.6981V15.3956H13.2575C13.5397 15.3956 13.7669 15.1696 13.7669 14.8912V13.9842L16.7563 16.4307L13.7669 18.9055V17.8987C13.7669 17.6192 13.5397 17.3942 13.2575 17.3942H5.60377V16.8898C5.60377 16.7031 5.49985 16.5316 5.33377 16.4438C5.16566 16.3561 4.96392 16.3662 4.80906 16.4711L0.224151 19.527C0.0835474 19.6208 0 19.7782 0 19.9467C0 20.1142 0.0855848 20.2716 0.22517 20.3644L4.83453 23.4153C4.92011 23.4718 5.01792 23.5 5.11777 23.5C5.2003 23.5 5.28283 23.4808 5.35721 23.4405C5.5243 23.3527 5.62721 23.1822 5.62721 22.9956V22.4588H7.64151V21.4499H5.11777C4.83657 21.4499 4.60834 21.6749 4.60834 21.9544V22.0522L1.42336 19.9437L4.58491 17.8371V17.8987C4.58491 18.1771 4.81211 18.4031 5.09434 18.4031H12.7481V19.984C12.7481 20.1808 12.8632 20.3583 13.0415 20.4421C13.2198 20.5238 13.4317 20.4975 13.5846 20.3714L17.8801 16.8151C17.9963 16.7193 18.0625 16.576 18.0625 16.4267C18.0625 16.2774 17.9942 16.1351 17.8781 16.0393L13.5825 12.5243ZM8.66038 22.4497H10.6981V21.4409H8.66038V22.4497ZM11.716 22.4497L17.8292 22.4558L17.8312 21.4469L11.718 21.4409L11.716 22.4497ZM0.509434 15.3976H6.62264V14.3887H0.509434V15.3976ZM7.64151 15.3976H8.66038V14.3887H7.64151V15.3976Z" fill="currentColor"/>
</svg>
