<svg width="25" height="29" viewBox="0 0 25 29" fill="none" xmlns="http://www.w3.org/2000/svg">
<path fill-rule="evenodd" clip-rule="evenodd" d="M23.66 21.4821C23.241 21.8991 22.513 21.8981 22.098 21.4821C21.889 21.2741 21.774 20.9961 21.774 20.7011C21.774 20.4061 21.889 20.1281 22.098 19.9201C22.306 19.7111 22.583 19.5961 22.879 19.5961C23.174 19.5961 23.451 19.7111 23.66 19.9201C24.091 20.3501 24.091 21.0511 23.66 21.4821ZM23.438 18.6971V15.3841H22.438V18.6641C22.049 18.7421 21.681 18.9231 21.39 19.2121C20.993 19.6101 20.774 20.1381 20.774 20.7011C20.774 21.0321 20.858 21.3491 21.003 21.6371L18.303 22.9331L18.736 23.8351L21.676 22.4231C22.026 22.6691 22.441 22.8051 22.879 22.8051C23.44 22.8051 23.97 22.5861 24.367 22.1891C25.187 21.3681 25.187 20.0331 24.367 19.2121C24.107 18.9531 23.783 18.7871 23.438 18.6971ZM1.323 21.4821C1.114 21.2741 1 20.9961 1 20.7011C1 20.4061 1.114 20.1281 1.323 19.9201C1.531 19.7111 1.808 19.5961 2.104 19.5961C2.399 19.5961 2.677 19.7111 2.886 19.9201C3.316 20.3501 3.316 21.0511 2.886 21.4821C2.467 21.8991 1.738 21.8981 1.323 21.4821ZM3.593 19.2121C3.276 18.8971 2.867 18.7121 2.438 18.6471V15.3841H1.438V18.7281C1.134 18.8241 0.848 18.9801 0.616 19.2121C0.219 19.6101 0 20.1381 0 20.7011C0 21.2631 0.219 21.7921 0.616 22.1891C1.014 22.5861 1.542 22.8051 2.104 22.8051C2.542 22.8051 2.958 22.6691 3.308 22.4221L6.223 23.8101L6.653 22.9071L3.979 21.6341C4.37 20.8471 4.247 19.8681 3.593 19.2121ZM1.323 7.10614C1.531 6.89814 1.808 6.78314 2.104 6.78314C2.399 6.78314 2.677 6.89814 2.886 7.10614C3.316 7.53714 3.316 8.23814 2.886 8.66914C2.467 9.08614 1.738 9.08414 1.323 8.66914C1.114 8.46014 1 8.18214 1 7.88714C1 7.59214 1.114 7.31514 1.323 7.10614ZM1.438 9.87514V13.3841H2.438V9.95914C2.749 9.91014 3.043 9.79514 3.301 9.61514L5.674 10.8291L6.129 9.93914L3.973 8.83614C4.275 8.23714 4.274 7.53014 3.969 6.93214L6.125 5.79414L5.658 4.91014L3.294 6.15814C2.484 5.61714 1.319 5.69614 0.616 6.39914C0.219 6.79614 0 7.32514 0 7.88714C0 8.45014 0.219 8.97814 0.616 9.37614C0.85 9.61014 1.133 9.77314 1.438 9.87514ZM13.22 3.28514C12.79 3.71514 12.087 3.71514 11.657 3.28514C11.448 3.07714 11.334 2.79914 11.334 2.50414C11.334 2.20914 11.448 1.93114 11.657 1.72314C11.872 1.50814 12.155 1.40014 12.438 1.40014C12.722 1.40014 13.005 1.50814 13.22 1.72314C13.429 1.93114 13.543 2.20914 13.543 2.50414C13.543 2.79914 13.429 3.07714 13.22 3.28514ZM13.927 1.01614C13.106 0.195141 11.77 0.195141 10.95 1.01614C10.569 1.39714 10.357 1.90014 10.341 2.43714L8.311 3.50814L8.778 4.39214L10.566 3.44814C10.666 3.64514 10.789 3.83114 10.95 3.99214C11.36 4.40214 11.899 4.60714 12.438 4.60714C12.977 4.60714 13.516 4.40214 13.927 3.99214C14.102 3.81614 14.237 3.61114 14.34 3.39214L16.451 4.51114L16.92 3.62814L14.528 2.35914C14.494 1.85214 14.29 1.37814 13.927 1.01614ZM13.22 27.0541C12.79 27.4831 12.087 27.4831 11.657 27.0541C11.448 26.8451 11.334 26.5671 11.334 26.2731C11.334 25.9781 11.448 25.7001 11.657 25.4911C11.872 25.2761 12.155 25.1691 12.438 25.1691C12.722 25.1691 13.005 25.2761 13.22 25.4911C13.429 25.7001 13.543 25.9781 13.543 26.2731C13.543 26.5671 13.429 26.8451 13.22 27.0541ZM16.221 23.9331L14.074 24.9631C14.025 24.9031 13.982 24.8401 13.927 24.7841C13.644 24.5031 13.3 24.3241 12.938 24.2361V21.8871H11.938V24.2361C11.577 24.3241 11.232 24.5031 10.95 24.7841C10.913 24.8211 10.886 24.8651 10.851 24.9041L8.808 23.9321L8.379 24.8361L10.393 25.7941C10.357 25.9501 10.334 26.1091 10.334 26.2731C10.334 26.8351 10.553 27.3631 10.95 27.7611C11.36 28.1711 11.899 28.3761 12.438 28.3761C12.977 28.3761 13.516 28.1711 13.927 27.7611C14.324 27.3631 14.543 26.8351 14.543 26.2731C14.543 26.1351 14.529 25.9991 14.503 25.8671L16.654 24.8351L16.221 23.9331ZM22.879 6.78314C23.174 6.78314 23.451 6.89814 23.66 7.10614C24.091 7.53714 24.091 8.23814 23.66 8.66914C23.241 9.08614 22.513 9.08414 22.098 8.66914C21.889 8.46014 21.774 8.18214 21.774 7.88714C21.774 7.59214 21.889 7.31514 22.098 7.10614C22.306 6.89814 22.583 6.78314 22.879 6.78314ZM19.272 10.8301L21.681 9.61414C21.91 9.77414 22.166 9.88614 22.438 9.94314V13.3841H23.438V9.90714C23.785 9.81214 24.106 9.63714 24.367 9.37614C25.187 8.55514 25.187 7.22014 24.367 6.39914C23.664 5.69614 22.5 5.61814 21.69 6.15814L19.57 5.03314L19.101 5.91714L21.014 6.93114C20.863 7.22514 20.774 7.54714 20.774 7.88714C20.774 8.22314 20.861 8.54314 21.009 8.83314L18.821 9.93814L19.272 10.8301ZM13.22 15.0641C12.79 15.4941 12.087 15.4941 11.657 15.0641C11.448 14.8561 11.334 14.5781 11.334 14.2831C11.334 13.9881 11.448 13.7101 11.657 13.5021C11.872 13.2871 12.155 13.1791 12.438 13.1791C12.722 13.1791 13.005 13.2871 13.22 13.5021C13.429 13.7101 13.543 13.9881 13.543 14.2831C13.543 14.5781 13.429 14.8561 13.22 15.0641ZM13.636 12.5571C12.918 12.0591 11.961 12.0591 11.243 12.5551L8.666 11.2371L8.211 12.1281L10.569 13.3341C10.421 13.6261 10.334 13.9461 10.334 14.2831C10.334 14.8451 10.553 15.3741 10.95 15.7711C11.232 16.0531 11.577 16.2311 11.938 16.3191V19.8871H12.938V16.3191C13.3 16.2311 13.644 16.0531 13.927 15.7711C14.324 15.3741 14.543 14.8451 14.543 14.2831C14.543 13.9471 14.456 13.6281 14.309 13.3361L16.664 12.1481L16.213 11.2551L13.636 12.5571Z" fill="currentColor"/>
</svg>
