<svg width="28" height="27" viewBox="0 0 28 27" fill="none" xmlns="http://www.w3.org/2000/svg">
<path fill-rule="evenodd" clip-rule="evenodd" d="M21.962 14.629C21.466 15.146 20.642 15.159 20.128 14.665C19.613 14.17 19.597 13.347 20.092 12.832C20.347 12.567 20.687 12.434 21.027 12.434C21.352 12.434 21.675 12.554 21.926 12.796C22.441 13.291 22.457 14.114 21.962 14.629ZM19.371 12.138C18.494 13.051 18.523 14.508 19.435 15.386C19.88 15.814 20.454 16.026 21.026 16.026C21.63 16.026 22.233 15.79 22.683 15.322C23.561 14.409 23.531 12.952 22.619 12.075C21.706 11.196 20.248 11.226 19.371 12.138ZM25.568 16.598L23.868 16.257C23.729 16.231 23.588 16.26 23.474 16.344L22.718 16.898C22.607 16.98 22.533 17.105 22.517 17.243L22.316 18.958L19.674 18.955L19.477 17.253C19.46 17.116 19.388 16.991 19.277 16.909L18.511 16.341C18.398 16.257 18.255 16.227 18.115 16.253L16.427 16.591L15.612 14.078L17.191 13.354C17.318 13.296 17.415 13.187 17.459 13.054L17.747 12.172C17.79 12.04 17.776 11.894 17.707 11.772L16.858 10.259L18.996 8.708L20.163 9.976C20.258 10.078 20.392 10.137 20.531 10.137H20.534L21.487 10.131C21.626 10.13 21.758 10.072 21.853 9.97L23.012 8.712L25.149 10.265L24.302 11.772C24.233 11.893 24.219 12.037 24.261 12.169L24.544 13.06C24.587 13.194 24.684 13.304 24.812 13.363L26.387 14.087L25.568 16.598ZM27.209 13.363L25.43 12.546L25.279 12.073L26.237 10.368C26.362 10.147 26.301 9.867 26.096 9.718L23.24 7.641C23.037 7.492 22.752 7.52 22.578 7.706L21.264 9.133L20.749 9.135L19.431 7.703C19.259 7.517 18.977 7.489 18.769 7.637L15.909 9.711C15.704 9.86 15.643 10.139 15.768 10.361L16.728 12.071L16.576 12.536L14.792 13.354C14.562 13.46 14.446 13.721 14.525 13.962L15.612 17.322C15.69 17.564 15.939 17.71 16.186 17.659L18.094 17.277L18.508 17.584L18.732 19.512C18.761 19.764 18.975 19.954 19.229 19.955L22.761 19.958C23.015 19.958 23.228 19.768 23.258 19.516L23.485 17.576L23.888 17.281L25.808 17.666C26.06 17.718 26.303 17.571 26.382 17.331L27.476 13.973C27.554 13.732 27.44 13.469 27.209 13.363ZM23.5 26C22.673 26 22 25.327 22 24.5C22 23.672 22.673 23 23.5 23C24.327 23 25 23.672 25 24.5C25 25.327 24.327 26 23.5 26ZM8.5 26C7.673 26 7 25.327 7 24.5C7 23.672 7.673 23 8.5 23C9.327 23 10 23.672 10 24.5C10 25.327 9.327 26 8.5 26ZM4.047 15.448C4.198 15.328 4.334 15.192 4.453 15.041L9 17.448V22.05C8.838 22.017 8.671 22 8.5 22C8.273 22 8.056 22.04 7.847 22.097L4.047 15.448ZM1 13.5C1 12.672 1.673 12 2.5 12C3.327 12 4 12.672 4 13.5C4 14.327 3.327 15 2.5 15C1.673 15 1 14.327 1 13.5ZM7.847 4.902C8.056 4.959 8.273 5 8.5 5C8.671 5 8.838 4.982 9 4.949V9.551L4.453 11.959C4.334 11.807 4.198 11.671 4.047 11.551L7.847 4.902ZM8.5 1C9.327 1 10 1.672 10 2.5C10 3.327 9.327 4 8.5 4C7.673 4 7 3.327 7 2.5C7 1.672 7.673 1 8.5 1ZM23.5 1C24.327 1 25 1.672 25 2.5C25 3.327 24.327 4 23.5 4C22.673 4 22 3.327 22 2.5C22 1.672 22.673 1 23.5 1ZM14.173 6.813L10.539 3.938C10.734 3.66 10.879 3.344 10.949 3H21.051C21.061 3.051 21.082 3.097 21.096 3.148L14.173 6.813ZM10 9.022V4.787L13.207 7.324L10 9.022ZM13.207 19.675L10 22.212V17.977L13.207 19.675ZM21.096 23.852C21.082 23.902 21.061 23.948 21.051 24H10.949C10.879 23.655 10.734 23.339 10.539 23.062L14.173 20.187L21.096 23.852ZM23.5 22C22.705 22 22.005 22.379 21.547 22.959L15.03 19.508L15.811 18.892L15.19 18.108L14.065 18.997L10 16.845V15H9V16.316L4.904 14.148C4.918 14.097 4.94 14.051 4.949 14H13V13H4.949C4.94 12.948 4.918 12.902 4.904 12.852L9 10.683V12H10V10.154L14.065 8.002L15.19 8.892L15.811 8.108L15.03 7.491L21.547 4.041C22.005 4.62 22.705 5 23.5 5C24.879 5 26 3.878 26 2.5C26 1.121 24.879 0 23.5 0C22.292 0 21.283 0.86 21.051 2H10.949C10.717 0.86 9.708 0 8.5 0C7.121 0 6 1.121 6 2.5C6 3.291 6.377 3.99 6.953 4.448L3.153 11.097C2.944 11.04 2.728 11 2.5 11C1.121 11 0 12.121 0 13.5C0 14.878 1.121 16 2.5 16C2.728 16 2.944 15.959 3.153 15.902L6.953 22.551C6.377 23.009 6 23.708 6 24.5C6 25.878 7.121 27 8.5 27C9.708 27 10.717 26.139 10.949 25H21.051C21.283 26.139 22.292 27 23.5 27C24.879 27 26 25.878 26 24.5C26 23.121 24.879 22 23.5 22Z" fill="currentColor"/>
</svg>
