<svg width="28" height="22" viewBox="0 0 28 22" fill="none" xmlns="http://www.w3.org/2000/svg">
<path fill-rule="evenodd" clip-rule="evenodd" d="M23.293 0H14.64L7.109 12.661L6.593 10.732L5.626 10.991L6.396 13.861L6.334 13.965L6.44 14.028L6.579 14.547L7.085 14.411L7.193 14.476L7.259 14.365L10.135 13.594L9.877 12.628L7.991 13.133L15.208 1H22.715L26.469 7.5L22.715 14H18.804V15H23.293L27.623 7.5L23.293 0ZM20.11 9.38L12.991 22H4.33L0 14.5L4.33 7H7.804V8H4.908L1.154 14.5L4.908 21H12.407L19.258 8.855L17.331 9.372L17.073 8.406L19.945 7.636L20.003 7.534L20.107 7.593L20.629 7.453L20.767 7.964L20.874 8.025L20.812 8.135L21.583 11.009L20.616 11.268L20.11 9.38Z" fill="currentColor"/>
</svg>
