<svg width="28" height="28" viewBox="0 0 28 28" fill="none" xmlns="http://www.w3.org/2000/svg">
<path fill-rule="evenodd" clip-rule="evenodd" d="M19.1033 18H21.1033V19H19.1033V21H18.1033V19H16.1033V18H18.1033V16H19.1033V18ZM22.1033 12H26.1032V8H22.1033V12ZM26.6032 7H21.6033C21.3273 7 21.1033 7.224 21.1033 7.5V12.5C21.1033 12.776 21.3273 13 21.6033 13H26.6032C26.8792 13 27.1032 12.776 27.1032 12.5V7.5C27.1032 7.224 26.8792 7 26.6032 7ZM25.1033 25H27.1032V26H25.1033V28H24.1033V26H22.1033V25H24.1033V23H25.1033V25ZM14.1033 26H19.1033V25H14.1033V26ZM16.8603 11.771L15.7652 10.676L17.6073 8.834L18.7022 9.929L16.8603 11.771ZM2.30125 26.329L1.20725 25.234L15.0583 11.383L16.1532 12.478L2.30125 26.329ZM19.7623 9.576L17.9603 7.773C17.8673 7.68 17.7403 7.627 17.6073 7.627C17.4743 7.627 17.3473 7.68 17.2533 7.773L0.14625 24.88C-0.04875 25.076 -0.04875 25.392 0.14625 25.587L1.94825 27.39C2.04125 27.483 2.16825 27.536 2.30125 27.536C2.43425 27.536 2.56125 27.483 2.65525 27.39L19.7623 10.283C19.9573 10.087 19.9573 9.771 19.7623 9.576ZM7.10325 10H5.10325V9H7.10325V7H8.10325V9H10.1033V10H8.10325V12H7.10325V10ZM15.1033 5H19.1033V1H15.1033V5ZM14.6033 6H19.6033C19.8793 6 20.1033 5.776 20.1033 5.5V0.5C20.1033 0.224 19.8793 0 19.6033 0H14.6033C14.3273 0 14.1033 0.224 14.1033 0.5V5.5C14.1033 5.776 14.3273 6 14.6033 6ZM5.10325 3H8.10325V2H5.10325V3ZM0.10325 3H4.10325V2H0.10325V3ZM22.1033 5H26.1032V1H22.1033V5ZM26.6032 0H21.6033C21.3273 0 21.1033 0.224 21.1033 0.5V5.5C21.1033 5.776 21.3273 6 21.6033 6H26.6032C26.8792 6 27.1032 5.776 27.1032 5.5V0.5C27.1032 0.224 26.8792 0 26.6032 0Z" fill="currentColor"/>
</svg>
