<svg width="28" height="28" viewBox="0 0 28 28" fill="none" xmlns="http://www.w3.org/2000/svg">
<path fill-rule="evenodd" clip-rule="evenodd" d="M3 14C3 14.551 2.552 15 2 15C1.448 15 1 14.551 1 14C1 13.449 1.448 13 2 13C2.552 13 3 13.449 3 14ZM0 14C0 15.103 0.897 16 2 16C3.103 16 4 15.103 4 14C4 12.897 3.103 12 2 12C0.897 12 0 12.897 0 14ZM28 1.972V26.028C28 27.115 27.115 28 26.027 28H1.973C0.885 28 0 27.115 0 26.028V17H1V26.028C1 26.564 1.437 27 1.973 27H26.027C26.563 27 27 26.564 27 26.028V1.972C27 1.436 26.563 1 26.027 1H1.973C1.437 1 1 1.436 1 1.972V11H0V1.972C0 0.885 0.885 0 1.973 0H26.027C27.115 0 28 0.885 28 1.972ZM2 22H4.693C7.547 22 10.822 20.126 12.148 17.733L13.023 18.218C11.512 20.944 7.931 23 4.693 23H2V22ZM22.063 4.501H24.131L23.057 3.426L23.764 2.719L25.829 4.785C26.024 4.98 26.024 5.296 25.829 5.492L23.764 7.557L23.057 6.85L24.406 5.501H22.151C19.545 5.501 16.267 6.88 14.621 9.961L13.738 9.49C15.333 6.506 18.678 4.501 22.063 4.501ZM13.879 14.164C13.966 18.484 17.555 22 21.88 22H24.255L23.057 20.801L23.764 20.094L25.829 22.16C26.024 22.355 26.024 22.672 25.829 22.867L23.764 24.933L23.057 24.226L24.282 23H21.966C17.015 23 12.977 19.045 12.879 14.184C12.788 9.595 9.273 6 4.879 6H2V5H4.879C9.823 5 13.776 9.025 13.879 14.164ZM6 11C5.448 11 5 10.551 5 10C5 9.449 5.448 9 6 9C6.552 9 7 9.449 7 10C7 10.551 6.552 11 6 11ZM6 8C4.897 8 4 8.897 4 10C4 11.103 4.897 12 6 12C7.103 12 8 11.103 8 10C8 8.897 7.103 8 6 8ZM9.149 15.988L8.488 17.442L7.033 16.781L7.694 15.327L9.149 15.988ZM5.709 17.277L8.984 18.767L10.474 15.492L7.198 14.002L5.709 17.277ZM23 10H25.016L25.001 16H22.993L23 10ZM21.992 17H25.999L26.018 9H22.001L21.992 17ZM16.999 11H19.016L19.001 16H16.994L16.999 11ZM15.992 17H19.999L20.018 10H16.001L15.992 17Z" fill="currentColor"/>
</svg>
