<svg width="27" height="28" viewBox="0 0 27 28" fill="none" xmlns="http://www.w3.org/2000/svg">
<path fill-rule="evenodd" clip-rule="evenodd" d="M24.5 22V18C25.327 18 26 18.897 26 20C26 21.103 25.327 22 24.5 22ZM2.5 22C1.673 22 1 21.103 1 20C1 18.897 1.673 18 2.5 18V22ZM24.5 17V16.944C24.5 15.321 23.229 14 21.667 14H13.5V15H21.667C22.678 15 23.5 15.872 23.5 16.944V23.056C23.5 24.128 22.678 25 21.667 25H5.333C4.322 25 3.5 24.128 3.5 23.056V16.944C3.5 15.872 4.322 15 5.333 15H8.5V14H5.333C3.771 14 2.5 15.321 2.5 16.944V17C1.121 17 0 18.346 0 20C0 21.654 1.121 23 2.5 23V23.056C2.5 24.679 3.771 26 5.333 26H10.5V28H11.5V26H15.5V28H16.5V26H21.667C23.229 26 24.5 24.679 24.5 23.056V23C25.879 23 27 21.654 27 20C27 18.346 25.879 17 24.5 17ZM13.5 5H15.5V4H13.5V5ZM9.5 5H11.5V4H9.5V5ZM5.5 5H7.5V4H5.5V5ZM9 21C8.173 21 7.5 20.327 7.5 19.5C7.5 18.673 8.173 18 9 18C9.827 18 10.5 18.673 10.5 19.5C10.5 20.327 9.827 21 9 21ZM9 17C7.621 17 6.5 18.122 6.5 19.5C6.5 20.878 7.621 22 9 22C10.379 22 11.5 20.878 11.5 19.5C11.5 18.122 10.379 17 9 17ZM16.5 19.5C16.5 18.673 17.173 18 18 18C18.827 18 19.5 18.673 19.5 19.5C19.5 20.327 18.827 21 18 21C17.173 21 16.5 20.327 16.5 19.5ZM20.5 19.5C20.5 18.122 19.379 17 18 17C16.621 17 15.5 18.122 15.5 19.5C15.5 20.878 16.621 22 18 22C19.379 22 20.5 20.878 20.5 19.5ZM3.5 1.455C3.5 1.204 3.704 1 3.955 1H17.067C17.306 1 17.5 1.194 17.5 1.432V8.529C17.5 8.789 17.289 9 17.029 9H11C10.724 9 10.5 9.224 10.5 9.5V12.261L8.298 9.208C8.204 9.077 8.054 9 7.893 9H3.955C3.704 9 3.5 8.796 3.5 8.545V1.455ZM3.955 10H7.637L10.595 14.102C10.69 14.235 10.843 14.31 11 14.31C11.051 14.31 11.104 14.302 11.153 14.285C11.36 14.219 11.5 14.026 11.5 13.81V10H17.029C17.84 10 18.5 9.34 18.5 8.529V1.432C18.5 0.643 17.857 0 17.067 0H3.955C3.152 0 2.5 0.652 2.5 1.455V8.545C2.5 9.348 3.152 10 3.955 10Z" fill="currentColor"/>
</svg>
