<svg width="27" height="28" viewBox="0 0 27 28" fill="none" xmlns="http://www.w3.org/2000/svg">
<path fill-rule="evenodd" clip-rule="evenodd" d="M22.765 18.0186L23.7098 18.3523L23.1177 20.0319C23.0455 20.2344 22.8552 20.3666 22.6448 20.3666C22.6267 20.3666 22.6097 20.3656 22.5917 20.3636L20.6771 20.1592L20.7823 19.1631L21.69 19.2593C21.2361 18.6259 20.5007 18.217 19.6852 18.217C18.516 18.217 17.497 19.0488 17.2636 20.1953L16.2808 19.9948C16.6104 18.3834 18.0421 17.2149 19.6852 17.2149C20.8424 17.2149 21.8853 17.8021 22.5225 18.7071L22.765 18.0186ZM22.1078 21.1844L23.0896 21.3848C22.76 22.9953 21.3283 24.1648 19.6852 24.1648C18.5981 24.1648 17.6103 23.6457 16.967 22.8329L16.8468 23.3771L15.868 23.1596L16.2627 21.3828C16.3198 21.1263 16.5673 20.9589 16.8248 20.996L18.6332 21.2656L18.4859 22.2567L17.6954 22.1394C18.1513 22.7608 18.8787 23.1626 19.6852 23.1626C20.8554 23.1626 21.8733 22.3309 22.1078 21.1844ZM25.9981 21.5432L25.404 21.5091C25.1435 21.4921 24.9411 21.6604 24.887 21.8989C24.7548 22.4832 24.5253 23.0384 24.2047 23.5485C24.0745 23.7549 24.1125 24.0265 24.2939 24.1888L24.7377 24.5847L23.5845 25.7382L23.1908 25.2962C23.0285 25.1138 22.755 25.0757 22.5496 25.206C22.0396 25.5277 21.4856 25.7582 20.8995 25.8905C20.66 25.9446 20.4957 26.1631 20.5097 26.4076L20.5428 26.9979H18.9127L18.9468 26.4076C18.9618 26.1621 18.7965 25.9436 18.5581 25.8895C17.9729 25.7582 17.4179 25.5277 16.9089 25.205C16.7015 25.0757 16.43 25.1128 16.2677 25.2952L15.872 25.7382L14.7188 24.5857L15.1616 24.1908C15.345 24.0275 15.3831 23.7569 15.2518 23.5495C14.9312 23.0414 14.7018 22.4862 14.5685 21.8999C14.5174 21.6614 14.318 21.5021 14.0525 21.5091L13.4594 21.5432V19.9127L14.0545 19.9457C14.3221 19.9608 14.5174 19.7944 14.5705 19.5569C14.7038 18.9727 14.9352 18.4175 15.2558 17.9104C15.3871 17.7029 15.349 17.4314 15.1656 17.268L14.7188 16.8701L15.872 15.7177L16.2697 16.1626C16.432 16.345 16.7025 16.3831 16.9099 16.2528C17.4179 15.9331 17.9719 15.7037 18.5581 15.5714C18.7965 15.5173 18.9608 15.2988 18.9468 15.0543L18.9127 14.457H20.5428L20.5097 15.0543C20.4957 15.2998 20.66 15.5173 20.8995 15.5724C21.4846 15.7036 22.0376 15.9331 22.5446 16.2538C22.751 16.3851 23.0245 16.347 23.1858 16.1636L23.5845 15.7167L24.7377 16.8701L24.2919 17.267C24.1095 17.4304 24.0715 17.7019 24.2027 17.9094C24.5243 18.4175 24.7538 18.9717 24.886 19.5559C24.9401 19.7944 25.1405 19.9708 25.403 19.9457L25.9981 19.9127V21.5432ZM26.8427 19.0178C26.7425 18.9235 26.6063 18.8795 26.47 18.8815L25.7546 18.9225C25.6324 18.5137 25.4691 18.1188 25.2657 17.742L25.7997 17.265C25.9029 17.1738 25.963 17.0435 25.967 16.9052C25.9711 16.7679 25.918 16.6346 25.8208 16.5364L23.9182 14.6334C23.821 14.5361 23.6567 14.4921 23.5505 14.487C23.4122 14.49 23.283 14.5512 23.1908 14.6544L22.7109 15.1916C22.3352 14.9881 21.9424 14.8248 21.5337 14.7025L21.5737 13.984C21.5808 13.8467 21.5327 13.7114 21.4375 13.6122C21.3423 13.511 21.2111 13.4548 21.0738 13.4548H18.3827C18.2445 13.4548 18.1122 13.511 18.019 13.6122C17.9239 13.7124 17.8748 13.8467 17.8828 13.985L17.9239 14.7015C17.5151 14.8238 17.1203 14.9871 16.7446 15.1906L16.2667 14.6544C16.1746 14.5512 16.0443 14.49 15.907 14.487C15.7688 14.4951 15.6355 14.5361 15.5384 14.6334L13.6358 16.5364C13.5376 16.6346 13.4845 16.7679 13.4885 16.9052C13.4925 17.0435 13.5536 17.1738 13.6558 17.265L14.1918 17.744C13.9894 18.1198 13.8251 18.5137 13.7029 18.9225L12.9865 18.8815C12.8533 18.8795 12.715 18.9235 12.6138 19.0178C12.5146 19.112 12.4575 19.2442 12.4575 19.3815V22.0733C12.4575 22.2116 12.5146 22.3429 12.6138 22.4381C12.715 22.5333 12.8533 22.5854 12.9865 22.5734L13.6999 22.5333C13.8221 22.9442 13.9854 23.339 14.1888 23.7158L13.6558 24.1908C13.5536 24.282 13.4925 24.4123 13.4885 24.5506C13.4845 24.6879 13.5376 24.8212 13.6358 24.9184L15.5384 26.8225C15.6355 26.9197 15.7648 26.9668 15.907 26.9688C16.0443 26.9648 16.1746 26.9047 16.2667 26.8014L16.7416 26.2683C17.1183 26.4727 17.5141 26.6371 17.9239 26.7593L17.8828 27.4709C17.8748 27.6082 17.9239 27.7435 18.019 27.8437C18.1122 27.9439 18.2445 28 18.3827 28H21.0738C21.2111 28 21.3423 27.9439 21.4375 27.8437C21.5327 27.7435 21.5808 27.6082 21.5737 27.4709L21.5337 26.7603C21.9434 26.6371 22.3382 26.4737 22.7159 26.2693L23.1908 26.8014C23.283 26.9047 23.4122 26.9648 23.5505 26.9688C23.6597 26.9698 23.822 26.9197 23.9182 26.8225L25.8208 24.9184C25.918 24.8212 25.9711 24.6879 25.967 24.5506C25.963 24.4123 25.9029 24.282 25.7997 24.1908L25.2667 23.7138C25.4701 23.337 25.6334 22.9422 25.7556 22.5333L26.47 22.5734C26.6063 22.5854 26.7425 22.5333 26.8427 22.4381C26.9429 22.3429 27 22.2116 27 22.0733V19.3815C27 19.2442 26.9429 19.112 26.8427 19.0178ZM1.00189 21.9731H10.051V22.9752H0.500946C0.224424 22.9752 0 22.7508 0 22.4742V0.501074C0 0.224481 0.224424 0 0.500946 0H23.6076C23.8841 0 24.1085 0.224481 24.1085 0.501074V11.9847H23.1066V1.00215H1.00189V21.9731ZM17.5491 8.97824H17.0552V6.96994H17.5491H19.5369H20.101V8.97824H19.5369H17.5491ZM18.0501 5.96879H19.036V3.98654H18.0501V5.96879ZM20.0378 11.9847V9.98039H20.6019C20.8784 9.98039 21.1029 9.75591 21.1029 9.47931V6.46886C21.1029 6.19227 20.8784 5.96779 20.6019 5.96779H20.0378V3.48547C20.0378 3.20787 19.8144 2.9844 19.5369 2.9844H17.5491C17.2726 2.9844 17.0482 3.20787 17.0482 3.48547V5.96779H16.5543C16.2767 5.96779 16.0533 6.19227 16.0533 6.46886V9.47931C16.0533 9.75591 16.2767 9.98039 16.5543 9.98039H17.0482V11.9847H18.0501V9.98039H19.036V11.9847H20.0378ZM10.5199 12.9397H9.9508V11.0296H10.5199H12.5557H13.0567V12.9397H12.5557H10.5199ZM11.0208 10.0275H12.0538V3.98654H11.0208V10.0275ZM13.0567 15.9301V13.9419H13.5576C13.8341 13.9419 14.0586 13.7174 14.0586 13.4408V10.5286C14.0586 10.252 13.8341 10.0275 13.5576 10.0275H13.0567V3.48547C13.0567 3.20787 12.8322 2.9844 12.5557 2.9844H10.5199C10.2433 2.9844 10.0189 3.20787 10.0189 3.48547V10.0275H9.44985C9.17333 10.0275 8.9489 10.252 8.9489 10.5286V13.4408C8.9489 13.7174 9.17333 13.9419 9.44985 13.9419H10.0189V19.8956H11.0208V13.9419H12.0548V15.9301H13.0567ZM3.98553 7.05211H4.97239V3.98654H3.98553V7.05211ZM3.98553 19.0308H4.97239V10.9485H3.98553V19.0308ZM2.99165 8.05426H3.48458H5.47334H5.96627V9.94531H5.47334H3.48458H2.99165V8.05426ZM3.48458 20.0329H5.47334C5.75086 20.0329 5.97429 19.8084 5.97429 19.5319V10.9475H6.46722C6.74474 10.9475 6.96816 10.724 6.96816 10.4464V7.55319C6.96816 7.27559 6.74474 7.05211 6.46722 7.05211H5.97429V3.48547C5.97429 3.20787 5.75086 2.9844 5.47334 2.9844H3.48458C3.20706 2.9844 2.98364 3.20787 2.98364 3.48547V7.05211H2.4907C2.21318 7.05211 1.98976 7.27559 1.98976 7.55319V10.4464C1.98976 10.724 2.21318 10.9475 2.4907 10.9475H2.98364V19.5319C2.98364 19.8084 3.20706 20.0329 3.48458 20.0329Z" fill="currentColor"/>
</svg>
