<svg width="28" height="28" viewBox="0 0 28 28" fill="none" xmlns="http://www.w3.org/2000/svg">
<path fill-rule="evenodd" clip-rule="evenodd" d="M15 12H18V13H15V16H14V13H11V12H14V9H15V12ZM24.933 8.043C23.627 8.043 23.049 7.698 23 7.597L22.996 1.467C23.051 1.347 23.633 1 24.933 1C26.183 1 26.888 1.325 27 1.475L27.008 7.559C26.919 7.722 26.198 8.043 24.933 8.043ZM14.5 18C11.468 18 9 15.533 9 12.5C9 9.467 11.468 7 14.5 7C17.532 7 20 9.467 20 12.5C20 15.533 17.532 18 14.5 18ZM24.446 15C25.362 15 25.867 15.208 26 15.311L26.026 19.667C25.955 19.756 25.447 20 24.446 20C23.525 20 23.054 19.786 23 19.763L22.979 15.315C23.054 15.217 23.526 15 24.446 15ZM19 26.82C18.865 26.893 18.513 27 17.959 27C17.404 27 17.108 26.894 17 26.833V23.168C17.109 23.108 17.405 23 17.959 23C18.512 23 18.864 23.108 19 23.182V26.82ZM3.419 24C1.63 24 1 23.501 1 23.395V16.606C1.035 16.434 1.806 16 3.419 16C5.043 16 5.913 16.436 6 16.617L6.002 23.381C5.936 23.557 5.069 24 3.419 24ZM5 7.82C4.865 7.893 4.513 8 3.959 8C3.404 8 3.108 7.894 3 7.833V4.168C3.109 4.108 3.405 4 3.959 4C4.512 4 4.864 4.108 5 4.182V7.82ZM24.933 0C23.151 0 22 0.567 22 1.446V5.124L18.949 7.774C17.785 6.678 16.222 6 14.5 6C12.219 6 10.213 7.184 9.053 8.966L6 6.408V4.064C6 3.417 5.199 3 3.959 3C2.751 3 2 3.408 2 4.064V7.936C2 8.592 2.751 9 3.959 9C5.218 9 6 8.592 6 7.936V7.713L8.564 9.862C8.205 10.669 8 11.561 8 12.5C8 13.961 8.49 15.306 9.308 16.393L7 18.435V16.605C7 15.497 5.201 15 3.419 15C1.342 15 0 15.63 0 16.605V23.395C0 24.37 1.342 25 3.419 25C5.071 25 7 24.58 7 23.395V19.77L9.964 17.147C11.137 18.292 12.736 19 14.5 19C14.881 19 15.252 18.96 15.614 18.897L17.187 22.068C16.44 22.208 16 22.563 16 23.064V26.936C16 27.592 16.751 28 17.959 28C19.218 28 20 27.592 20 26.936V23.064C20 22.475 19.332 22.08 18.276 22.014L16.605 18.644C17.837 18.22 18.9 17.437 19.673 16.419L22 17.436V19.763C22 20.526 22.937 21 24.446 21C25.624 21 27 20.676 27 19.763V15.237C27 14.324 25.624 14 24.446 14C22.937 14 22 14.474 22 15.237V16.345L20.227 15.57C20.719 14.655 21 13.61 21 12.5C21 10.997 20.482 9.616 19.623 8.514L22 6.448V7.597C22 8.475 23.151 9.043 24.933 9.043C26.348 9.043 28 8.664 28 7.597V1.446C28 0.447 26.459 0 24.933 0Z" fill="currentColor"/>
</svg>
