<svg width="26" height="27" viewBox="0 0 26 27" fill="none" xmlns="http://www.w3.org/2000/svg">
<path fill-rule="evenodd" clip-rule="evenodd" d="M24.7434 22.8087L18.2336 16.4881C17.6375 17.2763 16.9268 17.974 16.1247 18.5612L22.4465 25.0987C22.6485 25.2988 22.8958 25.3575 23.2155 25.2769C23.5603 25.1893 23.9523 24.9415 24.3192 24.5772C24.7313 24.1692 25.3365 23.3959 24.7434 22.8087ZM10.021 19.5643C15.1134 19.5643 19.2559 15.5049 19.2559 10.5139C19.2559 5.54077 15.1134 1.49522 10.021 1.49522C4.96476 1.49522 1.00522 5.45717 1.00522 10.5139C1.00522 15.5895 4.96476 19.5643 10.021 19.5643ZM25.0299 25.2809C24.5313 25.7755 23.9905 26.1079 23.4658 26.2412C23.2949 26.285 23.126 26.3069 22.9622 26.3069C22.4957 26.3069 22.0685 26.1318 21.7278 25.7944L15.2743 19.1215C13.7353 20.0281 11.943 20.5596 10.021 20.5596C4.40184 20.5596 0 16.1478 0 10.5139C0 4.89885 4.40184 0.5 10.021 0.5C15.6673 0.5 20.2611 4.9924 20.2611 10.5139C20.2611 12.3918 19.7234 14.1444 18.8066 15.6492L25.4511 22.1021C26.3136 22.955 26.1497 24.1722 25.0299 25.2809ZM16.1669 10.5139C16.1669 7.17192 13.4669 4.55351 10.021 4.55351C6.64147 4.55351 4.09425 7.11619 4.09425 10.5139C4.09425 13.9304 6.64147 16.506 10.021 16.506C13.4669 16.506 16.1669 13.8747 16.1669 10.5139ZM17.1721 10.5139C17.1721 14.3673 13.9635 17.5013 10.021 17.5013C6.13383 17.5013 3.08903 14.432 3.08903 10.5139C3.08903 6.54892 6.0695 3.5583 10.021 3.5583C14.0308 3.5583 17.1721 6.61361 17.1721 10.5139ZM13.5976 6.52006H7.00535V7.51527H13.095V13.4995H14.1002V7.01766C14.1002 6.74199 13.875 6.52006 13.5976 6.52006ZM7.00535 13.5313H12.0314V12.5361H7.00535V13.5313ZM6.00014 11.5986H12.0314V10.6034H6.00014V11.5986ZM12.0013 25.5048H3.95955V20.466H2.95433V26.0024C2.95433 26.2771 3.1795 26.5 3.45694 26.5H12.5039C12.7823 26.5 13.0065 26.2771 13.0065 26.0024V21.4612H12.0013V25.5048ZM6.00014 9.55049H12.0314V8.55527H6.00014V9.55049Z" fill="currentColor"/>
</svg>
