<svg width="17" height="28" viewBox="0 0 17 28" fill="none" xmlns="http://www.w3.org/2000/svg">
<path fill-rule="evenodd" clip-rule="evenodd" d="M15.163 9.54302C13.324 9.95471 10.49 10.0378 8.5 10.0378C6.523 10.0378 3.715 9.95571 1.875 9.55203L7.414 17.7488C7.47 17.8319 7.5 17.9301 7.5 18.0303V19.0981C8.201 19.3004 8.849 19.3034 9.5 19.1051V18.0303C9.5 17.9291 9.53 17.8309 9.587 17.7478L15.163 9.54302ZM16.853 8.77172L16.883 8.79176L10.5 18.1835V19.4597C10.5 19.664 10.376 19.8483 10.186 19.9244C9.641 20.1438 9.093 20.253 8.533 20.253C7.977 20.253 7.412 20.1448 6.827 19.9295C6.631 19.8573 6.5 19.669 6.5 19.4597V18.1835L0.105 8.71863C0.0429995 8.62247 0 8.5203 0 8.41012C0 6.98472 4.692 6.72128 7.488 6.69023L7.5 7.69191C4.157 7.72797 2.079 8.1016 1.288 8.39108C2.231 8.7006 4.821 9.03617 8.5 9.03617C11.95 9.03617 14.443 8.74067 15.517 8.44918C15.017 8.31596 14.101 8.13365 12.439 7.93031L12.56 6.93564C16.682 7.43949 17 7.8642 17 8.41012C17 8.54134 16.94 8.66054 16.853 8.77172ZM4.5 5.00841H5.5V4.00673H4.5V5.00841ZM3.5 5.50925V3.50589C3.5 3.22842 3.724 3.00504 4 3.00504H6C6.276 3.00504 6.5 3.22842 6.5 3.50589V5.50925C6.5 5.78571 6.276 6.01009 6 6.01009H4C3.724 6.01009 3.5 5.78571 3.5 5.50925ZM8.5 2.00336H9.5V1.00168H8.5V2.00336ZM7.5 2.5042V0.500841C7.5 0.223375 7.724 0 8 0H10C10.276 0 10.5 0.223375 10.5 0.500841V2.5042C10.5 2.78067 10.276 3.00504 10 3.00504H8C7.724 3.00504 7.5 2.78067 7.5 2.5042ZM9.5 7.01177H10.5V6.01009H9.5V7.01177ZM9 5.00841H11C11.276 5.00841 11.5 5.23178 11.5 5.50925V7.51261C11.5 7.78907 11.276 8.01345 11 8.01345H9C8.724 8.01345 8.5 7.78907 8.5 7.51261V5.50925C8.5 5.23178 8.724 5.00841 9 5.00841ZM12.424 23.3332C12.505 23.5115 12.474 23.7218 12.345 23.8691L8.876 27.8287C8.781 27.9379 8.643 28 8.5 28C8.356 28 8.219 27.9379 8.124 27.8287L4.655 23.8691C4.526 23.7218 4.495 23.5115 4.576 23.3332C4.657 23.1529 4.835 23.0387 5.031 23.0387H6.484V22.037H7.484V23.5395C7.484 23.816 7.261 24.0404 6.984 24.0404H6.135L8.5 26.7389L10.865 24.0404H10C9.724 24.0404 9.5 23.816 9.5 23.5395V22.037H10.5V23.0387H11.969C12.165 23.0387 12.343 23.1529 12.424 23.3332Z" fill="currentColor"/>
</svg>
