<svg width="28" height="29" viewBox="0 0 28 29" fill="none" xmlns="http://www.w3.org/2000/svg">
<path fill-rule="evenodd" clip-rule="evenodd" d="M27.935 12.664C27.935 12.829 27.928 12.991 27.914 13.152C27.675 15.977 25.172 18.191 22.216 18.191V17.191C24.657 17.191 26.722 15.379 26.918 13.067C26.93 12.934 26.935 12.799 26.935 12.664C26.935 10.225 25.283 8.385 23.091 8.385C22.815 8.385 22.591 8.162 22.591 7.885C22.591 6.237 21.696 4.476 19.181 4.476H18.747C18.565 4.476 18.397 4.377 18.309 4.218C17.194 2.203 15.083 1 12.664 1C9.108 1 6.214 3.894 6.214 7.451C6.214 7.727 5.991 7.951 5.714 7.951C3.115 7.951 1 10.065 1 12.664C1 13.129 1.128 17.205 5.542 17.205V18.205C1.714 18.205 0 15.422 0 12.664C0 9.677 2.305 7.218 5.23 6.972C5.477 3.085 8.717 0 12.664 0C15.348 0 17.707 1.293 19.035 3.476H19.181C21.698 3.476 23.378 5.003 23.573 7.409C26.091 7.655 27.935 9.832 27.935 12.664ZM21.373 22.697L23.686 24.503L18.6 28.476H9.367L4.281 24.503L6.594 22.697L7.209 23.485L5.906 24.503L9.71 27.476H18.256L22.061 24.503L20.758 23.485L21.373 22.697ZM21.373 17.697L23.686 19.503L18.6 23.476H9.367L4.281 19.503L6.594 17.697L7.209 18.485L5.906 19.503L9.71 22.476H18.256L22.061 19.503L20.758 18.485L21.373 17.697ZM9.697 11.476H18.314L22.153 14.476L18.314 17.476H9.697L5.857 14.476L9.697 11.476ZM18.658 18.476L23.778 14.476L18.658 10.476H9.353L4.232 14.476L9.353 18.476H18.658Z" fill="currentColor"/>
</svg>
