<svg width="25" height="25" viewBox="0 0 25 25" fill="none" xmlns="http://www.w3.org/2000/svg">
<path fill-rule="evenodd" clip-rule="evenodd" d="M20.9857 24.001H24.0017V20.9622H20.9857V24.001ZM10.9606 24.001H14.0384V20.9622H10.9606V24.001ZM0.998322 24.001H4.03522V20.9622H0.998322V24.001ZM24.5008 19.9633H23.0034V17.4659C23.0034 17.1902 22.7797 16.9664 22.5042 16.9664H13.0201V14.9685H12.0218V16.9664H2.53774C2.2612 16.9664 2.03858 17.1902 2.03858 17.4659V19.9633H0.499162C0.222626 19.9633 0 20.1871 0 20.4628V24.5005C0 24.7762 0.222626 25 0.499162 25H4.53438C4.80992 25 5.03354 24.7762 5.03354 24.5005V20.4628C5.03354 20.1871 4.80992 19.9633 4.53438 19.9633H3.0369V17.9654H12.0218V19.9633H10.4614C10.1859 19.9633 9.96226 20.1871 9.96226 20.4628V24.5005C9.96226 24.7762 10.1859 25 10.4614 25H14.5376C14.8141 25 15.0367 24.7762 15.0367 24.5005V20.4628C15.0367 20.1871 14.8141 19.9633 14.5376 19.9633H13.0201V17.9654H22.005V19.9633H20.4866C20.211 19.9633 19.9874 20.1871 19.9874 20.4628V24.5005C19.9874 24.7762 20.211 25 20.4866 25H24.5008C24.7764 25 25 24.7762 25 24.5005V20.4628C25 20.1871 24.7764 19.9633 24.5008 19.9633ZM12.5369 1.04016L17.3249 3.02308L12.522 5.41956L7.74699 3.02407L12.5369 1.04016ZM13.0341 12.64L13.0211 6.28665L18.0277 3.78827V9.6701L13.0341 12.64ZM7.04616 3.79027L12.0228 6.28665L12.0358 12.638L7.04616 9.6701V3.79027ZM12.2814 13.9466C12.3602 13.9926 12.4491 14.0165 12.5369 14.0165C12.6248 14.0165 12.7136 13.9926 12.7925 13.9466L18.7824 10.3843C18.9332 10.2944 19.026 10.1306 19.026 9.9548V2.98112C19.026 2.77933 18.9042 2.59652 18.7186 2.5196L12.7286 0.0382099C12.6058 -0.0127366 12.4691 -0.0127366 12.3463 0.0382099L6.35632 2.5196C6.16963 2.59652 6.04784 2.77933 6.04784 2.98112V9.9548C6.04784 10.1306 6.14068 10.2944 6.29143 10.3843L12.2814 13.9466Z" fill="currentColor"/>
</svg>
