<svg width="58" height="22" viewBox="0 0 58 22" fill="none" xmlns="http://www.w3.org/2000/svg">
<rect x="0.5" width="57" height="22" rx="11" fill="#FFA800"/>
<path d="M12.9951 10.1074V16H11.3477V8.60352H12.8994L12.9951 10.1074ZM12.7285 12.0283L12.168 12.0215C12.168 11.5111 12.2318 11.0394 12.3594 10.6064C12.487 10.1735 12.6738 9.79753 12.9199 9.47852C13.166 9.15495 13.4714 8.90658 13.8359 8.7334C14.2051 8.55566 14.6312 8.4668 15.1143 8.4668C15.4515 8.4668 15.7591 8.51693 16.0371 8.61719C16.3197 8.71289 16.5635 8.86556 16.7686 9.0752C16.9782 9.28483 17.1377 9.55371 17.2471 9.88184C17.361 10.21 17.418 10.6064 17.418 11.0713V16H15.7705V11.2148C15.7705 10.8548 15.7158 10.5723 15.6064 10.3672C15.5016 10.1621 15.349 10.0163 15.1484 9.92969C14.9525 9.83854 14.7178 9.79297 14.4443 9.79297C14.1344 9.79297 13.8701 9.85221 13.6514 9.9707C13.4372 10.0892 13.2617 10.251 13.125 10.4561C12.9883 10.6611 12.888 10.8981 12.8242 11.167C12.7604 11.4359 12.7285 11.723 12.7285 12.0283ZM17.3154 11.5908L16.543 11.7617C16.543 11.3151 16.6045 10.8936 16.7275 10.4971C16.8551 10.096 17.0397 9.74512 17.2812 9.44434C17.5273 9.139 17.8304 8.89974 18.1904 8.72656C18.5505 8.55339 18.9629 8.4668 19.4277 8.4668C19.806 8.4668 20.1432 8.51921 20.4395 8.62402C20.7402 8.72428 20.9954 8.88379 21.2051 9.10254C21.4147 9.32129 21.5742 9.60612 21.6836 9.95703C21.793 10.3034 21.8477 10.7227 21.8477 11.2148V16H20.1934V11.208C20.1934 10.8343 20.1387 10.5449 20.0293 10.3398C19.9245 10.1348 19.7741 9.99349 19.5781 9.91602C19.3822 9.83398 19.1475 9.79297 18.874 9.79297C18.6188 9.79297 18.3932 9.84082 18.1973 9.93652C18.0059 10.0277 17.8441 10.1576 17.7119 10.3262C17.5798 10.4902 17.4795 10.6794 17.4111 10.8936C17.3473 11.1077 17.3154 11.3402 17.3154 11.5908ZM27.7129 14.5166V10.9893C27.7129 10.7249 27.665 10.4971 27.5693 10.3057C27.4736 10.1143 27.3278 9.96615 27.1318 9.86133C26.9404 9.75651 26.6989 9.7041 26.4072 9.7041C26.1383 9.7041 25.9059 9.74967 25.71 9.84082C25.514 9.93197 25.3613 10.055 25.252 10.21C25.1426 10.3649 25.0879 10.5404 25.0879 10.7363H23.4473C23.4473 10.4447 23.5179 10.1621 23.6592 9.88867C23.8005 9.61523 24.0055 9.37142 24.2744 9.15723C24.5433 8.94303 24.8646 8.77441 25.2383 8.65137C25.612 8.52832 26.0312 8.4668 26.4961 8.4668C27.0521 8.4668 27.5443 8.56022 27.9727 8.74707C28.4056 8.93392 28.7451 9.21647 28.9912 9.59473C29.2419 9.96842 29.3672 10.4378 29.3672 11.0029V14.291C29.3672 14.6283 29.39 14.9313 29.4355 15.2002C29.4857 15.4645 29.5563 15.6947 29.6475 15.8906V16H27.959C27.8815 15.8223 27.82 15.5967 27.7744 15.3232C27.7334 15.0452 27.7129 14.7764 27.7129 14.5166ZM27.9521 11.502L27.9658 12.5205H26.7832C26.4779 12.5205 26.209 12.5501 25.9766 12.6094C25.7441 12.6641 25.5505 12.7461 25.3955 12.8555C25.2406 12.9648 25.1243 13.097 25.0469 13.252C24.9694 13.4069 24.9307 13.5824 24.9307 13.7783C24.9307 13.9743 24.9762 14.1543 25.0674 14.3184C25.1585 14.4779 25.2907 14.6032 25.4639 14.6943C25.6416 14.7855 25.8558 14.8311 26.1064 14.8311C26.4437 14.8311 26.7376 14.7627 26.9883 14.626C27.2435 14.4847 27.444 14.3138 27.5898 14.1133C27.7357 13.9082 27.8132 13.7145 27.8223 13.5322L28.3555 14.2637C28.3008 14.4505 28.2074 14.651 28.0752 14.8652C27.943 15.0794 27.7699 15.2845 27.5557 15.4805C27.346 15.6719 27.0931 15.8291 26.7969 15.9521C26.5052 16.0752 26.168 16.1367 25.7852 16.1367C25.3021 16.1367 24.8714 16.041 24.4932 15.8496C24.1149 15.6536 23.8187 15.3916 23.6045 15.0635C23.3903 14.7308 23.2832 14.3548 23.2832 13.9355C23.2832 13.5436 23.3561 13.1973 23.502 12.8965C23.6523 12.5911 23.8711 12.3359 24.1582 12.1309C24.4499 11.9258 24.8053 11.7708 25.2246 11.666C25.6439 11.5566 26.1224 11.502 26.6602 11.502H27.9521ZM31.1719 8.60352H32.8262V16.6426C32.8262 17.1484 32.7396 17.5745 32.5664 17.9209C32.3932 18.2718 32.138 18.5361 31.8008 18.7139C31.4635 18.8962 31.0511 18.9873 30.5635 18.9873C30.4176 18.9873 30.2673 18.9759 30.1123 18.9531C29.9528 18.9349 29.8024 18.9076 29.6611 18.8711L29.668 17.5859C29.7637 17.6042 29.8662 17.6178 29.9756 17.627C30.0804 17.6406 30.1807 17.6475 30.2764 17.6475C30.4723 17.6475 30.6364 17.6133 30.7686 17.5449C30.9007 17.4766 31.001 17.3695 31.0693 17.2236C31.1377 17.0778 31.1719 16.8841 31.1719 16.6426V8.60352ZM31.0283 6.66211C31.0283 6.41146 31.1126 6.2041 31.2812 6.04004C31.4499 5.87142 31.68 5.78711 31.9717 5.78711C32.2679 5.78711 32.498 5.87142 32.6621 6.04004C32.8307 6.2041 32.915 6.41146 32.915 6.66211C32.915 6.9082 32.8307 7.11328 32.6621 7.27734C32.498 7.44141 32.2679 7.52344 31.9717 7.52344C31.68 7.52344 31.4499 7.44141 31.2812 7.27734C31.1126 7.11328 31.0283 6.9082 31.0283 6.66211ZM34.2891 12.3838V12.2266C34.2891 11.6934 34.3665 11.1989 34.5215 10.7432C34.6764 10.2829 34.8997 9.88411 35.1914 9.54688C35.4876 9.20508 35.8477 8.94076 36.2715 8.75391C36.6999 8.5625 37.1829 8.4668 37.7207 8.4668C38.263 8.4668 38.7461 8.5625 39.1699 8.75391C39.5983 8.94076 39.9606 9.20508 40.2568 9.54688C40.5531 9.88411 40.7786 10.2829 40.9336 10.7432C41.0885 11.1989 41.166 11.6934 41.166 12.2266V12.3838C41.166 12.917 41.0885 13.4115 40.9336 13.8672C40.7786 14.3229 40.5531 14.7217 40.2568 15.0635C39.9606 15.4007 39.6006 15.665 39.1768 15.8564C38.7529 16.0433 38.2721 16.1367 37.7344 16.1367C37.1921 16.1367 36.7067 16.0433 36.2783 15.8564C35.8545 15.665 35.4945 15.4007 35.1982 15.0635C34.902 14.7217 34.6764 14.3229 34.5215 13.8672C34.3665 13.4115 34.2891 12.917 34.2891 12.3838ZM35.9365 12.2266V12.3838C35.9365 12.7165 35.9707 13.0309 36.0391 13.3271C36.1074 13.6234 36.2145 13.8831 36.3604 14.1064C36.5062 14.3298 36.693 14.5052 36.9209 14.6328C37.1488 14.7604 37.4199 14.8242 37.7344 14.8242C38.0397 14.8242 38.304 14.7604 38.5273 14.6328C38.7552 14.5052 38.9421 14.3298 39.0879 14.1064C39.2337 13.8831 39.3408 13.6234 39.4092 13.3271C39.4821 13.0309 39.5186 12.7165 39.5186 12.3838V12.2266C39.5186 11.8984 39.4821 11.5885 39.4092 11.2969C39.3408 11.0007 39.2314 10.7386 39.0811 10.5107C38.9352 10.2829 38.7484 10.1051 38.5205 9.97754C38.2972 9.84538 38.0306 9.7793 37.7207 9.7793C37.4108 9.7793 37.1419 9.84538 36.9141 9.97754C36.6908 10.1051 36.5062 10.2829 36.3604 10.5107C36.2145 10.7386 36.1074 11.0007 36.0391 11.2969C35.9707 11.5885 35.9365 11.8984 35.9365 12.2266ZM44.2012 10.0117V16H42.5537V8.60352H44.126L44.2012 10.0117ZM46.4639 8.55566L46.4502 10.0869C46.3499 10.0687 46.2406 10.055 46.1221 10.0459C46.0081 10.0368 45.8942 10.0322 45.7803 10.0322C45.4977 10.0322 45.2493 10.0732 45.0352 10.1553C44.821 10.2327 44.641 10.3467 44.4951 10.4971C44.3538 10.6429 44.2445 10.8206 44.167 11.0303C44.0895 11.2399 44.0439 11.4746 44.0303 11.7344L43.6543 11.7617C43.6543 11.2969 43.6999 10.8662 43.791 10.4697C43.8822 10.0732 44.0189 9.72461 44.2012 9.42383C44.388 9.12305 44.6204 8.88835 44.8984 8.71973C45.181 8.55111 45.5068 8.4668 45.876 8.4668C45.9762 8.4668 46.0833 8.47591 46.1973 8.49414C46.3158 8.51237 46.4046 8.53288 46.4639 8.55566Z" fill="white"/>
</svg>

