<svg width="170" height="100" viewBox="0 0 170 100" fill="none" xmlns="http://www.w3.org/2000/svg">
    <rect x="0.5" y="0.5" width="169" height="99" rx="9.5" fill="white" stroke="#979797"/>
    <path d="M0 10C0 4.47715 4.47715 0 10 0H160C165.523 0 170 4.47715 170 10V12.5H0V10Z" fill="#2FAB63"/>
    <rect x="5.86328" y="20" width="10" height="15" fill="#FF5252"/>
    <rect x="18.8633" y="20" width="11" height="15" fill="#2FAB63"/>
    <rect x="32.8633" y="20" width="10" height="15" fill="#FFA800"/>
    <rect x="45.8633" y="20" width="11" height="15" fill="#FFF176"/>
    <rect x="59.8633" y="20" width="10" height="15" fill="#FF5252"/>
    <rect x="72.8633" y="20" width="10" height="15" fill="#FFA800"/>
    <rect x="85.8633" y="20" width="11" height="15" fill="#FF5252"/>
    <rect x="99.8633" y="20" width="10" height="15" fill="#2FAB63"/>
    <rect x="112.863" y="20" width="11" height="15" fill="#FFA800"/>
    <rect x="126.863" y="20" width="10" height="15" fill="#FFF176"/>
    <rect x="139.863" y="20" width="11" height="15" fill="#FF5252"/>
    <rect x="153.863" y="20" width="11" height="15" fill="#FFA800"/>
    <rect x="5.86328" y="40" width="11" height="15" fill="#FFA800"/>
    <rect x="19.8633" y="40" width="10" height="15" fill="#FFF176"/>
    <rect x="32.8633" y="40" width="10" height="15" fill="#FF5252"/>
    <rect x="45.8633" y="40" width="10" height="15" fill="#2FAB63"/>
    <rect x="58.8633" y="40" width="11" height="15" fill="#FFF176"/>
    <rect x="72.8633" y="40" width="11" height="15" fill="#2FAB63"/>
    <rect x="86.8633" y="40" width="10" height="15" fill="#FFA800"/>
    <rect x="99.8633" y="40" width="10" height="15" fill="#FF5252"/>
    <rect x="112.863" y="40" width="10" height="15" fill="#FFA800"/>
    <rect x="125.863" y="40" width="11" height="15" fill="#FF5252"/>
    <rect x="139.863" y="40" width="11" height="15" fill="#FFA800"/>
    <rect x="153.863" y="40" width="11" height="15" fill="#FF5252"/>
    <rect x="5.86328" y="60" width="10" height="15" fill="#FF5252"/>
    <rect x="18.8633" y="60" width="10" height="15" fill="#FFA800"/>
    <rect x="31.8633" y="60" width="11" height="15" fill="#2FAB63"/>
    <rect x="45.8633" y="60" width="10" height="15" fill="#FF5252"/>
    <rect x="58.8633" y="60" width="11" height="15" fill="#FFF176"/>
    <rect x="72.8633" y="60" width="10" height="15" fill="#FFA800"/>
    <rect x="85.8633" y="60" width="10" height="15" fill="#2FAB63"/>
    <rect x="98.8633" y="60" width="11" height="15" fill="#FFA800"/>
    <rect x="112.863" y="60" width="11" height="15" fill="#FF5252"/>
    <rect x="126.863" y="60" width="11" height="15" fill="#FFA800"/>
    <rect x="140.863" y="60" width="10" height="15" fill="#FFF176"/>
    <rect x="153.863" y="60" width="11" height="15" fill="#FF5252"/>
    <rect x="5.86328" y="80" width="11" height="15" fill="#2FAB63"/>
    <rect x="19.8633" y="80" width="10" height="15" fill="#FF5252"/>
    <rect x="32.8633" y="80" width="10" height="15" fill="#FFA800"/>
    <rect x="45.8633" y="80" width="11" height="15" fill="#FFF176"/>
    <rect x="59.8633" y="80" width="10" height="15" fill="#FFA800"/>
    <rect x="72.8633" y="80" width="10" height="15" fill="#FF5252"/>
    <rect x="85.8633" y="80" width="10" height="15" fill="#2FAB63"/>
    <rect x="98.8633" y="80" width="11" height="15" fill="#FF5252"/>
    <rect x="112.863" y="80" width="11" height="15" fill="#FFA800"/>
    <rect x="126.863" y="80" width="10" height="15" fill="#FFF176"/>
    <rect x="139.863" y="80" width="11" height="15" fill="#FF5252"/>
    <rect x="153.863" y="80" width="11" height="15" fill="#FFA800"/>
</svg>
