<svg width="170" height="100" viewBox="0 0 170 100" fill="none" xmlns="http://www.w3.org/2000/svg">
  <rect x="0.5" y="0.5" width="169" height="99" rx="9.5" fill="white" stroke="#979797"/>
  <path d="M0 10C0 4.47715 4.47715 0 10 0H160C165.523 0 170 4.47715 170 10V12.5H0V10Z" fill="#2FAB63"/>
  <rect x="5.86328" y="20" width="35.1724" height="20" fill="#FF5252"/>
  <rect x="5.86328" y="45" width="35.1724" height="20" fill="#FFA800"/>
  <rect x="5.86328" y="70" width="35.1724" height="20" fill="#FFF176"/>
  <rect x="46.3105" y="20" width="35.1724" height="20" fill="#2FAB63"/>
  <rect x="46.3105" y="45" width="35.1724" height="20" fill="#FFF176"/>
  <rect x="46.3105" y="70" width="35.1724" height="20" fill="#FFA800"/>
  <rect x="87.3447" y="20" width="35.1724" height="20" fill="#FFA800"/>
  <rect x="87.3447" y="45" width="35.1724" height="20" fill="#FF5252"/>
  <rect x="87.3447" y="70" width="35.1724" height="20" fill="#2FAB63"/>
  <rect x="128.379" y="20" width="35.1724" height="20" fill="#FFF176"/>
  <rect x="128.379" y="45" width="36.931" height="20" fill="#2FAB63"/>
  <rect x="128.379" y="70" width="36.931" height="20" fill="#FF5252"/>
</svg>
