<svg width="170" height="100" viewBox="0 0 170 100" fill="none" xmlns="http://www.w3.org/2000/svg">
  <rect x="0.5" y="0.5" width="169" height="99" rx="9.5" fill="white" stroke="#979797"/>
  <path d="M0 10C0 4.47715 4.47715 0 10 0H160C165.523 0 170 4.47715 170 10V12.5H0V10Z" fill="#2FAB63"/>
  <rect x="5.86328" y="20" width="21.1035" height="15" fill="#FF5252"/>
  <rect x="5.86328" y="40" width="21.1035" height="15" fill="#FFA800"/>
  <rect x="5.86328" y="60" width="21.1035" height="15" fill="#FFF176"/>
  <rect x="32.8262" y="20" width="21.1035" height="15" fill="#2FAB63"/>
  <rect x="32.8262" y="40" width="21.1035" height="15" fill="#FFF176"/>
  <rect x="32.8262" y="60" width="21.1035" height="15" fill="#FFA800"/>
  <rect x="59.2051" y="20" width="21.6897" height="15" fill="#FFA800"/>
  <rect x="59.2051" y="40" width="21.6897" height="15" fill="#FF5252"/>
  <rect x="59.2051" y="60" width="21.6897" height="15" fill="#2FAB63"/>
  <rect x="86.1738" y="20" width="21.1035" height="15" fill="#FFF176"/>
  <rect x="86.1738" y="40" width="22.8621" height="15" fill="#2FAB63"/>
  <rect x="86.1738" y="60" width="22.8621" height="15" fill="#FF5252"/>
  <rect x="5.86328" y="80" width="21.1035" height="15" fill="#2FAB63"/>
  <rect x="32.8262" y="80" width="21.1035" height="15" fill="#FF5252"/>
  <rect x="59.2051" y="80" width="21.6897" height="15" fill="#FFF176"/>
  <rect x="86.1738" y="80" width="22.8621" height="15" fill="#FFA800"/>
  <rect x="114.311" y="20" width="21.6897" height="15" fill="#FF5252"/>
  <rect x="114.311" y="40" width="21.6897" height="15" fill="#FFF176"/>
  <rect x="114.311" y="60" width="21.6897" height="15" fill="#FFA800"/>
  <rect x="141.275" y="20" width="21.1035" height="15" fill="#FFA800"/>
  <rect x="141.275" y="40" width="22.8621" height="15" fill="#2FAB63"/>
  <rect x="141.275" y="60" width="22.8621" height="15" fill="#FFF176"/>
  <rect x="114.311" y="80" width="21.6897" height="15" fill="#2FAB63"/>
  <rect x="141.275" y="80" width="22.8621" height="15" fill="#FF5252"/>
</svg>
