<svg viewBox="0 0 24 24" fill="currentColor" xmlns="http://www.w3.org/2000/svg">
  <path d="M5.0719 2.51015H6.24846C6.38206 2.51015 6.49221 2.62031 6.49221 2.7539V3.65625C6.49221 3.78984 6.38206 3.9 6.24846 3.9H5.17502C5.04143 3.9 4.86096 4.00781 4.86096 4.14375L4.83752 9.92344C4.80706 10.7484 4.24924 12.0328 3.46409 12.0656C4.00784 12.0422 4.86096 12.9914 4.86096 14.1609L4.83752 19.8422C4.83752 19.9781 4.94768 20.3016 5.08596 20.3016H6.24143C6.37971 20.3016 6.49456 20.4609 6.49456 20.6016V21.3258C6.49456 21.4641 6.38206 21.5789 6.24143 21.5789H5.07424C4.31487 21.293 3.65393 20.625 3.65393 19.4602V15.218C3.65393 14.0484 3.01877 13.0992 2.23362 13.0992H1.80706C1.64768 13.0992 1.52112 12.9703 1.52112 12.8133V11.2687C1.52112 11.1094 1.65002 10.9828 1.80706 10.9828H2.23127C3.01643 10.9828 3.65159 10.0336 3.65159 8.86406V4.62656C3.65159 3.45703 4.28674 2.51015 5.0719 2.51015ZM18.9516 2.51015C19.7367 2.51015 20.3719 3.45703 20.3719 4.62656V8.86406C20.3719 10.0336 21.0071 10.9828 21.7922 10.9828H22.2164C22.3735 10.9828 22.5024 11.1094 22.5024 11.2687V12.8133C22.5024 12.9703 22.3758 13.0992 22.2164 13.0992H21.7899C21.0047 13.0992 20.3696 14.0484 20.3696 15.218V19.4602C20.3696 20.625 19.7086 21.293 18.9492 21.5789H17.7821C17.6414 21.5789 17.5289 21.4641 17.5289 21.3258V20.6016C17.5289 20.4609 17.6438 20.3016 17.7821 20.3016H18.9375C19.0758 20.3016 19.186 19.9781 19.186 19.8422L19.1625 14.1609C19.1625 12.9914 20.0156 12.0422 20.5594 12.0656C19.7742 12.0328 19.2164 10.7484 19.186 9.92344L19.1625 4.14375C19.1625 4.00781 18.9821 3.9 18.8485 3.9H17.775C17.6414 3.9 17.5313 3.78984 17.5313 3.65625V2.7539C17.5313 2.62031 17.6414 2.51015 17.775 2.51015H18.9516ZM11.9156 15.6516C12.3094 15.6516 12.6281 15.9703 12.6281 16.3641C12.6281 16.7578 12.3094 17.0766 11.9156 17.0766C11.5219 17.0766 11.2031 16.7578 11.2031 16.3641C11.2031 15.9703 11.5219 15.6516 11.9156 15.6516ZM9.06565 15.6516C9.4594 15.6516 9.77815 15.9703 9.77815 16.3641C9.77815 16.7578 9.4594 17.0766 9.06565 17.0766C8.6719 17.0766 8.35315 16.7578 8.35315 16.3641C8.35315 15.9703 8.6719 15.6516 9.06565 15.6516ZM14.7656 15.6516C15.1594 15.6516 15.4781 15.9703 15.4781 16.3641C15.4781 16.7578 15.1594 17.0766 14.7656 17.0766C14.3719 17.0766 14.0531 16.7578 14.0531 16.3641C14.0531 15.9703 14.3719 15.6516 14.7656 15.6516Z" />
</svg>
