<svg
  xmlns="http://www.w3.org/2000/svg"
  viewBox="0 96 960 960"
  fill="currentColor"
>
  <path
    d="M 113.414 779.595 L 113.414 698.355 L 527.74 698.355 L 527.74 779.595 L 113.414 779.595 Z M 113.414
   556.185 L 113.414 474.943 L 753.858 474.943 L 753.858 556.185 L 113.414 556.185 Z M 113.414 332.773 L 113.414
    251.533 L 753.858 251.533 L 753.858 332.773 L 113.414 332.773 Z"
  />
  <path
    d="M 655.428 964.923 C 648.344 964.923 642.143 962.266 636.832 956.955 C 631.518 951.64 628.862 945.441
   628.862 938.357 L 628.862 685.975 L 610.708 685.975 L 610.708 659.408 L 693.95 659.408 L 693.95 646.125
    L 810.842 646.125 L 810.842 659.408 L 894.082 659.408 L 894.082 685.975 L 875.93 685.975 L 875.93 938.357
     C 875.93 945.441 873.275 951.64 867.961 956.955 C 862.647 962.266 856.448 964.923 849.363 964.923
      L 655.428 964.923 Z"
  />
</svg>
