<svg width="34" height="34" viewBox="0 0 34 34" fill="none" xmlns="http://www.w3.org/2000/svg">
  <g clip-path="url(#clip0_8097_76181)">
    <g filter="url(#filter0_d_8097_76181)">
      <path d="M5.5237 16.9993C5.5237 14.5768 7.49286 12.6077 9.91537 12.6077H15.582V9.91602H9.91537C6.00536 9.91602 2.83203 13.0893 2.83203 16.9993C2.83203 20.9093 6.00536 24.0827 9.91537 24.0827H15.582V21.391H9.91537C7.49286 21.391 5.5237 19.4218 5.5237 16.9993ZM11.332 18.416H22.6654V15.5827H11.332V18.416ZM24.082 9.91602H18.4154V12.6077H24.082C26.5045 12.6077 28.4737 14.5768 28.4737 16.9993C28.4737 19.4218 26.5045 21.391 24.082 21.391H18.4154V24.0827H24.082C27.992 24.0827 31.1654 20.9093 31.1654 16.9993C31.1654 13.0893 27.992 9.91602 24.082 9.91602Z" fill="#5A6D80"/>
      <path d="M15.582 13.1077H16.082V12.6077V9.91602V9.41602H15.582H9.91537C5.72922 9.41602 2.33203 12.8132 2.33203 16.9993C2.33203 21.1855 5.72922 24.5827 9.91537 24.5827H15.582H16.082V24.0827V21.391V20.891H15.582H9.91537C7.76901 20.891 6.0237 19.1457 6.0237 16.9993C6.0237 14.853 7.76901 13.1077 9.91537 13.1077H15.582ZM10.832 18.416V18.916H11.332H22.6654H23.1654V18.416V15.5827V15.0827H22.6654H11.332H10.832V15.5827V18.416ZM18.4154 9.41602H17.9154V9.91602V12.6077V13.1077H18.4154H24.082C26.2284 13.1077 27.9737 14.853 27.9737 16.9993C27.9737 19.1457 26.2284 20.891 24.082 20.891H18.4154H17.9154V21.391V24.0827V24.5827H18.4154H24.082C28.2682 24.5827 31.6654 21.1855 31.6654 16.9993C31.6654 12.8132 28.2682 9.41602 24.082 9.41602H18.4154Z" stroke="white"/>
    </g>
  </g>
  <defs>
    <filter id="filter0_d_8097_76181" x="-1.16797" y="7.91602" width="38.332" height="24.166" filterUnits="userSpaceOnUse" color-interpolation-filters="sRGB">
      <feFlood flood-opacity="0" result="BackgroundImageFix"/>
      <feColorMatrix in="SourceAlpha" type="matrix" values="0 0 0 0 0 0 0 0 0 0 0 0 0 0 0 0 0 0 127 0" result="hardAlpha"/>
      <feOffset dx="1" dy="3"/>
      <feGaussianBlur stdDeviation="2"/>
      <feComposite in2="hardAlpha" operator="out"/>
      <feColorMatrix type="matrix" values="0 0 0 0 0 0 0 0 0 0 0 0 0 0 0 0 0 0 0.25 0"/>
      <feBlend mode="normal" in2="BackgroundImageFix" result="effect1_dropShadow_8097_76181"/>
      <feBlend mode="normal" in="SourceGraphic" in2="effect1_dropShadow_8097_76181" result="shape"/>
    </filter>
    <clipPath id="clip0_8097_76181">
      <rect width="34" height="34" fill="white"/>
    </clipPath>
  </defs>
</svg>
