<svg width="34" height="34" viewBox="0 0 34 34" fill="none" xmlns="http://www.w3.org/2000/svg">
  <g clip-path="url(#clip0_7906_28580)">
    <g filter="url(#filter0_d_7906_28580)">
      <path d="M17.0007 2.83398C11.5182 2.83398 7.08398 7.26815 7.08398 12.7507C7.08398 15.2157 7.79232 17.5248 9.08148 19.6073C10.4273 21.789 12.1982 23.659 13.5582 25.8407C14.224 26.9032 14.7057 27.8948 15.2157 29.0423C15.584 29.8215 15.8815 31.1673 17.0007 31.1673C18.1198 31.1673 18.4173 29.8215 18.7715 29.0423C19.2957 27.8948 19.7632 26.9032 20.429 25.8407C21.789 23.6732 23.5598 21.8032 24.9057 19.6073C26.209 17.5248 26.9173 15.2157 26.9173 12.7507C26.9173 7.26815 22.4832 2.83398 17.0007 2.83398ZM17.0007 16.6465C15.0457 16.6465 13.459 15.0598 13.459 13.1048C13.459 11.1498 15.0457 9.56315 17.0007 9.56315C18.9557 9.56315 20.5423 11.1498 20.5423 13.1048C20.5423 15.0598 18.9557 16.6465 17.0007 16.6465Z" fill="#5A6D80"/>
      <path d="M9.50703 19.3448L9.50662 19.3441C8.26272 17.3348 7.58398 15.1159 7.58398 12.7507C7.58398 7.54429 11.7943 3.33398 17.0007 3.33398C22.207 3.33398 26.4173 7.54429 26.4173 12.7507C26.4173 15.1158 25.7387 17.3338 24.4818 19.342L24.4794 19.346C23.8225 20.4178 23.0594 21.414 22.2767 22.4293L22.207 22.5196C21.4515 23.4994 20.6799 24.5 20.0055 25.5749L20.0053 25.5751C19.3206 26.6677 18.8417 27.6853 18.3167 28.8346L18.3163 28.8354C18.25 28.9812 18.1828 29.1522 18.1186 29.3156C18.0914 29.3845 18.0649 29.4521 18.0391 29.5159C17.9462 29.7459 17.8524 29.9582 17.7434 30.1411C17.5275 30.5034 17.3076 30.6673 17.0007 30.6673C16.6936 30.6673 16.4735 30.5034 16.2553 30.1398C16.1452 29.9563 16.0501 29.7435 15.9548 29.5125C15.9312 29.4551 15.9069 29.3949 15.8821 29.3335C15.814 29.1649 15.7424 28.9872 15.6703 28.8341C15.1568 27.6791 14.6647 26.6648 13.982 25.5755C13.2962 24.4754 12.5102 23.4559 11.7423 22.46L11.7105 22.4187C10.9272 21.4028 10.1641 20.41 9.50703 19.3448ZM12.959 13.1048C12.959 15.336 14.7695 17.1465 17.0007 17.1465C19.2318 17.1465 21.0423 15.336 21.0423 13.1048C21.0423 10.8737 19.2318 9.06315 17.0007 9.06315C14.7695 9.06315 12.959 10.8737 12.959 13.1048Z" stroke="white"/>
    </g>
  </g>
  <defs>
    <filter id="filter0_d_7906_28580" x="4.08398" y="1.83398" width="27.834" height="36.334" filterUnits="userSpaceOnUse" color-interpolation-filters="sRGB">
      <feFlood flood-opacity="0" result="BackgroundImageFix"/>
      <feColorMatrix in="SourceAlpha" type="matrix" values="0 0 0 0 0 0 0 0 0 0 0 0 0 0 0 0 0 0 127 0" result="hardAlpha"/>
      <feOffset dx="1" dy="3"/>
      <feGaussianBlur stdDeviation="2"/>
      <feComposite in2="hardAlpha" operator="out"/>
      <feColorMatrix type="matrix" values="0 0 0 0 0 0 0 0 0 0 0 0 0 0 0 0 0 0 0.25 0"/>
      <feBlend mode="normal" in2="BackgroundImageFix" result="effect1_dropShadow_7906_28580"/>
      <feBlend mode="normal" in="SourceGraphic" in2="effect1_dropShadow_7906_28580" result="shape"/>
    </filter>
    <clipPath id="clip0_7906_28580">
      <rect width="34" height="34" fill="white"/>
    </clipPath>
  </defs>
</svg>
