<svg
  viewBox="0 0 14 14"
  fill="none"
  xmlns="http://www.w3.org/2000/svg"
>
  <g clip-path="url(#clip0_7152_11827)">
    <path d="M12.8333 7.00016L10.5 9.3335L9.67746 8.511L10.5991 7.5835H7.54829C7.34996 9.39183 6.22996 10.9202 4.66663 11.696C4.64329 12.6527 3.87329 13.4168 2.91663 13.4168C1.94829 13.4168 1.16663 12.6352 1.16663 11.6668C1.16663 10.6985 1.94829 9.91683 2.91663 9.91683C3.47079 9.91683 3.95496 10.1793 4.27579 10.5818C5.38413 9.981 6.17746 8.88433 6.36413 7.5835H4.55579C4.31663 8.26016 3.67496 8.75016 2.91663 8.75016C1.94829 8.75016 1.16663 7.9685 1.16663 7.00016C1.16663 6.03183 1.94829 5.25016 2.91663 5.25016C3.67496 5.25016 4.31663 5.74016 4.56163 6.41683H6.36996C6.18329 5.116 5.38413 4.02516 4.27579 3.4185C3.95496 3.821 3.47079 4.0835 2.91663 4.0835C1.94829 4.0835 1.16663 3.30183 1.16663 2.3335C1.16663 1.36516 1.94829 0.583496 2.91663 0.583496C3.87329 0.583496 4.64329 1.34766 4.66079 2.30433C6.22413 3.08016 7.34413 4.6085 7.54246 6.41683H10.5933L9.67163 5.48933L10.5 4.66683L12.8333 7.00016Z" fill="currentColor"/>
  </g>
  <defs>
    <clipPath id="clip0_7152_11827">
      <rect width="14" height="14" fill="white"/>
    </clipPath>
  </defs>
</svg>
