<svg
  viewBox="0 0 12 14"
  fill="none"
  xmlns="http://www.w3.org/2000/svg"
>
  <path d="M0.979821 10.1466L0.833374 10.2931V10.5002V11.0835V11.5835H1.33337H4.33337V11.6668C4.33337 12.583 5.07477 13.3335 6.00004 13.3335C6.91785 13.3335 7.66671 12.5846 7.66671 11.6668V11.5835H10.6667H11.1667V11.0835V10.5002V10.2931L11.0203 10.1466L10 9.12639V6.41683C10 4.58481 9.07511 2.94437 7.37504 2.35547V2.3335C7.37504 1.57319 6.76035 0.958496 6.00004 0.958496C5.23973 0.958496 4.62504 1.57319 4.62504 2.3335V2.35503C2.91992 2.94305 2.00004 4.57951 2.00004 6.41683V9.12639L0.979821 10.1466ZM5.91671 8.8335V8.66683H6.08337V8.8335H5.91671ZM5.91671 6.50016V5.16683H6.08337V6.50016H5.91671Z" fill="currentColor" stroke="white"/>
</svg>
