<svg viewBox="0 0 24 24" fill="currentColor" xmlns="http://www.w3.org/2000/svg">
  <path d="M6.98826 12.2974C6.98826 11.6511 6.53951 11.2654 5.74757 11.2654C5.42452 11.2654 5.20565 11.2965 5.09088 11.3278V13.403C5.22657 13.4338 5.39336 13.4444 5.62212 13.4444C6.46704 13.4444 6.98826 13.017 6.98826 12.2974Z" />
  <path d="M11.8899 11.2862C11.535 11.2862 11.3062 11.3175 11.1702 11.3487V15.9467C11.3059 15.9784 11.5249 15.9784 11.7231 15.9784C13.1618 15.9885 14.1002 15.1965 14.1002 13.5177C14.1107 12.0574 13.2555 11.2862 11.8899 11.2862Z" />
  <path d="M21.2822 8.58469H20.7059V5.80404C20.7059 5.7867 20.7031 5.76923 20.7008 5.75167C20.6999 5.64125 20.6648 5.5328 20.5892 5.44687L15.9619 0.160958C15.9605 0.159608 15.9591 0.159128 15.9582 0.157647C15.9306 0.126841 15.8984 0.10122 15.8644 0.0790412C15.8544 0.0722874 15.8442 0.066623 15.8337 0.0607842C15.8042 0.0447058 15.773 0.0313725 15.7408 0.0217429C15.7321 0.0193028 15.7243 0.0157298 15.7155 0.013464C15.6806 0.00518517 15.6443 0 15.6075 0H4.23531C3.71601 0 3.29413 0.422352 3.29413 0.941218V8.58447H2.71797C1.97509 8.58447 1.37274 9.18656 1.37274 9.9297V16.9251C1.37274 17.6677 1.97509 18.2702 2.71797 18.2702H3.29418V23.0588C3.29418 23.5776 3.71605 24 4.23535 24H19.7647C20.2836 24 20.7059 23.5776 20.7059 23.0588V18.2702H21.2822C22.0249 18.2702 22.6273 17.6677 22.6273 16.9251V9.92992C22.6273 9.18682 22.0248 8.58469 21.2822 8.58469ZM4.23531 0.941393H15.1369V5.75676C15.1369 6.01676 15.3479 6.22735 15.6075 6.22735H19.7647V8.58499H4.23531V0.941393ZM15.7891 13.465C15.7891 14.8104 15.2992 15.738 14.6204 16.3118C13.881 16.9269 12.7546 17.2187 11.3788 17.2187C10.5553 17.2187 9.97151 17.1665 9.57482 17.1146V10.212C10.1587 10.1183 10.9203 10.0662 11.7231 10.0662C13.057 10.0662 13.9226 10.3062 14.6006 10.8168C15.3302 11.359 15.7891 12.2242 15.7891 13.465ZM3.51635 17.1459V10.212C4.00616 10.129 4.69465 10.0662 5.66432 10.0662C6.64432 10.0662 7.34306 10.2539 7.81208 10.6295C8.26053 10.9838 8.56218 11.5678 8.56218 12.256C8.56218 12.9444 8.33343 13.5282 7.91604 13.9242C7.37391 14.4352 6.57116 14.6647 5.63252 14.6647C5.42432 14.6647 5.236 14.6541 5.09069 14.6332V17.1461H3.51635V17.1459ZM19.7647 22.804H4.23531V18.2702H19.7647V22.804H19.7647ZM21.1284 11.4216H18.4274V13.0273H20.9508V14.3203H18.4274V17.1459H16.8329V10.1183H21.1284V11.4216Z" />
</svg>
