<svg width="53" height="53" viewBox="0 0 53 53" fill="currentColor" xmlns="http://www.w3.org/2000/svg">
    <g>
        <g>
            <path d="M23 28C25.21 28 27 26.21 27 24C27 21.79 25.21 20 23 20C20.79 20 19 21.79 19 24C19 26.21 20.79 28 23 28ZM23 30C20.33 30 15 31.34 15 34V36H31V34C31 31.34 25.67 30 23 30Z" />
        </g>
        <g>
            <path d="M36 14H35.5V13C35.5 11.62 34.38 10.5 33 10.5C31.62 10.5 30.5 11.62 30.5 13V14H30C29.45 14 29 14.45 29 15V20C29 20.55 29.45 21 30 21H36C36.55 21 37 20.55 37 20V15C37 14.45 36.55 14 36 14ZM33 18.5C32.45 18.5 32 18.05 32 17.5C32 16.95 32.45 16.5 33 16.5C33.55 16.5 34 16.95 34 17.5C34 18.05 33.55 18.5 33 18.5ZM34.55 14H31.45V13C31.45 12.145 32.145 11.45 33 11.45C33.855 11.45 34.55 12.145 34.55 13V14Z" />
        </g>
    </g>
</svg>
