<svg
  viewBox="0 0 14 14"
  fill="none"
  xmlns="http://www.w3.org/2000/svg"
>
  <g clip-path="url(#clip0_7153_11843)">
    <path d="M2.33337 5.83333H9.33337V7H2.33337V5.83333ZM2.33337 3.5H9.33337V4.66667H2.33337V3.5ZM2.33337 8.16667H7.00004V9.33333H2.33337V8.16667Z" fill="white"/>
    <path d="M8.07858 9.90412L10.5567 7.41098C10.3116 6.78085 10.4478 6.04113 10.9652 5.52059C11.5098 4.97265 12.3268 4.86306 12.9803 5.16443L11.8094 6.3425L12.6263 7.16441L13.8245 5.98634C14.1513 6.64387 14.0151 7.46578 13.4705 8.01372C12.9531 8.53426 12.2178 8.67125 11.5915 8.42468L9.11339 10.9178C9.00446 11.0274 8.84107 11.0274 8.73214 10.9178L8.10581 10.2877C7.96965 10.1781 7.96965 9.98631 8.07858 9.90412Z" fill="white"/>
  </g>
  <defs>
    <clipPath id="clip0_7153_11843">
      <rect width="14" height="14" fill="white"/>
    </clipPath>
  </defs>
</svg>
