<svg width="21" height="20" viewBox="0 0 21 20" fill="none" xmlns="http://www.w3.org/2000/svg">
  <path d="M9.95745 0.71582H9.93424L9.70213 0.762242C9.19149 0.824138 8.69246 0.967271 8.20503 1.19164C7.7176 1.41601 7.2882 1.71389 6.91683 2.08526C6.2824 2.65779 5.84139 3.36186 5.59381 4.19744C5.45455 4.66166 5.39265 5.14909 5.40812 5.65973C5.4236 6.17037 5.51644 6.65779 5.68665 7.12201C5.94971 7.81833 6.35203 8.42182 6.89362 8.93245L7.19536 9.21098L5.26886 12.3444C4.86654 12.329 4.51838 12.3831 4.22437 12.5069C3.76015 12.7081 3.41199 13.0176 3.17988 13.4354C3.07157 13.6675 3.00193 13.9073 2.97099 14.1549C2.94004 14.4025 2.95551 14.6501 3.01741 14.8976C3.1412 15.3619 3.39652 15.7332 3.78337 16.0118C4.01547 16.1665 4.27079 16.2787 4.54932 16.3483C4.82785 16.4179 5.10638 16.4334 5.38491 16.3947C5.66344 16.3561 5.93037 16.2593 6.18569 16.1046C6.44101 15.9499 6.65377 15.7564 6.82398 15.5243C7.00967 15.2613 7.12186 14.9595 7.16054 14.6191C7.19923 14.2787 7.15667 13.9615 7.03288 13.6675C7.01741 13.5901 6.96325 13.4818 6.87041 13.3425L6.80077 13.2032L9.53965 8.74677C9.6325 8.6075 9.69439 8.49919 9.72534 8.42182L9.49323 8.35218C9.35397 8.32124 9.25339 8.29029 9.19149 8.25934C8.83559 8.1046 8.51451 7.89184 8.22824 7.62104C7.94197 7.35025 7.72147 7.04464 7.56673 6.70421C7.30368 6.14715 7.23404 5.56688 7.35783 4.9634C7.41973 4.6075 7.55126 4.27481 7.75242 3.96534C7.95358 3.65586 8.19342 3.3928 8.47195 3.17617C9.04449 2.75837 9.67892 2.54948 10.3752 2.54948C10.793 2.534 11.1992 2.6075 11.5938 2.76998C11.9884 2.93245 12.3327 3.16843 12.6267 3.47791C12.8897 3.72549 13.0948 4.02336 13.2418 4.37153C13.3888 4.71969 13.47 5.07172 13.4855 5.42762C13.4855 5.69068 13.4391 6.01563 13.3462 6.40247L14.971 6.84348L15.1567 6.86669C15.3733 6.20131 15.4275 5.53594 15.3191 4.87056C15.2573 4.35992 15.1064 3.86862 14.8665 3.39667C14.6267 2.92472 14.3211 2.51079 13.9497 2.15489C13.2998 1.50499 12.5029 1.07172 11.559 0.855085C11.4662 0.824138 11.3269 0.79319 11.1412 0.762242L10.8162 0.71582H9.95745ZM10.3752 3.59396C10.1122 3.59396 9.84913 3.64812 9.58607 3.75644C9.32302 3.86476 9.08704 4.02336 8.87814 4.23226C8.66925 4.44116 8.51838 4.68487 8.42553 4.9634C8.30174 5.27288 8.27079 5.61331 8.33269 5.98468C8.37911 6.26321 8.48743 6.52627 8.65764 6.77385C8.82785 7.02143 9.04449 7.21485 9.30754 7.35412C9.67892 7.58623 10.1122 7.68681 10.6074 7.65586C10.6538 7.71775 10.6925 7.77965 10.7234 7.84155L13.323 12.2748C13.3694 12.3677 13.4159 12.4373 13.4623 12.4837C13.8801 12.0814 14.3327 11.8067 14.8201 11.6597C15.3075 11.5127 15.8104 11.4856 16.3288 11.5785C16.8472 11.6713 17.2998 11.8725 17.6867 12.182C18.1818 12.5688 18.5184 13.0446 18.6963 13.6094C18.8743 14.1742 18.8781 14.7429 18.7079 15.3154C18.5841 15.7487 18.3636 16.1355 18.0464 16.476C17.7292 16.8164 17.354 17.0717 16.9207 17.2419C16.441 17.4431 15.9265 17.5089 15.3772 17.4392C14.8279 17.3696 14.3366 17.18 13.9033 16.8706C13.8414 16.8241 13.7408 16.7468 13.6015 16.6385L13.4855 16.4992C13.4236 16.5456 13.3385 16.623 13.2302 16.7313L12.1393 17.799C12.4952 18.1549 12.8975 18.4528 13.3462 18.6926C13.795 18.9325 14.2669 19.0988 14.7621 19.1916L15.2727 19.2845H16.1779L16.8279 19.1684C17.8182 18.9673 18.6692 18.5031 19.381 17.7758C19.7215 17.4354 20.0039 17.0446 20.2282 16.6036C20.4526 16.1626 20.6035 15.7023 20.6809 15.2226C20.7582 14.6655 20.7427 14.1123 20.6344 13.563C20.5261 13.0137 20.3327 12.5147 20.0542 12.0659C19.7756 11.6172 19.4352 11.2226 19.0329 10.8822C18.6306 10.5417 18.1896 10.2709 17.7099 10.0698C17.1838 9.85315 16.6383 9.72936 16.0735 9.69841C15.5087 9.66746 14.9555 9.72162 14.4139 9.86089L14.0193 9.97694L12.1393 6.79706C12.3404 6.50305 12.4642 6.21679 12.5106 5.93826C12.588 5.44309 12.4874 4.97888 12.2089 4.54561C11.9613 4.15876 11.6209 3.88797 11.1876 3.73323C10.9246 3.64038 10.6538 3.59396 10.3752 3.59396ZM3.82979 9.72162C2.9323 9.92278 2.15861 10.3328 1.5087 10.9518C0.781431 11.6326 0.309478 12.445 0.0928433 13.3889L0 13.946V14.8048L0.0464217 15.0601C0.0773694 15.2613 0.108317 15.416 0.139265 15.5243C0.247582 16.004 0.437137 16.4605 0.70793 16.8938C0.978723 17.327 1.30754 17.7061 1.69439 18.0311C2.46809 18.6655 3.35783 19.0446 4.36364 19.1684C4.95164 19.2303 5.53965 19.1955 6.12766 19.064C6.71567 18.9325 7.25725 18.712 7.75242 18.4025C8.57253 17.8764 9.17602 17.1723 9.56286 16.2903C9.67118 16.0272 9.7795 15.6791 9.88781 15.2458C9.98066 15.2303 10.1199 15.2303 10.3056 15.2458L13.207 15.2922C13.4236 15.2922 13.5783 15.3 13.6712 15.3154C13.8414 15.6249 14.0348 15.8648 14.2515 16.035C14.4681 16.2052 14.7118 16.329 14.9826 16.4063C15.2534 16.4837 15.528 16.5147 15.8066 16.4992C16.2398 16.4528 16.6267 16.298 16.9671 16.035C17.3849 15.71 17.6325 15.2922 17.7099 14.7816C17.7408 14.5185 17.7292 14.2632 17.675 14.0156C17.6209 13.768 17.5164 13.5359 17.3617 13.3193C17.1141 12.9789 16.7969 12.7313 16.4101 12.5766C16.147 12.4682 15.8723 12.4179 15.5861 12.4257C15.2998 12.4334 15.0251 12.4914 14.7621 12.5998C14.3288 12.7855 13.9961 13.0717 13.764 13.4586L13.6944 13.5978C13.4778 13.5978 13.1528 13.5901 12.7195 13.5746L10.0967 13.5514C9.8646 13.5359 9.53192 13.5282 9.09865 13.5282L7.9381 13.505L8.00774 13.8996C8.13153 14.5649 8.03095 15.1916 7.706 15.7796C7.48936 16.1974 7.17988 16.5456 6.77756 16.8241C6.37524 17.1027 5.93424 17.2729 5.45455 17.3348C4.91296 17.4276 4.37137 17.3696 3.82979 17.1607C3.2882 16.9518 2.8472 16.623 2.50677 16.1742C2.0735 15.6326 1.8646 15.0214 1.88008 14.3406C1.89555 13.768 2.0735 13.2342 2.41393 12.739C2.61509 12.445 2.86267 12.1974 3.15667 11.9963C3.45068 11.7951 3.76789 11.6481 4.10832 11.5553L4.31721 11.4856L3.82979 9.72162Z" fill="currentColor"/>
</svg>
